<?xml version="1.0" encoding="utf-8"?>
<!-- Generated by IcoMoon.io -->
<!DOCTYPE svg PUBLIC "-//W3C//DTD SVG 1.1//EN" "http://www.w3.org/Graphics/SVG/1.1/DTD/svg11.dtd">
<svg version="1.1" xmlns="http://www.w3.org/2000/svg" xmlns:xlink="http://www.w3.org/1999/xlink" width="17" height="17" viewBox="0 0 17 17">
<g>
</g>
	<path d="M16.592 1.152c-0.053-0.010-1.321-0.244-2.981-0.244-2.105 0-3.828 0.366-5.125 1.088-1.518-0.765-3.264-1.152-5.196-1.152-1.681 0-2.866 0.302-2.915 0.315l-0.375 0.098 0.001 13.906 0.624-0.161c0.011-0.002 1.12-0.283 2.665-0.283 1.447 0 2.771 0.24 3.96 0.703v0.828h2.5v-0.856c1.281-0.488 2.747-0.611 3.86-0.611 1.562 0 2.786 0.225 2.798 0.227l0.592 0.11v-13.891l-0.408-0.077zM1 13.907v-11.858c0.451-0.084 1.277-0.205 2.29-0.205 1.761 0 3.339 0.36 4.71 1.044v11.776c-1.403-0.617-2.977-0.945-4.71-0.945-0.969 0-1.773 0.101-2.29 0.188zM16 13.938c-0.536-0.070-1.393-0.154-2.39-0.154-1.848 0-3.381 0.298-4.61 0.855v-11.773c1.422-0.78 3.271-0.958 4.61-0.958 1.023 0 1.902 0.097 2.39 0.164v11.866z" fill="#000000" />
</svg>
