<?xml version="1.0" encoding="utf-8"?>
<!-- Generated by IcoMoon.io -->
<!DOCTYPE svg PUBLIC "-//W3C//DTD SVG 1.1//EN" "http://www.w3.org/Graphics/SVG/1.1/DTD/svg11.dtd">
<svg version="1.1" xmlns="http://www.w3.org/2000/svg" xmlns:xlink="http://www.w3.org/1999/xlink" width="17" height="17" viewBox="0 0 17 17">
<g>
</g>
	<path d="M15.913 1.782l-6.5 9.5-0.825-0.564 6.5-9.5 0.825 0.564zM9 13.992c0 1.103-0.897 2-2 2-0.203 0-0.538 0.015-0.541 0.015h-5.454l4.553-3.431c0.15-0.104 0.859-0.584 1.442-0.584 1.103 0 2 0.897 2 2zM8 13.992c0-0.551-0.449-1-1-1-0.175 0-0.582 0.203-0.853 0.393l-2.153 1.623h2.433c0.063-0.003 0.376-0.016 0.573-0.016 0.551 0 1-0.449 1-1z" fill="#000000" />
</svg>
