<?xml version="1.0" encoding="utf-8"?>
<!-- Generated by IcoMoon.io -->
<!DOCTYPE svg PUBLIC "-//W3C//DTD SVG 1.1//EN" "http://www.w3.org/Graphics/SVG/1.1/DTD/svg11.dtd">
<svg version="1.1" xmlns="http://www.w3.org/2000/svg" xmlns:xlink="http://www.w3.org/1999/xlink" width="17" height="17" viewBox="0 0 17 17">
<g>
</g>
	<path d="M5.958 3v-1h-2.916v1h-3.042v12h17v-12h-11.042zM16 14h-15v-7h6.557c-0.345 0.591-0.557 1.269-0.557 2 0 2.206 1.794 4 4 4s4-1.794 4-4c0-0.731-0.212-1.409-0.557-2h1.557v7zM14 9c0 1.654-1.346 3-3 3s-3-1.346-3-3 1.346-3 3-3 3 1.346 3 3zM13.618 6c-0.704-0.614-1.612-1-2.618-1s-1.914 0.386-2.618 1h-7.382v-2h15v2h-2.382z" fill="#000000" />
</svg>
