<?xml version="1.0" encoding="utf-8"?>
<!-- Generated by IcoMoon.io -->
<!DOCTYPE svg PUBLIC "-//W3C//DTD SVG 1.1//EN" "http://www.w3.org/Graphics/SVG/1.1/DTD/svg11.dtd">
<svg version="1.1" xmlns="http://www.w3.org/2000/svg" xmlns:xlink="http://www.w3.org/1999/xlink" width="17" height="17" viewBox="0 0 17 17">
<g>
</g>
	<path d="M17 9.984l-1.958 0.002-2.051-3.986h-7.949l-2.968 3.999-2.074 0.001v4.977h2.002c0 0.008-0.002 0.015-0.002 0.023 0 1.103 0.897 2 2 2s2-0.897 2-2c0-0.008-0.002-0.015-0.002-0.023h5.005c-0.001 0.008-0.003 0.015-0.003 0.023 0 1.103 0.897 2 2 2s2-0.897 2-2c0-0.008-0.002-0.015-0.002-0.023h2.002v-4.993zM13.918 9.987l-3.897 0.004v-2.991h2.36l1.537 2.987zM5.544 7h3.477v2.992l-5.701 0.005 2.224-2.997zM4 16c-0.551 0-1-0.449-1-1s0.449-1 1-1 1 0.449 1 1-0.449 1-1 1zM13 16c-0.551 0-1-0.449-1-1s0.449-1 1-1 1 0.449 1 1-0.449 1-1 1zM16 13.977h-1.291c-0.35-0.582-0.981-0.977-1.709-0.977s-1.359 0.395-1.709 0.977h-5.582c-0.35-0.582-0.981-0.977-1.709-0.977s-1.359 0.395-1.709 0.977h-1.291v-2.977l15-0.015v2.992z" fill="#000000" />
</svg>
