<?xml version="1.0" encoding="utf-8"?>
<!-- Generated by IcoMoon.io -->
<!DOCTYPE svg PUBLIC "-//W3C//DTD SVG 1.1//EN" "http://www.w3.org/Graphics/SVG/1.1/DTD/svg11.dtd">
<svg version="1.1" xmlns="http://www.w3.org/2000/svg" xmlns:xlink="http://www.w3.org/1999/xlink" width="17" height="17" viewBox="0 0 17 17">
<g>
</g>
	<path d="M12.021 4.234v8.498h-1v-8.498c0-1.091-0.799-2.266-2.554-2.266-1.941 0-2.459 1.424-2.459 2.266v8.121h0.007v1.457c0 0.62 0.693 1.206 1.426 1.206 0.844 0 1.567-0.683 1.567-1.241v-0.27h-0.003l0.008-7.617c0-0.874-0.247-0.874-0.466-0.874-0.369 0-0.547 0.035-0.547 0.823v5.146h-1v-5.146c0-0.451 0-1.823 1.547-1.823 0.669 0 1.466 0.325 1.466 1.875l-0.007 6.43h0.002v1.457c0 1.173-1.224 2.241-2.567 2.241-1.292 0-2.426-1.031-2.426-2.206v-0.074h-0.007v-9.505c0-1.573 1.082-3.266 3.459-3.266 2.333 0.001 3.554 1.643 3.554 3.266z" fill="#000000" />
</svg>
