<?xml version="1.0" encoding="utf-8"?>
<!-- Generated by IcoMoon.io -->
<!DOCTYPE svg PUBLIC "-//W3C//DTD SVG 1.1//EN" "http://www.w3.org/Graphics/SVG/1.1/DTD/svg11.dtd">
<svg version="1.1" xmlns="http://www.w3.org/2000/svg" xmlns:xlink="http://www.w3.org/1999/xlink" width="17" height="17" viewBox="0 0 17 17">
<g>
</g>
	<path d="M17 1.5v7.969c0 0.827-0.673 1.5-1.5 1.5h-0.508v-1h0.508c0.276 0 0.5-0.225 0.5-0.5v-7.969c0-0.275-0.224-0.5-0.5-0.5h-14c-0.276 0-0.5 0.225-0.5 0.5v7.969c0 0.275 0.224 0.5 0.5 0.5h1.5v2.892l1.779-1.569 0.661 0.75-3.44 3.035v-4.108h-0.5c-0.827 0-1.5-0.673-1.5-1.5v-7.969c0-0.827 0.673-1.5 1.5-1.5h14c0.827 0 1.5 0.673 1.5 1.5zM14.020 9.54v3.043c0 0.827-0.673 1.5-1.5 1.5h-0.5v3.064l-3.667-3.064h-0.853c-0.827 0-1.5-0.673-1.5-1.5v-3.043c0-0.827 0.673-1.5 1.5-1.5h5.020c0.827 0 1.5 0.673 1.5 1.5zM13.020 9.54c0-0.275-0.224-0.5-0.5-0.5h-5.020c-0.276 0-0.5 0.225-0.5 0.5v3.043c0 0.275 0.224 0.5 0.5 0.5h1.217l2.303 1.926v-1.926h1.5c0.276 0 0.5-0.225 0.5-0.5v-3.043z" fill="#000000" />
</svg>
