<?xml version="1.0" encoding="utf-8"?>
<!-- Generated by IcoMoon.io -->
<!DOCTYPE svg PUBLIC "-//W3C//DTD SVG 1.1//EN" "http://www.w3.org/Graphics/SVG/1.1/DTD/svg11.dtd">
<svg version="1.1" xmlns="http://www.w3.org/2000/svg" xmlns:xlink="http://www.w3.org/1999/xlink" width="17" height="17" viewBox="0 0 17 17">
<g>
</g>
	<path d="M8.94 6.871l1.081-1.34-0.004-0.003c0.855-0.971 2.087-1.528 3.378-1.528h1.898l-1.646-1.646 0.707-0.707 2.853 2.853-2.854 2.854-0.707-0.707 1.647-1.647h-1.898c-0.989 0-1.931 0.425-2.595 1.159l-1.080 1.339-0.78-0.627zM5.851 10.696l-0.011-0.008c-0.667 0.833-1.663 1.312-2.733 1.312h-3.107v1h3.107c1.369 0 2.645-0.611 3.503-1.676l0.011 0.009 0.941-1.166-0.777-0.629-0.934 1.158zM13.646 10.354l1.647 1.646h-1.898c-1.052 0-2.031-0.469-2.7-1.281l-4.269-5.265-0.010 0.008c-0.85-0.926-2.048-1.462-3.309-1.462h-3.107v1h3.107c0.998 0 1.948 0.428 2.611 1.17l4.161 5.132-0.005 0.004c0.86 1.076 2.143 1.694 3.52 1.694h1.898l-1.646 1.646 0.707 0.707 2.854-2.854-2.854-2.854-0.707 0.709z" fill="#000000" />
</svg>
