<?xml version="1.0" encoding="utf-8"?>
<!-- Generated by IcoMoon.io -->
<!DOCTYPE svg PUBLIC "-//W3C//DTD SVG 1.1//EN" "http://www.w3.org/Graphics/SVG/1.1/DTD/svg11.dtd">
<svg version="1.1" xmlns="http://www.w3.org/2000/svg" xmlns:xlink="http://www.w3.org/1999/xlink" width="17" height="17" viewBox="0 0 17 17">
<g>
</g>
	<path d="M13.446 4.201l-5.196-3.001c-0.69-0.397-1.65-0.141-2.048 0.55l-6 10.393c-0.414 0.716-0.167 1.635 0.55 2.050l3.179 1.824 4.357-0.018 5.708-9.749c0.413-0.716 0.167-1.635-0.55-2.049zM7.713 15.001l-3.518 0.014-2.945-1.689c-0.239-0.139-0.321-0.444-0.183-0.684l2.75-4.764 6.027 3.48-2.131 3.643zM13.13 5.747l-2.781 4.75-6.032-3.483 2.75-4.764c0.089-0.154 0.256-0.25 0.434-0.25 0.088 0 0.172 0.022 0.249 0.066l5.196 3c0.239 0.139 0.321 0.445 0.184 0.681zM17 15v1h-7v-1h7z" fill="#000000" />
</svg>
