<?xml version="1.0" encoding="utf-8"?>
<!-- Generated by IcoMoon.io -->
<!DOCTYPE svg PUBLIC "-//W3C//DTD SVG 1.1//EN" "http://www.w3.org/Graphics/SVG/1.1/DTD/svg11.dtd">
<svg version="1.1" xmlns="http://www.w3.org/2000/svg" xmlns:xlink="http://www.w3.org/1999/xlink" width="17" height="17" viewBox="0 0 17 17">
<g>
</g>
	<path d="M8.5 0.5c-4.418 0-8 3.583-8 8 0 4.418 3.582 8 8 8s8-3.582 8-8c0-4.417-3.582-8-8-8zM5.433 10.979c-1.391 0-2.519-1.126-2.519-2.518 0-1.391 1.128-2.518 2.519-2.518s2.517 1.127 2.517 2.518c0 1.392-1.127 2.518-2.517 2.518zM11.75 10.979c-1.391 0-2.518-1.126-2.518-2.518 0-1.391 1.127-2.518 2.518-2.518s2.518 1.127 2.518 2.518c0 1.392-1.127 2.518-2.518 2.518z" fill="#000000" />
</svg>
