<?xml version="1.0" encoding="utf-8"?>
<!-- Generated by IcoMoon.io -->
<!DOCTYPE svg PUBLIC "-//W3C//DTD SVG 1.1//EN" "http://www.w3.org/Graphics/SVG/1.1/DTD/svg11.dtd">
<svg version="1.1" xmlns="http://www.w3.org/2000/svg" xmlns:xlink="http://www.w3.org/1999/xlink" width="17" height="17" viewBox="0 0 17 17">
<g>
</g>
	<path d="M7.295 8.5c0 2.014-1.634 3.647-3.646 3.647-2.015 0-3.649-1.633-3.649-3.647s1.634-3.647 3.649-3.647c2.012 0 3.646 1.633 3.646 3.647zM17 8.5c0 2.014-1.634 3.647-3.649 3.647-2.012 0-3.646-1.634-3.646-3.647s1.634-3.647 3.646-3.647c2.015 0 3.649 1.633 3.649 3.647zM16 8.5c0-1.46-1.188-2.647-2.649-2.647-1.459 0-2.646 1.188-2.646 2.647s1.187 2.647 2.646 2.647c1.461 0 2.649-1.187 2.649-2.647z" fill="#000000" />
</svg>
