<?xml version="1.0" encoding="utf-8"?>
<!-- Generated by IcoMoon.io -->
<!DOCTYPE svg PUBLIC "-//W3C//DTD SVG 1.1//EN" "http://www.w3.org/Graphics/SVG/1.1/DTD/svg11.dtd">
<svg version="1.1" xmlns="http://www.w3.org/2000/svg" xmlns:xlink="http://www.w3.org/1999/xlink" width="17" height="17" viewBox="0 0 17 17">
<g>
</g>
	<path d="M13.077 11.115c0 0.746-0.389 1.962-1.308 1.962-0.92 0-1.309-1.216-1.309-1.962 0-0.745 0.389-1.962 1.309-1.962 0.919 0 1.308 1.217 1.308 1.962zM5.231 9.153c-0.919 0-1.308 1.217-1.308 1.962 0 0.746 0.389 1.962 1.308 1.962 0.919 0 1.308-1.216 1.308-1.962 0-0.745-0.389-1.962-1.308-1.962zM17 9.317c0 1.135-0.112 2.34-0.623 3.382-1.349 2.728-5.057 2.993-7.713 2.993-2.697 0-6.63-0.234-8.030-2.993-0.522-1.032-0.634-2.247-0.634-3.382 0-1.492 0.409-2.901 1.39-4.045-0.184-0.562-0.276-1.155-0.276-1.738 0-0.766 0.173-1.531 0.521-2.227 1.614 0 2.646 0.705 3.872 1.665 1.032-0.245 2.094-0.357 3.157-0.357 0.96 0 1.931 0.103 2.861 0.327 1.216-0.95 2.247-1.635 3.841-1.635 0.348 0.695 0.521 1.461 0.521 2.227 0 0.583-0.092 1.165-0.276 1.717 0.981 1.154 1.389 2.574 1.389 4.066zM14.711 11.115c0-1.563-0.949-2.942-2.615-2.942-0.674 0-1.317 0.123-1.992 0.215-0.531 0.082-1.062 0.112-1.604 0.112s-1.073-0.030-1.604-0.112c-0.664-0.092-1.318-0.215-1.992-0.215-1.665 0-2.615 1.379-2.615 2.942 0 3.126 2.86 3.606 5.353 3.606h1.717c2.493 0.001 5.352-0.48 5.352-3.606z" fill="#000000" />
</svg>
