<?xml version="1.0" encoding="utf-8"?>
<!-- Generated by IcoMoon.io -->
<!DOCTYPE svg PUBLIC "-//W3C//DTD SVG 1.1//EN" "http://www.w3.org/Graphics/SVG/1.1/DTD/svg11.dtd">
<svg version="1.1" xmlns="http://www.w3.org/2000/svg" xmlns:xlink="http://www.w3.org/1999/xlink" width="17" height="17" viewBox="0 0 17 17">
<g>
</g>
	<path d="M17 2.615v1.308h-2.615v2.616h-1.308v-2.616h-2.615v-1.308h2.615v-2.615h1.308v2.615h2.615zM10.39 12.78c0 1.175-0.561 2.125-1.43 2.881-1.175 1.012-2.779 1.339-4.291 1.339-1.91 0-4.669-0.817-4.669-3.187 0-0.48 0.164-0.951 0.379-1.38 0.908-1.838 3.748-2.309 5.577-2.36-0.336-0.439-0.653-0.949-0.653-1.522 0-0.337 0.121-0.562 0.225-0.878-0.246 0.030-0.48 0.051-0.715 0.051-1.982 0-3.698-1.461-3.698-3.515 0-1.941 1.501-3.596 3.36-4.004 0.624-0.134 1.266-0.205 1.91-0.205h4.466l-1.379 0.807h-1.381c1.013 0.633 1.523 1.87 1.523 3.014 0 2.707-2.289 2.911-2.289 4.26 0 1.318 3.065 1.839 3.065 4.699zM7.725 4.853c0-1.553-0.839-4.117-2.729-4.117-1.337 0-1.991 1.185-1.991 2.391 0 1.552 1.021 3.984 2.84 3.984 1.398-0.001 1.88-1.012 1.88-2.258zM8.95 13.659c0-1.43-1.34-2.227-2.381-2.953-0.174-0.020-0.338-0.020-0.512-0.020-1.674 0-4.168 0.531-4.168 2.656 0 1.961 2.207 2.718 3.842 2.718 1.522 0 3.219-0.613 3.219-2.401z" fill="#000000" />
</svg>
