<?xml version="1.0" encoding="utf-8"?>
<!-- Generated by IcoMoon.io -->
<!DOCTYPE svg PUBLIC "-//W3C//DTD SVG 1.1//EN" "http://www.w3.org/Graphics/SVG/1.1/DTD/svg11.dtd">
<svg version="1.1" xmlns="http://www.w3.org/2000/svg" xmlns:xlink="http://www.w3.org/1999/xlink" width="17" height="17" viewBox="0 0 17 17">
<g>
</g>
	<path d="M16.922 7.494c0 0.829-0.688 1.504-1.535 1.504h-2.325c0.059 0.162 0.091 0.337 0.091 0.518 0 0.791-0.629 1.44-1.424 1.496 0.058 0.158 0.089 0.327 0.089 0.504 0 0.83-0.689 1.506-1.536 1.506h-0.136c0.049 0.145 0.075 0.3 0.075 0.463 0 0.835-0.69 1.515-1.536 1.515h-3.185c-0.67 0-1.555-0.322-2.336-0.606-0.507-0.185-1.081-0.394-1.309-0.394h-0.855c-0.276 0-0.5-0.224-0.5-0.5s0.224-0.5 0.5-0.5h0.855c0.403 0 0.954 0.2 1.65 0.454 0.704 0.256 1.501 0.546 1.995 0.546h3.185c0.291 0 0.536-0.236 0.536-0.516 0-0.292-0.262-0.454-0.52-0.463-0.272-0.010-0.487-0.236-0.482-0.509s0.228-0.491 0.5-0.491h1.562c0.296 0 0.536-0.227 0.536-0.506 0-0.264-0.219-0.483-0.498-0.501-0.271-0.017-0.478-0.244-0.47-0.515 0.009-0.27 0.229-0.484 0.5-0.484h1.268c0.295 0 0.535-0.225 0.535-0.5 0-0.259-0.203-0.488-0.462-0.521-0.261-0.034-0.451-0.266-0.434-0.528 0.018-0.264 0.235-0.468 0.499-0.468h3.631c0.295 0 0.535-0.226 0.535-0.504 0-0.279-0.24-0.506-0.535-0.506h-6.18c-0.206 0-0.391-0.126-0.466-0.318s-0.023-0.41 0.128-0.55l1.211-1.113c0.46-0.459 0.372-0.605 0.287-0.748-0.148-0.249-0.48-0.335-0.742-0.188l-7.097 3.287c-0.089 0.052-0.176 0.164-0.211 0.297-0.055 0.223-0.254 0.378-0.484 0.378h-0.832c-0.276 0-0.5-0.224-0.5-0.5s0.224-0.5 0.5-0.5h0.499c0.134-0.233 0.329-0.428 0.573-0.564l7.098-3.288c0.693-0.39 1.632-0.146 2.055 0.565 0.574 0.957-0.173 1.702-0.453 1.982l-0.282 0.26h4.897c0.846 0 1.535 0.676 1.535 1.506z" fill="#000000" />
</svg>
