<?xml version="1.0" encoding="utf-8"?>
<!-- Generated by IcoMoon.io -->
<!DOCTYPE svg PUBLIC "-//W3C//DTD SVG 1.1//EN" "http://www.w3.org/Graphics/SVG/1.1/DTD/svg11.dtd">
<svg version="1.1" xmlns="http://www.w3.org/2000/svg" xmlns:xlink="http://www.w3.org/1999/xlink" width="17" height="17" viewBox="0 0 17 17">
<g>
</g>
	<path d="M16.422 13.5c0 0.276-0.224 0.5-0.5 0.5h-0.855c-0.227 0-0.802 0.209-1.309 0.394-0.781 0.284-1.666 0.606-2.336 0.606h-3.185c-0.847 0-1.536-0.68-1.536-1.516 0-0.163 0.026-0.318 0.075-0.463h-0.135c-0.847 0-1.536-0.676-1.536-1.506 0-0.177 0.031-0.346 0.089-0.504-0.795-0.055-1.424-0.704-1.424-1.495 0-0.181 0.032-0.355 0.091-0.518h-2.326c-0.847 0-1.535-0.675-1.535-1.504 0-0.83 0.688-1.506 1.535-1.506h4.897l-0.266-0.245c-0.296-0.295-1.043-1.040-0.468-1.998 0.423-0.71 1.36-0.955 2.088-0.547l7.028 3.252c0.268 0.149 0.471 0.348 0.607 0.583h0.5c0.276 0 0.5 0.224 0.5 0.5s-0.224 0.5-0.5 0.5h-0.831c-0.229 0-0.429-0.155-0.485-0.378-0.034-0.133-0.121-0.245-0.245-0.315l-7.028-3.251c-0.294-0.164-0.627-0.080-0.775 0.169-0.086 0.144-0.174 0.29 0.3 0.764l1.196 1.098c0.152 0.14 0.202 0.357 0.127 0.55s-0.26 0.318-0.466 0.318h-6.18c-0.294 0-0.534 0.227-0.534 0.506 0 0.278 0.24 0.504 0.535 0.504h3.631c0.264 0 0.482 0.204 0.499 0.468 0.017 0.263-0.173 0.494-0.434 0.528-0.259 0.033-0.461 0.263-0.461 0.522 0 0.275 0.24 0.5 0.535 0.5h1.268c0.27 0 0.492 0.215 0.5 0.484 0.008 0.271-0.2 0.498-0.469 0.515-0.28 0.018-0.499 0.237-0.499 0.501 0 0.279 0.241 0.506 0.536 0.506h1.562c0.273 0 0.495 0.219 0.5 0.491s-0.21 0.499-0.482 0.509c-0.258 0.009-0.52 0.171-0.52 0.463 0 0.279 0.246 0.515 0.536 0.515h3.185c0.494 0 1.291-0.29 1.994-0.546 0.696-0.254 1.247-0.454 1.65-0.454h0.855c0.277 0 0.501 0.224 0.501 0.5z" fill="#000000" />
</svg>
