<?xml version="1.0" encoding="utf-8"?>
<!-- Generated by IcoMoon.io -->
<!DOCTYPE svg PUBLIC "-//W3C//DTD SVG 1.1//EN" "http://www.w3.org/Graphics/SVG/1.1/DTD/svg11.dtd">
<svg version="1.1" xmlns="http://www.w3.org/2000/svg" xmlns:xlink="http://www.w3.org/1999/xlink" width="17" height="17" viewBox="0 0 17 17">
<g>
</g>
	<path d="M13.963 5.6v5.844c0 0.777-0.383 1.241-0.663 1.579-0.234 0.284-0.356 0.443-0.356 0.694v1.783c0 0.276-0.224 0.5-0.5 0.5s-0.5-0.224-0.5-0.5v-1.783c0-0.623 0.325-1.016 0.586-1.331 0.242-0.293 0.434-0.524 0.434-0.941v-5.845c0-0.312-0.268-0.606-0.551-0.606-0.329 0-0.399 0.051-0.402 0.053-0.066 0.089-0.064 0.569-0.063 0.956 0.001 0.189 0.002 0.4-0.002 0.632-0.004 0.274-0.213 0.478-0.504 0.493-0.274-0.002-0.496-0.225-0.496-0.5v-2.12c0-0.307-0.222-0.538-0.516-0.538-0.27 0-0.468 0.201-0.492 0.488v2.003c0 0.276-0.224 0.5-0.5 0.5s-0.5-0.224-0.5-0.5v0-2.011c0-0.003-0.002-0.006-0.002-0.010v-0.773c0-0.066-0.014-0.642-0.474-0.642-0.45 0-0.518 0.402-0.518 0.642v0.703c0 0.028-0.011 0.054-0.016 0.081v2.594c0 0.276-0.224 0.5-0.5 0.5s-0.5-0.224-0.5-0.5v0-2.684c-0.048-0.194-0.188-0.39-0.466-0.39-0.286 0-0.527 0.261-0.527 0.57v3.35c0 0.007-0.006 0.013-0.006 0.020v1.101c0 0.276-0.224 0.5-0.5 0.5s-0.5-0.224-0.5-0.5v-0.834c-0.176-0.064-0.431-0.116-0.577-0.083-0.118 0.023-0.237 0.127-0.311 0.271-0.059 0.113-0.138 0.347-0.009 0.637l1.698 3.717c0.016 0.035 0.027 0.071 0.035 0.108 0.056 0.275 0.312 0.456 0.588 0.431 0.139-0.018 0.281 0.030 0.387 0.125 0.105 0.095 0.166 0.23 0.166 0.372v1.744c0 0.276-0.224 0.5-0.5 0.5s-0.5-0.224-0.5-0.5v-1.286c-0.536-0.139-0.969-0.561-1.107-1.125l-1.679-3.675c-0.22-0.496-0.207-1.043 0.032-1.507 0.214-0.413 0.588-0.709 1.001-0.793 0.21-0.043 0.494-0.031 0.775 0.026v-0.72c0-0.010 0.005-0.019 0.006-0.029v-1.85c0-0.866 0.686-1.57 1.527-1.57 0.2 0 0.392 0.040 0.566 0.112 0.199-0.644 0.733-1.057 1.433-1.057 0.668 0 1.192 0.422 1.389 1.061 0.178-0.075 0.373-0.116 0.579-0.116 0.689 0 1.258 0.444 1.447 1.072 0.183-0.040 0.369-0.049 0.536-0.049 0.842 0 1.552 0.735 1.552 1.606z" fill="#000000" />
</svg>
