<?xml version="1.0" encoding="utf-8"?>
<!-- Generated by IcoMoon.io -->
<!DOCTYPE svg PUBLIC "-//W3C//DTD SVG 1.1//EN" "http://www.w3.org/Graphics/SVG/1.1/DTD/svg11.dtd">
<svg version="1.1" xmlns="http://www.w3.org/2000/svg" xmlns:xlink="http://www.w3.org/1999/xlink" width="17" height="17" viewBox="0 0 17 17">
<g>
</g>
	<path d="M14.5 8.236v3.186c0 0.67-0.322 1.555-0.606 2.335-0.185 0.507-0.394 1.082-0.394 1.31v0.855c0 0.276-0.224 0.5-0.5 0.5s-0.5-0.224-0.5-0.5v-0.855c0-0.404 0.201-0.955 0.454-1.652 0.256-0.702 0.546-1.498 0.546-1.992v-3.187c0-0.29-0.236-0.535-0.516-0.535-0.292 0-0.454 0.262-0.463 0.52-0.009 0.272-0.209 0.507-0.508 0.482-0.272-0.005-0.491-0.228-0.491-0.5v-1.562c0-0.296-0.227-0.537-0.505-0.537-0.264 0-0.484 0.22-0.502 0.5-0.017 0.27-0.228 0.485-0.515 0.468-0.27-0.009-0.484-0.23-0.484-0.5v-1.267c0-0.295-0.224-0.535-0.5-0.535-0.259 0-0.487 0.202-0.521 0.461-0.034 0.26-0.262 0.461-0.528 0.434-0.263-0.017-0.468-0.235-0.468-0.499v-3.631c0-0.295-0.227-0.535-0.505-0.535s-0.505 0.24-0.505 0.535v6.18c0 0.206-0.126 0.391-0.318 0.466-0.191 0.075-0.41 0.024-0.55-0.127l-1.114-1.211c-0.459-0.462-0.607-0.374-0.748-0.287-0.246 0.146-0.331 0.484-0.188 0.74l3.288 7.098c0.053 0.091 0.165 0.178 0.297 0.211 0.223 0.057 0.378 0.256 0.378 0.485v0.832c0 0.276-0.224 0.5-0.5 0.5s-0.5-0.224-0.5-0.5v-0.499c-0.233-0.134-0.427-0.33-0.565-0.574l-3.287-7.098c-0.393-0.694-0.147-1.631 0.565-2.054 0.96-0.575 1.703 0.173 1.982 0.454l0.26 0.282v-4.898c0-0.847 0.676-1.535 1.505-1.535s1.505 0.688 1.505 1.535v2.325c0.162-0.058 0.336-0.090 0.517-0.090 0.791 0 1.44 0.629 1.496 1.424 0.158-0.059 0.328-0.090 0.505-0.090 0.83 0 1.505 0.689 1.505 1.537v0.136c0.145-0.049 0.3-0.075 0.463-0.075 0.835-0.001 1.515 0.688 1.515 1.534z" fill="#000000" />
</svg>
