<?xml version="1.0" encoding="utf-8"?>
<!-- Generated by IcoMoon.io -->
<!DOCTYPE svg PUBLIC "-//W3C//DTD SVG 1.1//EN" "http://www.w3.org/Graphics/SVG/1.1/DTD/svg11.dtd">
<svg version="1.1" xmlns="http://www.w3.org/2000/svg" xmlns:xlink="http://www.w3.org/1999/xlink" width="17" height="17" viewBox="0 0 17 17">
<g>
</g>
	<path d="M15.668 6.017c-0.957-3.557-3.863-6.017-7.168-6.017-3.295 0-6.212 2.464-7.168 6.017-0.747 0.082-1.332 0.712-1.332 1.483v4c0 0.625 0.382 1.16 0.924 1.385 0.194 1.747 1.663 3.115 3.461 3.115h2.707c0.207 0.581 0.757 1 1.408 1h3c0.827 0 1.5-0.673 1.5-1.5s-0.673-1.5-1.5-1.5h-3c-0.651 0-1.201 0.419-1.408 1h-2.707c-1.208 0-2.217-0.86-2.449-2h1.064v-1h1v-5h-1v-1h-0.606c0.913-2.961 3.352-5 6.106-5 2.762 0 5.193 2.037 6.106 5h-0.606v1h-1v5h1v1h1.506c0.824 0 1.494-0.673 1.494-1.5v-4c0-0.771-0.585-1.401-1.332-1.483zM8.5 15h3c0.275 0 0.5 0.224 0.5 0.5s-0.225 0.5-0.5 0.5h-3c-0.275 0-0.5-0.224-0.5-0.5s0.225-0.5 0.5-0.5zM2 12h-0.506c-0.272 0-0.494-0.224-0.494-0.5v-4c0-0.276 0.222-0.5 0.494-0.5h0.506v5zM16 11.5c0 0.276-0.222 0.5-0.494 0.5h-0.506v-5h0.506c0.272 0 0.494 0.224 0.494 0.5v4z" fill="#000000" />
</svg>
