<?xml version="1.0" encoding="utf-8"?>
<!-- Generated by IcoMoon.io -->
<!DOCTYPE svg PUBLIC "-//W3C//DTD SVG 1.1//EN" "http://www.w3.org/Graphics/SVG/1.1/DTD/svg11.dtd">
<svg version="1.1" xmlns="http://www.w3.org/2000/svg" xmlns:xlink="http://www.w3.org/1999/xlink" width="17" height="17" viewBox="0 0 17 17">
<g>
</g>
	<path d="M10.311 14.831c0 0.898-0.73 1.628-1.629 1.628-0.902 0-1.631-0.73-1.631-1.628 0-0.9 0.729-1.63 1.631-1.63 0.898 0 1.629 0.73 1.629 1.63zM11.668 2.373c-0.512-0.645-1.444-1.414-2.983-1.414-4.098 0-4.245 3.758-4.246 3.796l1 0.026c0.003-0.115 0.11-2.822 3.246-2.822 1.14 0 1.825 0.563 2.199 1.035 0.555 0.7 0.7 1.508 0.624 1.833-0.291 1.229-1.011 1.877-1.773 2.563-0.935 0.841-1.9 1.71-1.9 3.558h1c0-1.402 0.692-2.026 1.569-2.815 0.804-0.724 1.715-1.544 2.077-3.078 0.149-0.634-0.083-1.76-0.813-2.682z" fill="#000000" />
</svg>
