<?xml version="1.0" encoding="utf-8"?>
<!-- Generated by IcoMoon.io -->
<!DOCTYPE svg PUBLIC "-//W3C//DTD SVG 1.1//EN" "http://www.w3.org/Graphics/SVG/1.1/DTD/svg11.dtd">
<svg version="1.1" xmlns="http://www.w3.org/2000/svg" xmlns:xlink="http://www.w3.org/1999/xlink" width="17" height="17" viewBox="0 0 17 17">
<g>
</g>
	<path d="M9.979 12.011l-1.573 1.583-0.312 0.312c-0.917 0.906-2.198 1.219-3.364 0.927-0.22 0.959-1.074 1.667-2.094 1.667-1.177 0-2.136-0.959-2.136-2.146 0-1.009 0.698-1.864 1.646-2.082-0.302-1.178 0.010-2.47 0.927-3.386l0.125-0.125 1.573 1.584-0.114 0.114c-0.521 0.51-0.51 1.343 0 1.863 0.51 0.511 1.344 0.511 1.854 0l0.313-0.312 1.573-1.584 1.677-1.666 1.573 1.584-1.668 1.667zM8.219 3.365l-1.583 1.582-0.126-0.125c-0.51-0.51-1.344-0.51-1.854 0-0.51 0.511-0.51 1.355 0 1.865l3.552 3.552-1.572 1.583-1.677-1.667-1.573-1.582-0.313-0.312c-0.959-0.948-1.25-2.313-0.886-3.532-0.958-0.208-1.666-1.062-1.666-2.083 0-1.188 0.959-2.146 2.136-2.146 1.073 0 1.948 0.781 2.114 1.792 1.156-0.271 2.417 0.053 3.323 0.947l0.125 0.126zM14.625 4.771c0.344 1.197 0.041 2.541-0.906 3.489l-0.125 0.125-1.573-1.584 0.125-0.124c0.51-0.511 0.51-1.345 0-1.855-0.51-0.51-1.344-0.51-1.854 0l-3.563 3.564-1.583-1.584 1.677-1.667 1.583-1.582 0.302-0.313c0.948-0.947 2.302-1.25 3.511-0.895 0.145-1.043 1.041-1.845 2.125-1.845 1.177 0 2.136 0.959 2.136 2.146-0.001 1.083-0.813 1.979-1.855 2.125zM14.364 16.5c-1.041 0-1.906-0.739-2.104-1.719-1.208 0.374-2.594 0.084-3.552-0.875l-0.114-0.125 1.573-1.583 0.125 0.124c0.51 0.511 1.344 0.511 1.854 0 0.51-0.51 0.51-1.343 0-1.854l-0.312-0.313-3.251-3.249 1.583-1.584 3.25 3.251 0.303 0.312c0.906 0.906 1.229 2.188 0.937 3.354 1.042 0.146 1.844 1.032 1.844 2.114 0 1.188-0.958 2.147-2.136 2.147z" fill="#000000" />
</svg>
