<?xml version="1.0" encoding="utf-8"?>
<!-- Generated by IcoMoon.io -->
<!DOCTYPE svg PUBLIC "-//W3C//DTD SVG 1.1//EN" "http://www.w3.org/Graphics/SVG/1.1/DTD/svg11.dtd">
<svg version="1.1" xmlns="http://www.w3.org/2000/svg" xmlns:xlink="http://www.w3.org/1999/xlink" width="17" height="17" viewBox="0 0 17 17">
<g>
</g>
	<path d="M0 16h1v1h-1v-1zM14 17h1v-1h-1v1zM12 17h1v-1h-1v1zM10 17h1v-1h-1v1zM8 17h1v-1h-1v1zM6 17h1v-1h-1v1zM2 17h1v-1h-1v1zM4 17h1v-1h-1v1zM16 17h1v-1h-1v1zM16 11h1v-1h-1v1zM16 13h1v-1h-1v1zM16 5h1v-1h-1v1zM16 9h1v-1h-1v1zM16 7h1v-1h-1v1zM16 3h1v-1h-1v1zM16 15h1v-1h-1v1zM16 0v1h1v-1h-1zM4 1h1v-1h-1v1zM2 1h1v-1h-1v1zM12 1h1v-1h-1v1zM10 1h1v-1h-1v1zM6 1h1v-1h-1v1zM14 1h1v-1h-1v1zM8 1h1v-1h-1v1zM0 1h1v-1h-1v1zM0 13h1v-1h-1v1zM0 15h1v-1h-1v1zM0 11h1v-1h-1v1zM0 5h1v-1h-1v1zM0 9h1v-1h-1v1zM0 3h1v-1h-1v1zM0 7h1v-1h-1v1z" fill="#000000" />
</svg>
