<?xml version="1.0" encoding="utf-8"?>
<!-- Generated by IcoMoon.io -->
<!DOCTYPE svg PUBLIC "-//W3C//DTD SVG 1.1//EN" "http://www.w3.org/Graphics/SVG/1.1/DTD/svg11.dtd">
<svg version="1.1" xmlns="http://www.w3.org/2000/svg" xmlns:xlink="http://www.w3.org/1999/xlink" width="17" height="17" viewBox="0 0 17 17">
<g>
</g>
	<path d="M12.983 6.94l-0.938 0.938-0.707-0.707 0.938-0.938c0.975-0.975 0.975-2.561 0-3.535s-2.561-0.975-3.535 0l-2.987 2.988c-0.975 0.975-0.975 2.561 0 3.535s2.561 0.975 3.535 0l0.707 0.707c-0.683 0.683-1.578 1.023-2.475 1.023s-1.792-0.341-2.474-1.023c-1.364-1.364-1.364-3.585 0-4.949l2.987-2.987c1.365-1.365 3.584-1.365 4.949 0 1.365 1.363 1.365 3.584 0 4.948zM6.042 8.034l-0.13 0.129 0.705 0.709 0.131-0.13c0.975-0.975 2.561-0.975 3.535 0s0.975 2.561 0 3.535l-3.023 3.025c-0.975 0.975-2.561 0.975-3.535 0s-0.975-2.561 0-3.535l1.058-1.059-0.707-0.707-1.058 1.059c-1.364 1.364-1.364 3.585 0 4.949 0.683 0.683 1.578 1.023 2.475 1.023s1.792-0.341 2.475-1.023l3.023-3.024c1.364-1.364 1.364-3.585 0-4.949-1.366-1.367-3.586-1.364-4.949-0.002z" fill="#000000" />
</svg>
