<?xml version="1.0" encoding="utf-8"?>
<!-- Generated by IcoMoon.io -->
<!DOCTYPE svg PUBLIC "-//W3C//DTD SVG 1.1//EN" "http://www.w3.org/Graphics/SVG/1.1/DTD/svg11.dtd">
<svg version="1.1" xmlns="http://www.w3.org/2000/svg" xmlns:xlink="http://www.w3.org/1999/xlink" width="17" height="17" viewBox="0 0 17 17">
<g>
</g>
	<path d="M17 4v1h-12v-1h12zM5 9h12v-1h-12v1zM5 13h12v-1h-12v1zM2.083 3.48h0.009v2.383h0.356v-2.727h-0.314l-0.596 0.319 0.071 0.281 0.474-0.256zM1.639 9.572l0.219-0.201c0.574-0.554 0.939-0.961 0.939-1.465 0-0.39-0.248-0.793-0.836-0.793-0.314 0-0.582 0.117-0.771 0.277l0.117 0.26c0.127-0.105 0.332-0.231 0.58-0.231 0.406 0 0.541 0.256 0.541 0.533-0.004 0.411-0.32 0.764-1.016 1.427l-0.289 0.281v0.227h1.74v-0.307h-1.224v-0.008zM2.236 12.391v-0.009c0.336-0.121 0.504-0.36 0.504-0.642 0-0.331-0.243-0.65-0.78-0.65-0.294 0-0.571 0.104-0.714 0.21l0.097 0.269c0.117-0.084 0.327-0.181 0.546-0.181 0.34 0 0.478 0.193 0.478 0.411 0 0.323-0.34 0.462-0.608 0.462h-0.206v0.276h0.205c0.357 0 0.701 0.164 0.705 0.546 0.005 0.227-0.143 0.528-0.616 0.528-0.257 0-0.5-0.104-0.604-0.172l-0.101 0.285c0.134 0.089 0.402 0.186 0.709 0.186 0.654 0 0.994-0.382 0.994-0.818 0-0.382-0.273-0.634-0.609-0.701z" fill="#000000" />
</svg>
