<?xml version="1.0" encoding="utf-8"?>
<!-- Generated by IcoMoon.io -->
<!DOCTYPE svg PUBLIC "-//W3C//DTD SVG 1.1//EN" "http://www.w3.org/Graphics/SVG/1.1/DTD/svg11.dtd">
<svg version="1.1" xmlns="http://www.w3.org/2000/svg" xmlns:xlink="http://www.w3.org/1999/xlink" width="17" height="17" viewBox="0 0 17 17">
<g>
</g>
	<path d="M15 4v0.069l-0.013-0.058-1.015 0.221c-0.139-1.803-1.634-3.232-3.472-3.232-1.841 0-3.339 1.435-3.474 3.242l-1.026-0.223v-0.019h-6v11h5.348l5.196 1.479 5.456-1.605v-10.874h-1zM10.5 2c1.379 0 2.5 1.122 2.5 2.5 0 1.806-1.719 4.209-2.5 5.207-0.781-0.998-2.5-3.401-2.5-5.207 0-1.378 1.121-2.5 2.5-2.5zM6 5.042l1.081 0.235c0.412 2.269 2.406 4.788 2.919 5.406v4.602l-4-1.139v-9.104zM1 5h4v9.017l-4-0.017v-9zM11 15.303v-4.621c0.514-0.619 2.513-3.145 2.921-5.416l1.079-0.234v9.094l-4 1.177zM11.858 4.583c0-0.749-0.609-1.358-1.358-1.358s-1.358 0.609-1.358 1.358 0.609 1.359 1.358 1.359 1.358-0.609 1.358-1.359zM10.142 4.583c0-0.198 0.161-0.358 0.358-0.358s0.358 0.161 0.358 0.358-0.161 0.359-0.358 0.359-0.358-0.161-0.358-0.359z" fill="#000000" />
</svg>
