<?xml version="1.0" encoding="utf-8"?>
<!-- Generated by IcoMoon.io -->
<!DOCTYPE svg PUBLIC "-//W3C//DTD SVG 1.1//EN" "http://www.w3.org/Graphics/SVG/1.1/DTD/svg11.dtd">
<svg version="1.1" xmlns="http://www.w3.org/2000/svg" xmlns:xlink="http://www.w3.org/1999/xlink" width="17" height="17" viewBox="0 0 17 17">
<g>
</g>
	<path d="M8.5 0c-2.757 0-5 2.243-5 5 0 1.375 0.555 2.659 1.562 3.616 0.085 0.082 0.18 0.154 0.276 0.226l0.103 0.078c0.179 0.141 0.369 0.257 0.559 0.371v7.209l2.479-1.901 2.521 1.901v-7.209c0.19-0.114 0.381-0.231 0.56-0.372l0.103-0.077c0.096-0.072 0.19-0.144 0.276-0.226 1.006-0.957 1.561-2.241 1.561-3.616 0-2.757-2.243-5-5-5zM10 14.493l-1.526-1.151-1.474 1.131v-4.225c0.482 0.167 0.986 0.252 1.5 0.252s1.018-0.085 1.5-0.252v4.245zM11.249 7.892c-0.057 0.055-0.121 0.101-0.185 0.147l-0.123 0.094c-1.445 1.135-3.438 1.134-4.881 0.001l-0.124-0.095c-0.064-0.047-0.128-0.093-0.185-0.147-0.807-0.767-1.251-1.793-1.251-2.892 0-2.206 1.794-4 4-4s4 1.794 4 4c0 1.099-0.444 2.125-1.251 2.892zM10.25 5c0 0.966-0.784 1.75-1.75 1.75s-1.75-0.784-1.75-1.75 0.784-1.75 1.75-1.75 1.75 0.784 1.75 1.75z" fill="#000000" />
</svg>
