<?xml version="1.0" encoding="utf-8"?>
<!-- Generated by IcoMoon.io -->
<!DOCTYPE svg PUBLIC "-//W3C//DTD SVG 1.1//EN" "http://www.w3.org/Graphics/SVG/1.1/DTD/svg11.dtd">
<svg version="1.1" xmlns="http://www.w3.org/2000/svg" xmlns:xlink="http://www.w3.org/1999/xlink" width="17" height="17" viewBox="0 0 17 17">
<g>
</g>
	<path d="M8.5 0c-3.033 0-5.5 2.467-5.5 5.5v6c0 3.033 2.467 5.5 5.5 5.5s5.5-2.467 5.5-5.5v-6c0-3.033-2.467-5.5-5.5-5.5zM13 11.5c0 2.481-2.019 4.5-4.5 4.5s-4.5-2.019-4.5-4.5v-6c0-2.481 2.019-4.5 4.5-4.5s4.5 2.019 4.5 4.5v6zM8.5 3.5c-0.827 0-1.5 0.673-1.5 1.5v2c0 0.827 0.673 1.5 1.5 1.5s1.5-0.673 1.5-1.5v-2c0-0.827-0.673-1.5-1.5-1.5zM9 7c0 0.276-0.224 0.5-0.5 0.5s-0.5-0.224-0.5-0.5v-2c0-0.276 0.224-0.5 0.5-0.5s0.5 0.224 0.5 0.5v2z" fill="#000000" />
</svg>
