<?xml version="1.0" encoding="utf-8"?>
<!-- Generated by IcoMoon.io -->
<!DOCTYPE svg PUBLIC "-//W3C//DTD SVG 1.1//EN" "http://www.w3.org/Graphics/SVG/1.1/DTD/svg11.dtd">
<svg version="1.1" xmlns="http://www.w3.org/2000/svg" xmlns:xlink="http://www.w3.org/1999/xlink" width="17" height="17" viewBox="0 0 17 17">
<g>
</g>
	<path d="M8.5 0.5c-4.411 0-8 3.589-8 8s3.589 8 8 8 8-3.589 8-8-3.589-8-8-8zM8.5 1.5c1.75 0 3.348 0.65 4.577 1.716l-9.86 9.861c-1.067-1.228-1.717-2.827-1.717-4.577 0-3.859 3.14-7 7-7zM8.5 15.5c-1.75 0-3.348-0.65-4.577-1.716l9.86-9.861c1.067 1.228 1.717 2.827 1.717 4.577 0 3.859-3.14 7-7 7z" fill="#000000" />
</svg>
