<?xml version="1.0" encoding="utf-8"?>
<!-- Generated by IcoMoon.io -->
<!DOCTYPE svg PUBLIC "-//W3C//DTD SVG 1.1//EN" "http://www.w3.org/Graphics/SVG/1.1/DTD/svg11.dtd">
<svg version="1.1" xmlns="http://www.w3.org/2000/svg" xmlns:xlink="http://www.w3.org/1999/xlink" width="17" height="17" viewBox="0 0 17 17">
<g>
</g>
	<path d="M15.529 2.857l-1.403-1.404c-0.565-0.566-1.555-0.566-2.122 0l-9.057 9.058-1.722 5.288 5.248-1.765 9.055-9.056c0.586-0.584 0.586-1.536 0.001-2.121zM3.094 13.294l0.645-1.979 1.934 1.935-1.963 0.66-0.616-0.616zM4.355 10.518l5.493-5.493 2.111 2.11-5.494 5.494-2.11-2.111zM10.555 4.317l0.729-0.729 2.111 2.11-0.729 0.729-2.111-2.11zM14.822 4.271l-0.72 0.72-2.111-2.11 0.72-0.721c0.189-0.189 0.518-0.189 0.707 0l1.403 1.404c0.196 0.196 0.196 0.512 0.001 0.707z" fill="#000000" />
</svg>
