<?xml version="1.0" encoding="utf-8"?>
<!-- Generated by IcoMoon.io -->
<!DOCTYPE svg PUBLIC "-//W3C//DTD SVG 1.1//EN" "http://www.w3.org/Graphics/SVG/1.1/DTD/svg11.dtd">
<svg version="1.1" xmlns="http://www.w3.org/2000/svg" xmlns:xlink="http://www.w3.org/1999/xlink" width="17" height="17" viewBox="0 0 17 17">
<g>
</g>
	<path d="M16.499 1.843l-1.403-1.403c-0.566-0.566-1.555-0.566-2.122 0l-7.536 7.536-1.722 5.287 5.249-1.765 7.534-7.534c0.283-0.283 0.439-0.66 0.439-1.061s-0.156-0.777-0.439-1.060zM5.584 10.758l0.638-1.957 1.92 1.919-1.942 0.653-0.616-0.615zM6.832 7.996l3.986-3.986 2.11 2.11-3.986 3.986-2.11-2.11zM11.525 3.303l0.729-0.729 2.11 2.11-0.729 0.729-2.11-2.11zM15.792 3.257l-0.72 0.721-2.11-2.11 0.72-0.721c0.19-0.189 0.519-0.189 0.707 0l1.403 1.403c0.094 0.095 0.146 0.22 0.146 0.354s-0.052 0.258-0.146 0.353zM15 7.5h1v9.5h-16v-15h7.5v1h-6.5v13h14v-8.5z" fill="#000000" />
</svg>
