<?xml version="1.0" encoding="utf-8"?>
<!-- Generated by IcoMoon.io -->
<!DOCTYPE svg PUBLIC "-//W3C//DTD SVG 1.1//EN" "http://www.w3.org/Graphics/SVG/1.1/DTD/svg11.dtd">
<svg version="1.1" xmlns="http://www.w3.org/2000/svg" xmlns:xlink="http://www.w3.org/1999/xlink" width="17" height="17" viewBox="0 0 17 17">
<g>
</g>
	<path d="M5.404 10.889l0.707 0.707-5.258 5.257-0.707-0.707 5.258-5.257zM17 6.222l-2.192 0.637-3.682 5.246 0.429 1.118-1.555 1.555-7.778-7.778 1.556-1.556 1.118 0.429 5.245-3.682 0.248-0.854 0.388-1.337 6.223 6.222zM15.098 5.734l-3.832-3.831-0.164 0.567-0.098 0.338-5.97 4.19-1.009-0.387-0.389 0.389 6.364 6.364 0.389-0.39-0.195-0.512-0.191-0.497 0.307-0.436 3.883-5.534 0.338-0.098 0.567-0.163z" fill="#000000" />
</svg>
