<?xml version="1.0" encoding="utf-8"?>
<!-- Generated by IcoMoon.io -->
<!DOCTYPE svg PUBLIC "-//W3C//DTD SVG 1.1//EN" "http://www.w3.org/Graphics/SVG/1.1/DTD/svg11.dtd">
<svg version="1.1" xmlns="http://www.w3.org/2000/svg" xmlns:xlink="http://www.w3.org/1999/xlink" width="17" height="17" viewBox="0 0 17 17">
<g>
</g>
	<path d="M12 4.5c0-1.93-1.57-3.5-3.5-3.5s-3.5 1.57-3.5 3.5c0 1.745 1.288 3.185 2.962 3.445v8.055h1v-8.047c1.71-0.228 3.038-1.682 3.038-3.453zM8.5 7c-1.379 0-2.5-1.121-2.5-2.5s1.121-2.5 2.5-2.5 2.5 1.121 2.5 2.5-1.121 2.5-2.5 2.5zM10 5h-1c0-0.552-0.448-1-1-1v-1c1.103 0 2 0.897 2 2z" fill="#000000" />
</svg>
