<?xml version="1.0" encoding="utf-8"?>
<!-- Generated by IcoMoon.io -->
<!DOCTYPE svg PUBLIC "-//W3C//DTD SVG 1.1//EN" "http://www.w3.org/Graphics/SVG/1.1/DTD/svg11.dtd">
<svg version="1.1" xmlns="http://www.w3.org/2000/svg" xmlns:xlink="http://www.w3.org/1999/xlink" width="17" height="17" viewBox="0 0 17 17">
<g>
</g>
	<path d="M8.5 0.5c-4.418 0-8 3.581-8 8 0 3.275 1.97 6.090 4.789 7.327-0.022-0.559-0.005-1.229 0.139-1.837 0.153-0.649 1.029-4.359 1.029-4.359s-0.256-0.511-0.256-1.266c0-1.186 0.688-2.070 1.544-2.070 0.728 0 1.079 0.546 1.079 1.2 0 0.731-0.467 1.826-0.707 2.839-0.2 0.849 0.426 1.541 1.263 1.541 1.516 0 2.537-1.946 2.537-4.253 0-1.753-1.182-3.066-3.329-3.066-2.427 0-3.938 1.811-3.938 3.831 0 0.698 0.205 1.189 0.527 1.569 0.147 0.175 0.168 0.246 0.115 0.446-0.038 0.147-0.127 0.502-0.163 0.642-0.054 0.203-0.218 0.275-0.4 0.201-1.119-0.457-1.639-1.681-1.639-3.057 0-2.272 1.916-4.998 5.718-4.998 3.054 0 5.064 2.211 5.064 4.583 0 3.139-1.745 5.483-4.316 5.483-0.864 0-1.677-0.468-1.955-0.998 0 0-0.464 1.844-0.562 2.199-0.17 0.617-0.502 1.233-0.806 1.714 0.719 0.214 1.479 0.329 2.267 0.329 4.418 0 8-3.581 8-8s-3.582-8-8-8z" fill="#000000" />
</svg>
