<?xml version="1.0" encoding="utf-8"?>
<!-- Generated by IcoMoon.io -->
<!DOCTYPE svg PUBLIC "-//W3C//DTD SVG 1.1//EN" "http://www.w3.org/Graphics/SVG/1.1/DTD/svg11.dtd">
<svg version="1.1" xmlns="http://www.w3.org/2000/svg" xmlns:xlink="http://www.w3.org/1999/xlink" width="17" height="17" viewBox="0 0 17 17">
<g>
</g>
	<path d="M3 4v5.014c0 2.749 2.468 4.986 5.5 4.986s5.5-2.237 5.5-4.986v-5.014h-11zM13 9.014c0 2.198-2.019 3.986-4.5 3.986s-4.5-1.788-4.5-3.986v-4.014h9v4.014zM7.016 3h-1v-3h1v3zM10.984 3h-1v-3h1v3zM8 14h1v3h-1v-3zM11 8h-5v-1h5v1zM11 10h-5v-1h5v1z" fill="#000000" />
</svg>
