<?xml version="1.0" encoding="utf-8"?>
<!-- Generated by IcoMoon.io -->
<!DOCTYPE svg PUBLIC "-//W3C//DTD SVG 1.1//EN" "http://www.w3.org/Graphics/SVG/1.1/DTD/svg11.dtd">
<svg version="1.1" xmlns="http://www.w3.org/2000/svg" xmlns:xlink="http://www.w3.org/1999/xlink" width="17" height="17" viewBox="0 0 17 17">
<g>
</g>
	<path d="M13.169 7.614c-0.734 0-1.417 0.227-1.982 0.612 1.23-3.472 3.991-3.88 4.134-3.898l-0.123-0.992c-0.051 0.006-5.126 0.704-5.563 7.725l0.015 0.001c0 0.027-0.008 0.054-0.008 0.081 0 1.945 1.583 3.528 3.528 3.528s3.528-1.583 3.528-3.528-1.584-3.529-3.529-3.529zM13.169 13.671c-1.395 0-2.528-1.134-2.528-2.528s1.134-2.528 2.528-2.528 2.528 1.134 2.528 2.528-1.134 2.528-2.528 2.528zM3.733 7.614c-0.734 0-1.416 0.227-1.981 0.612 1.23-3.472 3.99-3.88 4.133-3.898l-0.123-0.992c-0.051 0.006-5.125 0.704-5.564 7.725l0.015 0.001c0 0.027-0.008 0.054-0.008 0.081 0 1.945 1.583 3.528 3.528 3.528s3.528-1.583 3.528-3.528-1.582-3.529-3.528-3.529zM3.733 13.671c-1.395 0-2.528-1.134-2.528-2.528s1.134-2.528 2.528-2.528 2.528 1.134 2.528 2.528-1.133 2.528-2.528 2.528z" fill="#000000" />
</svg>
