<?xml version="1.0" encoding="utf-8"?>
<!-- Generated by IcoMoon.io -->
<!DOCTYPE svg PUBLIC "-//W3C//DTD SVG 1.1//EN" "http://www.w3.org/Graphics/SVG/1.1/DTD/svg11.dtd">
<svg version="1.1" xmlns="http://www.w3.org/2000/svg" xmlns:xlink="http://www.w3.org/1999/xlink" width="17" height="17" viewBox="0 0 17 17">
<g>
</g>
	<path d="M7.307 6.862c0-1.946-1.583-3.529-3.529-3.529-1.945 0-3.528 1.583-3.528 3.529 0 1.945 1.583 3.528 3.528 3.528 0.734 0 1.416-0.227 1.981-0.611-1.231 3.47-3.99 3.877-4.133 3.896l0.123 0.992c0.051-0.006 5.125-0.703 5.563-7.724l-0.013-0.001c0.001-0.027 0.008-0.052 0.008-0.080zM3.778 9.391c-1.394 0-2.528-1.134-2.528-2.528s1.134-2.529 2.528-2.529c1.395 0 2.529 1.135 2.529 2.529s-1.134 2.528-2.529 2.528zM16.734 6.942c0.001-0.027 0.008-0.053 0.008-0.080 0-1.946-1.583-3.529-3.528-3.529s-3.528 1.583-3.528 3.529c0 1.945 1.583 3.528 3.528 3.528 0.734 0 1.416-0.227 1.981-0.611-1.23 3.47-3.99 3.877-4.133 3.896l0.123 0.992c0.051-0.006 5.125-0.703 5.563-7.724l-0.014-0.001zM13.214 9.391c-1.394 0-2.528-1.134-2.528-2.528s1.134-2.529 2.528-2.529 2.528 1.135 2.528 2.529-1.134 2.528-2.528 2.528z" fill="#000000" />
</svg>
