<?xml version="1.0" encoding="utf-8"?>
<!-- Generated by IcoMoon.io -->
<!DOCTYPE svg PUBLIC "-//W3C//DTD SVG 1.1//EN" "http://www.w3.org/Graphics/SVG/1.1/DTD/svg11.dtd">
<svg version="1.1" xmlns="http://www.w3.org/2000/svg" xmlns:xlink="http://www.w3.org/1999/xlink" width="17" height="17" viewBox="0 0 17 17">
<g>
</g>
	<path d="M9.969 14h-1c0-3.233-2.678-5.863-5.969-5.863v-1c3.843 0 6.969 3.079 6.969 6.863zM3 3.5v1c5.327 0 9.5 4.173 9.5 9.5h1c0-5.888-4.612-10.5-10.5-10.5zM6 12.501c0-0.827-0.671-1.501-1.497-1.501-0.829 0-1.503 0.674-1.503 1.501s0.674 1.5 1.503 1.5c0.826 0 1.497-0.673 1.497-1.5zM5 12.501c0 0.275-0.223 0.5-0.497 0.5-0.277 0-0.503-0.225-0.503-0.5 0-0.276 0.226-0.501 0.503-0.501 0.274 0 0.497 0.225 0.497 0.501zM17 15.5v-14c0-0.827-0.673-1.5-1.5-1.5h-14c-0.827 0-1.5 0.673-1.5 1.5v14c0 0.827 0.673 1.5 1.5 1.5h14c0.827 0 1.5-0.673 1.5-1.5zM15.5 1c0.276 0 0.5 0.225 0.5 0.5v14c0 0.275-0.224 0.5-0.5 0.5h-14c-0.276 0-0.5-0.225-0.5-0.5v-14c0-0.275 0.224-0.5 0.5-0.5h14z" fill="#000000" />
</svg>
