<?xml version="1.0" encoding="utf-8"?>
<!-- Generated by IcoMoon.io -->
<!DOCTYPE svg PUBLIC "-//W3C//DTD SVG 1.1//EN" "http://www.w3.org/Graphics/SVG/1.1/DTD/svg11.dtd">
<svg version="1.1" xmlns="http://www.w3.org/2000/svg" xmlns:xlink="http://www.w3.org/1999/xlink" width="17" height="17" viewBox="0 0 17 17">
<g>
</g>
	<path d="M12.036 0.015l-12.021 12.021 4.95 4.949 12.020-12.020-4.949-4.95zM1.429 12.036l0.696-0.696 1.414 1.414 0.707-0.707-1.414-1.414 0.719-0.719 0.707 0.707 0.707-0.707-0.707-0.707 0.707-0.707 1.414 1.414 0.707-0.707-1.414-1.414 0.696-0.696 0.707 0.707 0.707-0.707-0.707-0.707 0.707-0.707 1.414 1.414 0.707-0.707-1.414-1.414 0.718-0.718 0.707 0.707 0.707-0.707-0.707-0.707 0.707-0.707 1.415 1.414 0.707-0.707-1.415-1.414 0.708-0.708 3.535 3.536-10.606 10.606-3.536-3.535z" fill="#000000" />
</svg>
