<?xml version="1.0" encoding="utf-8"?>
<!-- Generated by IcoMoon.io -->
<!DOCTYPE svg PUBLIC "-//W3C//DTD SVG 1.1//EN" "http://www.w3.org/Graphics/SVG/1.1/DTD/svg11.dtd">
<svg version="1.1" xmlns="http://www.w3.org/2000/svg" xmlns:xlink="http://www.w3.org/1999/xlink" width="17" height="17" viewBox="0 0 17 17">
<g>
</g>
	<path d="M14.164 0h-12.664c-0.827 0-1.5 0.673-1.5 1.5v14c0 0.827 0.673 1.5 1.5 1.5h14c0.827 0 1.5-0.673 1.5-1.5v-12.724l-2.836-2.776zM8 1v4h3v-4h1v5h-8v-5h4zM3 16v-6h11v6h-11zM16 15.5c0 0.275-0.225 0.5-0.5 0.5h-0.5v-7h-13v7h-0.5c-0.276 0-0.5-0.225-0.5-0.5v-14c0-0.275 0.224-0.5 0.5-0.5h1.5v6h10v-6h0.756l2.244 2.196v12.304z" fill="#000000" />
</svg>
