<?xml version="1.0" encoding="utf-8"?>
<!-- Generated by IcoMoon.io -->
<!DOCTYPE svg PUBLIC "-//W3C//DTD SVG 1.1//EN" "http://www.w3.org/Graphics/SVG/1.1/DTD/svg11.dtd">
<svg version="1.1" xmlns="http://www.w3.org/2000/svg" xmlns:xlink="http://www.w3.org/1999/xlink" width="17" height="17" viewBox="0 0 17 17">
<g>
</g>
	<path d="M16.5 13.5c0 1.656-1.344 3-3 3h-10c-1.656 0-3-1.344-3-3v-10c0-1.656 1.344-3 3-3h10c1.656 0 3 1.344 3 3v10zM11.614 9.386c-0.583 0-1.114 0.229-1.51 0.604l-2.51-1.25c0.010-0.084 0.020-0.156 0.020-0.24s-0.010-0.156-0.021-0.24l2.51-1.249c0.396 0.375 0.927 0.604 1.51 0.604 1.219 0 2.219-0.999 2.219-2.229 0-1.219-1-2.219-2.219-2.219-1.229 0-2.229 1-2.229 2.219 0 0.083 0.010 0.156 0.021 0.239l-2.51 1.25c-0.395-0.365-0.926-0.594-1.509-0.594-1.219 0-2.219 0.989-2.219 2.219s1 2.219 2.219 2.219c0.583 0 1.114-0.229 1.51-0.594l2.51 1.25c-0.011 0.083-0.021 0.156-0.021 0.239 0 1.219 1 2.219 2.229 2.219 1.219 0 2.219-1 2.219-2.219 0-1.229-1-2.228-2.219-2.228z" fill="#000000" />
</svg>
