<?xml version="1.0" encoding="utf-8"?>
<!-- Generated by IcoMoon.io -->
<!DOCTYPE svg PUBLIC "-//W3C//DTD SVG 1.1//EN" "http://www.w3.org/Graphics/SVG/1.1/DTD/svg11.dtd">
<svg version="1.1" xmlns="http://www.w3.org/2000/svg" xmlns:xlink="http://www.w3.org/1999/xlink" width="17" height="17" viewBox="0 0 17 17">
<g>
</g>
	<path d="M15 1.016c0 1.654-1.346 3-3 3s-3-1.346-3-3h-1c0 1.654-1.346 3-3 3s-3-1.346-3-3h-1v6.847c0 5.405 7.002 8 7.301 8.107l0.166 0.061 0.167-0.058c0.3-0.103 7.366-2.587 7.366-8.138v-6.819h-1zM2 7.862v-4.204c0.733 0.832 1.807 1.358 3 1.358 1.196 0 2.266-0.533 3-1.369v11.114c-1.659-0.747-6-3.067-6-6.899zM15 7.835c0 3.895-4.293 6.163-6 6.912v-11.101c0.734 0.836 1.804 1.369 3 1.369 1.193 0 2.267-0.525 3-1.357v4.177z" fill="#000000" />
</svg>
