<?xml version="1.0" encoding="utf-8"?>
<!-- Generated by IcoMoon.io -->
<!DOCTYPE svg PUBLIC "-//W3C//DTD SVG 1.1//EN" "http://www.w3.org/Graphics/SVG/1.1/DTD/svg11.dtd">
<svg version="1.1" xmlns="http://www.w3.org/2000/svg" xmlns:xlink="http://www.w3.org/1999/xlink" width="17" height="17" viewBox="0 0 17 17">
<g>
</g>
	<path d="M8.5 5c-1.93 0-3.5 1.57-3.5 3.5s1.57 3.5 3.5 3.5 3.5-1.57 3.5-3.5-1.57-3.5-3.5-3.5zM8.5 11c-1.378 0-2.5-1.122-2.5-2.5s1.122-2.5 2.5-2.5 2.5 1.122 2.5 2.5-1.122 2.5-2.5 2.5zM9 4h-1v-3h1v3zM8 13h1v3h-1v-3zM16 8v1h-3v-1h3zM4 9h-3v-1h3v1zM12.036 5.671l-0.707-0.707 2.121-2.121 0.707 0.707-2.121 2.121zM4.964 11.329l0.707 0.707-2.121 2.121-0.707-0.707 2.121-2.121zM12.036 11.329l2.121 2.121-0.707 0.707-2.121-2.121 0.707-0.707zM4.964 5.671l-2.121-2.121 0.707-0.707 2.121 2.121-0.707 0.707z" fill="#000000" />
</svg>
