<?xml version="1.0" encoding="utf-8"?>
<!-- Generated by IcoMoon.io -->
<!DOCTYPE svg PUBLIC "-//W3C//DTD SVG 1.1//EN" "http://www.w3.org/Graphics/SVG/1.1/DTD/svg11.dtd">
<svg version="1.1" xmlns="http://www.w3.org/2000/svg" xmlns:xlink="http://www.w3.org/1999/xlink" width="17" height="17" viewBox="0 0 17 17">
<g>
</g>
	<path d="M16.561 3.844l-1.403-1.404c-0.563-0.565-1.554-0.567-2.121 0l-12.588 12.592 5.434-0.003 2.183-2.168 0.824 0.775 7.671-7.672c0.283-0.282 0.439-0.659 0.439-1.060s-0.156-0.777-0.439-1.060zM6.776 10.116l0.824-0.824 2.109 2.109-0.823 0.825-2.11-2.11zM5.471 14.029l-2.608 0.001 3.206-3.207 1.311 1.311-1.909 1.895zM15.854 5.258l-5.437 5.437-2.11-2.11 5.437-5.438c0.094-0.095 0.219-0.147 0.353-0.147s0.259 0.052 0.354 0.146l1.403 1.404c0.195 0.196 0.195 0.512 0 0.708z" fill="#000000" />
</svg>
