<?xml version="1.0" encoding="utf-8"?>
<!-- Generated by IcoMoon.io -->
<!DOCTYPE svg PUBLIC "-//W3C//DTD SVG 1.1//EN" "http://www.w3.org/Graphics/SVG/1.1/DTD/svg11.dtd">
<svg version="1.1" xmlns="http://www.w3.org/2000/svg" xmlns:xlink="http://www.w3.org/1999/xlink" width="17" height="17" viewBox="0 0 17 17">
<g>
</g>
	<path d="M0.882 10.132l-0.139 0.875c-0.007 0.035-0.027 0.062-0.062 0.062s-0.056-0.027-0.062-0.062l-0.119-0.875 0.118-0.889c0.007-0.035 0.028-0.062 0.062-0.062s0.055 0.027 0.062 0.062l0.14 0.889zM1.521 10.132l-0.18 1.409c-0.007 0.035-0.035 0.062-0.069 0.062-0.035 0-0.062-0.027-0.062-0.068l-0.16-1.403c0.16-1.438 0.16-1.438 0.16-1.438 0-0.034 0.027-0.062 0.062-0.062 0.034 0 0.062 0.028 0.069 0.062l0.18 1.438zM2.153 10.132l-0.173 1.646c0 0.041-0.035 0.076-0.077 0.076s-0.076-0.035-0.083-0.076l-0.146-1.646 0.146-1.701c0.007-0.049 0.042-0.083 0.083-0.083 0.042 0 0.077 0.034 0.077 0.083l0.173 1.701zM2.792 10.132l-0.16 1.694c-0.007 0.056-0.048 0.091-0.097 0.091-0.048 0-0.090-0.035-0.090-0.091l-0.146-1.694 0.146-1.75c0-0.056 0.042-0.090 0.090-0.090 0.049 0 0.090 0.034 0.097 0.090l0.16 1.75zM3.431 10.132l-0.146 1.709c-0.007 0.062-0.056 0.111-0.111 0.111s-0.104-0.049-0.104-0.111l-0.139-1.709 0.139-1.624c0-0.057 0.049-0.105 0.104-0.105 0.056 0 0.104 0.049 0.111 0.105l0.146 1.624zM4.083 10.132l-0.146 1.709c0 0.068-0.056 0.125-0.118 0.125-0.069 0-0.118-0.057-0.125-0.125l-0.125-1.709c0.125-2.64 0.125-2.64 0.125-2.64 0.008-0.068 0.056-0.124 0.125-0.124 0.062 0 0.118 0.056 0.118 0.124l0.146 2.64zM4.722 10.146l-0.132 1.695c0 0.076-0.063 0.131-0.132 0.131-0.076 0-0.131-0.055-0.139-0.131l-0.111-1.695c0.111-3.25 0.111-3.25 0.111-3.25 0.007-0.076 0.062-0.132 0.139-0.132 0.069 0 0.132 0.056 0.132 0.132l0.132 3.25zM5.396 10.132l-0.125 1.681c-0.007 0.083-0.069 0.146-0.153 0.146-0.076 0-0.139-0.062-0.146-0.146l-0.111-1.681 0.111-3.514c0-0.083 0.070-0.153 0.146-0.153 0.083 0 0.146 0.070 0.153 0.153l0.125 3.514zM6.056 10.132l-0.112-3.632c-0.006-0.090-0.076-0.167-0.166-0.167-0.083 0-0.16 0.077-0.16 0.167l-0.098 3.632 0.098 1.674c0.007 0.090 0.077 0.16 0.16 0.16 0.090 0 0.16-0.070 0.167-0.16l0.111-1.674zM6.722 10.132l-0.104 1.66c0 0.097-0.076 0.174-0.174 0.174-0.097 0-0.167-0.077-0.173-0.174l-0.098-1.66 0.098-3.542c0-0.098 0.076-0.174 0.173-0.174 0.098 0 0.174 0.076 0.174 0.174l0.104 3.542zM7.403 10.139l-0.098 1.64c0 0.104-0.083 0.188-0.187 0.188s-0.188-0.084-0.194-0.188l-0.083-1.64 0.083-3.416c0.007-0.111 0.090-0.195 0.194-0.195 0.104 0 0.18 0.084 0.187 0.195l0.098 3.416zM8.076 10.139l-0.083-4.070c0-0.069-0.035-0.132-0.090-0.166-0.035-0.021-0.070-0.035-0.111-0.035-0.042 0-0.076 0.014-0.111 0.035-0.056 0.035-0.091 0.097-0.091 0.166l-0.007 0.041-0.070 4.021c0 0 0 0.007 0.077 1.639 0 0 0 0 0 0.008 0 0.041 0.014 0.083 0.042 0.117 0.042 0.049 0.097 0.076 0.16 0.076 0.056 0 0.104-0.027 0.139-0.062 0.042-0.034 0.062-0.083 0.062-0.139l0.007-0.166 0.076-1.465zM8.681 11.743c0 0.118-0.097 0.215-0.215 0.215s-0.215-0.097-0.223-0.215l-0.041-0.791-0.042-0.813 0.083-4.416v-0.022c0.007-0.062 0.035-0.125 0.084-0.166 0.034-0.027 0.083-0.049 0.138-0.049 0.035 0 0.077 0.014 0.104 0.035 0.062 0.034 0.104 0.104 0.111 0.18l0.097 4.438-0.096 1.604zM14.535 11.966c-5.452 0-5.458 0-5.458 0-0.118-0.014-0.215-0.104-0.215-0.229v-6.245c0-0.117 0.042-0.173 0.195-0.229 0.382-0.152 0.812-0.235 1.257-0.235 1.812 0 3.299 1.388 3.458 3.159 0.236-0.097 0.493-0.153 0.764-0.153 1.083 0 1.965 0.883 1.965 1.973-0.001 1.084-0.883 1.959-1.966 1.959z" fill="#000000" />
</svg>
