<?xml version="1.0" encoding="utf-8"?>
<!-- Generated by IcoMoon.io -->
<!DOCTYPE svg PUBLIC "-//W3C//DTD SVG 1.1//EN" "http://www.w3.org/Graphics/SVG/1.1/DTD/svg11.dtd">
<svg version="1.1" xmlns="http://www.w3.org/2000/svg" xmlns:xlink="http://www.w3.org/1999/xlink" width="17" height="17" viewBox="0 0 17 17">
<g>
</g>
	<path d="M6.5 3c-1.426 0-2.742 0.778-3.453 2h-1.047v10.5c0 0.827 0.673 1.5 1.5 1.5h6c0.827 0 1.5-0.673 1.5-1.5v-10.5h-1.047c-0.711-1.221-2.029-2-3.453-2zM6.5 4c0.859 0 1.672 0.376 2.234 1h-4.467c0.561-0.624 1.373-1 2.233-1zM10 15.5c0 0.275-0.224 0.5-0.5 0.5h-6c-0.276 0-0.5-0.225-0.5-0.5v-9.5h7v9.5zM8 0h-3v3h3v-3zM7 2h-1v-1h1v1zM11.945 1.511l3.136 0.518-0.163 0.986-6-0.99 0.085-0.514-0.085-0.514 6-0.99 0.163 0.986-3.136 0.518z" fill="#000000" />
</svg>
