<?xml version="1.0" encoding="utf-8"?>
<!-- Generated by IcoMoon.io -->
<!DOCTYPE svg PUBLIC "-//W3C//DTD SVG 1.1//EN" "http://www.w3.org/Graphics/SVG/1.1/DTD/svg11.dtd">
<svg version="1.1" xmlns="http://www.w3.org/2000/svg" xmlns:xlink="http://www.w3.org/1999/xlink" width="17" height="17" viewBox="0 0 17 17">
<g>
</g>
	<path d="M9.401 1.304c-0.996 0-2.097 0.169-3.305 0.546-9.587 2.996-5.316 9.618-4.060 10.272 2.131 1.105-1.151 3.574-1.151 3.574s2.817-0.824 6.404-1.192c4.312-0.44 9.155-1.068 9.592-3.467 0.684-3.761-1.559-9.733-7.48-9.733zM15.897 10.858c-0.327 1.795-5.989 2.373-8.71 2.65-1.353 0.139-2.593 0.34-3.624 0.538 0.141-0.351 0.216-0.719 0.185-1.093-0.035-0.418-0.244-1.196-1.244-1.716-0.372-0.222-1.708-1.95-1.479-3.878 0.294-2.469 3.082-3.84 5.369-4.555 1.064-0.332 2.076-0.5 3.007-0.5 1.971 0 3.581 0.732 4.787 2.177 1.627 1.95 2.031 4.608 1.709 6.377zM4 6.5c0-0.551 0.448-1 1-1s1 0.449 1 1-0.448 1-1 1-1-0.449-1-1zM9 6c0-0.553 0.447-1 1-1 0.552 0 1 0.447 1 1 0 0.551-0.448 1-1 1-0.553 0-1-0.449-1-1zM13.3 8.5c-5.542 6.142-9.6 0.95-9.6 0.95 3.2 2.864 9.6-0.95 9.6-0.95z" fill="#000000" />
</svg>
