<?xml version="1.0" encoding="utf-8"?>
<!-- Generated by IcoMoon.io -->
<!DOCTYPE svg PUBLIC "-//W3C//DTD SVG 1.1//EN" "http://www.w3.org/Graphics/SVG/1.1/DTD/svg11.dtd">
<svg version="1.1" xmlns="http://www.w3.org/2000/svg" xmlns:xlink="http://www.w3.org/1999/xlink" width="17" height="17" viewBox="0 0 17 17">
<g>
</g>
	<path d="M13.15 12.687c-0.72 0.478-1.42 0.71-2.141 0.71-0.371 0-0.684-0.082-0.96-0.251-0.17-0.103-0.277-0.223-0.333-0.377-0.052-0.134-0.113-0.522-0.113-1.612v-3.605h3.793v-3.51h-3.792v-4.042h-3.221l-0.056 0.438c-0.096 0.758-0.27 1.391-0.512 1.878-0.245 0.481-0.557 0.88-0.948 1.217-0.398 0.332-0.887 0.596-1.451 0.783l-0.343 0.114v3.122h1.771v5.115c0 0.812 0.087 1.423 0.262 1.854 0.171 0.453 0.495 0.889 0.969 1.299 0.464 0.392 1.005 0.687 1.601 0.874 0.611 0.202 1.316 0.306 2.095 0.306 0.699 0 1.346-0.071 1.914-0.21 0.574-0.131 1.214-0.364 1.955-0.713l0.287-0.135v-3.771l-0.777 0.516zM12.927 15.304c-0.553 0.245-1.035 0.413-1.472 0.514-1.037 0.253-2.476 0.256-3.473-0.075-0.476-0.15-0.901-0.381-1.259-0.683-0.341-0.296-0.571-0.596-0.687-0.903-0.129-0.316-0.193-0.817-0.193-1.489v-6.116h-1.77v-1.411c0.543-0.216 1.025-0.498 1.44-0.845 0.49-0.422 0.892-0.936 1.194-1.53 0.249-0.498 0.43-1.078 0.547-1.766h1.35v4.042h3.793v1.51h-3.793v4.604c0 1.068 0.052 1.64 0.176 1.961 0.131 0.363 0.384 0.66 0.75 0.882 0.929 0.571 2.225 0.502 3.397-0.042v1.347z" fill="#000000" />
</svg>
