<?xml version="1.0" encoding="utf-8"?>
<!-- Generated by IcoMoon.io -->
<!DOCTYPE svg PUBLIC "-//W3C//DTD SVG 1.1//EN" "http://www.w3.org/Graphics/SVG/1.1/DTD/svg11.dtd">
<svg version="1.1" xmlns="http://www.w3.org/2000/svg" xmlns:xlink="http://www.w3.org/1999/xlink" width="17" height="17" viewBox="0 0 17 17">
<g>
</g>
	<path d="M17 3.236c-0.626 0.27-1.305 0.464-2.007 0.539 0.723-0.431 1.273-1.11 1.532-1.919-0.669 0.399-1.424 0.69-2.211 0.841-0.636-0.68-1.542-1.1-2.545-1.1-1.931 0-3.484 1.564-3.484 3.483 0 0.27 0.033 0.54 0.086 0.799-2.891-0.15-5.469-1.531-7.184-3.646-0.302 0.517-0.475 1.111-0.475 1.759 0 1.208 0.615 2.275 1.553 2.901-0.571-0.022-1.111-0.184-1.575-0.442 0 0.010 0 0.032 0 0.043 0 1.692 1.197 3.095 2.794 3.419-0.291 0.075-0.604 0.118-0.917 0.118-0.226 0-0.442-0.021-0.657-0.054 0.442 1.381 1.726 2.384 3.257 2.417-1.198 0.938-2.697 1.488-4.326 1.488-0.291 0-0.561-0.010-0.841-0.042 1.543 0.992 3.376 1.564 5.351 1.564 6.407 0 9.913-5.307 9.913-9.912 0-0.152 0-0.302-0.010-0.454 0.678-0.496 1.271-1.112 1.746-1.802zM14.263 5.491c0 3.701-2.765 8.912-8.913 8.912-0.492 0-0.979-0.040-1.458-0.118 0.67-0.276 1.305-0.646 1.891-1.104 0.333-0.26 0.466-0.702 0.332-1.103-0.134-0.401-0.505-0.675-0.928-0.684-0.545-0.011-1.055-0.197-1.467-0.509 0.004-0.001 0.008-0.002 0.012-0.003 0.452-0.116 0.763-0.528 0.751-0.994-0.011-0.467-0.343-0.862-0.8-0.955-0.652-0.132-1.203-0.516-1.559-1.046 0.035 0.002 0.069 0.004 0.104 0.005 0.013 0 0.025 0 0.038 0 0.432 0 0.817-0.278 0.951-0.692 0.138-0.426-0.024-0.891-0.397-1.14-0.63-0.42-1.030-1.096-1.098-1.841 1.824 1.582 4.146 2.531 6.597 2.658 0.017 0.001 0.035 0.001 0.052 0.001 0.291 0 0.568-0.127 0.759-0.349 0.202-0.235 0.283-0.551 0.22-0.854-0.044-0.209-0.066-0.41-0.066-0.595 0-1.369 1.114-2.483 2.484-2.483 0.698 0 1.342 0.278 1.815 0.784 0.116 0.124 0.261 0.215 0.417 0.266-0.019 0.146-0.006 0.297 0.043 0.444 0.063 0.191 0.18 0.352 0.33 0.47-0.089 0.164-0.132 0.353-0.119 0.544 0.010 0.129 0.009 0.257 0.009 0.386z" fill="#000000" />
</svg>
