<?xml version="1.0" encoding="utf-8"?>
<!-- Generated by IcoMoon.io -->
<!DOCTYPE svg PUBLIC "-//W3C//DTD SVG 1.1//EN" "http://www.w3.org/Graphics/SVG/1.1/DTD/svg11.dtd">
<svg version="1.1" xmlns="http://www.w3.org/2000/svg" xmlns:xlink="http://www.w3.org/1999/xlink" width="17" height="17" viewBox="0 0 17 17">
<g>
</g>
	<path d="M2.134 5.139l1.402-2.587c1.086-1.648 3.262-2.095 4.871-1.029l-0.551 0.833c-1.149-0.759-2.703-0.44-3.464 0.709l-1.402 2.587c-0.781 1.188-0.464 2.742 0.687 3.501 1.143 0.752 2.41 0.547 3.313-0.538l0.768 0.641c-0.742 0.892-1.694 1.352-2.678 1.352-0.655 0-1.323-0.204-1.954-0.62-1.61-1.064-2.056-3.239-0.992-4.849zM4.041 8.034l-0.13 0.129 0.705 0.709 0.131-0.13c0.975-0.975 2.561-0.975 3.535 0s0.975 2.561 0 3.535l-3.023 3.024c-0.975 0.975-2.561 0.975-3.535 0s-0.975-2.561 0-3.535l1.058-1.059-0.707-0.707-1.058 1.060c-1.364 1.364-1.364 3.585 0 4.949 0.683 0.683 1.578 1.023 2.475 1.023s1.792-0.341 2.475-1.023l3.023-3.024c1.364-1.364 1.364-3.585 0-4.949-1.367-1.367-3.587-1.364-4.949-0.002zM10.963 7h4.074v-1h-4.074v1zM10.495 8.347l1.951 1.127 0.5-0.865-1.951-1.127-0.5 0.865zM10.75 1.156l-1.58 2.737 0.865 0.5 1.58-2.736-0.865-0.501zM15.867 2.725l-0.5-0.865-4.992 2.882 0.5 0.865 4.992-2.882z" fill="#000000" />
</svg>
