<?xml version="1.0" encoding="utf-8"?>
<!-- Generated by IcoMoon.io -->
<!DOCTYPE svg PUBLIC "-//W3C//DTD SVG 1.1//EN" "http://www.w3.org/Graphics/SVG/1.1/DTD/svg11.dtd">
<svg version="1.1" xmlns="http://www.w3.org/2000/svg" xmlns:xlink="http://www.w3.org/1999/xlink" width="17" height="17" viewBox="0 0 17 17">
<g>
</g>
	<path d="M9.5 10.972c0 0.366-0.207 0.672-0.5 0.846v2.154h-1v-2.153c-0.294-0.174-0.5-0.48-0.5-0.847 0-0.552 0.447-1 1-1 0.551 0 1 0.447 1 1zM14.994 8.46v7.080c0 0.827-0.673 1.5-1.5 1.5h-9.988c-0.827 0-1.5-0.673-1.5-1.5v-7.080c0-0.827 0.673-1.5 1.5-1.5h8.994v-1.988c0-2.206-1.794-4-4-4s-4 1.794-4 4h-1c0-2.757 2.243-5 5-5s5 2.243 5 5v1.988c0.824 0.004 1.494 0.675 1.494 1.5zM13.994 8.46c0-0.276-0.225-0.5-0.5-0.5h-9.988c-0.275 0-0.5 0.224-0.5 0.5v7.080c0 0.276 0.225 0.5 0.5 0.5h9.988c0.275 0 0.5-0.224 0.5-0.5v-7.080z" fill="#000000" />
</svg>
