<?xml version="1.0" encoding="utf-8"?>
<!-- Generated by IcoMoon.io -->
<!DOCTYPE svg PUBLIC "-//W3C//DTD SVG 1.1//EN" "http://www.w3.org/Graphics/SVG/1.1/DTD/svg11.dtd">
<svg version="1.1" xmlns="http://www.w3.org/2000/svg" xmlns:xlink="http://www.w3.org/1999/xlink" width="17" height="17" viewBox="0 0 17 17">
<g>
</g>
	<path d="M15.664 2.69c-0.416-0.528-1.13-0.808-2.063-0.808-0.264 0-0.521 0.023-0.758 0.059-0.869 0.146-3.019 1.232-3.746 3.518-0.051 0.158-0.019 0.332 0.085 0.463 0.104 0.13 0.269 0.201 0.433 0.187 0.562-0.045 0.982-0.012 1.112 0.133 0.104 0.113 0.142 0.386 0.106 0.768-0.046 0.51-0.333 1.099-0.634 1.675-0.145 0.264-0.588 1.075-0.862 1.075-0.065 0-0.169-0.069-0.276-0.184-0.514-0.555-0.62-1.613-0.711-2.548-0.032-0.308-0.061-0.602-0.104-0.88l-0.069-0.391c-0.095-0.55-0.203-1.173-0.374-1.729-0.206-0.644-0.699-1.474-1.421-1.698-0.156-0.044-0.326-0.066-0.503-0.066-0.688 0-1.306 0.329-1.481 0.431-0.733 0.435-1.326 0.968-1.9 1.484-0.433 0.388-0.88 0.791-1.386 1.148-0.132 0.094-0.211 0.335-0.211 0.497 0 0.189 0.106 0.362 0.276 0.447 0.056 0.029 0.064 0.042 0.109 0.13 0.072 0.14 0.221 0.429 0.64 0.496 0.371 0.055 0.719-0.054 1.008-0.145 0.157-0.050 0.306-0.096 0.403-0.096 0.035 0 0.076 0 0.159 0.139 0.173 0.289 0.268 0.619 0.368 0.969 0.052 0.178 0.103 0.356 0.166 0.54 0.222 0.611 0.392 1.278 0.571 1.984l0.157 0.627c0.358 1.475 0.849 3.493 2.219 4.068 0.207 0.088 0.443 0.133 0.703 0.133 0.669 0 1.377-0.294 1.77-0.54 1.166-0.687 2.241-1.702 3.284-3.104 1.911-2.558 3.088-5.64 3.293-6.722 0.163-0.866 0.045-1.54-0.363-2.060zM15.045 4.564c-0.146 0.768-1.153 3.688-3.112 6.309-0.963 1.295-1.94 2.224-3.001 2.849-0.394 0.246-1.187 0.501-1.564 0.341-0.907-0.381-1.329-2.116-1.637-3.384l-0.161-0.639c-0.185-0.729-0.361-1.419-0.596-2.070-0.056-0.16-0.102-0.322-0.149-0.482-0.113-0.395-0.231-0.804-0.471-1.204-0.246-0.416-0.588-0.627-1.017-0.627-0.251 0-0.48 0.072-0.702 0.142-0.159 0.050-0.31 0.097-0.479 0.107-0.013-0.023-0.027-0.050-0.044-0.078 0.378-0.298 0.72-0.605 1.054-0.906 0.562-0.506 1.093-0.983 1.738-1.365 0.232-0.135 0.626-0.293 0.975-0.293 0.086 0 0.164 0.010 0.22 0.025 0.256 0.079 0.593 0.547 0.75 1.038 0.151 0.49 0.253 1.080 0.342 1.601l0.069 0.387c0.039 0.247 0.065 0.523 0.095 0.812 0.107 1.092 0.23 2.328 0.975 3.131 0.312 0.333 0.651 0.502 1.008 0.502 0.868 0 1.393-0.962 1.784-1.68 0.311-0.597 0.646-1.291 0.708-1.98 0.064-0.704-0.051-1.19-0.363-1.533-0.314-0.345-0.761-0.444-1.138-0.471 0.808-1.539 2.363-2.115 2.671-2.167 0.184-0.027 0.39-0.046 0.602-0.046 0.353 0 0.986 0.056 1.277 0.426 0.218 0.279 0.272 0.689 0.166 1.255z" fill="#000000" />
</svg>
