<?xml version="1.0" encoding="utf-8"?>
<!-- Generated by IcoMoon.io -->
<!DOCTYPE svg PUBLIC "-//W3C//DTD SVG 1.1//EN" "http://www.w3.org/Graphics/SVG/1.1/DTD/svg11.dtd">
<svg version="1.1" xmlns="http://www.w3.org/2000/svg" xmlns:xlink="http://www.w3.org/1999/xlink" width="17" height="17" viewBox="0 0 17 17">
<g>
</g>
	<path d="M9.5 16.5c-0.327-0.058-0.664-0.105-1.010-0.105-0.336 0-0.673 0.048-1.009 0.105l0.125-6.799c-1.789-3.086-3.472-6.229-5.442-9.201 0.336 0.087 0.682 0.144 1.038 0.144s0.721-0.068 1.067-0.144c1.346 2.386 2.808 4.702 4.221 7.048 1.423-2.327 2.933-4.644 4.222-7.048 0.336 0.087 0.683 0.135 1.028 0.135 0.366 0 0.741-0.048 1.096-0.135-0.77 1.058-1.404 2.211-2.067 3.336-1.145 1.952-2.27 3.905-3.395 5.865l0.126 6.799z" fill="#000000" />
</svg>
