<?xml version="1.0" encoding="utf-8"?>
<!-- Generated by IcoMoon.io -->
<!DOCTYPE svg PUBLIC "-//W3C//DTD SVG 1.1//EN" "http://www.w3.org/Graphics/SVG/1.1/DTD/svg11.dtd">
<svg version="1.1" xmlns="http://www.w3.org/2000/svg" xmlns:xlink="http://www.w3.org/1999/xlink" width="17" height="17" viewBox="0 0 17 17">
<g>
</g>
	<path d="M8.301 6.422c0.437 0 0.769-0.161 1.006-0.484 0.181-0.237 0.265-0.617 0.265-1.12v-1.66c0-0.503-0.084-0.873-0.265-1.11-0.238-0.321-0.57-0.483-1.006-0.483-0.428 0-0.76 0.161-0.995 0.483-0.181 0.238-0.266 0.608-0.266 1.111v1.66c0 0.503 0.085 0.873 0.266 1.12 0.235 0.322 0.567 0.483 0.995 0.483zM7.893 2.988c0-0.436 0.133-0.654 0.408-0.654 0.285 0 0.408 0.218 0.408 0.654v1.992c0 0.437-0.123 0.664-0.408 0.664-0.275 0-0.408-0.228-0.408-0.664v-1.992zM10.35 6.071c-0.048-0.143-0.075-0.37-0.075-0.711v-3.738h0.863v3.481c0 0.2 0 0.313 0.010 0.333 0.019 0.133 0.085 0.208 0.199 0.208 0.17 0 0.35-0.133 0.54-0.408v-3.614h0.863v4.734h-0.863v-0.522c-0.341 0.398-0.663 0.588-0.978 0.588-0.275 0-0.474-0.113-0.559-0.351zM13.633 11.811v0.436h-0.854v-0.436c0-0.427 0.143-0.646 0.427-0.646 0.284 0.001 0.427 0.219 0.427 0.646zM4.354 1.774c-0.208-0.588-0.416-1.186-0.617-1.774h1.007l0.673 2.495 0.645-2.495h0.968l-1.148 3.785v2.571h-0.948v-2.571c-0.086-0.465-0.276-1.129-0.58-2.011zM15.283 8.785c-0.171-0.75-0.788-1.3-1.518-1.385-1.746-0.19-3.511-0.19-5.266-0.19s-3.52 0-5.256 0.19c-0.738 0.085-1.346 0.635-1.526 1.385-0.237 1.062-0.247 2.22-0.247 3.32 0 1.091 0 2.257 0.247 3.32 0.171 0.75 0.788 1.3 1.518 1.376 1.745 0.199 3.51 0.199 5.265 0.199s3.52 0 5.266-0.199c0.729-0.076 1.337-0.626 1.518-1.376 0.237-1.062 0.247-2.229 0.247-3.32-0.001-1.1-0.001-2.258-0.248-3.32zM5.483 9.743h-1.014v5.398h-0.949v-5.398h-0.997v-0.892h2.96v0.892zM8.045 15.141h-0.845v-0.512c-0.342 0.389-0.664 0.579-0.968 0.579-0.274 0-0.474-0.114-0.55-0.351-0.048-0.142-0.076-0.361-0.076-0.692v-3.709h0.845v3.453c0 0.2 0 0.304 0.009 0.333 0.020 0.132 0.086 0.199 0.199 0.199 0.172 0 0.352-0.132 0.541-0.398v-3.586h0.845v4.684zM11.271 13.737c0 0.437-0.020 0.749-0.086 0.948-0.104 0.342-0.342 0.522-0.674 0.522-0.303 0-0.598-0.171-0.883-0.522v0.456h-0.843v-6.29h0.843v2.059c0.275-0.342 0.57-0.512 0.883-0.512 0.332 0 0.57 0.18 0.674 0.531 0.066 0.19 0.086 0.502 0.086 0.939v1.869zM14.477 12.959h-1.698v0.825c0 0.437 0.143 0.654 0.437 0.654 0.209 0 0.332-0.113 0.38-0.341 0.009-0.047 0.019-0.237 0.019-0.579h0.863v0.124c0 0.275 0 0.465-0.019 0.55-0.020 0.189-0.096 0.36-0.199 0.512-0.229 0.332-0.579 0.503-1.024 0.503-0.446 0-0.779-0.161-1.025-0.484-0.18-0.228-0.275-0.598-0.275-1.101v-1.641c0-0.503 0.086-0.863 0.266-1.101 0.247-0.323 0.579-0.484 1.016-0.484 0.428 0 0.759 0.161 1.005 0.484 0.172 0.237 0.257 0.597 0.257 1.101v0.978zM10.426 11.801v2.002c0 0.427-0.124 0.635-0.37 0.635-0.143 0-0.285-0.066-0.428-0.208v-2.855c0.143-0.143 0.285-0.209 0.428-0.209 0.246 0 0.37 0.218 0.37 0.635z" fill="#000000" />
</svg>
