<?xml version="1.0" encoding="utf-8"?>
<!-- Generated by IcoMoon.io -->
<!DOCTYPE svg PUBLIC "-//W3C//DTD SVG 1.1//EN" "http://www.w3.org/Graphics/SVG/1.1/DTD/svg11.dtd">
<svg version="1.1" xmlns="http://www.w3.org/2000/svg" xmlns:xlink="http://www.w3.org/1999/xlink" width="17" height="17" viewBox="0 0 17 17">
<g>
</g>
	<path d="M9.667 0h-7.667v17h13v-11.692l-5.333-5.308zM10 1.742l3.273 3.258h-3.273v-3.258zM3 16v-15h3v1h1v-1h2v5h5v10h-11zM5 8h1v1h-1v-1zM6 8v-1h1v1h-1zM6 6v-1h1v1h-1zM5 6h1v1h-1v-1zM5 4h1v1h-1v-1zM6 4v-1h1v1h-1zM5 2h1v1h-1v-1zM6 9.389c-1.103 0-2 0.897-2 2s0.897 2 2 2c0.062 0 0.121-0.007 0.219-0.020 0.646-0.071 1.218-0.455 1.531-1.026 0.166-0.303 0.25-0.624 0.25-0.954 0-1.103-0.897-2-2-2zM6.873 11.864c-0.156 0.285-0.441 0.477-0.762 0.512l-0.112 0.014c-0.551 0-0.999-0.449-0.999-1s0.449-1 1-1 1 0.449 1 1c0 0.159-0.043 0.319-0.127 0.474z" fill="#000000" />
</svg>
