<?xml version="1.0" encoding="utf-8"?>
<!-- Generated by IcoMoon.io -->
<!DOCTYPE svg PUBLIC "-//W3C//DTD SVG 1.1//EN" "http://www.w3.org/Graphics/SVG/1.1/DTD/svg11.dtd">
<svg version="1.1" xmlns="http://www.w3.org/2000/svg" xmlns:xlink="http://www.w3.org/1999/xlink" width="17" height="17" viewBox="0 0 17 17">
<g>
</g>
	<path d="M16.604 15.896l-5.173-5.173c0.975-1.137 1.569-2.61 1.569-4.223 0-3.584-2.916-6.5-6.5-6.5-1.737 0-3.369 0.676-4.597 1.904-1.228 1.227-1.903 2.86-1.903 4.596 0 3.584 2.916 6.5 6.5 6.5 1.612 0 3.086-0.594 4.224-1.569l5.173 5.173 0.707-0.708zM6.5 12c-3.033 0-5.5-2.467-5.5-5.5 0-1.47 0.571-2.851 1.61-3.89 1.039-1.038 2.42-1.61 3.89-1.61 3.033 0 5.5 2.467 5.5 5.5 0 3.033-2.467 5.5-5.5 5.5zM7 6h2v1h-2v2h-1v-2h-2v-1h2v-2h1v2z" fill="#000000" />
</svg>
