<?xml version="1.0" encoding="UTF-8"?>
<svg width="21px" height="15px" viewBox="0 0 21 15" version="1.1" xmlns="http://www.w3.org/2000/svg" xmlns:xlink="http://www.w3.org/1999/xlink">
    <!-- Generator: sketchtool 46 (44423) - http://www.bohemiancoding.com/sketch -->
    <title>CG</title>
    <desc>Created with sketchtool.</desc>
    <defs>
        <linearGradient x1="50%" y1="0%" x2="50%" y2="100%" id="linearGradient-1">
            <stop stop-color="#FFFFFF" offset="0%"></stop>
            <stop stop-color="#F0F0F0" offset="100%"></stop>
        </linearGradient>
        <linearGradient x1="50%" y1="0%" x2="50%" y2="100%" id="linearGradient-2">
            <stop stop-color="#F33630" offset="0%"></stop>
            <stop stop-color="#DC241E" offset="100%"></stop>
        </linearGradient>
        <linearGradient x1="50%" y1="0%" x2="50%" y2="100%" id="linearGradient-3">
            <stop stop-color="#009643" offset="0%"></stop>
            <stop stop-color="#09C15B" offset="100%"></stop>
        </linearGradient>
        <linearGradient x1="50%" y1="0%" x2="50%" y2="100%" id="linearGradient-4">
            <stop stop-color="#FCDF4A" offset="0%"></stop>
            <stop stop-color="#FCE154" offset="100%"></stop>
        </linearGradient>
    </defs>
    <g id="Symbols" stroke="none" stroke-width="1" fill="none" fill-rule="evenodd">
        <g id="CG">
            <rect id="FlagBackground" fill="url(#linearGradient-1)" x="0" y="0" width="21" height="15"></rect>
            <g id="Group-2" transform="translate(-1.060000, -5.020000)">
                <polygon id="Rectangle-74" fill="url(#linearGradient-2)" points="6.06152385 19.017348 21.0615238 5.01734803 22.0615238 5.01734803 22.0615238 20.017348 6.06152385 20.017348"></polygon>
                <polygon id="Rectangle-74-Copy" fill="url(#linearGradient-3)" transform="translate(9.061524, 12.517348) scale(-1, -1) translate(-9.061524, -12.517348) " points="1.06152385 19.017348 16.0615238 5.01734803 17.0615238 5.01734803 17.0615238 20.017348 1.06152385 20.017348"></polygon>
                <polygon id="Rectangle-69-Copy" fill="url(#linearGradient-4)" transform="translate(11.870896, 12.167073) rotate(134.000000) translate(-11.870896, -12.167073) " points="-2.62910413 9.66707303 26.3708959 9.66707303 26.3708959 14.667073 -2.62910413 14.667073"></polygon>
            </g>
        </g>
    </g>
</svg>