<?xml version="1.0" encoding="UTF-8"?>
<svg width="21px" height="15px" viewBox="0 0 21 15" version="1.1" xmlns="http://www.w3.org/2000/svg" xmlns:xlink="http://www.w3.org/1999/xlink">
    <!-- Generator: sketchtool 46 (44423) - http://www.bohemiancoding.com/sketch -->
    <title>CM</title>
    <desc>Created with sketchtool.</desc>
    <defs>
        <linearGradient x1="50%" y1="0%" x2="50%" y2="100%" id="linearGradient-1">
            <stop stop-color="#FFFFFF" offset="0%"></stop>
            <stop stop-color="#F0F0F0" offset="100%"></stop>
        </linearGradient>
        <linearGradient x1="50%" y1="0%" x2="50%" y2="100%" id="linearGradient-2">
            <stop stop-color="#FFDC44" offset="0%"></stop>
            <stop stop-color="#FDD216" offset="100%"></stop>
        </linearGradient>
        <linearGradient x1="50%" y1="0%" x2="50%" y2="100%" id="linearGradient-3">
            <stop stop-color="#059170" offset="0%"></stop>
            <stop stop-color="#007B5E" offset="100%"></stop>
        </linearGradient>
        <linearGradient x1="50%" y1="0%" x2="50%" y2="100%" id="linearGradient-4">
            <stop stop-color="#E21A30" offset="0%"></stop>
            <stop stop-color="#CE1126" offset="100%"></stop>
        </linearGradient>
        <linearGradient x1="50%" y1="0%" x2="50%" y2="100%" id="linearGradient-5">
            <stop stop-color="#FFDC42" offset="0%"></stop>
            <stop stop-color="#FDD217" offset="100%"></stop>
        </linearGradient>
    </defs>
    <g id="Symbols" stroke="none" stroke-width="1" fill="none" fill-rule="evenodd">
        <g id="CM">
            <rect id="FlagBackground" fill="url(#linearGradient-1)" x="0" y="0" width="21" height="15"></rect>
            <rect id="Mask" fill="url(#linearGradient-2)" x="10" y="0" width="11" height="15"></rect>
            <rect id="Rectangle-2" fill="url(#linearGradient-3)" x="0" y="0" width="7" height="15"></rect>
            <rect id="Rectangle-2-Copy" fill="url(#linearGradient-4)" x="7" y="0" width="7" height="15"></rect>
            <rect id="Rectangle-2-Copy-2" fill="url(#linearGradient-2)" x="14" y="0" width="7" height="15"></rect>
            <polygon id="Star-8" fill="url(#linearGradient-5)" points="10.5 8.47500004 9.03053687 9.52254249 9.57271986 7.80129158 8.12235871 6.72745751 9.92690936 6.7112084 10.5 5 11.0730906 6.7112084 12.8776413 6.72745751 11.4272801 7.80129158 11.9694631 9.52254249"></polygon>
        </g>
    </g>
</svg>