<?xml version="1.0" encoding="UTF-8"?>
<svg width="21px" height="15px" viewBox="0 0 21 15" version="1.1" xmlns="http://www.w3.org/2000/svg" xmlns:xlink="http://www.w3.org/1999/xlink">
    <!-- Generator: sketchtool 46 (44423) - http://www.bohemiancoding.com/sketch -->
    <title>CY</title>
    <desc>Created with sketchtool.</desc>
    <defs>
        <linearGradient x1="50%" y1="0%" x2="50%" y2="100%" id="linearGradient-1">
            <stop stop-color="#FFFFFF" offset="0%"></stop>
            <stop stop-color="#F0F0F0" offset="100%"></stop>
        </linearGradient>
        <linearGradient x1="50%" y1="0%" x2="50%" y2="100%" id="linearGradient-2">
            <stop stop-color="#E7832C" offset="0%"></stop>
            <stop stop-color="#D7751F" offset="100%"></stop>
        </linearGradient>
    </defs>
    <g id="Symbols" stroke="none" stroke-width="1" fill="none" fill-rule="evenodd">
        <g id="CY">
            <rect id="FlagBackground" fill="url(#linearGradient-1)" x="0" y="0" width="21" height="15"></rect>
            <path d="M15.546814,2.22659302 C15.7971017,2.10144915 15.8773804,2.18392944 15.7267456,2.40988159 L15.2732544,3.09011841 C15.1223402,3.31648976 14.8160706,3.62261963 14.5901184,3.77325439 L13.9098816,4.22674561 C13.6835102,4.37765984 13.3417969,4.65820312 13.1473122,4.85268784 L13.3526878,4.64731216 C13.1579037,4.84209628 13.15625,5.15625 13.3497515,5.34975147 L13.6502485,5.65024853 C13.8434109,5.84341093 13.84375,6.15625 13.6502485,6.34975147 L13.3497515,6.65024853 C13.1565891,6.84341093 12.8071899,6.90359497 12.546814,6.77340698 L12.453186,6.72659302 C12.2028983,6.60144915 11.903595,6.69281006 11.773407,6.95318604 L11.726593,7.04681396 C11.6014491,7.2971017 11.2914314,7.56952286 11.0253906,7.65820312 L10.4746094,7.84179688 C10.2124899,7.92917005 9.76806641,8 9.5,8 L9.5,8 C9.22385763,8 8.90359497,8.19281006 8.77340698,8.45318604 L8.72659302,8.54681396 C8.60144915,8.7971017 8.30092049,8.90046024 8.05613518,8.77806759 L6.94386482,8.22193241 C6.69872505,8.09936253 6.34375,7.84375 6.15024853,7.65024853 L5.84975147,7.34975147 C5.65658907,7.15658907 5.5,6.76806641 5.5,6.5 L5.5,6.5 C5.5,6.22385763 5.72659302,6 6,6 L5.5,6 C5.77614237,6 6.15625,5.84375 6.34975147,5.65024853 L6.65024853,5.34975147 C6.84341093,5.15658907 7.23193359,5 7.5,5 L7.5,5 C7.77614237,5 8.06952286,4.79143143 8.15820312,4.52539062 L8.34179688,3.97460938 C8.42917005,3.71248986 8.71314859,3.54262972 8.98202515,3.59640503 L10.5179749,3.90359497 C10.78419,3.956838 11.214035,3.94649124 11.4841442,3.87896395 L12.5158558,3.62103605 C12.7832413,3.55418969 13.1928101,3.40359497 13.453186,3.27340698 L13.546814,3.22659302 C13.7971017,3.10144915 14.1928101,2.90359497 14.453186,2.77340698 L14.546814,2.72659302 C14.7971017,2.60144915 15.1928101,2.40359497 15.453186,2.27340698 L15.546814,2.22659302 Z" id="Line" fill="url(#linearGradient-2)"></path>
            <circle id="Oval-81" fill="#445128" cx="10.5" cy="11.5" r="1"></circle>
            <path d="M12.1581139,11.4743416 C11.8961422,11.5616655 11.6129822,11.4200855 11.5256584,11.1581139 C11.4383345,10.8961422 11.5799145,10.6129822 11.8418861,10.5256584 C11.8949452,10.507972 11.9982693,10.4686104 12.1344308,10.4080942 C12.3633259,10.306363 12.5920344,10.1843852 12.8026499,10.0439749 C13.1564463,9.80811057 13.4174091,9.54714779 13.5527864,9.2763932 C13.676281,9.02940395 13.9766175,8.92929178 14.2236068,9.0527864 C14.470596,9.17628103 14.5707082,9.47661755 14.4472136,9.7236068 C14.2225909,10.1728522 13.8435537,10.5518894 13.3573501,10.8760251 C13.0954656,11.0506148 12.8179241,11.198637 12.5405692,11.3219058 C12.3729807,11.3963896 12.2400548,11.447028 12.1581139,11.4743416 Z M9.15811388,10.5256584 C9.42008554,10.6129822 9.56166554,10.8961422 9.47434165,11.1581139 C9.38701776,11.4200855 9.10385778,11.5616655 8.84188612,11.4743416 C8.75994524,11.447028 8.62701935,11.3963896 8.45943077,11.3219058 C8.18207594,11.198637 7.90453437,11.0506148 7.6426499,10.8760251 C7.15644633,10.5518894 6.77740911,10.1728522 6.5527864,9.7236068 C6.42929178,9.47661755 6.52940395,9.17628103 6.7763932,9.0527864 C7.02338245,8.92929178 7.32371897,9.02940395 7.4472136,9.2763932 C7.58259089,9.54714779 7.84355367,9.80811057 8.1973501,10.0439749 C8.40796563,10.1843852 8.63667406,10.306363 8.86556923,10.4080942 C9.00173065,10.4686104 9.10505476,10.507972 9.15811388,10.5256584 Z" id="Combined-Shape" fill="#445128" fill-rule="nonzero" opacity="0.75"></path>
        </g>
    </g>
</svg>