<?xml version="1.0" encoding="UTF-8"?>
<svg width="21px" height="15px" viewBox="0 0 21 15" version="1.1" xmlns="http://www.w3.org/2000/svg" xmlns:xlink="http://www.w3.org/1999/xlink">
    <!-- Generator: sketchtool 46 (44423) - http://www.bohemiancoding.com/sketch -->
    <title>ER</title>
    <desc>Created with sketchtool.</desc>
    <defs>
        <linearGradient x1="50%" y1="0%" x2="50%" y2="100%" id="linearGradient-1">
            <stop stop-color="#FFFFFF" offset="0%"></stop>
            <stop stop-color="#F0F0F0" offset="100%"></stop>
        </linearGradient>
        <linearGradient x1="50%" y1="0%" x2="50%" y2="100%" id="linearGradient-2">
            <stop stop-color="#29C53F" offset="0%"></stop>
            <stop stop-color="#21AC35" offset="100%"></stop>
        </linearGradient>
        <linearGradient x1="50%" y1="0%" x2="50%" y2="100%" id="linearGradient-3">
            <stop stop-color="#579DED" offset="0%"></stop>
            <stop stop-color="#458BDB" offset="100%"></stop>
        </linearGradient>
        <linearGradient x1="50%" y1="0%" x2="50%" y2="100%" id="linearGradient-4">
            <stop stop-color="#F42D56" offset="0%"></stop>
            <stop stop-color="#E9103D" offset="100%"></stop>
        </linearGradient>
    </defs>
    <g id="Symbols" stroke="none" stroke-width="1" fill="none" fill-rule="evenodd">
        <g id="ER">
            <rect id="FlagBackground" fill="url(#linearGradient-1)" x="0" y="0" width="21" height="15"></rect>
            <rect id="Rectangle-2" fill="url(#linearGradient-2)" x="0" y="0" width="21" height="7.5"></rect>
            <rect id="Rectangle-2" fill="url(#linearGradient-3)" x="0" y="7.5" width="21" height="8"></rect>
            <polygon id="Rectangle-2" fill="url(#linearGradient-4)" points="0 15 21 7.5 0 0"></polygon>
            <path d="M6.5,10 C7.88071187,10 9,8.88071187 9,7.5 C9,6.11928813 7.88071187,5 6.5,5 C5.11928813,5 4,6.11928813 4,7.5 C4,8.88071187 5.11928813,10 6.5,10 Z M6.5,11 C4.56700338,11 3,9.43299662 3,7.5 C3,5.56700338 4.56700338,4 6.5,4 C8.43299662,4 10,5.56700338 10,7.5 C10,9.43299662 8.43299662,11 6.5,11 Z" id="Oval-87" fill="#FFC63C" fill-rule="nonzero"></path>
            <circle id="Oval-88" fill="#FFC63C" cx="6" cy="6.5" r="1"></circle>
            <circle id="Oval-88" fill="#FFC63C" cx="7" cy="7" r="1"></circle>
            <circle id="Oval-88" fill="#FFC63C" cx="6.5" cy="6" r="1"></circle>
            <circle id="Oval-88" fill="#FFC63C" cx="6" cy="7.5" r="1"></circle>
            <circle id="Oval-88" fill="#FFC63C" cx="7" cy="8" r="1"></circle>
            <circle id="Oval-88" fill="#FFC63C" cx="6" cy="8.5" r="1"></circle>
            <circle id="Oval-88" fill="#FFC63C" cx="7" cy="9" r="1"></circle>
        </g>
    </g>
</svg>