<?xml version="1.0" encoding="UTF-8"?>
<svg width="21px" height="15px" viewBox="0 0 21 15" version="1.1" xmlns="http://www.w3.org/2000/svg" xmlns:xlink="http://www.w3.org/1999/xlink">
    <!-- Generator: sketchtool 46 (44423) - http://www.bohemiancoding.com/sketch -->
    <title>GP</title>
    <desc>Created with sketchtool.</desc>
    <defs>
        <linearGradient x1="50%" y1="0%" x2="50%" y2="100%" id="linearGradient-1">
            <stop stop-color="#FFFFFF" offset="0%"></stop>
            <stop stop-color="#F0F0F0" offset="100%"></stop>
        </linearGradient>
        <linearGradient x1="50%" y1="0%" x2="50%" y2="100%" id="linearGradient-2">
            <stop stop-color="#25A057" offset="0%"></stop>
            <stop stop-color="#1C8245" offset="100%"></stop>
        </linearGradient>
        <linearGradient x1="50%" y1="0%" x2="50%" y2="100%" id="linearGradient-3">
            <stop stop-color="#31B8F4" offset="0%"></stop>
            <stop stop-color="#1EA2DC" offset="100%"></stop>
        </linearGradient>
        <linearGradient x1="50%" y1="0%" x2="50%" y2="100%" id="linearGradient-4">
            <stop stop-color="#FFE149" offset="0%"></stop>
            <stop stop-color="#FFDD32" offset="100%"></stop>
        </linearGradient>
    </defs>
    <g id="Symbols" stroke="none" stroke-width="1" fill="none" fill-rule="evenodd">
        <g id="GP">
            <rect id="FlagBackground" fill="url(#linearGradient-1)" x="0" y="0" width="21" height="15"></rect>
            <g id="Group-2" transform="translate(6.000000, 0.800000)">
                <g id="Group" transform="translate(0.000000, 2.202017)">
                    <rect id="Rectangle-1381" fill="url(#linearGradient-2)" x="2" y="0" width="5" height="5" rx="0.25"></rect>
                    <path d="M2,0.241160393 C2,0.107971186 2.11539841,0 2.25021791,0 L5.74978209,0 C5.88797362,0 5.94445552,0.0935245553 5.87531119,0.209948243 L4.53753662,2.46246338 L2.18249338,2.81750662 L2.02093431,4.74964026 C2.00937261,4.88791013 2,4.89556789 2,4.75883961 L2,0.241160393 Z" id="Rectangle-1381-Copy-2" fill="url(#linearGradient-3)"></path>
                    <circle id="Oval-274" fill="url(#linearGradient-4)" cx="2" cy="2" r="1.5"></circle>
                </g>
                <rect id="Rectangle-1381-Copy" fill="url(#linearGradient-4)" x="2" y="10.2020174" width="5" height="1" rx="0.25"></rect>
                <path d="M2.14057143,8.15230314 L2.16,8.15230314 C2.2,8.15230314 2.23085714,8.19001742 2.23085714,8.24030314 L2.23085714,8.48601742 C2.23085714,8.52487456 2.25142857,8.55916028 2.304,8.55916028 L2.36342857,8.55916028 C2.36914286,8.55916028 2.37485714,8.55916028 2.37485714,8.55573171 C2.37485714,8.55230314 2.37028571,8.54773171 2.36571429,8.54316028 L2.32914286,8.50430314 C2.32342857,8.49858885 2.31885714,8.49173171 2.31885714,8.48373171 L2.31885714,8.24487456 C2.31885714,8.18201742 2.28457143,8.13744599 2.24571429,8.11687456 C2.28571429,8.09173171 2.33028571,8.04030314 2.33028571,7.91344599 C2.33028571,7.76487456 2.26857143,7.70201742 2.14971429,7.70201742 L2.00685714,7.70201742 C2.00228571,7.70201742 2,7.70544599 2,7.70887456 C2,7.71230314 2.00571429,7.71573171 2.008,7.71916028 L2.04228571,7.75230314 C2.05028571,7.76030314 2.05257143,7.77058885 2.05257143,7.78430314 L2.05257143,8.47687456 C2.05257143,8.49058885 2.05028571,8.50087456 2.04228571,8.50887456 L2.008,8.54201742 C2.00571429,8.54544599 2,8.54887456 2,8.55230314 C2,8.55573171 2.00228571,8.55916028 2.00685714,8.55916028 L2.18628571,8.55916028 C2.19085714,8.55916028 2.19314286,8.55573171 2.19314286,8.55230314 C2.19314286,8.54887456 2.18742857,8.54544599 2.18514286,8.54201742 L2.15085714,8.50887456 C2.14285714,8.50087456 2.14057143,8.49058885 2.14057143,8.47687456 L2.14057143,8.15230314 Z M2.14057143,7.75916028 L2.15771429,7.75916028 C2.21371429,7.75916028 2.23657143,7.79687456 2.23657143,7.91344599 C2.23657143,8.05058885 2.21371429,8.09516028 2.15771429,8.09516028 L2.14057143,8.09516028 L2.14057143,7.75916028 Z M2.52914286,7.75916028 L2.59428571,7.75916028 C2.60914286,7.75916028 2.61942857,7.76601742 2.624,7.78087456 L2.68571429,7.99573171 C2.68685714,8.00030314 2.69028571,8.00373171 2.69485714,8.00373171 C2.69828571,8.00373171 2.70057143,8.00144599 2.70057143,7.99687456 L2.70057143,7.71230314 C2.70057143,7.70658885 2.696,7.70201742 2.69142857,7.70201742 L2.39542857,7.70201742 C2.39085714,7.70201742 2.38857143,7.70544599 2.38857143,7.70887456 C2.38857143,7.71230314 2.39428571,7.71573171 2.39657143,7.71916028 L2.43085714,7.75230314 C2.43885714,7.76030314 2.44114286,7.77058885 2.44114286,7.78430314 L2.44114286,8.47687456 C2.44114286,8.49058885 2.43885714,8.50087456 2.43085714,8.50887456 L2.39657143,8.54201742 C2.39428571,8.54658885 2.38857143,8.54887456 2.38857143,8.55230314 C2.38857143,8.55573171 2.39085714,8.55916028 2.39542857,8.55916028 L2.69142857,8.55916028 C2.69714286,8.55916028 2.70057143,8.55458885 2.70057143,8.54887456 L2.70057143,8.26201742 C2.70057143,8.25858885 2.69828571,8.25516028 2.69485714,8.25516028 C2.69142857,8.25516028 2.688,8.25744599 2.68685714,8.26201742 L2.62514286,8.48144599 C2.62057143,8.49516028 2.60914286,8.50201742 2.59428571,8.50201742 L2.52914286,8.50201742 L2.52914286,8.15458885 L2.55428571,8.15458885 C2.56,8.15458885 2.56457143,8.15687456 2.56685714,8.16258885 L2.60571429,8.24601742 C2.608,8.25058885 2.60914286,8.25401742 2.61371429,8.25401742 C2.61714286,8.25401742 2.61828571,8.25173171 2.61828571,8.24830314 L2.61828571,8.00601742 C2.61828571,8.00144599 2.61714286,7.99916028 2.61371429,7.99916028 C2.61028571,7.99916028 2.60914286,8.00144599 2.60685714,8.00601742 L2.56685714,8.08601742 C2.56457143,8.09173171 2.56,8.09401742 2.55428571,8.09401742 L2.52914286,8.09401742 L2.52914286,7.75916028 Z M2.96914286,8.35001742 C2.96914286,8.45858885 2.944,8.50201742 2.90857143,8.50201742 C2.86742857,8.50201742 2.85371429,8.43801742 2.85371429,8.10887456 C2.85371429,7.86773171 2.86742857,7.75916028 2.91542857,7.75916028 C2.96571429,7.75916028 3.01485714,7.90658885 3.03885714,7.99230314 C3.04114286,7.99916028 3.04457143,8.00373171 3.04914286,8.00373171 C3.05257143,8.00373171 3.05485714,8.00030314 3.05485714,7.99573171 L3.05485714,7.72144599 C3.05485714,7.71001742 3.05257143,7.70201742 3.04685714,7.70201742 C3.04114286,7.70201742 3.03428571,7.70773171 3.024,7.71687456 C3.01257143,7.72716028 3.00114286,7.73516028 2.99542857,7.73516028 C2.99085714,7.73516028 2.98285714,7.73173171 2.97828571,7.72830314 C2.96685714,7.71916028 2.944,7.70201742 2.90628571,7.70201742 C2.76571429,7.70201742 2.76,7.96716028 2.76,8.10773171 C2.76,8.29858885 2.76571429,8.55916028 2.90857143,8.55916028 C2.93371429,8.55916028 2.95657143,8.54544599 2.98057143,8.52373171 C2.98514286,8.52030314 2.98857143,8.51916028 2.992,8.51916028 C2.99657143,8.51916028 2.99885714,8.52030314 3.00342857,8.52373171 L3.03771429,8.55458885 C3.04,8.55687456 3.04457143,8.55916028 3.04914286,8.55916028 C3.05257143,8.55916028 3.05485714,8.55687456 3.05485714,8.55344599 L3.05485714,8.19458885 C3.05485714,8.18316028 3.05828571,8.17516028 3.06628571,8.16944599 L3.09942857,8.14201742 C3.10285714,8.13744599 3.10514286,8.13516028 3.10514286,8.13058885 C3.10514286,8.12601742 3.10171429,8.12373171 3.09714286,8.12373171 L2.928,8.12373171 C2.92228571,8.12373171 2.91885714,8.12601742 2.91885714,8.13058885 C2.91885714,8.13516028 2.92,8.13744599 2.92457143,8.14201742 L2.95657143,8.16944599 C2.96457143,8.17630314 2.96914286,8.18316028 2.96914286,8.19458885 L2.96914286,8.35001742 Z M3.17142857,8.47687456 C3.17142857,8.49058885 3.16914286,8.50087456 3.16114286,8.50887456 L3.12685714,8.54201742 C3.12457143,8.54544599 3.11885714,8.54887456 3.11885714,8.55230314 C3.11885714,8.55573171 3.12114286,8.55916028 3.12571429,8.55916028 L3.30514286,8.55916028 C3.30971429,8.55916028 3.312,8.55573171 3.312,8.55230314 C3.312,8.54887456 3.30628571,8.54544599 3.304,8.54201742 L3.26971429,8.50887456 C3.26171429,8.50087456 3.25942857,8.49058885 3.25942857,8.47687456 L3.25942857,7.78430314 C3.25942857,7.77058885 3.26171429,7.76030314 3.26971429,7.75230314 L3.304,7.71916028 C3.30628571,7.71573171 3.312,7.71230314 3.312,7.70887456 C3.312,7.70544599 3.30971429,7.70201742 3.30514286,7.70201742 L3.12571429,7.70201742 C3.12114286,7.70201742 3.11885714,7.70544599 3.11885714,7.70887456 C3.11885714,7.71230314 3.12457143,7.71573171 3.12685714,7.71916028 L3.16114286,7.75230314 C3.16914286,7.76030314 3.17142857,7.77058885 3.17142857,7.78430314 L3.17142857,8.47687456 Z M3.50971429,7.70201742 C3.37257143,7.70201742 3.35771429,7.94316028 3.35771429,8.10773171 C3.35771429,8.32373171 3.37257143,8.55916028 3.50971429,8.55916028 C3.648,8.55916028 3.66285714,8.32373171 3.66285714,8.10773171 C3.66285714,7.94316028 3.648,7.70201742 3.50971429,7.70201742 L3.50971429,7.70201742 Z M3.50971429,7.75916028 C3.544,7.75916028 3.56914286,7.85516028 3.56914286,8.10887456 C3.56914286,8.40601742 3.544,8.50201742 3.50971429,8.50201742 C3.47657143,8.50201742 3.45142857,8.40601742 3.45142857,8.10887456 C3.45142857,7.85516028 3.47657143,7.75916028 3.50971429,7.75916028 L3.50971429,7.75916028 Z M3.75542857,8.47687456 C3.75542857,8.49058885 3.752,8.49973171 3.74514286,8.50887456 L3.71657143,8.54201742 C3.71428571,8.54544599 3.70857143,8.54887456 3.70857143,8.55344599 C3.70857143,8.55573171 3.71085714,8.55916028 3.71542857,8.55916028 L3.86628571,8.55916028 C3.87085714,8.55916028 3.87314286,8.55573171 3.87314286,8.55344599 C3.87314286,8.54887456 3.86857143,8.54544599 3.86514286,8.54201742 L3.83428571,8.50773171 C3.82628571,8.49973171 3.82285714,8.49058885 3.82285714,8.47687456 L3.82285714,7.90773171 L3.82514286,7.90773171 L3.95885714,8.53058885 C3.96228571,8.54773171 3.97142857,8.55916028 3.98171429,8.55916028 L4.02971429,8.55916028 C4.03771429,8.55916028 4.04114286,8.55458885 4.04114286,8.54658885 L4.04114286,7.78430314 C4.04114286,7.77058885 4.04457143,7.76144599 4.05142857,7.75230314 L4.08,7.71916028 C4.08342857,7.71573171 4.088,7.71230314 4.088,7.70773171 C4.088,7.70544599 4.08571429,7.70201742 4.08114286,7.70201742 L3.93028571,7.70201742 C3.92571429,7.70201742 3.92342857,7.70544599 3.92342857,7.70773171 C3.92342857,7.71230314 3.92914286,7.71573171 3.93142857,7.71916028 L3.96342857,7.75344599 C3.97142857,7.76144599 3.97371429,7.77058885 3.97371429,7.78430314 L3.97371429,8.21287456 L3.97142857,8.21287456 L3.86628571,7.72144599 C3.864,7.71001742 3.86057143,7.70201742 3.85257143,7.70201742 L3.71542857,7.70201742 C3.71085714,7.70201742 3.70857143,7.70544599 3.70857143,7.70773171 C3.70857143,7.71230314 3.71428571,7.71573171 3.71657143,7.71916028 L3.74514286,7.75230314 C3.752,7.76144599 3.75542857,7.77058885 3.75542857,7.78430314 L3.75542857,8.47687456 Z M2.22742857,9.49287456 C2.22742857,9.60144599 2.20228571,9.64487456 2.16685714,9.64487456 C2.12571429,9.64487456 2.112,9.58087456 2.112,9.25173171 C2.112,9.01058885 2.12571429,8.90201742 2.17371429,8.90201742 C2.224,8.90201742 2.27314286,9.04944599 2.29714286,9.13516028 C2.29942857,9.14201742 2.30285714,9.14658885 2.30742857,9.14658885 C2.31085714,9.14658885 2.31314286,9.14316028 2.31314286,9.13858885 L2.31314286,8.86430314 C2.31314286,8.85287456 2.31085714,8.84487456 2.30514286,8.84487456 C2.29942857,8.84487456 2.29257143,8.85058885 2.28228571,8.85973171 C2.27085714,8.87001742 2.25942857,8.87801742 2.25371429,8.87801742 C2.24914286,8.87801742 2.24114286,8.87458885 2.23657143,8.87116028 C2.22514286,8.86201742 2.20228571,8.84487456 2.16457143,8.84487456 C2.024,8.84487456 2.01828571,9.11001742 2.01828571,9.25058885 C2.01828571,9.44144599 2.024,9.70201742 2.16685714,9.70201742 C2.192,9.70201742 2.21485714,9.68830314 2.23885714,9.66658885 C2.24342857,9.66316028 2.24685714,9.66201742 2.25028571,9.66201742 C2.25485714,9.66201742 2.25714286,9.66316028 2.26171429,9.66658885 L2.296,9.69744599 C2.29828571,9.69973171 2.30285714,9.70201742 2.30742857,9.70201742 C2.31085714,9.70201742 2.31314286,9.69973171 2.31314286,9.69630314 L2.31314286,9.33744599 C2.31314286,9.32601742 2.31657143,9.31801742 2.32457143,9.31230314 L2.35771429,9.28487456 C2.36114286,9.28030314 2.36342857,9.27801742 2.36342857,9.27344599 C2.36342857,9.26887456 2.36,9.26658885 2.35542857,9.26658885 L2.18628571,9.26658885 C2.18057143,9.26658885 2.17714286,9.26887456 2.17714286,9.27344599 C2.17714286,9.27801742 2.17828571,9.28030314 2.18285714,9.28487456 L2.21485714,9.31230314 C2.22285714,9.31916028 2.22742857,9.32601742 2.22742857,9.33744599 L2.22742857,9.49287456 Z M2.41828571,9.57858885 C2.41828571,9.64944599 2.46514286,9.70201742 2.55542857,9.70201742 C2.63314286,9.70201742 2.688,9.64944599 2.688,9.57858885 L2.688,8.92716028 C2.688,8.91344599 2.69142857,8.90201742 2.69714286,8.89516028 L2.73257143,8.86201742 C2.736,8.85858885 2.73828571,8.85516028 2.73828571,8.85173171 C2.73828571,8.84830314 2.736,8.84487456 2.73142857,8.84487456 L2.57485714,8.84487456 C2.57028571,8.84487456 2.568,8.84830314 2.568,8.85173171 C2.568,8.85516028 2.57028571,8.85858885 2.57371429,8.86201742 L2.60914286,8.89516028 C2.616,8.90201742 2.61828571,8.91344599 2.61828571,8.92716028 L2.61828571,9.54887456 C2.61828571,9.59916028 2.60685714,9.64487456 2.56457143,9.64487456 C2.51085714,9.64487456 2.50628571,9.59916028 2.50628571,9.54887456 L2.50628571,8.92716028 C2.50628571,8.91344599 2.50971429,8.90201742 2.51542857,8.89516028 L2.55085714,8.86201742 C2.55428571,8.85858885 2.55657143,8.85516028 2.55657143,8.85173171 C2.55657143,8.84830314 2.55428571,8.84487456 2.54971429,8.84487456 L2.37485714,8.84487456 C2.37028571,8.84487456 2.368,8.84830314 2.368,8.85173171 C2.368,8.85516028 2.37028571,8.85858885 2.37371429,8.86201742 L2.40914286,8.89516028 C2.416,8.90201742 2.41828571,8.91344599 2.41828571,8.92716028 L2.41828571,9.57858885 Z M2.98514286,9.63116028 C2.98628571,9.64144599 2.984,9.64944599 2.97942857,9.65401742 L2.94857143,9.68487456 C2.94514286,9.68830314 2.94057143,9.69173171 2.94057143,9.69516028 C2.94057143,9.69858885 2.94285714,9.70201742 2.94857143,9.70201742 L3.11314286,9.70201742 C3.11885714,9.70201742 3.12114286,9.69858885 3.12114286,9.69516028 C3.12114286,9.69173171 3.11771429,9.68830314 3.11428571,9.68487456 L3.08114286,9.65516028 C3.07314286,9.64830314 3.06971429,9.63573171 3.06857143,9.62430314 L2.96,8.85744599 C2.95885714,8.85058885 2.95542857,8.84487456 2.94971429,8.84487456 L2.90742857,8.84487456 C2.90171429,8.84487456 2.89942857,8.84944599 2.89828571,8.85516028 L2.79428571,9.62316028 C2.79314286,9.63344599 2.792,9.64487456 2.78514286,9.65173171 L2.75314286,9.68373171 C2.74971429,9.68716028 2.74514286,9.69173171 2.74514286,9.69516028 C2.74514286,9.69858885 2.74742857,9.70201742 2.752,9.70201742 L2.88342857,9.70201742 C2.88914286,9.70201742 2.89142857,9.69858885 2.89142857,9.69516028 C2.89142857,9.69173171 2.88457143,9.68716028 2.88,9.68144599 L2.85485714,9.65516028 C2.85028571,9.64944599 2.848,9.64258885 2.84914286,9.63458885 L2.86628571,9.50887456 C2.86742857,9.50430314 2.86971429,9.50087456 2.87314286,9.50087456 L2.95771429,9.50087456 C2.96342857,9.50087456 2.96685714,9.50544599 2.968,9.51116028 L2.98514286,9.63116028 Z M2.88,9.44030314 C2.87771429,9.44030314 2.87542857,9.43801742 2.87657143,9.43344599 L2.91428571,9.15230314 L2.91657143,9.15230314 L2.95657143,9.43230314 C2.95771429,9.43687456 2.95542857,9.44030314 2.952,9.44030314 L2.88,9.44030314 Z M3.18971429,9.61973171 C3.18971429,9.63344599 3.18742857,9.64373171 3.17942857,9.65173171 L3.14514286,9.68487456 C3.14285714,9.68944599 3.13714286,9.69173171 3.13714286,9.69516028 C3.13714286,9.69858885 3.13942857,9.70201742 3.144,9.70201742 L3.29485714,9.70201742 C3.41028571,9.70201742 3.47885714,9.62430314 3.47885714,9.25173171 C3.47885714,8.95573171 3.41028571,8.84487456 3.29485714,8.84487456 L3.144,8.84487456 C3.13942857,8.84487456 3.13714286,8.84830314 3.13714286,8.85173171 C3.13714286,8.85516028 3.14285714,8.85858885 3.14514286,8.86201742 L3.17942857,8.89516028 C3.18742857,8.90316028 3.18971429,8.91344599 3.18971429,8.92716028 L3.18971429,9.61973171 Z M3.27771429,8.90201742 L3.29828571,8.90201742 C3.34285714,8.90201742 3.38514286,8.94544599 3.38514286,9.25173171 C3.38514286,9.60144599 3.34285714,9.64487456 3.29828571,9.64487456 L3.27771429,9.64487456 L3.27771429,8.90201742 Z M3.66514286,8.90201742 L3.73028571,8.90201742 C3.74514286,8.90201742 3.75542857,8.90887456 3.76,8.92373171 L3.82171429,9.13858885 C3.82285714,9.14316028 3.82628571,9.14658885 3.83085714,9.14658885 C3.83428571,9.14658885 3.83657143,9.14430314 3.83657143,9.13973171 L3.83657143,8.85516028 C3.83657143,8.84944599 3.832,8.84487456 3.82742857,8.84487456 L3.53142857,8.84487456 C3.52685714,8.84487456 3.52457143,8.84830314 3.52457143,8.85173171 C3.52457143,8.85516028 3.53028571,8.85858885 3.53257143,8.86201742 L3.56685714,8.89516028 C3.57485714,8.90316028 3.57714286,8.91344599 3.57714286,8.92716028 L3.57714286,9.61973171 C3.57714286,9.63344599 3.57485714,9.64373171 3.56685714,9.65173171 L3.53257143,9.68487456 C3.53028571,9.68944599 3.52457143,9.69173171 3.52457143,9.69516028 C3.52457143,9.69858885 3.52685714,9.70201742 3.53142857,9.70201742 L3.82742857,9.70201742 C3.83314286,9.70201742 3.83657143,9.69744599 3.83657143,9.69173171 L3.83657143,9.40487456 C3.83657143,9.40144599 3.83428571,9.39801742 3.83085714,9.39801742 C3.82742857,9.39801742 3.824,9.40030314 3.82285714,9.40487456 L3.76114286,9.62430314 C3.75657143,9.63801742 3.74514286,9.64487456 3.73028571,9.64487456 L3.66514286,9.64487456 L3.66514286,9.29744599 L3.69028571,9.29744599 C3.696,9.29744599 3.70057143,9.29973171 3.70285714,9.30544599 L3.74171429,9.38887456 C3.744,9.39344599 3.74514286,9.39687456 3.74971429,9.39687456 C3.75314286,9.39687456 3.75428571,9.39458885 3.75428571,9.39116028 L3.75428571,9.14887456 C3.75428571,9.14430314 3.75314286,9.14201742 3.74971429,9.14201742 C3.74628571,9.14201742 3.74514286,9.14430314 3.74285714,9.14887456 L3.70285714,9.22887456 C3.70057143,9.23458885 3.696,9.23687456 3.69028571,9.23687456 L3.66514286,9.23687456 L3.66514286,8.90201742 Z M3.93028571,9.61973171 C3.93028571,9.63344599 3.928,9.64373171 3.92,9.65173171 L3.88571429,9.68487456 C3.88342857,9.68944599 3.87771429,9.69173171 3.87771429,9.69516028 C3.87771429,9.69858885 3.88,9.70201742 3.88457143,9.70201742 L4.16457143,9.70201742 C4.17371429,9.70201742 4.17714286,9.69630314 4.17714286,9.68601742 L4.17714286,9.40601742 C4.17714286,9.40144599 4.17485714,9.39801742 4.17142857,9.39801742 C4.16685714,9.39801742 4.16685714,9.40144599 4.16457143,9.40601742 L4.09371429,9.62773171 C4.08914286,9.64144599 4.07771429,9.64487456 4.064,9.64487456 L4.01828571,9.64487456 L4.01828571,8.92716028 C4.01828571,8.91344599 4.02057143,8.90316028 4.02857143,8.89516028 L4.06285714,8.86201742 C4.06514286,8.85858885 4.07085714,8.85516028 4.07085714,8.85173171 C4.07085714,8.84830314 4.06857143,8.84487456 4.064,8.84487456 L3.88457143,8.84487456 C3.88,8.84487456 3.87771429,8.84830314 3.87771429,8.85173171 C3.87771429,8.85516028 3.88342857,8.85858885 3.88571429,8.86201742 L3.92,8.89516028 C3.928,8.90316028 3.93028571,8.91344599 3.93028571,8.92716028 L3.93028571,9.61973171 Z M4.38857143,8.84487456 C4.25142857,8.84487456 4.23657143,9.08601742 4.23657143,9.25058885 C4.23657143,9.46658885 4.25142857,9.70201742 4.38857143,9.70201742 C4.52685714,9.70201742 4.54171429,9.46658885 4.54171429,9.25058885 C4.54171429,9.08601742 4.52685714,8.84487456 4.38857143,8.84487456 L4.38857143,8.84487456 Z M4.38857143,8.90201742 C4.42285714,8.90201742 4.448,8.99801742 4.448,9.25173171 C4.448,9.54887456 4.42285714,9.64487456 4.38857143,9.64487456 C4.35542857,9.64487456 4.33028571,9.54887456 4.33028571,9.25173171 C4.33028571,8.99801742 4.35542857,8.90201742 4.38857143,8.90201742 L4.38857143,8.90201742 Z M4.62857143,9.57858885 C4.62857143,9.64944599 4.67542857,9.70201742 4.76571429,9.70201742 C4.84342857,9.70201742 4.89828571,9.64944599 4.89828571,9.57858885 L4.89828571,8.92716028 C4.89828571,8.91344599 4.90171429,8.90201742 4.90742857,8.89516028 L4.94285714,8.86201742 C4.94628571,8.85858885 4.94857143,8.85516028 4.94857143,8.85173171 C4.94857143,8.84830314 4.94628571,8.84487456 4.94171429,8.84487456 L4.78514286,8.84487456 C4.78057143,8.84487456 4.77828571,8.84830314 4.77828571,8.85173171 C4.77828571,8.85516028 4.78057143,8.85858885 4.784,8.86201742 L4.81942857,8.89516028 C4.82628571,8.90201742 4.82857143,8.91344599 4.82857143,8.92716028 L4.82857143,9.54887456 C4.82857143,9.59916028 4.81714286,9.64487456 4.77485714,9.64487456 C4.72114286,9.64487456 4.71657143,9.59916028 4.71657143,9.54887456 L4.71657143,8.92716028 C4.71657143,8.91344599 4.72,8.90201742 4.72571429,8.89516028 L4.76114286,8.86201742 C4.76457143,8.85858885 4.76685714,8.85516028 4.76685714,8.85173171 C4.76685714,8.84830314 4.76457143,8.84487456 4.76,8.84487456 L4.58514286,8.84487456 C4.58057143,8.84487456 4.57828571,8.84830314 4.57828571,8.85173171 C4.57828571,8.85516028 4.58057143,8.85858885 4.584,8.86201742 L4.61942857,8.89516028 C4.62628571,8.90201742 4.62857143,8.91344599 4.62857143,8.92716028 L4.62857143,9.57858885 Z M5.01942857,9.61973171 C5.01942857,9.63344599 5.01714286,9.64373171 5.00914286,9.65173171 L4.97485714,9.68487456 C4.97257143,9.68944599 4.96685714,9.69173171 4.96685714,9.69516028 C4.96685714,9.69858885 4.96914286,9.70201742 4.97371429,9.70201742 L5.16114286,9.70201742 C5.16571429,9.70201742 5.168,9.69858885 5.168,9.69516028 C5.168,9.69173171 5.16342857,9.68830314 5.16,9.68487456 L5.11771429,9.65173171 C5.10857143,9.64487456 5.10742857,9.63344599 5.10742857,9.61973171 L5.10742857,9.30316028 L5.14628571,9.30316028 C5.24914286,9.30316028 5.29714286,9.21401742 5.29714286,9.06658885 C5.29714286,8.89173171 5.23542857,8.84487456 5.14628571,8.84487456 L4.97371429,8.84487456 C4.96914286,8.84487456 4.96685714,8.84830314 4.96685714,8.85173171 C4.96685714,8.85516028 4.97257143,8.85858885 4.97485714,8.86201742 L5.00914286,8.89516028 C5.01714286,8.90316028 5.01942857,8.91344599 5.01942857,8.92716028 L5.01942857,9.61973171 Z M5.10742857,8.90201742 L5.14057143,8.90201742 C5.18857143,8.90201742 5.20342857,8.93973171 5.20342857,9.06658885 C5.20342857,9.19344599 5.18857143,9.24601742 5.14057143,9.24601742 L5.10742857,9.24601742 L5.10742857,8.90201742 Z M5.47885714,8.90201742 L5.544,8.90201742 C5.55885714,8.90201742 5.56914286,8.90887456 5.57371429,8.92373171 L5.63542857,9.13858885 C5.63657143,9.14316028 5.64,9.14658885 5.64457143,9.14658885 C5.648,9.14658885 5.65028571,9.14430314 5.65028571,9.13973171 L5.65028571,8.85516028 C5.65028571,8.84944599 5.64571429,8.84487456 5.64114286,8.84487456 L5.34514286,8.84487456 C5.34057143,8.84487456 5.33828571,8.84830314 5.33828571,8.85173171 C5.33828571,8.85516028 5.344,8.85858885 5.34628571,8.86201742 L5.38057143,8.89516028 C5.38857143,8.90316028 5.39085714,8.91344599 5.39085714,8.92716028 L5.39085714,9.61973171 C5.39085714,9.63344599 5.38857143,9.64373171 5.38057143,9.65173171 L5.34628571,9.68487456 C5.344,9.68944599 5.33828571,9.69173171 5.33828571,9.69516028 C5.33828571,9.69858885 5.34057143,9.70201742 5.34514286,9.70201742 L5.64114286,9.70201742 C5.64685714,9.70201742 5.65028571,9.69744599 5.65028571,9.69173171 L5.65028571,9.40487456 C5.65028571,9.40144599 5.648,9.39801742 5.64457143,9.39801742 C5.64114286,9.39801742 5.63771429,9.40030314 5.63657143,9.40487456 L5.57485714,9.62430314 C5.57028571,9.63801742 5.55885714,9.64487456 5.544,9.64487456 L5.47885714,9.64487456 L5.47885714,9.29744599 L5.504,9.29744599 C5.50971429,9.29744599 5.51428571,9.29973171 5.51657143,9.30544599 L5.55542857,9.38887456 C5.55771429,9.39344599 5.55885714,9.39687456 5.56342857,9.39687456 C5.56685714,9.39687456 5.568,9.39458885 5.568,9.39116028 L5.568,9.14887456 C5.568,9.14430314 5.56685714,9.14201742 5.56342857,9.14201742 C5.56,9.14201742 5.55885714,9.14430314 5.55657143,9.14887456 L5.51657143,9.22887456 C5.51428571,9.23458885 5.50971429,9.23687456 5.504,9.23687456 L5.47885714,9.23687456 L5.47885714,8.90201742 Z" id="REGION" fill="#000000"></path>
                <path d="M6.97418589,0.783380024 C8.3485567,0.36657489 8.76201538,0.294412004 8.95356047,0.900815762 C9.11990955,1.42745267 8.82783856,1.9892288 8.30120166,2.15557789 C8.23411036,2.17677005 8.12479146,2.21443874 8.00211811,2.259469 C7.76007514,2.34831681 7.53185843,2.44235214 7.32906054,2.5375622 C7.01992874,2.68269417 6.79417342,2.82160902 6.70894045,2.90728577 C6.64453548,2.97202607 6.55042541,3.09402042 6.44189637,3.25792171 C6.33958933,3.41242649 6.22750006,3.59904687 6.10808036,3.81361258 C5.89149622,4.20275715 4.05005606,5.72320413 3.66712173,5.81544284 C3.36903764,5.88724338 3.14617622,5.96932036 3.08162275,6.01547607 C3.02994784,6.05242362 2.93901283,6.14204163 2.83139041,6.26851043 C2.72742761,6.39067876 2.61217662,6.5414537 2.4887889,6.71676162 C2.34517451,6.92080739 2.19676441,7.14892648 2.04967923,7.39052421 C1.97507121,7.51307311 1.91070004,7.6225744 1.87202757,7.69147418 C1.60170807,8.17308171 0.992150773,8.34436449 0.510543244,8.07404499 C-0.151167665,7.70263601 0.814918357,5.5520674 1.30824858,4.97234725 C1.51982885,4.72371594 1.71829223,4.53161951 1.91837725,4.38855877 C2.22987846,4.16583547 2.64401381,4.00468037 3.19877016,3.8710543 C3.4686507,3.80604724 3.76134432,3.75073089 4.06939028,3.7051904 C3.91969331,3.7273211 3.89727159,3.74914413 3.87884428,3.77602511 C3.91563687,3.72235363 3.96421549,3.63672821 4.02314255,3.52170866 C4.04681426,3.47550393 4.06137074,3.44626776 4.10028246,3.36696351 C4.12901964,3.30807838 4.22399434,3.11028085 4.23439756,3.08880291 C4.28767185,2.97881558 4.32548165,2.90392509 4.36051501,2.84097937 C4.50423483,2.58275276 4.64201178,2.35356554 4.77433614,2.15372839 C4.9543183,1.88191811 5.12300908,1.66567453 5.29105955,1.49674907 C5.49185518,1.29490797 6.16982842,1.02731734 6.97418589,0.783380024 Z" id="Line" fill="#FFFFFF" fill-rule="nonzero"></path>
                <path d="M5.64552978,1.84938325 C5.50016297,1.99550693 5.35008919,2.18986076 5.1912262,2.42977672 C5.06408372,2.62178816 4.93244007,2.84151769 4.79740635,3.08413767 C4.63139217,3.38242136 4.31075544,4.17494217 4.14251384,4.19981445 C3.86199416,4.24128554 3.58103379,4.29327764 3.31585806,4.35715143 C2.84332098,4.47097307 2.4701645,4.6086904 2.20918862,4.7952881 C2.04183093,4.91494881 1.8704705,5.0831792 1.68903404,5.29638805 C1.5509241,5.45868322 0.514467858,7.50287146 0.755271622,7.63803121 C0.996075386,7.77319096 1.30085403,7.68754956 1.43601379,7.4467458 C1.47050224,7.38530036 1.53507594,7.27428222 1.62260012,7.1305176 C1.76861198,6.89068287 1.92361333,6.65104499 2.07991081,6.42897923 C2.20960751,6.24470757 2.33426625,6.08118108 2.45060495,5.94446964 C2.58359875,5.78818653 2.70087946,5.67304805 2.79081138,5.60874674 C2.92072955,5.51585528 3.19319756,5.41529809 3.55003384,5.3293457 C3.78293449,5.27324612 5.51550298,3.85018104 5.67118902,3.57045427 C5.79458749,3.34873978 5.91343152,3.15037439 6.02500631,2.98187338 C6.15052694,2.79231128 6.26318764,2.64640945 6.35447022,2.55465159 C6.49110087,2.41730956 6.76155657,2.25163368 7.11657183,2.08496023 C7.34176951,1.97923386 7.58563364,1.87972809 7.82982204,1.79009275 C7.97621827,1.73635442 8.08897767,1.69826259 8.15060083,1.67879765 C8.41391928,1.59562311 8.55995477,1.31473504 8.47678023,1.05141659 C8.39360569,0.78809814 5.88374305,1.60992968 5.64552978,1.84938325 Z" id="Line" fill="#29568D" fill-rule="nonzero"></path>
            </g>
        </g>
    </g>
</svg>