<?xml version="1.0" encoding="UTF-8"?>
<svg width="21px" height="15px" viewBox="0 0 21 15" version="1.1" xmlns="http://www.w3.org/2000/svg" xmlns:xlink="http://www.w3.org/1999/xlink">
    <!-- Generator: sketchtool 46 (44423) - http://www.bohemiancoding.com/sketch -->
    <title>GY</title>
    <desc>Created with sketchtool.</desc>
    <defs>
        <linearGradient x1="50%" y1="0%" x2="50%" y2="100%" id="linearGradient-1">
            <stop stop-color="#FFFFFF" offset="0%"></stop>
            <stop stop-color="#F0F0F0" offset="100%"></stop>
        </linearGradient>
        <linearGradient x1="50%" y1="0%" x2="50%" y2="100%" id="linearGradient-2">
            <stop stop-color="#08C55F" offset="0%"></stop>
            <stop stop-color="#009F49" offset="100%"></stop>
        </linearGradient>
        <linearGradient x1="50%" y1="0%" x2="50%" y2="100%" id="linearGradient-3">
            <stop stop-color="#FFFFFF" offset="0%"></stop>
            <stop stop-color="#F0F0F0" offset="100%"></stop>
        </linearGradient>
        <linearGradient x1="50%" y1="0%" x2="50%" y2="100%" id="linearGradient-4">
            <stop stop-color="#FFD831" offset="0%"></stop>
            <stop stop-color="#FDD117" offset="100%"></stop>
        </linearGradient>
        <linearGradient x1="50%" y1="0%" x2="50%" y2="100%" id="linearGradient-5">
            <stop stop-color="#262626" offset="0%"></stop>
            <stop stop-color="#0D0D0D" offset="100%"></stop>
        </linearGradient>
        <linearGradient x1="50%" y1="0%" x2="50%" y2="100%" id="linearGradient-6">
            <stop stop-color="#E92034" offset="0%"></stop>
            <stop stop-color="#CE1225" offset="100%"></stop>
        </linearGradient>
    </defs>
    <g id="Symbols" stroke="none" stroke-width="1" fill="none" fill-rule="evenodd">
        <g id="GY">
            <rect id="FlagBackground" fill="url(#linearGradient-1)" x="0" y="0" width="21" height="15"></rect>
            <rect id="Mask" fill="url(#linearGradient-2)" x="0" y="0" width="21" height="15"></rect>
            <polygon id="Rectangle-1134" fill="url(#linearGradient-3)" fill-rule="nonzero" points="-1 15 -1 0 0 0 21 7 21 8 0 15"></polygon>
            <polygon id="Rectangle-1134" fill="url(#linearGradient-4)" fill-rule="nonzero" points="8.8817842e-16 1.05409255 1.99840144e-15 13.9459074 19.3377223 7.5"></polygon>
            <polygon id="Rectangle-1134" fill="url(#linearGradient-5)" fill-rule="nonzero" points="-1 15 -1 0 0 0 11.5 7.5 0 15"></polygon>
            <polygon id="Rectangle-1134" fill="url(#linearGradient-6)" fill-rule="nonzero" points="0 13.8061278 9.66939597 7.5 0 1.19387219"></polygon>
        </g>
    </g>
</svg>