<?xml version="1.0" encoding="UTF-8"?>
<svg width="21px" height="15px" viewBox="0 0 21 15" version="1.1" xmlns="http://www.w3.org/2000/svg" xmlns:xlink="http://www.w3.org/1999/xlink">
    <!-- Generator: sketchtool 46 (44423) - http://www.bohemiancoding.com/sketch -->
    <title>HN</title>
    <desc>Created with sketchtool.</desc>
    <defs>
        <linearGradient x1="50%" y1="0%" x2="50%" y2="100%" id="linearGradient-1">
            <stop stop-color="#FFFFFF" offset="0%"></stop>
            <stop stop-color="#F0F0F0" offset="100%"></stop>
        </linearGradient>
        <linearGradient x1="50%" y1="0%" x2="50%" y2="100%" id="linearGradient-2">
            <stop stop-color="#0884E6" offset="0%"></stop>
            <stop stop-color="#0074D0" offset="100%"></stop>
        </linearGradient>
        <linearGradient x1="50%" y1="0%" x2="50%" y2="100%" id="linearGradient-3">
            <stop stop-color="#0E88E9" offset="0%"></stop>
            <stop stop-color="#0074D0" offset="100%"></stop>
        </linearGradient>
    </defs>
    <g id="Symbols" stroke="none" stroke-width="1" fill="none" fill-rule="evenodd">
        <g id="HN">
            <rect id="FlagBackground" fill="url(#linearGradient-1)" x="0" y="0" width="21" height="15"></rect>
            <rect id="Rectangle-2" fill="url(#linearGradient-2)" x="0" y="0" width="21" height="5"></rect>
            <rect id="Rectangle-2" fill="url(#linearGradient-2)" x="0" y="10" width="21" height="5"></rect>
            <rect id="Rectangle-2" fill="url(#linearGradient-1)" x="0" y="5" width="21" height="5"></rect>
            <polygon id="Star-20" fill="url(#linearGradient-3)" points="10.5 8 9.79289322 8.20710678 10 7.5 9.79289322 6.79289322 10.5 7 11.2071068 6.79289322 11 7.5 11.2071068 8.20710678"></polygon>
            <polygon id="Star-20-Copy" fill="url(#linearGradient-3)" points="14.5 7 13.7928932 7.20710678 14 6.5 13.7928932 5.79289322 14.5 6 15.2071068 5.79289322 15 6.5 15.2071068 7.20710678"></polygon>
            <polygon id="Star-20-Copy-2" fill="url(#linearGradient-3)" points="14.5 9 13.7928932 9.20710678 14 8.5 13.7928932 7.79289322 14.5 8 15.2071068 7.79289322 15 8.5 15.2071068 9.20710678"></polygon>
            <polygon id="Star-20-Copy-3" fill="url(#linearGradient-3)" points="6.5 9 5.79289322 9.20710678 6 8.5 5.79289322 7.79289322 6.5 8 7.20710678 7.79289322 7 8.5 7.20710678 9.20710678"></polygon>
            <polygon id="Star-20-Copy-4" fill="url(#linearGradient-3)" points="6.5 7 5.79289322 7.20710678 6 6.5 5.79289322 5.79289322 6.5 6 7.20710678 5.79289322 7 6.5 7.20710678 7.20710678"></polygon>
        </g>
    </g>
</svg>