<?xml version="1.0" encoding="UTF-8"?>
<svg width="21px" height="15px" viewBox="0 0 21 15" version="1.1" xmlns="http://www.w3.org/2000/svg" xmlns:xlink="http://www.w3.org/1999/xlink">
    <!-- Generator: sketchtool 46 (44423) - http://www.bohemiancoding.com/sketch -->
    <title>IO</title>
    <desc>Created with sketchtool.</desc>
    <defs>
        <linearGradient x1="50%" y1="0%" x2="50%" y2="100%" id="linearGradient-1">
            <stop stop-color="#FFFFFF" offset="0%"></stop>
            <stop stop-color="#F0F0F0" offset="100%"></stop>
        </linearGradient>
        <linearGradient x1="50%" y1="0%" x2="50%" y2="100%" id="linearGradient-2">
            <stop stop-color="#07319C" offset="0%"></stop>
            <stop stop-color="#00247E" offset="100%"></stop>
        </linearGradient>
        <linearGradient x1="50%" y1="0%" x2="50%" y2="100%" id="linearGradient-3">
            <stop stop-color="#DB1E36" offset="0%"></stop>
            <stop stop-color="#D51931" offset="100%"></stop>
        </linearGradient>
    </defs>
    <g id="Symbols" stroke="none" stroke-width="1" fill="none" fill-rule="evenodd">
        <g id="IO">
            <rect id="FlagBackground" fill="url(#linearGradient-1)" x="0" y="0" width="21" height="15"></rect>
            <g id="Group-2" transform="translate(-2.160000, -0.910000)">
                <rect id="Mask-Copy" fill="url(#linearGradient-2)" x="2.16370553" y="0.907737788" width="21" height="15"></rect>
                <path d="M5.15999997,4.13996749 L0.808371262,0.410000026 L2.82023249,0.410000026 L6.32023249,2.91000003 L7.01660185,2.91000003 L11.66,0.00787620547 L11.66,1.16000003 C11.66,1.46250925 11.4930855,1.78653358 11.2421597,1.96576632 L8.15999997,4.16730897 L8.15999997,4.68003256 L11.2972205,7.3690787 C11.7593426,7.76518337 11.5010289,8.41000003 10.91,8.41000003 C10.6647861,8.41000003 10.3652751,8.31393405 10.1609215,8.16796721 L6.99976744,5.91000003 L6.30339808,5.91000003 L1.65999997,8.81212385 L1.65999997,7.15269108 L5.15999997,4.65269108 L5.15999997,4.13996749 Z" id="Rectangle-36" fill="url(#linearGradient-1)" fill-rule="nonzero"></path>
                <path d="M5.65999997,3.91000003 L2.15999997,0.910000026 L2.65999997,0.910000026 L6.15999997,3.41000003 L7.15999997,3.41000003 L11.16,0.910000026 L11.16,1.16000003 C11.16,1.29807121 11.0734826,1.47179812 10.9515406,1.55889958 L7.65999997,3.91000003 L7.65999997,4.91000003 L10.9718248,7.748707 C11.0757511,7.83778668 11.0440332,7.91000003 10.91,7.91000003 L10.91,7.91000003 C10.7719288,7.91000003 10.5734826,7.84820193 10.4515406,7.76110047 L7.15999997,5.41000003 L6.15999997,5.41000003 L2.15999997,7.91000003 L2.15999997,7.41000003 L5.65999997,4.91000003 L5.65999997,3.91000003 Z" id="Rectangle-36" fill="url(#linearGradient-3)"></path>
                <path d="M2.15999997,3.41000003 L2.15999997,5.41000003 L5.65999997,5.41000003 L5.65999997,7.91461104 C5.65999997,8.18820682 5.874035,8.41000003 6.16468441,8.41000003 L7.15531552,8.41000003 C7.43404504,8.41000003 7.65999997,8.19424742 7.65999997,7.91461104 L7.65999997,5.41000003 L11.1695215,5.41000003 C11.4404053,5.41000003 11.66,5.19596499 11.66,4.90531558 L11.66,3.91468447 C11.66,3.63595495 11.4449426,3.41000003 11.1695215,3.41000003 L7.65999997,3.41000003 L7.65999997,0.910000026 L5.65999997,0.910000026 L5.65999997,3.41000003 L2.15999997,3.41000003 Z" id="Rectangle-2" fill="url(#linearGradient-1)"></path>
                <polygon id="Rectangle-36" fill="url(#linearGradient-3)" points="2.15999997 3.91000003 6.15999997 3.91000003 6.15999997 3.41000003 6.15999997 0.910000026 7.15999997 0.910000026 7.15999997 3.41000003 7.15999997 3.91000003 11.16 3.91000003 11.16 4.91000003 7.15999997 4.91000003 7.15999997 5.41000003 7.15999997 7.91000003 6.15999997 7.91000003 6.15999997 5.41000003 6.15999997 4.91000003 2.15999997 4.91000003"></polygon>
                <path d="M2.5825667,7.90773779 L1.47434165,8.27714614 L1,8.43526002 L1.31622777,9.38394332 L1.79056942,9.22582944 L3.85306942,8.53832944 C4.00570482,8.48745097 4.32034758,8.48699808 4.47434165,8.53832944 L6.53684165,9.22582944 C6.89426681,9.34497116 7.43082734,9.34574346 7.79056942,9.22582944 L9.85306942,8.53832944 C10.0057048,8.48745097 10.3203476,8.48699808 10.4743416,8.53832944 L12.5368416,9.22582944 C12.8942668,9.34497116 13.4308273,9.34574346 13.7905694,9.22582944 L15.8530694,8.53832944 C16.0057048,8.48745097 16.3203476,8.48699808 16.4743416,8.53832944 L18.5368416,9.22582944 C18.8942668,9.34497116 19.4308273,9.34574346 19.7905694,9.22582944 L21.8530694,8.53832944 C22.0057048,8.48745097 22.3203476,8.48699808 22.4743416,8.53832944 L24.5368416,9.22582944 C24.8977153,9.34612067 24.8977153,9.34612067 25.0055916,9.38207944 L25.4799333,9.54019332 L25.7961611,8.59151002 L25.3218194,8.43339614 L24.8530694,8.27714614 L22.7905694,7.58964614 C22.4308273,7.46973211 21.8942668,7.47050442 21.5368416,7.58964614 L19.4743416,8.27714614 C19.3203476,8.32847749 19.0057048,8.32802461 18.8530694,8.27714614 L16.7905694,7.58964614 C16.4308273,7.46973211 15.8942668,7.47050442 15.5368416,7.58964614 L13.4743416,8.27714614 C13.3203476,8.32847749 13.0057048,8.32802461 12.8530694,8.27714614 L11.1637055,7.71402484 L11.1637055,7.90773779 L8.5825667,7.90773779 L7.47434165,8.27714614 C7.32034758,8.32847749 7.00570482,8.32802461 6.85306942,8.27714614 L5.74484436,7.90773779 L2.5825667,7.90773779 Z M11.1637055,6.2681174 L12.5368416,6.72582944 C12.8942668,6.84497116 13.4308273,6.84574346 13.7905694,6.72582944 L15.8530694,6.03832944 C16.0057048,5.98745097 16.3203476,5.98699808 16.4743416,6.03832944 L18.5368416,6.72582944 C18.8942668,6.84497116 19.4308273,6.84574346 19.7905694,6.72582944 L21.8530694,6.03832944 C22.0057048,5.98745097 22.3203476,5.98699808 22.4743416,6.03832944 L24.5368416,6.72582944 L25.0055916,6.88207944 L25.4799333,7.04019332 L25.7961611,6.09151002 L25.3218194,5.93339614 L24.8530694,5.77714614 L22.7905694,5.08964614 C22.4308273,4.96973211 21.8942668,4.97050442 21.5368416,5.08964614 L19.4743416,5.77714614 C19.3203476,5.82847749 19.0057048,5.82802461 18.8530694,5.77714614 L16.7905694,5.08964614 C16.4308273,4.96973211 15.8942668,4.97050442 15.5368416,5.08964614 L13.4743416,5.77714614 C13.3203476,5.82847749 13.0057048,5.82802461 12.8530694,5.77714614 L11.1637055,5.21402484 L11.1637055,6.2681174 Z M2.16370553,6.60145073 L1.79056942,6.72582944 L1.31622777,6.88394332 L1,5.93526002 L1.47434165,5.77714614 L2.16370553,5.54735818 L2.16370553,6.60145073 Z M11.1637055,3.7681174 L12.5368416,4.22582944 C12.8942668,4.34497116 13.4308273,4.34574346 13.7905694,4.22582944 L15.8530694,3.53832944 C16.0057048,3.48745097 16.3203476,3.48699808 16.4743416,3.53832944 L18.5368416,4.22582944 C18.8942668,4.34497116 19.4308273,4.34574346 19.7905694,4.22582944 L21.8530694,3.53832944 C22.0057048,3.48745097 22.3203476,3.48699808 22.4743416,3.53832944 L24.5368416,4.22582944 C24.8977153,4.34612067 24.8977153,4.34612067 25.0055916,4.38207944 L25.4799333,4.54019332 L25.7961611,3.59151002 L25.3218194,3.43339614 C25.2139431,3.39743737 25.2139431,3.39743737 24.8530694,3.27714614 L22.7905694,2.58964614 C22.4308273,2.46973211 21.8942668,2.47050442 21.5368416,2.58964614 L19.4743416,3.27714614 C19.3203476,3.32847749 19.0057048,3.32802461 18.8530694,3.27714614 L16.7905694,2.58964614 C16.4308273,2.46973211 15.8942668,2.47050442 15.5368416,2.58964614 L13.4743416,3.27714614 C13.3203476,3.32847749 13.0057048,3.32802461 12.8530694,3.27714614 L11.1637055,2.71402484 L11.1637055,3.7681174 Z M2.16370553,4.10145073 L1.79056942,4.22582944 L1.31622777,4.38394332 L1,3.43526002 L1.47434165,3.27714614 L2.16370553,3.04735818 L2.16370553,4.10145073 Z M11.1637055,1.2681174 L12.5368416,1.72582944 C12.8942668,1.84497116 13.4308273,1.84574346 13.7905694,1.72582944 L15.8530694,1.03832944 C16.0057048,0.987450967 16.3203476,0.986998082 16.4743416,1.03832944 L18.5368416,1.72582944 C18.8942668,1.84497116 19.4308273,1.84574346 19.7905694,1.72582944 L21.8530694,1.03832944 C22.0057048,0.987450967 22.3203476,0.986998082 22.4743416,1.03832944 L24.5368416,1.72582944 L25.0055916,1.88207944 L25.4799333,2.04019332 L25.7961611,1.09151002 L25.3218194,0.933396139 C25.2139431,0.897437372 25.2139431,0.897437372 24.8530694,0.777146139 L22.7905694,0.0896461387 C22.4308273,-0.0302678876 21.8942668,-0.0294955811 21.5368416,0.0896461387 L19.4743416,0.777146139 C19.3203476,0.828477494 19.0057048,0.828024608 18.8530694,0.777146139 L16.7905694,0.0896461387 C16.4308273,-0.0302678876 15.8942668,-0.0294955811 15.5368416,0.0896461387 L13.4743416,0.777146139 C13.3203476,0.828477494 13.0057048,0.828024608 12.8530694,0.777146139 L10.7905694,0.0896461387 C10.4308273,-0.0302678876 9.89426681,-0.0294955811 9.53684165,0.0896461387 L7.47434165,0.777146139 C7.32034758,0.828477494 7.00570482,0.828024608 6.85306942,0.777146139 L4.79056942,0.0896461387 C4.43082734,-0.0302678876 3.89426681,-0.0294955811 3.53684165,0.0896461387 L1.47434165,0.777146139 L1,0.935260022 L1.31622777,1.88394332 L1.79056942,1.72582944 L2.16370553,1.60145073 L2.16370553,0.907737788 L11.1637055,0.907737788 L11.1637055,1.2681174 Z M25.3218194,15.9333961 L25.7961611,16.09151 L25.4799333,17.0401933 L25.0055916,16.8820794 L24.5368416,16.7258294 L22.4743416,16.0383294 C22.3203476,15.9869981 22.0057048,15.987451 21.8530694,16.0383294 L19.7905694,16.7258294 C19.4308273,16.8457435 18.8942668,16.8449712 18.5368416,16.7258294 L16.4743416,16.0383294 C16.3203476,15.9869981 16.0057048,15.987451 15.8530694,16.0383294 L13.7905694,16.7258294 C13.4308273,16.8457435 12.8942668,16.8449712 12.5368416,16.7258294 L10.4743416,16.0383294 C10.3203476,15.9869981 10.0057048,15.987451 9.85306942,16.0383294 L7.79056942,16.7258294 C7.43082734,16.8457435 6.89426681,16.8449712 6.53684165,16.7258294 L4.47434165,16.0383294 C4.32034758,15.9869981 4.00570482,15.987451 3.85306942,16.0383294 L1.79056942,16.7258294 L1.31622777,16.8839433 L1,15.93526 L1.47434165,15.7771461 L3.53684165,15.0896461 C3.89426681,14.9705044 4.43082734,14.9697321 4.79056942,15.0896461 L6.85306942,15.7771461 C7.00570482,15.8280246 7.32034758,15.8284775 7.47434165,15.7771461 L9.53684165,15.0896461 C9.89426681,14.9705044 10.4308273,14.9697321 10.7905694,15.0896461 L12.8530694,15.7771461 C13.0057048,15.8280246 13.3203476,15.8284775 13.4743416,15.7771461 L15.5368416,15.0896461 C15.8942668,14.9705044 16.4308273,14.9697321 16.7905694,15.0896461 L18.8530694,15.7771461 C19.0057048,15.8280246 19.3203476,15.8284775 19.4743416,15.7771461 L21.5368416,15.0896461 C21.8942668,14.9705044 22.4308273,14.9697321 22.7905694,15.0896461 L24.8530694,15.7771461 L25.3218194,15.9333961 Z M25.3218194,13.4333961 L25.7961611,13.59151 L25.4799333,14.5401933 L25.0055916,14.3820794 C24.8977153,14.3461207 24.8977153,14.3461207 24.5368416,14.2258294 L22.4743416,13.5383294 C22.3203476,13.4869981 22.0057048,13.487451 21.8530694,13.5383294 L19.7905694,14.2258294 C19.4308273,14.3457435 18.8942668,14.3449712 18.5368416,14.2258294 L16.4743416,13.5383294 C16.3203476,13.4869981 16.0057048,13.487451 15.8530694,13.5383294 L13.7905694,14.2258294 C13.4308273,14.3457435 12.8942668,14.3449712 12.5368416,14.2258294 L10.4743416,13.5383294 C10.3203476,13.4869981 10.0057048,13.487451 9.85306942,13.5383294 L7.79056942,14.2258294 C7.43082734,14.3457435 6.89426681,14.3449712 6.53684165,14.2258294 L4.47434165,13.5383294 C4.32034758,13.4869981 4.00570482,13.487451 3.85306942,13.5383294 L1.79056942,14.2258294 L1.31622777,14.3839433 L1,13.43526 L1.47434165,13.2771461 L3.53684165,12.5896461 C3.89426681,12.4705044 4.43082734,12.4697321 4.79056942,12.5896461 L6.85306942,13.2771461 C7.00570482,13.3280246 7.32034758,13.3284775 7.47434165,13.2771461 L9.53684165,12.5896461 C9.89426681,12.4705044 10.4308273,12.4697321 10.7905694,12.5896461 L12.8530694,13.2771461 C13.0057048,13.3280246 13.3203476,13.3284775 13.4743416,13.2771461 L15.5368416,12.5896461 C15.8942668,12.4705044 16.4308273,12.4697321 16.7905694,12.5896461 L18.8530694,13.2771461 C19.0057048,13.3280246 19.3203476,13.3284775 19.4743416,13.2771461 L21.5368416,12.5896461 C21.8942668,12.4705044 22.4308273,12.4697321 22.7905694,12.5896461 L24.8530694,13.2771461 C25.2139431,13.3974374 25.2139431,13.3974374 25.3218194,13.4333961 Z M25.3218194,10.9333961 L25.7961611,11.09151 L25.4799333,12.0401933 L25.0055916,11.8820794 C24.8977153,11.8461207 24.8977153,11.8461207 24.5368416,11.7258294 L22.4743416,11.0383294 C22.3203476,10.9869981 22.0057048,10.987451 21.8530694,11.0383294 L19.7905694,11.7258294 C19.4308273,11.8457435 18.8942668,11.8449712 18.5368416,11.7258294 L16.4743416,11.0383294 C16.3203476,10.9869981 16.0057048,10.987451 15.8530694,11.0383294 L13.7905694,11.7258294 C13.4308273,11.8457435 12.8942668,11.8449712 12.5368416,11.7258294 L10.4743416,11.0383294 C10.3203476,10.9869981 10.0057048,10.987451 9.85306942,11.0383294 L7.79056942,11.7258294 C7.43082734,11.8457435 6.89426681,11.8449712 6.53684165,11.7258294 L4.47434165,11.0383294 C4.32034758,10.9869981 4.00570482,10.987451 3.85306942,11.0383294 L1.79056942,11.7258294 L1.31622777,11.8839433 L1,10.93526 L1.47434165,10.7771461 L3.53684165,10.0896461 C3.89426681,9.97050442 4.43082734,9.96973211 4.79056942,10.0896461 L6.85306942,10.7771461 C7.00570482,10.8280246 7.32034758,10.8284775 7.47434165,10.7771461 L9.53684165,10.0896461 C9.89426681,9.97050442 10.4308273,9.96973211 10.7905694,10.0896461 L12.8530694,10.7771461 C13.0057048,10.8280246 13.3203476,10.8284775 13.4743416,10.7771461 L15.5368416,10.0896461 C15.8942668,9.97050442 16.4308273,9.96973211 16.7905694,10.0896461 L18.8530694,10.7771461 C19.0057048,10.8280246 19.3203476,10.8284775 19.4743416,10.7771461 L21.5368416,10.0896461 C21.8942668,9.97050442 22.4308273,9.96973211 22.7905694,10.0896461 L24.8530694,10.7771461 C25.2139431,10.8974374 25.2139431,10.8974374 25.3218194,10.9333961 Z" id="Combined-Shape" fill="#FFFFFF" fill-rule="nonzero"></path>
            </g>
        </g>
    </g>
</svg>