<?xml version="1.0" encoding="UTF-8"?>
<svg width="21px" height="15px" viewBox="0 0 21 15" version="1.1" xmlns="http://www.w3.org/2000/svg" xmlns:xlink="http://www.w3.org/1999/xlink">
    <!-- Generator: sketchtool 46 (44423) - http://www.bohemiancoding.com/sketch -->
    <title>KP</title>
    <desc>Created with sketchtool.</desc>
    <defs>
        <linearGradient x1="50%" y1="0%" x2="50%" y2="100%" id="linearGradient-1">
            <stop stop-color="#FFFFFF" offset="0%"></stop>
            <stop stop-color="#F0F0F0" offset="100%"></stop>
        </linearGradient>
        <linearGradient x1="50%" y1="0%" x2="50%" y2="100%" id="linearGradient-2">
            <stop stop-color="#1461B6" offset="0%"></stop>
            <stop stop-color="#0B52A1" offset="100%"></stop>
        </linearGradient>
        <linearGradient x1="50%" y1="0%" x2="50%" y2="100%" id="linearGradient-3">
            <stop stop-color="#F53846" offset="0%"></stop>
            <stop stop-color="#EB2130" offset="100%"></stop>
        </linearGradient>
    </defs>
    <g id="Symbols" stroke="none" stroke-width="1" fill="none" fill-rule="evenodd">
        <g id="KP">
            <rect id="FlagBackground" fill="url(#linearGradient-1)" x="0" y="0" width="21" height="15"></rect>
            <rect id="Rectangle-2" fill="url(#linearGradient-2)" x="0" y="0" width="21" height="3"></rect>
            <rect id="Rectangle-2" fill="url(#linearGradient-2)" x="0" y="12" width="21" height="3"></rect>
            <rect id="Rectangle-2" fill="url(#linearGradient-1)" x="0" y="3" width="21" height="9"></rect>
            <rect id="Rectangle-2-Copy-4" fill="url(#linearGradient-3)" x="0" y="4" width="21" height="7"></rect>
            <path d="M7.5,10 C6.11928813,10 5,8.88071187 5,7.5 C5,6.11928813 6.11928813,5 7.5,5 C8.88071187,5 10,6.11928813 10,7.5 C10,8.88071187 8.88071187,10 7.5,10 Z M7.5,8.50318386 L8.96946313,9.52254249 L8.45408455,7.81000086 L9.87764129,6.72745751 L8.08965668,6.68840721 L7.5,5 L6.91034332,6.68840721 L5.12235871,6.72745751 L6.54591545,7.81000086 L6.03053687,9.52254249 L7.5,8.50318386 Z" id="Oval-12" fill="url(#linearGradient-1)"></path>
        </g>
    </g>
</svg>