<?xml version="1.0" encoding="UTF-8"?>
<svg width="21px" height="15px" viewBox="0 0 21 15" version="1.1" xmlns="http://www.w3.org/2000/svg" xmlns:xlink="http://www.w3.org/1999/xlink">
    <!-- Generator: sketchtool 46 (44423) - http://www.bohemiancoding.com/sketch -->
    <title>MA</title>
    <desc>Created with sketchtool.</desc>
    <defs>
        <linearGradient x1="50%" y1="0%" x2="50%" y2="100%" id="linearGradient-1">
            <stop stop-color="#FFFFFF" offset="0%"></stop>
            <stop stop-color="#F0F0F0" offset="100%"></stop>
        </linearGradient>
        <linearGradient x1="50%" y1="0%" x2="50%" y2="100%" id="linearGradient-2">
            <stop stop-color="#E33B44" offset="0%"></stop>
            <stop stop-color="#C02A32" offset="100%"></stop>
        </linearGradient>
    </defs>
    <g id="Symbols" stroke="none" stroke-width="1" fill="none" fill-rule="evenodd">
        <g id="MA">
            <rect id="FlagBackground" fill="url(#linearGradient-1)" x="0" y="0" width="21" height="15"></rect>
            <rect id="Mask-Copy" fill="url(#linearGradient-2)" x="0" y="0" width="21" height="15"></rect>
            <path d="M10.5,9.25500007 L7.85496636,11.1405765 L8.83089575,8.04232485 L6.22024568,6.10942353 L9.46843684,6.08017512 L10.5,3 L11.5315632,6.08017512 L14.7797543,6.10942353 L12.1691043,8.04232485 L13.1450336,11.1405765 L10.5,9.25500007 Z M10.5,8.02691631 L11.2941375,8.5930365 L11.0011272,7.6628261 L11.7849415,7.08249721 L10.8097136,7.07371575 L10.5,6.14893259 L10.1902864,7.07371575 L9.21505853,7.08249721 L9.99887281,7.6628261 L9.7058625,8.5930365 L10.5,8.02691631 Z" id="Star-8" fill="#0A6135" fill-rule="nonzero"></path>
        </g>
    </g>
</svg>