<?xml version="1.0" encoding="UTF-8"?>
<svg width="21px" height="15px" viewBox="0 0 21 15" version="1.1" xmlns="http://www.w3.org/2000/svg" xmlns:xlink="http://www.w3.org/1999/xlink">
    <!-- Generator: sketchtool 46 (44423) - http://www.bohemiancoding.com/sketch -->
    <title>MV</title>
    <desc>Created with sketchtool.</desc>
    <defs>
        <linearGradient x1="50%" y1="0%" x2="50%" y2="100%" id="linearGradient-1">
            <stop stop-color="#FFFFFF" offset="0%"></stop>
            <stop stop-color="#F0F0F0" offset="100%"></stop>
        </linearGradient>
        <linearGradient x1="50%" y1="0%" x2="50%" y2="100%" id="linearGradient-2">
            <stop stop-color="#F32249" offset="0%"></stop>
            <stop stop-color="#D01739" offset="100%"></stop>
        </linearGradient>
        <linearGradient x1="50%" y1="0%" x2="50%" y2="100%" id="linearGradient-3">
            <stop stop-color="#15A04F" offset="0%"></stop>
            <stop stop-color="#0F7E3D" offset="100%"></stop>
        </linearGradient>
    </defs>
    <g id="Symbols" stroke="none" stroke-width="1" fill="none" fill-rule="evenodd">
        <g id="MV">
            <rect id="FlagBackground" fill="url(#linearGradient-1)" x="0" y="0" width="21" height="15"></rect>
            <rect id="Mask-Copy" fill="url(#linearGradient-2)" x="0" y="0" width="21" height="15"></rect>
            <rect id="Rectangle-1568" fill="url(#linearGradient-3)" x="3" y="3" width="15" height="9" rx="0.5"></rect>
            <path d="M12.25,4.08054488 C12.008383,4.02779398 11.7574373,4 11.5,4 C9.56700338,4 8,5.56700338 8,7.5 C8,9.43299662 9.56700338,11 11.5,11 C11.7574373,11 12.008383,10.972206 12.25,10.9194551 C10.677409,10.57612 9.5,9.17555931 9.5,7.5 C9.5,5.82444069 10.677409,4.42387999 12.25,4.08054488 Z" id="Oval-12" fill="url(#linearGradient-1)"></path>
        </g>
    </g>
</svg>