<?xml version="1.0" encoding="UTF-8"?>
<svg width="21px" height="15px" viewBox="0 0 21 15" version="1.1" xmlns="http://www.w3.org/2000/svg" xmlns:xlink="http://www.w3.org/1999/xlink">
    <!-- Generator: sketchtool 46 (44423) - http://www.bohemiancoding.com/sketch -->
    <title>MZ</title>
    <desc>Created with sketchtool.</desc>
    <defs>
        <linearGradient x1="50%" y1="0%" x2="50%" y2="100%" id="linearGradient-1">
            <stop stop-color="#FFFFFF" offset="0%"></stop>
            <stop stop-color="#F0F0F0" offset="100%"></stop>
        </linearGradient>
        <linearGradient x1="50%" y1="0%" x2="50%" y2="100%" id="linearGradient-2">
            <stop stop-color="#FFE547" offset="0%"></stop>
            <stop stop-color="#FCE032" offset="100%"></stop>
        </linearGradient>
        <linearGradient x1="50%" y1="0%" x2="50%" y2="100%" id="linearGradient-3">
            <stop stop-color="#118C81" offset="0%"></stop>
            <stop stop-color="#0D7168" offset="100%"></stop>
        </linearGradient>
        <linearGradient x1="50%" y1="0%" x2="50%" y2="100%" id="linearGradient-4">
            <stop stop-color="#262626" offset="0%"></stop>
            <stop stop-color="#0D0D0D" offset="100%"></stop>
        </linearGradient>
        <linearGradient x1="50%" y1="0%" x2="50%" y2="100%" id="linearGradient-5">
            <stop stop-color="#EF2147" offset="0%"></stop>
            <stop stop-color="#D01739" offset="100%"></stop>
        </linearGradient>
        <linearGradient x1="50%" y1="0%" x2="50%" y2="100%" id="linearGradient-6">
            <stop stop-color="#FDE444" offset="0%"></stop>
            <stop stop-color="#FCE032" offset="100%"></stop>
        </linearGradient>
    </defs>
    <g id="Symbols" stroke="none" stroke-width="1" fill="none" fill-rule="evenodd">
        <g id="MZ">
            <rect id="FlagBackground" fill="url(#linearGradient-1)" x="0" y="0" width="21" height="15"></rect>
            <rect id="Rectangle-2" fill="url(#linearGradient-2)" x="0" y="11" width="21" height="4"></rect>
            <rect id="Rectangle-2" fill="url(#linearGradient-3)" x="0" y="0" width="21" height="4"></rect>
            <rect id="Rectangle-2" fill="url(#linearGradient-1)" x="0" y="4" width="21" height="7"></rect>
            <rect id="Rectangle-2" fill="url(#linearGradient-4)" x="0" y="5" width="21" height="5"></rect>
            <polygon id="Rectangle-83" fill="url(#linearGradient-5)" points="0 0 10 7.5 0 15"></polygon>
            <polygon id="Star-27" fill="url(#linearGradient-6)" points="3.5 8.45555972 2.03053687 9.52254249 2.5912087 7.79528419 1.12235871 6.72745751 2.93833609 6.72693595 3.5 5 4.06166391 6.72693595 5.87764129 6.72745751 4.4087913 7.79528419 4.96946313 9.52254249"></polygon>
        </g>
    </g>
</svg>