<?xml version="1.0" encoding="UTF-8"?>
<svg width="21px" height="15px" viewBox="0 0 21 15" version="1.1" xmlns="http://www.w3.org/2000/svg" xmlns:xlink="http://www.w3.org/1999/xlink">
    <!-- Generator: sketchtool 46 (44423) - http://www.bohemiancoding.com/sketch -->
    <title>OM</title>
    <desc>Created with sketchtool.</desc>
    <defs>
        <linearGradient x1="50%" y1="0%" x2="50%" y2="100%" id="linearGradient-1">
            <stop stop-color="#FFFFFF" offset="0%"></stop>
            <stop stop-color="#F0F0F0" offset="100%"></stop>
        </linearGradient>
        <linearGradient x1="50%" y1="0%" x2="50%" y2="100%" id="linearGradient-2">
            <stop stop-color="#138E16" offset="0%"></stop>
            <stop stop-color="#0F7F12" offset="100%"></stop>
        </linearGradient>
        <linearGradient x1="50%" y1="0%" x2="50%" y2="100%" id="linearGradient-3">
            <stop stop-color="#ED2B35" offset="0%"></stop>
            <stop stop-color="#D91B25" offset="100%"></stop>
        </linearGradient>
    </defs>
    <g id="Symbols" stroke="none" stroke-width="1" fill="none" fill-rule="evenodd">
        <g id="OM">
            <rect id="FlagBackground" fill="url(#linearGradient-1)" x="0" y="0" width="21" height="15"></rect>
            <rect id="Rectangle-2" fill="url(#linearGradient-2)" x="0" y="10" width="21" height="5"></rect>
            <polygon id="Rectangle-2" fill="url(#linearGradient-3)" points="0 15 7 15 7 10 21 10 21 5 7 5 7 0 0 0"></polygon>
            <polygon id="Star-32" fill="url(#linearGradient-1)" points="3.5 3.53381849 2.63223252 4.80193774 3.0826439 3.33283039 1.55014418 3.44504187 2.97956545 2.88121421 1.93633704 1.7530204 3.26838484 2.51904616 3.5 1 3.73161516 2.51904616 5.06366296 1.7530204 4.02043455 2.88121421 5.44985582 3.44504187 3.9173561 3.33283039 4.36776748 4.80193774"></polygon>
            <rect id="Rectangle-2" fill="url(#linearGradient-1)" x="7" y="0" width="14" height="5"></rect>
        </g>
    </g>
</svg>