<?xml version="1.0" encoding="UTF-8"?>
<svg width="21px" height="15px" viewBox="0 0 21 15" version="1.1" xmlns="http://www.w3.org/2000/svg" xmlns:xlink="http://www.w3.org/1999/xlink">
    <!-- Generator: sketchtool 46 (44423) - http://www.bohemiancoding.com/sketch -->
    <title>PA</title>
    <desc>Created with sketchtool.</desc>
    <defs>
        <linearGradient x1="50%" y1="0%" x2="50%" y2="100%" id="linearGradient-1">
            <stop stop-color="#FFFFFF" offset="0%"></stop>
            <stop stop-color="#F0F0F0" offset="100%"></stop>
        </linearGradient>
        <linearGradient x1="50%" y1="0%" x2="50%" y2="100%" id="linearGradient-2">
            <stop stop-color="#E52448" offset="0%"></stop>
            <stop stop-color="#D01739" offset="100%"></stop>
        </linearGradient>
        <linearGradient x1="50%" y1="0%" x2="50%" y2="100%" id="linearGradient-3">
            <stop stop-color="#1367AE" offset="0%"></stop>
            <stop stop-color="#0A5492" offset="100%"></stop>
        </linearGradient>
    </defs>
    <g id="Symbols" stroke="none" stroke-width="1" fill="none" fill-rule="evenodd">
        <g id="PA">
            <rect id="FlagBackground" fill="url(#linearGradient-1)" x="0" y="0" width="21" height="15"></rect>
            <rect id="Rectangle-2" fill="url(#linearGradient-2)" x="0" y="0" width="21" height="7"></rect>
            <rect id="Rectangle-2" fill="url(#linearGradient-3)" x="0" y="7" width="21" height="8"></rect>
            <path d="M0,7 L0,0 L10,0 L10,7 L0,7 Z M10,15 L10,7 L21,7 L21,15 L10,15 Z" id="Rectangle-2" fill="url(#linearGradient-1)"></path>
            <polygon id="Star-33" fill="url(#linearGradient-3)" points="5 4.31999999 3.8244295 5.11803399 4.22013366 3.75339393 3.09788697 2.88196601 4.5180161 2.83660607 5 1.5 5.4819839 2.83660607 6.90211303 2.88196601 5.77986634 3.75339393 6.1755705 5.11803399"></polygon>
            <polygon id="Star-33" fill="url(#linearGradient-2)" points="15.5 11.82 14.3244295 12.618034 14.7201337 11.2533939 13.597887 10.381966 15.0180161 10.3366061 15.5 9 15.9819839 10.3366061 17.402113 10.381966 16.2798663 11.2533939 16.6755705 12.618034"></polygon>
        </g>
    </g>
</svg>