<?xml version="1.0" encoding="UTF-8"?>
<svg width="21px" height="15px" viewBox="0 0 21 15" version="1.1" xmlns="http://www.w3.org/2000/svg" xmlns:xlink="http://www.w3.org/1999/xlink">
    <!-- Generator: sketchtool 46 (44423) - http://www.bohemiancoding.com/sketch -->
    <title>SI</title>
    <desc>Created with sketchtool.</desc>
    <defs>
        <linearGradient x1="50%" y1="0%" x2="50%" y2="100%" id="linearGradient-1">
            <stop stop-color="#FFFFFF" offset="0%"></stop>
            <stop stop-color="#F0F0F0" offset="100%"></stop>
        </linearGradient>
        <linearGradient x1="50%" y1="0%" x2="50%" y2="100%" id="linearGradient-2">
            <stop stop-color="#0C47B7" offset="0%"></stop>
            <stop stop-color="#073DA4" offset="100%"></stop>
        </linearGradient>
        <linearGradient x1="50%" y1="0%" x2="50%" y2="100%" id="linearGradient-3">
            <stop stop-color="#E53B35" offset="0%"></stop>
            <stop stop-color="#D32E28" offset="100%"></stop>
        </linearGradient>
    </defs>
    <g id="Symbols" stroke="none" stroke-width="1" fill="none" fill-rule="evenodd">
        <g id="SI">
            <rect id="FlagBackground" fill="url(#linearGradient-1)" x="0" y="0" width="21" height="15"></rect>
            <rect id="Rectangle-2" fill="url(#linearGradient-2)" x="0" y="3" width="21" height="7"></rect>
            <rect id="Rectangle-2" fill="url(#linearGradient-3)" x="0" y="10" width="21" height="5"></rect>
            <path d="M0,5 L0,0 L21,0 L21,5 L6.9329834,5 L6.9329834,4 C6.9329834,4 6.22775438,3.5 5.5,3.5 C4.77224562,3.5 4,4 4,4 L4,5 L0,5 Z M5.5,7 C4.94771525,7 4.5,6.55228475 4.5,6 C4.5,5.44771525 4.94771525,5 5.5,5 C6.05228475,5 6.5,5.44771525 6.5,6 C6.5,6.55228475 6.05228475,7 5.5,7 Z" id="Rectangle-2" fill="url(#linearGradient-1)"></path>
        </g>
    </g>
</svg>