<?xml version="1.0" encoding="UTF-8"?>
<svg width="21px" height="15px" viewBox="0 0 21 15" version="1.1" xmlns="http://www.w3.org/2000/svg" xmlns:xlink="http://www.w3.org/1999/xlink">
    <!-- Generator: sketchtool 46 (44423) - http://www.bohemiancoding.com/sketch -->
    <title>SS</title>
    <desc>Created with sketchtool.</desc>
    <defs>
        <linearGradient x1="50%" y1="0%" x2="50%" y2="100%" id="linearGradient-1">
            <stop stop-color="#FFFFFF" offset="0%"></stop>
            <stop stop-color="#F0F0F0" offset="100%"></stop>
        </linearGradient>
        <linearGradient x1="50%" y1="0%" x2="50%" y2="100%" id="linearGradient-2">
            <stop stop-color="#262626" offset="0%"></stop>
            <stop stop-color="#0D0D0D" offset="100%"></stop>
        </linearGradient>
        <linearGradient x1="50%" y1="0%" x2="50%" y2="100%" id="linearGradient-3">
            <stop stop-color="#E22A32" offset="0%"></stop>
            <stop stop-color="#D61C24" offset="100%"></stop>
        </linearGradient>
        <linearGradient x1="50%" y1="0%" x2="50%" y2="100%" id="linearGradient-4">
            <stop stop-color="#2CA244" offset="0%"></stop>
            <stop stop-color="#218736" offset="100%"></stop>
        </linearGradient>
        <linearGradient x1="50%" y1="0%" x2="50%" y2="100%" id="linearGradient-5">
            <stop stop-color="#185AC6" offset="0%"></stop>
            <stop stop-color="#104CAD" offset="100%"></stop>
        </linearGradient>
        <linearGradient x1="50%" y1="0%" x2="50%" y2="100%" id="linearGradient-6">
            <stop stop-color="#FDE14A" offset="0%"></stop>
            <stop stop-color="#FCDC34" offset="100%"></stop>
        </linearGradient>
    </defs>
    <g id="Symbols" stroke="none" stroke-width="1" fill="none" fill-rule="evenodd">
        <g id="SS">
            <rect id="FlagBackground" fill="url(#linearGradient-1)" x="0" y="0" width="21" height="15"></rect>
            <rect id="Rectangle-2" fill="url(#linearGradient-2)" x="0" y="0" width="21" height="4"></rect>
            <rect id="Rectangle-2" fill="url(#linearGradient-3)" x="0" y="5" width="21" height="5"></rect>
            <rect id="Rectangle-2" fill="url(#linearGradient-1)" x="0" y="4" width="21" height="1"></rect>
            <rect id="Rectangle-2" fill="url(#linearGradient-4)" x="0" y="11" width="21" height="4"></rect>
            <rect id="Rectangle-2" fill="url(#linearGradient-1)" x="0" y="10" width="21" height="1"></rect>
            <polygon id="Rectangle-83" fill="url(#linearGradient-5)" points="0 0 10 7.5 0 15"></polygon>
            <polygon id="Star-53" fill="url(#linearGradient-6)" points="3.8362378 7.98697775 3.15270364 9.2672036 2.94825467 7.83040236 1.51946386 7.57593429 2.82276483 6.93749577 2.62325771 5.5 3.63319098 6.54222453 4.9386796 5.90827135 4.25955172 7.19084006 5.26589519 8.23653122"></polygon>
        </g>
    </g>
</svg>