<?xml version="1.0" encoding="UTF-8"?>
<svg width="21px" height="15px" viewBox="0 0 21 15" version="1.1" xmlns="http://www.w3.org/2000/svg" xmlns:xlink="http://www.w3.org/1999/xlink">
    <!-- Generator: sketchtool 46 (44423) - http://www.bohemiancoding.com/sketch -->
    <title>ST</title>
    <desc>Created with sketchtool.</desc>
    <defs>
        <linearGradient x1="50%" y1="0%" x2="50%" y2="100%" id="linearGradient-1">
            <stop stop-color="#FFFFFF" offset="0%"></stop>
            <stop stop-color="#F0F0F0" offset="100%"></stop>
        </linearGradient>
        <linearGradient x1="50%" y1="0%" x2="50%" y2="100%" id="linearGradient-2">
            <stop stop-color="#2ACB41" offset="0%"></stop>
            <stop stop-color="#21AC35" offset="100%"></stop>
        </linearGradient>
        <linearGradient x1="50%" y1="0%" x2="50%" y2="100%" id="linearGradient-3">
            <stop stop-color="#FDD043" offset="0%"></stop>
            <stop stop-color="#FFCD2F" offset="100%"></stop>
        </linearGradient>
        <linearGradient x1="50%" y1="0%" x2="50%" y2="100%" id="linearGradient-4">
            <stop stop-color="#E71E43" offset="0%"></stop>
            <stop stop-color="#D01739" offset="100%"></stop>
        </linearGradient>
        <linearGradient x1="50%" y1="0%" x2="50%" y2="100%" id="linearGradient-5">
            <stop stop-color="#262626" offset="0%"></stop>
            <stop stop-color="#0D0D0D" offset="100%"></stop>
        </linearGradient>
    </defs>
    <g id="Symbols" stroke="none" stroke-width="1" fill="none" fill-rule="evenodd">
        <g id="ST">
            <rect id="FlagBackground" fill="url(#linearGradient-1)" x="0" y="0" width="21" height="15"></rect>
            <rect id="Rectangle-2" fill="url(#linearGradient-2)" x="0" y="10" width="21" height="5"></rect>
            <rect id="Rectangle-2" fill="url(#linearGradient-2)" x="0" y="0" width="21" height="5"></rect>
            <rect id="Rectangle-2" fill="url(#linearGradient-3)" x="0" y="5" width="21" height="5"></rect>
            <polygon id="Rectangle-83" fill="url(#linearGradient-4)" points="0 0 8 7.5 0 15"></polygon>
            <polygon id="Star-33" fill="url(#linearGradient-5)" points="11 8.31999999 9.8244295 9.11803399 10.2201337 7.75339393 9.09788697 6.88196601 10.5180161 6.83660607 11 5.5 11.4819839 6.83660607 12.902113 6.88196601 11.7798663 7.75339393 12.1755705 9.11803399"></polygon>
            <polygon id="Star-33" fill="url(#linearGradient-5)" points="16 8.31999999 14.8244295 9.11803399 15.2201337 7.75339393 14.097887 6.88196601 15.5180161 6.83660607 16 5.5 16.4819839 6.83660607 17.902113 6.88196601 16.7798663 7.75339393 17.1755705 9.11803399"></polygon>
        </g>
    </g>
</svg>