<?xml version="1.0" encoding="UTF-8"?>
<svg width="21px" height="15px" viewBox="0 0 21 15" version="1.1" xmlns="http://www.w3.org/2000/svg" xmlns:xlink="http://www.w3.org/1999/xlink">
    <!-- Generator: sketchtool 46 (44423) - http://www.bohemiancoding.com/sketch -->
    <title>SV</title>
    <desc>Created with sketchtool.</desc>
    <defs>
        <linearGradient x1="50%" y1="0%" x2="50%" y2="100%" id="linearGradient-1">
            <stop stop-color="#FFFFFF" offset="0%"></stop>
            <stop stop-color="#F0F0F0" offset="100%"></stop>
        </linearGradient>
        <linearGradient x1="50%" y1="0%" x2="50%" y2="100%" id="linearGradient-2">
            <stop stop-color="#1B57C4" offset="0%"></stop>
            <stop stop-color="#154BAD" offset="100%"></stop>
        </linearGradient>
        <linearGradient x1="50%" y1="0%" x2="50%" y2="100%" id="linearGradient-3">
            <stop stop-color="#3C7839" offset="0%"></stop>
            <stop stop-color="#31642E" offset="100%"></stop>
        </linearGradient>
    </defs>
    <g id="Symbols" stroke="none" stroke-width="1" fill="none" fill-rule="evenodd">
        <g id="SV">
            <rect id="FlagBackground" fill="url(#linearGradient-1)" x="0" y="0" width="21" height="15"></rect>
            <rect id="Rectangle-2" fill="url(#linearGradient-2)" x="0" y="0" width="21" height="5"></rect>
            <rect id="Rectangle-2" fill="url(#linearGradient-2)" x="0" y="10" width="21" height="5"></rect>
            <rect id="Rectangle-2-Copy-4" fill="url(#linearGradient-1)" x="0" y="5" width="21" height="5"></rect>
            <path d="M9.29996095,5.89988286 C8.81420448,6.26476719 8.5,6.8456904 8.5,7.5 C8.5,8.6045695 9.3954305,9.5 10.5,9.5 C11.6045695,9.5 12.5,8.6045695 12.5,7.5 C12.5,6.8456904 12.1857955,6.26476719 11.700039,5.89988286 L11,8 L10,8 L9.29996095,5.89988286 Z" id="Oval-12" fill="url(#linearGradient-3)"></path>
            <polygon id="Rectangle-483" fill="#F9C92E" points="10.5 5.5 11 8 10 8"></polygon>
        </g>
    </g>
</svg>