<?xml version="1.0" encoding="UTF-8"?>
<svg width="21px" height="15px" viewBox="0 0 21 15" version="1.1" xmlns="http://www.w3.org/2000/svg" xmlns:xlink="http://www.w3.org/1999/xlink">
    <!-- Generator: sketchtool 46 (44423) - http://www.bohemiancoding.com/sketch -->
    <title>TW</title>
    <desc>Created with sketchtool.</desc>
    <defs>
        <linearGradient x1="50%" y1="0%" x2="50%" y2="100%" id="linearGradient-1">
            <stop stop-color="#FFFFFF" offset="0%"></stop>
            <stop stop-color="#F0F0F0" offset="100%"></stop>
        </linearGradient>
        <linearGradient x1="50%" y1="0%" x2="50%" y2="93.7672335%" id="linearGradient-2">
            <stop stop-color="#FE3030" offset="0%"></stop>
            <stop stop-color="#FF0000" offset="100%"></stop>
        </linearGradient>
        <linearGradient x1="50%" y1="0%" x2="50%" y2="100%" id="linearGradient-3">
            <stop stop-color="#0909B6" offset="0%"></stop>
            <stop stop-color="#000096" offset="100%"></stop>
        </linearGradient>
    </defs>
    <g id="Symbols" stroke="none" stroke-width="1" fill="none" fill-rule="evenodd">
        <g id="TW">
            <rect id="FlagBackground" fill="url(#linearGradient-1)" x="0" y="0" width="21" height="15"></rect>
            <rect id="Rectangle-2" fill="url(#linearGradient-2)" x="0" y="0" width="21" height="15"></rect>
            <polygon id="Rectangle-2" fill="url(#linearGradient-3)" points="0 8 11 8 11 0 0 0"></polygon>
            <polygon id="Star-27" fill="url(#linearGradient-1)" points="5.5 5.25 4.54329142 6.30969883 4.61611652 4.88388348 3.19030117 4.95670858 4.25 4 3.19030117 3.04329142 4.61611652 3.11611652 4.54329142 1.69030117 5.5 2.75 6.45670858 1.69030117 6.38388348 3.11611652 7.80969883 3.04329142 6.75 4 7.80969883 4.95670858 6.38388348 4.88388348 6.45670858 6.30969883"></polygon>
        </g>
    </g>
</svg>