<?xml version="1.0" encoding="UTF-8"?>
<svg width="21px" height="15px" viewBox="0 0 21 15" version="1.1" xmlns="http://www.w3.org/2000/svg" xmlns:xlink="http://www.w3.org/1999/xlink">
    <!-- Generator: sketchtool 46 (44423) - http://www.bohemiancoding.com/sketch -->
    <title>VE</title>
    <desc>Created with sketchtool.</desc>
    <defs>
        <linearGradient x1="50%" y1="0%" x2="50%" y2="100%" id="linearGradient-1">
            <stop stop-color="#FFFFFF" offset="0%"></stop>
            <stop stop-color="#F0F0F0" offset="100%"></stop>
        </linearGradient>
        <linearGradient x1="50%" y1="0%" x2="50%" y2="100%" id="linearGradient-2">
            <stop stop-color="#063191" offset="0%"></stop>
            <stop stop-color="#03287C" offset="100%"></stop>
        </linearGradient>
        <linearGradient x1="50%" y1="0%" x2="50%" y2="100%" id="linearGradient-3">
            <stop stop-color="#E2213B" offset="0%"></stop>
            <stop stop-color="#CD1931" offset="100%"></stop>
        </linearGradient>
        <linearGradient x1="50%" y1="0%" x2="50%" y2="100%" id="linearGradient-4">
            <stop stop-color="#FFD044" offset="0%"></stop>
            <stop stop-color="#FFCB2F" offset="100%"></stop>
        </linearGradient>
    </defs>
    <g id="Symbols" stroke="none" stroke-width="1" fill="none" fill-rule="evenodd">
        <g id="VE">
            <rect id="FlagBackground" fill="url(#linearGradient-1)" x="0" y="0" width="21" height="15"></rect>
            <rect id="Rectangle-2-Copy-4" fill="url(#linearGradient-2)" x="0" y="5" width="21" height="5"></rect>
            <rect id="Rectangle-2" fill="url(#linearGradient-3)" x="0" y="10" width="21" height="5"></rect>
            <path d="M10.5,7 C10.2238576,7 10,6.77614237 10,6.5 C10,6.22385763 10.2238576,6 10.5,6 C10.7761424,6 11,6.22385763 11,6.5 C11,6.77614237 10.7761424,7 10.5,7 Z M8.5,7.5 C8.22385763,7.5 8,7.27614237 8,7 C8,6.72385763 8.22385763,6.5 8.5,6.5 C8.77614237,6.5 9,6.72385763 9,7 C9,7.27614237 8.77614237,7.5 8.5,7.5 Z M12.5,7.5 C12.2238576,7.5 12,7.27614237 12,7 C12,6.72385763 12.2238576,6.5 12.5,6.5 C12.7761424,6.5 13,6.72385763 13,7 C13,7.27614237 12.7761424,7.5 12.5,7.5 Z M7.5,9 C7.22385763,9 7,8.77614237 7,8.5 C7,8.22385763 7.22385763,8 7.5,8 C7.77614237,8 8,8.22385763 8,8.5 C8,8.77614237 7.77614237,9 7.5,9 Z M13.5,9 C13.2238576,9 13,8.77614237 13,8.5 C13,8.22385763 13.2238576,8 13.5,8 C13.7761424,8 14,8.22385763 14,8.5 C14,8.77614237 13.7761424,9 13.5,9 Z" id="Oval-61" fill="url(#linearGradient-1)"></path>
            <rect id="Rectangle-2" fill="url(#linearGradient-4)" x="0" y="0" width="21" height="5"></rect>
        </g>
    </g>
</svg>