<?xml version="1.0" encoding="UTF-8"?>
<svg width="21px" height="15px" viewBox="0 0 21 15" version="1.1" xmlns="http://www.w3.org/2000/svg" xmlns:xlink="http://www.w3.org/1999/xlink">
    <!-- Generator: sketchtool 46 (44423) - http://www.bohemiancoding.com/sketch -->
    <title>ZW</title>
    <desc>Created with sketchtool.</desc>
    <defs>
        <linearGradient x1="50%" y1="0%" x2="50%" y2="100%" id="linearGradient-1">
            <stop stop-color="#FFFFFF" offset="0%"></stop>
            <stop stop-color="#F0F0F0" offset="100%"></stop>
        </linearGradient>
        <linearGradient x1="50%" y1="0%" x2="50%" y2="100%" id="linearGradient-2">
            <stop stop-color="#369D0C" offset="0%"></stop>
            <stop stop-color="#319209" offset="100%"></stop>
        </linearGradient>
        <linearGradient x1="50%" y1="0%" x2="50%" y2="100%" id="linearGradient-3">
            <stop stop-color="#262626" offset="0%"></stop>
            <stop stop-color="#0D0D0D" offset="100%"></stop>
        </linearGradient>
        <linearGradient x1="50%" y1="0%" x2="50%" y2="100%" id="linearGradient-4">
            <stop stop-color="#FFD40E" offset="0%"></stop>
            <stop stop-color="#FFD201" offset="100%"></stop>
        </linearGradient>
        <linearGradient x1="50%" y1="0%" x2="50%" y2="100%" id="linearGradient-5">
            <stop stop-color="#F12F1F" offset="0%"></stop>
            <stop stop-color="#DE2010" offset="100%"></stop>
        </linearGradient>
    </defs>
    <g id="Symbols" stroke="none" stroke-width="1" fill="none" fill-rule="evenodd">
        <g id="ZW">
            <rect id="FlagBackground" fill="url(#linearGradient-1)" x="0" y="0" width="21" height="15"></rect>
            <rect id="Rectangle-2" fill="url(#linearGradient-2)" x="0" y="0" width="21" height="2"></rect>
            <rect id="Rectangle-2" fill="url(#linearGradient-2)" x="0" y="13" width="21" height="2"></rect>
            <rect id="Rectangle-2" fill="url(#linearGradient-2)" x="0" y="4" width="21" height="2"></rect>
            <rect id="Rectangle-2" fill="url(#linearGradient-2)" x="0" y="9" width="21" height="2"></rect>
            <rect id="Rectangle-2" fill="url(#linearGradient-3)" x="0" y="6" width="21" height="3"></rect>
            <rect id="Rectangle-2" fill="url(#linearGradient-4)" x="0" y="2" width="21" height="2"></rect>
            <rect id="Rectangle-2" fill="url(#linearGradient-4)" x="0" y="11" width="21" height="2"></rect>
            <polygon id="Rectangle-83" fill="url(#linearGradient-3)" fill-rule="nonzero" points="-1 15 -1 0 0 0 10 7.5 0 15"></polygon>
            <polygon id="Rectangle-83" fill="url(#linearGradient-1)" fill-rule="nonzero" points="0 13.75 8.33333333 7.5 6.66133815e-16 1.25"></polygon>
            <polygon id="Star-8" fill="url(#linearGradient-5)" points="3 8.47500004 1.53053687 9.52254249 2.07271986 7.80129158 0.622358709 6.72745751 2.42690936 6.7112084 3 5 3.57309064 6.7112084 5.37764129 6.72745751 3.92728014 7.80129158 4.46946313 9.52254249"></polygon>
        </g>
    </g>
</svg>