<svg xmlns="http://www.w3.org/2000/svg" width="200" height="90" viewBox="0 0 200 90">
    <g fill="none" fill-rule="evenodd" transform="translate(48)">
        <path fill="#000" fill-rule="nonzero" d="M32.624 72.844a4.275 4.275 0 0 0-2.636-3.966 4.31 4.31 0 0 0-4.689.912 4.26 4.26 0 0 0-.941 4.662 4.296 4.296 0 0 0 3.97 2.644 4.103 4.103 0 0 0 3.094-1.18 4.062 4.062 0 0 0 1.202-3.072m-12.785 0c0-4.5 3.55-7.943 8.49-7.943s8.49 3.465 8.49 7.943c0 4.477-3.516 7.942-8.49 7.942s-8.49-3.465-8.49-7.942M13.102 73.665c0 1.856-1.888 3.375-4.296 3.375a4.025 4.025 0 0 1-3.19-1.11 3.983 3.983 0 0 1-1.207-3.143c0-2.486 1.797-4.162 4.634-4.162 2.194 0 4.115 1.541 4.115 3.285l-.056 1.755zm.17-8.764v1.778h-.057a6.802 6.802 0 0 0-5.03-1.778 7.954 7.954 0 0 0-6.849 4.013 7.876 7.876 0 0 0 .068 7.909 7.955 7.955 0 0 0 6.916 3.896 6.495 6.495 0 0 0 4.895-1.834h.056v1.53c0 2.059-1.774 3.566-4.114 3.566a6.507 6.507 0 0 1-4.94-1.8L1.48 84.814a10.495 10.495 0 0 0 7.755 3.049c4.804 0 8.094-3.218 8.094-7.504V64.9H13.27zM38.943 76.297c0-2.778 1.82-4.252 6.614-4.904 2.814-.406 3.583-.8 3.583-1.53 0-.99-1.051-1.587-2.668-1.587a3.582 3.582 0 0 0-3.753 2.689l-3.979-.821c.6-3.117 3.697-5.243 7.608-5.243 4.409 0 7.133 2.25 7.133 5.895v9.551h-3.742V78.75a6.221 6.221 0 0 1-5.087 2.07c-3.436-.045-5.709-1.867-5.709-4.522zm10.536-1.53V72.98c-.373.54-1.13.844-3.21 1.215-2.476.45-3.392.933-3.392 1.811 0 .877.735 1.305 2.33 1.305 2.43 0 4.272-1.103 4.272-2.543zM55.889 73.912V65.33h4.205v7.965a3.298 3.298 0 0 0 .95 2.733 3.333 3.333 0 0 0 2.746.945 3.65 3.65 0 0 0 2.773-.98 3.614 3.614 0 0 0 1.139-2.698v-7.965h4.205v15.019h-4.08V78.93a7.165 7.165 0 0 1-5.088 1.845c-4.318 0-6.85-2.531-6.85-6.863zM81.222 68.895v6.345c0 .945.305 1.226 1.526 1.226h2.758v3.882H82.33c-3.833 0-5.313-1.53-5.313-4.85v-6.603h-3.539v-3.566h3.55V61.56h4.205v3.769h4.85v3.566h-4.861zM86.93 72.832c0-4.5 3.55-7.874 8.49-7.874s8.49 3.453 8.49 7.874c0 4.422-3.527 7.943-8.49 7.943s-8.49-3.465-8.49-7.943zm12.774 0a4.275 4.275 0 0 0-2.638-3.966 4.31 4.31 0 0 0-4.69.917 4.26 4.26 0 0 0-.935 4.666 4.296 4.296 0 0 0 3.979 2.636 4.092 4.092 0 0 0 3.09-1.18 4.05 4.05 0 0 0 1.194-3.073z"/>
        <ellipse cx="52.463" cy="27.067" fill="#F06400" fill-rule="nonzero" rx="27.13" ry="27"/>
        <path fill="#FFF" d="M66.198 29.374a2.348 2.348 0 0 1-.972-1.935v-.698a2.246 2.246 0 0 1 .927-1.89l.475-.36c.845-.62 1.15-1.74.735-2.7a15.343 15.343 0 0 0-2.59-4.241 2.597 2.597 0 0 0-2.893-.675l-.396.157a2.577 2.577 0 0 1-2.26-.134c-.215-.136-.441-.248-.656-.36a2.43 2.43 0 0 1-1.311-1.8v-.45a2.425 2.425 0 0 0-2.092-2.048c-1.763-.24-3.55-.24-5.313 0a2.436 2.436 0 0 0-2.091 2.047v.45a2.398 2.398 0 0 1-1.413 1.8c-.215.113-.452.226-.667.36a2.554 2.554 0 0 1-2.261.136l-.373-.158a2.597 2.597 0 0 0-2.894.675 15.343 15.343 0 0 0-2.589 4.241 2.3 2.3 0 0 0 .746 2.7l.464.36c.604.439.951 1.146.927 1.89v.698a2.314 2.314 0 0 1-.972 1.935l-.373.27a2.3 2.3 0 0 0-.792 2.733c.63 1.55 1.521 2.98 2.634 4.23.702.8 1.83 1.078 2.826.698l.453-.18a2.611 2.611 0 0 1 2.26.18c.223.14.453.268.69.383a2.352 2.352 0 0 1 1.3 1.777v.382a2.436 2.436 0 0 0 2.091 2.026c1.762.254 3.552.254 5.313 0a2.425 2.425 0 0 0 2.092-2.026v-.382c.12-.77.61-1.432 1.31-1.778a5.58 5.58 0 0 0 .68-.382 2.645 2.645 0 0 1 2.26-.18l.44.18c.997.38 2.125.102 2.827-.697a14.456 14.456 0 0 0 2.634-4.23 2.244 2.244 0 0 0-.78-2.734l-.396-.27zm-13.78 3.69c-3.328-.025-6.008-2.726-5.991-6.038.017-3.311 2.723-5.985 6.051-5.977 3.328.008 6.022 2.695 6.022 6.007a6.016 6.016 0 0 1-1.79 4.258 6.074 6.074 0 0 1-4.292 1.75z"/>
        <ellipse cx="52.463" cy="27.056" fill="#FFF" fill-rule="nonzero" rx="3.041" ry="3.004"/>
        <path d="M0 0h104v90H0z"/>
    </g>
</svg>
