<svg xmlns="http://www.w3.org/2000/svg" width="200" height="90" viewBox="0 0 200 90">
    <g fill="none" fill-rule="nonzero" transform="translate(47)">
        <path fill="#000" d="M33.069 73.89a4.275 4.275 0 0 0-2.627-3.966 4.284 4.284 0 0 0-4.672.913 4.271 4.271 0 0 0-.938 4.661 4.28 4.28 0 0 0 3.957 2.644 4.069 4.069 0 0 0 3.086-1.176 4.059 4.059 0 0 0 1.194-3.076m-12.739 0c0-4.5 3.537-7.942 8.459-7.942s8.47 3.465 8.47 7.942c0 4.478-3.47 7.942-8.47 7.942-5.001 0-8.459-3.464-8.459-7.942M13.617 74.711c0 1.856-1.88 3.375-4.269 3.375a4.001 4.001 0 0 1-3.186-1.105 3.991 3.991 0 0 1-1.206-3.147c0-2.453 1.802-4.14 4.505-4.14 2.253 0 4.1 1.541 4.1 3.285l.056 1.732zm.17-8.763v1.766a6.83 6.83 0 0 0-5.013-1.766 7.886 7.886 0 0 0-6.791 4 7.867 7.867 0 0 0 .073 7.875 7.886 7.886 0 0 0 6.864 3.875 6.424 6.424 0 0 0 4.866-1.823v1.53c0 2.059-1.768 3.566-4.1 3.566a6.425 6.425 0 0 1-4.91-1.721L2.05 85.871a10.414 10.414 0 0 0 7.726 3.004c4.787 0 8.054-3.218 8.054-7.493V65.948h-4.044z"/>
        <path fill="#231F20" d="M42.08 69.941h-3.594v-3.566h3.593v-1.541c0-2.633 1.847-4.253 4.922-4.253h3.942v3.6h-3.379c-.822 0-1.25.405-1.25 1.125v1.069h5.632v3.578h-5.632v11.43h-4.19L42.08 69.94zM52.013 73.879c0-4.5 3.537-7.875 8.459-7.875s8.459 3.453 8.459 7.875c0 4.421-3.515 7.875-8.46 7.875-4.944 0-8.458-3.398-8.458-7.875zm12.728 0a4.264 4.264 0 0 0-2.628-3.947 4.272 4.272 0 0 0-4.656.917 4.26 4.26 0 0 0-.93 4.648 4.269 4.269 0 0 0 3.945 2.634 4.069 4.069 0 0 0 3.079-1.18 4.059 4.059 0 0 0 1.19-3.072zM70.597 73.879c0-4.5 3.537-7.875 8.46-7.875 4.921 0 8.458 3.453 8.458 7.875 0 4.421-3.503 7.875-8.459 7.875-4.956 0-8.459-3.398-8.459-7.875zm12.728 0a4.264 4.264 0 0 0-2.628-3.947 4.272 4.272 0 0 0-4.655.917 4.26 4.26 0 0 0-.93 4.648 4.269 4.269 0 0 0 3.944 2.634 4.069 4.069 0 0 0 3.094-1.171 4.059 4.059 0 0 0 1.197-3.081h-.022zM89.182 73.879a7.77 7.77 0 0 1 2.322-5.644 7.788 7.788 0 0 1 5.686-2.231 7.203 7.203 0 0 1 4.865 1.608V60.75h4.19v20.632h-3.874v-1.507h-.056a6.66 6.66 0 0 1-5.069 1.89 7.72 7.72 0 0 1-5.749-2.192 7.702 7.702 0 0 1-2.315-5.694zm12.93.9v-1.89c0-1.789-1.949-3.263-4.269-3.263a4.159 4.159 0 0 0-3.205 1.12 4.149 4.149 0 0 0-1.3 3.133 4.081 4.081 0 0 0 1.289 3.136 4.092 4.092 0 0 0 3.216 1.082c2.4 0 4.269-1.473 4.269-3.318z"/>
        <ellipse cx="54.367" cy="28.102" fill="#EE2737" rx="27.032" ry="27"/>
        <path fill="#FFF" d="M53.556 25.965a49.376 49.376 0 0 0-.62-9.878 1.957 1.957 0 0 0-2.252-1.698 2.059 2.059 0 0 0-1.6 2.385c.38 2.108.565 4.247.553 6.39a1.328 1.328 0 0 1-2.658 0v-7.875a2.127 2.127 0 0 0-1.622-2.149 1.995 1.995 0 0 0-2.253 2.036v7.999c.013.76-.59 1.388-1.351 1.406a1.364 1.364 0 0 1-1.318-1.417 35.06 35.06 0 0 1 .54-6.39 2.059 2.059 0 0 0-1.554-2.385 1.95 1.95 0 0 0-2.253 1.698 50.68 50.68 0 0 0-.608 9.214 9.2 9.2 0 0 0 4.179 7.594 4.162 4.162 0 0 1 1.96 3.285l.214 4.714c-.001 1.212.96 2.207 2.173 2.25a2.251 2.251 0 0 0 2.174-2.25l.214-4.5a4.06 4.06 0 0 1 2.005-3.252 8.705 8.705 0 0 0 4.077-7.177zM64.504 13.095c-5.147 0-7.726 7.785-7.726 12.926a8.075 8.075 0 0 0 3.57 6.604 3.87 3.87 0 0 1 1.746 3.004l.236 5.287c0 1.2.974 2.172 2.174 2.172s2.174-.973 2.174-2.172l.248-5.287a3.858 3.858 0 0 1 1.78-3.004 8.075 8.075 0 0 0 3.57-6.593c-.045-5.152-2.625-12.937-7.772-12.937z"/>
    </g>
</svg>
