<svg xmlns="http://www.w3.org/2000/svg" width="200" height="90" viewBox="0 0 200 90">
    <g fill="none" fill-rule="evenodd" transform="translate(46)">
        <path fill="#000" fill-rule="nonzero" d="M32.996 73.868a4.275 4.275 0 1 0-4.275 4.252 4.072 4.072 0 0 0 4.275-4.252m-12.746 0c0-4.5 3.532-7.943 8.449-7.943 4.916 0 8.426 3.454 8.426 7.943 0 4.488-3.499 7.875-8.449 7.875-4.95 0-8.426-3.398-8.426-7.875M13.568 74.689c0 1.845-1.88 3.375-4.275 3.375a3.994 3.994 0 0 1-4.377-4.253c0-2.452 1.789-4.129 4.556-4.129 2.183 0 4.096 1.542 4.096 3.274v1.733zm.168-8.775v1.777h-.056a6.84 6.84 0 0 0-5.006-1.766 7.903 7.903 0 1 0 .135 15.806 6.435 6.435 0 0 0 4.871-1.856h.056v1.53a3.769 3.769 0 0 1-4.095 3.566 6.413 6.413 0 0 1-4.916-1.721l-2.722 2.632a10.417 10.417 0 0 0 7.717 2.993c4.781 0 8.055-3.218 8.055-7.493V65.914h-4.039zM39.938 84.589l2.992-2.464a5.76 5.76 0 0 0 5.029 2.464A3.746 3.746 0 0 0 52.03 81v-1.125a6.356 6.356 0 0 1-4.837 1.811 7.875 7.875 0 1 1-.135-15.75 6.75 6.75 0 0 1 4.972 1.755v-1.316h4.005V81c0 4.252-3.375 7.2-8.077 7.2a9.675 9.675 0 0 1-8.022-3.611zm11.924-9.833v-1.755c0-1.732-1.9-3.262-4.072-3.262-2.745 0-4.5 1.676-4.5 4.117a3.96 3.96 0 0 0 4.354 4.219c2.351 0 4.218-1.474 4.218-3.319zM58.669 60.671h4.185V81.36h-4.185zM65.25 77.31c0-2.779 1.8-4.252 6.581-4.905 2.824-.405 3.544-.787 3.544-1.53 0-.99-1.046-1.586-2.655-1.586A3.544 3.544 0 0 0 69.041 72l-3.96-.821c.596-3.117 3.679-5.243 7.572-5.243 4.387 0 7.098 2.25 7.098 5.895v9.551h-3.757v-1.665a6.21 6.21 0 0 1-5.119 2.07c-3.375 0-5.625-1.81-5.625-4.477zm10.485-1.53v-1.789h-.067c-.36.54-1.126.855-3.184 1.215-2.464.462-3.375.945-3.375 1.823 0 .877.742 1.305 2.317 1.305 2.498 0 4.343-1.114 4.343-2.554h-.034zM82.429 66.375h3.678v1.44a6.502 6.502 0 0 1 9.35.236 6.514 6.514 0 0 1 4.893-2.103c4.039 0 6.829 2.632 6.829 6.468v9h-4.039v-8.325a3.229 3.229 0 1 0-6.435 0v8.325h-3.881v-8.325a3.24 3.24 0 1 0-6.469 0v8.325h-4.039l.113-15.041z"/>
        <circle cx="53.674" cy="28.08" r="27" fill="#F06400" fill-rule="nonzero"/>
        <path fill="#FFF" d="M52.931 36.866c-.31.027-.601.162-.821.383-.214.212-.483.36-.776.427a.653.653 0 0 1-.158 0v.056h.18c.41.19.79.44 1.125.743.383.283.853.423 1.328.394.492.046.984-.099 1.372-.405.302-.294.648-.541 1.024-.731h.18-.191a1.429 1.429 0 0 1-.765-.417 1.249 1.249 0 0 0-.81-.382.72.72 0 0 0-.416.146l-.372.248-.371-.248a.731.731 0 0 0-.383-.146l-.146-.068z"/>
        <path fill="#FFF" fill-rule="nonzero" d="M68.017 36.495a7.695 7.695 0 0 1-6.75 7.335 81.23 81.23 0 0 1-4.297.304 10.508 10.508 0 0 1-.259-3.195c3.825-1.924 6.581-7.189 6.581-11.689a8.415 8.415 0 0 0-3.048-6.806 3.578 3.578 0 0 1-2.7 3.184c-3.24 1.26-10.44-.158-13.23 2.666-.08.088-.167.17-.259.247a4.748 4.748 0 0 0 0 .709c0 4.444 2.633 9.596 6.322 11.587.097 1.132.013 2.27-.247 3.375a96.419 96.419 0 0 1-4.016-.303 7.661 7.661 0 0 1-6.75-7.335c-.484-6.93.776-11.554 2.925-14.558.048-.074.1-.146.157-.213a11.498 11.498 0 0 1 4.05-3.466 3.499 3.499 0 0 1-.191-1.125c0-2.857 3.307-5.13 7.391-5.13s7.414 2.25 7.414 5.13c0 .409-.076.813-.225 1.193 4.365 2.239 7.898 7.391 7.133 18.09z"/>
    </g>
</svg>
