<svg xmlns="http://www.w3.org/2000/svg" width="147" height="32" viewBox="0 0 147 32">
    <g fill="none" fill-rule="evenodd">
        <circle cx="16" cy="16" r="16"/>
        <path fill="#00AA13" d="M15.972 21.895a5.979 5.979 0 1 1 0-11.958 5.979 5.979 0 0 1 0 11.958zm0-21.895c8.786 0 15.944 7.13 15.888 15.944 0 6.624-3.986 12.267-9.769 14.709-.309.14-.73.224-1.15.224a2.977 2.977 0 0 1-2.976-2.975c0-1.235.758-2.302 1.824-2.751a9.943 9.943 0 0 0 6.12-9.18c0-5.5-4.463-9.964-9.965-9.964s-9.965 4.463-9.965 9.965c0 4.126 2.526 7.663 6.12 9.179a2.992 2.992 0 0 1 1.824 2.75 2.977 2.977 0 0 1-2.976 2.976c-.393 0-.842-.084-1.15-.224C4.013 28.183.027 22.54.027 15.943.028 7.13 7.186 0 15.972 0z"/>
        <circle cx="16" cy="16" r="16"/>
        <path fill="#FFFFFF" d="M62.789 14.507c0-5.211 4.112-9.24 9.859-9.24 5.775 0 9.859 4.029 9.859 9.24s-4.084 9.24-9.86 9.24c-5.717 0-9.858-4.029-9.858-9.24zm14.845 0c0-2.845-1.944-4.958-4.986-4.958s-4.986 2.113-4.986 4.958 1.944 4.958 4.986 4.958 4.986-2.141 4.986-4.958zm3.211 13.014h2.648c1.408 0 1.915-.535 1.915-1.775V5.296h4.874V25.83c0 4.31-1.747 6.169-6.395 6.169h-3.042v-4.479zM55.183 5.268h4.704v17.971c0 4.986-3.802 8.733-9.38 8.733-3.662 0-6.873-1.296-9.014-3.55l3.183-3.07c1.38 1.352 2.986 2.113 5.718 2.113 2.733 0 4.79-1.747 4.79-4.141v-1.775h-.057c-1.212 1.352-3.24 2.113-5.662 2.113-5.409 0-9.465-3.916-9.465-9.268 0-5.155 3.944-9.126 9.296-9.126 2.479 0 4.563.732 5.83 2.056h.057V5.268zm-.225 10.197h.028v-2.057c0-2.028-2.225-3.83-4.789-3.83-3.24 0-5.324 1.971-5.324 4.816 0 3.099 1.944 4.958 5.099 4.958 2.789 0 4.986-1.718 4.986-3.887zm48.281 4.31c1.972 0 3.296-.507 4.761-1.86l3.296 2.31c-1.409 1.719-4.113 3.521-7.86 3.521-6.14 0-10.31-3.661-10.31-9.21 0-5.381 3.944-9.268 9.494-9.268 5.859 0 9.493 4.169 9.493 9.408v1.38h-14.17c.085 1.831 2.367 3.719 5.296 3.719zm-.507-10.564c-2.62 0-4.45 1.352-4.732 3.409h9.38c-.225-2.057-2.056-3.409-4.648-3.409zM115.014 0h4.704l.028 12.62h.057l7.887-7.409H134l-8.169 7.747 8.14 10.76h-5.633l-5.577-7.774h-.057l-2.958 2.817v4.985h-4.704V0h-.028z"/>
    </g>
</svg>
