<svg xmlns="http://www.w3.org/2000/svg" width="200" height="90" viewBox="0 0 200 90">
    <g fill="none" fill-rule="nonzero" transform="translate(49)">
        <path fill="#000" d="M32.909 73.89a4.275 4.275 0 0 0-2.614-3.966 4.248 4.248 0 0 0-4.65.913 4.286 4.286 0 0 0-.933 4.661 4.26 4.26 0 0 0 3.938 2.644 4.05 4.05 0 0 0 3.067-1.18 4.08 4.08 0 0 0 1.192-3.072m-12.677 0c0-4.5 3.52-7.942 8.418-7.942s8.417 3.465 8.417 7.942c0 4.478-3.44 7.942-8.417 7.942s-8.418-3.464-8.418-7.942M13.551 74.711c0 1.856-1.871 3.375-4.259 3.375a3.97 3.97 0 0 1-3.177-1.12A4.002 4.002 0 0 1 4.932 73.8c0-2.453 1.782-4.14 4.483-4.14 2.175 0 4.08 1.541 4.08 3.285l.056 1.766zm.169-8.763v1.766a6.8 6.8 0 0 0-4.988-1.766 7.842 7.842 0 0 0-6.762 3.995 7.9 7.9 0 0 0 .068 7.875 7.84 7.84 0 0 0 6.828 3.88 6.398 6.398 0 0 0 4.854-1.823v1.53c0 2.059-1.76 3.566-4.08 3.566A6.42 6.42 0 0 1 4.74 83.25L2.03 85.871a10.359 10.359 0 0 0 7.689 3.004c4.764 0 8.026-3.218 8.026-7.493V65.948H13.72z"/>
        <path fill="#231F20" d="M39.567 66.375h3.665v1.451h.056a6.153 6.153 0 0 1 4.585-1.878 6.255 6.255 0 0 1 4.73 2.103 6.479 6.479 0 0 1 4.876-2.103c4.024 0 6.803 2.643 6.803 6.468v9h-4.024v-8.325a3.232 3.232 0 0 0-1.52-3.02 3.207 3.207 0 0 0-3.37 0 3.232 3.232 0 0 0-1.521 3.02v8.325H49.98v-8.325a3.243 3.243 0 0 0-1.554-2.964 3.218 3.218 0 0 0-3.337 0 3.243 3.243 0 0 0-1.554 2.964v8.325h-3.968V66.375zM66.423 73.901c.19-4.378 3.797-7.821 8.164-7.79 4.366.03 7.926 3.522 8.055 7.903v1.192H70.537c.134 1.958 1.715 3.206 4.226 3.206a5.966 5.966 0 0 0 4.584-2.25l2.59 2.588a9.063 9.063 0 0 1-7.152 3.026c-5.234.034-8.362-3.105-8.362-7.875zm12.162-1.642c-.19-1.755-1.749-2.914-3.968-2.914-2.22 0-3.8 1.125-4.024 2.914h7.992zM84.279 73.879a7.789 7.789 0 0 1 2.282-5.684 7.73 7.73 0 0 1 5.676-2.259 7.145 7.145 0 0 1 4.842 1.62V60.75h4.17v20.632h-3.856v-1.507h-.056a6.566 6.566 0 0 1-5.044 1.901 7.651 7.651 0 0 1-5.721-2.196 7.71 7.71 0 0 1-2.293-5.701zm12.856.9v-1.89c0-1.789-1.939-3.263-4.248-3.263a4.127 4.127 0 0 0-3.19 1.12 4.159 4.159 0 0 0-1.293 3.133 4.091 4.091 0 0 0 1.283 3.136 4.06 4.06 0 0 0 3.2 1.082c2.388 0 4.248-1.473 4.248-3.318z"/>
        <ellipse cx="51.729" cy="28.102" fill="#EE2737" rx="26.901" ry="27"/>
        <path fill="#FFF" d="M59.182 18.742a106.496 106.496 0 0 0-14.918 0 1.118 1.118 0 0 1-.92-.318 1.127 1.127 0 0 1-.325-.919c.09-1.271.19-2.542.303-3.825a2.471 2.471 0 0 1 2.118-2.25 51.038 51.038 0 0 1 12.565 0 2.471 2.471 0 0 1 2.119 2.25c.123 1.283.224 2.554.303 3.825.036.34-.084.678-.326.92-.242.24-.58.357-.919.317zM64.36 27.09a420.972 420.972 0 0 1-3.743-5.828 151.346 151.346 0 0 0-17.788 0 337.24 337.24 0 0 1-3.744 5.828 4.94 4.94 0 0 0-.807 2.846c.067 2.678.258 5.367.56 8.044a6.223 6.223 0 0 0 5.179 5.479 50.57 50.57 0 0 0 15.412 0 6.223 6.223 0 0 0 5.178-5.479c.314-2.677.494-5.366.56-8.044a4.94 4.94 0 0 0-.806-2.846zm-8.316 6.896h-2.937v3.24a1.442 1.442 0 0 1-.675 1.353 1.43 1.43 0 0 1-1.508 0 1.442 1.442 0 0 1-.675-1.353v-3.24h-2.937c-.817 0-1.48-.665-1.48-1.485 0-.82.663-1.485 1.48-1.485h2.937v-3.24a1.442 1.442 0 0 1 .675-1.352 1.43 1.43 0 0 1 1.508 0c.462.286.723.81.675 1.352v3.24h2.937c.817 0 1.48.665 1.48 1.485 0 .82-.663 1.485-1.48 1.485z"/>
    </g>
</svg>
