<svg xmlns="http://www.w3.org/2000/svg" width="200" height="90" viewBox="0 0 200 90">
    <g fill="none" fill-rule="evenodd" transform="translate(54)">
        <path fill="#000" fill-rule="nonzero" d="M32.21 73.89a4.275 4.275 0 0 0-2.62-3.966 4.265 4.265 0 0 0-4.66.913 4.28 4.28 0 0 0-.936 4.661 4.27 4.27 0 0 0 3.946 2.644 4.053 4.053 0 0 0 3.079-1.176 4.064 4.064 0 0 0 1.19-3.076m-12.706 0c0-4.5 3.528-7.942 8.437-7.942 4.91 0 8.449 3.465 8.449 7.942 0 4.478-3.505 7.942-8.449 7.942-4.943 0-8.437-3.464-8.437-7.942M12.807 74.711c0 1.856-1.876 3.375-4.257 3.375a3.985 3.985 0 0 1-3.18-1.105 3.997 3.997 0 0 1-1.202-3.147c0-2.453 1.798-4.14 4.55-4.14 2.18 0 4.09 1.541 4.09 3.285v1.732zm.169-8.763v1.766a6.802 6.802 0 0 0-5-1.766 7.863 7.863 0 0 0-6.774 4 7.885 7.885 0 0 0 .073 7.875 7.862 7.862 0 0 0 6.848 3.875 6.41 6.41 0 0 0 4.853-1.823v1.53c0 2.059-1.764 3.566-4.09 3.566a6.443 6.443 0 0 1-4.909-1.721l-2.719 2.621a10.418 10.418 0 0 0 7.73 3.004c4.763 0 8.032-3.218 8.032-7.493V65.948h-4.044z"/>
        <path fill="#231F20" fill-rule="nonzero" d="M38.883 66.375h4.01v1.339a6.6 6.6 0 0 1 4.82-1.755c4.375 0 7.92 3.55 7.92 7.931 0 4.38-3.545 7.931-7.92 7.931a7.24 7.24 0 0 1-4.685-1.586v7.515H38.85l.034-21.375zm8.302 3.285c-2.247 0-4.067 1.553-4.067 3.251v1.901c0 1.812 1.809 3.376 4.09 3.376a4.239 4.239 0 0 0 4.017-4.236 4.239 4.239 0 0 0-4.017-4.236l-.023-.056zM63.408 72.427c2.741-.36 3.55-.765 3.55-1.53 0-.99-1.045-1.586-2.651-1.586a3.517 3.517 0 0 0-3.719 2.7l-3.955-.821c.562-3.071 3.697-5.242 7.561-5.242 4.382 0 7.09 2.25 7.09 5.883v9.551H67.53V79.74h-.056a6.164 6.164 0 0 1-5.056 2.07c-3.303 0-5.617-1.811-5.617-4.5s1.887-4.185 6.606-4.883zm3.898 1.587h-.067c-.36.54-1.124.855-3.18 1.226-2.46.45-3.37.934-3.37 1.811 0 .878.742 1.305 2.314 1.305 2.405 0 4.27-1.125 4.27-2.553l.033-1.79zM78.844 80.561l-6.943-14.186h4.606l4.494 9.81h.056l4.494-9.81h4.618L79.822 87.75h-4.55z"/>
        <ellipse cx="45.107" cy="28.102" fill="#00AED6" fill-rule="nonzero" rx="26.963" ry="27"/>
        <path fill="#FFF" d="M60.835 27.427a6.362 6.362 0 0 0-6.516-6.075H36.793c-.62 0-1.123-.503-1.123-1.125a1.214 1.214 0 0 1 1.123-1.125h17.75a4.678 4.678 0 0 0-3.931-4.387c-5.016-.9-10.151-.9-15.167 0a6.566 6.566 0 0 0-5.393 5.512 55.91 55.91 0 0 0 0 16.2 6.565 6.565 0 0 0 5.73 5.513c6.23.788 12.533.788 18.762 0a6.44 6.44 0 0 0 5.617-5.175c.555-3.08.781-6.21.674-9.338zm-4.943 4.613v1.462a1.124 1.124 0 1 1-2.247 0V32.04a1.958 1.958 0 0 1-.674-1.35 1.799 1.799 0 1 1 3.595 0c-.084.508-.32.978-.674 1.35z"/>
    </g>
</svg>
