<svg xmlns="http://www.w3.org/2000/svg" width="200" height="90" viewBox="0 0 200 90">
    <g fill="none" fill-rule="evenodd" transform="translate(35)">
        <path fill="#000" fill-rule="nonzero" d="M32.388 72.945a4.275 4.275 0 0 0-2.613-3.966 4.247 4.247 0 0 0-4.649.913 4.287 4.287 0 0 0-.933 4.661 4.259 4.259 0 0 0 3.936 2.645 4.048 4.048 0 0 0 3.067-1.18 4.081 4.081 0 0 0 1.192-3.073m-12.675 0c0-4.5 3.519-7.942 8.416-7.942 4.898 0 8.428 3.465 8.428 7.942 0 4.478-3.497 7.943-8.428 7.943-4.93 0-8.416-3.466-8.416-7.943M13.034 73.766c0 1.856-1.872 3.375-4.248 3.375a3.97 3.97 0 0 1-3.17-1.105 4.002 4.002 0 0 1-1.2-3.147c0-2.453 1.781-4.14 4.538-4.14 2.174 0 4.08 1.541 4.08 3.285v1.732zm.168-8.764v1.767a6.776 6.776 0 0 0-4.987-1.767 7.874 7.874 0 0 0-6.787 4.018 7.935 7.935 0 0 0 .073 7.909 7.873 7.873 0 0 0 6.86 3.891 6.397 6.397 0 0 0 4.84-1.834v1.53c0 2.059-1.759 3.566-4.079 3.566a6.418 6.418 0 0 1-4.897-1.8l-2.712 2.622a10.379 10.379 0 0 0 7.7 3.049c4.75 0 8.012-3.218 8.012-7.493V65.003h-4.023z"/>
        <path fill="#231F20" fill-rule="nonzero" d="M39.045 65.419h4v1.338a6.575 6.575 0 0 1 4.808-1.755c4.364 0 7.901 3.551 7.901 7.932 0 4.38-3.537 7.931-7.9 7.931a7.21 7.21 0 0 1-4.674-1.586v7.537h-4.135V65.42zm8.226 3.296c-2.242 0-4.057 1.552-4.057 3.251v1.902c0 1.81 1.804 3.375 4.08 3.375a4.234 4.234 0 0 0 4.007-4.236 4.234 4.234 0 0 0-4.008-4.236l-.022-.056zM65.706 65.002c4.864 0 8.416 3.488 8.416 7.876 0 4.387-3.552 7.874-8.416 7.874a7.904 7.904 0 0 1-7.202-3.838 7.969 7.969 0 0 1 0-8.185 7.904 7.904 0 0 1 7.202-3.839v.112zm0 3.68a4.244 4.244 0 0 0-4.225 4.26 4.244 4.244 0 0 0 4.24 4.244 4.244 4.244 0 0 0 4.232-4.252 4.07 4.07 0 0 0-1.184-3.072 4.037 4.037 0 0 0-3.063-1.18zM76.263 58.759h4.303V63h-4.303v-4.241zm.078 6.66h4.17v15.03h-4.17v-15.03zM83.323 65.419h4.024v1.417h.067a7.368 7.368 0 0 1 5.043-1.834c4.225 0 7.15 2.802 7.15 6.886v8.56h-4.17v-8.02a3.528 3.528 0 0 0-1.092-2.75 3.5 3.5 0 0 0-2.796-.94 3.69 3.69 0 0 0-2.834.948 3.719 3.719 0 0 0-1.212 2.741v8.022h-4.169l-.01-15.03zM108.37 68.996v6.379c0 .934.314 1.215 1.525 1.215h2.734v3.892h-3.16c-3.743 0-5.256-1.473-5.256-4.848v-6.638h-3.519V65.42h3.53V61.65h4.158v3.769h4.808v3.577h-4.82zM117.672 74.632c.594 1.924 2.107 2.892 4.483 2.892 2.163 0 3.362-.484 3.362-1.305 0-.822-.908-1.271-3.698-1.699-5.458-.844-7.397-2.182-7.397-4.871 0-2.689 2.757-4.647 6.87-4.647 3.743 0 7.15 1.924 7.935 4.5l-3.8 1.126a4.21 4.21 0 0 0-4.168-2.352c-1.715 0-2.836.507-2.836 1.305 0 .799.785 1.125 4.08 1.643 5.031.787 7.038 2.182 7.038 4.905 0 2.722-2.903 4.736-7.386 4.736a10.134 10.134 0 0 1-5.603-1.44 5.893 5.893 0 0 1-2.813-3.859l3.933-.934z"/>
        <ellipse cx="65.168" cy="27.157" fill="#00AED6" fill-rule="nonzero" rx="26.897" ry="27"/>
        <path fill="#FFF" fill-rule="nonzero" d="M82.494 18.596a5.29 5.29 0 0 0-4.046-2.733l-2.801-.36c-.101-.608-.225-1.204-.381-1.79a37.74 37.74 0 0 0-20.251 0c-.157.586-.28 1.182-.381 1.79l-2.802.36a5.29 5.29 0 0 0-4.023 2.733 5.091 5.091 0 0 0 0 4.736c2.095 4.04 6.556 10.62 13.728 12.376a2.248 2.248 0 0 1 1.715 2.17c-.079 0-6.243.755-6.243 2.937v2.396c5.407.795 10.9.795 16.307 0v-2.373c0-2.183-6.164-2.925-6.243-2.937a2.248 2.248 0 0 1 1.715-2.171c7.172-1.777 11.633-8.359 13.74-12.375a5.057 5.057 0 0 0-.034-4.759zm-31.29 3.015a1.31 1.31 0 0 1 0-1.26 1.468 1.468 0 0 1 1.121-.765l2.006-.247a24.89 24.89 0 0 0 1.715 9 26.727 26.727 0 0 1-4.842-6.728zm13.964 4.984a2.992 2.992 0 0 1-2.775-1.854 3.012 3.012 0 0 1 .656-3.282 2.984 2.984 0 0 1 3.274-.634 3.004 3.004 0 0 1 1.826 2.8 2.987 2.987 0 0 1-2.98 2.97zm13.953-4.984a26.727 26.727 0 0 1-4.853 6.75 24.89 24.89 0 0 0 1.715-9l2.006.248c.475.056.894.342 1.12.765.211.384.215.85.012 1.237z"/>
        <path d="M0 0h130v90H0z"/>
    </g>
</svg>
