<svg xmlns="http://www.w3.org/2000/svg" width="200" height="90" viewBox="0 0 200 90">
    <g fill="none" fill-rule="evenodd" transform="translate(53)">
        <path fill="#000" fill-rule="nonzero" d="M32.296 73.89a4.264 4.264 0 0 0-2.61-3.947 4.225 4.225 0 0 0-4.626.917 4.28 4.28 0 0 0-.925 4.648 4.241 4.241 0 0 0 3.92 2.635c1.14.058 2.25-.37 3.058-1.18a4.073 4.073 0 0 0 1.183-3.073m-12.646 0c0-4.5 3.514-7.942 8.405-7.942 4.89 0 8.404 3.465 8.404 7.942 0 4.478-3.48 7.942-8.404 7.942-4.924 0-8.405-3.464-8.405-7.942M12.981 74.711c0 1.856-1.869 3.375-4.252 3.375a3.96 3.96 0 0 1-3.159-1.11 4.005 4.005 0 0 1-1.195-3.142c0-2.453 1.78-4.14 4.477-4.14 2.238 0 4.084 1.541 4.084 3.285l.045 1.732zm.168-8.763v1.766a6.782 6.782 0 0 0-4.98-1.766C3.843 65.985.366 69.54.403 73.89c.037 4.35 3.574 7.845 7.9 7.808a6.382 6.382 0 0 0 4.846-1.823v1.53c0 2.059-1.757 3.566-4.074 3.566a6.403 6.403 0 0 1-4.89-1.721l-2.708 2.621a10.333 10.333 0 0 0 7.677 3.004c4.756 0 8.012-3.218 8.012-7.493V65.948H13.15z"/>
        <path fill="#231F20" fill-rule="nonzero" d="M38.954 66.375h3.906v1.451a5.87 5.87 0 0 1 4.386-1.732c.828.011 1.65.144 2.44.394l-.862 3.768a7.227 7.227 0 0 0-2.17-.303c-2.239 0-3.593 1.473-3.593 4.59v6.85h-4.163l.056-15.018zM51.174 59.704h4.308V63.9h-4.308v-4.196zm.09 6.66h4.162v15.018h-4.162V66.364zM57.642 73.879a7.807 7.807 0 0 1 2.286-5.685 7.722 7.722 0 0 1 5.67-2.258 7.126 7.126 0 0 1 4.835 1.62h.067V60.75h4.163v20.632h-3.85v-1.507h-.056a6.56 6.56 0 0 1-5.035 1.901 7.643 7.643 0 0 1-5.76-2.17 7.727 7.727 0 0 1-2.32-5.727zm12.847.9v-1.89c0-1.789-1.936-3.263-4.241-3.263a4.116 4.116 0 0 0-3.185 1.12 4.162 4.162 0 0 0-1.292 3.133 4.095 4.095 0 0 0 1.281 3.136 4.049 4.049 0 0 0 3.196 1.082c2.36 0 4.252-1.473 4.252-3.318h-.011zM76.867 73.901c.19-4.378 3.791-7.821 8.15-7.79 4.36.03 7.914 3.522 8.043 7.903v1.192H80.974c.135 1.958 1.712 3.206 4.208 3.206a5.953 5.953 0 0 0 4.588-2.25l2.585 2.588a9.041 9.041 0 0 1-7.14 3.026c-5.225.034-8.348-3.105-8.348-7.875zM89.01 72.26c-.201-1.755-1.746-2.914-3.961-2.914-2.216 0-3.794 1.125-4.018 2.914h7.979z"/>
        <ellipse cx="47.022" cy="28.474" fill="#00AA13" fill-rule="nonzero" rx="26.857" ry="27"/>
        <ellipse cx="60.048" cy="37.361" fill="#FFF" fill-rule="nonzero" rx="5.483" ry="5.513"/>
        <ellipse cx="35.093" cy="37.361" fill="#FFF" fill-rule="nonzero" rx="5.483" ry="5.513"/>
        <path fill="#FFF" fill-rule="nonzero" d="M52.998 35.449a7.057 7.057 0 0 1 5.26-5.175 6.68 6.68 0 0 1 2.573-.113c.69.047 1.361-.242 1.804-.776a2.18 2.18 0 0 0 .435-1.924c-2.35-7.762-7.274-10.237-8.17-10.687.672.225 2.574.9 1.567-2.25a4.985 4.985 0 0 0-3.917-3.15 1.438 1.438 0 0 0-1.498.385 1.457 1.457 0 0 0-.292 1.527l.336.9a4.954 4.954 0 0 1-1.79-.112 1.195 1.195 0 0 0-1.232.562c-.09.173-.129.368-.112.563a.967.967 0 0 0 .784 1.012c.933.333 1.937.41 2.91.225 2.685 8.775 2.237 12.038 1.118 15.3-1.343 3.938-5.819 3.713-7.05 1.35a4.918 4.918 0 0 1-.112-3.937 3.525 3.525 0 0 0 2.127-.788 3.494 3.494 0 0 0 1.007-2.025c.087-.671.124-1.348.112-2.025a1.686 1.686 0 0 0-1.231-1.575c-8.393-1.8-14.1-.45-17.01.675a2.042 2.042 0 0 0-.56 3.488l.113.112c-.448.675-.896 1.35-1.343 1.913-.544.81-.346 1.909.447 2.475.597.45 1.418.45 2.015 0a7.097 7.097 0 0 1 5.483-1.013A7.308 7.308 0 0 1 42.032 35a7.168 7.168 0 0 1 0 5.062c2.152.278 4.32.428 6.49.45a33.285 33.285 0 0 0 5.036-.337 6.85 6.85 0 0 1-.56-4.725z"/>
        <path d="M0 0h94v90H0z"/>
    </g>
</svg>
