<svg xmlns="http://www.w3.org/2000/svg" width="200" height="90" viewBox="0 0 200 90">
    <g fill="none" fill-rule="nonzero" transform="translate(61)">
        <path fill="#000" d="M32.783 73.89a4.263 4.263 0 0 0-2.637-3.947 4.3 4.3 0 0 0-4.673.917 4.249 4.249 0 0 0-.934 4.648 4.285 4.285 0 0 0 3.96 2.635 4.092 4.092 0 0 0 3.09-1.18 4.05 4.05 0 0 0 1.194-3.073m-12.774 0c0-4.5 3.55-7.942 8.49-7.942s8.489 3.465 8.489 7.942c0 4.478-3.516 7.942-8.49 7.942s-8.49-3.464-8.49-7.942M13.249 74.711c0 1.856-1.888 3.375-4.296 3.375a4.025 4.025 0 0 1-3.228-1.107A3.983 3.983 0 0 1 4.522 73.8c0-2.453 1.797-4.14 4.521-4.14 2.261 0 4.127 1.541 4.127 3.285l.079 1.766zm.17-8.763v1.766h-.057a6.893 6.893 0 0 0-5.03-1.766C3.961 65.985.448 69.54.485 73.89c.038 4.35 3.61 7.845 7.981 7.808a6.484 6.484 0 0 0 4.895-1.823h.056v1.53c0 2.059-1.775 3.566-4.115 3.566a6.508 6.508 0 0 1-4.94-1.721l-2.735 2.621a10.495 10.495 0 0 0 7.755 3.004c4.804 0 8.094-3.218 8.094-7.493V65.948h-4.059z"/>
        <path fill="#231F20" d="M45.963 69.941v6.345c0 .934.306 1.215 1.527 1.215h2.758v3.881H47.07c-3.832 0-5.313-1.53-5.313-4.837v-6.604h-3.55v-3.566h3.55v-3.78h4.205v3.78h4.907v3.578l-4.907-.012zM52.69 59.704h4.34V63.9h-4.34v-4.196zm.079 6.66h4.205v15.018h-4.205V66.364zM64.808 73.789l-6.387-7.414H63.7l3.81 4.849h.056l3.866-4.849h5.28L70.323 73.8l6.557 7.594H71.6l-4.035-5.04h-.056l-3.98 5.04h-5.279z"/>
        <ellipse cx="38.537" cy="28.102" fill="#DF1995" rx="27.13" ry="27"/>
        <path fill="#FFF" d="M50.587 34.583l-1.006-.99a1.121 1.121 0 0 1 0-1.542l1.289-1.327c.433-.4 1.103-.4 1.537 0l.769.765c.678-.855 1.39-1.688 2.034-2.565a7.25 7.25 0 0 0 .554-7.976c-.35-.585-.757-1.125-1.13-1.677a5.037 5.037 0 0 1-6.71-.343 4.977 4.977 0 0 1-.355-6.677c-.554-.382-1.13-.787-1.673-1.125a7.298 7.298 0 0 0-7.913.54c-.893.653-1.73 1.35-2.578 2.037l.758.753c.409.433.409 1.108 0 1.542l-1.323 1.327a1.134 1.134 0 0 1-1.549 0l-1.006-1.001c-3.77 3.36-7.18 7.1-10.174 11.16a7.227 7.227 0 0 0-.554 7.875c.35.585.758 1.125 1.13 1.676a5.037 5.037 0 0 1 6.71.343 4.977 4.977 0 0 1 .356 6.677c.554.383 1.13.788 1.673 1.125a7.298 7.298 0 0 0 7.913-.54 73.55 73.55 0 0 0 11.248-10.057zM39.283 21.746a1.134 1.134 0 0 1-1.55 0L36.4 20.42a1.121 1.121 0 0 1 0-1.541l1.334-1.305a1.134 1.134 0 0 1 1.549 0l1.322 1.316c.41.433.41 1.108 0 1.541l-1.322 1.316zm4.408 4.388a1.134 1.134 0 0 1-1.548 0l-1.323-1.328a1.121 1.121 0 0 1 0-1.53l1.334-1.327a1.134 1.134 0 0 1 1.549 0l1.334 1.327a1.121 1.121 0 0 1 0 1.53l-1.346 1.328zM48.1 30.52a1.134 1.134 0 0 1-1.549 0l-1.334-1.271a1.121 1.121 0 0 1 0-1.541l1.323-1.328a1.134 1.134 0 0 1 1.549 0l1.334 1.361c.409.434.409 1.109 0 1.542L48.1 30.52z"/>
    </g>
</svg>
