<svg xmlns="http://www.w3.org/2000/svg" width="199" height="90" viewBox="0 0 199 90">
    <g fill="none" fill-rule="nonzero" transform="translate(0,5)">
        <path fill="#EE2B38" d="M42.666 22.264a21.298 21.298 0 0 1-13.155 19.68 21.326 21.326 0 0 1-23.23-4.615A21.287 21.287 0 0 1 1.66 14.117 21.315 21.315 0 0 1 21.352.97c11.77 0 21.312 9.533 21.314 21.295"/>
        <path fill="#FFF" d="M21.143 21.28c.1-2.354-.047-4.711-.44-7.034a1.49 1.49 0 1 0-2.908.492c.28 1.5.418 3.023.41 4.549a1.003 1.003 0 0 1-2.006 0v-5.622c.015-.74-.5-1.386-1.226-1.535a1.492 1.492 0 0 0-1.727 1.457v5.7a1.017 1.017 0 0 1-1.731.704.994.994 0 0 1-.29-.712c-.007-1.525.13-3.049.41-4.548a1.49 1.49 0 0 0-1.196-1.692 1.455 1.455 0 0 0-1.7 1.207 33.505 33.505 0 0 0-.459 6.56 6.463 6.463 0 0 0 3.155 5.414 2.917 2.917 0 0 1 1.49 2.336l.161 3.353a1.647 1.647 0 0 0 3.288 0l.157-3.241a2.865 2.865 0 0 1 1.517-2.314 6.161 6.161 0 0 0 3.114-5.085M29.643 12.119c-3.888 0-5.834 5.54-5.834 9.202a5.666 5.666 0 0 0 2.699 4.694 2.734 2.734 0 0 1 1.312 2.139l.183 3.766a1.64 1.64 0 0 0 3.28 0l.183-3.766a2.738 2.738 0 0 1 1.317-2.139 5.67 5.67 0 0 0 2.695-4.694c0-3.662-1.942-9.202-5.835-9.202"/>
        <path fill="#EE2B38" d="M42.666 22.264a21.298 21.298 0 0 1-13.155 19.68 21.326 21.326 0 0 1-23.23-4.615A21.287 21.287 0 0 1 1.66 14.117 21.315 21.315 0 0 1 21.352.97c11.77 0 21.312 9.533 21.314 21.295"/>
        <path fill="#FFF" d="M21.143 21.28c.1-2.354-.047-4.711-.44-7.034a1.49 1.49 0 1 0-2.908.492c.28 1.5.418 3.023.41 4.549a1.003 1.003 0 0 1-2.006 0v-5.622c.015-.74-.5-1.386-1.226-1.535a1.492 1.492 0 0 0-1.727 1.457v5.7a1.017 1.017 0 0 1-1.731.704.994.994 0 0 1-.29-.712c-.007-1.525.13-3.049.41-4.548a1.49 1.49 0 0 0-1.196-1.692 1.455 1.455 0 0 0-1.7 1.207 33.505 33.505 0 0 0-.459 6.56 6.463 6.463 0 0 0 3.155 5.414 2.917 2.917 0 0 1 1.49 2.336l.161 3.353a1.647 1.647 0 0 0 3.288 0l.157-3.241a2.865 2.865 0 0 1 1.517-2.314 6.161 6.161 0 0 0 3.114-5.085M29.643 12.119c-3.888 0-5.834 5.54-5.834 9.202a5.666 5.666 0 0 0 2.699 4.694 2.734 2.734 0 0 1 1.312 2.139l.183 3.766a1.64 1.64 0 0 0 3.28 0l.183-3.766a2.738 2.738 0 0 1 1.317-2.139 5.67 5.67 0 0 0 2.695-4.694c0-3.662-1.942-9.202-5.835-9.202"/>
        <path fill="#010101" d="M94.944 18.255c0-3.204-2.2-5.588-5.63-5.588-3.43 0-5.626 2.384-5.626 5.588s2.2 5.588 5.626 5.588 5.63-2.38 5.63-5.588m-16.777 0c0-5.886 4.66-10.431 11.143-10.431 6.484 0 11.148 4.54 11.148 10.43S95.835 28.687 89.31 28.687c-6.524 0-11.143-4.545-11.143-10.431M69.345 19.32c0 2.44-2.475 4.389-5.63 4.389-3.56 0-5.774-2.101-5.774-5.588 0-3.226 2.363-5.436 6.002-5.436 2.89 0 5.402 2.023 5.402 4.307v2.328zM69.57 8.19v1.948h-.074c-1.428-1.49-3.788-2.325-6.603-2.325-6.04 0-10.503 4.5-10.503 10.313 0 6.031 4.575 10.453 10.693 10.453 2.737 0 5.026-.86 6.413-2.399h.074v2.008c0 2.701-2.326 4.687-5.402 4.687s-4.906-.876-6.472-2.37l-3.59 3.454c2.404 2.552 6.032 4.005 10.178 4.005 6.3 0 10.614-4.229 10.614-9.85V8.196l-5.328-.007zM107.799 12.764h-4.806V8.002h4.806V5.961c0-3.517 2.457-5.67 6.58-5.67h5.257v4.802h-4.575c-1.1 0-1.666.529-1.666 1.55v1.36h7.49v4.76h-7.49v15.275h-5.593l-.003-15.274zM122.171 18.016c0-5.96 4.728-10.58 11.308-10.58s11.311 4.609 11.311 10.58c0 5.972-4.69 10.585-11.319 10.585-6.628 0-11.3-4.613-11.3-10.585zm17.02 0c0-3.248-2.237-5.67-5.712-5.67-3.475 0-5.712 2.422-5.712 5.67 0 3.25 2.237 5.67 5.712 5.67 3.475 0 5.712-2.417 5.712-5.67zM147.02 18.016c0-5.96 4.731-10.58 11.311-10.58s11.304 4.609 11.304 10.58c0 5.972-4.69 10.585-11.307 10.585-6.618 0-11.308-4.613-11.308-10.585zm17.023 0c0-3.248-2.237-5.67-5.712-5.67-3.474 0-5.711 2.422-5.711 5.67 0 3.25 2.237 5.67 5.711 5.67 3.475 0 5.712-2.417 5.712-5.67zM171.872 18.016c0-6.046 4.579-10.565 10.704-10.565 2.647 0 4.955.745 6.506 2.153h.075V.444h5.592v27.59h-5.182v-1.956h-.075c-1.514 1.662-3.859 2.534-6.77 2.534-6.35-.011-10.85-4.396-10.85-10.596zm17.285 1.211v-2.533c0-2.38-2.61-4.348-5.712-4.348-3.553 0-5.965 2.306-5.965 5.67 0 3.365 2.345 5.633 5.965 5.633 3.18 0 5.712-1.967 5.712-4.422z"/>
        <path fill="#231F20" d="M183.367 41.077c-.164 1.766-.406 4.393-.724 7.88-.315 3.524-.556 6.15-.723 7.88-.169 1.78-.234 2.58-.194 2.402-.201.998-.686 1.49-1.45 1.49-.91-.015-2.267-.042-4.071-.082l-4.053-.056-2.394-.056c-.913-.156-1.375-.659-1.394-1.49-.025-.924-.052-2.257-.082-4-.026-1.823-.045-3.156-.063-4.002 0-1.08.164-1.826.533-2.235.127-.144.997-.288 2.61-.433l.838-.018c.522 0 .959-.041 1.313-.082 1.178-.108 1.774-.347 1.786-.708.044-1.155.07-1.702.082-1.65-.082-.5-.44-.745-1.081-.723-.038 0-.504.063-1.395.153-.662.09-1.33.14-1.998.149-1.703 0-2.508-.461-2.416-1.382.194-1.987.27-2.878.231-2.672.231-1.035.802-1.553 1.711-1.553.899 0 2.237-.026 4.02-.041 1.781-.015 3.12-.023 4.018-.023.13 0 .541-.033 1.234-.085.496-.044.994-.06 1.492-.049 1.193.045 1.886.429 2.08 1.144.038.074.06.155.064.239l.026.003zm-9.023 11.55c-.296.096-.52.788-.675 2.074a3.67 3.67 0 0 0-.063.582c.03.156.168.22.418.186l2.046-.265c1.012-.119 1.568-.345 1.667-.678.052-.372.127-.946.224-1.717.037-.347.056-.537.06-.563-.03-.141-.165-.19-.4-.145l-3.277.525zM126.265 59.708c0 1.222 0 1.863-.023 1.986-.154.782-.592 1.145-1.316 1.088-2.96-.216-5.177-.383-6.65-.5a85.043 85.043 0 0 1-1.902-.133 79.273 79.273 0 0 0-1.924-.134c-1.033-.075-1.57-.12-1.607-.135a1.267 1.267 0 0 1-.899-.95 5.849 5.849 0 0 1 .086-1.397c.19-1.445.489-2.268.888-2.477.2-.092 1.07-.144 2.61-.157l4.015-.03c.626 0 1.003-.227 1.118-.67 0-.041.265-3.949.34-4.97.056-.47.07-.946.044-1.42-.09-.394-.421-.655-.984-.782a669.554 669.554 0 0 0-4.157-.871c-1.424-.306-2.166-.477-2.237-.507-.631-.31-.912-1.034-.843-2.172l.6-9.936c.075-1.252.321-1.986.746-2.194a6.548 6.548 0 0 1 1.749-.265l8.232-.652c1.827-.149 2.587-.227 2.274-.23.935.014 1.424.4 1.469 1.158a.402.402 0 0 1-.034.212c0 .038-.078.455-.19 1.256-.08.502-.189 1-.324 1.49-.33 1.187-.874 1.785-1.63 1.792h-6.431c-.372 0-.85 6.11-.745 6.482.062.309.3.551.607.619l1.082.164 3.974.63c.877.131 1.469.355 1.775.67.328.332.495.92.495 1.762v3.934c0 1.751-.208 6.471-.208 7.34z"/>
        <path fill="#231F20" d="M143.21 40.418c0 .052.044.402.149 1.043.075.433.12.872.134 1.311 0 1.066-.373 1.609-1.119 1.628-.078 0-.447-.022-1.118-.048-.671-.026-1.234 0-1.674 0-1.471.03-2.217.23-2.237.603a902.424 902.424 0 0 1-.253 4.844c-.157 3.002-.394 7.473-.713 13.411-.03.712-.29 1.189-.786 1.431a6.521 6.521 0 0 1-1.775.32c-1.424.138-2.095.205-2.017.213-.842-.042-1.249-.431-1.219-1.166l.585-12.231c.075-1.465.18-3.621.314-6.468.018-.324.04-.808.067-1.456 0-.1-.642 0-1.95.331-.3.11-.604.202-.914.276-.487.16-.985.285-1.491.373-1.302.22-1.812-.056-1.529-.831a509.277 509.277 0 0 1 1.678-4.866v-.018l.045-.075c.303-.51.856-.819 1.45-.808l12.55-.336c.745 0 1.252.228 1.49.746.128.257.195.372.195.372s.052.436.138 1.4zM141.457 52.239v-.954c0-.518.026-.954.06-1.3.108-1.118.429-1.721.97-1.833a8.857 8.857 0 0 1 3.023-.07c1.38.2 2.054.744 2.028 1.605a3566.92 3566.92 0 0 1-.197 5.827c-.127 4.016-.228 7.074-.302 9.175-.063 1.722-.078 2.505-.045 2.351a1.863 1.863 0 0 1-1.305 1.654.373.373 0 0 1-.239.026c-2.084.146-3.076.224-2.982.228-1.347-.067-1.994-.547-1.939-1.438l.183-3.03.745-12.241zm.873 18.083c1.76-.099 2.575-.154 2.445-.164 1.047.077 1.566.524 1.559 1.342 0 .063.03.45.067 1.15.033.455.024.912-.026 1.364-.102 1.058-.533 1.636-1.294 1.733h-.052a.373.373 0 0 1-.1 0h-2.532c-1.089 0-1.66-.373-1.704-1.155 0-.147.058-.994.175-2.541.087-1.093.574-1.669 1.462-1.729zM166.31 37.922a20564.94 20564.94 0 0 1-2.912 24.264c-.209 1.777-.324 2.682-.335 2.705-.249.62-.899.938-1.95.953-.441.001-.882-.025-1.32-.078-.608-.063-.98-.1-1.119-.108l-5.816-.235a1.032 1.032 0 0 1-1.017-.898 10.84 10.84 0 0 1-.142-1.527l-1.491-23.884a.294.294 0 0 1 .07-.231c.146-.496.578-.775 1.298-.835.305-.017.611-.017.917 0 .488.041.775.06.854.053.078-.008.31 0 .779-.034.344-.02.689-.02 1.033 0 .894.056 1.398.298 1.517.745.087.726.114 1.457.082 2.187 0 .993-.006 2.597-.019 4.81l-.06 10.353v1.17c0 .298.254.503.78.61.526.109.835.045.891-.238l.395-1.982c.634-3.193.746-8.02 2.006-14.384.428-2.128.71-3.26.85-3.394.414-.443 2.01-.704 3.083-.887 1.182-.212 1.723.082 1.626.865zM197.638 61.91c-.223 1.67-.317 2.422-.28 2.258-.248.904-.755 1.29-1.52 1.158-1.524-.248-3.76-.62-6.711-1.117-.205-.034-.6-.067-1.186-.108a14.917 14.917 0 0 1-1.372-.16c-1.126-.177-1.871-.503-2.237-.98-.123-.15-.09-1.118.093-2.958.329-3.147.848-8.168 1.559-15.062.07-.697.183-1.748.343-3.156.16-1.408.25-2.459.32-3.155.097-.944.16-1.466.19-1.565a1.237 1.237 0 0 1 1.067-.928.492.492 0 0 1 .194.03l5.096.648c.81.1 1.119.79.873 2.068l-2.148 12.156-.988 5.588c0 .127-.056.313-.108.556-.052.242-.067.428-.09.555-.022.126.504.145 1.604.097l3.452-.183c1.007-.052 1.603-.037 1.786.045.466.22.63.886.492 2.008-.045.346-.12.775-.224 1.281-.104.507-.193.857-.205.924zM108.231 56.944c.418.402.619 1.118.612 2.139 0 .298-.038.719-.097 1.259-.06.54-.075.913-.086 1.117 0 .91-.708 1.312-2.08 1.219-5.046-.358-8.804-.63-11.275-.816-1.083-.08-1.653-.855-1.707-2.325-.019-.629.013-1.258.093-1.881.108-.932.16-1.46.153-1.591.09-2.109.222-5.274.399-9.496V45.45c-.009-.474.014-.948.067-1.42.134-1.158.574-1.769 1.32-1.825l6.71-.551c4.025-.328 6.17-.465 6.435-.41.672.13.996.976.981 2.533 0 .477-.041 1.08-.112 1.803-.07.723-.108 1.163-.112 1.241 0-.12-.038 1.37-.115 4.47-.018.972-.248 1.568-.69 1.789-.216.104-1.118.085-2.707-.049l-4.574-.372a8.085 8.085 0 0 0-1.458-.071c-.373.086-.556.447-.593 1.095 0 .079-.04.343-.108.794-.067.45-.097.85-.127 1.158-.06 1.01.06 1.58.373 1.718l5.01-.399c2.25-.2 3.48-.205 3.688-.01zm-3.799-10.979l-3.266-.782c-.257-.052-.417-.049-.488 0-.071.048-.079.208-.067.48 0 .406.018 1.062.056 1.971 0 .559.25.835.745.823l1.913-.06c1.014-.029 1.525-.174 1.528-.431.008-1.21-.133-1.877-.42-2zM92.144 41.353c.165.833.165 1.69 0 2.522-.216 1.197-.67 1.747-1.361 1.65-.373-.048-.94-.126-1.682-.238-.741-.112-1.304-.175-1.681-.238-.664-.094-1.074-.067-1.227.082-.152.149-.22.54-.234 1.248 0 .026 0 .171-.027.432a2 2 0 0 0 0 .51c0 .436.157.667.433.697.194.037.473.082.839.13l.82.108c1.123.162 1.757.456 1.901.883a29.41 29.41 0 0 1 .332 3.271c.075.976-.078 1.559-.458 1.747-.164.082-.925-.022-2.29-.316l-3.355-.693c-.22-.056-.328.104-.324.47-.005.159.005.318.03.476.018.111.03.223.037.335.022.726.063 1.799.123 3.22l.31 7.625a6.433 6.433 0 0 1-.064 1.692c-.179.514-.626.763-1.35.745h-3.784c-1.14 0-1.793-.1-1.953-.257-.299-.295-.455-1.118-.463-2.489-.02-1.883-.03-2.888-.033-3.018 0-.471.09-4.459.268-11.962.045-1.587.103-3.974.175-7.16l.049-1.751a1.293 1.293 0 0 1 1.018-1.163c.026 0 .03 0 0 0a.746.746 0 0 1 .156 0c.265 0 .653 0 1.163.03.511.03.91.037 1.16.052 3.502.12 6.093.21 7.773.272.105 0 .444 0 1.026-.019.38-.013.761-.003 1.14.03.893.095 1.403.454 1.533 1.077z"/>
        <path fill="#010101" d="M94.944 18.255c0-3.204-2.2-5.588-5.63-5.588-3.43 0-5.626 2.384-5.626 5.588s2.2 5.588 5.626 5.588 5.63-2.38 5.63-5.588m-16.777 0c0-5.886 4.66-10.431 11.143-10.431 6.484 0 11.148 4.54 11.148 10.43S95.835 28.687 89.31 28.687c-6.524 0-11.143-4.545-11.143-10.431M69.345 19.32c0 2.44-2.475 4.389-5.63 4.389-3.56 0-5.774-2.101-5.774-5.588 0-3.226 2.363-5.436 6.002-5.436 2.89 0 5.402 2.023 5.402 4.307v2.328zM69.57 8.19v1.948h-.074c-1.428-1.49-3.788-2.325-6.603-2.325-6.04 0-10.503 4.5-10.503 10.313 0 6.031 4.575 10.453 10.693 10.453 2.737 0 5.026-.86 6.413-2.399h.074v2.008c0 2.701-2.326 4.687-5.402 4.687s-4.906-.876-6.472-2.37l-3.59 3.454c2.404 2.552 6.032 4.005 10.178 4.005 6.3 0 10.614-4.229 10.614-9.85V8.196l-5.328-.007zM107.799 12.764h-4.806V8.002h4.806V5.961c0-3.517 2.457-5.67 6.58-5.67h5.257v4.802h-4.575c-1.1 0-1.666.529-1.666 1.55v1.36h7.49v4.76h-7.49v15.275h-5.593l-.003-15.274zM122.171 18.016c0-5.96 4.728-10.58 11.308-10.58s11.311 4.609 11.311 10.58c0 5.972-4.69 10.585-11.319 10.585-6.628 0-11.3-4.613-11.3-10.585zm17.02 0c0-3.248-2.237-5.67-5.712-5.67-3.475 0-5.712 2.422-5.712 5.67 0 3.25 2.237 5.67 5.712 5.67 3.475 0 5.712-2.417 5.712-5.67zM147.02 18.016c0-5.96 4.731-10.58 11.311-10.58s11.304 4.609 11.304 10.58c0 5.972-4.69 10.585-11.307 10.585-6.618 0-11.308-4.613-11.308-10.585zm17.023 0c0-3.248-2.237-5.67-5.712-5.67-3.474 0-5.711 2.422-5.711 5.67 0 3.25 2.237 5.67 5.711 5.67 3.475 0 5.712-2.417 5.712-5.67zM171.872 18.016c0-6.046 4.579-10.565 10.704-10.565 2.647 0 4.955.745 6.506 2.153h.075V.444h5.592v27.59h-5.182v-1.956h-.075c-1.514 1.662-3.859 2.534-6.77 2.534-6.35-.011-10.85-4.396-10.85-10.596zm17.285 1.211v-2.533c0-2.38-2.61-4.348-5.712-4.348-3.553 0-5.965 2.306-5.965 5.67 0 3.365 2.345 5.633 5.965 5.633 3.18 0 5.712-1.967 5.712-4.422z"/>
        <path fill="#231F20" d="M183.367 41.077c-.164 1.766-.406 4.393-.724 7.88-.315 3.524-.556 6.15-.723 7.88-.169 1.78-.234 2.58-.194 2.402-.201.998-.686 1.49-1.45 1.49-.91-.015-2.267-.042-4.071-.082l-4.053-.056-2.394-.056c-.913-.156-1.375-.659-1.394-1.49-.025-.924-.052-2.257-.082-4-.026-1.823-.045-3.156-.063-4.002 0-1.08.164-1.826.533-2.235.127-.144.997-.288 2.61-.433l.838-.018c.522 0 .959-.041 1.313-.082 1.178-.108 1.774-.347 1.786-.708.044-1.155.07-1.702.082-1.65-.082-.5-.44-.745-1.081-.723-.038 0-.504.063-1.395.153-.662.09-1.33.14-1.998.149-1.703 0-2.508-.461-2.416-1.382.194-1.987.27-2.878.231-2.672.231-1.035.802-1.553 1.711-1.553.899 0 2.237-.026 4.02-.041 1.781-.015 3.12-.023 4.018-.023.13 0 .541-.033 1.234-.085.496-.044.994-.06 1.492-.049 1.193.045 1.886.429 2.08 1.144.038.074.06.155.064.239l.026.003zm-9.023 11.55c-.296.096-.52.788-.675 2.074a3.67 3.67 0 0 0-.063.582c.03.156.168.22.418.186l2.046-.265c1.012-.119 1.568-.345 1.667-.678.052-.372.127-.946.224-1.717.037-.347.056-.537.06-.563-.03-.141-.165-.19-.4-.145l-3.277.525zM126.265 59.708c0 1.222 0 1.863-.023 1.986-.154.782-.592 1.145-1.316 1.088-2.96-.216-5.177-.383-6.65-.5a85.043 85.043 0 0 1-1.902-.133 79.273 79.273 0 0 0-1.924-.134c-1.033-.075-1.57-.12-1.607-.135a1.267 1.267 0 0 1-.899-.95 5.849 5.849 0 0 1 .086-1.397c.19-1.445.489-2.268.888-2.477.2-.092 1.07-.144 2.61-.157l4.015-.03c.626 0 1.003-.227 1.118-.67 0-.041.265-3.949.34-4.97.056-.47.07-.946.044-1.42-.09-.394-.421-.655-.984-.782a669.554 669.554 0 0 0-4.157-.871c-1.424-.306-2.166-.477-2.237-.507-.631-.31-.912-1.034-.843-2.172l.6-9.936c.075-1.252.321-1.986.746-2.194a6.548 6.548 0 0 1 1.749-.265l8.232-.652c1.827-.149 2.587-.227 2.274-.23.935.014 1.424.4 1.469 1.158a.402.402 0 0 1-.034.212c0 .038-.078.455-.19 1.256-.08.502-.189 1-.324 1.49-.33 1.187-.874 1.785-1.63 1.792h-6.431c-.372 0-.85 6.11-.745 6.482.062.309.3.551.607.619l1.082.164 3.974.63c.877.131 1.469.355 1.775.67.328.332.495.92.495 1.762v3.934c0 1.751-.208 6.471-.208 7.34z"/>
        <path fill="#231F20" d="M143.21 40.418c0 .052.044.402.149 1.043.075.433.12.872.134 1.311 0 1.066-.373 1.609-1.119 1.628-.078 0-.447-.022-1.118-.048-.671-.026-1.234 0-1.674 0-1.471.03-2.217.23-2.237.603a902.424 902.424 0 0 1-.253 4.844c-.157 3.002-.394 7.473-.713 13.411-.03.712-.29 1.189-.786 1.431a6.521 6.521 0 0 1-1.775.32c-1.424.138-2.095.205-2.017.213-.842-.042-1.249-.431-1.219-1.166l.585-12.231c.075-1.465.18-3.621.314-6.468.018-.324.04-.808.067-1.456 0-.1-.642 0-1.95.331-.3.11-.604.202-.914.276-.487.16-.985.285-1.491.373-1.302.22-1.812-.056-1.529-.831a509.277 509.277 0 0 1 1.678-4.866v-.018l.045-.075c.303-.51.856-.819 1.45-.808l12.55-.336c.745 0 1.252.228 1.49.746.128.257.195.372.195.372s.052.436.138 1.4zM141.457 52.239v-.954c0-.518.026-.954.06-1.3.108-1.118.429-1.721.97-1.833a8.857 8.857 0 0 1 3.023-.07c1.38.2 2.054.744 2.028 1.605a3566.92 3566.92 0 0 1-.197 5.827c-.127 4.016-.228 7.074-.302 9.175-.063 1.722-.078 2.505-.045 2.351a1.863 1.863 0 0 1-1.305 1.654.373.373 0 0 1-.239.026c-2.084.146-3.076.224-2.982.228-1.347-.067-1.994-.547-1.939-1.438l.183-3.03.745-12.241zm.873 18.083c1.76-.099 2.575-.154 2.445-.164 1.047.077 1.566.524 1.559 1.342 0 .063.03.45.067 1.15.033.455.024.912-.026 1.364-.102 1.058-.533 1.636-1.294 1.733h-.052a.373.373 0 0 1-.1 0h-2.532c-1.089 0-1.66-.373-1.704-1.155 0-.147.058-.994.175-2.541.087-1.093.574-1.669 1.462-1.729zM166.31 37.922a20564.94 20564.94 0 0 1-2.912 24.264c-.209 1.777-.324 2.682-.335 2.705-.249.62-.899.938-1.95.953-.441.001-.882-.025-1.32-.078-.608-.063-.98-.1-1.119-.108l-5.816-.235a1.032 1.032 0 0 1-1.017-.898 10.84 10.84 0 0 1-.142-1.527l-1.491-23.884a.294.294 0 0 1 .07-.231c.146-.496.578-.775 1.298-.835.305-.017.611-.017.917 0 .488.041.775.06.854.053.078-.008.31 0 .779-.034.344-.02.689-.02 1.033 0 .894.056 1.398.298 1.517.745.087.726.114 1.457.082 2.187 0 .993-.006 2.597-.019 4.81l-.06 10.353v1.17c0 .298.254.503.78.61.526.109.835.045.891-.238l.395-1.982c.634-3.193.746-8.02 2.006-14.384.428-2.128.71-3.26.85-3.394.414-.443 2.01-.704 3.083-.887 1.182-.212 1.723.082 1.626.865zM197.638 61.91c-.223 1.67-.317 2.422-.28 2.258-.248.904-.755 1.29-1.52 1.158-1.524-.248-3.76-.62-6.711-1.117-.205-.034-.6-.067-1.186-.108a14.917 14.917 0 0 1-1.372-.16c-1.126-.177-1.871-.503-2.237-.98-.123-.15-.09-1.118.093-2.958.329-3.147.848-8.168 1.559-15.062.07-.697.183-1.748.343-3.156.16-1.408.25-2.459.32-3.155.097-.944.16-1.466.19-1.565a1.237 1.237 0 0 1 1.067-.928.492.492 0 0 1 .194.03l5.096.648c.81.1 1.119.79.873 2.068l-2.148 12.156-.988 5.588c0 .127-.056.313-.108.556-.052.242-.067.428-.09.555-.022.126.504.145 1.604.097l3.452-.183c1.007-.052 1.603-.037 1.786.045.466.22.63.886.492 2.008-.045.346-.12.775-.224 1.281-.104.507-.193.857-.205.924zM108.231 56.944c.418.402.619 1.118.612 2.139 0 .298-.038.719-.097 1.259-.06.54-.075.913-.086 1.117 0 .91-.708 1.312-2.08 1.219-5.046-.358-8.804-.63-11.275-.816-1.083-.08-1.653-.855-1.707-2.325-.019-.629.013-1.258.093-1.881.108-.932.16-1.46.153-1.591.09-2.109.222-5.274.399-9.496V45.45c-.009-.474.014-.948.067-1.42.134-1.158.574-1.769 1.32-1.825l6.71-.551c4.025-.328 6.17-.465 6.435-.41.672.13.996.976.981 2.533 0 .477-.041 1.08-.112 1.803-.07.723-.108 1.163-.112 1.241 0-.12-.038 1.37-.115 4.47-.018.972-.248 1.568-.69 1.789-.216.104-1.118.085-2.707-.049l-4.574-.372a8.085 8.085 0 0 0-1.458-.071c-.373.086-.556.447-.593 1.095 0 .079-.04.343-.108.794-.067.45-.097.85-.127 1.158-.06 1.01.06 1.58.373 1.718l5.01-.399c2.25-.2 3.48-.205 3.688-.01zm-3.799-10.979l-3.266-.782c-.257-.052-.417-.049-.488 0-.071.048-.079.208-.067.48 0 .406.018 1.062.056 1.971 0 .559.25.835.745.823l1.913-.06c1.014-.029 1.525-.174 1.528-.431.008-1.21-.133-1.877-.42-2zM92.144 41.353c.165.833.165 1.69 0 2.522-.216 1.197-.67 1.747-1.361 1.65-.373-.048-.94-.126-1.682-.238-.741-.112-1.304-.175-1.681-.238-.664-.094-1.074-.067-1.227.082-.152.149-.22.54-.234 1.248 0 .026 0 .171-.027.432a2 2 0 0 0 0 .51c0 .436.157.667.433.697.194.037.473.082.839.13l.82.108c1.123.162 1.757.456 1.901.883a29.41 29.41 0 0 1 .332 3.271c.075.976-.078 1.559-.458 1.747-.164.082-.925-.022-2.29-.316l-3.355-.693c-.22-.056-.328.104-.324.47-.005.159.005.318.03.476.018.111.03.223.037.335.022.726.063 1.799.123 3.22l.31 7.625a6.433 6.433 0 0 1-.064 1.692c-.179.514-.626.763-1.35.745h-3.784c-1.14 0-1.793-.1-1.953-.257-.299-.295-.455-1.118-.463-2.489-.02-1.883-.03-2.888-.033-3.018 0-.471.09-4.459.268-11.962.045-1.587.103-3.974.175-7.16l.049-1.751a1.293 1.293 0 0 1 1.018-1.163c.026 0 .03 0 0 0a.746.746 0 0 1 .156 0c.265 0 .653 0 1.163.03.511.03.91.037 1.16.052 3.502.12 6.093.21 7.773.272.105 0 .444 0 1.026-.019.38-.013.761-.003 1.14.03.893.095 1.403.454 1.533 1.077z"/>
    </g>
</svg>
