<svg xmlns="http://www.w3.org/2000/svg" width="200" height="90" viewBox="0 0 200 90">
    <g fill="none" fill-rule="evenodd" transform="translate(40)">
        <ellipse cx="59.006" cy="28.238" fill="#00AED6" fill-rule="nonzero" rx="26.943" ry="27"/>
        <path fill="#FFF" fill-rule="nonzero" d="M75.846 29.925v2.7a1.574 1.574 0 0 1-1.348 1.575h-4.49a2.87 2.87 0 0 1-3.031-2.7 2.872 2.872 0 0 1 2.694-3.038h4.603a.672.672 0 0 1 .449.113 1.586 1.586 0 0 1 1.123 1.35z"/>
        <path fill="#FFF" fill-rule="nonzero" d="M70.232 26.325h4.379a6.48 6.48 0 0 0-6.287-4.95H50.698c-.62 0-1.122-.504-1.122-1.125s.502-1.125 1.122-1.125h17.783a4.676 4.676 0 0 0-4.041-4.387c-5.012-.9-10.144-.9-15.156 0a6.822 6.822 0 0 0-5.389 5.625 64.53 64.53 0 0 0-.337 13.162c.157 2.095.77 4.13 1.797 5.962.871 0 1.739-.114 2.582-.337a7.402 7.402 0 0 0 3.03-1.35 8.99 8.99 0 0 0 2.358-2.25 5.707 5.707 0 0 0 1.01-1.8l-1.346-.675a.754.754 0 0 1 0-1.35l4.715-2.475a.661.661 0 0 1 1.01.563l.898 5.174a.72.72 0 0 1-1.01.788l-1.235-.563c-.112.113-.112.338-.225.45a9.723 9.723 0 0 1-1.122 1.8 13.481 13.481 0 0 1-3.256 2.925 12.067 12.067 0 0 1-3.256 1.463h.113a74.68 74.68 0 0 0 18.748 0 6.438 6.438 0 0 0 5.613-5.175 4.88 4.88 0 0 1 .112-.563h-4.153a4.878 4.878 0 0 1-3.47-1.393A4.899 4.899 0 0 1 65 31.275v-.563a5.313 5.313 0 0 1 5.231-4.387z"/>
        <path fill="#231F20" fill-rule="nonzero" d="M.977 66.51h4.008v1.328h.056a6.638 6.638 0 0 1 4.816-1.755c4.258.16 7.627 3.666 7.627 7.936s-3.369 7.777-7.627 7.937a7.231 7.231 0 0 1-4.682-1.586v7.537H.977V66.51zm8.24 3.24c-2.245 0-4.064 1.564-4.064 3.263v1.89c0 1.822 1.807 3.318 4.086 3.318a4.237 4.237 0 0 0 4.015-4.235 4.237 4.237 0 0 0-4.015-4.236h-.022zM25.484 72.574c2.728-.371 3.548-.765 3.548-1.53 0-.99-1.045-1.587-2.65-1.587a3.503 3.503 0 0 0-3.716 2.69l-3.952-.822c.562-3.06 3.694-5.243 7.556-5.243 4.367 0 7.084 2.25 7.084 5.896v9.55h-3.761v-1.653a6.157 6.157 0 0 1-5.04 2.07c-3.301 0-5.614-1.811-5.614-4.5s1.83-4.219 6.545-4.871zm3.884 1.586c-.359.54-1.122.855-3.177 1.215-2.458.461-3.368.934-3.368 1.811 0 .878.73 1.305 2.313 1.305 2.402 0 4.255-1.125 4.255-2.542l-.023-1.789zM40.91 80.707L33.993 66.51h4.602l4.491 9.799 4.49-9.799h4.626l-10.34 21.375H37.26zM53.673 60.84h4.177v20.689h-4.177zM66.842 72.574c2.74-.371 3.559-.765 3.559-1.53 0-.99-1.044-1.587-2.65-1.587a3.526 3.526 0 0 0-3.76 2.69l-3.952-.822c.572-3.06 3.693-5.243 7.566-5.243 4.368 0 7.073 2.25 7.073 5.896v9.55h-3.75v-1.653a6.157 6.157 0 0 1-5.051 2.07c-3.301 0-5.614-1.811-5.614-4.5s1.875-4.219 6.58-4.871zm3.884 1.586c-.37.54-1.122.855-3.188 1.215-2.458.461-3.368.934-3.368 1.811 0 .878.73 1.305 2.313 1.305 2.391 0 4.255-1.125 4.255-2.542l-.012-1.789zM83.536 70.076v6.357c0 .933.314 1.214 1.527 1.214h2.728v3.882h-3.155c-3.75 0-5.276-1.474-5.276-4.849v-6.604h-3.526V66.51h3.526v-3.769h4.176v3.769h4.827v3.566h-4.827zM97.322 66.082a7.737 7.737 0 0 1 5.843 2.242 7.771 7.771 0 0 1 2.285 5.836v1.215H93.325c.135 1.957 1.74 3.195 4.221 3.195a5.934 5.934 0 0 0 4.603-2.25l2.593 2.61a9.118 9.118 0 0 1-7.162 3.037c-5.22 0-8.375-3.15-8.375-7.874a7.794 7.794 0 0 1 2.314-5.78 7.76 7.76 0 0 1 5.803-2.23zm4.064 6.323c-.202-1.789-1.752-2.925-3.974-2.925-2.223 0-3.806 1.125-4.03 2.925h8.004zM107.673 66.51h3.918v1.44a5.775 5.775 0 0 1 4.4-1.721c.83.012 1.655.145 2.448.394l-.865 3.768a8.415 8.415 0 0 0-2.178-.315c-2.245 0-3.603 1.53-3.603 4.59v6.863h-4.177l.057-15.019z"/>
        <path d="M0 0h119v90H0z"/>
    </g>
</svg>
