<svg xmlns="http://www.w3.org/2000/svg" width="96" height="96" viewBox="0 0 96 96">
    <g fill="none" fill-rule="nonzero">
        <path fill="#EE2737" d="M28.638 39.724S6.006 41.559 2.095 48.739L.11 53.761a2.392 2.392 0 0 0 .272 2.014 2.317 2.317 0 0 0 1.713 1.052 66.63 66.63 0 0 1 20.13 4.961c3.892 1.896 6.413-22.064 6.413-22.064zM55.338 64.667s1.195 22.765-5.108 27.61l-4.491 2.65c-.606.296-1.307.3-1.916.012a2.332 2.332 0 0 1-1.245-1.507 69.177 69.177 0 0 0-7.306-19.396c-2.313-3.688 20.066-9.37 20.066-9.37z"/>
        <path fill="#FFB31C" d="M34.084 77.475a3.62 3.62 0 0 1-3.532-.963L18.714 65.018a3.43 3.43 0 0 1-1.065-3.38c2.407-7.742 13.18-37.745 40.387-52.855A70.939 70.939 0 0 1 91.202 0a3.94 3.94 0 0 1 3.946 3.635 69.455 69.455 0 0 1-7.024 31.241c-7.596 15.484-22.985 32.44-54.04 42.599z"/>
        <ellipse cx="55.846" cy="40.089" fill="#FFF" rx="15.025" ry="9.68" transform="rotate(-45.63 55.846 40.09)"/>
        <path fill="#231F20" d="M3.005 92.775c.344-7.19 5.78-14.148 13.712-8.527 1.4 1.007 3.956 3.701 1.075 4.535-1.936.313-3.857-.624-4.726-2.307-2.962-4.922 2.028-9.69 6.207-11.744 1.744-.853.203-3.353-1.542-2.5-6.085 3.004-11.724 10.407-6.572 16.725 2.779 3.372 11.46 4.283 10.994-1.763-.507-6.435-11.075-9.69-16.227-6.687C1.869 82.95.226 88.395.002 92.775c-.1 1.938 2.942 1.938 3.043 0h-.04z"/>
        <path fill="#EE2737" d="M88.108 35.105C75.7 29.655 65.258 20.485 58.2 8.84A69.834 69.834 0 0 1 91.227 0c2.056-.006 3.768 1.59 3.922 3.659a70.642 70.642 0 0 1-7.04 31.446z"/>
        <path fill="#231F20" d="M89.77 34.345C77.483 29.012 67.11 20.168 60 8.96a1.504 1.504 0 0 0-1.99-.443 1.452 1.452 0 0 0-.571 1.927c7.366 11.62 18.102 20.802 30.823 26.36 1.727.782 3.235-1.756 1.508-2.538v.079z"/>
    </g>
</svg>
