<?xml version="1.0" encoding="utf-8"?>
<!-- Generated by IcoMoon.io -->
<!DOCTYPE svg PUBLIC "-//W3C//DTD SVG 1.1//EN" "http://www.w3.org/Graphics/SVG/1.1/DTD/svg11.dtd">
<svg version="1.1" xmlns="http://www.w3.org/2000/svg" xmlns:xlink="http://www.w3.org/1999/xlink" width="17" height="17" viewBox="0 0 17 17">
<g>
</g>
	<path d="M14.001 11.125c-0.469-0.674-0.704-1.44-0.704-2.278 0-0.776 0.225-1.482 0.664-2.115 0.245-0.357 0.633-0.756 1.165-1.205-0.347-0.43-0.706-0.777-1.063-1.022-0.634-0.439-1.358-0.664-2.176-0.664-0.501 0-1.093 0.123-1.767 0.347-0.675 0.235-1.165 0.348-1.461 0.348-0.236 0-0.706-0.102-1.411-0.307-0.715-0.204-1.308-0.306-1.808-0.306-1.176 0-2.136 0.491-2.901 1.471-0.766 0.991-1.154 2.258-1.154 3.821 0 1.675 0.511 3.381 1.501 5.139 1.011 1.757 2.023 2.646 3.075 2.646 0.337 0 0.787-0.112 1.349-0.348 0.553-0.224 1.042-0.337 1.451-0.337 0.419 0 0.939 0.102 1.542 0.327 0.614 0.214 1.083 0.327 1.431 0.327 0.868 0 1.747-0.665 2.626-2.003 0.592-0.889 1.001-1.747 1.256-2.554-0.602-0.183-1.144-0.612-1.615-1.287zM13.523 14.418c-0.657 1-1.293 1.552-1.79 1.552-0.147 0-0.459-0.047-1.081-0.264-0.693-0.259-1.33-0.39-1.892-0.39-0.541 0-1.155 0.138-1.838 0.415-0.58 0.243-0.865 0.269-0.961 0.269-0.628 0-1.412-0.762-2.204-2.137-0.923-1.639-1.372-3.159-1.372-4.648 0-1.336 0.31-2.387 0.942-3.206 0.579-0.741 1.251-1.086 2.113-1.086 0.401 0 0.902 0.088 1.529 0.267 1.051 0.305 1.444 0.346 1.689 0.346 0.425 0 1.010-0.132 1.777-0.399 0.589-0.196 1.077-0.296 1.45-0.296 0.609 0 1.135 0.159 1.61 0.489 0.066 0.046 0.135 0.098 0.204 0.155-0.228 0.236-0.414 0.461-0.562 0.677-0.56 0.806-0.843 1.709-0.843 2.686 0 1.048 0.297 2.006 0.884 2.85 0.354 0.505 0.748 0.908 1.182 1.206-0.217 0.499-0.498 1.006-0.837 1.514zM9.424 3.964c-0.235 0.072-0.582 0.133-1.062 0.174 0.021-1.011 0.286-1.89 0.797-2.625 0.511-0.737 1.368-1.237 2.555-1.513 0.020 0.092 0.040 0.164 0.050 0.225 0 0.071 0.011 0.132 0.011 0.204 0 0.419-0.102 0.889-0.296 1.39-0.204 0.511-0.521 0.981-0.951 1.41-0.368 0.367-0.736 0.612-1.104 0.735z" fill="#000000" />
</svg>
