<?xml version="1.0" encoding="utf-8"?>
<!-- Generated by IcoMoon.io -->
<!DOCTYPE svg PUBLIC "-//W3C//DTD SVG 1.1//EN" "http://www.w3.org/Graphics/SVG/1.1/DTD/svg11.dtd">
<svg version="1.1" xmlns="http://www.w3.org/2000/svg" xmlns:xlink="http://www.w3.org/1999/xlink" width="17" height="17" viewBox="0 0 17 17">
<g>
</g>
	<path d="M13.603 11.349l-0.706-0.708 1.644-1.641h-5.541v5.541l1.641-1.644 0.708 0.706-2.849 2.855-2.849-2.855 0.708-0.706 1.641 1.644v-5.541h-5.541l1.644 1.641-0.706 0.708-2.855-2.849 2.855-2.849 0.706 0.708-1.644 1.641h5.541v-5.541l-1.641 1.644-0.708-0.706 2.849-2.855 2.849 2.855-0.708 0.706-1.641-1.644v5.541h5.541l-1.644-1.641 0.706-0.708 2.855 2.849-2.855 2.849z" fill="#000000" />
</svg>
