<?xml version="1.0" encoding="utf-8"?>
<!-- Generated by IcoMoon.io -->
<!DOCTYPE svg PUBLIC "-//W3C//DTD SVG 1.1//EN" "http://www.w3.org/Graphics/SVG/1.1/DTD/svg11.dtd">
<svg version="1.1" xmlns="http://www.w3.org/2000/svg" xmlns:xlink="http://www.w3.org/1999/xlink" width="17" height="17" viewBox="0 0 17 17">
<g>
</g>
	<path d="M13 4v-2.394c0-0.885-0.737-1.606-1.643-1.606h-5.699c-0.905 0-1.642 0.721-1.642 1.606v2.394h-3.016v13h15v-13h-3zM5.016 1.606c0-0.334 0.288-0.606 0.642-0.606h5.699c0.355 0 0.643 0.272 0.643 0.606v2.394h-6.984v-2.394zM15 16h-13v-8h13v8zM15 7h-13v-2h2.016v0.643h1v-0.643h6.984v0.643h1v-0.643h2v2z" fill="#000000" />
</svg>
