<?xml version="1.0" encoding="utf-8"?>
<!-- Generated by IcoMoon.io -->
<!DOCTYPE svg PUBLIC "-//W3C//DTD SVG 1.1//EN" "http://www.w3.org/Graphics/SVG/1.1/DTD/svg11.dtd">
<svg version="1.1" xmlns="http://www.w3.org/2000/svg" xmlns:xlink="http://www.w3.org/1999/xlink" width="17" height="17" viewBox="0 0 17 17">
<g>
</g>
	<path d="M16.999 1h-2.257c0.001-0.168 0.008-0.328 0.008-0.5v-0.5h-12.5v0.5c0 0.16 0.004 0.333 0.005 0.5h-2.254l-0.001 0.499c-0.003 1.086 0.062 2.199 0.195 3.31 0.352 2.937 1.271 6.341 2.795 7.087 0.194 0.096 0.395 0.144 0.596 0.144 0.238 0 0.479-0.068 0.707-0.206l0.209-0.14c0.833 1.277 1.97 2.139 3.498 2.298v2.008h-2.953v1h7v-1h-3.047v-1.997c1.415-0.149 2.585-0.935 3.493-2.312l0.234 0.155c0.216 0.13 0.447 0.194 0.681 0.194 0.201 0 0.404-0.048 0.602-0.145 1.524-0.746 2.443-4.15 2.795-7.087 0.133-1.11 0.198-2.224 0.195-3.31l-0.001-0.498zM3.988 10.834l-0.229 0.154c-0.112 0.066-0.204 0.070-0.328 0.010-0.785-0.385-1.808-2.675-2.243-6.309-0.108-0.9-0.169-1.802-0.184-2.689h1.273c0.097 2.924 0.513 6.468 1.792 8.956l-0.081-0.122zM8.5 13.041c-4.54 0-5.199-8.050-5.247-12.041h10.494c-0.049 4.721-0.838 12.041-5.247 12.041zM15.812 4.689c-0.436 3.634-1.458 5.924-2.243 6.309-0.123 0.061-0.216 0.058-0.308 0.003l-0.25-0.167-0.116 0.174c1.079-2.038 1.707-5.066 1.831-9.008h1.271c-0.016 0.887-0.077 1.789-0.185 2.689z" fill="#000000" />
</svg>
