<?xml version="1.0" encoding="utf-8"?>
<!-- Generated by IcoMoon.io -->
<!DOCTYPE svg PUBLIC "-//W3C//DTD SVG 1.1//EN" "http://www.w3.org/Graphics/SVG/1.1/DTD/svg11.dtd">
<svg version="1.1" xmlns="http://www.w3.org/2000/svg" xmlns:xlink="http://www.w3.org/1999/xlink" width="17" height="17" viewBox="0 0 17 17">
<g>
</g>
	<path d="M17 11.5v0.5h-6.168v-1h5.152c-0.112-1.692-0.789-3.231-1.842-4.434l-0.806 0.806-0.707-0.707 0.802-0.802c-1.202-1.053-2.74-1.726-4.431-1.839v2.976h-1v-2.976c-1.691 0.113-3.229 0.786-4.43 1.839l0.796 0.796-0.707 0.707-0.8-0.8c-1.053 1.203-1.731 2.742-1.842 4.434h5.171v1h-6.188v-0.5c0-4.687 3.813-8.5 8.5-8.5s8.5 3.813 8.5 8.5zM10.5 11.5c0 1.103-0.897 2-2 2s-2-0.897-2-2c0-0.644 0.311-1.21 0.784-1.577l-2.082-3.63 0.867-0.497 2.141 3.733c0.095-0.014 0.19-0.029 0.29-0.029 1.103 0 2 0.897 2 2zM9.5 11.5c0-0.551-0.449-1-1-1s-1 0.449-1 1 0.449 1 1 1 1-0.449 1-1z" fill="#000000" />
</svg>
