<?xml version="1.0" encoding="utf-8"?>
<!-- Generated by IcoMoon.io -->
<!DOCTYPE svg PUBLIC "-//W3C//DTD SVG 1.1//EN" "http://www.w3.org/Graphics/SVG/1.1/DTD/svg11.dtd">
<svg version="1.1" xmlns="http://www.w3.org/2000/svg" xmlns:xlink="http://www.w3.org/1999/xlink" width="17" height="17" viewBox="0 0 17 17">
<g>
</g>
	<path d="M2 11h13v-8h-13v8zM3 4h11v6h-11v-6zM15.5 1h-14c-0.827 0-1.5 0.638-1.5 1.423v10.154c0 0.785 0.673 1.423 1.5 1.423h14c0.827 0 1.5-0.638 1.5-1.423v-10.154c0-0.785-0.673-1.423-1.5-1.423zM16 12.577c0 0.234-0.225 0.423-0.5 0.423h-14c-0.275 0-0.5-0.189-0.5-0.423v-10.154c0-0.234 0.225-0.423 0.5-0.423h14c0.275 0 0.5 0.189 0.5 0.423v10.154zM5 15h7v1h-7v-1z" fill="#000000" />
</svg>
