<?xml version="1.0" encoding="utf-8"?>
<!-- Generated by IcoMoon.io -->
<!DOCTYPE svg PUBLIC "-//W3C//DTD SVG 1.1//EN" "http://www.w3.org/Graphics/SVG/1.1/DTD/svg11.dtd">
<svg version="1.1" xmlns="http://www.w3.org/2000/svg" xmlns:xlink="http://www.w3.org/1999/xlink" width="17" height="17" viewBox="0 0 17 17">
<g>
</g>
	<path d="M8.563 16.5c-3.718 0-7.062-2.926-7.062-6.906 0-3.974 3.098-5.813 3.672-6.114 0.684-0.364 1.176-0.556 1.95-1.175 0.383-0.301 0.702-0.739 0.803-1.805 0.555 0.665 1.221 1.439 1.694 1.759 0.775 0.51 1.55 0.711 2.36 1.221 0.492 0.301 3.518 2.15 3.518 6.241 0 4.082-3.226 6.779-6.935 6.779zM14.030 9.903c-0.729 0-2.205 1.513-2.979 1.522-0.901 0.018-2.149-1.787-3.954-1.77-1.422 0.010-2.542 1.14-2.561 2.343-0.009 0.675 0.21 1.176 0.675 1.494 0.31 0.209 0.592 0.337 1.512 0.337 1.531 0 3.472-1.896 4.365-1.867 0.71 0.026 1.812 1.768 2.369 1.804 0.437 0.036 0.665-0.164 1.038-0.701 0.364-0.547 0.52-1.404 0.52-1.887 0-0.473-0.21-1.275-0.985-1.275zM11.917 14.741c-0.31 0.228-1.003 0.511-1.987 0.511s-1.448-0.21-1.758-0.447c-0.045-0.036-0.027-0.036-0.119-0.036-0.1 0-0.154 0.046-0.236 0.109-0.073 0.064-0.109 0.219 0 0.328 0.674 0.619 1.804 0.565 2.633 0.491 0.839-0.082 1.55-0.573 1.622-0.646 0.109-0.108 0.082-0.2 0.063-0.264-0.018-0.064-0.073-0.154-0.218-0.046zM11.424 13.184c-0.182-0.118-0.445-0.137-0.691-0.137-0.247 0-0.383-0.018-0.646 0.091-0.266 0.109-0.539 0.355-0.711 0.511-0.174 0.154-0.201 0.273-0.11 0.401 0.092 0.117 0.192 0.044 0.447-0.174 0.264-0.21 0.438-0.401 0.975-0.401s0.629 0.201 0.737 0.401c0.11 0.2 0.119 0.228 0.228 0.174 0.128-0.064 0.192-0.156 0.128-0.312-0.065-0.154-0.174-0.427-0.357-0.554z" fill="#000000" />
</svg>
