<?xml version="1.0" encoding="utf-8"?>
<!-- Generated by IcoMoon.io -->
<!DOCTYPE svg PUBLIC "-//W3C//DTD SVG 1.1//EN" "http://www.w3.org/Graphics/SVG/1.1/DTD/svg11.dtd">
<svg version="1.1" xmlns="http://www.w3.org/2000/svg" xmlns:xlink="http://www.w3.org/1999/xlink" width="17" height="17" viewBox="0 0 17 17">
<g>
</g>
	<path d="M15.996 11.352l0.004 4.648-4.649-0.004 0.001-1 2.94 0.003-5.792-5.791-5.792 5.792 2.94-0.003 0.001 1-4.649 0.003 0.004-4.649 1 0.001-0.003 2.939 5.792-5.791-5.792-5.792 0.003 2.939-1 0.001-0.004-4.648 4.649 0.004-0.001 1-2.94-0.003 5.792 5.792 5.792-5.792-2.94 0.003-0.001-1 4.649-0.004-0.004 4.649-1-0.001 0.003-2.939-5.792 5.791 5.792 5.792-0.003-2.939 1-0.001z" fill="#000000" />
</svg>
