<?xml version="1.0" encoding="utf-8"?>
<!-- Generated by IcoMoon.io -->
<!DOCTYPE svg PUBLIC "-//W3C//DTD SVG 1.1//EN" "http://www.w3.org/Graphics/SVG/1.1/DTD/svg11.dtd">
<svg version="1.1" xmlns="http://www.w3.org/2000/svg" xmlns:xlink="http://www.w3.org/1999/xlink" width="17" height="17" viewBox="0 0 17 17">
<g>
</g>
	<path d="M14 4.403v7.258c0 0.856-0.337 1.867-0.635 2.758-0.179 0.538-0.365 1.093-0.365 1.331v0.75c0 0.276-0.224 0.5-0.5 0.5s-0.5-0.224-0.5-0.5v-0.75c0-0.4 0.184-0.95 0.417-1.647 0.259-0.78 0.583-1.749 0.583-2.442v-7.258c0-0.275-0.206-0.483-0.478-0.483-0.278 0-0.512 0.21-0.521 0.468 0 0.003-0.002 0.006-0.002 0.009l0.001 3.86c0 0.276-0.224 0.5-0.5 0.5s-0.5-0.224-0.5-0.5l-0.001-4.086c0-0.005 0.003-0.009 0.003-0.015v-1.406c0-0.232-0.14-0.483-0.446-0.483-0.274 0-0.528 0.21-0.544 0.45-0.001 0.013-0.010 0.025-0.012 0.039v4.48c0 0.276-0.224 0.5-0.5 0.5s-0.5-0.223-0.5-0.5v-4.896c0-0.022 0.010-0.042 0.013-0.063v-0.795c0-0.261-0.241-0.482-0.525-0.482-0.279 0-0.497 0.211-0.497 0.482v0.866c0.002 0.015 0.009 0.028 0.009 0.044v0 4.896c0 0.276-0.224 0.5-0.5 0.5s-0.5-0.224-0.5-0.5v0-4.592c0-0.004-0.003-0.007-0.004-0.011-0.033-0.238-0.248-0.418-0.5-0.418-0.279 0-0.505 0.217-0.505 0.483v5.705c0 0.208-0.128 0.394-0.322 0.467-0.191 0.073-0.413 0.020-0.551-0.135l-1.117-1.254c-0.393-0.459-0.656-0.311-0.753-0.255-0.116 0.065-0.199 0.171-0.232 0.297-0.032 0.121-0.014 0.248 0.050 0.357l3.292 7.009c0.046 0.073 0.158 0.155 0.294 0.188 0.225 0.054 0.382 0.255 0.382 0.486v0.885c0 0.276-0.224 0.5-0.5 0.5s-0.5-0.224-0.5-0.5v-0.546c-0.231-0.128-0.423-0.314-0.56-0.545l-3.291-7.010c-0.18-0.299-0.235-0.698-0.134-1.081 0.103-0.387 0.354-0.71 0.706-0.91 0.676-0.381 1.422-0.206 2 0.468l0.237 0.266v-4.392c0-0.818 0.675-1.483 1.505-1.483 0.174 0 0.343 0.030 0.5 0.085 0.067-0.757 0.71-1.352 1.491-1.352 0.801 0 1.459 0.604 1.521 1.367 0.171-0.064 0.356-0.1 0.548-0.1 0.811 0 1.446 0.651 1.446 1.483v0.262c0.163-0.059 0.338-0.091 0.52-0.091 0.828-0.001 1.477 0.65 1.477 1.482z" fill="#000000" />
</svg>
