<?xml version="1.0" encoding="utf-8"?>
<!-- Generated by IcoMoon.io -->
<!DOCTYPE svg PUBLIC "-//W3C//DTD SVG 1.1//EN" "http://www.w3.org/Graphics/SVG/1.1/DTD/svg11.dtd">
<svg version="1.1" xmlns="http://www.w3.org/2000/svg" xmlns:xlink="http://www.w3.org/1999/xlink" width="17" height="17" viewBox="0 0 17 17">
<g>
</g>
	<path d="M15.242 5.42l-1.188 8.064c-0.118 0.612-0.389 0.88-0.586 1.076-0.191 0.19-0.318 0.316-0.318 0.933v1.007c0 0.276-0.224 0.5-0.5 0.5s-0.5-0.224-0.5-0.5v-1.007c0-0.955 0.278-1.309 0.614-1.642 0.155-0.154 0.248-0.247 0.304-0.534l1.185-8.039c0.018-0.123 0.051-0.54-0.273-0.585-0.112-0.016-0.203 0.002-0.275 0.057-0.096 0.071-0.164 0.209-0.188 0.378l-0.497 3.316c-0.025 0.171-0.138 0.316-0.296 0.385s-0.341 0.050-0.484-0.049c-0.050 0.008-0.134-0.023-0.218-0.078-0.152-0.097-0.239-0.268-0.229-0.448l0.285-5.286c0.023-0.278-0.17-0.509-0.432-0.532-0.127-0.012-0.249 0.028-0.346 0.109-0.098 0.082-0.156 0.196-0.167 0.321l-0.463 4.782c-0.026 0.269-0.239 0.464-0.531 0.451-0.081-0.005-0.163-0.010-0.246-0.011-0.269-0.006-0.485-0.223-0.49-0.491l-0.115-6.119c0-0.268-0.21-0.478-0.468-0.478-0.258 0-0.468 0.21-0.468 0.468l-0.118 6.586c-0.004 0.19-0.114 0.362-0.286 0.443-0.062 0.030-0.122 0.060-0.179 0.092-0.147 0.084-0.326 0.087-0.476 0.008-0.15-0.078-0.251-0.227-0.268-0.395l-0.515-5.329c-0.011-0.131-0.070-0.245-0.166-0.326-0.097-0.081-0.228-0.118-0.345-0.109-0.126 0.011-0.239 0.070-0.32 0.167-0.080 0.096-0.119 0.218-0.108 0.343l0.503 7.097c0.016 0.218-0.113 0.422-0.317 0.501-0.206 0.080-0.438 0.017-0.573-0.155l-1.551-1.953c-0.203-0.34-0.562-0.435-0.84-0.274-0.136 0.079-0.233 0.205-0.273 0.356-0.040 0.15-0.020 0.308 0.060 0.443l3.529 6.087c0.080 0.139 0.211 0.236 0.367 0.274 0.224 0.054 0.382 0.255 0.382 0.486v0.69c0 0.276-0.224 0.5-0.5 0.5s-0.5-0.224-0.5-0.5v-0.35c-0.254-0.137-0.465-0.341-0.614-0.598l-3.53-6.087c-0.213-0.366-0.27-0.793-0.16-1.202 0.108-0.41 0.371-0.752 0.739-0.965 0.758-0.437 1.728-0.177 2.164 0.579l0.506 0.634-0.389-5.483c-0.034-0.382 0.086-0.764 0.338-1.066 0.252-0.3 0.608-0.485 0.999-0.52 0.397-0.036 0.775 0.087 1.077 0.34 0.146 0.123 0.263 0.269 0.35 0.431l0.014-0.753c0-0.802 0.659-1.46 1.468-1.46s1.468 0.659 1.468 1.469l0.014 0.746c0.088-0.163 0.206-0.31 0.353-0.434 0.303-0.254 0.688-0.376 1.078-0.34 0.811 0.071 1.412 0.788 1.341 1.598l-0.053 0.978c0.026-0.023 0.054-0.045 0.081-0.066 0.288-0.216 0.637-0.3 1.018-0.248 0.785 0.109 1.248 0.816 1.122 1.717z" fill="#000000" />
</svg>
