<?xml version="1.0" encoding="utf-8"?>
<!-- Generated by IcoMoon.io -->
<!DOCTYPE svg PUBLIC "-//W3C//DTD SVG 1.1//EN" "http://www.w3.org/Graphics/SVG/1.1/DTD/svg11.dtd">
<svg version="1.1" xmlns="http://www.w3.org/2000/svg" xmlns:xlink="http://www.w3.org/1999/xlink" width="17" height="17" viewBox="0 0 17 17">
<g>
</g>
	<path d="M13 0h-9c-2.2 0-4 1.8-4 4v9c0 2.2 1.8 4 4 4h9c2.2 0 4-1.8 4-4v-9c0-2.2-1.8-4-4-4zM16 13c0 1.654-1.346 3-3 3h-9c-1.654 0-3-1.346-3-3v-6h3.207c-0.286 0.61-0.457 1.283-0.457 2 0 2.619 2.131 4.75 4.75 4.75s4.75-2.131 4.75-4.75c0-0.717-0.171-1.39-0.457-2h3.207v6zM12.25 9c0 2.068-1.682 3.75-3.75 3.75s-3.75-1.682-3.75-3.75 1.682-3.75 3.75-3.75 3.75 1.682 3.75 3.75zM12.152 6c-0.872-1.059-2.176-1.75-3.652-1.75s-2.78 0.691-3.652 1.75h-3.848v-2c0-1.654 1.346-3 3-3h9c1.654 0 3 1.346 3 3v2h-3.848zM14.454 2.722v1.298c0 0.299-0.244 0.543-0.542 0.543h-1.368c-0.3-0.001-0.544-0.245-0.544-0.543v-1.298c0-0.299 0.244-0.543 0.544-0.543h1.368c0.298 0 0.542 0.244 0.542 0.543z" fill="#000000" />
</svg>
