<?xml version="1.0" encoding="utf-8"?>
<!-- Generated by IcoMoon.io -->
<!DOCTYPE svg PUBLIC "-//W3C//DTD SVG 1.1//EN" "http://www.w3.org/Graphics/SVG/1.1/DTD/svg11.dtd">
<svg version="1.1" xmlns="http://www.w3.org/2000/svg" xmlns:xlink="http://www.w3.org/1999/xlink" width="17" height="17" viewBox="0 0 17 17">
<g>
</g>
	<path d="M14.811 6.299l0.707-0.707-1.733-1.733 0.757-0.753-0.705-0.709-8.146 8.107c-0.484-0.336-1.070-0.535-1.703-0.535-1.654 0-3 1.346-3 3s1.346 3 3 3 3-1.346 3-3c0-0.661-0.222-1.268-0.585-1.764l5.264-5.238 1.738 1.738 0.707-0.707-1.737-1.736 0.701-0.698 1.735 1.735zM3.987 14.969c-1.103 0-2-0.897-2-2s0.897-2 2-2 2 0.897 2 2-0.897 2-2 2z" fill="#000000" />
</svg>
