<?xml version="1.0" encoding="utf-8"?>
<!-- Generated by IcoMoon.io -->
<!DOCTYPE svg PUBLIC "-//W3C//DTD SVG 1.1//EN" "http://www.w3.org/Graphics/SVG/1.1/DTD/svg11.dtd">
<svg version="1.1" xmlns="http://www.w3.org/2000/svg" xmlns:xlink="http://www.w3.org/1999/xlink" width="17" height="17" viewBox="0 0 17 17">
<g>
</g>
	<path d="M0 2h3v3h-3v-3zM9 5h3v-3h-3v3zM0 13h3v-3h-3v3zM9 13h3v-3h-3v3zM4 3h4v-1h-4v1zM4 5h4v-1h-4v1zM13 2v1h4v-1h-4zM13 5h4v-1h-4v1zM7 5.999h-3v1h3v-1zM16 5.999h-3v1h3v-1zM4 11h4v-1h-4v1zM4 13h4v-1h-4v1zM13 11h4v-1h-4v1zM13 13h4v-1h-4v1zM4 14.999h3v-1h-3v1zM13 14.999h3v-1h-3v1z" fill="#000000" />
</svg>
