<?xml version="1.0" encoding="utf-8"?>
<!-- Generated by IcoMoon.io -->
<!DOCTYPE svg PUBLIC "-//W3C//DTD SVG 1.1//EN" "http://www.w3.org/Graphics/SVG/1.1/DTD/svg11.dtd">
<svg version="1.1" xmlns="http://www.w3.org/2000/svg" xmlns:xlink="http://www.w3.org/1999/xlink" width="17" height="17" viewBox="0 0 17 17">
<g>
</g>
	<path d="M2 16h1v1h-1v-1zM10 17h1v-1h-1v1zM12 17h1v-1h-1v1zM4 17h1v-1h-1v1zM6 17h1v-1h-1v1zM8 17h1v-1h-1v1zM14 17h1v-1h-1v1zM14 3h1v-1h-1v1zM14 5h1v-1h-1v1zM14 13h1v-1h-1v1zM14 7h1v-1h-1v1zM14 9h1v-1h-1v1zM14 15h1v-1h-1v1zM14 11h1v-1h-1v1zM14 0v1h1v-1h-1zM12 1h1v-1h-1v1zM6 1h1v-1h-1v1zM8 1h1v-1h-1v1zM10 1h1v-1h-1v1zM4 1h1v-1h-1v1zM2 1h1v-1h-1v1zM2 13h1v-1h-1v1zM2 15h1v-1h-1v1zM2 11h1v-1h-1v1zM2 3h1v-1h-1v1zM2 5h1v-1h-1v1zM2 7h1v-1h-1v1zM2 9h1v-1h-1v1z" fill="#000000" />
</svg>
