<?xml version="1.0" encoding="utf-8"?>
<!-- Generated by IcoMoon.io -->
<!DOCTYPE svg PUBLIC "-//W3C//DTD SVG 1.1//EN" "http://www.w3.org/Graphics/SVG/1.1/DTD/svg11.dtd">
<svg version="1.1" xmlns="http://www.w3.org/2000/svg" xmlns:xlink="http://www.w3.org/1999/xlink" width="17" height="17" viewBox="0 0 17 17">
<g>
</g>
	<path d="M0 0v17h17v-17h-17zM16 16h-15v-15h15v15zM3 8h1v1h-1v-1zM3 4h1v1h-1v-1zM3 10h1v1h-1v-1zM3 6h1v1h-1v-1zM3 2h1v1h-1v-1zM3 14h1v1h-1v-1zM3 12h1v1h-1v-1zM13 2h1v1h-1v-1zM13 6h1v1h-1v-1zM13 4h1v1h-1v-1zM13 8h1v1h-1v-1zM13 10h1v1h-1v-1zM13 12h1v1h-1v-1zM13 14h1v1h-1v-1z" fill="#000000" />
</svg>
