<?xml version="1.0" encoding="utf-8"?>
<!-- Generated by IcoMoon.io -->
<!DOCTYPE svg PUBLIC "-//W3C//DTD SVG 1.1//EN" "http://www.w3.org/Graphics/SVG/1.1/DTD/svg11.dtd">
<svg version="1.1" xmlns="http://www.w3.org/2000/svg" xmlns:xlink="http://www.w3.org/1999/xlink" width="17" height="17" viewBox="0 0 17 17">
<g>
</g>
	<path d="M1 4h3v-3h-3v3zM2 2h1v1h-1v-1zM5 4h3v-3h-3v3zM6 2h1v1h-1v-1zM9 4h3v-3h-3v3zM10 2h1v1h-1v-1zM13 1v3h3v-3h-3zM15 3h-1v-1h1v1zM1 8h3v-3h-3v3zM2 6h1v1h-1v-1zM5 8h3v-3h-3v3zM6 6h1v1h-1v-1zM9 8h3v-3h-3v3zM10 6h1v1h-1v-1zM13 8h3v-3h-3v3zM14 6h1v1h-1v-1zM1 12h3v-3h-3v3zM2 10h1v1h-1v-1zM5 12h3v-3h-3v3zM6 10h1v1h-1v-1zM9 12h3v-3h-3v3zM10 10h1v1h-1v-1zM13 12h3v-3h-3v3zM14 10h1v1h-1v-1zM1 16h3v-3h-3v3zM2 14h1v1h-1v-1zM5 16h3v-3h-3v3zM6 14h1v1h-1v-1zM9 16h3v-3h-3v3zM10 14h1v1h-1v-1zM13 16h3v-3h-3v3zM14 14h1v1h-1v-1z" fill="#000000" />
</svg>
