<?xml version="1.0" encoding="utf-8"?>
<!-- Generated by IcoMoon.io -->
<!DOCTYPE svg PUBLIC "-//W3C//DTD SVG 1.1//EN" "http://www.w3.org/Graphics/SVG/1.1/DTD/svg11.dtd">
<svg version="1.1" xmlns="http://www.w3.org/2000/svg" xmlns:xlink="http://www.w3.org/1999/xlink" width="17" height="17" viewBox="0 0 17 17">
<g>
</g>
	<path d="M1 1h3v3h-3v-3zM5 4h3v-3h-3v3zM9 4h3v-3h-3v3zM13 1v3h3v-3h-3zM1 8h3v-3h-3v3zM5 8h3v-3h-3v3zM9 8h3v-3h-3v3zM13 8h3v-3h-3v3zM1 12h3v-3h-3v3zM5 12h3v-3h-3v3zM9 12h3v-3h-3v3zM13 12h3v-3h-3v3zM1 16h3v-3h-3v3zM5 16h3v-3h-3v3zM9 16h3v-3h-3v3zM13 16h3v-3h-3v3z" fill="#000000" />
</svg>
