<?xml version="1.0" encoding="utf-8"?>
<!-- Generated by IcoMoon.io -->
<!DOCTYPE svg PUBLIC "-//W3C//DTD SVG 1.1//EN" "http://www.w3.org/Graphics/SVG/1.1/DTD/svg11.dtd">
<svg version="1.1" xmlns="http://www.w3.org/2000/svg" xmlns:xlink="http://www.w3.org/1999/xlink" width="17" height="17" viewBox="0 0 17 17">
<g>
</g>
	<path d="M17 4v1h-12v-1h12zM3 4.5c0 0.827-0.673 1.5-1.5 1.5s-1.5-0.673-1.5-1.5 0.673-1.5 1.5-1.5 1.5 0.673 1.5 1.5zM2 4.5c0-0.275-0.224-0.5-0.5-0.5s-0.5 0.225-0.5 0.5 0.224 0.5 0.5 0.5 0.5-0.225 0.5-0.5zM5 9h12v-1h-12v1zM3 8.5c0 0.827-0.673 1.5-1.5 1.5s-1.5-0.673-1.5-1.5 0.673-1.5 1.5-1.5 1.5 0.673 1.5 1.5zM2 8.5c0-0.275-0.224-0.5-0.5-0.5s-0.5 0.225-0.5 0.5 0.224 0.5 0.5 0.5 0.5-0.225 0.5-0.5zM5 13h12v-1h-12v1zM3 12.5c0 0.827-0.673 1.5-1.5 1.5s-1.5-0.673-1.5-1.5 0.673-1.5 1.5-1.5 1.5 0.673 1.5 1.5zM2 12.5c0-0.275-0.224-0.5-0.5-0.5s-0.5 0.225-0.5 0.5 0.224 0.5 0.5 0.5 0.5-0.225 0.5-0.5z" fill="#000000" />
</svg>
