<?xml version="1.0" encoding="utf-8"?>
<!-- Generated by IcoMoon.io -->
<!DOCTYPE svg PUBLIC "-//W3C//DTD SVG 1.1//EN" "http://www.w3.org/Graphics/SVG/1.1/DTD/svg11.dtd">
<svg version="1.1" xmlns="http://www.w3.org/2000/svg" xmlns:xlink="http://www.w3.org/1999/xlink" width="17" height="17" viewBox="0 0 17 17">
<g>
</g>
	<path d="M1 9c0 2.206 1.711 4 3.813 4v1c-2.654 0-4.813-2.243-4.813-5s2.159-5 4.813-5h4.229l-1.646-1.646 0.707-0.707 2.854 2.853-2.853 2.854-0.708-0.708 1.647-1.646h-4.23c-2.102 0-3.813 1.794-3.813 4zM12.187 4v1c2.102 0 3.813 1.794 3.813 4s-1.711 4-3.813 4h-4.23l1.646-1.646-0.707-0.707-2.853 2.853 2.854 2.854 0.707-0.707-1.647-1.647h4.229c2.655 0 4.814-2.243 4.814-5s-2.159-5-4.813-5z" fill="#000000" />
</svg>
