<?xml version="1.0" encoding="utf-8"?>
<!-- Generated by IcoMoon.io -->
<!DOCTYPE svg PUBLIC "-//W3C//DTD SVG 1.1//EN" "http://www.w3.org/Graphics/SVG/1.1/DTD/svg11.dtd">
<svg version="1.1" xmlns="http://www.w3.org/2000/svg" xmlns:xlink="http://www.w3.org/1999/xlink" width="17" height="17" viewBox="0 0 17 17">
<g>
</g>
	<path d="M4 8c0 1.104-0.896 2-2 2s-2-0.896-2-2 0.896-2 2-2 2 0.896 2 2zM8.5 6c-1.104 0-2 0.896-2 2s0.896 2 2 2 2-0.896 2-2-0.896-2-2-2zM15 6c-1.104 0-2 0.896-2 2s0.896 2 2 2 2-0.896 2-2-0.896-2-2-2z" fill="#000000" />
</svg>
