<?xml version="1.0" encoding="utf-8"?>
<!-- Generated by IcoMoon.io -->
<!DOCTYPE svg PUBLIC "-//W3C//DTD SVG 1.1//EN" "http://www.w3.org/Graphics/SVG/1.1/DTD/svg11.dtd">
<svg version="1.1" xmlns="http://www.w3.org/2000/svg" xmlns:xlink="http://www.w3.org/1999/xlink" width="17" height="17" viewBox="0 0 17 17">
<g>
</g>
	<path d="M8.5 0c-3.033 0-5.5 2.467-5.5 5.5v6c0 3.033 2.467 5.5 5.5 5.5s5.5-2.467 5.5-5.5v-6c0-3.033-2.467-5.5-5.5-5.5zM13 5.5v0.5h-4v-4.949c2.244 0.252 4 2.139 4 4.449zM8 1.051v4.949h-4v-0.5c0-2.31 1.756-4.197 4-4.449zM8.5 16c-2.481 0-4.5-2.019-4.5-4.5v-4.5h9v4.5c0 2.481-2.019 4.5-4.5 4.5z" fill="#000000" />
</svg>
