<?xml version="1.0" encoding="utf-8"?>
<!-- Generated by IcoMoon.io -->
<!DOCTYPE svg PUBLIC "-//W3C//DTD SVG 1.1//EN" "http://www.w3.org/Graphics/SVG/1.1/DTD/svg11.dtd">
<svg version="1.1" xmlns="http://www.w3.org/2000/svg" xmlns:xlink="http://www.w3.org/1999/xlink" width="17" height="17" viewBox="0 0 17 17">
<g>
</g>
	<path d="M1 0v17h15v-17h-15zM15 16h-13v-15h2v1.092c-0.581 0.207-1 0.757-1 1.408 0 0.827 0.673 1.5 1.5 1.5s1.5-0.673 1.5-1.5c0-0.651-0.419-1.201-1-1.408v-1.092h3v1.092c-0.581 0.207-1 0.757-1 1.408 0 0.827 0.673 1.5 1.5 1.5s1.5-0.673 1.5-1.5c0-0.651-0.419-1.201-1-1.408v-1.092h3v1.092c-0.581 0.207-1 0.757-1 1.408 0 0.827 0.673 1.5 1.5 1.5s1.5-0.673 1.5-1.5c0-0.651-0.419-1.201-1-1.408v-1.092h2v15zM5 3.5c0 0.275-0.225 0.5-0.5 0.5s-0.5-0.225-0.5-0.5 0.225-0.5 0.5-0.5 0.5 0.225 0.5 0.5zM9 3.5c0 0.275-0.225 0.5-0.5 0.5s-0.5-0.225-0.5-0.5 0.225-0.5 0.5-0.5 0.5 0.225 0.5 0.5zM13 3.5c0 0.275-0.225 0.5-0.5 0.5s-0.5-0.225-0.5-0.5 0.225-0.5 0.5-0.5 0.5 0.225 0.5 0.5z" fill="#000000" />
</svg>
