<?xml version="1.0" encoding="utf-8"?>
<!-- Generated by IcoMoon.io -->
<!DOCTYPE svg PUBLIC "-//W3C//DTD SVG 1.1//EN" "http://www.w3.org/Graphics/SVG/1.1/DTD/svg11.dtd">
<svg version="1.1" xmlns="http://www.w3.org/2000/svg" xmlns:xlink="http://www.w3.org/1999/xlink" width="17" height="17" viewBox="0 0 17 17">
<g>
</g>
	<path d="M14.985 8.943l0.998 0.067c-0.263 3.92-3.55 6.99-7.483 6.99-4.136 0-7.5-3.364-7.5-7.5 0-3.905 3.047-7.19 6.938-7.479l0.074 0.997c-3.371 0.25-6.012 3.097-6.012 6.482 0 3.584 2.916 6.5 6.5 6.5 3.409 0 6.257-2.66 6.485-6.057zM17 7.499v0.5l-0.501 0.017h-7.482v-8.017l0.501 0.001c4.126 0.009 7.482 3.374 7.482 7.499zM15.986 7.016c-0.223-3.17-2.776-5.743-5.969-5.995v5.995h5.969z" fill="#000000" />
</svg>
