<?xml version="1.0" encoding="utf-8"?>
<!-- Generated by IcoMoon.io -->
<!DOCTYPE svg PUBLIC "-//W3C//DTD SVG 1.1//EN" "http://www.w3.org/Graphics/SVG/1.1/DTD/svg11.dtd">
<svg version="1.1" xmlns="http://www.w3.org/2000/svg" xmlns:xlink="http://www.w3.org/1999/xlink" width="17" height="17" viewBox="0 0 17 17">
<g>
</g>
	<path d="M11.173 17h-1c0-5.514-4.564-10-10.173-10v-1c6.161 0 11.173 4.935 11.173 11zM0 0v1c8.972 0 16 7.028 16 16h1c0-9.532-7.468-17-17-17zM4 15.001c0-1.104-0.896-2.001-1.996-2.001-1.105 0-2.004 0.897-2.004 2.001 0 1.103 0.899 1.999 2.004 1.999 1.1 0 1.996-0.896 1.996-1.999zM3 15.001c0 0.551-0.447 0.999-0.996 0.999-0.554 0-1.004-0.448-1.004-0.999 0-0.552 0.45-1.001 1.004-1.001 0.549 0 0.996 0.449 0.996 1.001z" fill="#000000" />
</svg>
