<?xml version="1.0" encoding="utf-8"?>
<!-- Generated by IcoMoon.io -->
<!DOCTYPE svg PUBLIC "-//W3C//DTD SVG 1.1//EN" "http://www.w3.org/Graphics/SVG/1.1/DTD/svg11.dtd">
<svg version="1.1" xmlns="http://www.w3.org/2000/svg" xmlns:xlink="http://www.w3.org/1999/xlink" width="17" height="17" viewBox="0 0 17 17">
<g>
</g>
	<path d="M17 3.5c0-2.273-4.38-3.5-8.5-3.5s-8.5 1.227-8.5 3.5c0 0.149 0.024 0.318 0.080 0.5h-0.080v9.5c0 2.273 4.38 3.5 8.5 3.5s8.5-1.227 8.5-3.5v-9.5h-0.080c0.056-0.182 0.080-0.351 0.080-0.5zM8.5 1c4.293 0 7.5 1.32 7.5 2.5 0 0.398-0.388 0.835-1.093 1.229-1.419 0.796-3.814 1.271-6.407 1.271s-4.988-0.475-6.407-1.271c-0.705-0.394-1.093-0.831-1.093-1.229 0-1.18 3.207-2.5 7.5-2.5zM8.5 16c-4.293 0-7.5-1.32-7.5-2.5v-1.633c0.175 0.135 0.367 0.271 0.604 0.403 1.562 0.874 4.14 1.396 6.896 1.396 0.345 0 0.687-0.008 1.023-0.024 2.361-0.111 4.505-0.607 5.872-1.372v0c0-0.001 0.001-0.001 0.001-0.001 0.236-0.133 0.43-0.268 0.604-0.403v1.634c0 1.18-3.207 2.5-7.5 2.5zM14.907 11.397c-1.42 0.795-3.814 1.27-6.407 1.27-0.324 0-0.646-0.008-0.962-0.022-2.214-0.102-4.203-0.552-5.445-1.247v0c-0.704-0.396-1.093-0.833-1.093-1.231v-1.634c0.175 0.135 0.368 0.271 0.605 0.403 1.561 0.874 4.139 1.396 6.895 1.396s5.334-0.522 6.895-1.396c0.237-0.132 0.43-0.268 0.605-0.403v1.634c0 0.398-0.389 0.835-1.093 1.23zM14.906 8.063c-1.419 0.795-3.813 1.27-6.406 1.27s-4.987-0.475-6.406-1.27c-0.705-0.394-1.094-0.832-1.094-1.23v-1.634c0.175 0.136 0.367 0.271 0.604 0.404 1.562 0.875 4.139 1.397 6.896 1.397s5.334-0.522 6.896-1.397c0.237-0.133 0.429-0.268 0.604-0.404v1.634c0 0.398-0.389 0.836-1.094 1.23z" fill="#000000" />
</svg>
