<?xml version="1.0" encoding="utf-8"?>
<!-- Generated by IcoMoon.io -->
<!DOCTYPE svg PUBLIC "-//W3C//DTD SVG 1.1//EN" "http://www.w3.org/Graphics/SVG/1.1/DTD/svg11.dtd">
<svg version="1.1" xmlns="http://www.w3.org/2000/svg" xmlns:xlink="http://www.w3.org/1999/xlink" width="17" height="17" viewBox="0 0 17 17">
<g>
</g>
	<path d="M8.5 5.972c-1.378 0-2.5 1.122-2.5 2.5s1.122 2.5 2.5 2.5 2.5-1.122 2.5-2.5-1.122-2.5-2.5-2.5zM8.5 9.972c-0.827 0-1.5-0.673-1.5-1.5s0.673-1.5 1.5-1.5 1.5 0.673 1.5 1.5-0.673 1.5-1.5 1.5zM16.94 9.446c0.037-0.321 0.060-0.645 0.060-0.974s-0.023-0.653-0.060-0.974l-2.588-0.778c-0.119-0.402-0.278-0.787-0.474-1.149l1.279-2.377c-0.406-0.51-0.869-0.973-1.38-1.38l-2.377 1.28c-0.363-0.196-0.748-0.354-1.15-0.474l-0.776-2.588c-0.32-0.037-0.644-0.060-0.974-0.060s-0.654 0.023-0.974 0.060l-0.776 2.588c-0.403 0.119-0.789 0.278-1.15 0.475l-2.377-1.28c-0.511 0.406-0.974 0.869-1.379 1.38l1.279 2.375c-0.196 0.362-0.354 0.748-0.474 1.15l-2.589 0.778c-0.037 0.32-0.060 0.644-0.060 0.974s0.023 0.654 0.060 0.974l2.588 0.776c0.12 0.403 0.278 0.789 0.474 1.151l-1.279 2.376c0.406 0.511 0.869 0.974 1.38 1.38l2.377-1.279c0.362 0.196 0.748 0.354 1.15 0.474l0.776 2.588c0.321 0.037 0.645 0.060 0.974 0.060s0.654-0.023 0.974-0.060l0.776-2.588c0.402-0.12 0.788-0.278 1.15-0.474l2.376 1.279c0.511-0.407 0.974-0.87 1.38-1.381l-1.278-2.376c0.196-0.362 0.354-0.748 0.474-1.15l2.588-0.776zM13.548 9.419l-0.154 0.518c-0.1 0.337-0.233 0.66-0.396 0.959l-0.256 0.475 0.255 0.475 0.952 1.77c-0.099 0.105-0.201 0.207-0.306 0.306l-2.243-1.209-0.475 0.256c-0.301 0.163-0.624 0.295-0.96 0.396l-0.518 0.154-0.155 0.518-0.579 1.932c-0.072 0.002-0.143 0.003-0.213 0.003s-0.141-0.001-0.213-0.003l-0.579-1.932-0.155-0.518-0.518-0.154c-0.336-0.1-0.659-0.233-0.959-0.396l-0.475-0.256-2.245 1.207c-0.104-0.099-0.207-0.201-0.306-0.306l1.208-2.244-0.256-0.475c-0.162-0.3-0.295-0.623-0.396-0.96l-0.153-0.517-2.449-0.734c-0.003-0.072-0.004-0.143-0.004-0.212 0-0.070 0.001-0.141 0.004-0.213l2.448-0.734 0.154-0.518c0.1-0.337 0.233-0.66 0.396-0.959l0.256-0.475-1.208-2.245c0.099-0.104 0.201-0.207 0.305-0.306l2.247 1.21 0.476-0.259c0.297-0.162 0.619-0.295 0.956-0.395l0.518-0.154 0.155-0.518 0.579-1.932c0.073-0.001 0.144-0.002 0.214-0.002s0.141 0.001 0.213 0.003l0.579 1.932 0.155 0.518 0.518 0.154c0.335 0.1 0.659 0.233 0.96 0.396l0.475 0.255 2.244-1.208c0.104 0.099 0.207 0.201 0.306 0.306l-0.953 1.77-0.255 0.475 0.257 0.475c0.163 0.3 0.295 0.622 0.395 0.957l0.154 0.518 0.518 0.155 1.932 0.581c0.001 0.072 0.002 0.143 0.002 0.213s-0.001 0.141-0.004 0.213l-2.448 0.734z" fill="#000000" />
</svg>
