<?xml version="1.0" encoding="utf-8"?>
<!-- Generated by IcoMoon.io -->
<!DOCTYPE svg PUBLIC "-//W3C//DTD SVG 1.1//EN" "http://www.w3.org/Graphics/SVG/1.1/DTD/svg11.dtd">
<svg version="1.1" xmlns="http://www.w3.org/2000/svg" xmlns:xlink="http://www.w3.org/1999/xlink" width="17" height="17" viewBox="0 0 17 17">
<g>
</g>
	<path d="M16.5 13.168c0 1.843-1.49 3.332-3.333 3.332-1.844 0-3.333-1.489-3.333-3.332 0-0.116 0.010-0.24 0.020-0.354l-3.75-1.876c-0.593 0.552-1.396 0.896-2.271 0.896-1.844 0-3.333-1.489-3.333-3.334 0-1.843 1.489-3.332 3.333-3.332 0.875 0 1.677 0.343 2.271 0.895l3.75-1.874c-0.010-0.116-0.020-0.24-0.020-0.354 0-1.845 1.489-3.334 3.333-3.334 1.843 0 3.333 1.489 3.333 3.334 0 1.844-1.49 3.333-3.333 3.333-0.875 0-1.677-0.344-2.271-0.896l-3.75 1.875c0.010 0.115 0.021 0.24 0.021 0.354 0 0.115-0.011 0.24-0.021 0.354l3.75 1.877c0.594-0.553 1.397-0.897 2.271-0.897 1.843-0.002 3.333 1.487 3.333 3.333z" fill="#000000" />
</svg>
