<?xml version="1.0" encoding="utf-8"?>
<!-- Generated by IcoMoon.io -->
<!DOCTYPE svg PUBLIC "-//W3C//DTD SVG 1.1//EN" "http://www.w3.org/Graphics/SVG/1.1/DTD/svg11.dtd">
<svg version="1.1" xmlns="http://www.w3.org/2000/svg" xmlns:xlink="http://www.w3.org/1999/xlink" width="17" height="17" viewBox="0 0 17 17">
<g>
</g>
	<path d="M11.5 4c0-1.654-1.346-3-3-3s-3 1.346-3 3c0 1.483 1.084 2.71 2.5 2.949v8.051h-2v1h5v-1h-2v-8.051c1.416-0.239 2.5-1.466 2.5-2.949zM6.5 4c0-1.103 0.897-2 2-2s2 0.897 2 2-0.897 2-2 2-2-0.897-2-2zM4.504 2.192c-0.378 0.46-0.577 1.004-0.577 1.574s0.199 1.114 0.577 1.574l-0.774 0.636c-0.525-0.641-0.803-1.405-0.803-2.209s0.278-1.569 0.803-2.209l0.774 0.634zM2 3.767c0 1.079 0.387 2.096 1.119 2.938l-0.754 0.656c-0.881-1.012-1.365-2.29-1.365-3.594s0.484-2.582 1.365-3.595l0.754 0.656c-0.732 0.843-1.119 1.86-1.119 2.939zM14.073 3.767c0 0.805-0.278 1.568-0.804 2.209l-0.773-0.635c0.378-0.46 0.577-1.004 0.577-1.574s-0.199-1.114-0.577-1.574l0.773-0.635c0.526 0.64 0.804 1.404 0.804 2.209zM16 3.767c0 1.305-0.484 2.582-1.365 3.595l-0.754-0.656c0.732-0.844 1.119-1.86 1.119-2.939s-0.387-2.096-1.119-2.938l0.754-0.656c0.881 1.012 1.365 2.289 1.365 3.594z" fill="#000000" />
</svg>
