<?xml version="1.0" encoding="utf-8"?>
<!-- Generated by IcoMoon.io -->
<!DOCTYPE svg PUBLIC "-//W3C//DTD SVG 1.1//EN" "http://www.w3.org/Graphics/SVG/1.1/DTD/svg11.dtd">
<svg version="1.1" xmlns="http://www.w3.org/2000/svg" xmlns:xlink="http://www.w3.org/1999/xlink" width="17" height="17" viewBox="0 0 17 17">
<g>
</g>
	<path d="M8.953 1.008l-3.967 2.882v12.14l3.986-2.794 4.041 2.785v-12.135l-4.060-2.878zM12.014 14.117l-3.045-2.1-2.982 2.091v-9.709l2.975-2.161 3.053 2.165v9.714zM7.254 6.001c0 0.965 0.785 1.75 1.75 1.75s1.75-0.785 1.75-1.75-0.785-1.75-1.75-1.75-1.75 0.785-1.75 1.75zM9.004 5.251c0.413 0 0.75 0.337 0.75 0.75s-0.337 0.75-0.75 0.75-0.75-0.337-0.75-0.75 0.337-0.75 0.75-0.75z" fill="#000000" />
</svg>
