<?xml version="1.0" encoding="utf-8"?>
<!-- Generated by IcoMoon.io -->
<!DOCTYPE svg PUBLIC "-//W3C//DTD SVG 1.1//EN" "http://www.w3.org/Graphics/SVG/1.1/DTD/svg11.dtd">
<svg version="1.1" xmlns="http://www.w3.org/2000/svg" xmlns:xlink="http://www.w3.org/1999/xlink" width="17" height="17" viewBox="0 0 17 17">
<g>
</g>
	<path d="M2.628 6.814c-0.092 0-0.219 0.003-0.299 0.017l-0.024 0.004-0.012 0.021c-0.408 0.748-1.22 2.934-1.349 3.256-0.28-0.020-0.653-0.019-0.653-0.374 0-0.258 0.904-2.37 1.029-2.717l0.024-0.066h-0.070c-0.084 0-0.166 0.005-0.246 0.011-0.075 0.005-0.146 0.010-0.215 0.010-0.182 0-0.741 0.022-0.808-0.427-0.027-0.186 0.050-0.389 0.139-0.488 0.017 0.244 0.397 0.233 0.5 0.233 0.227 0 0.707-0.095 1.011-0.134 0.353-0.045 0.749-0.148 1.113-0.148 0.365 0 0.63 0.222 0.63 0.526 0 0.106-0.034 0.223-0.099 0.337-0.193-0.044-0.477-0.061-0.671-0.061zM6.524 9.588c-0.207 0.049-0.467 0.026-0.467-0.4 0.002-0.52 0.573-1.123 0.858-1.123 0.051 0 0.201 0.037 0.168 0.203-0.175 0.883-0.98 0.746-0.919 0.847 0.29 0.482 1.711-0.234 1.573-1.248-0.046-0.346-0.255-0.579-0.654-0.579-0.74 0-1.587 1.099-1.737 1.908-0.303 0.308-0.647 0.286-0.673 0.283-0.021-0.029-0.022-0.087 0.013-0.203 0.062-0.204 0.205-0.515 0.369-0.79 0.154-0.257 0.315-0.525 0.315-0.723 0-0.239-0.141-0.36-0.417-0.36-0.361 0-1.025 0.442-1.025 0.442 0.026-0.211 0.697-1.568 0.697-1.751 0-0.214-0.097-0.361-0.363-0.361-0.069 0-0.271 0.069-0.387 0.111-0.111 0.854-0.553 1.559-0.728 1.95-0.327 0.729-0.689 1.492-0.689 1.81 0 0.3 0.289 0.587 0.601 0.6 0.28-1.058 0.964-2.206 1.433-2.206 0 0-0.541 1.127-0.541 1.643 0 0.254 0.054 0.515 0.453 0.515 0.002 0 0.004 0 0.006 0 0.361 0.037 0.752-0.451 0.915-0.682 0.022 0.549 0.501 0.61 0.71 0.61 0.609 0 1.148-0.371 1.557-1.029-0.227 0.188-0.785 0.466-1.068 0.533zM10.711 9.251c0.021-0.082 0.080-0.245 0.222-0.52 0.178-0.346 0.421-0.818 0.421-1.104 0-0.167-0.079-0.241-0.258-0.241-0.229 0-0.557 0.209-0.857 0.545l-0.084 0.093v-0.127c0-0.332-0.098-0.5-0.288-0.5-0.244 0-0.643 0.276-1.014 0.704 0 0 0.076-0.382 0.076-0.505 0-0.26-0.228-0.298-0.363-0.298-0.072 0-0.147 0.009-0.225 0.026-0.025 0.291-0.3 0.929-0.543 1.495-0.157 0.367-0.319 0.744-0.319 0.827 0 0.266 0.181 0.438 0.459 0.438 0.014 0 0.028 0 0.043-0.001 0.205-0.689 0.754-1.7 1.143-1.7h0.067l-0.023 0.065c-0.055 0.167-0.142 0.331-0.227 0.49-0.143 0.268-0.276 0.521-0.276 0.791 0 0.22 0.205 0.339 0.398 0.339 0.049 0 0.089-0.005 0.124-0.015 0.141-0.639 0.877-1.713 1.182-1.713h0.090l-0.050 0.077c-0.090 0.142-0.454 0.817-0.454 1.296 0 0.298 0.146 0.442 0.444 0.442 0.414 0 0.71-0.382 0.826-0.797-0.135 0.093-0.253 0.112-0.379 0.112-0.101 0.001-0.185-0.020-0.135-0.219zM12.534 9.571c-0.221 0.183-0.522 0.018-0.527-0.15-0.004-0.184 0.158-0.511 0.359-0.903 0.158-0.311 0.363-0.523 0.344-0.68-0.026-0.222-0.331-0.396-0.521-0.396-0.017 0-0.033 0.001-0.050 0.003-0.009 0-0.016 0.001-0.023 0.001-0.104 0.268-0.238 0.558-0.368 0.84-0.232 0.503-0.452 0.979-0.452 1.228 0 0.312 0.211 0.65 0.552 0.65 0.356-0.018 0.542-0.173 0.686-0.593zM12.637 7.101c0.092 0 0.202-0.010 0.323-0.028 0.157-0.191 0.236-0.352 0.236-0.477 0-0.129-0.202-0.2-0.784-0.205-0.184 0.186-0.174 0.32-0.174 0.469 0.001 0.161 0.132 0.241 0.399 0.241zM16.389 7.199l-0.030 0.001-0.004 0.028c-0.063 0.48-1.049 2.104-1.232 1.643-0.041-0.104 0.076-0.382 0.175-0.613 0.113-0.264 0.24-0.563 0.227-0.731-0.003-0.038-0.016-0.070-0.035-0.098-0.011-0.024-0.032-0.051-0.070-0.075-0.031-0.020-0.072-0.035-0.123-0.048-0.117-0.034-0.26-0.040-0.376-0.036-0.132-0.002-0.277 0.003-0.425 0.012l0.009-0.027c0.141-0.46 0.516-0.889 0.622-0.954 0.261-0.161 0.61-0.2 0.688 0.156 0.066-0.15 0.085-0.193 0.066-0.306-0.056-0.345-0.312-0.532-0.715-0.554-0.732-0.038-1.255 1.033-1.506 1.646l-0.006 0.014-0.012 0.009c-0.071 0.050-0.203 0.083-0.282 0.104-0.017 0.004-0.030 0.008-0.039 0.011-0.153 0.055-0.185 0.204-0.188 0.271-0.004 0.111 0.129 0.193 0.188 0.294 0 0-0.258 0.641-0.445 1.030-0.293 0.607-0.759 1.635-0.767 1.864-0.011 0.279 0.396 0.537 0.618 0.566 0.068-0.466 1.383-3.436 1.383-3.436 0.047-0.072 0.127-0.172 0.253-0.248 0.118-0.048 0.208-0.064 0.277-0.062 0.017 0.004 0.030 0.009 0.042 0.016 0.036 0.020 0.059 0.051 0.072 0.082-0.045 0.16-0.104 0.329-0.163 0.495-0.128 0.362-0.296 0.92-0.274 1.181 0.014 0.167 0.029 0.246 0.118 0.338 0.267 0.274 0.936-0.196 1.135-0.464l0.033 0.014c-0.238 0.678-0.604 1.137-0.995 1.149-0.521 0.018-0.738-0.319-0.738-0.319s-0.088 0.324 0.263 0.683c0.157 0.16 0.39 0.226 0.628 0.208 0.016-0.001 0.032-0.003 0.048-0.004 0.96-0.104 1.378-1.193 1.715-2.217 0.047-0.144 0.209-0.525 0.257-0.662 0.027-0.074 0.061-0.154 0.093-0.231l0.004-0.009c0.076-0.185 0.126-0.31 0.122-0.373-0.021-0.237-0.323-0.355-0.611-0.348z" fill="#000000" />
</svg>
