<?xml version="1.0" encoding="utf-8"?>
<!-- Generated by IcoMoon.io -->
<!DOCTYPE svg PUBLIC "-//W3C//DTD SVG 1.1//EN" "http://www.w3.org/Graphics/SVG/1.1/DTD/svg11.dtd">
<svg version="1.1" xmlns="http://www.w3.org/2000/svg" xmlns:xlink="http://www.w3.org/1999/xlink" width="17" height="17" viewBox="0 0 17 17">
<g>
</g>
	<path d="M6.096 1.85c-9.586 2.996-5.316 9.618-4.059 10.272 2.131 1.105-1.152 3.574-1.152 3.574s2.817-0.824 6.404-1.192c4.312-0.44 9.156-1.068 9.592-3.467 0.799-4.393-2.397-11.807-10.785-9.187zM10 5c0.552 0 1 0.447 1 1 0 0.551-0.448 1-1 1-0.553 0-1-0.449-1-1 0-0.553 0.447-1 1-1zM5 5.5c0.552 0 1 0.449 1 1s-0.448 1-1 1-1-0.449-1-1 0.448-1 1-1zM3.7 9.45c3.2 2.864 9.6-0.95 9.6-0.95-5.542 6.142-9.6 0.95-9.6 0.95z" fill="#000000" />
</svg>
