<?xml version="1.0" encoding="utf-8"?>
<!-- Generated by IcoMoon.io -->
<!DOCTYPE svg PUBLIC "-//W3C//DTD SVG 1.1//EN" "http://www.w3.org/Graphics/SVG/1.1/DTD/svg11.dtd">
<svg version="1.1" xmlns="http://www.w3.org/2000/svg" xmlns:xlink="http://www.w3.org/1999/xlink" width="17" height="17" viewBox="0 0 17 17">
<g>
</g>
	<path d="M15.253 5.038c0.011 0.151 0.011 0.302 0.011 0.454 0 4.605-3.506 9.912-9.913 9.912-1.974 0-3.808-0.572-5.351-1.564 0.281 0.032 0.551 0.042 0.842 0.042 1.629 0 3.127-0.55 4.325-1.488-1.532-0.032-2.815-1.036-3.257-2.417 0.215 0.032 0.431 0.054 0.656 0.054 0.314 0 0.627-0.043 0.918-0.118-1.596-0.324-2.794-1.726-2.794-3.419 0-0.011 0-0.033 0-0.043 0.464 0.258 1.003 0.42 1.575 0.442-0.938-0.626-1.553-1.694-1.553-2.901 0-0.647 0.173-1.241 0.475-1.759 1.715 2.115 4.293 3.496 7.184 3.646-0.055-0.259-0.087-0.529-0.087-0.799 0-1.919 1.554-3.483 3.484-3.483 1.003 0 1.909 0.42 2.546 1.1 0.787-0.151 1.541-0.442 2.211-0.841-0.259 0.809-0.809 1.489-1.532 1.919 0.702-0.075 1.381-0.269 2.007-0.539-0.475 0.69-1.068 1.306-1.747 1.802z" fill="#000000" />
</svg>
