<?xml version="1.0" encoding="utf-8"?>
<!-- Generated by IcoMoon.io -->
<!DOCTYPE svg PUBLIC "-//W3C//DTD SVG 1.1//EN" "http://www.w3.org/Graphics/SVG/1.1/DTD/svg11.dtd">
<svg version="1.1" xmlns="http://www.w3.org/2000/svg" xmlns:xlink="http://www.w3.org/1999/xlink" width="17" height="17" viewBox="0 0 17 17">
<g>
</g>
	<path d="M5 0v4h12v-4h-12zM16 3h-10v-2h10v2zM5 10h12v-4h-12v4zM6 7h10v2h-10v-2zM5 16h12v-4h-12v4zM6 13h10v2h-10v-2zM0 4h4v-4h-4v4zM1 1h2v2h-2v-2zM0 10h4v-4h-4v4zM1 7h2v2h-2v-2zM0 16h4v-4h-4v4zM1 13h2v2h-2v-2z" fill="#000000" />
</svg>
