<?xml version="1.0" encoding="utf-8"?>
<!-- Generated by IcoMoon.io -->
<!DOCTYPE svg PUBLIC "-//W3C//DTD SVG 1.1//EN" "http://www.w3.org/Graphics/SVG/1.1/DTD/svg11.dtd">
<svg version="1.1" xmlns="http://www.w3.org/2000/svg" xmlns:xlink="http://www.w3.org/1999/xlink" width="17" height="17" viewBox="0 0 17 17">
<g>
</g>
	<path d="M16.132 2.301c-0.58-0.736-1.796-0.764-2.645-0.637-0.68 0.113-2.998 1.131-3.777 3.579 1.387-0.113 2.12 0.101 1.98 1.627-0.058 0.65-0.383 1.344-0.736 2.024-0.426 0.776-1.201 2.305-2.235 1.201-0.919-0.99-0.863-2.885-1.060-4.144-0.129-0.708-0.255-1.585-0.482-2.32-0.199-0.623-0.666-1.371-1.216-1.542-0.608-0.171-1.359 0.099-1.797 0.353-1.389 0.822-2.306 1.982-3.664 2.943v0.1c0.452 0.227 0.312 0.594 0.665 0.651 0.835 0.112 1.625-0.78 2.179 0.154 0.339 0.565 0.438 1.188 0.649 1.798 0.296 0.819 0.511 1.711 0.75 2.645 0.396 1.6 0.878 3.975 2.263 4.557 0.695 0.297 1.756-0.1 2.279-0.426 1.441-0.85 2.59-2.080 3.536-3.352 2.221-2.973 3.424-6.367 3.608-7.343 0.127-0.666 0.113-1.345-0.297-1.868z" fill="#000000" />
</svg>
