<?xml version="1.0" encoding="utf-8"?>
<!-- Generated by IcoMoon.io -->
<!DOCTYPE svg PUBLIC "-//W3C//DTD SVG 1.1//EN" "http://www.w3.org/Graphics/SVG/1.1/DTD/svg11.dtd">
<svg version="1.1" xmlns="http://www.w3.org/2000/svg" xmlns:xlink="http://www.w3.org/1999/xlink" width="17" height="17" viewBox="0 0 17 17">
<g>
</g>
	<path d="M10.901 12.85l0.977 0.213c-0.505 2.318-2.511 3.937-4.878 3.937-2.757 0-5-2.243-5-5 0-2.27 1.531-4.259 3.725-4.836l0.254 0.967c-1.754 0.462-2.979 2.053-2.979 3.869 0 2.206 1.794 4 4 4 1.893 0 3.497-1.295 3.901-3.15zM16 15.121v1h-1.868l-0.955-4.118h-6.158l-0.544-8.082c-0.847-0.233-1.475-1.001-1.475-1.921 0-1.103 0.897-2 2-2s2 0.897 2 2c0 0.938-0.65 1.72-1.521 1.936l0.27 4.011 3.632-0.901 0.24 0.971-3.805 0.943 0.138 2.042h6.018l0.955 4.118h1.073zM7 3c0.552 0 1-0.449 1-1s-0.448-1-1-1-1 0.449-1 1 0.448 1 1 1z" fill="#000000" />
</svg>
