<?xml version="1.0" encoding="utf-8"?>
<!-- Generated by IcoMoon.io -->
<!DOCTYPE svg PUBLIC "-//W3C//DTD SVG 1.1//EN" "http://www.w3.org/Graphics/SVG/1.1/DTD/svg11.dtd">
<svg version="1.1" xmlns="http://www.w3.org/2000/svg" xmlns:xlink="http://www.w3.org/1999/xlink" width="17" height="17" viewBox="0 0 17 17">
<g>
</g>
	<path d="M2 0h1v1h-1v-1zM5 0h-1v1h1v-1zM7 0h-1v1h1v-1zM9 0h-1v1h1v-1zM11 0h-1v1h1v-1zM13 0h-1v1h1v-1zM14 1h1v-1h-1v1zM2 17h1v-1h-1v1zM4 17h1v-1h-1v1zM6 17h1v-1h-1v1zM8 17h1v-1h-1v1zM10 17h1v-1h-1v1zM12 17h1v-1h-1v1zM14 17h1v-1h-1v1zM16 0v1h1v-1h-1zM16 3h1v-1h-1v1zM16 5h1v-1h-1v1zM16 7h1v-1h-1v1zM16 9h1v-1h-1v1zM16 11h1v-1h-1v1zM16 13h1v-1h-1v1zM16 15h1v-1h-1v1zM16 17h1v-1h-1v1zM0 1h1v-1h-1v1zM0 3h1v-1h-1v1zM0 5h1v-1h-1v1zM0 7h1v-1h-1v1zM0 9h1v-1h-1v1zM0 11h1v-1h-1v1zM0 13h1v-1h-1v1zM0 15h1v-1h-1v1zM0 17h1v-1h-1v1zM13.465 7.929c0.021 0.187 0.035 0.377 0.035 0.571s-0.014 0.384-0.035 0.571l-0.037 0.328-1.439 0.432c-0.025 0.065-0.051 0.129-0.080 0.193l0.711 1.322-0.205 0.258c-0.238 0.299-0.511 0.572-0.811 0.811l-0.258 0.206-1.322-0.712c-0.063 0.028-0.128 0.055-0.193 0.080l-0.431 1.438-0.327 0.038c-0.188 0.022-0.379 0.035-0.573 0.035s-0.385-0.013-0.573-0.035l-0.327-0.038-0.432-1.438c-0.065-0.025-0.129-0.051-0.193-0.080l-1.323 0.711-0.258-0.205c-0.299-0.238-0.572-0.511-0.81-0.811l-0.204-0.257 0.711-1.322c-0.029-0.065-0.055-0.129-0.080-0.194l-1.439-0.432-0.037-0.328c-0.021-0.187-0.035-0.377-0.035-0.571s0.014-0.384 0.035-0.571l0.037-0.328 1.439-0.432c0.025-0.065 0.051-0.129 0.080-0.193l-0.711-1.322 0.204-0.258c0.237-0.298 0.51-0.571 0.811-0.811l0.258-0.206 1.322 0.712c0.063-0.029 0.128-0.055 0.193-0.080l0.432-1.438 0.327-0.038c0.376-0.044 0.77-0.044 1.146 0l0.327 0.038 0.432 1.438c0.065 0.024 0.129 0.051 0.193 0.080l1.322-0.712 0.258 0.206c0.299 0.238 0.572 0.511 0.81 0.81l0.205 0.258-0.711 1.323c0.028 0.063 0.055 0.128 0.080 0.192l1.439 0.433 0.037 0.328zM12.5 8.5c0-0.045-0.001-0.090-0.003-0.135l-1.303-0.391-0.076-0.26c-0.052-0.175-0.123-0.348-0.211-0.512l-0.127-0.237 0.642-1.193c-0.062-0.066-0.126-0.131-0.193-0.193l-1.192 0.642-0.239-0.128c-0.164-0.088-0.337-0.16-0.513-0.212l-0.26-0.077-0.39-1.301c-0.089-0.004-0.181-0.004-0.27 0l-0.39 1.302-0.26 0.077c-0.178 0.053-0.35 0.124-0.512 0.211l-0.237 0.129-1.194-0.643c-0.067 0.063-0.131 0.127-0.193 0.193l0.642 1.193-0.128 0.237c-0.088 0.164-0.16 0.336-0.212 0.514l-0.077 0.259-1.301 0.39c-0.002 0.045-0.003 0.090-0.003 0.135s0.001 0.090 0.003 0.134l1.302 0.391 0.077 0.26c0.052 0.177 0.124 0.35 0.212 0.514l0.127 0.237-0.642 1.193c0.062 0.066 0.126 0.131 0.193 0.193l1.193-0.642 0.237 0.127c0.164 0.088 0.337 0.16 0.513 0.212l0.26 0.077 0.391 1.302c0.089 0.004 0.181 0.004 0.27 0l0.391-1.301 0.259-0.077c0.177-0.052 0.35-0.124 0.514-0.212l0.237-0.127 1.192 0.642c0.067-0.062 0.131-0.127 0.193-0.193l-0.642-1.193 0.127-0.237c0.088-0.164 0.16-0.336 0.212-0.514l0.077-0.259 1.301-0.391c0.002-0.046 0.003-0.091 0.003-0.136z" fill="#000000" />
</svg>
