<svg xmlns="http://www.w3.org/2000/svg" width="200" height="90" viewBox="0 0 200 90">
    <g fill="none" fill-rule="evenodd" transform="translate(53)">
        <path fill="#000" fill-rule="nonzero" d="M32.083 73.597a4.276 4.276 0 0 0-2.61-3.965 4.236 4.236 0 0 0-4.641.912 4.292 4.292 0 0 0-.932 4.662 4.252 4.252 0 0 0 3.93 2.644 4.028 4.028 0 0 0 3.067-1.176 4.073 4.073 0 0 0 1.186-3.077m-12.656 0c0-4.5 3.513-7.874 8.404-7.874 4.89 0 8.415 3.453 8.415 7.874 0 4.422-3.491 7.943-8.415 7.943-4.924 0-8.404-3.454-8.404-7.943M12.757 74.419c0 1.856-1.869 3.375-4.241 3.375a3.96 3.96 0 0 1-3.166-1.106 4.005 4.005 0 0 1-1.198-3.147c0-2.452 1.79-4.14 4.532-4.14 2.17 0 4.073 1.541 4.073 3.285v1.733zm.168-8.764v1.778a6.693 6.693 0 0 0-4.98-1.767A7.677 7.677 0 0 0 2.307 67.9 7.761 7.761 0 0 0 .022 73.54a7.896 7.896 0 0 0 2.345 5.713 7.81 7.81 0 0 0 5.724 2.252 6.382 6.382 0 0 0 4.834-1.834v1.53c0 2.06-1.757 3.567-4.073 3.567a6.404 6.404 0 0 1-4.89-1.8L1.252 85.6a10.355 10.355 0 0 0 7.7 3.015c4.744 0 8-3.217 8-7.504V65.655h-4.028z"/>
        <path fill="#231F20" fill-rule="nonzero" d="M42.58 79.627v1.474h-3.85V60.413h4.163v6.85a7.082 7.082 0 0 1 4.834-1.608 7.744 7.744 0 0 1 5.64 2.242 7.829 7.829 0 0 1 2.317 5.633 7.75 7.75 0 0 1-2.306 5.746 7.665 7.665 0 0 1-5.763 2.197 6.516 6.516 0 0 1-5.024-1.902l-.011.056zm4.554-10.293c-2.238 0-4.24 1.474-4.24 3.262v1.901c0 1.846 1.88 3.376 4.24 3.376 2.708 0 4.476-1.643 4.476-4.23a4.174 4.174 0 0 0-1.273-3.167 4.127 4.127 0 0 0-3.203-1.142zM57.844 59.422h4.308v4.186h-4.308v-4.185zm.09 6.66h4.162v15.02h-4.163v-15.02zM64.905 60.413h4.163V81.1h-4.163zM71.81 60.413h4.162V81.1H71.81zM81.825 75.285c.582 1.935 2.104 2.891 4.476 2.891 2.17 0 3.357-.472 3.357-1.305 0-.832-.895-1.271-3.682-1.698-5.45-.844-7.385-2.183-7.385-4.872s2.753-4.646 6.86-4.646c3.737 0 7.139 1.924 7.922 4.5L89.58 71.28a4.237 4.237 0 0 0-4.163-2.351c-1.712 0-2.842.517-2.842 1.305 0 .787.794 1.125 4.084 1.642 5.025.799 7.016 2.183 7.016 4.905 0 2.723-2.976 4.68-7.441 4.68a10.12 10.12 0 0 1-5.595-1.451 5.96 5.96 0 0 1-2.82-3.848l4.006-.877z"/>
        <ellipse cx="44.93" cy="27.81" fill="#00AED6" fill-rule="nonzero" rx="26.6" ry="26.741"/>
        <path fill="#FFF" d="M57.71 19.125a6.143 6.143 0 0 0-4.936-5.625 53.93 53.93 0 0 0-7.833-.563c-2.621 0-5.239.188-7.833.563a6.132 6.132 0 0 0-4.913 5.625c-.795 6.863-.795 16.166 1.119 21.724a.78.78 0 0 0 1.298.349 42.797 42.797 0 0 0 2.988-3.376.736.736 0 0 1 1.265.248 42.62 42.62 0 0 0 1.868 4.061.75.75 0 0 0 1.298.124 58.327 58.327 0 0 0 2.418-3.713.649.649 0 0 1 .537-.36.638.638 0 0 1 .526.36 46.805 46.805 0 0 0 2.428 3.713.748.748 0 0 0 1.298-.124c.716-1.327 1.298-2.7 1.869-4.061a.725.725 0 1 1 1.265-.248 80.834 80.834 0 0 0 2.987 3.376.78.78 0 0 0 1.298-.35c1.858-5.512 1.858-14.85 1.052-21.723zM46.775 28.8h-9.601a1.122 1.122 0 0 1-1.12-1.125c0-.621.502-1.125 1.12-1.125h9.601c.618 0 1.12.504 1.12 1.125s-.502 1.125-1.12 1.125zm5.909-5.94h-15.51a1.122 1.122 0 0 1-1.12-1.125c0-.621.502-1.125 1.12-1.125h15.51c.618 0 1.119.504 1.119 1.125s-.501 1.125-1.12 1.125z"/>
        <path d="M0 0h94v90H0z"/>
    </g>
</svg>
