<svg xmlns="http://www.w3.org/2000/svg" width="200" height="90" viewBox="0 0 200 90">
    <g fill="none" fill-rule="nonzero" transform="translate(53)">
        <path fill="#000" d="M32.337 73.89a4.264 4.264 0 0 0-2.614-3.947 4.234 4.234 0 0 0-4.631.917 4.276 4.276 0 0 0-.926 4.648 4.247 4.247 0 0 0 3.924 2.635 4.036 4.036 0 0 0 3.063-1.18 4.07 4.07 0 0 0 1.184-3.073m-12.661 0c0-4.5 3.518-7.942 8.414-7.942 4.897 0 8.415 3.465 8.415 7.942 0 4.478-3.484 7.942-8.415 7.942-4.93 0-8.414-3.464-8.414-7.942M12.998 74.711c0 1.856-1.872 3.375-4.258 3.375a3.968 3.968 0 0 1-3.163-1.11 4.003 4.003 0 0 1-1.196-3.142c0-2.453 1.782-4.14 4.482-4.14 2.241 0 4.09 1.541 4.09 3.285l.045 1.732zm.168-8.763v1.766a6.796 6.796 0 0 0-4.986-1.766C3.848 65.985.366 69.54.403 73.89c.038 4.35 3.58 7.845 7.911 7.808a6.395 6.395 0 0 0 4.852-1.823v1.53c0 2.059-1.76 3.566-4.079 3.566a6.416 6.416 0 0 1-4.896-1.721l-2.712 2.621a10.353 10.353 0 0 0 7.687 3.004c4.762 0 8.022-3.218 8.022-7.493V65.948h-4.022z"/>
        <path fill="#231F20" d="M42.914 79.875v1.463H39.06V60.75h4.168v6.862a7.141 7.141 0 0 1 4.84-1.608 7.894 7.894 0 0 1 6.814 4.014 7.96 7.96 0 0 1-.056 7.931 7.893 7.893 0 0 1-6.87 3.917 6.597 6.597 0 0 1-5.042-1.991zm8.964-6.041a4.16 4.16 0 0 0-1.293-3.133 4.125 4.125 0 0 0-3.189-1.12c-2.308 0-4.246 1.474-4.246 3.263v1.89c0 1.845 1.882 3.375 4.246 3.375a4.057 4.057 0 0 0 3.197-1.091 4.092 4.092 0 0 0 1.274-3.14l.011-.044zM57.66 73.879c0-4.5 3.518-7.875 8.415-7.875 4.896 0 8.415 3.453 8.415 7.875 0 4.421-3.485 7.875-8.415 7.875s-8.415-3.398-8.415-7.875zm12.661 0a4.264 4.264 0 0 0-2.621-3.95 4.234 4.234 0 0 0-4.636.932 4.276 4.276 0 0 0-.904 4.66 4.246 4.246 0 0 0 3.948 2.61 4.036 4.036 0 0 0 3.041-1.193 4.07 4.07 0 0 0 1.172-3.06z"/>
        <path fill="#231F20" d="M80.283 73.789l-6.331-7.414h5.232l3.732 4.838h.056l3.877-4.838h5.232l-6.33 7.425 6.498 7.594h-5.232l-4-5.04h-.101l-3.944 5.04h-5.233z"/>
        <ellipse cx="46.287" cy="28.058" fill="#00AA13" rx="26.892" ry="27"/>
        <path fill="#FFF" d="M59.654 38.025a3.705 3.705 0 0 1-3.622 3.594 3.703 3.703 0 0 1-3.762-3.448.237.237 0 0 1 0-.146 3.706 3.706 0 0 1 3.552-3.713 3.703 3.703 0 0 1 3.832 3.42.87.87 0 0 1 0 .293zM40.45 38.025a.17.17 0 0 1 0 .124 3.671 3.671 0 0 1-3.676 3.6 3.701 3.701 0 0 1-2.622-1.09 3.731 3.731 0 0 1-1.087-2.634.87.87 0 0 1 0-.292 3.703 3.703 0 0 1 3.833-3.421 3.706 3.706 0 0 1 3.551 3.713z"/>
        <path fill="#FFF" d="M63.744 27.169l-2.991-5.355a7.1 7.1 0 0 0-6.017-3.668l-2.41-.056v-.889a2.246 2.246 0 0 0-1.904-2.059c-4.112-.922-13.693-1.046-18.903-.18a2.818 2.818 0 0 0-2.24 2.25 57.502 57.502 0 0 0 0 18.124 2.774 2.774 0 0 0 2.072 2.194c.265-2.933 2.779-5.14 5.71-5.01 2.93.13 5.241 2.549 5.248 5.494v.225c1.681 0 3.227.101 4.393.101 1.165 0 2.386 0 3.854-.101v-.225c.045-2.932 2.37-5.316 5.288-5.424 2.919-.108 5.41 2.098 5.67 5.019a2.72 2.72 0 0 0 2.13-2.655c.212-2.25.56-5.209.537-6.548a2.65 2.65 0 0 0-.437-1.237zm-4.482.506l-6.88-.124v-6.457h2.466a4.065 4.065 0 0 1 3.585 2.115l1.658 3.06c.17.303.16.674-.024.968a.94.94 0 0 1-.86.438h.055z"/>
    </g>
</svg>
