<svg xmlns="http://www.w3.org/2000/svg" width="200" height="90" viewBox="0 0 200 90">
    <g fill="none" fill-rule="nonzero" transform="translate(58)">
        <path fill="#000" d="M33.062 73.924a4.264 4.264 0 0 0-2.612-3.947 4.231 4.231 0 0 0-4.63.917 4.278 4.278 0 0 0-.925 4.648 4.245 4.245 0 0 0 3.923 2.634 4.033 4.033 0 0 0 3.061-1.18 4.071 4.071 0 0 0 1.183-3.072m-12.656 0c0-4.5 3.517-7.943 8.412-7.943 4.894 0 8.41 3.465 8.41 7.943 0 4.477-3.482 7.942-8.41 7.942s-8.412-3.465-8.412-7.942M13.731 74.745c0 1.856-1.87 3.375-4.256 3.375a3.965 3.965 0 0 1-3.161-1.11 4.004 4.004 0 0 1-1.196-3.142c0-2.453 1.781-4.14 4.48-4.14 2.24 0 4.088 1.54 4.088 3.285l.045 1.732zm.168-8.764v1.778a6.702 6.702 0 0 0-4.984-1.778 7.698 7.698 0 0 0-5.646 2.232 7.77 7.77 0 0 0-2.295 5.643 7.893 7.893 0 0 0 2.324 5.665 7.822 7.822 0 0 0 5.662 2.278 6.402 6.402 0 0 0 4.85-1.834v1.53c0 2.059-1.759 3.566-4.077 3.566a6.39 6.39 0 0 1-4.805-1.811L2.24 85.894a10.391 10.391 0 0 0 7.683 3.048c4.76 0 8.02-3.217 8.02-7.503V65.98h-4.044z"/>
        <path fill="#231F20" d="M39.133 73.912a7.96 7.96 0 0 1 2.457-5.694 7.887 7.887 0 0 1 5.786-2.18c3.797 0 6.72 2.092 7.65 5.264l-3.876 1.125a3.754 3.754 0 0 0-3.774-2.722c-2.338 0-4.234 1.904-4.234 4.252 0 2.35 1.896 4.253 4.234 4.253a3.686 3.686 0 0 0 3.774-2.722l3.876 1.124c-.874 3.173-3.853 5.277-7.65 5.277a7.899 7.899 0 0 1-5.818-2.22 7.971 7.971 0 0 1-2.425-5.757zM56.18 77.366c0-2.767 1.802-4.241 6.551-4.894 2.789-.404 3.55-.798 3.55-1.53 0-1-1.041-1.586-2.643-1.586A3.552 3.552 0 0 0 59.92 72L56 71.224c.594-3.117 3.662-5.243 7.538-5.243 4.368 0 7.067 2.25 7.067 5.895v9.551h-3.741v-1.642h-.056a6.135 6.135 0 0 1-5.04 2.07c-3.338 0-5.589-1.823-5.589-4.489zm10.438-1.53V74.06c-.37.54-1.12.844-3.181 1.215-2.453.45-3.36.933-3.36 1.811 0 .878.728 1.305 2.307 1.305 2.408 0 4.234-1.103 4.234-2.554zM73.26 66.375h3.908v1.44a5.877 5.877 0 0 1 4.39-1.733c.83.011 1.653.148 2.442.406l-.874 3.768a6.849 6.849 0 0 0-2.161-.315c-2.24 0-3.607 1.474-3.607 4.59v6.863h-4.155l.056-15.019z"/>
        <ellipse cx="42.56" cy="28.058" fill="#00AA13" rx="26.88" ry="27"/>
        <path fill="#FFF" d="M62.832 29.902a4.236 4.236 0 0 0-3.203-3.802 59.378 59.378 0 0 0-6.003-.889l-3.618-5.928a7.534 7.534 0 0 0-5.723-3.6 56.722 56.722 0 0 0-8.96 0 7.402 7.402 0 0 0-5.936 3.926l-3.047 5.715c-.652.101-1.299.236-1.937.405a2.695 2.695 0 0 0-1.86 2.002 21.853 21.853 0 0 0-.246 4.894 4.098 4.098 0 0 0 3.685 3.859h.437v-.147c0-3.2 2.582-5.793 5.768-5.793 3.185 0 5.768 2.594 5.768 5.793a4.836 4.836 0 0 1-.09.912h3.674c1.747 0 3.483 0 5.14-.102a5.536 5.536 0 0 1-.089-.866c0-3.2 2.582-5.793 5.768-5.793s5.768 2.593 5.768 5.793v.09h1.59a3.368 3.368 0 0 0 3.08-3.093c.045-.72.09-2.79.034-3.375zM38.674 24.56c-3.17 0-6.228.146-8.714.348l2.06-3.87.314-.607a3.74 3.74 0 0 1 3.114-1.957l3.203-.136.023 6.222zm2.99 0v-6.244l2.33.112a3.996 3.996 0 0 1 3.18 1.913l1.322 2.25 1.411 2.317c-2.475-.224-5.342-.326-8.243-.348z"/>
        <ellipse cx="32.11" cy="36.563" fill="#FFF" rx="4.01" ry="4.027"/>
        <ellipse cx="52.349" cy="36.563" fill="#FFF" rx="4.01" ry="4.027"/>
    </g>
</svg>
