<svg xmlns="http://www.w3.org/2000/svg" width="200" height="90" viewBox="0 0 200 90">
    <g fill="none" fill-rule="evenodd" transform="translate(43)">
        <path fill="#000" fill-rule="nonzero" d="M32.798 73.868a4.275 4.275 0 0 0-2.63-3.966 4.291 4.291 0 0 0-4.676.912 4.268 4.268 0 0 0-.94 4.662 4.284 4.284 0 0 0 3.961 2.644c1.15.058 2.27-.37 3.086-1.18a4.068 4.068 0 0 0 1.199-3.072m-12.752 0c0-4.5 3.54-7.943 8.467-7.943 4.927 0 8.467 3.465 8.467 7.943 0 4.477-3.506 7.942-8.467 7.942-4.96 0-8.467-3.465-8.467-7.942M13.326 74.689c0 1.856-1.882 3.375-4.284 3.375a4.008 4.008 0 0 1-3.182-1.11 3.989 3.989 0 0 1-1.204-3.143c0-2.452 1.793-4.14 4.567-4.14 2.187 0 4.103 1.541 4.103 3.285v1.733zm.203-8.764v1.778a6.774 6.774 0 0 0-5.017-1.778 7.93 7.93 0 0 0-6.83 4.013 7.894 7.894 0 0 0 .068 7.909 7.93 7.93 0 0 0 6.898 3.896 6.468 6.468 0 0 0 4.791-1.868v1.53c0 2.059-1.77 3.566-4.104 3.566A6.48 6.48 0 0 1 4.51 83.25L1.78 85.882a10.486 10.486 0 0 0 7.69 2.993c4.791 0 8.072-3.206 8.072-7.493V65.925H13.53z"/>
        <path fill="#231F20" fill-rule="nonzero" d="M38.908 73.856a7.923 7.923 0 0 1 2.447-5.73 7.958 7.958 0 0 1 5.84-2.201c3.822 0 6.832 2.093 7.712 5.265l-3.912 1.125a3.765 3.765 0 0 0-3.8-2.722 4.257 4.257 0 0 0-4.262 4.252 4.257 4.257 0 0 0 4.262 4.252 3.697 3.697 0 0 0 3.8-2.722l3.912 1.125c-.88 3.172-3.89 5.265-7.712 5.265a7.958 7.958 0 0 1-5.832-2.192 7.923 7.923 0 0 1-2.455-5.717zM56.97 60.682h4.194v20.69H56.97zM63.397 73.89c.19-4.379 3.819-7.821 8.211-7.791 4.392.03 7.973 3.523 8.103 7.903v1.126H67.534c.136 1.957 1.725 3.206 4.24 3.206a5.98 5.98 0 0 0 4.622-2.25L79 78.75a9.108 9.108 0 0 1-7.193 3.026c-5.287.011-8.41-3.127-8.41-7.886zm12.232-1.654c-.203-1.755-1.758-2.913-3.99-2.913-2.233 0-3.823 1.125-4.048 2.913h8.038zM81.007 77.31c0-2.767 1.816-4.241 6.596-4.894 2.807-.405 3.574-.798 3.574-1.53 0-1.001-1.049-1.586-2.66-1.586a3.573 3.573 0 0 0-3.744 2.7l-3.957-.821c.586-3.117 3.675-5.243 7.587-5.243 4.386 0 7.103 2.25 7.103 5.895v9.551h-3.765V79.73h-.057a6.196 6.196 0 0 1-5.073 2.058c-3.337 0-5.604-1.81-5.604-4.477zm10.508-1.53v-1.778c-.372.54-1.127.844-3.202 1.216-2.458.45-3.382.933-3.382 1.81 0 .878.733 1.306 2.322 1.306 2.424 0 4.262-1.103 4.262-2.554zM98.201 66.375h4.048v1.418h.056a7.35 7.35 0 0 1 5.062-1.834c4.307 0 7.193 2.801 7.193 6.885v8.561h-4.183V73.35c0-2.25-1.477-3.69-3.912-3.69-2.435 0-4.081 1.508-4.081 3.69v8.021H98.2V66.375z"/>
        <ellipse cx="58.12" cy="28.08" fill="#F06400" fill-rule="nonzero" rx="27.059" ry="27"/>
        <path fill="#FFF" fill-rule="nonzero" d="M66.34 24.165a11.755 11.755 0 0 0-5.322-2.925 66.616 66.616 0 0 0-.575-6.84 2.354 2.354 0 0 0-2.255-2.036 2.366 2.366 0 0 0-2.255 2.047 66.144 66.144 0 0 0-.575 6.829 11.756 11.756 0 0 0-5.344 2.914 42.652 42.652 0 0 0 16.325.011zM68.064 26.156a45.328 45.328 0 0 1-9.944 1.125 45.53 45.53 0 0 1-9.967-1.125c-4.712 6.064-5.378 13.95-4.95 13.916a17.256 17.256 0 0 0 5.424 1.553c.192-1.699.676-5.513 1.285-6.48.246 2.27.622 4.523 1.128 6.75 7.892.866 18.377.202 22.041-1.924.395.135-.315-7.751-5.017-13.815z"/>
        <path d="M0 0h115v90H0z"/>
    </g>
</svg>
