<svg xmlns="http://www.w3.org/2000/svg" width="200" height="90" viewBox="0 0 200 90">
    <g fill="none" fill-rule="nonzero" transform="translate(16)">
        <path fill="#000" d="M32.493 73.868a4.278 4.278 0 0 0-4.251-4.298 4.278 4.278 0 0 0-4.311 4.238 4.278 4.278 0 0 0 4.236 4.312 4.082 4.082 0 0 0 3.083-1.18 4.07 4.07 0 0 0 1.198-3.072m-12.743 0c0-4.5 3.538-7.943 8.462-7.943 4.923 0 8.472 3.454 8.472 7.943 0 4.488-3.515 7.875-8.472 7.875-4.958 0-8.462-3.454-8.462-7.875M13.036 74.689c0 1.845-1.882 3.375-4.282 3.375a4.003 4.003 0 0 1-3.18-1.11 3.99 3.99 0 0 1-1.203-3.143c0-2.452 1.792-4.129 4.507-4.129 2.186 0 4.101 1.542 4.101 3.274l.057 1.733zm.169-8.775v1.777a6.856 6.856 0 0 0-5.014-1.766 7.917 7.917 0 0 0-6.82 4.01 7.893 7.893 0 0 0 .067 7.903 7.918 7.918 0 0 0 6.888 3.893 6.45 6.45 0 0 0 4.822-1.856v1.53a3.767 3.767 0 0 1-1.29 2.654 3.778 3.778 0 0 1-2.81.912A6.428 6.428 0 0 1 4.18 83.25l-2.727 2.632a10.441 10.441 0 0 0 7.73 2.993c4.788 0 8.066-3.218 8.066-7.493V65.914h-4.044zM39.185 66.375h3.685v1.44a6.517 6.517 0 0 1 9.362.236 6.528 6.528 0 0 1 4.901-2.103c4.045 0 6.84 2.632 6.84 6.468v9H60.04v-8.325a3.227 3.227 0 0 0-1.528-3.02 3.238 3.238 0 0 0-3.388 0 3.227 3.227 0 0 0-1.528 3.02v8.325h-3.887v-8.325a3.239 3.239 0 0 0-1.562-2.964 3.249 3.249 0 0 0-3.355 0 3.239 3.239 0 0 0-1.562 2.964v8.325h-4.045V66.375zM66.383 77.31c0-2.779 1.814-4.252 6.591-4.905 2.806-.394 3.572-.787 3.572-1.53 0-.99-1.048-1.586-2.67-1.586A3.57 3.57 0 0 0 70.146 72l-3.966-.821c.598-3.117 3.685-5.243 7.583-5.243 4.394 0 7.11 2.25 7.11 5.895v9.551h-3.764v-1.665a6.213 6.213 0 0 1-5.07 2.07c-3.391 0-5.656-1.81-5.656-4.477zm10.5-1.53v-1.789c-.371.54-1.126.855-3.199 1.215-2.467.462-3.38.945-3.38 1.823 0 .877.744 1.305 2.32 1.305 2.412 0 4.26-1.114 4.26-2.554zM82.675 76.5l3.943-.934c.586 1.924 2.084 2.891 4.507 2.891 2.186 0 3.38-.483 3.38-1.304 0-.822-.958-1.283-3.707-1.7-5.453-.854-7.436-2.25-7.436-4.882 0-2.632 2.738-4.646 6.907-4.646 3.785 0 7.154 1.901 7.976 4.5l-3.82 1.125a4.26 4.26 0 0 0-4.19-2.362c-1.758 0-2.862.517-2.862 1.305 0 .787.822 1.125 4.112 1.642 5.003.799 7.065 2.16 7.065 4.905s-2.964 4.68-7.493 4.68-7.684-1.969-8.382-5.22zM99.428 76.5l3.932-.934c.598 1.924 2.096 2.891 4.507 2.891 2.186 0 3.38-.483 3.38-1.304 0-.822-.958-1.283-3.707-1.7-5.464-.854-7.436-2.25-7.436-4.882 0-2.632 2.738-4.646 6.907-4.646 3.785 0 7.154 1.901 7.977 4.5l-3.82 1.125a4.271 4.271 0 0 0-4.191-2.362c-1.758 0-2.862.517-2.862 1.305 0 .787.823 1.125 4.113 1.642 5.002.799 7.064 2.16 7.064 4.905s-2.963 4.68-7.493 4.68c-4.529 0-7.627-1.969-8.37-5.22zM116.925 77.31c0-2.779 1.803-4.252 6.591-4.905 2.795-.394 3.56-.787 3.56-1.53 0-.99-1.047-1.586-2.658-1.586a3.548 3.548 0 0 0-3.73 2.711l-3.965-.821c.597-3.117 3.673-5.243 7.582-5.243 4.383 0 7.098 2.25 7.098 5.895v9.551h-3.763v-1.665a6.19 6.19 0 0 1-5.059 2.07c-3.402 0-5.656-1.81-5.656-4.477zm10.49-1.53v-1.789h-.102c-.36.54-1.126.855-3.2 1.215-2.456.462-3.38.945-3.38 1.823 0 .877.733 1.305 2.322 1.305 2.523 0 4.36-1.114 4.36-2.554zM134.355 84.589l2.997-2.464a5.771 5.771 0 0 0 5.036 2.464 3.755 3.755 0 0 0 2.81-.921A3.744 3.744 0 0 0 146.467 81v-1.125a6.427 6.427 0 0 1-4.845 1.811 7.89 7.89 0 0 1-6.864-3.879 7.865 7.865 0 0 1-.067-7.875 7.889 7.889 0 0 1 6.796-3.996 6.766 6.766 0 0 1 4.98 1.879v-1.44h4.01V81c0 4.252-3.38 7.2-8.089 7.2a9.695 9.695 0 0 1-8.033-3.611zm11.943-9.833v-1.755c0-1.732-1.904-3.262-4.079-3.262-2.749 0-4.507 1.676-4.507 4.117a3.957 3.957 0 0 0 1.197 3.124 3.97 3.97 0 0 0 3.164 1.095c2.354 0 4.225-1.474 4.225-3.319zM152.55 73.879c.032-4.492 3.704-8.109 8.203-8.078 4.499.031 8.12 3.698 8.09 8.19v1.193h-12.169c.147 1.957 1.735 3.206 4.248 3.206a5.986 5.986 0 0 0 4.608-2.25l2.614 2.61a9.121 9.121 0 0 1-7.188 3.037c-5.273 0-8.405-3.15-8.405-7.908zm12.225-1.643c-.203-1.755-1.758-2.925-4-2.925s-3.82 1.125-4.044 2.925h8.044z"/>
        <ellipse cx="84.906" cy="28.08" fill="#F06400" rx="27.04" ry="27"/>
        <ellipse cx="98.335" cy="32.917" fill="#FFF" rx="3.977" ry="3.971"/>
        <ellipse cx="85.39" cy="16.121" fill="#FFF" rx="3.977" ry="3.971"/>
        <path fill="#FFF" d="M90.043 31.5c1.037 0 1.69-.934 1.127-1.688-1.837-2.688-5.633-7.953-8.416-9a6.859 6.859 0 0 0-6.625.72c-1.837 1.125-4.045 3.375-5.994 7.29-.597 1.283.507 2.667 2.13 2.667h8.45a2.254 2.254 0 0 0 1.949-.99l1.352-2.183a14.631 14.631 0 0 0 2.41 2.802c.265.223.601.342.947.337l2.67.045zM97.772 42.199l-2.94-4.883a6.763 6.763 0 0 0-5.825-3.116l-17.576-.068c-2.93 0-3.854 4.894-3.944 6.458v.067l21.587.09 2.806 2.374a3.857 3.857 0 0 0 2.5.889h2.153a1.251 1.251 0 0 0 1.24-1.811z"/>
    </g>
</svg>
