<svg xmlns="http://www.w3.org/2000/svg" width="200" height="90" viewBox="0 0 200 90">
    <g fill="none" fill-rule="evenodd" transform="translate(45)">
        <path fill="#000" fill-rule="nonzero" d="M32.26 73.89a4.275 4.275 0 0 0-2.618-3.966 4.258 4.258 0 0 0-4.656.913 4.282 4.282 0 0 0-.935 4.661 4.265 4.265 0 0 0 3.943 2.644 4.058 4.058 0 0 0 3.072-1.18 4.078 4.078 0 0 0 1.193-3.072m-12.695 0c0-4.5 3.525-7.942 8.43-7.942 4.905 0 8.43 3.465 8.43 7.942 0 4.478-3.491 7.942-8.43 7.942s-8.43-3.464-8.43-7.942M12.874 74.711c0 1.856-1.874 3.375-4.265 3.375a3.98 3.98 0 0 1-3.168-1.11 3.999 3.999 0 0 1-1.198-3.142c0-2.453 1.785-4.14 4.49-4.14 2.177 0 4.085 1.541 4.085 3.285l.056 1.732zm.169-8.763v1.766h-.056a6.815 6.815 0 0 0-4.995-1.766 7.855 7.855 0 0 0-6.771 3.995 7.89 7.89 0 0 0 .067 7.875 7.854 7.854 0 0 0 6.839 3.88 6.412 6.412 0 0 0 4.86-1.823h.056v1.53c0 2.059-1.762 3.566-4.086 3.566a6.434 6.434 0 0 1-4.905-1.721l-2.716 2.621a10.381 10.381 0 0 0 7.7 3.004c4.77 0 8.036-3.218 8.036-7.493V65.948h-4.03z"/>
        <path fill="#231F20" fill-rule="nonzero" d="M38.051 76.5l3.917-.934c.595 1.924 2.088 2.891 4.49 2.891 2.178 0 3.368-.483 3.368-1.304 0-.822-.955-1.272-3.693-1.7-5.444-.854-7.42-2.25-7.42-4.87 0-2.622 2.739-4.647 6.88-4.647 3.784 0 7.14 1.89 7.959 4.5l-3.816 1.125a4.219 4.219 0 0 0-4.165-2.351c-1.75 0-2.85.506-2.85 1.305 0 .799.819 1.125 4.085 1.642 4.995.788 7.05 2.15 7.05 4.906s-2.953 4.668-7.465 4.668c-4.512 0-7.61-1.957-8.34-5.231zM55.28 73.901c.032-4.492 3.69-8.108 8.172-8.077 4.482.03 8.09 3.698 8.06 8.19v1.192H59.4c.135 1.958 1.717 3.206 4.22 3.206a5.978 5.978 0 0 0 4.602-2.25l2.593 2.588a9.093 9.093 0 0 1-7.16 3.026c-5.288.034-8.374-3.105-8.374-7.875zm12.18-1.642c-.203-1.755-1.752-2.914-3.974-2.914-2.223 0-3.805 1.125-4.041 2.914h8.014zM73.745 66.375h4.03v1.418h.056a7.275 7.275 0 0 1 5.05-1.834c4.277 0 7.15 2.801 7.15 6.885v8.55h-4.164V73.36c0-2.25-1.47-3.678-3.895-3.678-2.424 0-4.052 1.507-4.052 3.678v8.021h-4.175V66.375zM92.097 73.879a7.783 7.783 0 0 1 2.314-5.644 7.747 7.747 0 0 1 5.667-2.231 7.162 7.162 0 0 1 4.849 1.608h.056V60.75h4.164v20.632h-3.861v-1.507h-.056a6.58 6.58 0 0 1-5.04 1.89 7.679 7.679 0 0 1-5.766-2.17 7.715 7.715 0 0 1-2.327-5.716zm12.886.9v-1.89c0-1.789-1.953-3.263-4.266-3.263a4.125 4.125 0 0 0-3.198 1.115 4.145 4.145 0 0 0-1.291 3.138 4.077 4.077 0 0 0 1.28 3.14 4.058 4.058 0 0 0 3.21 1.078c2.368 0 4.265-1.473 4.265-3.318z"/>
        <ellipse cx="55.022" cy="28.474" fill="#00AA13" fill-rule="nonzero" rx="26.939" ry="27"/>
        <path fill="#FFF" fill-rule="nonzero" d="M69.592 21.904a3.714 3.714 0 0 0-1.527-2.723 54.46 54.46 0 0 0-2.626-1.822c-3.637 1.676-8.194 4.016-11.876 6.041a4.062 4.062 0 0 0-2.121 3.465c0 1.901-.079 3.803-.079 5.704l-2.783-4.714-2.784 1.867c0-1.8.067-3.61.157-5.41a4.096 4.096 0 0 1 2.11-3.376c3.873-2.081 8.643-4.657 12.347-6.502a62.225 62.225 0 0 0-3.782-1.879 3.607 3.607 0 0 0-2.818 0 63.262 63.262 0 0 0-11.561 6.334 3.624 3.624 0 0 0-1.538 2.655 83.27 83.27 0 0 0-.247 12.375c.058 1 .52 1.935 1.28 2.587a55.97 55.97 0 0 0 11.449 7.774c1.01.506 2.2.506 3.21 0a77.223 77.223 0 0 0 11.617-7.391 3.67 3.67 0 0 0 1.46-2.622c.334-4.113.372-8.245.112-12.363z"/>
        <path d="M0 0h110v90H0z"/>
    </g>
</svg>
