<svg xmlns="http://www.w3.org/2000/svg" width="99" height="98" viewBox="0 0 99 98">
    <g fill="none" fill-rule="evenodd">
        <g fill-rule="nonzero">
            <path fill="#00AED6" stroke="#00AED6" stroke-width=".35" d="M97.53 25.088c-4.191 9.105-9.09 18.078-12.798 27.278a384.421 384.421 0 0 1-19.82 41.894c-2.18 3.95-3.522 2.953-6.726 1.204-1.23-.677-2.552-1.223-3.819-1.881l-11.42-5.4c-10.245-4.853-20.733-9.405-30.83-14.353-.559-.282-1.118-.564-1.64-.884A20.725 20.725 0 0 1 7.2 70.199a8.615 8.615 0 0 1-2.738-3.913 8.718 8.718 0 0 1 1.509-5.925c5.476-10.31 9.966-21.314 14.903-31.98.11-.265.248-.517.41-.753a10.142 10.142 0 0 1 3.11-3.443l30.365-20.73a4.7 4.7 0 0 1 2.571-.81 4.583 4.583 0 0 1 1.863.433l36.662 17.307a3.467 3.467 0 0 1 1.824 1.993 3.511 3.511 0 0 1-.148 2.71z"/>
            <path fill="#004656" stroke="#004656" stroke-width=".4" d="M59.082 2.645L47.702 31c-1.124 2.738-4.253 4.086-7.043 3.033L22.927 27.32a10.044 10.044 0 0 1 3.12-3.385L56.504 3.441a4.78 4.78 0 0 1 2.579-.796z"/>
            <path fill="#FFC41C" d="M43.728 49.902l-.864-9.475a4.887 4.887 0 0 0-.902-2.402L20.77 8.818 6.173 19.243 27.364 48.43a4.858 4.858 0 0 0 2.03 1.601l8.792 3.835 3.532 1.545c.546.239 1.179.174 1.665-.17a1.67 1.67 0 0 0 .702-1.505l-.357-3.835z"/>
            <path fill="#F568AF" d="M15 1.77L17.606 5.6a33.896 33.896 0 0 1 3.559 5.244c-1.1.861-2.623 1.32-3.797 2.182-1.174.862-2.366 1.914-3.503 2.929a62.958 62.958 0 0 1-5.503 4.842c-1.706 1.187-2.476-.765-3.411-2.124l-4.2-6.183c-1.31-1.964-.86-4.661 1.008-6.048L9.278.794c1.842-1.363 4.393-.928 5.723.976z"/>
            <path fill="#231F20" d="M41.832 56.294l-3.914-1.777c1.022-2.384 3.234-4.014 5.774-4.253l.391 4.373a1.651 1.651 0 0 1-.658 1.49 1.578 1.578 0 0 1-1.593.167zM49.49 60.44a24.24 24.24 0 0 1 4.573-7.536c5.531-6.16 14.75-3.767 17.847 4.05 1.733 4.315-1.955 6.782-5.365 3.768a7.632 7.632 0 0 1-2.231-6.48c.571-6.895 7.208-9.984 13.126-10.926 1.844-.283 1.014-3.014-.737-2.732-7.946 1.262-16.759 7.102-15.044 16.559.959 5.275 9.642 12.132 13.108 5.143 3.89-7.875-8.093-16.955-14.878-16.013-6.453.905-10.877 7.668-13.053 13.413-.645 1.696 2.028 2.43 2.655.754z"/>
        </g>
        <path d="M1 0h97v97H1z"/>
    </g>
</svg>
