<svg xmlns="http://www.w3.org/2000/svg" width="95" height="73" viewBox="0 0 95 73">
    <g fill="none" fill-rule="evenodd">
        <g fill-rule="nonzero">
            <path fill="#9F5A39" d="M76.912 31.326a21.525 21.525 0 0 1-3.946-8.693 8.373 8.373 0 0 1 1.52-6.738 3.756 3.756 0 0 1 2.984-1.55c1.353.231 2.44 1.207 2.776 2.493.436 1.23.506 2.56.925 3.79.925 2.73 3.491 4.566 5.115 6.908a18.55 18.55 0 0 1 3.491 10.007c0 3.369-.332 6.738.698 10.007a14.878 14.878 0 0 0 3.142 5.239c.437.34.714.834.77 1.372a1.974 1.974 0 0 1-.473 1.492 82.982 82.982 0 0 1-10.84 14.656c-.975 1.391-2.544 2.288-4.277 2.443-1.746-.135-3.491-2.123-4.66-3.37l-5.133-5.458a19.991 19.991 0 0 0-3.334-3.032c-3.492-2.308-8.03-2.375-11.783-4.178a21.774 21.774 0 0 1-3.073-1.87 68.935 68.935 0 0 1-10.823-9.367c-1.57-1.684-2.845-3.554-4.329-5.239a68.334 68.334 0 0 1-6.581-9.636c-1.065-2.173-2.461-8.289.855-7.75 1.746.27 9.06 9.098 10.474 9.822-.907-1.23-2.13-2.291-3.124-3.454a63.165 63.165 0 0 1-2.916-3.706 63.939 63.939 0 0 1-5.045-8.103 6.109 6.109 0 0 1-.96-3.117c.132-1.485 1.17-2.75 2.636-3.217 1.455-.39 3.005.168 3.84 1.381a12.327 12.327 0 0 1-2.984-5.29c-.449-2.116.672-4.252 2.705-5.155 2.235-.775 6.826 3.774 8.52 5.458-1.258-1.684-2.899-5.374-.63-6.536C49-2.435 67.556 20.73 76.913 31.41"/>
            <path fill="#F8A9AF" d="M21.47 30.39a3.499 3.499 0 0 0 1.495-2.039 182.16 182.16 0 0 0 1.975-5.165c.577-1.484.98-3.026 1.202-4.597.09-1.113.09-2.23 0-3.344.034-.232.034-.469 0-.702a2.178 2.178 0 0 0-.447-.735 4.418 4.418 0 0 0-3.263-1.388 5.499 5.499 0 0 0-3.435 1.237A11.45 11.45 0 0 0 16.56 16.7c-.09.122-.171.25-.24.384a110.454 110.454 0 0 0-7.077 13.508 12.499 12.499 0 0 0-1.254 3.21c-.103.985-.206 1.972-.395 2.958a21.59 21.59 0 0 1-1.94 6.503 15.626 15.626 0 0 1-3.95 4.564c-.481.307-.853.75-1.065 1.27-.085.5-.013 1.012.206 1.471a75.628 75.628 0 0 0 7.66 15.28c.876 1.337 2.026 2.791 3.658 2.891 1.631.1 3.761-1.554 5.152-2.557l5.891-4.514a21.1 21.1 0 0 1 3.744-2.457c3.71-1.672 8.107-1.187 12.022-2.407a22.81 22.81 0 0 0 3.298-1.388 72.262 72.262 0 0 0 12.022-7.472c1.803-1.371 3.435-3.01 5.153-4.43a71.42 71.42 0 0 0 8.037-8.359c1.426-1.922 3.865-7.573.601-7.506-1.717 0-10.304 7.473-11.816 7.974 1.082-1.036 2.439-1.889 3.607-2.875a54.775 54.775 0 0 0 3.435-3.143 67.719 67.719 0 0 0 6.354-7.071 6.407 6.407 0 0 0 1.477-2.842c.106-1.394-.69-2.704-1.996-3.286a3.505 3.505 0 0 0-3.86.678 12.385 12.385 0 0 0 3.813-4.647c.725-1.87.036-3.98-1.666-5.099-2.061-1.036-7.3 2.692-9.206 3.996 1.511-1.471 3.761-4.731 1.803-6.152-5.65-4.163-27.702 15.53-38.522 24.407"/>
            <path fill="#231F20" d="M44.596 35.55c7.398-6.062 14.99-12.055 22.124-18.341 1.268-1.12-.617-2.945-1.867-1.826-7.046 6.355-14.726 12.28-22.124 18.342-1.303 1.085.581 2.893 1.867 1.825zM50.172 42.782c3.673-2.903 7.416-5.774 10.95-8.842 1.23-1.066-.606-2.805-1.836-1.739-3.466 3.068-7.277 5.939-10.95 8.843-1.282 1.017.554 2.756 1.836 1.738zM37.348 29.951c7.399-6.037 15.126-11.828 22.162-18.306 1.245-1.144-.587-3.01-1.832-1.866-7.036 6.478-14.763 12.322-22.162 18.306-1.297 1.056.553 2.922 1.832 1.866z"/>
        </g>
        <path d="M-1-13h97v97H-1z"/>
    </g>
</svg>
