<?xml version="1.0" encoding="UTF-8" standalone="no"?>
<!-- Created with Inkscape (http://www.inkscape.org/) -->

<svg
   xmlns:dc="http://purl.org/dc/elements/1.1/"
   xmlns:cc="http://creativecommons.org/ns#"
   xmlns:rdf="http://www.w3.org/1999/02/22-rdf-syntax-ns#"
   xmlns:svg="http://www.w3.org/2000/svg"
   xmlns="http://www.w3.org/2000/svg"
   xmlns:sodipodi="http://sodipodi.sourceforge.net/DTD/sodipodi-0.dtd"
   xmlns:inkscape="http://www.inkscape.org/namespaces/inkscape"
   width="224.67015mm"
   height="103.98556mm"
   viewBox="0 0 796.07534 368.45276"
   id="svg2"
   version="1.1"
   inkscape:version="0.91 r13725"
   sodipodi:docname="TriangleWorkflow.svg">
  <defs
     id="defs4">
    <clipPath
       id="clipPath8099"
       clipPathUnits="userSpaceOnUse">
      <path
         inkscape:connector-curvature="0"
         id="path8101"
         d="m 0,551.986 530.973,0 L 530.973,0 0,0 0,551.986 Z" />
    </clipPath>
  </defs>
  <sodipodi:namedview
     id="base"
     pagecolor="#ffffff"
     bordercolor="#666666"
     borderopacity="1.0"
     inkscape:pageopacity="0.0"
     inkscape:pageshadow="2"
     inkscape:zoom="0.175"
     inkscape:cx="2424.4852"
     inkscape:cy="249.54924"
     inkscape:document-units="px"
     inkscape:current-layer="layer1"
     showgrid="false"
     inkscape:window-width="1920"
     inkscape:window-height="1017"
     inkscape:window-x="-8"
     inkscape:window-y="-8"
     inkscape:window-maximized="1"
     fit-margin-top="0"
     fit-margin-left="0"
     fit-margin-right="0"
     fit-margin-bottom="0" />
  <metadata
     id="metadata7">
    <rdf:RDF>
      <cc:Work
         rdf:about="">
        <dc:format>image/svg+xml</dc:format>
        <dc:type
           rdf:resource="http://purl.org/dc/dcmitype/StillImage" />
        <dc:title></dc:title>
      </cc:Work>
    </rdf:RDF>
  </metadata>
  <g
     inkscape:label="Ebene 1"
     inkscape:groupmode="layer"
     id="layer1"
     transform="translate(58.626411,-64.395462)">
    <text
       xml:space="preserve"
       style="font-style:normal;font-variant:normal;font-weight:bold;font-stretch:normal;font-size:17.5px;line-height:125%;font-family:Arial;-inkscape-font-specification:'Arial Bold';text-align:end;letter-spacing:0px;word-spacing:0px;writing-mode:lr-tb;text-anchor:end;fill:#000000;fill-opacity:1;stroke:none;stroke-width:1px;stroke-linecap:butt;stroke-linejoin:miter;stroke-opacity:1"
       x="162.33884"
       y="133.43381"
       id="text8675"
       sodipodi:linespacing="125%"
       inkscape:export-filename="H:\tiangle_workflow.png"
       inkscape:export-xdpi="67.905586"
       inkscape:export-ydpi="67.905586"><tspan
         sodipodi:role="line"
         id="tspan8677"
         x="162.33884"
         y="133.43381"
         style="font-size:20px">Upstream</tspan><tspan
         sodipodi:role="line"
         x="162.33884"
         y="155.97362"
         id="tspan8705"
         style="font-style:normal;font-variant:normal;font-weight:normal;font-stretch:normal;font-family:Arial;-inkscape-font-specification:Arial;text-align:end;text-anchor:end">github.com/Roshanjossey/</tspan><tspan
         sodipodi:role="line"
         x="162.33884"
         y="177.84862"
         style="font-style:normal;font-variant:normal;font-weight:normal;font-stretch:normal;font-family:Arial;-inkscape-font-specification:Arial;text-align:end;text-anchor:end"
         id="tspan8709">first-contributions</tspan></text>
    <text
       xml:space="preserve"
       style="font-style:normal;font-variant:normal;font-weight:bold;font-stretch:normal;font-size:17.5px;line-height:125%;font-family:Arial;-inkscape-font-specification:'Arial Bold';text-align:start;letter-spacing:0px;word-spacing:0px;writing-mode:lr-tb;text-anchor:start;fill:#000000;fill-opacity:1;stroke:none;stroke-width:1px;stroke-linecap:butt;stroke-linejoin:miter;stroke-opacity:1"
       x="520.9812"
       y="133.53636"
       id="text8675-0"
       sodipodi:linespacing="125%"
       inkscape:export-filename="H:\tiangle_workflow.png"
       inkscape:export-xdpi="67.905586"
       inkscape:export-ydpi="67.905586"><tspan
         sodipodi:role="line"
         id="tspan8677-7"
         x="520.9812"
         y="133.53636">Origin</tspan><tspan
         sodipodi:role="line"
         x="520.9812"
         y="155.41136"
         id="tspan8707"
         style="font-style:normal;font-variant:normal;font-weight:normal;font-stretch:normal;font-family:Arial;-inkscape-font-specification:Arial">github.com/Your-Name/</tspan><tspan
         sodipodi:role="line"
         x="520.9812"
         y="177.28636"
         style="font-style:normal;font-variant:normal;font-weight:normal;font-stretch:normal;font-family:Arial;-inkscape-font-specification:Arial"
         id="tspan8711">first-contributions/</tspan></text>
    <text
       xml:space="preserve"
       style="font-style:normal;font-variant:normal;font-weight:bold;font-stretch:normal;font-size:17.5px;line-height:125%;font-family:Arial;-inkscape-font-specification:'Arial Bold';text-align:end;letter-spacing:0px;word-spacing:0px;writing-mode:lr-tb;text-anchor:end;fill:#000000;fill-opacity:1;stroke:none;stroke-width:1px;stroke-linecap:butt;stroke-linejoin:miter;stroke-opacity:1"
       x="399.54947"
       y="159.50523"
       id="text8675-1"
       sodipodi:linespacing="125%"
       inkscape:export-filename="H:\tiangle_workflow.png"
       inkscape:export-xdpi="67.905586"
       inkscape:export-ydpi="67.905586"><tspan
         sodipodi:role="line"
         x="399.54947"
         y="159.50523"
         style="font-style:normal;font-variant:normal;font-weight:normal;font-stretch:normal;font-family:Arial;-inkscape-font-specification:Arial;text-align:end;text-anchor:end"
         id="tspan8742">Pull Requst</tspan></text>
    <text
       xml:space="preserve"
       style="font-style:normal;font-variant:normal;font-weight:bold;font-stretch:normal;font-size:17.5px;line-height:125%;font-family:Arial;-inkscape-font-specification:'Arial Bold';text-align:start;letter-spacing:0px;word-spacing:0px;writing-mode:lr-tb;text-anchor:start;fill:#000000;fill-opacity:1;stroke:none;stroke-width:1px;stroke-linecap:butt;stroke-linejoin:miter;stroke-opacity:1"
       x="309.14285"
       y="95.219345"
       id="text8746"
       sodipodi:linespacing="125%"
       inkscape:export-filename="H:\tiangle_workflow.png"
       inkscape:export-xdpi="67.905586"
       inkscape:export-ydpi="67.905586"><tspan
         sodipodi:role="line"
         id="tspan8748"
         x="309.14285"
         y="95.219345"
         style="font-style:normal;font-variant:normal;font-weight:normal;font-stretch:normal;font-family:Arial;-inkscape-font-specification:Arial">Code Review/</tspan><tspan
         sodipodi:role="line"
         x="309.14285"
         y="117.09435"
         id="tspan8750"
         style="font-style:normal;font-variant:normal;font-weight:normal;font-stretch:normal;font-family:Arial;-inkscape-font-specification:Arial">Merge</tspan></text>
    <text
       xml:space="preserve"
       style="font-style:normal;font-variant:normal;font-weight:bold;font-stretch:normal;font-size:17.5px;line-height:125%;font-family:Arial;-inkscape-font-specification:'Arial Bold';text-align:start;letter-spacing:0px;word-spacing:0px;writing-mode:lr-tb;text-anchor:start;fill:#000000;fill-opacity:1;stroke:none;stroke-width:1px;stroke-linecap:butt;stroke-linejoin:miter;stroke-opacity:1"
       x="234.28571"
       y="258.94449"
       id="text8752"
       sodipodi:linespacing="125%"
       inkscape:export-filename="H:\tiangle_workflow.png"
       inkscape:export-xdpi="67.905586"
       inkscape:export-ydpi="67.905586"><tspan
         sodipodi:role="line"
         id="tspan8754"
         x="234.28571"
         y="258.94449"
         style="font-style:normal;font-variant:normal;font-weight:normal;font-stretch:normal;font-family:Arial;-inkscape-font-specification:Arial">fetch</tspan></text>
    <text
       xml:space="preserve"
       style="font-style:normal;font-variant:normal;font-weight:bold;font-stretch:normal;font-size:17.5px;line-height:125%;font-family:Arial;-inkscape-font-specification:'Arial Bold';text-align:start;letter-spacing:0px;word-spacing:0px;writing-mode:lr-tb;text-anchor:start;fill:#000000;fill-opacity:1;stroke:none;stroke-width:1px;stroke-linecap:butt;stroke-linejoin:miter;stroke-opacity:1"
       x="412.11868"
       y="261.40698"
       id="text8752-6"
       sodipodi:linespacing="125%"
       inkscape:export-filename="H:\tiangle_workflow.png"
       inkscape:export-xdpi="67.905586"
       inkscape:export-ydpi="67.905586"><tspan
         sodipodi:role="line"
         id="tspan8754-4"
         x="412.11868"
         y="261.40698"
         style="font-style:normal;font-variant:normal;font-weight:normal;font-stretch:normal;font-family:Arial;-inkscape-font-specification:Arial">push</tspan></text>
    <path
       style="color:#000000;font-style:normal;font-variant:normal;font-weight:normal;font-stretch:normal;font-size:medium;line-height:normal;font-family:sans-serif;text-indent:0;text-align:start;text-decoration:none;text-decoration-line:none;text-decoration-style:solid;text-decoration-color:#000000;letter-spacing:normal;word-spacing:normal;text-transform:none;direction:ltr;block-progression:tb;writing-mode:lr-tb;baseline-shift:baseline;text-anchor:start;white-space:normal;clip-rule:nonzero;display:inline;overflow:visible;visibility:visible;opacity:1;isolation:auto;mix-blend-mode:normal;color-interpolation:sRGB;color-interpolation-filters:linearRGB;solid-color:#000000;solid-opacity:1;fill:#000000;fill-opacity:1;fill-rule:nonzero;stroke:none;stroke-width:8.68957615;stroke-linecap:butt;stroke-linejoin:miter;stroke-miterlimit:4;stroke-dasharray:none;stroke-dashoffset:0;stroke-opacity:1;color-rendering:auto;image-rendering:auto;shape-rendering:auto;text-rendering:auto;enable-background:accumulate"
       d="m 306.00891,115.13979 0,10.7484 94.68437,0 0,1.89923 0,3.2206 -94.68437,0 0,10.7484 c -2.96089,-2.21768 -5.92158,-4.43578 -8.88234,-6.65373 l -8.88167,-6.65459 8.88167,-6.65458 z"
       id="rect8774"
       inkscape:connector-curvature="0"
       sodipodi:nodetypes="ccccccccccc"
       inkscape:export-filename="H:\tiangle_workflow.png"
       inkscape:export-xdpi="67.905586"
       inkscape:export-ydpi="67.905586" />
    <g
       id="g8905"
       transform="translate(0,3.2142868)"
       inkscape:export-filename="H:\tiangle_workflow.png"
       inkscape:export-xdpi="67.905586"
       inkscape:export-ydpi="67.905586">
      <circle
         r="53.57143"
         cy="145.93364"
         cx="227.85715"
         id="path8648"
         style="opacity:1;fill:none;fill-opacity:1;stroke:#8f5999;stroke-width:6;stroke-linejoin:miter;stroke-miterlimit:4;stroke-dasharray:none;stroke-opacity:1" />
      <g
         transform="matrix(3.6785715,0,0,3.6785715,205.78572,116.50507)"
         style="fill:#8f5999;fill-opacity:0.99607843;fill-rule:evenodd;stroke:none;stroke-width:1"
         id="Octicons">
        <g
           style="fill:#8f5999;fill-opacity:0.99607843"
           id="repo">
          <path
             style="fill:#8f5999;fill-opacity:0.99607843"
             inkscape:connector-curvature="0"
             d="M 4,9 3,9 3,8 4,8 4,9 4,9 Z M 4,6 3,6 3,7 4,7 4,6 4,6 Z M 4,4 3,4 3,5 4,5 4,4 4,4 Z M 4,2 3,2 3,3 4,3 4,2 4,2 Z m 8,-1 0,12 c 0,0.55 -0.45,1 -1,1 L 6,14 6,16 4.5,14.5 3,16 3,14 1,14 C 0.45,14 0,13.55 0,13 L 0,1 C 0,0.45 0.45,0 1,0 l 10,0 c 0.55,0 1,0.45 1,1 l 0,0 z m -1,10 -10,0 0,2 2,0 0,-1 3,0 0,1 5,0 0,-2 0,0 z m 0,-10 -9,0 0,9 9,0 0,-9 0,0 z"
             id="Shape" />
        </g>
      </g>
    </g>
    <g
       id="g8911"
       transform="translate(0,-3.2142868)"
       inkscape:export-filename="H:\tiangle_workflow.png"
       inkscape:export-xdpi="67.905586"
       inkscape:export-ydpi="67.905586">
      <circle
         r="53.57143"
         cy="152.36221"
         cx="460.00003"
         id="path8648-7"
         style="opacity:1;fill:none;fill-opacity:1;stroke:#64b3b3;stroke-width:6;stroke-linejoin:miter;stroke-miterlimit:4;stroke-dasharray:none;stroke-opacity:1" />
      <g
         transform="matrix(3.6785715,0,0,3.6785715,437.9286,122.93364)"
         style="fill:#64b3b3;fill-opacity:1;fill-rule:evenodd;stroke:none;stroke-width:1"
         id="Octicons-7">
        <g
           style="fill:#64b3b3;fill-opacity:1"
           id="repo-3">
          <path
             style="fill:#64b3b3;fill-opacity:1"
             inkscape:connector-curvature="0"
             d="M 4,9 3,9 3,8 4,8 4,9 4,9 Z M 4,6 3,6 3,7 4,7 4,6 4,6 Z M 4,4 3,4 3,5 4,5 4,4 4,4 Z M 4,2 3,2 3,3 4,3 4,2 4,2 Z m 8,-1 0,12 c 0,0.55 -0.45,1 -1,1 L 6,14 6,16 4.5,14.5 3,16 3,14 1,14 C 0.45,14 0,13.55 0,13 L 0,1 C 0,0.45 0.45,0 1,0 l 10,0 c 0.55,0 1,0.45 1,1 l 0,0 z m -1,10 -10,0 0,2 2,0 0,-1 3,0 0,1 5,0 0,-2 0,0 z m 0,-10 -9,0 0,9 9,0 0,-9 0,0 z"
             id="Shape-0" />
        </g>
      </g>
    </g>
    <text
       xml:space="preserve"
       style="font-style:normal;font-variant:normal;font-weight:bold;font-stretch:normal;font-size:17.5px;line-height:125%;font-family:Arial;-inkscape-font-specification:'Arial Bold';text-align:start;letter-spacing:0px;word-spacing:0px;writing-mode:lr-tb;text-anchor:start;fill:#000000;fill-opacity:1;stroke:none;stroke-width:1px;stroke-linecap:butt;stroke-linejoin:miter;stroke-opacity:1"
       x="316.69547"
       y="432.61386"
       id="text8675-2"
       sodipodi:linespacing="125%"
       inkscape:export-filename="H:\tiangle_workflow.png"
       inkscape:export-xdpi="67.905586"
       inkscape:export-ydpi="67.905586"><tspan
         sodipodi:role="line"
         id="tspan8677-3"
         x="316.69547"
         y="432.61386"
         style="font-size:20px">Local</tspan></text>
    <g
       id="g8929"
       transform="translate(18.309671,-50)"
       inkscape:export-filename="H:\tiangle_workflow.png"
       inkscape:export-xdpi="67.905586"
       inkscape:export-ydpi="67.905586">
      <circle
         r="53.57143"
         cy="400.93365"
         cx="325.71429"
         id="path8648-4"
         style="opacity:1;fill:none;fill-opacity:1;stroke:#008080;stroke-width:6;stroke-linejoin:miter;stroke-miterlimit:4;stroke-dasharray:none;stroke-opacity:1" />
      <g
         transform="matrix(3.6785715,0,0,3.6785715,303.64287,371.50508)"
         style="fill:#008080;fill-opacity:1;fill-rule:evenodd;stroke:none;stroke-width:1"
         id="Octicons-7-2">
        <g
           style="fill:#008080;fill-opacity:1"
           id="repo-3-8">
          <path
             style="fill:#008080;fill-opacity:1"
             inkscape:connector-curvature="0"
             d="M 4,9 3,9 3,8 4,8 4,9 4,9 Z M 4,6 3,6 3,7 4,7 4,6 4,6 Z M 4,4 3,4 3,5 4,5 4,4 4,4 Z M 4,2 3,2 3,3 4,3 4,2 4,2 Z m 8,-1 0,12 c 0,0.55 -0.45,1 -1,1 L 6,14 6,16 4.5,14.5 3,16 3,14 1,14 C 0.45,14 0,13.55 0,13 L 0,1 C 0,0.45 0.45,0 1,0 l 10,0 c 0.55,0 1,0.45 1,1 l 0,0 z m -1,10 -10,0 0,2 2,0 0,-1 3,0 0,1 5,0 0,-2 0,0 z m 0,-10 -9,0 0,9 9,0 0,-9 0,0 z"
             id="Shape-0-1" />
        </g>
      </g>
    </g>
    <path
       style="color:#000000;font-style:normal;font-variant:normal;font-weight:normal;font-stretch:normal;font-size:medium;line-height:normal;font-family:sans-serif;text-indent:0;text-align:start;text-decoration:none;text-decoration-line:none;text-decoration-style:solid;text-decoration-color:#000000;letter-spacing:normal;word-spacing:normal;text-transform:none;direction:ltr;block-progression:tb;writing-mode:lr-tb;baseline-shift:baseline;text-anchor:start;white-space:normal;clip-rule:nonzero;display:inline;overflow:visible;visibility:visible;opacity:0.5;isolation:auto;mix-blend-mode:normal;color-interpolation:sRGB;color-interpolation-filters:linearRGB;solid-color:#000000;solid-opacity:1;fill:#000000;fill-opacity:1;fill-rule:nonzero;stroke:none;stroke-width:8.68957615;stroke-linecap:butt;stroke-linejoin:miter;stroke-miterlimit:4;stroke-dasharray:none;stroke-dashoffset:0;stroke-opacity:1;color-rendering:auto;image-rendering:auto;shape-rendering:auto;text-rendering:auto;enable-background:accumulate"
       d="m 306.0089,151.62532 0,10.7484 94.68437,0 0,1.89923 0,3.2206 -94.68437,0 0,10.7484 c -2.96089,-2.21768 -5.92158,-4.43578 -8.88234,-6.65373 l -8.88166,-6.65459 8.88166,-6.65458 z"
       id="rect8774-0"
       inkscape:connector-curvature="0"
       sodipodi:nodetypes="ccccccccccc"
       inkscape:export-filename="H:\tiangle_workflow.png"
       inkscape:export-xdpi="67.905586"
       inkscape:export-ydpi="67.905586" />
    <path
       style="color:#000000;font-style:normal;font-variant:normal;font-weight:normal;font-stretch:normal;font-size:medium;line-height:normal;font-family:sans-serif;text-indent:0;text-align:start;text-decoration:none;text-decoration-line:none;text-decoration-style:solid;text-decoration-color:#000000;letter-spacing:normal;word-spacing:normal;text-transform:none;direction:ltr;block-progression:tb;writing-mode:lr-tb;baseline-shift:baseline;text-anchor:start;white-space:normal;clip-rule:nonzero;display:inline;overflow:visible;visibility:visible;opacity:1;isolation:auto;mix-blend-mode:normal;color-interpolation:sRGB;color-interpolation-filters:linearRGB;solid-color:#000000;solid-opacity:1;fill:#000000;fill-opacity:1;fill-rule:nonzero;stroke:none;stroke-width:8.68957615;stroke-linecap:butt;stroke-linejoin:miter;stroke-miterlimit:4;stroke-dasharray:none;stroke-dashoffset:0;stroke-opacity:1;color-rendering:auto;image-rendering:auto;shape-rendering:auto;text-rendering:auto;enable-background:accumulate"
       d="m 436.98741,226.79098 -7.60026,-7.60028 -66.95196,66.95196 -1.34296,-1.34296 -2.27731,-2.27731 66.95196,-66.95196 -7.60027,-7.60025 c 3.6618,-0.52554 7.32376,-1.05062 10.98566,-1.57588 l 10.98579,-1.57477 -1.57478,10.98578 z"
       id="rect8774-0-1"
       inkscape:connector-curvature="0"
       sodipodi:nodetypes="ccccccccccc"
       inkscape:export-filename="H:\tiangle_workflow.png"
       inkscape:export-xdpi="67.905586"
       inkscape:export-ydpi="67.905586" />
    <path
       style="color:#000000;font-style:normal;font-variant:normal;font-weight:normal;font-stretch:normal;font-size:medium;line-height:normal;font-family:sans-serif;text-indent:0;text-align:start;text-decoration:none;text-decoration-line:none;text-decoration-style:solid;text-decoration-color:#000000;letter-spacing:normal;word-spacing:normal;text-transform:none;direction:ltr;block-progression:tb;writing-mode:lr-tb;baseline-shift:baseline;text-anchor:start;white-space:normal;clip-rule:nonzero;display:inline;overflow:visible;visibility:visible;opacity:1;isolation:auto;mix-blend-mode:normal;color-interpolation:sRGB;color-interpolation-filters:linearRGB;solid-color:#000000;solid-opacity:1;fill:#000000;fill-opacity:1;fill-rule:nonzero;stroke:none;stroke-width:8.68957615;stroke-linecap:butt;stroke-linejoin:miter;stroke-miterlimit:4;stroke-dasharray:none;stroke-dashoffset:0;stroke-opacity:1;color-rendering:auto;image-rendering:auto;shape-rendering:auto;text-rendering:auto;enable-background:accumulate"
       d="m 307.26155,282.99202 7.60027,-7.60026 -66.95196,-66.95196 1.34297,-1.34296 2.2773,-2.27731 66.95196,66.95196 7.60027,-7.60028 c 0.52552,3.6618 1.05062,7.32376 1.57586,10.98567 l 1.57477,10.98578 -10.98577,-1.57478 z"
       id="rect8774-0-1-1"
       inkscape:connector-curvature="0"
       sodipodi:nodetypes="ccccccccccc"
       inkscape:export-filename="H:\tiangle_workflow.png"
       inkscape:export-xdpi="67.905586"
       inkscape:export-ydpi="67.905586" />
    <rect
       style="opacity:1;fill:none;fill-opacity:1;stroke:#64b3b3;stroke-width:3;stroke-linejoin:miter;stroke-miterlimit:4;stroke-dasharray:6, 6;stroke-dashoffset:1.84264958;stroke-opacity:1"
       id="rect8993"
       width="793.07532"
       height="167.79091"
       x="-57.126411"
       y="65.895462"
       ry="20.077543"
       inkscape:export-filename="H:\tiangle_workflow.png"
       inkscape:export-xdpi="67.905586"
       inkscape:export-ydpi="67.905586" />
    <path
       inkscape:connector-curvature="0"
       id="path8109-4-9"
       style="fill:#1b1817;fill-opacity:1;fill-rule:evenodd;stroke:none"
       d="m 707.75935,186.64407 c -11.17598,0 -20.23855,9.06056 -20.23855,20.23855 0,8.94159 5.79896,16.52786 13.84036,19.20397 1.01146,0.18735 1.38279,-0.43903 1.38279,-0.97359 0,-0.48226 -0.0188,-2.07687 -0.0275,-3.768 -5.63038,1.22428 -6.81846,-2.38789 -6.81846,-2.38789 -0.92064,-2.33895 -2.24713,-2.96131 -2.24713,-2.96131 -1.83624,-1.25611 0.13842,-1.23031 0.13842,-1.23031 2.03229,0.14277 3.1024,2.08593 3.1024,2.08593 1.80507,3.0937 4.73455,2.1992 5.88945,1.68208 0.18199,-1.30773 0.70614,-2.20088 1.28493,-2.70627 -4.49526,-0.51143 -9.22076,-2.24713 -9.22076,-10.00198 0,-2.20925 0.7906,-4.015 2.08526,-5.43232 -0.21014,-0.50974 -0.90288,-2.56819 0.19639,-5.3559 0,0 1.69951,-0.5436 5.56671,2.07486 1.61438,-0.44842 3.34572,-0.6733 5.06567,-0.68134 1.71995,0.008 3.45263,0.23292 5.07003,0.68134 3.86284,-2.61846 5.56,-2.07486 5.56,-2.07486 1.10161,2.78771 0.40887,4.84616 0.19874,5.3559 1.29767,1.41732 2.08258,3.22307 2.08258,5.43232 0,7.77362 -4.73456,9.48485 -9.24121,9.98589 0.72592,0.62806 1.37274,1.8597 1.37274,3.74789 0,2.70795 -0.0231,4.88737 -0.0231,5.55397 0,0.53891 0.36397,1.16965 1.38984,0.97125 8.03737,-2.67913 13.82896,-10.26272 13.82896,-19.20163 0,-11.17799 -9.06123,-20.23855 -20.23855,-20.23855"
       inkscape:export-filename="H:\tiangle_workflow.png"
       inkscape:export-xdpi="67.905586"
       inkscape:export-ydpi="67.905586" />
  </g>
</svg>
