<?xml version="1.0" standalone="no"?>
<!DOCTYPE svg PUBLIC "-//W3C//DTD SVG 20010904//EN"
 "http://www.w3.org/TR/2001/REC-SVG-20010904/DTD/svg10.dtd">
<svg version="1.0" xmlns="http://www.w3.org/2000/svg"
 width="16.000000pt" height="16.000000pt" viewBox="0 0 16.000000 16.000000"
 preserveAspectRatio="xMidYMid meet">
<metadata>
Created by potrace 1.11, written by Peter Selinger 2001-2013
</metadata>
<g transform="translate(0.000000,16.000000) scale(0.005926,-0.005926)"
fill="#000000" stroke="none">
<path d="M1406 2388 c-106 -23 -179 -123 -169 -233 2 -22 1 -49 -1 -60 -6 -25
-74 -94 -141 -146 -43 -33 -57 -38 -101 -37 -128 0 -207 -107 -167 -227 59
-174 303 -147 321 36 4 45 9 53 41 74 37 24 137 113 112 99 -9 -5 -12 -3 -7 5
4 6 11 9 16 6 5 -3 13 3 19 12 7 13 10 -165 11 -583 l0 -600 -35 -34 c-93 -90
-88 -261 10 -335 148 -113 354 -20 368 165 5 70 -39 164 -88 190 l-25 13 0
620 0 619 38 37 c87 85 100 197 34 294 -25 37 -83 75 -126 82 -60 11 -74 11
-110 3z m114 -192 c9 -24 -11 -70 -36 -84 -44 -24 -98 25 -84 78 13 52 101 57
120 6z m-511 -415 c28 -24 25 -68 -5 -88 -18 -12 -24 -11 -43 4 -23 19 -34 53
-23 70 5 7 37 29 48 33 1 0 11 -9 23 -19z m493 -1193 c53 -41 -3 -132 -66
-108 -28 10 -37 22 -41 55 -5 50 66 85 107 53z"/>
</g>
</svg>
