<?xml version="1.0" encoding="UTF-8" standalone="no"?>
<svg
   xmlns:dc="http://purl.org/dc/elements/1.1/"
   xmlns:cc="http://creativecommons.org/ns#"
   xmlns:rdf="http://www.w3.org/1999/02/22-rdf-syntax-ns#"
   xmlns:svg="http://www.w3.org/2000/svg"
   xmlns="http://www.w3.org/2000/svg"
   xmlns:xlink="http://www.w3.org/1999/xlink"
   xmlns:sodipodi="http://sodipodi.sourceforge.net/DTD/sodipodi-0.dtd"
   xmlns:inkscape="http://www.inkscape.org/namespaces/inkscape"
   version="1.1"
   width="640"
   height="480"
   id="svg2"
   inkscape:version="0.91 r13725"
   sodipodi:docname="_kosovo.svg">
  <metadata
     id="metadata24">
    <rdf:RDF>
      <cc:Work
         rdf:about="">
        <dc:format>image/svg+xml</dc:format>
        <dc:type
           rdf:resource="http://purl.org/dc/dcmitype/StillImage" />
        <dc:title>Flag of Kosovo</dc:title>
      </cc:Work>
    </rdf:RDF>
  </metadata>
  <sodipodi:namedview
     pagecolor="#ffffff"
     bordercolor="#666666"
     borderopacity="1"
     objecttolerance="10"
     gridtolerance="10"
     guidetolerance="10"
     inkscape:pageopacity="0"
     inkscape:pageshadow="2"
     inkscape:window-width="1829"
     inkscape:window-height="1285"
     id="namedview22"
     showgrid="false"
     showguides="true"
     inkscape:guide-bbox="true"
     inkscape:zoom="1"
     inkscape:cx="248"
     inkscape:cy="300"
     inkscape:window-x="65"
     inkscape:window-y="24"
     inkscape:window-maximized="0"
     inkscape:current-layer="svg2">
    <sodipodi:guide
       position="94,367"
       orientation="0,1"
       id="guide3366" />
    <sodipodi:guide
       position="180,336"
       orientation="0,1"
       id="guide3368" />
  </sodipodi:namedview>
  <title
     id="title4">Flag of Kosovo</title>
  <defs
     id="defs6">
    <path
       id="star"
       d="m 0,-36 21.160269,65.124612 -55.398303,-40.249224 68.476068,0 -55.398303,40.249224 z"
       inkscape:connector-curvature="0"
       style="fill:#ffffff" />
  </defs>
  <rect
     width="643"
     height="479"
     id="rect9"
     x="-1"
     y="1"
     style="fill:#244aa5" />
  <path
     d="m 264.3585,238.22055 c 0,0 1.23712,-0.83825 1.68973,-0.95002 0.45261,-0.11176 2.05182,-0.61471 2.05182,-0.61471 0,0 1.02591,-0.5309 1.56904,-0.5309 0.5733,0 1.68973,0.61472 2.05182,1.14561 0.33191,0.53089 2.14234,1.45297 2.14234,1.45297 0,0 1.23712,0.41912 1.47851,0 0.24139,-0.41913 0.78452,-0.72648 1.35782,-0.72648 0.57331,0 0.66383,-0.5309 0.66383,-0.95002 0,-0.41913 0.24139,-0.95002 0.66382,-1.45297 0.45261,-0.53089 1.35782,-0.83825 1.35782,-0.83825 0,0 1.23713,-0.53089 1.35782,-1.25737 0.1207,-0.72649 1.35783,-1.25738 2.05182,-1.36914 0.66383,-0.11177 0,-0.41913 1.81043,-0.22354 1.81043,0.22354 2.05182,-0.41912 2.14234,-0.95001 0.1207,-0.5309 0,-1.06179 1.14661,-0.95002 1.1466,0.11177 1.68973,0.11177 1.68973,-0.53089 0,-0.61472 1.02591,-0.95002 -0.78452,-1.45297 -1.81043,-0.53089 -1.68973,-0.11177 -1.81043,-0.95002 -0.12069,-0.83825 0,-0.72648 -1.23712,-0.83825 -1.23713,-0.11176 -0.57331,-0.72648 -0.66383,-1.36914 -0.12069,-0.61471 -0.4526,-0.95001 -0.66382,-1.36914 -0.24139,-0.41912 -0.90522,-0.41912 -0.90522,-1.03384 0,-0.61472 -0.12069,-0.95002 -0.78451,-0.95002 -0.66383,0 -0.90522,0 -0.90522,-0.61471 0,-0.61472 0.1207,-1.14561 0.78452,-1.14561 0.66382,0 1.02591,-0.53089 0.90521,-1.14561 -0.12069,-0.61472 -0.12069,-1.98386 -0.12069,-1.98386 l 0.90521,-1.06178 c 0,0 2.71565,-2.20739 2.95704,-2.62652 0.24139,-0.41912 1.1466,-0.72648 1.56904,0.11177 0.4526,0.83825 0.66382,1.06178 1.0259,1.45296 0.33192,0.41913 1.35783,0.11177 1.56904,-0.30735 0.24139,-0.41913 0.33191,-1.95592 0.93539,-2.79417 0.60348,-0.81031 1.02591,-1.22943 1.17678,-1.90003 0.15087,-0.6706 0.45261,-1.22944 1.17678,-1.22944 0.72417,0 1.17678,-0.95001 1.17678,-1.50885 0,-0.55883 0.30173,-1.08972 1.17678,-1.22943 0.87504,-0.13971 1.32764,-0.6706 1.62938,0.13971 0.30174,0.81031 0.60348,0.81031 1.17678,1.08972 0.60348,0.27942 1.47852,0.6706 1.90095,0.27942 0.45261,-0.41913 0.66382,-1.08973 1.32765,-0.6706 0.63365,0.41912 1.08625,0 1.23712,-0.81031 0.15087,-0.81031 0.30174,-1.90003 0.30174,-1.90003 0,0 0.15087,-0.55884 1.17678,-0.55884 1.02591,0 0.30174,-0.6706 0.87504,-1.08972 0.60348,-0.41913 0.60348,-0.81031 1.32765,-0.55883 0.72417,0.27941 1.90095,-0.3353 1.32765,-1.0059 -0.60348,-0.6706 -1.90095,-1.76033 -1.17678,-2.59858 0.72417,-0.81031 1.02591,-2.17945 0.30174,-2.31916 -0.72418,-0.13971 -1.78026,0.13971 -1.90095,-0.6706 -0.15087,-0.81031 -0.45261,-1.36914 0.4526,-1.50885 0.87504,-0.13971 2.35356,-0.13971 2.80617,-0.55883 0.4526,-0.41913 1.90095,-0.6706 1.90095,-1.90003 0,-1.22944 0.4526,-1.36915 0.60347,-2.03975 0.15087,-0.6706 0.15087,-2.09562 -0.4526,-2.76622 -0.60348,-0.6706 -1.47852,-1.64856 -1.62939,-2.03974 -0.15087,-0.41913 -0.72417,-1.08973 -1.62939,-1.36914 -0.87504,-0.27942 -1.62938,-0.41913 -1.62938,-1.08973 0,-0.6706 0.60347,0.13971 0.60347,-1.64856 0,-1.76032 -1.17677,-2.03974 -1.17677,-2.03974 l -1.78026,-1.08972 c 0,0 -3.13807,-0.83825 -3.98294,-0.83825 -0.84487,0 -1.81043,-0.89414 -0.84487,-1.45297 0.96556,-0.55883 1.20695,-1.56473 0.84487,-2.3471 -0.36209,-0.78237 -0.60348,-1.3412 -1.93113,-1.6765 -1.32764,-0.3353 -1.68973,-0.6706 -1.08625,-1.45297 0.60347,-0.78236 0.72417,-1.3412 1.44834,-0.78236 0.72417,0.55883 1.93112,0.78236 2.89669,0.3353 0.96556,-0.44707 1.32764,-0.78237 1.81042,-0.3353 0.48279,0.44706 1.08626,0.89413 1.81043,0.22353 0.72417,-0.6706 2.05182,-0.78237 2.6553,-0.44707 0.60347,0.3353 2.05182,0.22354 2.5346,0 0.48278,-0.22353 1.44834,-1.0059 1.44834,-1.45296 0,-0.44707 0.60348,-1.22944 1.20695,-1.56474 0.60348,-0.3353 1.32765,-1.45296 1.93113,-1.45296 0.60347,0 0.84486,-0.6706 0.84486,-1.11767 0,-0.44707 0.48279,-1.3412 0.60348,-1.6765 0.1207,-0.3353 1.32765,-0.81031 2.17251,-0.11177 0.84487,0.6706 1.93113,0.89414 1.93113,0.89414 0,0 1.20695,0.22353 1.81043,0 0.60347,-0.22354 1.44834,-0.44707 2.29321,0.11176 0.84486,0.55884 2.05182,0.55884 2.05182,0.55884 0,0 0.24139,-0.89414 0.24139,-1.3412 0,-0.44707 0.24139,-1.22944 -0.24139,-1.56474 -0.48279,-0.3353 -1.08626,-0.78236 -0.1207,-1.45296 0.96556,-0.6706 0.96556,-0.55884 1.93112,-0.55884 0.96557,0 1.56904,0.11177 2.29321,0.11177 0.72418,0 1.93113,0.6706 1.93113,1.3412 0,0.6706 0.48278,1.11767 1.08625,1.45297 0.60348,0.3353 1.32765,0.6706 1.08626,1.22943 -0.24139,0.55883 -0.24139,1.0059 0.48278,0.89413 0.72417,-0.11176 0.96556,0.3353 0.96556,0.89414 0,0.55883 0.2414,0.89413 0.96557,1.11766 0.72417,0.22354 1.08625,0.6706 1.08625,1.22944 0,0.55883 -0.12069,0.89413 0.1207,1.45296 0.24139,0.55884 0.96556,1.45297 0.96556,1.45297 0,0 1.32765,1.56473 -0.36208,0.78237 -1.68974,-0.78237 -2.05182,-1.11767 -2.6553,-1.0059 -0.60348,0.11176 -0.96556,0.44706 -0.96556,0.44706 0,0 -0.84487,0.22354 -1.44834,0.22354 -0.60348,0 -1.20696,1.22943 -0.2414,1.45296 0.96557,0.22354 1.32765,0.44707 1.32765,1.22944 0,0.78236 -0.36208,0.55883 -0.84486,1.11766 -0.48279,0.55884 -0.84487,0.22354 -1.68974,0.22354 -0.84486,0 -1.08625,0.6706 -1.08625,1.3412 0,0.6706 0.36208,0.55883 0.72417,1.11766 0.36208,0.55884 0.96556,0.6706 1.56903,0.11177 0.60348,-0.55883 1.08626,-0.89413 1.44835,0.11177 0.36208,1.0059 0.84486,1.0059 1.56904,1.0059 0.72417,0 0.96556,0 1.56903,-0.3353 0.60348,-0.3353 1.32765,0 1.44835,0.89413 0.12069,0.89413 0.72417,1.0059 1.32764,1.3412 0.60348,0.3353 0.96557,0.55883 1.08626,1.11767 0.1207,0.55883 0.48278,0.78236 1.08626,0.44706 0.60347,-0.3353 1.56904,-0.55883 1.93112,-0.11176 0.36209,0.44706 0.96556,1.3412 0.96556,1.3412 l 0.1207,1.11766 2.29321,0.78237 c 0,0 0.24139,0.55883 0.24139,1.0059 0,0.44707 0.36209,0.6706 0.96556,0.55883 0.60348,-0.11176 1.68973,0 1.68973,0 0,0 0.84487,-0.3353 0.84487,-1.0059 0,-0.6706 0.36209,-0.89413 0.96556,-0.89413 0.60348,0 1.93113,0.44707 2.29321,-0.22353 0.36209,-0.6706 1.44835,-0.89414 2.29321,-0.55884 0.84487,0.3353 3.01738,1.22944 3.01738,1.22944 0,0 -0.24139,0.11176 0.48278,1.22943 0.72418,1.11767 2.05182,1.11767 2.05182,1.11767 0,0 0.1207,1.0059 0.36209,1.45296 0.24139,0.44707 1.32765,0.6706 1.93112,0.22354 0.60348,-0.44707 1.44835,-1.0059 2.17252,-1.0059 0.72417,0 1.20695,0 1.20695,-0.44707 0,-0.44707 -0.72417,-0.78237 -0.72417,-1.45297 0,-0.6706 0.72417,-0.6706 0.84486,-1.3412 0.1207,-0.6706 0.84487,0 1.32765,0.3353 0.48278,0.3353 1.08626,0.89414 1.08626,1.3412 0,0.44707 0.96556,2.0118 1.56904,2.23534 0.60347,0.22353 2.17251,0.3353 2.65529,-0.22354 0.48278,-0.55883 1.68974,-0.78236 1.56904,0.55884 -0.12069,1.3412 -0.36208,1.45296 0.48278,1.90003 0.84487,0.44707 0.96556,2.0118 0.24139,2.45887 -0.72417,0.44706 -0.96556,0.55883 -0.96556,1.3412 0,0.78236 -0.24139,1.6765 0.36209,2.12356 0.60347,0.44707 0.96556,0.78237 0.96556,1.22944 0,0.44706 0.72417,2.45886 0.72417,2.45886 0,0 0.36209,2.0118 0.24139,2.45887 -0.1207,0.44707 -0.36209,1.22943 0.72417,1.11767 1.08626,-0.11177 1.32765,-0.11177 1.32765,0.78236 0,0.89414 0.36208,1.22944 -0.24139,1.56474 -0.60348,0.3353 -0.96556,1.45296 -0.36209,1.6765 0.60348,0.22353 1.08626,0.55883 1.20696,1.0059 0.12069,0.44706 1.08625,1.22943 1.68973,0.78236 0.60347,-0.44706 0.72417,-0.6706 1.20695,-0.78236 0.48278,-0.11177 0.84487,-0.44707 0.36209,-1.0059 -0.48278,-0.55884 -0.60348,-1.11767 -0.1207,-1.45297 0.48278,-0.3353 0.72417,-1.45297 0.72417,-1.45297 0,0 0.72417,-1.0059 1.56904,0 0.84487,1.0059 0.96556,0.6706 1.56904,0.6706 0.60348,0 0.84487,0.55884 0.84487,1.11767 0,0.55883 1.20695,0.44707 1.20695,1.3412 0,0.89413 0.24139,3.0177 0.24139,3.0177 0,0 0,1.22943 0.72417,1.6765 0.72417,0.44707 0.60348,0.55883 0.24139,1.11767 -0.36209,0.55883 -0.24139,1.45296 -0.24139,1.90003 0,0.44707 0.24139,0.6706 -0.36209,1.11767 -0.60347,0.44706 -0.84486,1.0059 -0.48278,1.6765 0.36209,0.6706 0.24139,1.11766 1.20696,1.90003 0.96556,0.78237 0.84486,1.11767 0.84486,1.6765 0,0.55883 0.96556,1.3412 0.96556,1.90003 0,0.55884 0.72418,1.22944 1.32765,1.3412 0.60348,0.11177 1.32765,1.11767 1.32765,1.6765 0,0.55884 0.12069,2.0118 0.12069,2.0118 0,0 -0.12069,0.3353 0.60348,0.3353 0.72417,0 1.20695,0.78237 1.44834,-0.11176 0.24139,-0.89414 0.96557,-1.0059 1.44835,-1.22944 0.48278,-0.22353 1.44834,-0.6706 1.93112,-0.3353 0.48278,0.3353 1.08626,0.3353 1.56904,0.3353 0.48278,0 2.77599,0.11177 2.77599,0.11177 0,0 0.60348,-0.11177 0.96556,0.78237 0.36209,0.89413 1.44834,1.90003 0.84487,2.3471 -0.60348,0.44706 -0.60348,1.3412 0.12069,1.3412 0.72417,0 1.44835,0 1.44835,0.55883 0,0.55883 0.12069,1.0059 0.72417,0.6706 0.60347,-0.3353 0.96556,-0.44707 1.20695,0 0.24139,0.44707 0.72417,0.44707 1.32765,0.78237 0.60347,0.3353 0.84486,0.11176 1.20695,-0.3353 0.36209,-0.44707 1.81043,-0.89414 1.81043,-0.89414 0,0 1.93112,-0.44706 2.65529,-0.22353 0.72417,0.22353 1.68974,0.6706 1.68974,0.6706 0,0 0.48278,1.11767 0.24139,1.78827 -0.24139,0.6706 -0.48278,0.55883 -0.24139,1.56473 0.24139,1.0059 -0.24139,1.11767 -0.72417,1.0059 -0.48279,-0.11177 -0.96557,-0.11177 -0.96557,0.78237 0,0.89413 -0.48278,1.11766 -0.48278,1.90003 0,0.78237 0,0.6706 -0.48278,1.0059 -0.48278,0.3353 -0.60347,0.89413 0.1207,1.0059 0.72417,0.11177 0.48278,0.89413 0.48278,1.3412 0,0.44707 -0.1207,1.45297 -0.1207,1.45297 0,0 0.1207,0.55883 -0.72417,0.55883 -0.84487,0 -1.56904,-0.11177 -1.68973,0.44707 -0.1207,0.55883 -1.08626,1.45296 -0.24139,2.0118 0.84486,0.55883 0.60347,0.89413 0.12069,1.11766 -0.48278,0.22354 -0.84486,1.3412 0.1207,1.6765 0.96556,0.3353 0.84486,0.6706 0.24139,1.11767 -0.60348,0.44707 -1.81043,0.78237 -1.81043,1.45297 0,0.6706 -0.24139,0.6706 -0.96556,0.78236 -0.72417,0.11177 -1.08626,1.0059 -0.24139,2.12357 0.84486,1.11767 1.08625,0.89413 1.68973,0.89413 0.60348,0 0.60348,-0.89413 0.60348,-0.89413 0,0 2.05182,0.11177 2.65529,0.11177 0.60348,0 1.44834,0 1.93113,-0.3353 0.48278,-0.3353 1.81042,-0.89414 1.81042,0.11176 0,1.0059 0.24139,0.89414 0.84487,1.3412 0.60348,0.44707 0.72417,0.11177 1.20695,0.78237 0.48278,0.6706 0.60348,0.11177 0.96557,-0.6706 0.36208,-0.78237 1.08625,-1.56473 1.68973,-0.6706 0.60347,0.89413 0.60347,0.6706 1.32765,0.6706 0.72417,0 0.96556,0.3353 0.96556,0.89413 0,0.55884 0.72417,0.55884 1.56904,0.44707 0.84486,-0.11177 0.96556,0.44707 1.32764,1.0059 0.36209,0.55883 0.48278,0.44707 0.96557,0.44707 0.48278,0 0.96556,0 1.32764,-0.44707 0.36209,-0.44707 0.84487,-1.0059 1.32765,-0.3353 0.48278,0.6706 1.44834,0.55883 1.68973,-0.22353 0.24139,-0.78237 1.32765,-1.45297 1.93113,-0.55884 0.60347,0.89414 1.08626,0.89414 1.68973,1.0059 0.60348,0.11177 1.44834,0.11177 1.81043,0.6706 0.36209,0.55884 1.56904,1.45297 0.72417,2.12357 -0.84487,0.6706 -1.81043,1.56473 -1.08626,1.78827 0.72418,0.22353 1.20696,0.44706 1.68974,1.0059 0.48278,0.55883 2.05182,0.78236 2.77599,0.89413 0.72417,0.11177 1.32765,0.22353 2.17251,-0.44707 0.84487,-0.6706 1.68974,-0.6706 1.56904,0.22354 -0.12069,0.89413 0.36209,1.90003 0.36209,1.90003 0,0 0.60347,1.45297 0.60347,2.0118 0,0.55883 -0.12069,0.6706 0.96556,1.3412 1.08626,0.6706 0.96557,1.11767 1.81043,0.44707 0.84487,-0.6706 1.08626,-1.0059 1.08626,-1.56474 0,-0.55883 0,-1.78826 0,-1.78826 0,0 1.20695,-0.22354 1.68973,-0.55884 0.48278,-0.3353 2.41391,-1.3412 2.89669,-0.89413 0.48278,0.44707 1.08626,0.3353 1.56904,0.11177 0.48278,-0.22354 1.44834,-0.22354 1.93112,-0.22354 0.48278,0 1.32765,0.11177 2.29321,-0.6706 0.96556,-0.78236 0.96556,-0.55883 1.56904,0 0.60347,0.55884 0.60347,1.22944 0.24139,1.6765 -0.36209,0.44707 0,1.45297 0.84487,1.45297 0.84486,0 1.08625,0.44707 1.08625,1.0059 0,0.55883 0.1207,1.3412 0.24139,1.78827 0.1207,0.44706 0.1207,0.6706 1.44835,1.0059 1.32764,0.3353 1.08625,1.11766 1.32764,1.6765 0.24139,0.55883 0.24139,1.0059 -0.48278,1.0059 -0.72417,0 -0.96556,0.3353 -1.08625,0.89413 -0.1207,0.55883 -1.20696,0.78237 -1.20696,0.78237 l -1.08625,-0.22354 c 0,0 -0.72418,0 -1.08626,0.44707 -0.36209,0.44707 -1.08626,1.3412 -0.60348,2.12357 0.48278,0.78236 0.48278,1.22943 0,1.56473 -0.48278,0.3353 -0.72417,2.0118 -1.20695,1.6765 -0.48278,-0.3353 -1.08626,0.11177 -1.56904,0.3353 -0.48278,0.22353 -0.36208,1.78827 0.60348,2.3471 0.96556,0.55883 1.20695,1.3412 1.20695,1.3412 l 1.08626,1.6765 c 0,0 -0.36209,0.3353 -0.60348,0.89413 -0.24139,0.55884 -0.96556,1.6765 -0.24139,1.90004 0.72417,0.22353 0.36209,1.45296 -0.36208,1.45296 -0.72418,0 -1.56904,-0.3353 -1.68974,0.55884 -0.12069,0.89413 -0.48278,0.6706 -1.20695,0.55883 -0.72417,-0.11177 -2.5346,-0.55883 -3.01738,0.3353 -0.48278,0.89413 -0.60348,1.22943 -1.44834,1.11767 -0.84487,-0.11177 -0.48278,1.3412 -0.24139,1.90003 0.24139,0.55883 1.08625,1.3412 1.08625,1.3412 0,0 0.72417,0.55883 0.72417,1.6765 0,1.11767 -0.48278,1.0059 -0.96556,0.22353 -0.48278,-0.78236 -1.44834,-0.6706 -1.56904,0.22354 -0.12069,0.89413 -0.24139,2.23533 -1.08625,2.23533 -0.84487,0 -1.20696,0.22353 -1.56904,0.6706 -0.36209,0.44707 -0.96556,1.22943 -0.96556,1.6765 0,0.44707 -0.1207,0.89413 -0.72417,1.0059 -0.60348,0.11177 -0.72418,1.3412 -0.72418,1.3412 0,0 -1.44834,0.22353 -1.56903,0.78237 -0.1207,0.55883 0.12069,1.45296 -1.08626,1.56473 -1.20695,0.11177 -1.93112,0.89413 -2.29321,1.45297 -0.36209,0.55883 -0.48278,1.0059 0,1.56473 0.48278,0.55883 0.84487,2.3471 1.44834,2.6824 0.60348,0.3353 1.08626,0.44707 0.96556,1.3412 -0.12069,0.89413 -0.84486,1.56473 0.1207,1.56473 0.96556,0 1.56904,0.22354 1.20695,1.0059 -0.36208,0.78237 -0.36208,0.89414 -1.08626,1.22944 -0.72417,0.3353 -1.08625,0.3353 -1.08625,1.22943 0,0.89413 0.24139,0.89413 -0.36209,1.22943 -0.60347,0.3353 -0.60347,0.78237 -0.60347,1.45297 0,0.6706 -0.24139,0.44707 -0.96557,1.22943 -0.72417,0.78237 -1.68973,0.78237 -2.29321,0.55884 -0.60347,-0.22354 -0.72417,-0.22354 -0.84486,-0.89414 -0.1207,-0.6706 -1.20695,-0.6706 -1.81043,-0.55883 -0.60348,0.11177 -1.44834,0.78237 -1.44834,0.78237 0,0 -1.08626,0.6706 -0.60348,1.22943 0.48278,0.55883 0.24139,1.45297 -0.60348,1.3412 -0.84486,-0.11177 -2.77599,0.89413 -3.37946,-0.11177 -0.60348,-1.0059 -2.29321,-1.6765 -2.5346,-0.3353 -0.24139,1.3412 0.72417,1.22944 0.60347,2.57064 -0.12069,1.3412 -0.36208,1.3412 -0.84486,1.78826 -0.48278,0.44707 -0.48278,0.78237 -0.60348,1.3412 -0.12069,0.55884 -0.24139,1.78827 0.60348,2.23534 0.84486,0.44706 1.20695,1.6765 1.20695,2.3471 0,0.6706 0,1.3412 0.84487,1.3412 0.84486,0 1.56903,-0.11177 1.68973,-0.89414 0.12069,-0.78236 1.81043,-1.22943 1.93112,0.3353 0.1207,1.56474 0.1207,2.3471 0.72417,3.0177 0.60348,0.6706 1.08626,1.56474 1.56904,1.90004 0.48278,0.3353 1.29748,3.18535 1.29748,3.18535 -1.17678,0.25147 -1.47852,1.78826 -2.23287,2.09562 -0.42243,0.16765 -0.87504,0.0279 -1.2673,0.30736 -0.30173,0.22353 -0.30173,0.64266 -0.72417,0.83825 -0.87504,0.39118 -0.72417,-0.97796 -1.78025,-0.47501 -0.96556,0.44707 -1.05609,1.56473 -2.44408,1.08973 -0.72417,-0.25148 -1.17678,-3.10153 -1.388,-3.77213 -0.12069,-0.39118 -0.87504,-1.56473 -1.11643,-1.92797 -0.81469,-1.22944 -2.44408,0 -2.95703,-0.36325 -0.81469,-0.55883 -0.45261,-1.50885 -1.68973,-1.62061 -2.50443,-0.16765 -0.72417,1.53679 -1.78026,1.92797 -2.02164,0.72649 -2.02164,-1.90003 -3.53033,-0.69854 -0.57331,0.44707 0.90521,0.72648 0.54312,1.50885 -0.30173,0.64266 -1.78025,1.62062 -1.68973,2.37504 0.1207,1.03384 1.23713,1.3412 1.56904,2.20739 0.90521,2.29122 -0.60348,3.8839 -2.86651,2.09563 -1.2673,-1.0059 -1.50869,-2.87799 -3.46999,-2.73828 -0.45261,0.0279 -0.60348,0.50295 -1.05608,0.55883 -0.45261,0.0279 -0.8147,-0.41913 -1.29748,-0.27942 -0.72417,0.25148 -0.0905,0.75443 -0.24139,1.17355 0,0 -0.96556,0.81031 -1.11643,1.03384 -0.54313,0.72649 -0.36208,1.36915 -1.1466,1.95592 -0.66383,0.50295 -1.17678,0.19559 -1.90095,0.97796 -0.75435,0.81031 -0.8147,2.0118 -1.78026,2.79417 -0.48278,0.39118 -0.81469,-1.17355 -1.41817,-0.13971 -0.0905,0.13971 -0.18104,0.27941 -0.24139,0.41912 -0.15087,0.30736 -0.18104,0.44707 -0.0302,0.78237 1.2673,2.45887 -1.388,3.38094 -2.20269,5.11332 -0.36209,0.72649 0.63365,1.39709 0.24139,1.95592 -0.27156,0.41913 -1.44834,1.56473 -1.53886,1.81621 -0.0905,0.25147 -0.21122,0.81031 -0.42244,1.0059 -0.21121,0.22353 -0.93539,0.11177 -0.99573,0.44707 -0.0604,0.39118 0.75434,0.69854 0.96556,0.95001 0.27156,0.30736 -0.1207,0.72649 -0.0302,0.81031 1.35782,1.36914 0.54312,0.95002 1.23712,2.15151 0.0905,0.16765 0.51296,-0.13971 0.66383,0.30736 0.15086,0.41912 -0.33192,0.39118 -0.15087,0.86619 0.0302,0.13971 0.99573,1.39708 0.99573,1.42502 0.0603,0.41913 -1.8406,1.28532 -2.26303,1.28532 -1.14661,0.0279 0.99573,-2.37504 -0.87504,-2.37504 -0.8147,0 -0.87504,1.87209 -1.08626,2.06768 -0.0905,0.0838 -0.84487,0 -1.02591,0 -1.20695,0 -1.99147,1.50885 -2.47425,1.64856 -0.30174,0.11177 -0.96557,-0.16765 -1.47852,-0.0838 -0.48278,0.0838 -1.05608,0.55883 -1.50869,0.55883 -0.30174,0 -0.45261,-0.19559 -0.694,-0.3353 -0.54313,-0.30736 -1.53886,-0.44707 -2.14234,-0.64266 -0.33191,-0.11177 -0.96556,0.41913 -1.17678,0.27942 -0.39226,-0.25148 0.27157,-0.95002 -0.63365,-1.45297 -0.12069,-0.0559 -0.78452,-1.6765 -0.75434,-1.76032 0.30174,-1.06179 0.63365,-2.2074 0.48278,-3.32506 -0.18104,-1.14561 -1.9613,-2.12357 -2.44408,-3.04564 -0.36209,-0.69855 -0.694,-2.5427 -1.388,-3.0177 -0.75434,-0.50295 -1.44834,-1.48091 -1.8406,-2.23534 -0.12069,-0.22353 0.24139,-0.61471 -0.0302,-1.0059 -0.30174,-0.41912 -0.87504,-0.58677 -1.02591,-1.14561 -0.1207,-0.44706 0,-1.90003 -0.51296,-2.20739 -0.5733,-0.3353 -4.2545,-0.78236 -5.15972,-0.86619 -0.48278,-0.0279 -0.84486,-0.0279 -1.20695,-0.39118 -0.15087,-0.13971 -0.39226,-0.72649 -0.51295,-0.72649 -0.36209,-0.0279 -0.78452,0.16765 -1.14661,0.1956 -0.27156,0.0279 -0.72417,-0.16765 -0.96556,0 -1.17678,0.8103 -1.47852,1.84415 -2.59495,2.71034 -1.1466,0.86619 -2.4139,0.83825 -3.56051,1.84415 -0.72417,0.64266 -1.20695,2.17945 -1.93112,2.90593 -0.30174,0.30736 -0.78452,0 -0.90522,0.13971 -0.60347,0.75442 -1.44834,1.20149 -2.05182,1.90003 -0.12069,0.13971 -0.0905,0.41913 -0.24139,0.53089 l -1.29747,0.3353 c -0.33191,0.0559 -0.96556,-0.0279 -1.23713,0.0559 -0.60347,0.19559 -0.5733,0.83825 -2.62512,1.25737 -0.15087,0.0279 -0.42243,0.16765 -0.54313,0.25148 -0.24139,0.16765 -0.42243,0.41912 -0.66382,0.58677 -0.15087,0.11177 -0.60348,-0.0838 -0.87504,-0.0559 -0.51295,0.0838 -0.81469,0.53089 -1.29747,0.58677 -1.08626,0.13971 -2.83634,-0.50295 -3.68121,-0.16765 -0.51295,0.1956 -1.93112,1.78827 -2.44408,1.95592 -0.33191,0.11177 -0.5733,-0.0279 -0.93539,-0.16765 -0.18104,0.22353 -0.60347,1.95592 -0.75434,2.3471 0,0.0279 -2.32338,1.98386 -2.50443,2.20739 -0.30173,0.3353 -0.42243,0.69854 -0.78452,1.06179 -0.24139,0.25147 -0.63365,0.475 -1.02591,0.475 -0.48278,0 -1.20695,-0.36324 -1.65955,-0.44706 -0.87505,-0.13971 -3.50017,-0.25148 -4.28469,-0.0838 -0.81469,0.16765 -0.5733,2.51475 -2.59494,2.73829 -1.17678,0.1397 -2.26304,0.36324 -3.46999,0.475 -0.1207,0 -0.84487,-0.50295 -1.56904,-0.30735 -0.27156,0.0838 -1.1466,0.97795 -1.1466,1.25737 l 0,0.50295 c 0,0.0838 0.24139,0.39118 0.21121,0.41913 -0.4526,0.53089 -1.47851,1.36914 -1.81043,1.98385 -0.0905,0.16765 -0.21121,0.36325 -0.36208,0.47501 -0.27157,0.19559 -1.65956,0.72649 -1.78026,0.97796 -0.33191,0.83825 0.96557,1.62062 0.84487,1.95592 -0.36209,1.08972 -1.81043,2.12356 -2.26304,3.12946 -0.18104,0.41913 0.48279,1.81621 0.45261,2.29122 -0.15087,1.31326 -0.60347,2.98976 -0.54313,4.27508 0,0.25147 0.18105,1.56473 0.27157,1.70444 0.15087,0.25147 0.48278,0.39118 0.69399,0.61471 0.21122,0.22354 1.81043,3.353 1.87078,3.6883 0.30174,2.31916 -3.04755,1.50885 -1.11643,3.82801 0.30174,0.36324 0.54313,0.75443 0.87504,1.06179 0.42243,0.41912 2.89669,2.23533 2.92686,2.43092 0.0604,0.3353 -1.99147,0.6706 -2.35356,1.03384 -0.96556,0.95002 -1.78025,2.71034 -2.71564,3.6883 -0.5733,0.61472 -1.08626,-0.0559 -1.8406,1.36914 -0.27157,0.5309 0,1.73239 -0.33191,2.06769 -0.48279,0.50295 -0.87504,-0.16765 -1.35783,0.0559 -0.21121,0.0838 -0.33191,0.69854 -0.54312,0.86619 -0.54313,0.47501 -5.37094,3.04564 -5.82355,2.82211 -0.24139,-0.11177 -0.51295,-0.92207 -0.54313,-1.17355 -0.0603,-0.27942 -0.36208,-0.89413 -0.60347,-1.08972 -1.23713,-1.06179 -3.13808,-1.25738 -4.34503,0.0279 -0.30174,0.3353 -0.33191,0.83825 -0.72417,1.17355 -0.66383,0.55883 -1.41817,1.06178 -2.05182,1.62061 -0.1207,0.11177 -0.48278,0.5309 -0.63365,0.50295 -0.48278,-0.0559 -1.65956,-1.39708 -1.9613,-1.76032 -0.54313,-0.64266 -2.11217,-2.17945 -2.26304,-2.90593 0,-2.48681 -1.93112,-5.08539 -2.74581,-7.51631 l 1.20695,0.0279 c 1.35782,-0.92208 0.96556,-3.18535 3.40964,-2.29122 0.30174,-0.41912 0.27156,-0.86619 0.84487,-1.17355 0.21121,-0.11176 0.60347,-0.22353 0.72417,-0.41912 0.81469,-1.25738 1.78025,-6.06334 0.93539,-7.29278 -0.75435,-1.11766 -1.53887,-1.06178 -2.14234,-2.90593 -0.18105,-0.50295 0.15086,-1.08973 0,-1.64856 -0.1207,-0.44707 -0.93539,-3.10152 -1.05609,-3.29712 -0.15087,-0.22353 -0.66382,-0.50295 -0.694,-0.64265 -0.0302,-0.22354 -0.21121,-3.10153 -0.12069,-3.32506 -0.81469,-2.23534 -3.56051,-3.66036 -3.71138,-3.91184 -0.33191,-0.53089 -0.66382,-1.22943 -1.02591,-1.8162 -0.42243,-0.69855 -0.42243,-1.06179 -0.66382,-1.73239 -0.0905,-0.30736 -0.54313,-0.55883 -0.57331,-0.89413 -0.0603,-0.58678 1.59922,-1.81621 1.53887,-2.85005 -0.0302,-0.3353 -1.05608,-1.3412 -0.84487,-1.90003 0.21122,-0.58678 1.2673,-1.90004 1.23713,-2.5427 -0.0604,-0.86619 -1.65956,-2.73828 -1.87078,-3.66035 -0.0905,-0.44707 0.63365,-0.81031 0.45261,-1.11767 -0.21122,-0.39118 -1.90095,-1.92798 -2.17251,-2.37504 -0.21122,-0.3353 0.63365,-0.78237 0.0302,-1.39709 -0.54313,-0.55883 -0.0905,-0.36324 -0.24139,-0.83825 -0.18104,-0.53089 -0.78452,-1.0059 -1.02591,-1.56473 -0.21122,-0.47501 -1.65956,-5.72804 -1.62939,-6.0354 -0.24139,-0.36324 -0.66382,-0.6706 -0.87504,-1.03384 -0.21121,-0.36324 -0.30174,-1.06178 -0.48278,-1.3412 -0.0302,-0.0279 -1.62938,-0.50295 -1.93112,-0.97796 -0.24139,-0.39118 -0.30174,-1.6765 -0.72417,-2.31916 -0.21122,-0.30736 -0.54313,-0.25147 -0.78452,-0.47501 -0.21122,-0.16765 -0.18105,-0.475 -0.33191,-0.6706 -0.48279,-0.6706 -1.44835,-0.0559 -2.11217,-2.51475 -0.87504,-0.61471 -1.68973,-1.1456 -2.44408,-1.90003 -0.15087,-0.13971 -0.24139,-0.30736 -0.42243,-0.39118 -0.60348,-0.25148 -1.50869,-0.3353 -2.02165,-0.78237 -0.30174,0 -1.90095,-0.0559 -2.08199,-0.16765 -0.18104,-0.11177 -0.36209,-0.81031 -0.48278,-0.83825 -0.84487,-0.16765 -2.23286,-0.0838 -2.95704,-0.69854 -0.5733,-0.50295 -0.69399,-2.93388 -1.7199,-2.59858 -0.1207,-0.0559 -0.27157,-0.11176 -0.42244,-0.0838 -0.66382,-0.86619 -2.95703,-0.97796 -3.89242,-1.53679 -0.27156,-0.16765 -1.1466,-0.0279 -1.1466,-0.27942 0.21121,-0.47501 0.15087,-0.86619 0.18104,-1.3412 -0.51295,-0.50295 -0.84487,-1.08972 -1.20695,-1.45297 -0.87504,-0.19559 -0.54313,-0.27941 -1.08626,-0.61471 -1.50869,-0.11177 -1.65956,0.13971 -2.62512,1.03384 -0.24139,0.22353 -0.72417,0.27942 -1.02591,0.44707 -0.51295,0.27941 -0.66382,1.20149 -1.38799,0.78236 -0.2414,-0.13971 -0.39226,-0.36324 -0.57331,-0.53089 -0.42243,-0.36324 -0.66382,-0.16765 -0.87504,-0.83825 -1.23712,-0.6706 -4.64676,1.64856 -5.46146,0.0279 -0.5733,-0.30736 -0.99573,0.0838 -1.47851,-0.41912 -0.24139,-0.25148 0.66382,-3.04564 -1.81043,-4.19125 0.5733,-0.44707 1.17678,-0.75443 1.7199,-1.17355 0.15087,-0.30736 -0.0302,-0.78237 -0.0302,-1.08973 0,-0.47501 0.30174,-1.39708 0.21122,-1.73238 -0.0905,-0.3353 -0.45261,-0.61472 -0.5733,-1.0059 -0.15087,-0.39118 0.0302,-0.89413 -0.18105,-1.31326 -0.15087,-0.11177 -0.60347,-0.39118 -0.78452,-0.39118 -0.63365,-0.53089 -1.32764,-0.86619 -1.8406,-1.50885 -0.12069,-0.13971 -0.21122,-0.39119 -0.36208,-0.50295 -0.45261,-0.3353 -1.93113,-0.78237 -1.87078,-1.48091 0.0302,-0.22353 0.33191,-0.25148 0.42243,-0.47501 0.0905,-0.27942 0.0302,-0.64266 0.24139,-0.89413 0.694,-0.95002 2.23286,-0.53089 1.99147,-2.29122 -0.12069,-0.78237 -0.66382,-1.45297 -0.81469,-2.29122 -0.27156,-0.19559 -0.30174,-0.53089 -0.54313,-0.72648 -1.50869,-0.13971 -1.29747,-1.70444 -1.8406,-2.06768 -1.59921,-1.08973 -2.83634,-0.41913 -1.05608,-2.57064 0.24139,-0.69854 -1.53887,-1.8162 -1.90095,-2.20739 -0.63365,-0.61471 -0.33191,-1.90003 -0.57331,-2.57063 -0.12069,-0.3353 -1.17677,-0.92208 -1.50869,-1.39708 -0.0905,-0.13971 -0.36208,-0.8662 -0.51295,-0.95002 l 0.0302,-0.22353 c 0.33192,-0.25148 0.15087,-0.75443 0.0603,-1.08973 -0.21122,-0.19559 -0.66382,-0.13971 -0.81469,-0.27942 -1.44834,-1.31325 -3.19843,-1.90003 -5.09938,-2.65445 -0.51295,-0.1956 -0.36208,-0.61472 -0.78451,-0.81031 -0.36209,-0.16765 -2.92686,-1.31326 -3.10791,-1.25738 -0.30174,-0.0838 -0.51295,-1.22943 -0.72417,-1.59267 -0.18104,-0.3353 -0.90521,-0.95002 -0.90521,-0.97796 0.0603,-1.06178 -0.60348,-1.20149 -1.41817,-1.76033 0.0603,-0.1397 -0.0905,-0.475 -0.0905,-0.64265 0,-0.13971 0.54313,-1.98386 0.63365,-2.23534 0.15087,-0.39118 0.66382,-0.75442 0.5733,-1.20149 -0.1207,-0.69854 -0.21122,-1.78827 -0.45261,-2.40298 -0.81469,-2.17945 -1.78025,-1.90004 -1.2673,-4.75009 0.1207,-0.58677 -0.0905,-0.92207 0.36209,-1.45296 -0.0603,-0.0279 0.21121,-0.30736 0.24139,-0.36324 0.27156,-0.25148 1.02591,-0.6706 1.17678,-0.8662 0.4526,-0.61471 0.72417,-2.0118 1.29747,-2.45886 0.42243,-0.3353 1.62939,-0.97796 1.8406,-1.25738 0.18105,-0.22353 0.45261,-0.92207 0.30174,-1.20149 -0.42243,-0.25147 -0.84487,-0.13971 -1.2673,-0.19559 -0.15087,-0.0279 -0.694,-0.41913 -1.11643,-0.50295 -0.1207,-0.13971 -0.33191,-0.30736 -0.33191,-0.50295 l -0.18104,-0.16765 c -0.48279,-0.0559 -1.02591,-0.36324 -1.44835,-0.50295 -0.54313,-0.22353 -1.29747,-0.25148 -1.81043,-0.55883 -0.96556,-0.55884 -2.05182,-2.09563 -2.9872,-2.31916 -1.2673,-0.27942 -2.082,0.11176 -3.28895,0.16765 -0.78452,0.0559 -0.78452,-0.41913 -1.41817,-0.61472 -0.84486,-0.25147 -0.21121,0.44707 -2.14234,-0.16765 -0.24139,-0.19559 0.1207,-0.86619 0.15087,-1.11767 -0.30174,-0.0838 -0.66382,0.0838 -1.02591,0 -1.59921,-0.39118 -0.99573,-1.84415 -1.41817,-2.79416 -0.18104,-0.22354 -0.84486,-0.16765 -1.1466,-0.19559 -0.0905,-0.0279 -0.1207,-0.16765 -0.0905,-0.22354 l 0.15087,-0.11176 c 0.27156,-0.41913 -0.694,-1.48091 -0.66383,-1.62062 0.0603,-0.3353 2.02165,-0.64266 2.29321,-0.6706 0.0905,-0.25148 -0.18104,-0.47501 -0.21122,-0.72648 -0.0603,-0.55884 0.30174,-1.28532 0.48279,-1.78827 l -0.0603,-0.16765 c -0.54313,-0.30736 -0.72417,-0.75443 -1.20695,-1.11767 0.0302,-0.25147 0.36208,-0.41912 0.42243,-0.6706 0.93539,-2.59857 2.38373,-0.53089 3.65103,-2.93387 0.12069,-0.22354 0.48278,-0.81031 0.60348,-1.20149 l 0.24139,-0.0559 c 0.24139,0.0559 0.5733,0.25148 0.81469,0.16765 0.18104,-0.25147 0.5733,-0.3353 0.87504,-0.41912 l 0.45261,0.11176 c 2.35355,-0.50295 1.81043,-1.36914 3.16825,-2.3471 0.36208,-0.25147 1.41817,-0.36324 1.90095,-0.53089 0.51295,0.22354 1.23712,1.03384 2.20268,1.39709 0.694,0.27941 3.07773,0.78236 3.46999,1.0059 0.51296,0.27941 0.60348,0.95001 1.05609,1.20149 1.35782,0.72648 0.5733,-0.50295 1.87077,-0.25148 1.32765,0.27942 2.41391,1.36914 3.65103,1.90004 0.21122,0.0838 0.72417,-0.028 0.96557,-0.0838 0.39225,-0.0838 2.50442,-0.47501 2.71564,-0.39118 0.24139,0.0838 0.60347,0.30736 0.84486,0.36324 0.30174,0.0559 0.54313,-0.58678 0.75435,-0.55883 0.90521,0.1397 0.93539,0.50295 2.14234,0.39118 0.0603,0 0.63365,-3.40888 1.20695,-3.57653 0.33191,-0.0838 1.23713,0.8103 1.50869,0.86619 0.45261,0.11176 -0.0302,-0.69854 -0.0603,-0.75443 -0.1207,-0.27941 -0.75435,-2.37504 -0.72418,-2.57063 0.0302,-0.11177 0.60348,0.16765 0.87504,0.0838 0.66383,-0.22353 1.56904,-0.39118 2.05182,-0.92207 0.0603,-0.0559 1.08626,-1.53679 1.11643,-1.59268 0.0603,-0.25147 -0.27156,-0.83825 -0.12069,-1.03384 0.15087,-0.16765 0.72417,-0.39118 0.99574,-0.6706 0.39225,-0.39118 0.4526,-1.06178 0.99573,-1.3412 2.14234,-0.19559 2.89669,-1.87209 4.82781,-2.09562 0.1207,0 0.54313,-0.0838 0.63365,-0.0559 l 0.39226,0.64266 c 0.1207,0.16765 1.41817,0.95002 1.62939,0.89414 0.18104,-0.028 0.27156,-0.3353 0.4526,-0.39119 0.39226,0.0559 1.47852,-0.61471 1.59921,-0.95001 0.0302,-0.0559 -0.24139,-0.39119 -0.12069,-0.61472 0.0905,-0.16765 1.44834,-1.17355 1.65956,-1.28532 0.48278,0 0.99573,-0.11176 1.44834,0.0559 0.27157,0.11176 0.30174,0.53089 0.60348,0.58677 0.33191,0.0279 0.93539,-0.11177 1.17678,-0.0559 0.27156,0.0559 0.39226,-0.50295 0.72417,-0.53089 z"
     id="path11"
     inkscape:connector-curvature="0"
     style="fill:#d0a650" />
  <use
     height="100%"
     width="100%"
     id="use14"
     y="121.826"
     x="461.83499"
     xlink:href="#star"
     transform="matrix(0.79404762,0,0,0.79833333,-3.6952564,12.753332)" />
  <use
     height="100%"
     width="100%"
     id="use16"
     y="136.356"
     x="544.23297"
     xlink:href="#star"
     transform="matrix(0.79404762,0,0,0.79833333,-1.33828,13.653279)" />
  <use
     height="100%"
     width="100%"
     id="use18"
     y="164.972"
     x="622.85699"
     xlink:href="#star"
     transform="matrix(0.79404762,0,0,0.79833333,-2.730471,9.364555)" />
  <use
     xlink:href="#star"
     x="461.83499"
     y="121.826"
     id="use3354"
     width="100%"
     height="100%"
     transform="matrix(-0.79404762,0,0,0.79833333,662.69525,12.753332)" />
  <use
     xlink:href="#star"
     x="544.23297"
     y="136.356"
     id="use3356"
     width="100%"
     height="100%"
     transform="matrix(-0.79404762,0,0,0.79833333,660.33828,14.653279)" />
  <use
     xlink:href="#star"
     x="622.85699"
     y="164.972"
     id="use3358"
     width="100%"
     height="100%"
     transform="matrix(-0.79404762,0,0,0.79833333,663.73047,9.364555)" />
</svg>
