<?xml version="1.0" encoding="UTF-8" standalone="no"?>
<!-- Created with Sodipodi ("http://www.sodipodi.com/") -->

<!-- /Creative Commons Public Domain -->

<!--
<rdf:RDF xmlns="http://web.resource.org/cc/"
     xmlns:dc="http://purl.org/dc/elements/1.1/"
     xmlns:rdf="http://www.w3.org/1999/02/22-rdf-syntax-ns#">
<Work rdf:about="">
    <dc:title>New Zealand, Australia, United Kingdom, United States, 
Bosnia and Herzegovina, Azerbaijan, Armenia, Bahamas, Belgium, Benin, 
Bulgaria, Estonia, Finland, Gabon, Gambia, Germany, Greece, Greenland, 
Guinea, Honduras, Israel, Jamaica, Jordan, and Romania Flags</dc:title>
    <dc:rights><Agent>
       <dc:title>Daniel McRae</dc:title>
    </Agent></dc:rights>
    <license rdf:resource="http://web.resource.org/cc/PublicDomain" />
</Work>

<License rdf:about="http://web.resource.org/cc/PublicDomain">
    <permits rdf:resource="http://web.resource.org/cc/Reproduction" />
    <permits rdf:resource="http://web.resource.org/cc/Distribution" />
    <permits rdf:resource="http://web.resource.org/cc/DerivativeWorks" />
</License>
</rdf:RDF>
-->

<svg
   xmlns:dc="http://purl.org/dc/elements/1.1/"
   xmlns:cc="http://creativecommons.org/ns#"
   xmlns:rdf="http://www.w3.org/1999/02/22-rdf-syntax-ns#"
   xmlns:svg="http://www.w3.org/2000/svg"
   xmlns="http://www.w3.org/2000/svg"
   xmlns:sodipodi="http://sodipodi.sourceforge.net/DTD/sodipodi-0.dtd"
   xmlns:inkscape="http://www.inkscape.org/namespaces/inkscape"
   id="svg153"
   sodipodi:version="0.29win"
   width="640"
   height="480"
   sodipodi:docname="_wales.svg"
   version="1.1"
   inkscape:version="0.91 r13725">
  <sodipodi:namedview
     id="base"
     showgrid="false"
     inkscape:zoom="0.79569286"
     inkscape:cx="805.94408"
     inkscape:cy="406.22005"
     inkscape:window-width="2560"
     inkscape:window-height="1414"
     inkscape:window-x="2560"
     inkscape:window-y="0"
     inkscape:window-maximized="1"
     inkscape:current-layer="svg153" />
  <metadata
     id="metadata3151">
    <rdf:RDF>
      <cc:Work
         rdf:about="">
        <dc:format>image/svg+xml</dc:format>
        <dc:type
           rdf:resource="http://purl.org/dc/dcmitype/StillImage" />
        <dc:title></dc:title>
      </cc:Work>
    </rdf:RDF>
  </metadata>
  <desc
     id="desc3066">
    The United States of America flag, produced by Daniel McRae
  </desc>
  <defs
     id="defs155">
    <clipPath
       clipPathUnits="userSpaceOnUse"
       id="clipPath6304">
      <rect
         id="rect6306"
         height="130"
         x="0"
         style="fill:#000000;fill-opacity:0.67000002;stroke:none"
         width="130"
         y="-1.2695313e-06" />
    </clipPath>
    <clipPath
       clipPathUnits="userSpaceOnUse"
       id="clipPath4293">
      <rect
         id="rect4295"
         height="512"
         x="0"
         style="fill:#000000;fill-opacity:0.67000002;stroke:none"
         width="682.66669"
         y="5.2306668e-06" />
    </clipPath>
  </defs>
  <g
     id="g4235"
     transform="matrix(0.77108434,0,0,0.96385542,166.5067,22.321972)">
    <rect
       id="rect4"
       height="498"
       width="830"
       style="fill:#00ab39"
       x="-215.93837"
       y="-23.159046" />
    <rect
       id="rect6"
       height="249"
       width="830"
       style="fill:#ffffff"
       x="-215.93837"
       y="-23.159046" />
    <g
       id="g8"
       transform="translate(-214.21837,-22.189046)"
       style="stroke:#000000;stroke-width:1.79999995">
      <path
         id="path10"
         d="m 541.562,28.5625 c -0.011,0.0194 -0.019,0.0431 -0.031,0.0625 0.033,-0.0182 0.061,-0.0443 0.094,-0.0625 l -0.063,0 z m -0.031,0.0625 c -52.242,28.8873 -99.003,58.9451 -144.969,97.25 -22.06,19.27 -15.833,34.631 -16.687,51.937 0.711,11.618 -2.511,22.426 -9.656,28.938 -16.35,3.306 -32.715,6.632 -49.063,9.938 -1.566,-4.524 -3.121,-9.042 -4.687,-13.563 1.495,-6.94 7.232,-10.352 19.312,-6 0.952,-8.923 -6.227,-12.555 -14.625,-15.656 -2.885,-2.246 -6.468,-3.971 -6,-11.688 -1.412,-17.467 26.615,1.25 26.875,1.25 0.261,0 -0.934,-17.627 -13.812,-21.156 -7.022,-2.485 -9.994,-9.892 -7.313,-15.375 5.618,-11.209 16.194,0.878 24.282,1.312 -0.304,-7.316 -2.387,-12.531 -8.688,-18.437 -3.392,-2.087 -11.722,-3.657 -11.938,-7.156 -0.176,-4.752 7.808,-6.784 18.782,-5.469 -2.288,-6.6597 -9.668,-10.9678 -19.813,-14.0938 -2,-3.4786 -4,-6.9582 -6,-10.4374 -2.841,-5.26 -4.115,-5.4018 2.469,-15.375 5.915,-3.8266 13.774,-9.2366 19.688,-13.0626 -2.176,-0.261 -4.357,-0.5203 -6.532,-0.7812 0.869,-7.1313 0.969,-9.5307 2.625,-21.375 -6.346,8.6716 -14.275,7.1213 -21.406,10.6875 0,0 -20.33,3.6092 -26.875,12.25 -0.261,0 -51.125,-2.5937 -51.125,-2.5937 -10.84,1.5094 -20.099,4.5822 -21.906,15.125 -24.792,2.5024 -50.755,0.2888 -69.657,24 12.87,-0.6088 24.136,-3.6738 38.594,-1.8126 0,0 12.321,0.233 14.875,13.2808 0.261,0.522 4.188,0.532 4.188,0.532 1.566,1.217 3.121,2.439 4.687,3.656 0.609,-1.652 1.204,-3.317 1.813,-4.9688 1.392,0.9568 2.795,1.9178 4.187,2.8748 0.434,-1.826 0.879,-3.6423 1.313,-5.4685 1.392,0.9565 2.764,1.9184 4.156,2.8745 0.087,-2.1736 0.195,-4.3568 0.281,-6.5308 1.827,1.3044 3.643,2.6019 5.469,3.9063 l 0,-8.5937 c 0,0 20.192,-0.0472 26.344,12.7812 0.262,0.261 -56.665,10.463 -111.657,5.75 5.306,-2.609 10.602,-5.235 15.907,-7.8438 C 134.919,95.455 116.068,91.77 98.375,77.875 c 6.677,25.137 41.181,54.663 48.25,54.531 0,0.261 -6.781,-12.25 -6.781,-12.25 19.916,0.87 39.835,1.725 59.75,2.594 2.175,6.61 1.213,14.02 6.531,19.844 0,0 -3.299,10.925 4.031,15.375 0.262,0.521 8.75,-22.157 8.75,-22.157 0,0 2.6,6.101 5.219,10.157 3.795,-19.508 25.031,-22.688 25.031,-22.688 0,0 4.438,10.176 4.438,10.438 -6.636,0.96 -14.89,14.486 -10.438,21.906 -4.45,0.085 -12.351,13.186 -9.906,20.344 -3.741,3.723 -13.058,8.686 -10.688,24.281 -7.334,1.572 -11.676,14.991 -9.406,29.219 -11.349,10.564 -8.563,29.956 1.563,37.812 -4.203,3.74 -6.791,6.616 -6.781,11.219 -3.996,-1.485 -7.68,-0.244 -9.407,2.375 -4.898,-5.021 -11.931,-9.418 -16.937,-4.719 -1.296,-5.94 -9.032,-12.474 -17.5,-11.718 0.496,-6.264 -2.755,-14.018 -11.719,-16.719 0,0 -1.814,-29.358 -10.719,-38.875 -0.873,-5.326 0.51,-8.948 7.844,-13.313 7.323,-3.906 8.879,-6.935 8.344,-18 2.887,-7.396 5.08,-14.936 -3.906,-20.062 0.27,8.795 -2.43,13.031 -6,16.937 -4.266,-0.621 -5.756,4.358 -8.626,6.532 -4.016,-5.414 8.472,-13.799 -0.781,-25.844 -0.521,-0.523 -6.459,-15.723 -21.125,-15.375 6.971,4.082 9.92,10.951 9.906,18 -4.624,13.045 -6.973,23.127 -2.343,38.093 -6.093,-9.128 -9.549,-26.482 -14.594,-29.5 -4.422,-0.862 -6.582,-11.321 -23.75,-8.343 7.4057,1.992 9.7571,7.647 11.75,12.781 -4.541,2.342 -2.285,8.519 1.0312,12.781 -0.6296,10.015 5.3698,15.866 14.3438,19.594 -1.478,13.653 -2.96,27.283 -4.438,40.937 -3.564,-0.454 -9.05,13.425 -11.2182,13.844 -3.4888,2.171 -9.5812,8.01 -2.5938,9.656 -2.0758,7.492 -4.0012,12.009 -15.1562,13.563 0,0 11.7874,6.991 21.5622,-4.969 10.474,-0.262 7.03,-12.752 12.094,-18.25 0,-0.26 2.874,-2.066 7.062,-13.062 1.832,9.819 11.908,39.888 34.688,54.812 19.856,21.256 36.175,41.33 36,69.656 7.75,-7.208 12.378,-18.624 15.938,-29.5 10.776,-3.748 26.191,-5.179 39.937,-4.562 -2.358,4.961 -4.997,9.721 -1.594,12.938 -9.593,3.294 -11.695,10.256 -7.843,17.218 -10.112,6.867 -10.778,11.28 -10.938,22.688 -18.708,23.985 -30.249,23.188 -48.781,16.968 -6.086,-3.572 -15.505,-8.714 -19.844,-6 -8.004,-5.334 -19.512,-6.126 -21.406,6 6.006,-4.978 9.592,-4.018 14.375,0.782 -0.962,2.436 -1.766,4.862 1.812,6.25 -1.566,1.739 -3.121,3.48 -4.687,5.218 -8.613,-1.324 -20.194,-1.25 -23.219,11.219 4.424,-3.665 14.24,-4.525 22.156,-1.031 1.479,0.522 2.959,1.04 4.438,1.562 0.174,2 0.358,4 0.531,6 0,0 -11.732,-1.811 -14.875,17.219 11,-11.702 18.781,-8.625 18.781,-8.625 4.239,6.205 19.841,5.271 31.063,-4.937 15.762,-8.812 20.357,3.851 30.531,-4.438 8.436,-6.292 18.417,-2.108 25.281,5.219 7.915,2.969 16.2,5.413 22.719,0 0,0 7.963,-5.081 15.906,3.125 0.087,-9.253 -6.47,-14.169 -15.375,-14.344 l -2.625,-2.625 c -8.349,-1.74 -17.73,-1.034 -25.031,-5.218 3.442,-13.066 8.457,-24.904 18.25,-34.969 12.088,-12.958 20.987,-18.85 36.25,-38.688 -0.589,11.211 8.003,23.677 12.531,35.063 0,0 9.116,-14.555 10.438,-26.375 0.26,0 11.423,-5.81 16.187,-10.75 10.056,6.237 26.446,-4.994 37.032,-14.281 6.524,2.47 11.478,2.292 19.062,0 -6.088,12.39 3.521,23.883 18.781,28.687 1.411,10.938 12.459,13.229 29.219,13.313 0.706,6.436 10.688,7.312 10.688,7.312 -6.308,2.94 -9.596,5.886 -9.376,12.531 -6.464,0.044 -11.36,1.671 -13.062,9.125 -8.876,0.152 -17.922,0.833 -25.562,5.219 -8.176,-1.269 -18.122,-4.657 -24.532,-11.219 -3.306,-2.783 -4.131,-6.796 -9.906,-8.344 -3.66,-4.326 -8.039,-3.36 -9.406,0.782 -3.783,-2.955 -17.972,-4.328 -20.344,9.125 6.624,-4.848 12.564,-6.696 16.719,-0.781 -2.264,4.106 5.516,6.455 12.25,8.093 4.776,0.296 13.247,4.647 15.906,12 -6.16,1.869 -15.496,1.253 -21.656,-3.406 -5.476,-4.582 -12.872,-4.036 -16.938,-1.031 -5.64,-3.596 -19.071,3.193 -19.593,14.062 5.658,-5.184 10.807,-7.691 15.937,-4.406 -2.553,0.606 -1.583,0.855 -1.313,2.344 4.348,2.522 8.684,5.04 13.032,7.562 -6.394,1.687 -12.405,4.238 -9.625,16.156 0,0 5.208,-10.296 16.937,-6.5 0.261,-0.26 1.617,3.678 4.969,1.032 5.076,-5.776 16.682,-8.362 26.875,-9.375 8.18,-0.977 16.347,-3.387 23.469,1.281 6.341,-3.262 13.401,-5.456 20.625,-0.25 8.523,2.696 14.746,12.631 25.562,8.094 5.379,-3.723 11.99,-3.912 18.782,3.656 0.082,-9.543 -7.069,-12.742 -17.219,-14.875 -2.349,-1.393 -4.683,-2.795 -7.031,-4.187 -6.522,-0.958 -13.072,0.198 -19.594,-2.876 34.134,-8.824 58.062,-27.859 74.906,-55.031 5.392,1.913 10.764,3.805 16.156,5.719 3.825,0.245 4.117,1.574 12,3.938 0.297,-11.614 -4.689,-23.578 -25.562,-24.782 l -27.406,-10.437 c -5.818,-6.135 -8.447,-19.152 -1.032,-26.875 7.258,-6.463 8.525,-5.689 13.313,-13.563 5.822,-0.53 11.309,5.469 16.687,5.469 2.554,7.587 17.274,14.294 26.625,12 5.859,5.187 17.008,8.07 29.219,3.906 6.93,6.067 15.959,8.6 26.594,3.906 2.823,2.824 8.783,5.069 15.656,3.657 0.522,0 3.473,7.541 10.969,10.187 -3.268,3.176 -1.259,16.966 2.093,21.906 -2.288,5.302 -3.008,10.958 -1.062,16.438 -7.559,4.86 -9.098,8.475 -5.719,16.688 -9.899,15.906 -21.741,17.724 -32.875,12.812 -4.002,-2.522 -7.998,-5.071 -12,-7.594 -4.261,-4.175 -8.52,-8.325 -12.781,-12.5 -2.17,-2.037 -6.66,-2.677 -7.594,1.813 0,0 -16.399,-3.658 -17.719,10.187 6.798,-6.62 16.438,-0.792 16.438,-0.531 0,0.261 -2.296,1.823 -0.531,4.469 0.397,-0.331 11.973,4.32 22.281,8.75 5.6,2.122 6.831,2.786 9.281,4.094 -2.685,-1.23 -5.858,-2.623 -9.281,-4.094 -6.275,-2.379 -12.388,-4.279 -14.188,-3.813 -5.84,-0.545 -12.034,-1.27 -14.874,3.125 -6.278,2.656 -16.084,4.783 -15.657,16.438 4.239,-6.94 10.055,-6.647 17.469,-6 -0.174,0.522 -0.326,1.04 -0.5,1.562 8.05,3.667 6.523,-0.998 14.031,-1.687 6.277,-0.576 15.174,1.672 19.875,3.25 -5.913,1.739 -13.954,1.009 -17.75,5.219 -0.696,1.392 -3.131,0.823 -2.062,4.156 0,0 -11.534,-0.298 -14.625,15.656 11.728,-7.509 20.615,-7.281 20.875,-7.281 0.261,0 3.656,0.781 3.656,0.781 0,0 14.084,-9.406 14.344,-9.406 0.262,0 13.638,-5.923 19.812,0.781 5.389,2.649 11.153,2.818 16.719,-0.531 10.966,-4.77 21.231,-5.104 31.313,1.594 l 9.124,5.468 c 1.304,-0.869 2.603,-1.755 3.907,-2.625 0,0 10.329,-2.917 17.906,6.281 -3.132,-15.914 -14.5,-16.437 -14.5,-16.437 -0.87,-0.783 -1.756,-1.561 -2.625,-2.344 -5.392,-2.087 -10.764,-4.194 -16.156,-6.281 -2.354,-5.826 -8.268,-10.465 -2.375,-17.469 6.02,-29.926 13.218,-52.401 1.562,-82.719 10.871,4.696 19.005,19.217 32.625,14.094 0,-12.176 -44.822,-35.294 -79.062,-53.875 56.094,-2.87 123.51,-44.277 97.594,-96.906 4.088,-12.697 8.162,-25.397 12.25,-38.094 5.77,11.623 17.453,20.483 27.937,24.25 -8.641,-16.496 -13.6,-66.93 -8.625,-101.75 -22.603,27.922 -47.563,52.7018 -74.094,77.8748 13.05,3.05 24.453,0.904 37.063,-0.656 -3.566,7.305 -7.029,14.632 -10.594,21.938 -34.473,-20.188 -74.947,-5.038 -75.25,21.906 1.179,31.42 40.027,35.885 62.437,24.937 -4.442,28.647 -70.281,18.094 -70.281,18.094 -23.394,-8.064 -45.613,-6.683 -70.187,-6.5 5.106,-15.71 33.46,-29.652 55.062,-23.5 -30.243,-33.909 4.275,-76.008 45.906,-88.969 -45.376,-14.9658 -6.304,-49.5575 27.657,-74.3435 0,0 -97.663,41.1007 -106.563,40.9687 -27.779,-2.0867 -20.207,-34.9672 -9.625,-52.6562 z M 235,68.0938 c 2.273,0.0119 4.945,0.2339 7.062,0.75 4.404,1.073 9.763,1.6886 9.688,3 -2.039,3.4124 -7.047,7.5288 -11.969,7.2812 -4.921,-0.2476 -7.766,-3.1984 -9.406,-10.5938 0.503,-0.2725 2.352,-0.4494 4.625,-0.4374 z m 411.094,115.875 c 6.403,-0.088 14.074,2.621 21.562,10.562 -3.6,10.371 -34.842,15.697 -36.937,0.344 -0.633,-4.641 6.016,-10.779 15.375,-10.906 z"
         inkscape:connector-curvature="0"
         style="fill:#d21034" />
      <path
         id="path12"
         d="m 267.26,158.74 4.737,6.891 m -0.215,0.217 c 0,0 0,9.259 1.938,9.476 m -4.307,4.952 c 0.215,0.216 4.954,8.184 4.954,8.184 m -13.569,2.153 c 0.215,0 6.031,6.677 6.031,6.677 m 5.051,-5.18 c 0,0.215 5.501,10.565 5.932,10.565 m -13.136,-3.447 c 0,0 1.938,12.491 3.66,12.061 m -11.801,10.828 5.556,8.339 m 4.738,-17.229 c 0,0 3.015,11.845 5.383,10.767 m 2.364,-17.879 c 0.216,0.215 5.606,7.974 7.112,6.897 m -1.291,3.014 5.168,10.338 m -13.783,-2.37 c 0.215,0.432 4.307,12.277 4.307,12.277 m -14.214,-6.03 c 0,0 3.877,13.137 7.323,10.982 m -8.83,6.462 c 0,0 0.215,6.891 3.661,7.321 m 2.37,-10.767 c 0,0.215 3.445,4.954 3.445,4.954 m 6.398,-13.149 2.862,4.534 m 6.246,-12.921 4.308,5.383 m -24.293,-67.137 c 0.215,5.815 9.437,-2.048 13.098,-7.002 m -17.018,27.19 c 0,0 10.122,-7.107 17.875,-17.875 m -21.106,34.889 c 7.107,-1.938 20.183,-17.753 22.767,-26.152 m -24.275,41.873 c 1.94,0.861 26.367,-16.732 27.014,-29.653 m -27.659,43.221 c 0,-0.215 22.33,-5.693 31.591,-30.244 m -32.79,48.826 c 0,0 35.657,-21.381 37.595,-37.102 m 240.77,73.006 c 0,0 -2.299,18.453 -20.82,21.252 m 26.635,11.699 c 0.215,-0.216 17.659,-19.383 13.137,-25.198 m 27.351,6.676 c 0,0 -0.215,13.353 -11.199,22.613 m 32.95,-18.735 c 0,0 0.432,16.151 -6.46,22.612 m 26.488,-12.922 c 0,0 -7.727,15.126 -10.526,16.634 m 10.191,10.173 c 0,0 10.167,2.534 13.397,-4.143 m -10.761,26.084 c 0,0 9.399,1.697 13.706,-7.347 m -14.714,24.284 c 0,0 7.607,6.391 12.776,-2.007 m -121.95,-122.44 c 0,0 -0.862,32.735 45.225,39.41 51.472,14.215 75.807,6.677 78.823,64.394 -1.938,21.967 -4.668,46.778 -20.604,37.301 M 464.552,286.27 c 0,0 7.323,13.136 16.152,12.275 11.629,-3.446 15.936,3.661 15.936,3.661 m -63.53,-2.8 c 0,0 19.383,9.476 35.964,-5.815 m -33.811,-7.753 c 1.722,22.613 -26.059,35.535 -37.043,33.382 m 38.36,53.27 c 0.216,0 15.05,-8.905 12.036,-15.152 m -41.566,1.94 c 0.431,-0.432 24.982,-2.801 29.505,-11.631 m -40.919,-24.552 c 0,-0.215 34.845,0.097 37.213,6.557 m 9.09,-27.231 c 0,0 -34.028,58.148 28.858,58.148 m -64.824,-59.01 c 0,0 -7.323,21.753 -17.66,29.074 m -18.52,-36.61 c 0,0 12.636,24.449 -0.071,36.509 m -32.879,-29.618 c 0.215,0.43 4.091,34.673 -4.524,44.364 m -11.843,-43.287 c 0,0 1.291,21.751 -5.169,29.504 -6.462,7.753 1.513,23.856 1.513,23.856 m -78.5,10.457 c 0,0 4.624,8.114 11.086,5.313 m -3.231,-23.042 c 0,0 10.337,4.522 13.783,2.799 m -2.584,-39.411 c 0,0 -15.291,4.307 -9.476,22.397 8.829,7.108 17.444,6.03 17.444,6.03 m -38.119,48.456 c -0.215,0 1.723,14.215 11.63,3.446 6.891,-14.428 28.643,-55.132 33.597,-69.131 m 10.121,-6.675 c 0,0 -10.553,-8.184 -10.121,3.23 -0.217,7.106 3.229,8.829 3.229,8.829 0.43,5.169 4.954,12.49 8.614,5.815 1.508,-6.461 -1.076,-9.261 -1.076,-9.261 m 6.03,-11.63 c -9.476,-0.646 -14.644,20.245 3.662,7.11 m 6.245,-14.216 c 0,0 -2.368,3.232 -6.03,-0.215 -1.939,-3.445 -8.829,15.507 3.231,16.152 2.153,-5.6 8.83,-7.107 8.83,-7.107 m 5.6,-17.875 c 0,0 -5.385,2.584 -7.323,2.153 -6.461,1.508 -5.17,16.584 3.014,15.722 2.799,-3.23 5.815,-7.753 5.815,-7.753 m -52.29,-29.83 c -0.216,0 -21.372,33.268 11.794,42.098 m 256.71,-92.175 c 0,0 -12.922,10.984 -0.862,28.643 -40.058,-0.645 -61.592,17.875 -63.315,30.365 -51.041,-3.66 -41.78,11.416 -58.364,16.368 -22.182,-18.521 -54.702,-8.183 -52.548,10.337 -14.861,-20.89 -37.688,-10.767 -40.487,-5.599 -2.8,5.169 -1.723,-25.628 -1.723,-25.628 0,0 -14.86,6.677 -25.199,18.952 0.217,-8.183 0,-21.536 0,-25.843 -12.418,2.512 -24.407,2.654 -37.257,2.369 m -33.596,-9.476 c 0,0 18.52,10.337 41.349,-3.661 m -42.857,-33.596 c 0,0 14.43,12.92 41.566,8.829 m -32.52,-38.55 c 0,0 3.229,10.553 34.243,11.199 m -23.74,-35.604 c 0,0 11.679,14.283 27.4,12.13 m -17.443,-32.52 c 0,0 4.522,7.753 21.751,9.045 m -11.631,-31.658 c 0,0 9.046,9.907 19.384,8.184 m 34.431,-88.698 c 0,0 4.006,-4.0053 10.682,-2.0026 m -13.573,23.142 c 0,0 -12.463,-0.4451 -11.573,-5.3405 0.892,-5.563 13.13,-9.5684 13.13,-9.5684 0,0 16.243,-10.458 18.691,-14.019 m -73.432,56.966 15.8,30.263 7.565,-11.349 4.006,7.788 6.453,-11.348 11.126,7.12 -4.228,-13.796 9.345,-0.667 c 0,0 -2.448,-6.676 -10.904,-8.011 2.226,-1.7803 10.014,-6.8983 10.014,-6.8983 0,0 -4.449,-5.118 -11.348,-5.3406 2.225,-2.4476 5.34,-8.4558 5.118,-8.4558 -0.222,0 -6.899,-1.5576 -6.899,-1.5576 0,0 15.8,5.1179 28.038,-2.0027 m -30.25,-24.467 c 0.222,0.2225 -0.891,6.2305 -4.229,9.791 m -56.742,6.8981 c 0,0 9.7742,-2.6898 17.088,-1.165 7.245,1.4888 16.958,4.0578 16.958,4.0578 0,0 11.57,-1.5576 15.354,-4.2279 m -73.656,7.7882 c 0,0 -1.334,4.6728 -1.779,7.7883 0,2.2252 -7.122,5.1181 -7.122,5.1181 m 13.353,-22.475 c 0,0 6.23,7.7881 6.452,12.238 0.223,4.4505 -4.672,7.7885 -4.672,7.7885 m -66.089,33.156 -6.454,-10.458 5.786,-2.003 m 117.2,156.72 c -5.168,-6.676 3.876,-109.19 23.044,-135.89 -6.676,48.241 15.506,97.558 21.105,97.343 m -102.4,-125.99 c 0,0 8.722,3.3378 26.812,-10.984 m 24.443,34.676 12.975,0.161 m 389.49,-80.51 c 0,0 -216.19,101.02 -219.34,106.37 36.505,-11.016 191.33,-36.82 195.11,-34.617 -9.126,2.203 -197,45.315 -205.81,55.701 46.889,-1.574 145.08,15.105 160.49,31.154 -33.358,-7.552 -133.12,-22.343 -163.64,-15.735 22.344,5.351 107.94,60.737 107.94,69.548 -12.902,-12.272 -115.81,-54.757 -119.9,-50.665 23.6,14.161 56.96,66.714 56.958,79.617 -6.923,-11.014 -66.4,-74.898 -69.861,-70.807 6.294,8.813 18.766,84.222 12.39,87.717 0,-9.126 -23.09,-75.129 -24.978,-77.017 -4.721,1.258 -34.152,80.528 -28.321,87.899 -3.776,-26.433 0.628,-81.604 7.866,-79.402 -12.901,1.888 -54.078,56.18 -49.673,64.677 1.259,-13.532 3.1,-22.507 26.386,-67.509 -25.805,1.572 -79.302,35.246 -88.43,47.204 7.239,-21.398 52.555,-57.59 72.381,-60.107 m 93.316,-78.747 c 22.85,-12.68 93.46,-38.557 140.56,-57.543 m -184.91,125.78 c 0,0 15.576,-0.222 31.153,-42.501 15.35,-57.85 137.07,-122.38 139.52,-134.4 m -376.67,235.07 c 0,0 -3.615,7.703 -8.066,9.929 m 25.525,1.744 c 0,0 -4.829,9.382 -5.942,13.832 m 22.65,-9.243 c 0,0 4.052,12.803 0.714,18.812 m -47.239,-52.053 c -12.238,6.899 6.964,50.494 65.041,54.722 m -9.346,-23.587 c 0,0 -1.557,7.788 9.346,23.365 -3.115,17.356 13.195,30.996 19.649,33.221 m -33.67,-213.01 c 0,-0.223 1.78,-4.673 1.78,-4.673 l 1.9836,5.1444 3.1933,-0.0834 2.1072,-5.1575 1.7301,5.1769 3.1729,0 1.9573,-5.7483 2.9571,5.4428 2.5111,0.12743 1.9776,-6.6295 4.0772,4.7487 1.4806,-0.57339 1.2699,-6.6313 4.0277,4.6378 1.1554,-0.67754 1.8676,-6.5354 3.3459,4.8596 1.6845,-0.54918 1.5632,-5.4927 3.1098,5.0477 m -50.532,8.149 24.274,-0.361 c 7.723,-0.115 20.442,-10.819 34.684,-7.481 m -110.12,59.774 c 0,0 4.005,8.679 9.569,3.783 m -18.914,2.003 c 0,0 -7.789,20.917 1.557,25.811 m -12.684,-48.954 c 0,0 0,4.895 10.236,-2.67 m -42.073,112.59 c 0,0 8.2332,2.448 6.8982,8.679 m -3.788,-104.81 c 0,0 5.1179,2.448 10.014,-5.117 m 44.282,245.89 c 8.01,-0.445 9.735,3.172 17.023,3.172 8.396,0.256 16.577,-3.172 27.259,-6.065 m 68.758,19.36 c -0.223,0 -3.783,7.565 -0.667,11.347 m -113.49,-10.68 c 0,0 12.685,-10.459 19.36,-4.005 6.454,2.226 10.013,1.78 10.013,1.78 m -22.69,-27.59 c 0,0 3.115,8.01 -7.344,6.898 m -3.115,11.571 c 0,0 6.675,4.229 -0.89,9.791 m 4.895,7.566 c 0,0 9.123,1.336 3.782,8.678 m 290.91,-64.115 c 0,0 24.776,2.564 25.915,4.415 2.849,-2.991 24.972,-20.911 -2.225,-23.473 -4.555,18.654 -23.263,19.343 -23.69,19.058 z m -8.828,12.388 c 9.255,7.404 5.463,11.841 34.513,-7.666 m -47.756,16.923 c 0,0 13.669,14.667 23.637,-3.134 m -49.695,8.402 -18.511,9.682 m -33.321,13.671 c 0,0 11.249,-9.683 16.518,-4.557 5.268,5.126 27.624,-4.413 27.624,-4.413 m -35.741,-33.037 c 0,0 3.846,7.689 -3.56,8.686 m -11.106,15.379 c 0,0 3.901,7.23 -3.646,9.223 m 12.332,10.428 c 0,0 11.677,0.569 7.547,9.397 m 101.67,-10.964 c 0,0 -6.408,5.411 -1.708,11.535 m 94.691,-50.408 c 0,0 7.404,3.559 -1.424,9.683 m -7.404,12.815 c 0,0 5.553,5.839 1.851,10.679 m 13.67,11.676 c 0,0 7.688,2.136 6.835,8.544 m 100.81,-14.239 c 0,0 -6.408,4.698 -2.99,10.822 M 551.9922,243.2931 c 15.38,-1.851 37.449,32.323 48.698,39.016 m 67.272,-87.425 c 0,0 7.7898,6.7994 0.9361,23.205 m 13.505,-49.366 c 2.167,1.686 10.539,6.154 16.069,16.496 m 5.312,-67.659 c 0,0.142 -10.822,29.191 -10.822,29.191 m 22.925,-30.615 c 0,0 -2.136,25.915 -5.268,31.184 m -42.957,47.223 c -3.6,10.371 -34.84,15.678 -36.935,0.32544 -1.0657,-7.8158 18.503,-19.872 36.935,-0.32544 z"
         inkscape:connector-curvature="0"
         style="fill:none;stroke-linejoin:round" />
      <path
         id="path14"
         d="m 234.76,68.178 12.02,2.225 c 0,0 -8.46,11.349 -12.02,-2.225 z"
         inkscape:connector-curvature="0"
         style="fill:#000000;stroke-linejoin:round" />
    </g>
  </g>
</svg>
