<?xml version="1.0" encoding="UTF-8" standalone="no"?>
<!-- Created with Sodipodi ("http://www.sodipodi.com/") -->
<svg id="svg548" xmlns:rdf="http://www.w3.org/1999/02/22-rdf-syntax-ns#" xmlns="http://www.w3.org/2000/svg" height="480" width="640" version="1.1" xmlns:cc="http://creativecommons.org/ns#" xmlns:dc="http://purl.org/dc/elements/1.1/">
 <metadata id="metadata128">
  <rdf:RDF>
   <cc:Work rdf:about="">
    <dc:format>image/svg+xml</dc:format>
    <dc:type rdf:resource="http://purl.org/dc/dcmitype/StillImage"/>
   </cc:Work>
  </rdf:RDF>
 </metadata>
 <g id="g3634">
  <g id="g3379" transform="matrix(1.25 0 0 .93750 0 .0000046874)">
   <g id="g3111">
    <g id="g3105">
     <g id="flag" fill-rule="evenodd" transform="matrix(.72249 0 0 1.0321 0 -16.449)" stroke-width="1pt">
      <rect id="rect895" height="496.06" width="237.4" y="15.937" x="0" fill="#0000bd"/>
      <rect id="rect896" height="496.06" width="237.4" y="15.937" x="471.26" fill="#cc1900"/>
      <rect id="rect897" height="496.06" width="233.86" y="15.937" x="237.4" fill="#fff600"/>
     </g>
    </g>
   </g>
  </g>
  <g id="g919" transform="matrix(1.4342 0 0 1.4102 -183.84 -822.43)">
   <g id="g853" stroke-width="1pt">
    <path id="path738" d="m398.54 290.22c47.823 0.818 44.515-29.149 61.974-32.126 17.458-2.977 33.928 12.489 33.302 29.972 1.873 20.814-29.714 20.963-31.637 38.298-1.923 17.336 15.378 22.628 33.302 19.982s30.646-20.363 39.804-28.689c-13.321 7.493-24.218 4.778-25.21-8.558 0.673-17.497 18.103-23.847 26.345-17.96 6.476-5.298 6.09-7.423 13.209-6.246 4.828 2.944 6.143 2.861 8.999 7.418 3.717-2.355 5.269-3.54 12.204-0.597 4.306 1.767 7.181 4.961 9.841 9.808 3.146-2.486 8.086-3.413 13.762-0.197 3.61 1.837 8.108 7.182 8.72 12.995 8.451 1.696 11.381 3.654 14.034 7.953 15.765 21.775-2.435 58.473-1.432 77.205 1.004 18.731 16.651 19.981 16.651 19.981-14.717-9.42-0.201-15.9 6.745-16.55 22.252 2.292 18.508 35.135-5.18 29.366-18.978-5.18 38.921 3.281 37.525 62.637-1.396 61.021-32.815 49.01-32.815 49.01s26.838 10.109 21.646 30.09c-5.191 13.507-32.933 22.456-30.578-3.448-8.242 11.186-10.608 15.913-10.58 32.916-1.148 21.713 0.656 31.631 6.845 42.301 1.48-9.935 8.206-10.361 13.952-9.1 8.101 0.084 12.607 6.442 9.563 14.684 4.079-1.035 7.801 1.757 9.402 5.121 1.255 6.206 4.037 8.956-2.439 11.311 6.476 1.178 9.61 2.024 10.377 11.049 0.18 7.261-12.596 11.246-26.136 8.891 7.065 3.533 29.983 50.025 26.922 103.44-2.119 47.905-86.038 43.639-123.53 42.305-37.488-1.332-72.512 0.775-87.133 13.052 11.247 7.182-1.302 29.542-10.864 19.064 0 8.242-9.449 20.979-22.497 12.718 0.534 14.885-14.238 25.328-27.121 25.328s-27.655-10.443-27.121-25.328c-13.048 8.261-22.497-4.476-22.497-12.718-9.562 10.478-22.111-11.882-10.864-19.064-14.621-12.277-49.645-14.384-87.133-13.052-37.489 1.334-121.41 5.6-123.53-42.305-3.061-53.418 23.699-99.91 30.764-103.44-13.54 2.355-26.316-1.63-26.136-8.891 0.767-9.025 3.901-9.871 10.377-11.049-6.476-2.355-3.694-5.105-2.439-11.311 1.601-3.364 5.323-6.156 9.402-5.121-3.044-8.242 1.462-14.6 9.563-14.684 5.746-1.261 12.472-0.835 13.952 9.1 6.189-10.67 7.993-20.588 6.845-42.301 0.028-17.003-2.338-21.73-10.58-32.916 2.355 25.904-25.387 16.955-30.578 3.448-5.192-19.981 21.646-30.09 21.646-30.09s-31.419 12.011-32.815-49.01c-1.396-59.356 56.503-67.817 37.525-62.637-23.688 5.769-27.432-27.074-5.18-29.366 6.946 0.65 21.462 7.13 6.745 16.55 0 0 15.647-1.25 16.651-19.981 1.003-18.732-17.197-55.43-1.432-77.205 2.653-4.299 5.583-6.257 14.034-7.953 0.612-5.813 5.11-11.158 8.72-12.995 5.676-3.216 10.616-2.289 13.762 0.197 2.66-4.847 5.535-8.041 9.841-9.808 6.935-2.943 8.487-1.758 12.204 0.597 2.856-4.557 4.171-4.474 8.999-7.418 7.119-1.177 6.733 0.948 13.209 6.246 8.242-5.887 25.672 0.463 26.345 17.96-0.992 13.336-11.889 16.051-25.21 8.558 9.158 8.326 21.88 26.043 39.804 28.689s35.225-2.646 33.302-19.982c-1.923-17.335-33.51-17.484-31.637-38.298-0.626-17.483 15.844-32.949 33.302-29.972 17.459 2.977 14.151 32.944 62.182 32.126z" fill-rule="evenodd" transform="matrix(.38925 0 0 .37394 196.25 536.23)" stroke="#000" fill="#cba323"/>
    <path id="path619" d="m356.44 346.62c-0.575 17.961-31.258 14.828-51.514 13.859-26.326-1.231-77.59-46.08-44.263-69.888" transform="matrix(.38925 0 0 .37394 196.25 536.23)" stroke="#000" fill="none"/>
    <path id="path625" d="m164.84 449.52c-16.484 17.662 28.691 13.497 9.419-9.419-7.87-8.82-41.21 18.839-41.21 49.452s10.597 44.742 16.484 45.919c5.887 1.178 15.307-3.532 15.307-8.241 0-5.887-4.71-15.307-11.774-14.13-11.775 0-5.888 10.597-0.001 10.597" transform="matrix(.38925 0 0 .37394 196.25 536.23)" stroke="#000" fill="none"/>
    <path id="path626" d="m163.39 451.39s-24.453 9.908-24.453 39.343c0 29.436 7.065 28.259 7.065 28.259" transform="matrix(.38925 0 0 .37394 196.25 536.23)" stroke="#000" fill="none"/>
    <path id="path627" d="m166.02 430.68s24.726-3.533 23.549 18.838c-1.178 22.371-9.42 23.549-22.371 22.371-12.952-1.177-5.887-16.483-5.887-16.483" transform="matrix(.38925 0 0 .37394 196.25 536.23)" stroke="#000" fill="none"/>
    <path id="path628" d="m156.6 543.71s18.839-1.178 17.661-21.194c-1.177-20.016-15.306-21.194-23.548-20.016-8.242 1.177-10.74 5.803-8.242 12.88" transform="matrix(.38925 0 0 .37394 196.25 536.23)" stroke="#000" fill="none"/>
    <path id="path630" d="m150.71 567.26s3.936-8.158 16.887-8.158c12.952 0 18.982 30.386 17.805 63.354-1.178 32.968-33.515 61.37-40.58 59.015-7.064-2.355-10.597-3.533-4.71-8.242" transform="matrix(.38925 0 0 .37394 196.25 536.23)" stroke="#000" fill="none"/>
    <path id="path633" d="m172.39 643.31-22.859 38.166" transform="matrix(.38925 0 0 .37394 196.25 536.23)" stroke="#000" fill="none"/>
    <path id="path634" d="m141.29 667.34c0 0.416 5.054-1.105 8.587 1.249 3.532 2.355 4.365 5.816 4.365 5.816" transform="matrix(.38925 0 0 .37394 195.85 536.34)" stroke="#000" fill="none"/>
    <path id="path635" d="m144.82 650.86s4.517-1.819 10.404 0.536 5.695 7.662 5.695 7.662" transform="matrix(.35485 0 0 .26779 202.53 605.66)" stroke="#000" fill="none"/>
    <path id="path636" d="m171.78 731.95c12.251 6.364 24.282-25.181 0.671-26.726-16.888-0.69-29.085 23.268-26.73 35.041 6.431 40.061 10.444 66.861 50.568 72.045 30.613 2.355 78.451-5.101 108.3-1.523 29.44 3.433 61.94 14.272 73.714 26.047 11.774 11.774 19.112 11.892 19.112 23.667 0 11.774-16.815 17.816-23.476 10.74" transform="matrix(.38925 0 0 .37394 195.83 537.04)" stroke="#000" fill="none"/>
    <path id="path637" d="m369.84 876.92c4.305-2.914 14.556-20.425 4.722-30.815-15.194-15.401-26.165-21.479-33.658-23.977" transform="matrix(.38925 0 0 .37394 195.83 537.04)" stroke="#000" fill="none"/>
    <path id="path638" d="m347.55 863.28c5.828-3.532 6.684-15.298 0.594-24.274-6.091-8.975-21.941-16.165-53.073-18.799-23.583-1.982-87.844 8.444-111.39 1.379-33.059-12.721-53.845-34.149-48.773-87.391 1.521-20.621 11.917-34.465 32.278-37.105 22.858-0.143 28.813 14.734 28.813 33.571 0 9.681-25.317 18.878-29.909 9.705-7.109-12.854-10.217-24.451 15.881-30.607" transform="matrix(.38925 0 0 .37394 195.83 537.04)" stroke="#000" fill="none"/>
    <path id="path642" d="m337.41 844.59s9.765 5.685 7.41 10.395c-2.354 4.709-8.658 2.7-4.496-2.296" transform="matrix(.38925 0 0 .37394 195.83 537.04)" stroke="#000" fill="none"/>
    <path id="path643" d="m238.95 291.4s-6.66 6.66-3.33 22.479 9.991 14.987 9.991 14.987" transform="matrix(.38925 0 0 .37394 196.25 536.23)" stroke="#000" fill="none"/>
    <path id="path644" d="m216.47 300.55c-0.833 1.665-9.706 11.858-4.71 22.681 4.995 10.824 8.956 12.977 8.956 12.977" transform="matrix(.38925 0 0 .37394 196.25 536.23)" stroke="#000" fill="none"/>
    <path id="path645" d="m193.99 313.87s-7.195 10.622-8.567 29.555 7.789 45 7.533 54.698c-0.581 20.609-24.012 30.839-24.012 30.839" transform="matrix(.38925 0 0 .37394 196.25 536.23)" stroke="#000" fill="none"/>
    <path id="path652" d="m159.85 543.66c1.665 0 34.135-29.972 34.135 76.597-2.498 61.61-38.298 67.438-38.298 67.438" transform="matrix(.38925 0 0 .37394 196.25 536.23)" stroke="#000" fill="none"/>
    <path id="path653" d="m162.49 689.71c13.148-3.336 40.425 10.99 30.613 35.324" transform="matrix(.38925 0 0 .37394 196.91 537.13)" stroke="#000" fill="none"/>
    <path id="path654" d="m167.78 681.47c8.439 0.785 15.319 6.904 18.458 15.343" transform="matrix(.38925 0 0 .37394 196.12 536.47)" stroke="#000" fill="none"/>
    <path id="path655" d="m148.2 477.06s9.991 14.154 24.977 14.154 19.982-15.819 19.982-15.819" transform="matrix(.38925 0 0 .37394 196.25 536.23)" stroke="#000" fill="none"/>
    <path id="path656" d="m146.53 484.55s9.158 16.652 24.977 17.484c15.819 0.833 21.647-10.823 21.647-10.823" transform="matrix(.38925 0 0 .37394 196.25 536.23)" stroke="#000" fill="none"/>
    <path id="path657" d="m179.84 509.52s11.657 4.996 11.657 19.15c0 14.153-10.824 10.823-10.824 10.823" transform="matrix(.38925 0 0 .37394 196.25 536.23)" stroke="#000" fill="none"/>
    <path id="path712" d="m356.44 346.62c-0.575 17.961-31.258 14.828-51.514 13.859-26.326-1.231-77.59-46.08-44.263-69.888" transform="matrix(-.38925 0 0 .37394 506.43 536.23)" stroke="#000" fill="none"/>
    <path id="path713" d="m164.84 449.52c-16.484 17.662 28.691 13.497 9.419-9.419-7.87-8.82-41.21 18.839-41.21 49.452s10.597 44.742 16.484 45.919c5.887 1.178 15.307-3.532 15.307-8.241 0-5.887-4.71-15.307-11.774-14.13-11.775 0-5.888 10.597-0.001 10.597" transform="matrix(-.38925 0 0 .37394 506.43 536.23)" stroke="#000" fill="none"/>
    <path id="path714" d="m163.39 451.39s-24.453 9.908-24.453 39.343c0 29.436 7.065 28.259 7.065 28.259" transform="matrix(-.38925 0 0 .37394 506.43 536.23)" stroke="#000" fill="none"/>
    <path id="path715" d="m166.02 430.68s24.726-3.533 23.549 18.838c-1.178 22.371-9.42 23.549-22.371 22.371-12.952-1.177-5.887-16.483-5.887-16.483" transform="matrix(-.38925 0 0 .37394 506.43 536.23)" stroke="#000" fill="none"/>
    <path id="path716" d="m156.6 543.71s18.839-1.178 17.661-21.194c-1.177-20.016-15.306-21.194-23.548-20.016-8.242 1.177-10.74 5.803-8.242 12.88" transform="matrix(-.38925 0 0 .37394 506.43 536.23)" stroke="#000" fill="none"/>
    <path id="path717" d="m150.71 567.26s3.936-8.158 16.887-8.158c12.952 0 18.982 30.386 17.805 63.354-1.178 32.968-33.515 61.37-40.58 59.015-7.064-2.355-10.597-3.533-4.71-8.242" transform="matrix(-.38925 0 0 .37394 506.43 536.23)" stroke="#000" fill="none"/>
    <path id="path718" d="m172.39 643.31-22.859 38.166" transform="matrix(-.38925 0 0 .37394 506.43 536.23)" stroke="#000" fill="none"/>
    <path id="path719" d="m141.29 667.34c0 0.416 5.054-1.105 8.587 1.249 3.532 2.355 4.365 5.816 4.365 5.816" transform="matrix(-.38925 0 0 .37394 506.83 536.47)" stroke="#000" fill="none"/>
    <path id="path720" d="m144.82 650.86s4.517-1.819 10.404 0.536 5.695 7.662 5.695 7.662" transform="matrix(-.35485 0 0 .26779 500.15 605.66)" stroke="#000" fill="none"/>
    <path id="path721" d="m170.42 741.5c-2.354 0 15.451-19.877-0.688-23.897-20.284-3.872-28.744 16.55-26.389 28.323 5.072 28.746 16.897 64.033 52.945 66.388 30.613 2.355 78.451-5.101 108.3-1.523 29.44 3.433 61.94 14.272 73.714 26.047 11.774 11.774 19.112 11.892 19.112 23.667 0 11.774-16.815 17.816-23.476 10.74" transform="matrix(-.38925 0 0 .37394 505.26 537.04)" stroke="#000" fill="none"/>
    <path id="path722" d="m369.84 876.92c4.305-2.914 14.556-20.425 4.722-30.815-15.194-15.401-26.165-21.479-33.658-23.977" transform="matrix(-.38925 0 0 .37394 505.26 537.04)" stroke="#000" fill="none"/>
    <path id="path723" d="m347.55 863.28c5.828-3.532 6.684-15.298 0.594-24.274-6.091-8.975-21.941-16.165-53.073-18.799-23.583-1.982-87.844 8.444-111.39 1.379-43.929-18.378-53.505-42.635-52.509-81.734 1.521-20.621 12.257-36.587 32.618-39.227 22.858-0.143 26.774 11.906 26.774 30.744 0 9.68-9.013 25.716-21.334 23.362-12.322-3.188-21.92-25.013-1.106-36.669" transform="matrix(-.38925 0 0 .37394 505.26 537.04)" stroke="#000" fill="none"/>
    <path id="path724" d="m337.41 844.59s9.765 5.685 7.41 10.395c-2.354 4.709-8.658 2.7-4.496-2.296" transform="matrix(-.38925 0 0 .37394 505.26 537.04)" stroke="#000" fill="none"/>
    <path id="path725" d="m238.95 291.4s-6.66 6.66-3.33 22.479 9.991 14.987 9.991 14.987" transform="matrix(-.38925 0 0 .37394 506.43 536.23)" stroke="#000" fill="none"/>
    <path id="path726" d="m216.47 300.55c-0.833 1.665-9.706 11.858-4.71 22.681 4.995 10.824 8.956 12.977 8.956 12.977" transform="matrix(-.38925 0 0 .37394 506.43 536.23)" stroke="#000" fill="none"/>
    <path id="path727" d="m193.99 313.87s-7.195 10.622-8.567 29.555 7.789 45 7.533 54.698c-0.581 20.609-24.012 30.839-24.012 30.839" transform="matrix(-.38925 0 0 .37394 506.43 536.23)" stroke="#000" fill="none"/>
    <path id="path730" d="m159.85 543.66c1.665 0 34.135-29.972 34.135 76.597-2.498 61.61-38.298 67.438-38.298 67.438" transform="matrix(-.38925 0 0 .37394 506.43 536.23)" stroke="#000" fill="none"/>
    <path id="path731" d="m158.07 701.03c16.205-14.296 47.219 13.112 35.708 38.506" transform="matrix(-.38925 0 0 .37394 506.56 534.49)" stroke="#000" fill="none"/>
    <path id="path732" d="m167.78 681.47c8.439 0.785 17.357 6.197 20.496 14.636" transform="matrix(-.38925 0 0 .37394 508.02 537.4)" stroke="#000" fill="none"/>
    <path id="path733" d="m148.2 477.06s9.991 14.154 24.977 14.154 19.982-15.819 19.982-15.819" transform="matrix(-.38925 0 0 .37394 506.43 536.23)" stroke="#000" fill="none"/>
    <path id="path734" d="m146.53 484.55s9.158 16.652 24.977 17.484c15.819 0.833 21.647-10.823 21.647-10.823" transform="matrix(-.38925 0 0 .37394 506.43 536.23)" stroke="#000" fill="none"/>
    <path id="path735" d="m179.84 509.52s11.657 4.996 11.657 19.15c0 14.153-10.824 10.823-10.824 10.823" transform="matrix(-.38925 0 0 .37394 506.43 536.23)" stroke="#000" fill="none"/>
    <path id="path741" d="m353.01 313.46c0.416-0.416-1.665-9.159 8.326-8.742 9.99 0.416 6.244 9.574 14.57 12.904 7.909 2.082 22.063 4.164 22.528 4.164s14.619-2.082 22.528-4.164c8.326-3.33 4.58-12.488 14.57-12.904 9.991-0.417 7.91 8.326 8.326 8.742" transform="matrix(.38925 0 0 .37394 196.25 536.23)" stroke="#000" fill="none"/>
    <path id="path744" d="m373.28 349.42c-0.294-4.121-1.249-9.55-6.871-9.966-10.525-0.345-18.856 20.605 4.444 20.753 17.055 0.111 17.198-32.355 0.804-32.831-23.549-0.667-26.788 13.389-26.402 16.143 5.957-50.397-33.246-40.206-31.373-59.77 0.207-10.606 10.849-11.822 22.479-9.857 17.459 2.799 14.151 30.967 62.078 30.198 47.927 0.769 44.619-27.399 62.078-30.198 11.63-1.965 22.272-0.749 22.479 9.857 1.873 19.564-37.33 9.373-31.373 59.77 0.386-2.754-2.853-16.81-26.402-16.143-16.394 0.476-16.251 32.942 0.804 32.831 23.3-0.148 14.969-21.098 4.444-20.753-5.622 0.416-6.577 5.845-6.871 9.966" transform="matrix(.38925 0 0 .37394 196.25 536.23)" stroke="#000" fill="none"/>
    <path id="path814" d="m404.47 889.55v0.217h-4.155v-0.217h0.264c0.231 0 0.416-0.041 0.557-0.123 0.101-0.055 0.179-0.148 0.234-0.281 0.043-0.094 0.065-0.34 0.065-0.738v-5.227c0-0.406-0.022-0.66-0.065-0.762-0.043-0.101-0.131-0.189-0.264-0.263-0.129-0.079-0.304-0.118-0.527-0.118h-0.264v-0.216h4.155v0.216h-0.264c-0.23 0-0.416 0.041-0.557 0.123-0.101 0.055-0.181 0.149-0.24 0.282-0.043 0.093-0.064 0.34-0.064 0.738v5.227c0 0.406 0.021 0.66 0.064 0.761 0.047 0.102 0.135 0.192 0.264 0.27 0.133 0.074 0.31 0.111 0.533 0.111h0.264z" transform="matrix(1.0544 -.26437 .21258 1.3113 -201.97 -224.59)"/>
    <path id="path815" d="m399.64 881.82v2.15h-0.211c-0.125-0.496-0.264-0.852-0.416-1.066-0.153-0.219-0.362-0.393-0.627-0.522-0.149-0.07-0.409-0.105-0.78-0.105h-0.591v6.129c0 0.406 0.021 0.66 0.064 0.761 0.047 0.102 0.135 0.192 0.264 0.27 0.132 0.074 0.312 0.111 0.539 0.111h0.263v0.217h-4.16v-0.217h0.264c0.23 0 0.416-0.041 0.557-0.123 0.101-0.055 0.181-0.148 0.24-0.281 0.043-0.094 0.064-0.34 0.064-0.738v-6.129h-0.574c-0.535 0-0.924 0.113-1.166 0.34-0.34 0.316-0.555 0.767-0.645 1.353h-0.222v-2.15h7.137z" transform="matrix(1.0667 -.17210 .13839 1.3265 -141.19 -274.74)"/>
    <path id="path820" d="m370.04 882.28v3.263h0.229c0.351 0 0.638-0.052 0.861-0.158 0.222-0.105 0.41-0.283 0.562-0.533 0.157-0.25 0.258-0.588 0.305-1.014h0.205v3.99h-0.205c-0.074-0.753-0.277-1.25-0.609-1.488-0.328-0.242-0.702-0.363-1.119-0.363h-0.229v2.432c0 0.406 0.021 0.66 0.064 0.761 0.047 0.102 0.135 0.192 0.264 0.27 0.133 0.074 0.311 0.111 0.533 0.111h0.264v0.217h-4.154v-0.217h0.263c0.231 0 0.416-0.041 0.557-0.123 0.102-0.055 0.18-0.148 0.234-0.281 0.043-0.094 0.065-0.34 0.065-0.738v-5.227c0-0.406-0.022-0.66-0.065-0.762-0.043-0.101-0.13-0.189-0.263-0.263-0.129-0.079-0.305-0.118-0.528-0.118h-0.263v-0.216h6.703v2.279h-0.24c-0.055-0.535-0.196-0.932-0.422-1.19-0.223-0.257-0.547-0.439-0.973-0.544-0.234-0.059-0.668-0.088-1.301-0.088h-0.738z" transform="matrix(1.0721 -.10760 .086523 1.3333 -97.42 -305.95)"/>
    <path id="path823" d="m354.64 881.82v2.15h-0.211c-0.125-0.496-0.264-0.852-0.416-1.066-0.153-0.219-0.362-0.393-0.627-0.522-0.149-0.07-0.409-0.105-0.78-0.105h-0.591v6.129c0 0.406 0.021 0.66 0.064 0.761 0.047 0.102 0.135 0.192 0.264 0.27 0.132 0.074 0.312 0.111 0.539 0.111h0.263v0.217h-4.16v-0.217h0.264c0.23 0 0.416-0.041 0.557-0.123 0.101-0.055 0.181-0.148 0.24-0.281 0.043-0.094 0.064-0.34 0.064-0.738v-6.129h-0.574c-0.535 0-0.924 0.113-1.166 0.34-0.34 0.316-0.555 0.767-0.645 1.353h-0.222v-2.15h7.137z" transform="matrix(1.0756 0 0 1.3376 -22.152 -348.78)"/>
    <path id="path824" d="m346.8 889.55v0.217h-4.154v-0.217h0.263c0.231 0 0.416-0.041 0.557-0.123 0.101-0.055 0.18-0.148 0.234-0.281 0.043-0.094 0.065-0.34 0.065-0.738v-5.227c0-0.406-0.022-0.66-0.065-0.762-0.043-0.101-0.131-0.189-0.263-0.263-0.129-0.079-0.305-0.118-0.528-0.118h-0.263v-0.216h4.154v0.216h-0.264c-0.23 0-0.416 0.041-0.556 0.123-0.102 0.055-0.182 0.149-0.241 0.282-0.043 0.093-0.064 0.34-0.064 0.738v5.227c0 0.406 0.021 0.66 0.064 0.761 0.047 0.102 0.135 0.192 0.264 0.27 0.133 0.074 0.311 0.111 0.533 0.111h0.264z" transform="matrix(1.0756 0 0 1.3376 -22.555 -348.78)"/>
    <path id="path825" d="m336.73 881.82 3.92 4.927v-3.416c0-0.476-0.069-0.798-0.206-0.966-0.187-0.227-0.502-0.336-0.943-0.329v-0.216h2.625v0.216c-0.336 0.043-0.562 0.1-0.68 0.17-0.113 0.067-0.203 0.178-0.269 0.334-0.063 0.153-0.094 0.416-0.094 0.791v6.616h-0.199l-5.373-6.616v5.051c0 0.457 0.103 0.766 0.31 0.926 0.211 0.16 0.452 0.24 0.721 0.24h0.188v0.217h-2.819v-0.217c0.438-0.004 0.742-0.094 0.914-0.269 0.172-0.176 0.258-0.475 0.258-0.897v-5.607l-0.17-0.211c-0.168-0.211-0.316-0.35-0.445-0.416-0.129-0.067-0.315-0.104-0.557-0.112v-0.216h2.819z" transform="matrix(1.0756 0 0 1.3376 -22.957 -348.78)"/>
    <path id="path826" d="m333.61 881.82v0.216c-0.289 0.047-0.547 0.202-0.773 0.463-0.164 0.196-0.408 0.655-0.733 1.377l-2.736 6.071h-0.193l-2.725-6.317c-0.328-0.762-0.549-1.209-0.662-1.342-0.109-0.132-0.318-0.216-0.627-0.252v-0.216h3.809v0.216h-0.129c-0.344 0-0.578 0.043-0.703 0.129-0.09 0.059-0.135 0.145-0.135 0.258 0 0.07 0.015 0.154 0.047 0.252 0.031 0.094 0.136 0.35 0.316 0.768l1.693 3.955 1.571-3.522c0.187-0.426 0.303-0.711 0.345-0.855 0.043-0.145 0.065-0.268 0.065-0.369 0-0.118-0.031-0.221-0.094-0.311-0.062-0.09-0.154-0.158-0.275-0.205-0.168-0.066-0.391-0.1-0.668-0.1v-0.216h2.607z" transform="matrix(1.0747 .054651 -.043945 1.3365 15.894 -366.74)"/>
    <path id="path827" d="m321.03 881.64 0.065 2.648h-0.241c-0.113-0.664-0.392-1.197-0.837-1.599-0.442-0.406-0.92-0.61-1.436-0.61-0.398 0-0.715 0.108-0.949 0.323-0.231 0.211-0.346 0.455-0.346 0.732 0 0.176 0.041 0.332 0.123 0.469 0.113 0.183 0.295 0.365 0.545 0.545 0.184 0.129 0.607 0.357 1.271 0.685 0.93 0.457 1.557 0.889 1.881 1.295 0.321 0.407 0.481 0.871 0.481 1.395 0 0.664-0.26 1.236-0.779 1.717-0.516 0.476-1.172 0.714-1.969 0.714-0.25 0-0.487-0.025-0.709-0.076-0.223-0.051-0.502-0.146-0.838-0.287-0.188-0.078-0.342-0.117-0.463-0.117-0.102 0-0.209 0.039-0.322 0.117-0.114 0.078-0.205 0.197-0.276 0.358h-0.216v-3h0.216c0.172 0.843 0.502 1.488 0.991 1.933 0.492 0.442 1.021 0.662 1.587 0.662 0.438 0 0.786-0.119 1.043-0.357 0.262-0.238 0.393-0.516 0.393-0.832 0-0.188-0.051-0.369-0.152-0.545-0.098-0.176-0.248-0.342-0.451-0.498-0.204-0.16-0.563-0.367-1.079-0.621-0.722-0.356-1.242-0.658-1.558-0.908-0.317-0.25-0.561-0.53-0.733-0.838-0.168-0.309-0.252-0.649-0.252-1.02 0-0.633 0.233-1.172 0.698-1.617s1.05-0.668 1.757-0.668c0.258 0 0.508 0.031 0.75 0.094 0.184 0.047 0.407 0.135 0.668 0.263 0.266 0.125 0.452 0.188 0.557 0.188 0.102 0 0.182-0.031 0.24-0.094 0.059-0.062 0.114-0.213 0.164-0.451h0.176z" transform="matrix(1.0737 .079582 -.063992 1.3353 32.323 -374.09)"/>
    <path id="path828" d="m315.27 881.82v0.216c-0.289 0.047-0.546 0.202-0.773 0.463-0.164 0.196-0.408 0.655-0.732 1.377l-2.737 6.071h-0.193l-2.725-6.317c-0.328-0.762-0.549-1.209-0.662-1.342-0.109-0.132-0.318-0.216-0.627-0.252v-0.216h3.809v0.216h-0.129c-0.344 0-0.578 0.043-0.703 0.129-0.09 0.059-0.135 0.145-0.135 0.258 0 0.07 0.016 0.154 0.047 0.252 0.031 0.094 0.137 0.35 0.316 0.768l1.694 3.955 1.57-3.522c0.187-0.426 0.303-0.711 0.346-0.855 0.043-0.145 0.064-0.268 0.064-0.369 0-0.118-0.031-0.221-0.094-0.311-0.062-0.09-0.154-0.158-0.275-0.205-0.168-0.066-0.391-0.1-0.668-0.1v-0.216h2.607z" transform="matrix(1.0684 .15492 -.12457 1.3286 87.767 -392.06)"/>
    <path id="path829" d="m306.3 881.82v2.15h-0.211c-0.125-0.496-0.264-0.852-0.416-1.066-0.152-0.219-0.361-0.393-0.627-0.522-0.148-0.07-0.408-0.105-0.779-0.105h-0.592v6.129c0 0.406 0.021 0.66 0.064 0.761 0.047 0.102 0.135 0.192 0.264 0.27 0.133 0.074 0.312 0.111 0.539 0.111h0.264v0.217h-4.16v-0.217h0.263c0.231 0 0.416-0.041 0.557-0.123 0.101-0.055 0.182-0.148 0.24-0.281 0.043-0.094 0.065-0.34 0.065-0.738v-6.129h-0.575c-0.535 0-0.923 0.113-1.166 0.34-0.34 0.316-0.554 0.767-0.644 1.353h-0.223v-2.15h7.137z" transform="matrix(1.0645 .19192 -.15432 1.3238 115.07 -398.65)"/>
    <path id="path832" d="m289.79 889.55v0.217h-4.154v-0.217h0.264c0.23 0 0.416-0.041 0.556-0.123 0.102-0.055 0.18-0.148 0.235-0.281 0.042-0.094 0.064-0.34 0.064-0.738v-5.227c0-0.406-0.022-0.66-0.064-0.762-0.043-0.101-0.131-0.189-0.264-0.263-0.129-0.079-0.305-0.118-0.527-0.118h-0.264v-0.216h4.154v0.216h-0.264c-0.23 0-0.416 0.041-0.556 0.123-0.102 0.055-0.182 0.149-0.24 0.282-0.043 0.093-0.065 0.34-0.065 0.738v5.227c0 0.406 0.022 0.66 0.065 0.761 0.046 0.102 0.134 0.192 0.263 0.27 0.133 0.074 0.311 0.111 0.533 0.111h0.264z" transform="matrix(1.0454 .31493 -.25324 1.3 207.07 -413.52)"/>
    <path id="path833" d="m285.27 881.82v0.216c-0.29 0.047-0.547 0.202-0.774 0.463-0.164 0.196-0.408 0.655-0.732 1.377l-2.737 6.071h-0.193l-2.725-6.317c-0.328-0.762-0.548-1.209-0.662-1.342-0.109-0.132-0.318-0.216-0.627-0.252v-0.216h3.809v0.216h-0.129c-0.344 0-0.578 0.043-0.703 0.129-0.09 0.059-0.135 0.145-0.135 0.258 0 0.07 0.016 0.154 0.047 0.252 0.031 0.094 0.137 0.35 0.316 0.768l1.694 3.955 1.57-3.522c0.188-0.426 0.303-0.711 0.346-0.855 0.043-0.145 0.064-0.268 0.064-0.369 0-0.118-0.031-0.221-0.094-0.311-0.062-0.09-0.154-0.158-0.275-0.205-0.168-0.066-0.391-0.1-0.668-0.1v-0.216h2.608z" transform="matrix(1.0402 .34045 -.27376 1.2936 226.33 -414.79)"/>
    <path id="path836" d="m409.38 881.71c1.265-0.047 2.293 0.323 3.082 1.108 0.793 0.785 1.189 1.767 1.189 2.947 0 1.008-0.295 1.895-0.884 2.66-0.782 1.016-1.885 1.524-3.311 1.524-1.43 0-2.535-0.485-3.316-1.454-0.618-0.765-0.926-1.673-0.926-2.724 0-1.18 0.4-2.162 1.201-2.947 0.805-0.789 1.793-1.161 2.965-1.114zm0.07 0.375c-0.726 0-1.279 0.371-1.658 1.114-0.309 0.609-0.463 1.484-0.463 2.625 0 1.355 0.238 2.357 0.715 3.005 0.332 0.454 0.797 0.68 1.394 0.68 0.403 0 0.739-0.098 1.008-0.293 0.344-0.25 0.612-0.648 0.803-1.195 0.191-0.551 0.287-1.268 0.287-2.151 0-1.05-0.098-1.835-0.293-2.355-0.195-0.523-0.445-0.893-0.75-1.107-0.301-0.215-0.648-0.323-1.043-0.323z" transform="matrix(1.0667 -.17210 .13839 1.3265 -141.19 -275.24)"/>
    <path id="path839" d="m378.71 881.71c1.266-0.047 2.293 0.323 3.082 1.108 0.793 0.785 1.189 1.767 1.189 2.947 0 1.008-0.294 1.895-0.884 2.66-0.782 1.016-1.885 1.524-3.311 1.524-1.43 0-2.535-0.485-3.316-1.454-0.617-0.765-0.926-1.673-0.926-2.724 0-1.18 0.4-2.162 1.201-2.947 0.805-0.789 1.793-1.161 2.965-1.114zm0.07 0.375c-0.726 0-1.279 0.371-1.658 1.114-0.308 0.609-0.463 1.484-0.463 2.625 0 1.355 0.239 2.357 0.715 3.005 0.332 0.454 0.797 0.68 1.395 0.68 0.402 0 0.738-0.098 1.007-0.293 0.344-0.25 0.612-0.648 0.803-1.195 0.192-0.551 0.287-1.268 0.287-2.151 0-1.05-0.097-1.835-0.293-2.355-0.195-0.523-0.445-0.893-0.75-1.107-0.3-0.215-0.648-0.323-1.043-0.323z" transform="matrix(1.0721 -.10760 .086523 1.3333 -97.42 -305.95)"/>
    <path id="path842" d="m386.6 886.15v2.226c0 0.43 0.025 0.702 0.076 0.815 0.055 0.109 0.148 0.197 0.281 0.264 0.133 0.066 0.381 0.099 0.744 0.099v0.217h-4.066v-0.217c0.367 0 0.615-0.033 0.744-0.099 0.133-0.071 0.225-0.161 0.275-0.27 0.055-0.109 0.082-0.379 0.082-0.809v-5.156c0-0.43-0.027-0.699-0.082-0.808-0.05-0.114-0.142-0.204-0.275-0.27s-0.381-0.1-0.744-0.1v-0.216h3.691c0.961 0 1.664 0.066 2.11 0.199 0.445 0.133 0.808 0.379 1.09 0.738 0.281 0.356 0.421 0.774 0.421 1.254 0 0.586-0.211 1.07-0.632 1.453-0.27 0.242-0.647 0.424-1.131 0.545l1.91 2.69c0.25 0.347 0.428 0.564 0.533 0.65 0.16 0.121 0.346 0.187 0.557 0.199v0.217h-2.502l-2.561-3.621h-0.521zm0-3.897v3.481h0.334c0.543 0 0.949-0.049 1.218-0.147 0.27-0.101 0.481-0.281 0.633-0.539 0.157-0.261 0.235-0.601 0.235-1.019 0-0.606-0.143-1.053-0.428-1.342-0.281-0.289-0.736-0.434-1.365-0.434h-0.627z" transform="matrix(1.0667 -.17210 .13839 1.3265 -141.19 -275.24)"/>
    <path id="path845" d="m417.27 886.15v2.226c0 0.43 0.025 0.702 0.076 0.815 0.054 0.109 0.148 0.197 0.281 0.264 0.133 0.066 0.381 0.099 0.744 0.099v0.217h-4.066v-0.217c0.367 0 0.615-0.033 0.744-0.099 0.133-0.071 0.224-0.161 0.275-0.27 0.055-0.109 0.082-0.379 0.082-0.809v-5.156c0-0.43-0.027-0.699-0.082-0.808-0.051-0.114-0.142-0.204-0.275-0.27s-0.381-0.1-0.744-0.1v-0.216h3.691c0.961 0 1.664 0.066 2.109 0.199 0.446 0.133 0.809 0.379 1.09 0.738 0.282 0.356 0.422 0.774 0.422 1.254 0 0.586-0.211 1.07-0.633 1.453-0.269 0.242-0.646 0.424-1.13 0.545l1.91 2.69c0.25 0.347 0.427 0.564 0.533 0.65 0.16 0.121 0.346 0.187 0.557 0.199v0.217h-2.502l-2.561-3.621h-0.521zm0-3.897v3.481h0.334c0.543 0 0.949-0.049 1.218-0.147 0.27-0.101 0.481-0.281 0.633-0.539 0.156-0.261 0.234-0.601 0.234-1.019 0-0.606-0.142-1.053-0.427-1.342-0.282-0.289-0.737-0.434-1.365-0.434h-0.627z" transform="matrix(1.0417 -.33296 .26773 1.2955 -245.66 -181.16)"/>
    <path id="path848" d="m293.25 886.15v2.226c0 0.43 0.025 0.702 0.076 0.815 0.055 0.109 0.149 0.197 0.281 0.264 0.133 0.066 0.381 0.099 0.745 0.099v0.217h-4.067v-0.217c0.367 0 0.615-0.033 0.744-0.099 0.133-0.071 0.225-0.161 0.276-0.27 0.054-0.109 0.082-0.379 0.082-0.809v-5.156c0-0.43-0.028-0.699-0.082-0.808-0.051-0.114-0.143-0.204-0.276-0.27-0.132-0.066-0.381-0.1-0.744-0.1v-0.216h3.692c0.961 0 1.664 0.066 2.109 0.199s0.809 0.379 1.09 0.738c0.281 0.356 0.422 0.774 0.422 1.254 0 0.586-0.211 1.07-0.633 1.453-0.27 0.242-0.647 0.424-1.131 0.545l1.91 2.69c0.25 0.347 0.428 0.564 0.533 0.65 0.161 0.121 0.346 0.187 0.557 0.199v0.217h-2.502l-2.56-3.621h-0.522zm0-3.897v3.481h0.334c0.543 0 0.949-0.049 1.219-0.147 0.269-0.101 0.48-0.281 0.633-0.539 0.156-0.261 0.234-0.601 0.234-1.019 0-0.606-0.143-1.053-0.428-1.342-0.281-0.289-0.736-0.434-1.365-0.434h-0.627z" transform="matrix(1.0633 .20168 -.16217 1.3223 122.81 -400.27)"/>
    <path id="path851" d="m360.07 887.51h-2.806l-0.334 0.774c-0.11 0.257-0.164 0.47-0.164 0.638 0 0.223 0.089 0.387 0.269 0.493 0.106 0.062 0.365 0.109 0.779 0.14v0.217h-2.642v-0.217c0.285-0.043 0.519-0.16 0.703-0.351 0.184-0.196 0.41-0.596 0.68-1.202l2.842-6.339h0.111l2.865 6.515c0.274 0.617 0.498 1.006 0.674 1.166 0.133 0.121 0.32 0.192 0.562 0.211v0.217h-3.843v-0.217h0.158c0.308 0 0.525-0.043 0.65-0.129 0.086-0.062 0.129-0.152 0.129-0.269 0-0.071-0.012-0.143-0.035-0.217-0.008-0.035-0.066-0.182-0.176-0.44l-0.422-0.99zm-0.199-0.433-1.183-2.737-1.219 2.737h2.402z" transform="matrix(1.0746 -.056381 .045336 1.3364 -62.366 -327.47)"/>
   </g>
   <g id="g658" fill-rule="evenodd" transform="matrix(.38925 0 0 .37394 196.25 536.23)">
    <rect id="rect584" height="177.17" width="177.17" y="556.3" x="407.48" fill="#fff600"/>
    <rect id="rect565" height="177.17" width="25.309" y="379.13" x="432.79" fill="#cc1900"/>
    <rect id="rect566" height="177.17" width="25.309" y="379.13" x="483.41" fill="#cc1900"/>
    <rect id="rect567" height="177.17" width="25.309" y="379.13" x="534.03" fill="#cc1900"/>
    <rect id="rect570" height="177.17" width="25.309" y="379.13" x="407.48" fill="#fff600"/>
    <rect id="rect571" height="177.17" width="25.309" y="379.13" x="458.1" fill="#fff600"/>
    <rect id="rect572" height="177.17" width="25.309" y="379.13" x="508.72" fill="#fff600"/>
    <rect id="rect573" height="177.17" width="25.309" y="379.13" x="559.34" fill="#fff600"/>
    <rect id="rect574" height="159.45" width="19.685" y="574.02" x="271.65" fill="#cc1900"/>
    <rect id="rect575" height="159.45" width="19.685" y="574.02" x="311.02" fill="#cc1900"/>
    <rect id="rect576" height="159.45" width="19.685" y="574.02" x="350.39" fill="#cc1900"/>
    <rect id="rect577" height="159.45" width="19.685" y="574.02" x="251.97" fill="#fff600"/>
    <rect id="rect578" height="159.45" width="19.685" y="574.02" x="291.34" fill="#fff600"/>
    <rect id="rect579" height="159.45" width="19.685" y="574.02" x="330.71" fill="#fff600"/>
    <rect id="rect580" height="159.45" width="19.685" y="574.02" x="370.08" fill="#fff600"/>
    <rect id="rect581" height="159.45" width="19.685" y="574.02" x="232.28" fill="#cc1900"/>
    <rect id="rect582" height="159.45" width="19.685" y="574.02" x="212.6" fill="#fff600"/>
    <rect id="rect583" height="177.17" width="177.17" y="379.13" x="212.6" fill="#cc1900"/>
    <path id="path597" d="m274.92 206.71c8.913-4.302 8.549-19.089 8.549-31.313 0-24.449-19.843-44.292-44.292-44.292s-44.291 17.488-44.291 41.937l-17.717 11.213h26.52l-26.52 17.717h35.433l-248.03 318.9 17.717 17.717 248.03-318.9c6.549-8.42 0-17.716-9.158-24.793-10.805-8.349-8.559-10.64-8.559-21.579 0-15.936 11.906-24.494 26.575-24.494s26.575 11.905 26.575 26.575c0 7.335-1.502 16.184-7.787 18.788-9.93 7.787 7.787 25.503 16.955 12.525z" transform="matrix(.38555 .050804 -.045440 .34484 277.44 345.95)" stroke-width="1pt" fill="#fff600"/>
    <path id="path564" d="m194.88 361.42v336.61c0 35.434 16.978 53.15 50.934 53.15h118.85c33.957 0 33.957 35.433 33.957 35.433s0-35.433 33.956-35.433h118.85c33.957 0 50.935-17.716 50.935-53.15v-336.61h-407.48zm17.716 17.717v177.16h177.17v-177.16h-177.17zm194.88 0v177.16h177.17v-177.16h-177.17zm-194.88 194.88v106.3c0 35.434 16.978 53.15 50.934 53.15h73.081 53.15v-159.45h-177.16zm372.05 0v106.3c0 35.434-16.977 53.15-50.934 53.15h-73.081-53.15v-159.45h177.16z" stroke="#000" stroke-width="1pt" fill="#cba323"/>
    <path id="path585" d="m283.46 396.85-53.149 50.619 16.354 91.114h73.591l16.354-91.114-53.15-50.619z" transform="matrix(.66667 0 0 0.75 112.2 99.215)" fill="#fff"/>
    <path id="path586" d="m283.46 406.97-44.291 40.495 17.717 80.99h26.574v-121.48zm8.859 0v121.48h26.575l17.716-80.99-44.291-40.495z" transform="matrix(.61539 0 0 0.7 124.02 126.14)" fill="#fff600"/>
    <path id="path587" d="m212.6 201.97h-17.716s8.858 35.433 17.716 35.433c35.433 0 106.48-51.679 106.3-35.433 0 35.433-17.717 17.716-17.717 35.433 0 17.716 35.433 0 35.433-17.717 0-17.716 0-35.433-17.716-35.433-17.717 0-69.229 35.671-88.583 35.433-17.717 0-17.717-17.716-17.717-17.716z" transform="matrix(.5 0 0 .41421 203.74 419.49)" fill="#fffbff"/>
    <path id="path588" d="m212.6 201.97h-17.716s8.858 35.433 17.716 35.433c35.433 0 106.48-51.679 106.3-35.433 0 35.433-17.717 17.716-17.717 35.433 0 17.716 35.433 0 35.433-17.717 0-17.716 0-35.433-17.716-35.433-17.717 0-69.229 35.671-88.583 35.433-17.717 0-17.717-17.716-17.717-17.716z" transform="matrix(-0.5 0 0 .41421 398.62 419.49)" fill="#fffbff"/>
    <g id="g657" transform="matrix(.38048 0 0 .32170 515.51 448.82)">
     <g id="g616" transform="translate(-2.5058 -84.936)">
      <path id="path612" d="m70.866 574.02c0 35.433 28.704 36.668 17.717 53.149l-35.433 53.15h-17.716l17.716-53.15c5.9055-17.716 17.716-65.373 17.716-53.149z" transform="matrix(.97779 .20961 -.20961 .97779 72.52 -.075867)" stroke="#fff600" stroke-width="5" fill="#cc1900"/>
      <path id="path607" d="m35.433 423.42c0 3.667 2.2422 31.888 0 35.067-2.2423 3.179-8.969-18.684-12.977-16.279-4.0083 2.405-7.6033 24.158-12.902 25.504-5.2983 1.35-12.3-17.71-18.412-17.71-6.1122 0-11.937 19.062-17.235 17.717-5.2984-1.346-10.071-23.099-14.079-25.504-4.0084-2.405-10.735 19.458-12.977 16.279-2.2422-3.179 0-31.4 0-35.067 0-14.669 19.842-26.575 44.291-26.575s44.291 11.906 44.291 26.575z" transform="matrix(.78240 0 0 .50048 24.647 401.29)" stroke="#fff600" stroke-width="7.9903" fill="#cc1900"/>
      <path id="path605" d="m-70.866 423.42c0 14.669-12.827 26.575-17.717 26.575-4.8898 0 0-11.906 0-26.575s-4.8898-26.575 0-26.575 17.717 11.906 17.717 26.575z" transform="matrix(.71447 -.39551 .69966 .40388 -390.91 291.35)" stroke-width="1pt" fill="#008d00"/>
      <path id="path602" d="m-70.866 414.57v53.15h53.15v-17.717h-35.433v-35.433h-17.716z" transform="matrix(.53461 .84510 -.84510 .53461 273.7 427.53)" stroke="#fff600" stroke-width="5" fill="#cc1900"/>
      <path id="path599" d="m70.866 574.02c0 35.433 28.704 36.668 17.717 53.149l-35.433 53.15h-17.716l17.716-53.15c5.9055-17.716-17.716-35.433-70.866 0-12.224 0-70.866-8.963-70.866 0v53.15h-17.716v-53.15c0-6.941-35.433-53.149-35.433-70.866 0-12.224-53.15 0-53.15-17.716 0-8.859 35.433-17.717 35.433-35.433 0-17.717 35.433 0 53.15 0 0 17.716-17.717 35.433 17.716 35.433 24.449 0 177.17 0 177.17 17.716 0 17.717-17.717 5.493-17.717 17.717z" stroke="#fff600" stroke-width="5" fill="#cc1900"/>
      <path id="path608" d="m-70.866 423.42c0 14.669-12.827 26.575-17.717 26.575-4.8898 0 0-11.906 0-26.575s-4.8898-26.575 0-26.575 17.717 11.906 17.717 26.575z" transform="matrix(.33850 -.70209 .65562 -.0045585 -354.02 632.49)" stroke-width="1pt" fill="#008d00"/>
      <path id="path609" d="m-70.866 423.42c0 14.669-12.827 26.575-17.717 26.575-4.8898 0 0-11.906 0-26.575s-4.8898-26.575 0-26.575 17.717 11.906 17.717 26.575z" transform="matrix(.33850 -.70209 .65562 -.0045585 -212.29 632.49)" stroke-width="1pt" fill="#008d00"/>
      <path id="path610" d="m-70.866 423.42c0 14.669-12.827 26.575-17.717 26.575-4.8898 0 0-11.906 0-26.575s-4.8898-26.575 0-26.575 17.717 11.906 17.717 26.575z" transform="matrix(-.13112 -.76832 .53161 -.38374 -357.18 763.6)" stroke-width="1pt" fill="#008d00"/>
      <path id="path613" d="m-70.866 423.42c0 14.669-12.827 26.575-17.717 26.575-4.8898 0 0-11.906 0-26.575s-4.8898-26.575 0-26.575 17.717 11.906 17.717 26.575z" transform="matrix(.31961 -.71089 .65527 -.022084 -282.41 624.63)" stroke-width="1pt" fill="#008d00"/>
      <rect id="rect614" transform="rotate(-37.469)" height="17.717" width="53.15" y="354.1" x="-458.49" fill="#008d00"/>
      <path id="path615" d="m-17.717 503.15c0 39.138-11.898 70.866-26.575 70.866s-26.575-31.728-26.575-70.866 11.898-70.866 26.575-70.866 26.575 31.728 26.575 70.866z" transform="matrix(.20249 0 0 .125 -127.38 519.98)" fill="#008d00"/>
     </g>
     <path id="path629" d="m47.995 681.85c34.086 0.02 34.086 12.901 19.835 12.901-19.835 0-67.83 4.38-67.83 3.28 0-1.103-16.484-14.203-16.484-14.203-1.2325-3.513 1.1774 14.128-1.2325 14.203-2.41 0.074-16.429-15.381-16.429-15.381s1.2877 15.232 0 15.307c-1.2877 0.074-17.661-9.42-17.661-9.42l-1.1774 8.242-15.306 9.42 15.306 10.597v8.242l15.306-8.242 1.1775 15.306 18.839-15.306s4.7648 16.299 2.3549 16.484c-2.41 0.185 16.484-16.484 16.484-16.484-1.178-1.05 54.051 0 87.405-1.05 33.354-1.048 32.746-51.937 17.716-53.15-15.031-1.213-58.304 3.33-58.304-0.203" transform="matrix(.51976 0 0 .74720 25.698 -30.033)" stroke="#fff600" stroke-width="5.0546" fill="#cc1900"/>
    </g>
    <g id="g671" transform="matrix(.38048 0 0 .32170 515.51 519.69)">
     <g id="g672" transform="translate(-2.5058 -84.936)">
      <path id="path673" d="m70.866 574.02c0 35.433 28.704 36.668 17.717 53.149l-35.433 53.15h-17.716l17.716-53.15c5.9055-17.716 17.716-65.373 17.716-53.149z" transform="matrix(.97779 .20961 -.20961 .97779 72.52 -.075867)" stroke="#fff600" stroke-width="5" fill="#cc1900"/>
      <path id="path674" d="m35.433 423.42c0 3.667 2.2422 31.888 0 35.067-2.2423 3.179-8.969-18.684-12.977-16.279-4.0083 2.405-7.6033 24.158-12.902 25.504-5.2983 1.35-12.3-17.71-18.412-17.71-6.1122 0-11.937 19.062-17.235 17.717-5.2984-1.346-10.071-23.099-14.079-25.504-4.0084-2.405-10.735 19.458-12.977 16.279-2.2422-3.179 0-31.4 0-35.067 0-14.669 19.842-26.575 44.291-26.575s44.291 11.906 44.291 26.575z" transform="matrix(.78240 0 0 .50048 24.647 401.29)" stroke="#fff600" stroke-width="7.9903" fill="#cc1900"/>
      <path id="path675" d="m-70.866 423.42c0 14.669-12.827 26.575-17.717 26.575-4.8898 0 0-11.906 0-26.575s-4.8898-26.575 0-26.575 17.717 11.906 17.717 26.575z" transform="matrix(.71447 -.39551 .69966 .40388 -390.91 291.35)" stroke-width="1pt" fill="#008d00"/>
      <path id="path676" d="m-70.866 414.57v53.15h53.15v-17.717h-35.433v-35.433h-17.716z" transform="matrix(.53461 .84510 -.84510 .53461 273.7 427.53)" stroke="#fff600" stroke-width="5" fill="#cc1900"/>
      <path id="path677" d="m70.866 574.02c0 35.433 28.704 36.668 17.717 53.149l-35.433 53.15h-17.716l17.716-53.15c5.9055-17.716-17.716-35.433-70.866 0-12.224 0-70.866-8.963-70.866 0v53.15h-17.716v-53.15c0-6.941-35.433-53.149-35.433-70.866 0-12.224-53.15 0-53.15-17.716 0-8.859 35.433-17.717 35.433-35.433 0-17.717 35.433 0 53.15 0 0 17.716-17.717 35.433 17.716 35.433 24.449 0 177.17 0 177.17 17.716 0 17.717-17.717 5.493-17.717 17.717z" stroke="#fff600" stroke-width="5" fill="#cc1900"/>
      <path id="path678" d="m-70.866 423.42c0 14.669-12.827 26.575-17.717 26.575-4.8898 0 0-11.906 0-26.575s-4.8898-26.575 0-26.575 17.717 11.906 17.717 26.575z" transform="matrix(.33850 -.70209 .65562 -.0045585 -354.02 632.49)" stroke-width="1pt" fill="#008d00"/>
      <path id="path679" d="m-70.866 423.42c0 14.669-12.827 26.575-17.717 26.575-4.8898 0 0-11.906 0-26.575s-4.8898-26.575 0-26.575 17.717 11.906 17.717 26.575z" transform="matrix(.33850 -.70209 .65562 -.0045585 -212.29 632.49)" stroke-width="1pt" fill="#008d00"/>
      <path id="path680" d="m-70.866 423.42c0 14.669-12.827 26.575-17.717 26.575-4.8898 0 0-11.906 0-26.575s-4.8898-26.575 0-26.575 17.717 11.906 17.717 26.575z" transform="matrix(-.13112 -.76832 .53161 -.38374 -357.18 763.6)" stroke-width="1pt" fill="#008d00"/>
      <path id="path681" d="m-70.866 423.42c0 14.669-12.827 26.575-17.717 26.575-4.8898 0 0-11.906 0-26.575s-4.8898-26.575 0-26.575 17.717 11.906 17.717 26.575z" transform="matrix(.31961 -.71089 .65527 -.022084 -282.41 624.63)" stroke-width="1pt" fill="#008d00"/>
      <rect id="rect682" transform="rotate(-37.469)" height="17.717" width="53.15" y="354.1" x="-458.49" fill="#008d00"/>
      <path id="path683" d="m-17.717 503.15c0 39.138-11.898 70.866-26.575 70.866s-26.575-31.728-26.575-70.866 11.898-70.866 26.575-70.866 26.575 31.728 26.575 70.866z" transform="matrix(.20249 0 0 .125 -127.38 519.98)" fill="#008d00"/>
     </g>
     <path id="path684" d="m47.995 681.85c34.086 0.02 34.086 12.901 19.835 12.901-19.835 0-67.83 4.38-67.83 3.28 0-1.103-16.484-14.203-16.484-14.203-1.2325-3.513 1.1774 14.128-1.2325 14.203-2.41 0.074-16.429-15.381-16.429-15.381s1.2877 15.232 0 15.307c-1.2877 0.074-17.661-9.42-17.661-9.42l-1.1774 8.242-15.306 9.42 15.306 10.597v8.242l15.306-8.242 1.1775 15.306 18.839-15.306s4.7648 16.299 2.3549 16.484c-2.41 0.185 16.484-16.484 16.484-16.484-1.178-1.05 54.051 0 87.405-1.05 33.354-1.048 32.746-51.937 17.716-53.15-15.031-1.213-58.304 3.33-58.304-0.203" transform="matrix(.51976 0 0 .74720 25.698 -30.033)" stroke="#fff600" stroke-width="5.0546" fill="#cc1900"/>
    </g>
   </g>
  </g>
 </g>
</svg>
