<?xml version="1.0" encoding="UTF-8" standalone="no"?>
<!-- Created with Sodipodi ("http://www.sodipodi.com/") -->
<svg id="svg548" xmlns:rdf="http://www.w3.org/1999/02/22-rdf-syntax-ns#" xmlns="http://www.w3.org/2000/svg" height="480" width="640" version="1.1" xmlns:cc="http://creativecommons.org/ns#" xmlns:xlink="http://www.w3.org/1999/xlink" xmlns:dc="http://purl.org/dc/elements/1.1/">
 <metadata id="metadata4578">
  <rdf:RDF>
   <cc:Work rdf:about="">
    <dc:format>image/svg+xml</dc:format>
    <dc:type rdf:resource="http://purl.org/dc/dcmitype/StillImage"/>
   </cc:Work>
  </rdf:RDF>
 </metadata>
 <g id="flag">
  <rect id="rect1066" fill-rule="evenodd" height="480" width="640" y="0" x="0" stroke-width="1pt" fill="#de2110"/>
  <path id="path552" d="m229.27 120.15c7.4309-0.72541 8.9402-0.62837 14.397 0.78413-7.0078 3.2062-15.293 1.6041-20.432-2.9509-7.7656-7.0505-26.26-19.242-19.647-8.8539 34.312 38.023 63.863 12.315 81.834 34.209 6.1215 7.4568 11.527 17.467 8.3066 27.299-1.101 3.3652-5.0795 11.282-9.8896 9.2696-6.2983-2.6347 1.1936-23.331-3.3912-30.065-10.41-15.289-29.271-11.199-44.747-12.851-4.4901 12.176-15.306 10.341-25.25 4.1988-12.695-7.8394-12.313-27.12-23.658-33.488-11.823-6.6356-9.8959 15.588-7.9914 20.869 8.2529 22.881 32.553 31.434 54.795 27.366-16.462 25.489-42.552-16.5-55.476-6.216-8.2005 6.5253 6.2838 18.397 11.302 21.12 13.882 7.5359 30.563 3.7508 44.174-2.2739-7.7719 8.4411-22.072 13.621-33.681 11.907-5.9956-0.88476-18.007-8.4192-23.469-3.398-8.4324 7.7523 12.154 16.947 17.154 18.034 16.853 3.6664 28.789-5.2264 42.101-13.914-8.3592 8.3546-17.283 19.794-29.471 22.295-7.6014 1.5596-24.377-6.1979-29.289 1.855-5.8733 9.6296 9.6997 15.722 16.659 15.12 16.487-1.4253 31.795-14.691 44.206-24.535-8.5297 12.1-21.695 24.904-35.786 30.371-7.3961 2.8694-20.112-1.5708-25.68 4.8728-8.5781 9.9266 10.308 15.785 17.26 14.095 20.291-4.9357 31.115-27.138 50.521-34.603-13.163 12.124-27.107 30.906-42.291 39.893-7.5441 4.467-19.847-1.0062-25.814 5.5826-13.486 14.893 20.301 18.076 29.847 10.186 15.988-13.213 23.652-32.155 42.467-43.032-12.548 17.066-28.441 42.55-44.402 56.325-7.5984 6.5573-24.281 0.80413-29.093 8.0961-9.6666 14.645 21.509 17.16 29.281 11.984 25.513-16.988 26.907-56.363 58.95-65.88-9.0791 19.447-18.139 45.77-39.996 52.626 3.2797 9.879 14.874 10.742 22.326 3.5407 12.788-12.355 10.148-40.48 32.405-41.432l-16.051 22.499c0.85256 9.1907 17.325-3.1365 22.366-11.974h2.1051c-8.7697 20.92-24.25 32.601-44.206 42.101 0.39154 12.472-7.9529 18.897-18.946 23.156-5.9152-10.875-21.678-18.964-29.471-6.3152 6.1847 0.8336 11.71 1.9956 12.63 8.4202-9.807-3.5407-17.547-5.2184-21.051 6.3152 11.49-1.8861 15.415-1.4672 17.367 3.5533-7.8536 9.0454-6.573 22.804 7.894 24.141-4.0354-2.9155-6.7551-4.8458-4.5385-8.7486 3.2081-4.2606 7.0056 0.0505 8.8665-2.4882 3.4734-5.069 0.34522-3.2986 4.7743-1.2588 3.6291 2.5976 9.5317-8.2729 17.935 10.062 10.106-7.2709 0.38312-18.762-3.8817-27.366l31.576-6.3152 35.786-33.681 2.1051 2.1051c-11.567 18.2-28.214 33.826-50.521 35.786 7.4667 13.542 22.116 6.5594 33.681 2.1051-5.029 9.8117-18.085 9.8664-22.467 17.986-8.9865 16.653 28.559-0.51364 30.888-1.1452-2.9997 10.567-14.826 12.685-17.899 21.642-2.3871 6.9551 7.3572 7.6435 11.496 5.6247 7.9866-3.8986 13.207-14.481 19.034-20.952-2.7282 12.63 2.4398 22.629-11.47 37.234l21.339 26.246 24.36-26.277c-13.447-11.635-5.189-25.242-7.7824-37.86 5.6963 6.6794 7.6351 17.643 15.729 21.608 3.7744 1.8482 11.565 1.9072 10.618-4.3091-1.3409-8.8012-14.272-13.323-17.007-22.958 2.6945 0.89045 39.091 17.96 30.719 1.1452-3.968-7.9677-17.396-8.4202-22.299-17.986 11.698 4.5048 23.707 10.184 33.681 0-18.539-6.4415-46.116-17.413-48.416-39.996l36.386 31.33 30.976 10.772v2.1051c-7.5487 7.8645-11.919 13.35-5.6584 22.958l7.6982 2.305c-4.9342-5.4395-3.2881-8.2476 0-10.397 5.57-2.6545 8.9212 2.4987 11.077-2.8187 0.97885-2.5808 1.322-3.7954 1.8188-0.64414 0.54942 5.5805 8.2813 1.2883 10.984 2.0166 4.2291 4.1659-2.063 8.3318-2.764 11.841 11.961-4.1912 14.222-11.529 10.525-23.156 0.78941-4.408 3.5533-6.513 6.3152-6.3152 3.1366 0.3726 5.6142 1.4041 8.4202 2.1051-4.107-10.727-11.355-10.321-21.051-6.3152 0.87781-6.4246 4.0565-9.5612 10.525-8.4202-4.8606-14.586-22.438-2.8776-27.366 6.3152-11.447-3.7975-22.406-9.999-18.946-23.156-19.343-9.2075-37.348-20.613-44.206-42.101h2.1051c5.0416 8.837 21.185 14.914 20.063 6.7109l-13.748-17.236c29.606 1.2715 17.813 55.089 54.732 44.206v-4.2101c-21.244-11.833-29.972-33.262-39.996-54.732 31.511 9.3612 32.553 48.444 57.032 65.512 7.8287 5.4584 40.779 3.9954 31.092-11.616-4.3575-7.0225-21.735-1.9535-29.098-8.0961-15.99-13.338-32.073-39.273-44.29-56.325 19.337 12.289 28.593 37.041 48.418 46.968 8.3718 4.1933 28.216 3.5681 25.368-10.879-2.0251-10.281-18.514-4.549-25.339-7.4751-15.314-6.5657-31.963-29.497-44.238-41.244 18.379 8.0723 29.277 28.635 48.416 34.411 7.0435 2.1261 25.233-1.042 20.194-12.45-3.5807-8.1045-19.611-3.7352-26.509-6.2194-15.167-5.4616-26.823-19.411-37.891-30.478 14.855 8.5446 28.292 22.999 46.311 24.535 6.9572 0.593 25.008-7.6632 15.529-16.469-6.1657-5.7272-18.632 0.66416-26.054-0.17871-11.957-1.3578-22.011-11.901-29.471-20.518 17.388 10.682 71.357 15.232 61.901-7.1046-6.5636-5.4612-13.736 4.0506-26.646 4.4091-13.527 0.0311-26.943-3.1776-38.017-11.711 14.104 4.7619 30.29 9.8151 44.831 3.0027 5.17-2.4214 23.678-17.756 11.717-23.019-9.3254-4.1036-18.937 9.1103-26.421 12.453-9.2749 4.1434-20.097 1.1235-29.471-1.1858v-2.1051c19.226-1.0205 38.316-2.1135 50.966-19.03 4.1533-5.5557 14.98-28.308 2.886-32.014-4.8269-1.4792-8.5676 3.3395-10.578 6.9614-5.9068 10.647-32.247 52.933-43.274 23.032-15.508 1.6552-34.294-2.4252-44.749 12.851-4.6396 6.7794 2.5261 27.582-3.7344 30.065-17.691 7.0166-5.8752-31.642-1.5872-36.569 19.063-21.914 70.61-3.0475 79.542-33.713 0.97044-8.1321-10.62 6.4202-16.076 9.9477-5.911 3.6422-13.416 3.8798-19.71 2.6827 6.6772-3.4976 12.039-2.3903 16.249-3.0919-3.9512-6.9427-13.013-6.0617-15.329-9.9073-3.0229-5.4584-15.079-7.0494-21.928-5.9678-13.028 2.8789-18.04 6.7648-42.143 0.0215l10.525 12.63-15.085 6.3034 6.6646 4.2219-12.63 8.4202c2.1051 0.70163 7.1172 0.70562 6.7804 2.6865l-10.176 17.306c-2.1114-3.6277-9.056-13.126-10.035-16.771-0.49048-1.6264 2.4461-2.3857 6.4183-3.105l-11.934-8.5366 7.713-4.5061-16.133-6.0192 8.4202-12.63c-13.424 8.9549-24.947-3.5616-40.489 0.0989-6.6267 1.5064-11.978 8.885-18.217 7.6538-5.2626-0.90013-11.397 2.2286-15.087 9.0878z"/>
  <path id="path1069" d="m132.34 331.3c0.651 0.3125 1.848 0.1562 2.03 0.8593-1.224 0.4428-2.682 0.4949-3.906 0.3908 0.573-1.3021 1.225-0.8074 1.876-1.2501z" fill-rule="evenodd" stroke-width="0" fill="#de2110"/>
  <path id="path1075" d="m188.2 331.53c-0.65 0.3125-1.847 0.1562-2.029 0.8593 1.224 0.4428 2.682 0.4949 3.905 0.3908-0.572-1.3021-1.225-0.8074-1.876-1.2501z" fill-rule="evenodd" stroke-width="0" fill="#de2110"/>
 </g>
</svg>
