<?xml version="1.0" encoding="UTF-8" standalone="no"?>
<!-- Created with Sodipodi ("http://www.sodipodi.com/") -->
<svg id="svg562" xmlns:rdf="http://www.w3.org/1999/02/22-rdf-syntax-ns#" xmlns="http://www.w3.org/2000/svg" viewBox="0 0 512 512" height="480" width="640" version="1.1" xmlns:cc="http://creativecommons.org/ns#" xmlns:dc="http://purl.org/dc/elements/1.1/">
 <metadata id="metadata3039">
  <rdf:RDF>
   <cc:Work rdf:about="">
    <dc:format>image/svg+xml</dc:format>
    <dc:type rdf:resource="http://purl.org/dc/dcmitype/StillImage"/>
   </cc:Work>
  </rdf:RDF>
 </metadata>
 <g id="flag">
  <rect id="rect561" fill-rule="evenodd" height="512" width="682.67" y="0" x="-85.333" stroke-width="1pt" fill="#3a7dce"/>
  <path id="selection_to_path" d="m111.82 240.35c-3.0793-6.2986-3.0793-6.2986-3.0793-12.596-1.54 0-1.8288 0.29598-2.7192 0.0482-0.89045-0.24548-1.227 5.8076-4.1149 4.626-0.48093-0.59039 2.0696-4.9686-0.69746-6.7887-0.89045-0.59273 0.21653-4.184-0.16867-5.7587 0 0-3.5124 1.8691-6.1594-4.7231-1.3-1.723-3.0801 1.5739-3.0801 1.5739s0.76964 2.0174-0.62529 2.51c-1.9731-1.4768-3.4174-0.70226-5.9193-2.7314-2.5027-2.0299 0.52955-4.3542-4.2349-6.0764 3.0801-7.8724 3.0801-6.2986 10.78-9.4471-4.6202-3.1493-4.6202-3.1493-7.6995-7.8732-4.6201-1.5746-6.1602-3.1485-10.78-6.2978-6.1594-7.8732-9.2395-23.618-9.2395-34.64 3.8984-3.6907 9.2395 12.596 16.94 17.319l10.78 4.7239c6.1594 3.1493 7.6995 6.2978 12.32 9.4471l13.86 4.7239c6.1594 4.7231 9.2395 11.022 13.86 12.596 5.0046 0 5.9687-2.9473 7.5734-3.1306 9.0534-0.47465 13.674-1.6671 15.478-4.4474 1.828-2.214 6.2073 1.2794 18.527-3.4437 0 0-1.5393-6.2986-1.5393-6.2986s3.2723-2.7554 7.6995-1.5746c-0.12004-2.8782-0.40951-10.554 3.9516-14.017-2.6486-2.8409-0.87145-4.877-0.87145-4.877s2.4548-2.4113 2.7428-3.6907c-1.2984-6.9379 1.1267-7.0451 1.6707-9.0866 0.54323-2.0407-2.0947-1.3416-1.3509-4.1553 0.74229-2.8145 5.2036-3.4825 5.8008-5.8006 0.59945-2.3181-1.2718-3.481-1.164-4.0341 0.96263-2.214 0.14512-7.43 0-9.4474 8.2777-2.2635 10.973-9.152 13.86-6.2982 1.54-9.4473 3.0801-12.596 12.32-12.596 1.3-2.9029-3.3696-5.3633-1.54-6.2982 3.0801-0.39362 5.4376-0.19677 9.0488 4.5762 1.1396 1.5125 1.3463-2.2143 2.5012-2.608 1.1548-0.39362 3.9189-0.39975 4.3299-2.2634 0.43459-1.9191 1.0599-4.4284 2.5999-7.5775 1.2992-2.5587 2.3097 0.98409 3.4645 6.0029 6.4975 0.24595 21.175 1.7222 27.334 3.4443 4.6201 1.2302 7.7002-1.2302 12.127-1.7222 3.2723 3.3459 6.3524 0.83657 8.0847 7.9712 2.4457 3.8498 6.4481 0.34453 7.315 1.4761 5.1497 14.515 22.859 4.7236 24.206 4.9697 2.2611 0 5.0236 6.4901 6.8037 6.3289 2.8932-0.49819 2.0742-2.5155 4.6011-1.7036-0.67467 5.4616 4.9575 11.76 4.9575 15.844 0 0 1.3706 0.68905 2.641-0.52281 1.2688-1.2111 2.4358-4.3235 3.5664-4.2498 2.6949 0.39369 3.7867 0.74747 6.8926 1.3025 8.3498 2.917 12.603 3.575 15.846 5.0696 1.5089 2.823 2.9707 4.2687 6.0288 3.7412 2.527 1.7354 0.68379 4.0084 2.176 4.156 3.0801-1.5746 4.0906-3.2969 7.1699-1.7222 3.0801 1.5746 6.1602 4.7239 7.7002 7.8732 0 1.5739-1.54 7.8724 0 17.319 0.76964 3.1493 1.1427 5.646 4.4515 11.047-0.87905 5.5481 4.1628 14.884 4.1628 17.246 0 3.1485-2.4548 4.7729-3.9948 7.9214 6.1602 4.7239 0 12.596-3.0793 17.32 23.099 4.7239 12.32 14.171 30.799 9.4471-4.6202 11.022-2.9844 10.137 1.6358 21.159-9.2403 6.2986-0.19147 8.2166-6.3509 16.089-0.38521 0.49251 3.656 6.84 9.3352 6.84-1.54 12.596-6.1602 7.8724-4.6201 26.767-12.127-0.24548-7.2193 14.122-15.4 12.596 0.48093 9.0043 4.668 9.792 3.0801 18.894-6.1594 1.5746-6.1594 1.5746-9.2395 6.2986l-4.6202-1.5746c-1.54 7.8724-4.6194 9.4471 0 17.32 0 0-5.9672 0.19654-7.6995 0-0.14511 2.7065 2.647 3.4445 3.0801 6.2978-0.24084 1.1318-8.7593 6.1012-15.4 6.2986-1.7323 3.8873 4.6194 8.0208 4.2349 9.9885-7.2193 1.4263-10.395 10.48-10.395 10.48s3.7054 1.5257 3.0801 3.1493c-1.9724-1.4768-3.0801-1.5746-6.1594-1.5746-1.54 0.39385-5.2933-0.0963-8.8923 6.1137-3.95 1.3323-5.8145 0.85064-8.811 4.9018-1.3266-3.8593-3.2343 0.0365-5.5676 1.5335-2.331 1.4993-5.4711 5.2258-5.8927 5.0673 0.0965-1.0837 1.4443-5.0199 1.4443-5.0199l-7.7002 1.5746s-0.3434 0.0342-0.94818 0.0971c-0.60554 0.0614-0.44371-4.5957-1.9032-4.4272-1.4588 0.17012-5.6337 5.8573-7.0567 6.0352-1.4208 0.1779-1.8706-1.8092-3.0953-1.636-1.224 0.17324-3.6112 5.9987-4.4781 6.1533-0.86689 0.1546-4.3056-3.5408-7.2527-3.025-15.16 5.4627-17.567-10.775-19.924-1.6228-3.1758-1.723-2.6258-0.72323-5.8532 0.14139-2.059 0.543-2.2466-2.7834-4.0777-2.7321-3.6636 0.10565-3.4714 3.6488-5.4688 2.5907-1.635-7.3815-11.502-6.0531-12.464-9.2016-0.78255-3.2844 4.2744-3.2689 5.9102-5.4938 1.2506-3.2106-1.306-4.4295 3.7684-7.5267 6.6138-4.574 2.8119-6.2993 3.9713-9.7368 2.0742-4.9632 2.0863-6.175 0.35405-10.554 0 0-5.1497-14.171-6.1602-14.171-3.0793-0.88482-3.0793 5.2149-7.6037 6.889-9.2395 3.1485-25.552-7.9718-28.392-7.9718-2.5976 0.0498-14.632 2.9139-14.178-3.2215-1.7991 5.9653-8.4159 1.4014-8.8239 1.4014-6.1602 0-3.8026 4.8715-7.9418 4.6742-1.8774-0.63933-20.837-1.7712-20.837-1.7712v3.1493l-12.32-6.2986-10.78-3.1485c-9.2395-3.1493-4.6194-11.022-20.019-6.2986v-9.4471h-7.6995c3.0793-18.895 0-9.4471-1.54-26.767l-6.1602 1.5746c-6.1594-8.5125 8.5656-6.889-4.6194-12.596 0 0 0.24009-9.3989-3.0801-6.2986-0.67392 0.39386 1.54 4.7239 1.54 4.7239-12.32-1.5746-15.4-4.7239-15.4-17.32 0 0 10.154 1.4768 9.2395 0-1.4436-2.3616-3.3202-17.713-2.9836-18.747-0.14435-2.0671 9.4325-7.282 7.5794-12.253 1.1792-0.4428 4.6437-0.49096 4.6437-0.49096" fill="#fff"/>
  <path id="path556" stroke-linejoin="round" d="m527.55 303.26c-0.49256 1.1082-0.4052 2.2148 0.104 3.0052 0.91438-1.3712 0.14227-2.0035-0.104-3.0052z" stroke="#fff" stroke-linecap="round" stroke-width="1.6864pt" fill="none"/>
  <path id="path557" stroke-linejoin="round" d="m131.51 178.94s-2.5826-0.31617-2.0027 1.9502c0.84367-1.7398 1.9502-1.8446 2.0027-1.9502z" stroke="#fff" stroke-width="2.108" fill="none"/>
  <path id="path558" stroke-linejoin="round" d="m132.09 173.67c-1.4228 0.0532-3.1625-0.2105-2.5826 2.0551 0.84367-1.7389 2.5302-1.9494 2.5826-2.0551z" stroke="#fff" stroke-width="2.108" fill="none"/>
  <path id="path559" stroke-linejoin="round" d="m141.81 203.87s2.214-0.15808 1.6341 2.1083c-0.84367-1.7398-1.5808-2.0027-1.6341-2.1083z" stroke="#fff" stroke-width="2.108" fill="none"/>
 </g>
</svg>
