<?xml version="1.0" encoding="UTF-8" standalone="no"?>
<!-- Created with Sodipodi ("http://www.sodipodi.com/") -->
<svg id="svg548" xmlns:rdf="http://www.w3.org/1999/02/22-rdf-syntax-ns#" xmlns="http://www.w3.org/2000/svg" height="480" width="640" version="1.1" xmlns:cc="http://creativecommons.org/ns#" xmlns:dc="http://purl.org/dc/elements/1.1/">
 <metadata id="metadata3293">
  <rdf:RDF>
   <cc:Work rdf:about="">
    <dc:format>image/svg+xml</dc:format>
    <dc:type rdf:resource="http://purl.org/dc/dcmitype/StillImage"/>
   </cc:Work>
  </rdf:RDF>
 </metadata>
 <defs id="defs550">
  <clipPath id="clipPath3716" clipPathUnits="userSpaceOnUse">
   <rect id="rect3718" fill-opacity="0.67" height="480" width="640" y="0" x="0"/>
  </clipPath>
 </defs>
 <g id="flag" clip-path="url(#clipPath3716)">
  <rect id="rect877" height="512" width="1024" y="-16" x="-374" stroke-width="1pt" fill="#006"/>
  <path id="path1241" d="m-374 240 1024 256v-512l-1024 256z" fill-rule="evenodd" stroke-width="1pt" fill="#bd1021"/>
  <path id="path1244" d="m650 11.429v457.14l-914.29-228.57 914.29-228.57z" fill-rule="evenodd" stroke-width="1pt" fill="#fff"/>
  <g id="g1279" stroke="#000" transform="matrix(1.4087 0 0 1.4087 292.32 52.187)">
   <path id="path1211" stroke-linejoin="round" d="m131.81 174.07s-4.538-3.713 0.825-9.695c-2.888-2.475-0.206-7.219-0.206-7.219s-4.951-1.857 0.206-9.489c-3.713-2.475-2.063-8.045-2.063-8.045s-12.17-4.538-0.618-8.869c-9.489 4.125-18.359-5.57-18.359-5.57l-13.82 0.413c-2.344-11.48-20.565-1.51-7.019-34.443-3.507-0.619-7.426-1.65-11.345 1.238-3.92 2.887-15.058 9.075-21.659 2.887s4.331-15.058 4.538-15.264c0.206-0.206 14.645-7.632 16.708-12.582-0.206-3.714-4.744-6.601-0.619-14.646 4.744-7.632 33.826-14.852 47.036-17.327 6.394-2.8878 9.282-8.4572 9.282-8.4572l1.444 5.3631s29.291-8.6635 30.735-12.789 0.619 3.7129 0.619 3.7129c11.551-1.0314 26.196-10.932 28.259-6.3945 9.695-1.8564 28.26-10.107 28.26-10.107s6.394-0.20618 1.856 6.8071c2.888 4.538-0.825 8.4572-1.031 8.4572-0.207 0 1.237 4.538-2.476 7.0133 1.239 3.9192-2.269 7.0133-2.269 7.0133s1.651 4.7443-4.95 7.2196c0.619 4.1255-3.713 4.9506-3.713 4.9506s0.619 4.3318-2.269 6.1882c0 3.3004-3.3 4.9506-3.3 4.9506s2.062 1.2376-0.826 3.3004c-2.887 2.0627-32.797 20.421-32.797 20.215 0-0.2062 21.865 3.9192 23.309 4.7443s17.946 11.758 17.946 11.758l-16.709 20.627s-18.564-2.062-19.389-1.031 3.919 1.444 4.95 3.094c1.032 1.65 2.682 5.57 5.982 5.157 3.301-0.413-6.188 5.982-12.376 6.601 0 2.269 7.838 2.475 9.901 0.619 2.063-1.857-4.951 5.363-5.776 6.394s9.283-1.444 9.283-1.444-1.651 6.807-10.52 8.87c3.506 5.776 2.062 9.489 1.856 9.489s-5.776-5.776-11.139-4.745c1.444 5.57 5.776 10.726 7.014 11.552 1.237 0.825-9.695 0.618-11.139-2.476s-2.682 7.426 1.237 10.727c-4.537 0.206-8.457-2.476-8.457-2.476s-2.681 6.188-0.825 9.283c1.857 3.094-6.394-6.189-6.394-6.189l-15.677 6.601-3.507-5.982z" fill-rule="evenodd" stroke-width="1.25" fill="#9c3900"/>
   <path id="path1173" d="m10.652 161.79c0.3674 0 22.774-0.368 33.06-6.245 5.1426 8.081 12.122 13.591 12.122 13.591l3.306-11.754s8.0812 0.367 8.8159 2.204c-1.102 2.203-1.4693 5.142-1.4693 5.142s5.5099 0.368 5.8772 1.102c0.3673 0.735-1.4693 6.979-1.4693 6.979l23.509 5.51s1.8366-9.183 3.6732-8.081c1.8367 1.102 9.9182 12.489 21.305 13.224s12.122-9.551 12.122-9.551l2.571 1.47s4.775-10.285 5.51-10.285 1.837 1.469 8.081 1.469c1.837 2.204 2.572 7.346 2.572 7.346s-6.98 6.98-4.776 12.49 2.572 4.04 2.572 4.04l50.691 12.122s2.572 4.041-1.836 6.245c0 0.367-51.059-11.755-51.059-11.755s-4.776 5.51-8.449 4.408-1.102 2.204-1.102 2.204l55.099 4.408s4.041 5.143 1.102 6.612c-3.673 0.367-59.507-3.673-59.507-3.673s-3.306 6.979-6.979 1.102c-2.571 4.04-5.51-1.102-5.51-1.102s-4.775 3.673-5.51-0.368c-4.041 2.939-6.612-1.836-6.612-1.836l-23.509-1.47-1.4693 2.204s4.0406 1.102-2.204 3.674c-6.2446 2.571 37.467 1.469 38.569 1.836 1.102 0.368-2.938 3.674-2.938 3.674s22.407 1.469 26.447-3.306c4.041-4.776-1.469 6.244-1.469 6.244s17.632-0.734 17.632-1.469-0.368 5.51-12.489 4.775c7.346 4.776 16.529 7.714 16.529 7.714s-9.183 2.204-19.835-0.367c1.836 4.775 9.918 9.183 9.918 9.183s-5.878 5.143-19.102-7.347c3.674 6.612 0.735 9.184 0.368 8.449-0.368-0.735-6.612-9.918-21.305-13.224 9.183 5.877 5.142 8.449 5.142 8.449s-4.775-8.449-12.489 0c-2.939-7.714-14.326-12.122-28.284-12.857-4.4079-5.142-6.9793-3.673-17.264-6.612-5.8772-6.611-14.326-13.958-14.326-13.958s0.3673-9.918 10.285-8.816c1.102 3.306 1.102 2.204 1.102 2.204s11.02-4.041 14.326 1.469c4.7752-8.449 11.387-1.263 12.489 1.675 3.1647 0.464 19.101 0.896 19.101 0.896s-1.837-3.306-0.735-2.938c1.102 0.367 9.918-3.306 9.551-4.408-0.368-1.102-0.735-4.775 0.734-4.408 1.47 0.367-12.489-1.837-20.203 4.041-2.5713-2.572-0.7346-9.551-0.7346-9.551l-22.774-4.775-1.102 5.877s-6.6119 1.102-6.2446-0.367c0.3673-1.47-1.4693 5.142-1.4693 5.142s-8.8159-2.204-8.8159-2.571 2.5713-13.224 2.5713-12.857c0 0.368-7.3466 0.735-17.632 8.449-2.9386-9.183-26.08-21.305-26.08-21.672z" fill-rule="evenodd" stroke-width="1pt" fill="#ffc221"/>
   <path id="path1174" d="m66.487 165.1-4.7753 21.305" stroke-width="1pt" fill="none"/>
   <path id="path1175" d="m70.894 173.18-1.4693 6.979" stroke-width="1pt" fill="none"/>
   <path id="path1176" d="m94.404 178.69-2.204 6.612" stroke-width="1pt" fill="none"/>
   <path id="path1177" d="m135.18 223.5c-0.367 0-11.754 1.469-13.224 1.102-1.469-0.367 17.999 5.877 17.999 8.448" stroke-width="1pt" fill="none"/>
   <path id="path1179" d="m114.61 226.08s-11.388-7.346-13.224-6.612c-1.8368 0.735 11.387-0.367 12.489-1.469" stroke-width="1pt" fill="none"/>
   <path id="path1180" d="m91.098 217.63s-11.754 0.367-12.856-0.735 11.387 8.081 13.591 7.347" stroke-width="1pt" fill="none"/>
   <path id="path1181" d="m68.323 212.48c-0.3673 0-8.0813-2.938-11.387-3.674 2.9386 2.939 5.1426 6.98 12.489 8.449" stroke-width="1pt" fill="none"/>
   <path id="path1182" d="m71.262 207.71c-0.3673-0.735-14.693-5.143-14.693-7.347 3.306 1.102 8.0812 2.571 12.489 1.469" stroke-width="1pt" fill="none"/>
   <path id="path1183" d="m147.3 190.81-1.469 6.611" stroke-width="1pt" fill="none"/>
   <path id="path1184" d="m39.304 131.67s-15.428 13.223 0 20.937c0.7346-5.143 1.8367-5.877 1.8367-5.877s12.856 4.775 20.57-6.612c-3.306-4.775-9.1832-2.938-9.1832-2.938s-12.122-0.001-13.224-5.51z" fill-rule="evenodd" stroke-width="1pt" fill="#ffc221"/>
   <path id="path1185" d="m52.161 137.55-10.652 9.183" stroke-width="1pt" fill="none"/>
   <path id="path1186" d="m84.969 201.33s2.4554 2.707 0.2514 6.013" stroke-width="1pt" fill="none"/>
   <path id="path1187" d="m136.65 204.04-4.04 0.368" stroke-width="1pt" fill="none"/>
   <path id="path1188" d="m103.59 201.83 7.346 1.102" stroke-width="1pt" fill="none"/>
   <path id="path1189" d="m123.35 182.94s0.206 7.426-5.982 7.22c-6.188-0.207-4.126 0.206-4.126 0.206" stroke-width="1pt" fill="none"/>
   <path id="path1190" d="m128.1 181.7s2.475 0.825 1.857 2.682c-0.619 1.856 0.618 7.219-6.601 12.376-7.633 1.65-6.807-6.394-6.807-6.394" stroke-width="1pt" fill="none"/>
   <path id="path1191" d="m130.78 183.97s4.538-2.681 5.157 1.651c0.618 4.331-3.713 12.376-6.807 13.614-3.095 1.237-6.601-0.207-6.189-2.269" stroke-width="1pt" fill="none"/>
   <path id="path1192" d="m136.35 185.83s4.126-3.301 5.363 1.031c1.238 4.332-3.3 14.027-5.157 14.233" stroke-width="1pt" fill="none"/>
   <path id="path1193" d="m142.12 186.86s2.063-1.031 3.506 0.206" stroke-width="1pt" fill="none"/>
   <path id="path1194" d="m135.52 201.71c-0.825 0.206-4.332 0.412-5.569-2.269" stroke-width="1pt" fill="none"/>
   <path id="path1195" d="m116.96 194.49c-0.206 0-4.331 0.207-4.331 0.207" stroke-width="1pt" fill="none"/>
   <path id="path1196" d="m132.84 210.79-0.412-6.807-1.65-2.269-2.888 2.888s-0.413 6.807-1.65 7.426" stroke-width="1pt" fill="none"/>
   <path id="path1197" d="m127.89 204.39c-0.206-0.412-2.269-4.331-2.269-4.331l-3.507 4.331s-0.412 6.189-1.65 6.808" stroke-width="1pt" fill="none"/>
   <path id="path1198" d="m122.11 204.18c0-0.206-1.444-4.125-1.444-4.125s-4.125 2.269-4.538 3.919c-0.412 1.65-0.619 6.188-1.65 6.601" stroke-width="1pt" fill="none"/>
   <path id="path1199" d="m116.13 203.15s0.413-3.713-0.825-3.713c-1.237 0-6.807 5.157-7.013 9.695" stroke-width="1pt" fill="none"/>
   <path id="path1200" stroke-linejoin="round" d="m39.811 131.78s2.0627-2.063 2.6816-4.538c0.6188-2.475-0.8251-5.157 1.6502-7.426 2.4752-2.269 35.066-16.089 37.748-18.771 2.6816-2.6814 7.6321-8.4571 8.251-9.6947 0.6188-1.2377 2.4753 6.1882-3.0941 9.4887 5.9819-1.6506 9.9011-3.5068 12.376-2.6817-2.4757 3.5067-9.076 9.2827-12.17 9.2827 7.2196-2.682 13.82-4.951 15.677-3.507 1.856 1.444-8.87 8.664-13.202 9.076 7.2196-1.856 16.915-4.744 18.152-1.65-3.919 1.238-2.682 2.268-10.726 6.807-1.0313 0.826-6.1882 1.031-6.1882 1.031 6.1882-0.619 14.645-3.094 15.47 1.444-4.95 1.856-6.8066 4.332-10.932 5.363-4.1255 1.032-13.614 2.888-19.39 5.157-5.7756 2.269-14.233 8.87-14.233 8.87s-18.358 0.619-18.358 0.412c0-0.206-3.5066-8.457-3.7129-8.663z" fill-rule="evenodd" stroke-width="1pt" fill="#fff"/>
   <path id="path1201" d="m48.474 130.34s0.2063-4.125 2.0627-5.569c1.8565-1.444 11.139-4.951 13.202-8.045 2.0627-3.094-3.0941 5.363-2.269 7.632" stroke-width="1pt" fill="none"/>
   <path id="path1202" d="m52.187 124.15s4.5381 1.651 3.5067 5.157" stroke-width="1pt" fill="none"/>
   <path id="path1203" d="m57.344 126.01c0 2.1645-1.7547 3.9192-3.9192 3.9192s-3.9192-1.7547-3.9192-3.9192 1.7547-3.9192 3.9192-3.9192 3.9192 1.7547 3.9192 3.9192z" transform="matrix(.86842 0 0 .86842 7.7514 17.095)" stroke-width="1pt" fill="none"/>
   <path id="path1205" d="m197.2 119.2 35.685 6.807s3.92-4.538 1.857-7.013c5.363-1.237 3.919-8.251 3.919-8.251s6.188-2.681 1.031-8.87c3.508-3.5065-0.825-6.188-0.825-6.188s1.444-6.1882-3.094-6.807c1.238-4.9505-7.838-6.6008-7.838-6.6008s-18.771 5.1569-31.973 5.5694c4.332 4.3318-1.65 7.0133-1.65 7.0133s3.507 2.4753 2.475 4.538c-1.031 2.0631 0.619 4.3321-3.919 5.7761 5.982 2.682-0.619 7.219-0.619 7.219s6.601 4.538 4.951 6.807z" fill-rule="evenodd" stroke-width="1pt" fill="#fff"/>
   <path id="path1206" d="m193.69 111.57s31.56 3.713 33.004 3.713 7.013 1.857 8.045 3.713" stroke-width="1pt" fill="none"/>
   <path id="path1207" d="m195.34 109.71 43.936 1.031" stroke-width="1pt" fill="none"/>
   <path id="path1208" d="m195.55 108.68s41.667-2.475 44.555-6.807" stroke-width="1pt" fill="none"/>
   <path id="path1209" d="m196.78 99.604s41.874-4.538 42.287-3.9192" stroke-width="1pt" fill="none"/>
   <path id="path1210" d="m195.34 94.447s40.636-6.3945 41.048-5.3631" stroke-width="1pt" fill="none"/>
   <path id="path1212" d="m79.416 68.251s12.789 14.027 11.551 23.515" stroke-width="1pt" fill="none"/>
   <path id="path1213" d="m90.142 84.34s4.1254 5.9819 5.7756 6.6007 16.09 1.4439 16.915 7.6321c0.825 3.9192-3.094 2.6812-2.475 5.5692 1.031 3.713 10.726 8.457 21.246 2.888" stroke-width="1pt" fill="none"/>
   <path id="path1214" d="m121.91 109.92s8.663 12.789 21.452-1.031" stroke-width="1pt" fill="none"/>
   <path id="path1215" d="m136.76 114.46s10.52 5.569 19.183-8.87" stroke-width="1pt" fill="none"/>
   <path id="path1216" d="m144.8 115.69s5.157 4.332 15.884-1.443" stroke-width="1pt" fill="none"/>
   <path id="path1217" d="m175.54 108.47s15.883 3.3 16.915 4.332" stroke-width="1pt" fill="none"/>
   <path id="path1218" d="m181.52 104.97c0.206 0 11.139 0.413 11.139 0.413" stroke-width="1pt" fill="none"/>
   <path id="path1219" d="m174.71 98.779s18.977-1.2376 21.453 2.6819" stroke-width="1pt" fill="none"/>
   <path id="path1220" d="m166.46 92.797s26.61 1.0313 27.847 2.4753" stroke-width="1pt" fill="none"/>
   <path id="path1221" d="m172.44 120.02s4.538-1.237 5.157-0.618" stroke-width="1pt" fill="none"/>
   <path id="path1222" d="m162.13 131.16s5.982 5.157 13.615 2.888" stroke-width="1pt" fill="none"/>
   <path id="path1223" d="m165.43 139.83s6.807 3.094 14.852 1.237" stroke-width="1pt" fill="none"/>
   <path id="path1224" d="m167.7 144.98s6.807 4.538 11.345 3.712" stroke-width="1pt" fill="none"/>
   <path id="path1225" d="m164.61 147.67s4.744 3.507 4.95 5.363" stroke-width="1pt" fill="none"/>
   <path id="path1226" d="m158.01 151.79s1.444 7.425 6.601 10.107" stroke-width="1pt" fill="none"/>
   <path id="path1227" d="m154.5 155.09s-2.269 9.695 3.507 15.677" stroke-width="1pt" fill="none"/>
   <path id="path1228" d="m148.52 162.72c0 0.206-0.412 4.538-0.206 4.951" stroke-width="1pt" fill="none"/>
   <path id="path1229" d="m111.39 125.18 11.139-0.619s4.125-1.65 1.237-4.331" stroke-width="1pt" fill="none"/>
   <path id="path1230" d="m125.21 122.71c0.207 0 10.52 0.825 13.202 3.919 2.681 3.094 5.982 9.282 7.838 10.314 1.857 1.031 2.269-0.413 2.269-0.413" stroke-width="1pt" fill="none"/>
   <path id="path1231" d="m143.98 134.88s-5.569 9.489-1.237 12.377" stroke-width="1pt" fill="none"/>
   <path id="path1232" d="m140.88 145.4s-4.95 6.601-1.031 9.901" stroke-width="1pt" fill="none"/>
   <path id="path1233" d="m138.82 154.47s-3.919 6.395 0.826 10.726" stroke-width="1pt" fill="none"/>
   <path id="path1235" d="m137.09 137.51c-0.266 0.266-4.791 3.46-6.388 2.662" stroke-width="1pt" fill="none"/>
   <path id="path1236" d="m132.3 147.62s1.863 1.863 3.46 1.597" stroke-width="1pt" fill="none"/>
   <path id="path1237" d="m132.52 157.3 2.973 2.039" stroke-width="1pt" fill="none"/>
   <path id="path1238" d="m132.92 164.71 2.572 1.552" stroke-width="1pt" fill="none"/>
   <path id="path1246" d="m86.33 63.544s5.4228 2.8199 9.761 0c4.3387-2.8198 25.162-13.448 30.585-15.184 5.422-1.7353 8.459-11.713 9.544-16.051" stroke-width="1pt" fill="none"/>
   <path id="path1247" d="m132.1 44.022 30.368-8.8933s4.989-4.1213 5.206-11.713" stroke-width="1pt" fill="none"/>
   <path id="path1248" d="m165.5 31.658s30.367-3.0367 30.367-14.316" stroke-width="1pt" fill="none"/>
   <path id="path1249" d="m191.1 25.15s31.886-8.6764 34.923-11.93" stroke-width="1pt" fill="none"/>
   <path id="path1250" d="m102.16 70.485s19.305-9.9779 22.342-11.062c3.036-1.0846 9.977-9.761-0.434-9.761" stroke-width="1pt" fill="none"/>
   <path id="path1251" d="m111.49 74.389c0.217 0 15.834-10.195 21.04-11.496 2.82-3.9043 1.302-8.0256-3.47-7.158" stroke-width="1pt" fill="none"/>
   <path id="path1252" d="m133.83 60.29c0.434-0.2169 8.46-0.4338 5.64 5.8566-4.12 3.0367-21.908 11.93-21.908 11.93" stroke-width="1pt" fill="none"/>
   <path id="path1253" d="m129.71 53.566 33.84-11.28s2.82-5.8566-1.301-6.7242" stroke-width="1pt" fill="none"/>
   <path id="path1254" d="m190.45 25.367c0 0.2169 4.339 2.6029 1.736 6.5073-4.772 2.8199-27.331 8.2426-27.331 8.2426" stroke-width="1pt" fill="none"/>
   <path id="path1255" d="m224.72 21.897-31.886 8.8934" stroke-width="1pt" fill="none"/>
   <path id="path1256" d="m222.33 29.055-27.764 8.4595" stroke-width="1pt" fill="none"/>
   <path id="path1257" d="m219.95 35.996-24.511 7.375" stroke-width="1pt" fill="none"/>
   <path id="path1258" d="m215.39 42.937c-0.651 0-18.22 5.4228-18.22 5.4228" stroke-width="1pt" fill="none"/>
   <path id="path1259" d="m211.49 48.36-11.28 4.5551" stroke-width="1pt" fill="none"/>
   <path id="path1260" d="m208.67 54.433c-0.434 0-9.761 4.1213-9.761 4.1213" stroke-width="1pt" fill="none"/>
   <path id="path1261" d="m205.85 59.422-8.676 4.1212" stroke-width="1pt" fill="none"/>
   <path id="path1262" d="m190.88 68.75s1.085 0.4338 0.868 1.7353" stroke-width="1pt" fill="none"/>
   <path id="path1263" d="m168.97 80.68s3.688 1.3014 0.217 4.772c-1.735 2.386-6.724 1.7354-9.761 6.0735" stroke-width="1pt" fill="none"/>
   <path id="path1264" d="m192.62 32.092s4.556 1.0845 1.085 6.9411c-9.111 3.4706-27.548 9.1102-27.548 9.1102s-0.867 1.5184-3.253 2.8199c-2.386 1.3014-28.632 8.6764-28.632 8.6764" stroke-width="1pt" fill="none"/>
   <path id="path1265" d="m194.14 38.816s4.989 2.1691 0 5.8566c-5.64 3.2536-25.379 9.3271-25.379 9.3271s-0.217 1.7352-1.084 2.386c-0.868 0.6507-26.897 9.3272-26.897 9.3272" stroke-width="1pt" fill="none"/>
   <path id="path1266" d="m195.44 44.672s5.206 1.5184 0.651 5.8565c-5.423 3.2537-22.776 9.1103-22.776 9.1103s-1.735 2.169-4.555 3.0367c-2.82 0.8676-20.823 8.2426-20.823 8.2426" stroke-width="1pt" fill="none"/>
   <path id="path1267" d="m196.74 50.529c1.519 0.6507 5.64 1.3015 0.651 5.2059-5.856 2.6029-20.172 8.2426-20.172 8.2426l-1.302 2.386-22.775 9.7609" stroke-width="1pt" fill="none"/>
   <path id="path1268" d="m198.04 56.386s2.169 2.603-2.603 5.6397c-5.206 2.8198-16.485 7.158-16.485 7.158" stroke-width="1pt" fill="none"/>
   <path id="path1269" d="m195.44 62.459s2.386 1.5184-0.65 3.6875c-3.471 1.7353-17.136 8.8933-17.136 8.8933l-8.894 5.8566" stroke-width="1pt" fill="none"/>
   <path id="path1270" d="m164.2 42.503c0 0.2169 3.688 3.2537 2.386 6.7242 3.254 2.386 2.603 4.989 2.603 4.989s4.555 2.6029 3.905 6.2904c4.555 1.0846 4.338 3.6875 4.338 3.6875l-1.519 2.386s4.555-0.2169 0.651 5.6397c2.386 1.3015 1.302 2.8198 1.302 2.8198" stroke-width="1pt" fill="none"/>
   <path id="path1271" d="m176.56 72.437c-0.651 0-15.834 5.6397-19.739 9.1102" stroke-width="1pt" fill="none"/>
   <path id="path1272" d="m139.91 65.713s4.555-0.2169 3.905 4.772c5.206-1.7353 4.121 3.2536 4.121 3.2536s6.073-2.386 4.989 5.2059c3.904-0.8676 3.253 3.0367 3.253 3.0367s3.471-0.2169 3.471 1.7353c2.386-2.1691 4.989-1.0845 4.989-1.0845s1.735-2.3861 4.121-1.7353" stroke-width="1pt" fill="none"/>
   <path id="path1273" d="m144.03 70.268c0 0.434-20.39 11.713-20.39 11.713" stroke-width="1pt" fill="none"/>
   <path id="path1274" d="m147.93 73.955-15.401 9.544" stroke-width="1pt" fill="none"/>
   <path id="path1275" d="m153.14 78.727c0 0.2169-13.449 8.0257-13.449 8.0257" stroke-width="1pt" fill="none"/>
   <path id="path1276" d="m156.18 81.764s-9.544 7.8088-11.713 7.375" stroke-width="1pt" fill="none"/>
   <path id="path1277" d="m159.43 84.15s-5.423 4.1214-9.978 6.0735" stroke-width="1pt" fill="none"/>
   <path id="path1278" d="m165.07 82.415s1.735 2.1691-9.11 7.8087" stroke-width="1pt" fill="none"/>
  </g>
 </g>
</svg>
