<?xml version="1.0" encoding="UTF-8" standalone="no"?>
<!-- Created with Sodipodi ("http://www.sodipodi.com/") -->
<svg id="svg797" xmlns:rdf="http://www.w3.org/1999/02/22-rdf-syntax-ns#" xmlns="http://www.w3.org/2000/svg" height="480" width="640" version="1.1" xmlns:cc="http://creativecommons.org/ns#" xmlns:dc="http://purl.org/dc/elements/1.1/">
 <metadata id="metadata3241">
  <rdf:RDF>
   <cc:Work rdf:about="">
    <dc:format>image/svg+xml</dc:format>
    <dc:type rdf:resource="http://purl.org/dc/dcmitype/StillImage"/>
   </cc:Work>
  </rdf:RDF>
 </metadata>
 <g id="flag" fill-rule="evenodd">
  <g id="g3197" stroke-width="1pt" transform="matrix(1.25 0 0 .9375 0 .000014084)">
   <rect id="rect807" height="512" width="170.67" y="-.000014655" x="0" fill="#00009d"/>
   <rect id="rect808" height="512" width="170.67" y="-.000014655" x="341.33" fill="#00009d"/>
   <rect id="rect809" height="512" width="170.67" y="-.000014655" x="170.67" fill="#ffd400"/>
  </g>
  <g id="g3688" transform="matrix(1.4589 0 0 1.4589 -222.87 -145.15)">
   <path id="path803" d="m372.32 365.16c7.962 0.556 3.563-0.361 11.525 0.195l0.555-47.217h30.553c-0.181-56.391 21.723-103.92 47.86-144.21 1.571-2.021 0.544-2.89-1.199-2.443-19.726 3.081-40.02 13.437-53.922 27.813-1.622 1.991 0.233 2.301 1.15 2.183 7.613-2.282 6.113 6.244 5.561 9.665-7.803 24.929-14.613 49.084-17.113 77.769-0.003 1.995-0.317 3.446-1.263 3.542-3.518 0.185-6.959 0.135-10.516 0.125-1.297 0.012-1.58-1.421-1.666-2.777 0.185-28.886-0.072-57.771 0.113-86.657 0.089-1.906 6.991-9.644 8.114-9.674 3.535-0.091 5.025-0.004 8.978-0.071 1.03-0.008 1.251-3.18 0.073-3.334-2.407 0-6.873-0.22-9.28-0.22-1.14 0.044-17.29-12.273-17.327-14.804-0.185-3.888-0.076-7.703-0.261-11.591 0.212-0.957-4.509-1.177-4.444 0.073v10.809c-0.809 5.15 2.324 175.08 2.509 190.82z"/>
   <path id="path806" d="m371.9 365.16c-7.962 0.556-3.563-0.361-11.525 0.195l-0.555-47.217h-30.553c0.181-56.391-21.723-103.92-47.86-144.21-1.571-2.021-0.544-2.89 1.199-2.443 19.726 3.081 40.02 13.437 53.922 27.813 1.622 1.991-0.233 2.301-1.15 2.183-7.613-2.282-6.113 6.244-5.561 9.665 7.803 24.929 14.613 49.084 17.113 77.769 0.003 1.995 0.317 3.446 1.263 3.542 3.518 0.185 6.959 0.135 10.516 0.125 1.297 0.012 1.58-1.421 1.666-2.777-0.185-28.886 0.072-57.771-0.113-86.657-0.089-1.906-6.991-9.644-8.114-9.674-3.535-0.091-5.025-0.004-8.978-0.071-1.03-0.008-1.251-3.18-0.073-3.334 2.407 0 6.873-0.22 9.28-0.22 1.14 0.044 17.29-12.273 17.327-14.804 0.185-3.888 0.076-7.703 0.261-11.591-0.212-0.957 4.509-1.177 4.444 0.073v10.809c0.809 5.15-2.324 175.08-2.509 190.82z"/>
  </g>
 </g>
</svg>
