<?xml version="1.0" encoding="UTF-8" standalone="no"?>
<!-- Created with Sodipodi ("http://www.sodipodi.com/") -->
<svg id="svg548" xmlns:rdf="http://www.w3.org/1999/02/22-rdf-syntax-ns#" xmlns="http://www.w3.org/2000/svg" height="480" width="640" version="1.1" xmlns:cc="http://creativecommons.org/ns#" xmlns:dc="http://purl.org/dc/elements/1.1/">
 <metadata id="metadata3234">
  <rdf:RDF>
   <cc:Work rdf:about="">
    <dc:format>image/svg+xml</dc:format>
    <dc:type rdf:resource="http://purl.org/dc/dcmitype/StillImage"/>
   </cc:Work>
  </rdf:RDF>
 </metadata>
 <defs id="defs550">
  <clipPath id="clipPath6485" clipPathUnits="userSpaceOnUse">
   <rect id="rect6487" fill-opacity="0.67" height="512" width="682.6" y=".0000011252" x="5.67e-8"/>
  </clipPath>
 </defs>
 <g id="flag" fill-rule="evenodd" clip-path="url(#clipPath6485)" transform="matrix(.93759 0 0 .93750 -5.3161e-8 -.0000010549)">
  <rect id="rect1535" height="340.11" width="1024" y=".00016830" x="0.001" stroke-width="1pt" fill="#b20000"/>
  <rect id="rect2026" height="171.89" width="1024" y="340.11" x="0.001" stroke-width="1pt" fill="#429f00"/>
  <rect id="rect1291" height="512" width="113.37" y="-2.0117e-7" x="0.001" stroke-width="1.0004pt" fill="#fff"/>
  <g id="g1528" stroke-width="1pt" fill="#b20000" transform="matrix(.30472 0 0 .24491 145.76 147.53)">
   <rect id="rect557" transform="matrix(5 0 0 5 549.21 -35.433)" height="7.0866" width="3.5433" y="-106.3" x="-201.97"/>
   <rect id="rect560" transform="matrix(5 0 0 5 549.21 -35.433)" height="7.0866" width="10.63" y="-106.3" x="-191.34"/>
   <rect id="rect561" transform="matrix(5 0 0 5 549.21 -35.433)" height="7.0866" width="3.5433" y="-113.39" x="-187.8"/>
   <rect id="rect562" transform="matrix(5 0 0 5 549.21 -35.433)" height="7.0866" width="3.5433" y="-113.39" x="-170.08"/>
   <rect id="rect563" transform="matrix(5 0 0 5 549.21 -35.433)" height="7.0866" width="10.63" y="-106.3" x="-155.91"/>
   <rect id="rect564" transform="matrix(5 0 0 5 549.21 -35.433)" height="7.0866" width="3.5433" y="-113.39" x="-152.36"/>
   <rect id="rect565" transform="matrix(5 0 0 5 549.21 -35.433)" height="7.0866" width="7.0866" y="-99.213" x="-194.88"/>
   <rect id="rect566" transform="matrix(5 0 0 5 549.21 -35.433)" height="7.0866" width="7.0866" y="-99.213" x="-184.25"/>
   <rect id="rect567" transform="matrix(5 0 0 5 549.21 -35.433)" height="7.0866" width="7.0866" y="-99.213" x="-159.45"/>
   <rect id="rect568" transform="matrix(5 0 0 5 549.21 -35.433)" height="7.0866" width="7.0866" y="-99.213" x="-148.82"/>
   <rect id="rect569" transform="matrix(5 0 0 5 549.21 -35.433)" height="7.0866" width="7.0866" y="-92.126" x="-198.43"/>
   <rect id="rect570" transform="matrix(5 0 0 5 549.21 -35.433)" height="7.0866" width="7.0866" y="-92.126" x="-180.71"/>
   <rect id="rect571" transform="matrix(5 0 0 5 549.21 -35.433)" height="7.0866" width="7.0866" y="-92.126" x="-162.99"/>
   <rect id="rect572" transform="matrix(5 0 0 5 549.21 -35.433)" height="7.0866" width="7.0866" y="-92.126" x="-145.28"/>
   <rect id="rect573" transform="matrix(5 0 0 5 549.21 -35.433)" height="7.0866" width="3.5433" y="-106.3" x="-138.19"/>
   <rect id="rect574" transform="matrix(5 0 0 5 549.21 -35.433)" height="7.0866" width="7.0866" y="-85.039" x="-201.97"/>
   <rect id="rect575" transform="matrix(5 0 0 5 549.21 -35.433)" height="7.0866" width="7.0866" y="-85.039" x="-177.17"/>
   <rect id="rect576" transform="matrix(5 0 0 5 549.21 -35.433)" height="7.0866" width="7.0866" y="-85.039" x="-141.73"/>
   <rect id="rect577" transform="matrix(5 0 0 5 549.21 -35.433)" height="7.0866" width="7.0866" y="-63.78" x="-198.43"/>
   <rect id="rect578" transform="matrix(5 0 0 5 549.21 -35.433)" height="7.0866" width="7.0866" y="-56.693" x="-194.88"/>
   <rect id="rect580" transform="matrix(5 0 0 5 549.21 -35.433)" height="7.0866" width="7.0866" y="-63.78" x="-180.71"/>
   <rect id="rect581" transform="matrix(5 0 0 5 549.21 -35.433)" height="7.0866" width="7.0866" y="-56.693" x="-184.25"/>
   <rect id="rect582" transform="matrix(5 0 0 5 549.21 -35.433)" height="7.0866" width="10.63" y="-49.606" x="-191.34"/>
   <rect id="rect583" transform="matrix(5 0 0 5 549.21 -35.433)" height="7.0866" width="3.5433" y="-42.52" x="-187.8"/>
   <rect id="rect584" transform="matrix(5 0 0 5 549.21 -35.433)" height="7.0866" width="7.0866" y="-63.779" x="-162.99"/>
   <rect id="rect585" transform="matrix(5 0 0 5 549.21 -35.433)" height="7.0866" width="7.0866" y="-56.693" x="-159.45"/>
   <rect id="rect587" transform="matrix(5 0 0 5 549.21 -35.433)" height="7.0866" width="7.0866" y="-63.78" x="-145.28"/>
   <rect id="rect588" transform="matrix(5 0 0 5 549.21 -35.433)" height="7.0866" width="7.0866" y="-56.693" x="-148.82"/>
   <rect id="rect589" transform="matrix(5 0 0 5 549.21 -35.433)" height="7.0866" width="10.63" y="-49.606" x="-155.91"/>
   <rect id="rect590" transform="matrix(5 0 0 5 549.21 -35.433)" height="7.0866" width="3.5433" y="-42.52" x="-152.36"/>
   <rect id="rect591" transform="matrix(5 0 0 5 549.21 -35.433)" height="7.0866" width="3.5433" y="-49.606" x="-170.08"/>
   <rect id="rect592" transform="matrix(5 0 0 5 549.21 -35.433)" height="7.0866" width="3.5433" y="-49.606" x="-205.51"/>
   <rect id="rect593" transform="matrix(5 0 0 5 549.21 -35.433)" height="7.0866" width="3.5433" y="-49.606" x="-134.65"/>
   <rect id="rect594" transform="matrix(5 0 0 5 549.21 -35.433)" height="7.0866" width="3.5433" y="-14.173" x="-187.8"/>
   <rect id="rect595" transform="matrix(5 0 0 5 549.21 -35.433)" height="7.0866" width="10.63" y="-7.0866" x="-191.34"/>
   <rect id="rect596" transform="matrix(5 0 0 5 549.21 -35.433)" height="7.0866" width="17.717" y="0.000068" x="-194.88"/>
   <rect id="rect597" transform="matrix(5 0 0 5 549.21 -35.433)" height="7.0866" width="3.5433" y="-14.173" x="-152.36"/>
   <rect id="rect598" transform="matrix(5 0 0 5 549.21 -35.433)" height="7.0866" width="10.63" y="-7.0866" x="-155.91"/>
   <rect id="rect599" transform="matrix(5 0 0 5 549.21 -35.433)" height="7.0866" width="17.717" y="0.000068" x="-159.45"/>
   <rect id="rect600" transform="matrix(5 0 0 5 549.21 -35.433)" height="7.0866" width="17.717" y="35.433" x="-155.91"/>
   <rect id="rect601" transform="matrix(5 0 0 5 549.21 -35.433)" height="7.0866" width="24.803" y="7.0866" x="-162.99"/>
   <rect id="rect602" transform="matrix(5 0 0 5 549.21 -35.433)" height="7.0866" width="24.803" y="7.0866" x="-198.43"/>
   <rect id="rect604" transform="matrix(5 0 0 5 549.21 -35.433)" height="7.0866" width="10.63" y="42.52" x="-194.88"/>
   <rect id="rect605" transform="matrix(5 0 0 5 549.21 -35.433)" height="7.0866" width="17.717" y="35.433" x="-198.43"/>
   <rect id="rect606" transform="matrix(5 0 0 5 549.21 -35.433)" height="7.0866" width="17.717" y="21.26" x="-148.82"/>
   <rect id="rect607" transform="matrix(5 0 0 5 549.21 -35.433)" height="7.0866" width="10.63" y="42.52" x="-152.36"/>
   <rect id="rect609" transform="matrix(5 0 0 5 549.21 -35.433)" height="7.0866" width="3.5433" y="49.606" x="-191.34"/>
   <rect id="rect610" transform="matrix(5 0 0 5 549.21 -35.433)" height="7.0866" width="3.5433" y="49.606" x="-148.82"/>
   <rect id="rect611" transform="matrix(5 0 0 5 549.21 -35.433)" height="7.0866" width="17.717" y="21.26" x="-205.51"/>
   <rect id="rect612" transform="matrix(5 0 0 5 549.21 -35.433)" height="7.0866" width="10.63" y="35.433" x="-173.62"/>
   <rect id="rect614" transform="matrix(5 0 0 5 549.21 -35.433)" height="7.0866" width="3.5433" y="42.52" x="-170.08"/>
   <rect id="rect615" transform="matrix(5 0 0 5 549.21 -35.433)" height="7.0866" width="24.803" y="21.26" x="-180.71"/>
   <rect id="rect616" transform="matrix(5 0 0 5 549.21 -35.433)" height="7.0866" width="7.0866" y="-85.039" x="-166.54"/>
   <rect id="rect617" transform="matrix(5 0 0 5 549.21 -35.433)" height="7.0866" width="10.63" y="-77.953" x="-173.62"/>
   <rect id="rect618" transform="matrix(5 0 0 5 549.21 -35.433)" height="7.0866" width="7.0866" y="-70.866" x="-177.17"/>
   <rect id="rect619" transform="matrix(5 0 0 5 549.21 -35.433)" height="7.0866" width="7.0866" y="-70.866" x="-166.54"/>
   <rect id="rect620" transform="matrix(5 0 0 5 549.21 -35.433)" height="7.0866" width="7.0866" y="-77.953" x="-205.51"/>
   <rect id="rect621" transform="matrix(5 0 0 5 549.21 -35.433)" height="7.0866" width="7.0866" y="-70.866" x="-201.97"/>
   <rect id="rect622" transform="matrix(5 0 0 5 549.21 -35.433)" height="7.0866" width="7.0866" y="-77.953" x="-138.19"/>
   <rect id="rect623" transform="matrix(5 0 0 5 549.21 -35.433)" height="7.0866" width="7.0866" y="-70.866" x="-141.73"/>
   <rect id="rect624" transform="matrix(5 0 0 5 549.21 -35.433)" height="7.0866" width="3.5433" y="-7.0866" x="-205.51"/>
   <rect id="rect625" transform="matrix(5 0 0 5 549.21 -35.433)" height="7.0866" width="3.5433" y="-7.0866" x="-134.65"/>
   <rect id="rect664" transform="matrix(5 0 0 5 549.21 -35.433)" height="7.0866" width="10.63" y="49.606" x="-173.62"/>
   <rect id="rect665" transform="matrix(5 0 0 5 549.21 -35.433)" height="7.0866" width="7.0866" y="56.693" x="-177.17"/>
   <rect id="rect666" transform="matrix(5 0 0 5 549.21 -35.433)" height="7.0866" width="7.0866" y="56.693" x="-166.54"/>
   <rect id="rect667" transform="matrix(5 0 0 5 549.21 -35.433)" height="7.0866" width="7.0866" y="63.78" x="-180.71"/>
   <rect id="rect668" transform="matrix(5 0 0 5 549.21 -35.433)" height="7.0866" width="7.0866" y="63.78" x="-162.99"/>
   <rect id="rect669" transform="matrix(5 0 0 5 549.21 -35.433)" height="7.0866" width="7.0866" y="70.866" x="-184.25"/>
   <rect id="rect670" transform="matrix(5 0 0 5 549.21 -35.433)" height="7.0866" width="7.0866" y="70.866" x="-159.45"/>
   <rect id="rect671" transform="matrix(5 0 0 5 549.21 -35.433)" height="7.0866" width="7.0866" y="77.953" x="-187.8"/>
   <rect id="rect672" transform="matrix(5 0 0 5 549.21 -35.433)" height="7.0866" width="7.0866" y="77.953" x="-155.91"/>
   <rect id="rect673" transform="matrix(5 0 0 5 549.21 -35.433)" height="7.0866" width="10.63" y="85.039" x="-194.88"/>
   <rect id="rect674" transform="matrix(5 0 0 5 549.21 -35.433)" height="7.0866" width="10.63" y="85.039" x="-152.36"/>
   <rect id="rect675" transform="matrix(5 0 0 5 549.21 -35.433)" height="7.0866" width="7.0866" y="77.953" x="-145.28"/>
   <rect id="rect676" transform="matrix(5 0 0 5 549.21 -35.433)" height="7.0866" width="7.0866" y="70.866" x="-141.73"/>
   <rect id="rect677" transform="matrix(5 0 0 5 549.21 -35.433)" height="7.0866" width="7.0866" y="63.78" x="-138.19"/>
   <rect id="rect680" transform="matrix(5 0 0 5 549.21 -35.433)" height="7.0866" width="7.0866" y="77.953" x="-198.43"/>
   <rect id="rect681" transform="matrix(5 0 0 5 549.21 -35.433)" height="7.0866" width="7.0866" y="70.866" x="-201.97"/>
   <rect id="rect682" transform="matrix(5 0 0 5 549.21 -35.433)" height="7.0866" width="7.0866" y="63.78" x="-205.51"/>
   <rect id="rect683" transform="matrix(5 0 0 5 549.21 -35.433)" height="7.0866" width="3.5433" y="92.126" x="-191.34"/>
   <rect id="rect685" transform="matrix(5 0 0 5 549.21 -35.433)" height="7.0866" width="3.5433" y="92.126" x="-148.82"/>
   <rect id="rect708" transform="matrix(5 0 0 5 549.21 -35.433)" height="7.0866" width="3.5433" y="70.866" x="-170.08"/>
   <rect id="rect709" transform="matrix(5 0 0 5 549.21 -35.433)" height="7.0866" width="3.5433" y="92.126" x="-180.71"/>
   <rect id="rect711" transform="matrix(5 0 0 5 549.21 -35.433)" height="7.0866" width="3.5433" y="92.126" x="-159.45"/>
   <rect id="rect712" transform="matrix(5 0 0 5 549.21 -35.433)" height="7.0866" width="3.5433" y="92.126" x="-170.08"/>
   <rect id="rect721" transform="matrix(5 0 0 5 549.21 -35.433)" height="7.0866" width="3.5433" y="92.126" x="-205.51"/>
   <rect id="rect722" transform="matrix(5 0 0 5 549.21 -35.433)" height="7.0866" width="3.5433" y="92.126" x="-134.65"/>
   <rect id="rect723" transform="matrix(5 0 0 5 549.21 -35.433)" height="7.0866" width="3.5433" y="-7.0866" x="-170.08"/>
   <rect id="rect881" transform="matrix(5 0 0 5 549.21 -35.433)" height="7.0866" width="3.5433" y="-77.953" x="-187.8"/>
   <rect id="rect882" transform="matrix(5 0 0 5 549.21 -35.433)" height="7.0866" width="3.5433" y="-77.953" x="-152.36"/>
   <rect id="rect883" transform="matrix(5 0 0 5 549.21 -35.433)" height="7.0866" width="10.63" y="-28.346" x="-173.62"/>
   <rect id="rect887" transform="matrix(5 0 0 5 549.21 -35.433)" height="7.0866" width="10.63" y="-21.26" x="-180.71"/>
   <rect id="rect888" transform="matrix(5 0 0 5 549.21 -35.433)" height="7.0866" width="3.5433" y="-14.173" x="-177.17"/>
   <rect id="rect889" transform="matrix(5 0 0 5 549.21 -35.433)" height="7.0866" width="7.0866" y="-28.346" x="-184.25"/>
   <rect id="rect890" transform="matrix(5 0 0 5 549.21 -35.433)" height="7.0866" width="10.63" y="-35.433" x="-180.71"/>
   <rect id="rect891" transform="matrix(5 0 0 5 549.21 -35.433)" height="7.0866" width="3.5433" y="-42.52" x="-177.17"/>
   <rect id="rect893" transform="matrix(5 0 0 5 549.21 -35.433)" height="7.0866" width="10.63" y="-35.433" x="-166.54"/>
   <rect id="rect894" transform="matrix(5 0 0 5 549.21 -35.433)" height="7.0866" width="3.5433" y="-42.52" x="-162.99"/>
   <rect id="rect895" transform="matrix(5 0 0 5 549.21 -35.433)" height="7.0866" width="7.0866" y="-28.346" x="-159.45"/>
   <rect id="rect896" transform="matrix(5 0 0 5 549.21 -35.433)" height="7.0866" width="10.63" y="-21.26" x="-166.54"/>
   <rect id="rect897" transform="matrix(5 0 0 5 549.21 -35.433)" height="7.0866" width="3.5433" y="-14.173" x="-162.99"/>
   <rect id="rect898" transform="matrix(5 0 0 5 549.21 -35.433)" height="7.0866" width="7.0866" y="-28.346" x="-148.82"/>
   <rect id="rect901" transform="matrix(5 0 0 5 549.21 -35.433)" height="7.0866" width="10.63" y="-35.433" x="-145.28"/>
   <rect id="rect902" transform="matrix(5 0 0 5 549.21 -35.433)" height="7.0866" width="7.0866" y="-28.346" x="-138.19"/>
   <rect id="rect903" transform="matrix(5 0 0 5 549.21 -35.433)" height="7.0866" width="10.63" y="-21.26" x="-145.28"/>
   <rect id="rect904" transform="matrix(5 0 0 5 549.21 -35.433)" height="7.0866" width="3.5433" y="-14.173" x="-141.73"/>
   <rect id="rect905" transform="matrix(5 0 0 5 549.21 -35.433)" height="7.0866" width="3.5433" y="-42.52" x="-141.73"/>
   <rect id="rect907" transform="matrix(5 0 0 5 549.21 -35.433)" height="7.0866" width="7.0866" y="-28.346" x="-205.51"/>
   <rect id="rect908" transform="matrix(5 0 0 5 549.21 -35.433)" height="7.0866" width="10.63" y="-35.433" x="-201.97"/>
   <rect id="rect909" transform="matrix(5 0 0 5 549.21 -35.433)" height="7.0866" width="7.0866" y="-28.346" x="-194.88"/>
   <rect id="rect910" transform="matrix(5 0 0 5 549.21 -35.433)" height="7.0866" width="10.63" y="-21.26" x="-201.97"/>
   <rect id="rect911" transform="matrix(5 0 0 5 549.21 -35.433)" height="7.0866" width="3.5433" y="-14.173" x="-198.43"/>
   <rect id="rect912" transform="matrix(5 0 0 5 549.21 -35.433)" height="7.0866" width="3.5433" y="-42.52" x="-198.43"/>
   <rect id="rect913" transform="matrix(5 0 0 5 549.21 -35.433)" height="7.0866" width="14.173" y="14.173" x="-201.97"/>
   <rect id="rect914" transform="matrix(5 0 0 5 549.21 -35.433)" height="7.0866" width="14.173" y="14.173" x="-184.25"/>
   <rect id="rect915" transform="matrix(5 0 0 5 549.21 -35.433)" height="7.0866" width="14.173" y="14.173" x="-166.54"/>
   <rect id="rect918" transform="matrix(5 0 0 5 549.21 -35.433)" height="7.0866" width="14.173" y="14.173" x="-148.82"/>
   <rect id="rect919" transform="matrix(5 0 0 5 549.21 -35.433)" height="7.0866" width="17.717" y="28.346" x="-177.17"/>
   <rect id="rect920" transform="matrix(5 0 0 5 549.21 -35.433)" height="7.0866" width="17.717" y="28.346" x="-201.97"/>
   <rect id="rect921" transform="matrix(5 0 0 5 549.21 -35.433)" height="7.0866" width="17.717" y="28.346" x="-152.36"/>
   <rect id="rect922" transform="matrix(5 0 0 5 549.21 -35.433)" height="7.0866" width="3.5433" y="56.693" x="-134.65"/>
   <rect id="rect923" transform="matrix(5 0 0 5 549.21 -35.433)" height="7.0866" width="3.5433" y="56.693" x="-205.51"/>
   <rect id="rect924" transform="matrix(5 0 0 -5 549.21 -35.433)" height="7.0866" width="3.5433" y="-297.64" x="-201.97"/>
   <rect id="rect925" transform="matrix(5 0 0 -5 549.21 -35.433)" height="7.0866" width="10.63" y="-297.64" x="-191.34"/>
   <rect id="rect926" transform="matrix(5 0 0 -5 549.21 -35.433)" height="7.0866" width="3.5433" y="-304.72" x="-187.8"/>
   <rect id="rect927" transform="matrix(5 0 0 -5 549.21 -35.433)" height="7.0866" width="3.5433" y="-304.72" x="-170.08"/>
   <rect id="rect928" transform="matrix(5 0 0 -5 549.21 -35.433)" height="7.0866" width="10.63" y="-297.64" x="-155.91"/>
   <rect id="rect929" transform="matrix(5 0 0 -5 549.21 -35.433)" height="7.0866" width="3.5433" y="-304.72" x="-152.36"/>
   <rect id="rect930" transform="matrix(5 0 0 -5 549.21 -35.433)" height="7.0866" width="7.0866" y="-290.55" x="-194.88"/>
   <rect id="rect931" transform="matrix(5 0 0 -5 549.21 -35.433)" height="7.0866" width="7.0866" y="-290.55" x="-184.25"/>
   <rect id="rect932" transform="matrix(5 0 0 -5 549.21 -35.433)" height="7.0866" width="7.0866" y="-290.55" x="-159.45"/>
   <rect id="rect933" transform="matrix(5 0 0 -5 549.21 -35.433)" height="7.0866" width="7.0866" y="-290.55" x="-148.82"/>
   <rect id="rect935" transform="matrix(5 0 0 -5 549.21 -35.433)" height="7.0866" width="7.0866" y="-283.46" x="-180.71"/>
   <rect id="rect936" transform="matrix(5 0 0 -5 549.21 -35.433)" height="7.0866" width="7.0866" y="-283.46" x="-162.99"/>
   <rect id="rect937" transform="matrix(5 0 0 -5 549.21 -35.433)" height="7.0866" width="7.0866" y="-283.46" x="-145.28"/>
   <rect id="rect938" transform="matrix(5 0 0 -5 549.21 -35.433)" height="7.0866" width="3.5433" y="-297.64" x="-138.19"/>
   <rect id="rect939" transform="matrix(5 0 0 -5 549.21 -35.433)" height="7.0866" width="7.0866" y="-276.38" x="-201.97"/>
   <rect id="rect940" transform="matrix(5 0 0 -5 549.21 -35.433)" height="7.0866" width="7.0866" y="-276.38" x="-177.17"/>
   <rect id="rect941" transform="matrix(5 0 0 -5 549.21 -35.433)" height="7.0866" width="7.0866" y="-276.38" x="-141.73"/>
   <rect id="rect942" transform="matrix(5 0 0 -5 549.21 -35.433)" height="7.0866" width="7.0866" y="-255.12" x="-198.43"/>
   <rect id="rect943" transform="matrix(5 0 0 -5 549.21 -35.433)" height="7.0866" width="7.0866" y="-248.03" x="-194.88"/>
   <rect id="rect944" transform="matrix(5 0 0 -5 549.21 -35.433)" height="7.0866" width="7.0866" y="-255.12" x="-180.71"/>
   <rect id="rect945" transform="matrix(5 0 0 -5 549.21 -35.433)" height="7.0866" width="7.0866" y="-248.03" x="-184.25"/>
   <rect id="rect946" transform="matrix(5 0 0 -5 549.21 -35.433)" height="7.0866" width="10.63" y="-240.94" x="-191.34"/>
   <rect id="rect947" transform="matrix(5 0 0 -5 549.21 -35.433)" height="7.0866" width="3.5433" y="-233.86" x="-187.8"/>
   <rect id="rect948" transform="matrix(5 0 0 -5 549.21 -35.433)" height="7.0866" width="7.0866" y="-255.12" x="-162.99"/>
   <rect id="rect949" transform="matrix(5 0 0 -5 549.21 -35.433)" height="7.0866" width="7.0866" y="-248.03" x="-159.45"/>
   <rect id="rect950" transform="matrix(5 0 0 -5 549.21 -35.433)" height="7.0866" width="7.0866" y="-255.12" x="-145.28"/>
   <rect id="rect951" transform="matrix(5 0 0 -5 549.21 -35.433)" height="7.0866" width="7.0866" y="-248.03" x="-148.82"/>
   <rect id="rect952" transform="matrix(5 0 0 -5 549.21 -35.433)" height="7.0866" width="10.63" y="-240.94" x="-155.91"/>
   <rect id="rect953" transform="matrix(5 0 0 -5 549.21 -35.433)" height="7.0866" width="3.5433" y="-233.86" x="-152.36"/>
   <rect id="rect954" transform="matrix(5 0 0 -5 549.21 -35.433)" height="7.0866" width="3.5433" y="-240.94" x="-170.08"/>
   <rect id="rect955" transform="matrix(5 0 0 -5 549.21 -35.433)" height="7.0866" width="3.5433" y="-240.94" x="-205.51"/>
   <rect id="rect956" transform="matrix(5 0 0 -5 549.21 -35.433)" height="7.0866" width="3.5433" y="-240.94" x="-134.65"/>
   <rect id="rect957" transform="matrix(5 0 0 -5 549.21 -35.433)" height="7.0866" width="3.5433" y="-205.51" x="-187.8"/>
   <rect id="rect958" transform="matrix(5 0 0 -5 549.21 -35.433)" height="7.0866" width="10.63" y="-198.43" x="-191.34"/>
   <rect id="rect959" transform="matrix(5 0 0 -5 549.21 -35.433)" height="7.0866" width="17.717" y="-191.34" x="-194.88"/>
   <rect id="rect960" transform="matrix(5 0 0 -5 549.21 -35.433)" height="7.0866" width="3.5433" y="-205.51" x="-152.36"/>
   <rect id="rect961" transform="matrix(5 0 0 -5 549.21 -35.433)" height="7.0866" width="10.63" y="-198.43" x="-155.91"/>
   <rect id="rect962" transform="matrix(5 0 0 -5 549.21 -35.433)" height="7.0866" width="17.717" y="-191.34" x="-159.45"/>
   <rect id="rect963" transform="matrix(5 0 0 -5 549.21 -35.433)" height="7.0866" width="17.717" y="-155.91" x="-155.91"/>
   <rect id="rect964" transform="matrix(5 0 0 -5 549.21 -35.433)" height="7.0866" width="24.803" y="-184.25" x="-162.99"/>
   <rect id="rect965" transform="matrix(5 0 0 -5 549.21 -35.433)" height="7.0866" width="24.803" y="-184.25" x="-198.43"/>
   <rect id="rect966" transform="matrix(5 0 0 -5 549.21 -35.433)" height="7.0905" width="10.63" y="-148.82" x="-194.88"/>
   <rect id="rect967" transform="matrix(5 0 0 -5 549.21 -35.433)" height="7.0866" width="17.717" y="-155.91" x="-198.43"/>
   <rect id="rect968" transform="matrix(5 0 0 -5 549.21 -35.433)" height="7.0866" width="17.717" y="-170.08" x="-148.82"/>
   <rect id="rect969" transform="matrix(5 0 0 -5 549.21 -35.433)" height="7.0866" width="10.63" y="-148.82" x="-152.36"/>
   <rect id="rect970" transform="matrix(5 0 0 -5 549.21 -35.433)" height="7.0866" width="17.717" y="-170.08" x="-205.51"/>
   <rect id="rect971" transform="matrix(5 0 0 -5 549.21 -35.433)" height="7.0866" width="10.63" y="-155.91" x="-173.62"/>
   <rect id="rect972" transform="matrix(5 0 0 -5 549.21 -35.433)" height="7.0866" width="3.5433" y="-148.82" x="-170.08"/>
   <rect id="rect973" transform="matrix(5 0 0 -5 549.21 -35.433)" height="7.0866" width="24.803" y="-170.08" x="-180.71"/>
   <rect id="rect974" transform="matrix(5 0 0 -5 549.21 -35.433)" height="7.0866" width="7.0866" y="-276.38" x="-166.54"/>
   <rect id="rect975" transform="matrix(5 0 0 -5 549.21 -35.433)" height="7.0866" width="10.63" y="-269.29" x="-173.62"/>
   <rect id="rect976" transform="matrix(5 0 0 -5 549.21 -35.433)" height="7.0866" width="7.0866" y="-262.2" x="-177.17"/>
   <rect id="rect977" transform="matrix(5 0 0 -5 549.21 -35.433)" height="7.0866" width="7.0866" y="-262.2" x="-166.54"/>
   <rect id="rect978" transform="matrix(5 0 0 -5 549.21 -35.433)" height="7.0866" width="7.0866" y="-269.29" x="-205.51"/>
   <rect id="rect979" transform="matrix(5 0 0 -5 549.21 -35.433)" height="7.0866" width="7.0866" y="-262.2" x="-201.97"/>
   <rect id="rect980" transform="matrix(5 0 0 -5 549.21 -35.433)" height="7.0866" width="7.0866" y="-269.29" x="-138.19"/>
   <rect id="rect981" transform="matrix(5 0 0 -5 549.21 -35.433)" height="7.0866" width="7.0866" y="-262.2" x="-141.73"/>
   <rect id="rect982" transform="matrix(5 0 0 -5 549.21 -35.433)" height="7.0866" width="3.5433" y="-198.43" x="-205.51"/>
   <rect id="rect983" transform="matrix(5 0 0 -5 549.21 -35.433)" height="7.0866" width="3.5433" y="-198.43" x="-134.65"/>
   <rect id="rect984" transform="matrix(5 0 0 -5 549.21 -35.433)" height="7.0866" width="7.0866" y="-134.65" x="-177.17"/>
   <rect id="rect985" transform="matrix(5 0 0 -5 549.21 -35.433)" height="7.0866" width="7.0866" y="-134.65" x="-166.54"/>
   <rect id="rect986" transform="matrix(5 0 0 -5 549.21 -35.433)" height="7.0866" width="7.0866" y="-127.56" x="-180.71"/>
   <rect id="rect987" transform="matrix(5 0 0 -5 549.21 -35.433)" height="7.0866" width="7.0866" y="-127.56" x="-162.99"/>
   <rect id="rect988" transform="matrix(5 0 0 -5 549.21 -35.433)" height="7.0866" width="7.0866" y="-120.47" x="-184.25"/>
   <rect id="rect989" transform="matrix(5 0 0 -5 549.21 -35.433)" height="7.0866" width="7.0866" y="-120.47" x="-159.45"/>
   <rect id="rect990" transform="matrix(5 0 0 -5 549.21 -35.433)" height="7.0866" width="7.0866" y="-113.39" x="-187.8"/>
   <rect id="rect991" transform="matrix(5 0 0 -5 549.21 -35.433)" height="7.0866" width="7.0866" y="-113.39" x="-155.91"/>
   <rect id="rect992" transform="matrix(5 0 0 -5 549.21 -35.433)" height="7.0866" width="10.63" y="-106.3" x="-194.88"/>
   <rect id="rect993" transform="matrix(5 0 0 -5 549.21 -35.433)" height="7.0866" width="10.63" y="-106.3" x="-152.36"/>
   <rect id="rect994" transform="matrix(5 0 0 -5 549.21 -35.433)" height="7.0866" width="7.0866" y="-113.39" x="-145.28"/>
   <rect id="rect995" transform="matrix(5 0 0 -5 549.21 -35.433)" height="7.0866" width="7.0866" y="-120.47" x="-141.73"/>
   <rect id="rect996" transform="matrix(5 0 0 -5 549.21 -35.433)" height="7.0866" width="7.0866" y="-127.56" x="-138.19"/>
   <rect id="rect997" transform="matrix(5 0 0 -5 549.21 -35.433)" height="7.0866" width="7.0866" y="-113.39" x="-198.43"/>
   <rect id="rect998" transform="matrix(5 0 0 -5 549.21 -35.433)" height="7.0866" width="7.0866" y="-120.47" x="-201.97"/>
   <rect id="rect999" transform="matrix(5 0 0 -5 549.21 -35.433)" height="7.0866" width="7.0866" y="-127.56" x="-205.51"/>
   <rect id="rect1000" transform="matrix(5 0 0 -5 549.21 -35.433)" height="7.0866" width="3.5433" y="-99.213" x="-191.34"/>
   <rect id="rect1002" transform="matrix(5 0 0 -5 549.21 -35.433)" height="7.0866" width="3.5433" y="-120.47" x="-170.08"/>
   <rect id="rect1011" transform="matrix(5 0 0 -5 549.21 -35.433)" height="7.0866" width="3.5433" y="-198.43" x="-170.08"/>
   <rect id="rect1012" transform="matrix(5 0 0 -5 549.21 -35.433)" height="7.0866" width="3.5433" y="-269.29" x="-187.8"/>
   <rect id="rect1013" transform="matrix(5 0 0 -5 549.21 -35.433)" height="7.0866" width="3.5433" y="-269.29" x="-152.36"/>
   <rect id="rect1014" transform="matrix(5 0 0 -5 549.21 -35.433)" height="7.0866" width="10.63" y="-219.69" x="-173.62"/>
   <rect id="rect1015" transform="matrix(5 0 0 -5 549.21 -35.433)" height="7.0866" width="10.63" y="-212.6" x="-180.71"/>
   <rect id="rect1016" transform="matrix(5 0 0 -5 549.21 -35.433)" height="7.0866" width="3.5433" y="-205.51" x="-177.17"/>
   <rect id="rect1017" transform="matrix(5 0 0 -5 549.21 -35.433)" height="7.0866" width="7.0866" y="-219.69" x="-184.25"/>
   <rect id="rect1018" transform="matrix(5 0 0 -5 549.21 -35.433)" height="7.0866" width="10.63" y="-226.77" x="-180.71"/>
   <rect id="rect1019" transform="matrix(5 0 0 -5 549.21 -35.433)" height="7.0866" width="3.5433" y="-233.86" x="-177.17"/>
   <rect id="rect1020" transform="matrix(5 0 0 -5 549.21 -35.433)" height="7.0866" width="10.63" y="-226.77" x="-166.54"/>
   <rect id="rect1021" transform="matrix(5 0 0 -5 549.21 -35.433)" height="7.0866" width="3.5433" y="-233.86" x="-162.99"/>
   <rect id="rect1022" transform="matrix(5 0 0 -5 549.21 -35.433)" height="7.0866" width="7.0866" y="-219.69" x="-159.45"/>
   <rect id="rect1023" transform="matrix(5 0 0 -5 549.21 -35.433)" height="7.0866" width="10.63" y="-212.6" x="-166.54"/>
   <rect id="rect1024" transform="matrix(5 0 0 -5 549.21 -35.433)" height="7.0866" width="3.5433" y="-205.51" x="-162.99"/>
   <rect id="rect1025" transform="matrix(5 0 0 -5 549.21 -35.433)" height="7.0866" width="7.0866" y="-219.69" x="-148.82"/>
   <rect id="rect1026" transform="matrix(5 0 0 -5 549.21 -35.433)" height="7.0866" width="10.63" y="-226.77" x="-145.28"/>
   <rect id="rect1027" transform="matrix(5 0 0 -5 549.21 -35.433)" height="7.0866" width="7.0866" y="-219.69" x="-138.19"/>
   <rect id="rect1028" transform="matrix(5 0 0 -5 549.21 -35.433)" height="7.0866" width="10.63" y="-212.6" x="-145.28"/>
   <rect id="rect1029" transform="matrix(5 0 0 -5 549.21 -35.433)" height="7.0866" width="3.5433" y="-205.51" x="-141.73"/>
   <rect id="rect1030" transform="matrix(5 0 0 -5 549.21 -35.433)" height="7.0866" width="3.5433" y="-233.86" x="-141.73"/>
   <rect id="rect1031" transform="matrix(5 0 0 -5 549.21 -35.433)" height="7.0866" width="7.0866" y="-219.69" x="-205.51"/>
   <rect id="rect1032" transform="matrix(5 0 0 -5 549.21 -35.433)" height="7.0866" width="10.63" y="-226.77" x="-201.97"/>
   <rect id="rect1033" transform="matrix(5 0 0 -5 549.21 -35.433)" height="7.0866" width="7.0866" y="-219.69" x="-194.88"/>
   <rect id="rect1034" transform="matrix(5 0 0 -5 549.21 -35.433)" height="7.0866" width="10.63" y="-212.6" x="-201.97"/>
   <rect id="rect1035" transform="matrix(5 0 0 -5 549.21 -35.433)" height="7.0866" width="3.5433" y="-205.51" x="-198.43"/>
   <rect id="rect1036" transform="matrix(5 0 0 -5 549.21 -35.433)" height="7.0866" width="3.5433" y="-233.86" x="-198.43"/>
   <rect id="rect1037" transform="matrix(5 0 0 -5 549.21 -35.433)" height="7.0866" width="14.173" y="-177.17" x="-201.97"/>
   <rect id="rect1038" transform="matrix(5 0 0 -5 549.21 -35.433)" height="7.0866" width="14.173" y="-177.17" x="-184.25"/>
   <rect id="rect1039" transform="matrix(5 0 0 -5 549.21 -35.433)" height="7.0866" width="14.173" y="-177.17" x="-166.54"/>
   <rect id="rect1040" transform="matrix(5 0 0 -5 549.21 -35.433)" height="7.0866" width="14.173" y="-177.17" x="-148.82"/>
   <rect id="rect1041" transform="matrix(5 0 0 -5 549.21 -35.433)" height="7.0866" width="17.717" y="-162.99" x="-177.17"/>
   <rect id="rect1042" transform="matrix(5 0 0 -5 549.21 -35.433)" height="7.0866" width="17.717" y="-162.99" x="-201.97"/>
   <rect id="rect1043" transform="matrix(5 0 0 -5 549.21 -35.433)" height="7.0866" width="17.717" y="-162.99" x="-152.36"/>
   <rect id="rect1044" transform="matrix(5 0 0 -5 549.21 -35.433)" height="7.0866" width="3.5433" y="-134.65" x="-134.65"/>
   <rect id="rect1045" transform="matrix(5 0 0 -5 549.21 -35.433)" height="7.0866" width="3.5433" y="-134.65" x="-205.51"/>
   <rect id="rect1046" transform="matrix(5 0 0 5 549.21 -35.433)" height="7.0866" width="3.5433" y="99.213" x="-173.62"/>
   <rect id="rect1047" transform="matrix(5 0 0 5 549.21 -35.433)" height="7.0866" width="3.5433" y="99.213" x="-166.54"/>
   <rect id="rect1048" transform="matrix(5 0 0 5 549.21 -35.433)" height="7.0866" width="3.5433" y="85.039" x="-166.54"/>
   <rect id="rect1049" transform="matrix(5 0 0 5 549.21 -35.433)" height="7.0866" width="3.5433" y="85.039" x="-173.62"/>
   <rect id="rect1050" transform="matrix(5 0 0 5 549.21 -35.433)" height="7.0866" width="7.0866" y="276.38" x="-198.43"/>
   <rect id="rect1521" transform="matrix(5 0 0 -5 549.21 -35.433)" height="7.0866" width="3.5433" y="-141.73" x="-148.82"/>
   <rect id="rect1522" transform="matrix(5 0 0 -5 549.21 -35.433)" height="7.0866" width="3.5433" y="-141.73" x="-191.34"/>
   <rect id="rect1527" height="35.433" width="53.149" y="637.8" x="-318.9"/>
  </g>
 </g>
</svg>
