<?xml version="1.0" encoding="UTF-8" standalone="no"?>
<!-- Created with Sodipodi ("http://www.sodipodi.com/") -->
<svg id="svg548" xmlns:rdf="http://www.w3.org/1999/02/22-rdf-syntax-ns#" xmlns="http://www.w3.org/2000/svg" height="480" width="640" version="1.1" xmlns:cc="http://creativecommons.org/ns#" xmlns:dc="http://purl.org/dc/elements/1.1/">
 <metadata id="metadata3482">
  <rdf:RDF>
   <cc:Work rdf:about="">
    <dc:format>image/svg+xml</dc:format>
    <dc:type rdf:resource="http://purl.org/dc/dcmitype/StillImage"/>
   </cc:Work>
  </rdf:RDF>
 </metadata>
 <defs id="defs550">
  <clipPath id="clipPath4971" clipPathUnits="userSpaceOnUse">
   <rect id="rect4973" fill-opacity="0.67" height="480" width="640" y="0" x="0"/>
  </clipPath>
 </defs>
 <g id="flag" clip-path="url(#clipPath4971)">
  <rect id="rect1544" fill-rule="evenodd" height="480" width="720" y="0" x="-40" fill="#c60000"/>
  <rect id="rect1545" fill-rule="evenodd" height="342.86" width="720" y="68.571" x="-40" fill="#003bb2"/>
  <g id="g2027" transform="matrix(.36443 0 0 .36443 185.28 33.681)">
   <path id="path1543" d="m762.63 606.1c0 207.84-168.49 376.32-376.32 376.32-207.84 0-376.32-168.49-376.32-376.32 0-207.84 168.49-376.32 376.32-376.32 207.84 0 376.32 168.49 376.32 376.32z" fill-rule="evenodd" transform="translate(-16.651 -39.963)" fill="#fff"/>
   <g id="g1304" transform="matrix(1.27 0 0 1.2716 -11.328 -118.57)">
    <g id="g1154" stroke="#000" fill-rule="evenodd" transform="matrix(.43028 0 0 .36761 383.92 337.08)">
     <path id="path1130" d="m0 318.04c6.9274 1.019 14.391 1.206 23.312 0 7.4051 1.994 12.863 5.647 18.317 8.326 3.0572 5.665 7.3388 13.999 11.656 18.316 1.8742 6.872 4.6414 9.755 8.3257 16.652 0.9183 6.795 3.1821 13.617 0 19.981-3.7954 4.745-9.7579 7.515-14.986 9.991-6.9019 3.688-10.937 5.046-19.982 6.661-7.4433 1.329-15.029 1.665-23.312 1.665-8.0132-1.431-14.192-2.757-21.647-3.33-7.4138-1.324-15.898-2.007-23.312-3.331-4.8132-2.815-11.026-5.126-16.651-6.66-3.9064-3.725-9.5601-7.953-14.986-11.656-4.1895-7.502-8.0037-10.206-11.656-16.652-3.3162-4.876-4.8905-11.169-4.9954-19.981 2.6252-5.344 6.9607-10.53 9.9909-14.986 5.1971-3.433 11.072-7.989 18.316-11.656 9.7838-0.346 13.604-3.214 23.312-3.331h24.977c5.6522 0.566 8.4422 5.584 13.321 9.991z" transform="translate(-68.271 -29.972)" stroke-width="3.75" fill="#030"/>
     <path id="path1120" d="m273.08 659.39c-6.66-38.298-16.652-133.21-16.652-174.84 1.665-31.639 121.56-139.87 124.89-151.53 3.33-11.656 64.94-99.909 74.931-126.55-24.977 18.316-66.606 98.243-74.931 106.57-8.326 8.326 18.316-83.257 9.991-111.56-8.326 33.303-21.647 118.22-31.638 126.55-4.995 4.996-91.583 104.9-101.57 101.57-9.991-3.33-36.633-19.981-31.637-29.972 4.995-9.991 71.601-71.601 74.931-93.248s8.326-73.266 14.986-78.261c6.661-4.996 16.652-29.973 24.977-49.955-21.646 9.991-24.977 39.964-33.302 41.629-8.326 1.665-28.308-33.303-28.308-33.303s13.321 38.298 14.986 46.624c1.666 8.326-6.66 63.275-11.656 69.936-4.995 6.661-41.628 53.284-48.289 54.949-6.66 1.666-24.977-76.596-24.977-91.582s13.321-73.266 0-76.597c-8.326 0-9.991 68.271-14.986 68.271-4.996 0-16.652-68.27-16.652-68.27s-6.659 31.637-3.33 53.283c-9.991 1.666-36.633-39.962-36.633-39.962s49.954 86.587 59.946 89.917c9.99 4.995 19.981 68.271 18.316 71.601s-49.954-16.651-59.945-23.312c-9.991-6.66-29.973-79.927-29.973-79.927s9.991 71.601-1.665 61.611c-11.656-9.991-29.972-18.317-39.963-33.303-9.9908-14.986-4.9954-76.597-4.9954-76.597s-16.651 54.95-23.312 54.95c-6.6606 0-28.307-73.266-28.307-73.266s3.3303 79.927 13.321 84.922c9.9909 4.995 159.85 104.9 161.52 114.9 1.665 9.99 19.982 48.288 29.973 59.944-1.666 21.647 6.66 161.52 9.991 194.82l29.972 9.991z" transform="translate(-401.3 -119.89)" stroke-width="1pt" fill="#520900"/>
     <path id="path1122" d="m-338.02 133.21c1.849 6.416 2.528 12.146 11.656 14.986 5.054 1.925 15.007 4.529 19.982 6.661 5.242 2.483 11.14 5.593 18.316 6.66 5.394 1.798 14.58 3.65 21.647 4.996 7.443 1.329 15.029 1.665 23.312 1.665 9.557-1.707 13.811-3.429 19.981-8.326 1.851-6.786 4.343-9.832 4.996-18.317 0.567-7.944 1.665-14.819 1.665-23.311-1.541-4.623-1.789-15.359-3.33-19.982-5.577-5.4655-7.051-8.6485-16.652-11.656-7.476-3.3823-14.307-3.3303-23.312-3.3303-6.961 2.3206-15.344 1.6651-23.312 1.6651h-23.311c-6.973 1.5158-12.292 2.7619-18.317 6.6606-8.133 3.6729-9.338 6.3167-13.321 14.987-2.934 8.8-3.036 15.415 0 26.642z" transform="translate(-78.262 -63.275)" stroke-width="3.75" fill="#030"/>
     <path id="path1123" d="m-329.7 191.49c0-2.781-6.02 2.689-8.326 4.995-5.392 3.774-7.647 8.815-8.326 18.317-2.502 5.189 0 13.714 0 21.646 0 9.181 0.062 15.585 4.996 19.982 5.598 3.445 8.289 4.995 18.316 4.995h23.312 23.312c5.896-1.965 13.091-2.953 19.982-4.995 7.705-4.085 13.071-4.517 21.646-6.661 4.883-4.237 11.635-8.599 19.982-9.99 9.547-0.455 15.257-3.788 21.647-8.326 8.216-2.054 15.635-6.365 21.647-9.991 4.837-3.289 8.309-7.415 11.656-13.321 3.396-7.925 4.482-12.895-1.665-21.647-12.143-4.415-6.108-9.191-14.987-13.321-4.062-2.453-13.524-5.673-18.316-8.326-8.293 0.615-14.192 2.679-23.312 3.331-4.71 2.355-14.368 1.665-21.647 1.665h-26.642c-7.968 0-16.35-0.656-23.312 1.665-6.667 1.818-9.985 4.842-16.651 6.66-4.393 2.987-11.507 5.411-16.652 8.326l16.652-8.326c-4.393 2.987-11.507 5.411-23.312 13.322z" transform="translate(-83.257 -53.284)" stroke-width="3.75" fill="#030"/>
     <path id="path1124" d="m-186.5 49.949c3.314 0-5.2 3.9805-8.326 6.6605-4.011 7.0631-4.474 13.423-6.661 19.982-2.565 5.7712-5.726 13.066-6.66 19.982-3.139 7.4932-4.878 10.225-4.996 19.981 0 7.678-0.09 16.38 1.665 21.647 5.049 6.362 9.899 9.976 18.317 14.986 7.207 2.495 12.49 3.984 19.982 4.996h23.312c5.267 1.756 13.969 1.665 21.646 1.665 8.493-3.172 11.709-7.208 19.982-8.326 9.1147-0.828 10.687-4.642 14.986-11.656 3.9977-5.168 5.6736-11.013 6.6605-18.316 0-8.399-0.7504-15.628-1.6651-23.312-4.0064-4.4949-7.0527-10.696-9.9909-18.316-5.1458-8.8207-5.1518-12.739-13.321-16.651-3.976-5.4306-10.848-8.0693-14.987-11.656-8.651-0.618-15.218-1.6944-21.646-4.9954-7.678 0-16.38-0.0907-21.647 1.6651-6.032 0-10.447 0.5703-16.651 1.6652z" transform="matrix(1 0 0 .85294 -74.931 -33.108)" stroke-width="3.75" fill="#030"/>
     <path id="path1125" d="m-58.28 64.935c-0.9872 0-4.0769 4.8235-6.6606 9.9909-4.3438 6.9146-4.9247 13.315-8.3257 18.316-1.3291 7.4435-1.6651 15.028-1.6651 23.312 0.7557 8.314 3.1967 11.323 8.3257 14.987 7.7132 4.38 11.367 6.411 19.982 8.325 7.4468 0.573 12.8 1.665 21.647 1.665 7.9675 0 16.35 0.656 23.312-1.665 8.2831 0 15.869-0.336 23.312-1.665 3.8223-3.24 12.04-6.141 16.651-8.325 5.4818-6.642 8.1059-13.245 11.656-18.317 0-9.822 0.0779-15.564-4.9955-23.312-3.621-6.388-7.961-9.321-13.322-14.986-6.718-2.337-12.379-7.196-19.982-8.326h-28.307-24.977-16.651z" transform="translate(-81.592 -66.606)" stroke-width="3.75" fill="#030"/>
     <path id="path1126" d="m76.596 76.591c-6.2856 2.619-8.5891 3.2993-11.656 9.9908-4.6203 7.1154-7.3419 10.462-11.656 14.986-0.9905 6.664-3.6429 13.879-6.6605 18.317-0.9148 7.684-1.6652 14.913-1.6652 23.312 4.2216 6.486 10.085 12.603 16.651 16.651 6.7906 2.351 13.95 5.932 19.982 8.326 7.7653 2.033 14.951 4.398 23.312 4.995 7.217 1.805 15.164 1.665 23.312 1.665 7.404-1.609 13.749-3.478 19.981-8.325 3.333-5.196 7.156-11.045 8.326-19.982 2.754-8.263 0.539-19.061-3.33-26.642-2.039-7.477-5.016-10.373-13.321-14.987-4.595-4.854-10.702-10.322-14.987-13.321-5.281-4.5837-12.142-5.1527-19.981-8.3257-8.4921-1.887-11.337-4.3304-19.982-4.9954l19.982 4.9954c-8.488-1.886-11.333-4.33-28.304-6.66z" transform="translate(-91.583 -28.307)" stroke-width="3.75" fill="#030"/>
     <path id="path1127" d="m-51.619 146.53c-7.6182 3.463-11.162 7.635-16.651 13.321 0 8.846 1.0923 14.2 1.6652 21.647 3.4661 4.734 7.1436 14.249 9.9908 18.316 2.1718 6.812 6.9209 12.137 9.9908 16.652 7.6902 3.112 15.495 5.441 23.312 8.325 9.1985 0 15.098 2.06 23.312 3.331 6.9618 2.32 15.344 1.665 23.312 1.665 8.1476 0 16.094-0.139 23.312 1.665 7.7032 1.369 13.396 4.361 21.647 4.995 4.7388-0.451 13.136-1.138 19.982-1.665 7.667-3.485 10.982-5.707 14.987-11.656 3.752-4.542 3.33-11.267 3.33-19.981 1.602-8.972 2.092-15.007-1.665-23.312-0.108-8.961-1.817-13.172-3.331-21.647-3.0045-6.01-5.6456-8.651-11.656-11.656-5.4634-3.808-12.863-5.998-18.316-9.991-7.4329-0.885-15.759-2.05-21.647-3.33-6.5107-4.341-11.933-6.545-21.647-6.661-9.5135-1.132-13.996-2.263-21.647 1.665-7.9885 0.571-15.149 2.169-19.982 4.996-6.1438 0.472-15.283 0.981-19.982 3.33-7.4133 0-9.9871 1.288-16.651 1.665l16.651-1.665c-7.4133 0-9.9871 1.288-18.316 9.991z" transform="matrix(1.2648 0 0 .77492 -105.14 1.5998)" stroke-width="3.75" fill="#030"/>
     <path id="path1128" d="m-123.22 278.07c-4.299-0.632-17.278-1.665-26.642-1.665-8.747 0-15.86 0.58-23.312 3.33-7.975 1.537-13.883 4.047-19.982 6.661-5.053 2.393-10.953 4.83-14.986 8.325-4.955 3.369-9.13 6.335-13.321 13.321-4.476 6.422-4.944 10.559-8.326 18.317v23.312c0.587 7.633 1.64 14.23 4.995 21.647 5.022 4.017 11.977 5.282 18.317 6.66 6.029 1.311 13.875 2.775 21.647 3.33 9.239 0 14.16 0.466 21.646 3.331 9.747-0.361 11.606-2.628 19.982-6.661 9.314-3.692 14.861-5.061 23.312-9.991 5.173-4.079 8.578-10.984 11.656-18.316 4.689-7.575 7.91-14.886 11.656-21.647 1.8044-7.218 1.6651-15.164 1.6651-23.312-2.2207-6.258-5.7521-8.905-9.9911-14.986-4.616-5.049-6.672-8.946-9.991-13.321l9.991 13.321c-4.616-5.049-6.672-8.946-18.316-11.656z" transform="translate(-73.266 -46.624)" stroke-width="3.75" fill="#030"/>
     <path id="path1129" d="m0 318.04c6.9274 1.019 14.391 1.206 23.312 0 7.4051 1.994 12.863 5.647 18.317 8.326 3.0572 5.665 7.3388 13.999 11.656 18.316 1.8742 6.872 4.6414 9.755 8.3257 16.652 0.9183 6.795 3.1821 13.617 0 19.981-3.7954 4.745-9.7579 7.515-14.986 9.991-6.9019 3.688-10.937 5.046-19.982 6.661-7.4433 1.329-15.029 1.665-23.312 1.665-8.0132-1.431-14.192-2.757-21.647-3.33-7.4138-1.324-15.898-2.007-23.312-3.331-4.8132-2.815-11.026-5.126-16.651-6.66-3.9064-3.725-9.5601-7.953-14.986-11.656-4.1895-7.502-8.0037-10.206-11.656-16.652-3.3162-4.876-4.8905-11.169-4.9954-19.981 2.6252-5.344 6.9607-10.53 9.9909-14.986 5.1971-3.433 11.072-7.989 18.316-11.656 9.7838-0.346 13.604-3.214 23.312-3.331h24.977c5.6522 0.566 8.4422 5.584 13.321 9.991z" transform="matrix(1.2827 0 0 .83636 -41.19 -59.492)" stroke-width="3.75" fill="#030"/>
    </g>
    <g id="g819" fill-rule="evenodd" transform="matrix(.78220 0 0 .78095 70.217 148.13)" stroke="#000" stroke-width="3.7107" fill="#006a00">
     <path id="path713" d="m200.16 613.18 4.71-7.064-12.952-2.355 9.42-9.419-12.952-4.71 12.952-9.419-12.952-7.065 14.129-5.887-7.064-11.774 14.129 2.355-5.887-14.13 16.484 7.065v-18.839l11.774 12.952 9.419-16.484 7.065 15.306 14.129-16.484 4.71 12.952 21.193-10.597-5.887 16.484 22.371-9.419-4.71 18.839 21.194-9.42-8.242 17.662 21.194 1.177-17.662 10.597 17.662 7.064-16.484 9.42 14.129 11.774c-45.135 20.801-79.673 27.473-131.87 9.419z" transform="matrix(.45499 -.034113 .022755 .41945 222.62 373.34)"/>
     <path id="path712" d="m200.16 613.18 4.71-7.064-12.952-2.355 9.42-9.419-12.952-4.71 12.952-9.419-12.952-7.065 14.129-5.887-7.064-11.774 14.129 2.355-5.887-14.13 16.484 7.065v-18.839l11.774 12.952 9.419-16.484 7.065 15.306 14.129-16.484 4.71 12.952 21.193-10.597-5.887 16.484 22.371-9.419-4.71 18.839 21.194-9.42-8.242 17.662 21.194 1.177-17.662 10.597 17.662 7.064-16.484 9.42 14.129 11.774c-45.135 20.801-79.673 27.473-131.87 9.419z" transform="matrix(.45499 -.034113 .022755 .41945 114.79 370.21)"/>
     <path id="path708" d="m200.16 613.18 4.71-7.064-12.952-2.355 9.42-9.419-12.952-4.71 12.952-9.419-12.952-7.065 14.129-5.887-7.064-11.774 14.129 2.355-5.887-14.13 16.484 7.065v-18.839l11.774 12.952 9.419-16.484 7.065 15.306 14.129-16.484 4.71 12.952 21.193-10.597-5.887 16.484 22.371-9.419-4.71 18.839 21.194-9.42-8.242 17.662 21.194 1.177-17.662 10.597 17.662 7.064-16.484 9.42 14.129 11.774c-45.135 20.801-79.673 27.473-131.87 9.419z" transform="matrix(.45499 -.034113 .022755 .41945 282.53 371.77)"/>
     <path id="path709" d="m200.16 613.18 4.71-7.064-12.952-2.355 9.42-9.419-12.952-4.71 12.952-9.419-12.952-7.065 14.129-5.887-7.064-11.774 14.129 2.355-5.887-14.13 16.484 7.065v-18.839l11.774 12.952 9.419-16.484 7.065 15.306 14.129-16.484 4.71 12.952 21.193-10.597-5.887 16.484 22.371-9.419-4.71 18.839 21.194-9.42-8.242 17.662 21.194 1.177-17.662 10.597 17.662 7.064-16.484 9.42 14.129 11.774c-45.135 20.801-79.673 27.473-131.87 9.419z" transform="matrix(.44256 -.12882 .085932 .40798 208.07 423.59)"/>
     <path id="path710" d="m200.16 613.18 4.71-7.064-12.952-2.355 9.42-9.419-12.952-4.71 12.952-9.419-12.952-7.065 14.129-5.887-7.064-11.774 14.129 2.355-5.887-14.13 16.484 7.065v-18.839l11.774 12.952 9.419-16.484 7.065 15.306 14.129-16.484 4.71 12.952 21.193-10.597-5.887 16.484 22.371-9.419-4.71 18.839 21.194-9.42-8.242 17.662 21.194 1.177-17.662 10.597 17.662 7.064-16.484 9.42 14.129 11.774c-45.135 20.801-79.673 27.473-131.87 9.419z" transform="matrix(.45499 -.034113 .022755 .41945 322.47 396.81)"/>
     <path id="path711" d="m200.16 613.18 4.71-7.064-12.952-2.355 9.42-9.419-12.952-4.71 12.952-9.419-12.952-7.065 14.129-5.887-7.064-11.774 14.129 2.355-5.887-14.13 16.484 7.065v-18.839l11.774 12.952 9.419-16.484 7.065 15.306 14.129-16.484 4.71 12.952 21.193-10.597-5.887 16.484 22.371-9.419-4.71 18.839 21.194-9.42-8.242 17.662 21.194 1.177-17.662 10.597 17.662 7.064-16.484 9.42 14.129 11.774c-45.135 20.801-79.673 27.473-131.87 9.419z" transform="matrix(.45499 -.034113 .022755 .41945 277.21 401.51)"/>
     <path id="path705" d="m200.16 613.18 4.71-7.064-12.952-2.355 9.42-9.419-12.952-4.71 12.952-9.419-12.952-7.065 14.129-5.887-7.064-11.774 14.129 2.355-5.887-14.13 16.484 7.065v-18.839l11.774 12.952 9.419-16.484 7.065 15.306 14.129-16.484 4.71 12.952 21.193-10.597-5.887 16.484 22.371-9.419-4.71 18.839 21.194-9.42-8.242 17.662 21.194 1.177-17.662 10.597 17.662 7.064-16.484 9.42 14.129 11.774c-45.135 20.801-79.673 27.473-131.87 9.419z" transform="matrix(.45499 -.034113 .022755 .41945 69.527 370.21)"/>
     <path id="path703" d="m200.16 613.18 4.71-7.064-12.952-2.355 9.42-9.419-12.952-4.71 12.952-9.419-12.952-7.065 14.129-5.887-7.064-11.774 14.129 2.355-5.887-14.13 16.484 7.065v-18.839l11.774 12.952 9.419-16.484 7.065 15.306 14.129-16.484 4.71 12.952 21.193-10.597-5.887 16.484 22.371-9.419-4.71 18.839 21.194-9.42-8.242 17.662 21.194 1.177-17.662 10.597 17.662 7.064-16.484 9.42 14.129 11.774c-45.135 20.801-79.673 27.473-131.87 9.419z" transform="matrix(.44256 -.12882 .085932 .40798 -4.9406 422.03)"/>
     <path id="path706" d="m200.16 613.18 4.71-7.064-12.952-2.355 9.42-9.419-12.952-4.71 12.952-9.419-12.952-7.065 14.129-5.887-7.064-11.774 14.129 2.355-5.887-14.13 16.484 7.065v-18.839l11.774 12.952 9.419-16.484 7.065 15.306 14.129-16.484 4.71 12.952 21.193-10.597-5.887 16.484 22.371-9.419-4.71 18.839 21.194-9.42-8.242 17.662 21.194 1.177-17.662 10.597 17.662 7.064-16.484 9.42 14.129 11.774c-45.135 20.801-79.673 27.473-131.87 9.419z" transform="matrix(.45499 -.034113 .022755 .41945 109.47 395.25)"/>
     <path id="path704" d="m200.16 613.18 4.71-7.064-12.952-2.355 9.42-9.419-12.952-4.71 12.952-9.419-12.952-7.065 14.129-5.887-7.064-11.774 14.129 2.355-5.887-14.13 16.484 7.065v-18.839l11.774 12.952 9.419-16.484 7.065 15.306 14.129-16.484 4.71 12.952 21.193-10.597-5.887 16.484 22.371-9.419-4.71 18.839 21.194-9.42-8.242 17.662 21.194 1.177-17.662 10.597 17.662 7.064-16.484 9.42 14.129 11.774c-45.135 20.801-79.673 27.473-131.87 9.419z" transform="matrix(.45499 -.034113 .022755 .41945 64.202 399.94)"/>
     <path id="path707" d="m200.16 613.18 4.71-7.064-12.952-2.355 9.42-9.419-12.952-4.71 12.952-9.419-12.952-7.065 14.129-5.887-7.064-11.774 14.129 2.355-5.887-14.13 16.484 7.065v-18.839l11.774 12.952 9.419-16.484 7.065 15.306 14.129-16.484 4.71 12.952 21.193-10.597-5.887 16.484 22.371-9.419-4.71 18.839 21.194-9.42-8.242 17.662 21.194 1.177-17.662 10.597 17.662 7.064-16.484 9.42 14.129 11.774c-45.135 20.801-79.673 27.473-131.87 9.419z" transform="matrix(-.92438 -.038654 .052415 -.41921 514.23 887.2)"/>
    </g>
    <path id="path1119" d="m356.34 196.48c0 22.512-18.995 6.66-38.298 6.66-19.302 0-36.632 17.517-39.962 0.001 0-9.192 25.655-23.313 44.957-23.313 14.308 1.666 36.634-4.196 33.303 16.652z" fill-rule="evenodd" transform="matrix(.59009 0 0 .64904 210.46 475.84)" stroke="#000" stroke-width="2.5" fill="#510800"/>
    <path id="path1118" d="m356.34 196.48c0 22.512-18.995 6.66-38.298 6.66-19.302 0-36.632 17.517-39.962 0.001 0-9.192 25.655-23.313 44.957-23.313 14.308 1.666 36.634-4.196 33.303 16.652z" fill-rule="evenodd" transform="matrix(-.59009 0 0 .64904 407.4 472.89)" stroke="#000" stroke-width="2.5" fill="#ffc600"/>
    <path id="path1116" d="m349.68 188.16c0 13.794-7.0823 24.977-15.819 24.977-8.7365 0-15.819-11.183-15.819-24.977s7.0823-24.977 15.819-24.977c8.7365 0 15.819 11.183 15.819 24.977z" fill-rule="evenodd" transform="matrix(.72776 0 0 .70907 208.88 463.57)" stroke="#000" stroke-width="2.5" fill="#520900"/>
    <g id="g1111" fill-rule="evenodd" stroke="#000" stroke-width="1pt" transform="matrix(-1.3489 -.25318 -.80105 1.3458 740.2 222.67)">
     <path id="path1067" d="m273.75 383.58c-2.737 4.561 42.976 12.952 57.694 22.371 14.719 9.42 14.718 10.008 21.194 14.718l1.765-2.944c-3.532-3.532-38.494-26.356-62.403-34.145-6.805-2.273-10.3-13.248-12.951-8.83l-5.299 8.83z" transform="matrix(-.72328 -.54505 .52 -.75812 322.39 677.92)" fill="#af8000"/>
     <path id="path1068" d="m319.08 369.45-25.315-5.887s-5.887 2.354-6.475 11.185c-0.589 8.831 4.709 14.129 4.709 14.129l27.081-9.419v-10.008z" transform="matrix(.84438 -.29750 .28383 .88505 -89.238 -64.18)" fill="#808080"/>
     <rect id="rect1069" ry="3.5323" rx="3.5323" transform="matrix(.84438 -.29750 .28383 .88505 -19.207 -255.61)" height="19.428" width="7.0645" y="534.62" x="175.71" fill="#808080"/>
    </g>
    <path id="path1074" d="m244.77 87.419c7.322-5.9471 11.157-3.7176 17.649 3.1015 9.323 9.8147 41.318 58.855 46.313 63.018s4.241-6.417 10.344-1.387c3.032 3.727-10.437 17.026-13.737 14.569-6.411-5.02 3.915-5.374-0.354-9.643-4.925-5.133-51.215-40.497-60.282-50.571-5.92-6.5775-6.314-13.969 0.067-19.087z" fill-rule="evenodd" transform="matrix(1.5444 .34619 .71895 1.1414 -105.28 167.64)" stroke="#000" stroke-width="1.25" fill="#923d09"/>
    <g id="g1077" stroke="#000" transform="matrix(.98767 0 0 .88634 9.4458 39.108)">
     <path id="path973" d="m193.63 88.249c15.546 4.4237 43.275 46.12 53.766 45.791 16.652-0.481 83.233-77.561 72.564-88.252-7.399-8.2462-67.939 41.192-71.852 44.126-0.67-8.601-15.95-51.042-28.31-59.945-14.62-9.31-32.21-4.157-47.82-6.661-7.3-2.843-18.84-14.056-23.78-24.976 8.182-3.5438 15.323-2.4786 23.311-10.651 5.679-6.6419 2.381-46.913 0.37-51.059-13.291-14.268 5.429-7.3272-39.024-9.0822-64.268-2.446-75.878 49.582-31.653 70.792-3.462 15.928-14.219 19.594-22.939 21.646-8.777 0.106-38.826-0.763-55.546 12.489-33.403 24.552-8.925 30.904-15.352 35.8-7.1735 5.645-17.868 19.827-21.888 28.307-10.472 4.996-99.485-4.995-116.5-1.664-16.42 0.9652-56.467 15.818-73.15 26.641 3.565 14.142 241.51-7.603 249.27-2.497 5.9464 3.345-2.7047 51.237 2.0112 54.949 1.6594 9.063 116.54 5.829 125.6 5.829 7.557-18.859 15.389-81.558 20.925-91.583z" fill-rule="evenodd" transform="matrix(-.28105 0 0 .49773 211.06 432.55)" stroke-width="4.7021" fill="#ffc600"/>
     <path id="path974" d="m174.9-96.568c1.543 25.457-7.118 3.3041-38.369 3.3041-60.56-5.035-39.286 99.196-39.286 67.025-26.227-13.71-44.834-100.29 29.616-96.931 23.538 0 44.958 7.858 48.044 26.603z" fill-rule="evenodd" transform="matrix(-.33724 0 0 .34919 218.97 434.64)" stroke-width="5.1248"/>
     <path id="path975" d="m387.98 96.574c0 1.6805-0.172 7.957-0.833 11.656-0.445 3.74-1.539 8.077-2.498 10.823-0.342 4.452-2.091 5.174-2.497 9.991-1.544 2.27-2.209 5.944-2.498 9.991 0 4.27 0.686 7.558 0.833 11.656 0.481 3.56 1.612 6.366 1.665 10.823 0 4.365-0.005 7.549-1.665 9.991v5.828" transform="matrix(-.44189 0 0 .49773 366.83 417.01)" stroke-width="3.75" fill="none"/>
     <path id="path976" d="m383.81 76.592c0.58 0 1.029 20.129 5.828 24.978 1.039 3.212 4.574 7.343 5.828 9.99 1.672 2.459 3.981 5.368 8.326 6.661h11.656c4.634 0 7.473 0.055 10.823-1.665 1.485-0.8 2.531-1.846 3.33-3.331" transform="matrix(-.44189 0 0 .49773 366.83 417.01)" stroke-width="3.75" fill="none"/>
     <path id="path977" d="m442.09 115.72h0.832c-2.327 0-1.092-0.104 3.331 1.665 1.725 2.537 3.768 3.625 6.66 4.996 2.982 1.467 6.391 1.665 10.823 1.665 4.198-0.354 6.74-1.686 9.159-3.331 4.043-1.308 4.815-2.935 5.828-7.493v-11.656c-0.478-3.5309-1.384-6.3725-2.498-9.1578-0.419-1.258-0.833-0.7048-0.833-2.4977" transform="matrix(-.44189 0 0 .49773 366.83 417.01)" stroke-width="3.75" fill="none"/>
     <path id="path978" d="m510.36 121.55c-0.425 0-2.65 2.575-4.163 4.995-2.568 0.918-3.233 3.716-4.162 5.828-0.669 2.675-1.666 2.859-1.666 6.661-1.677 3.708-2.204 7.007-2.497 10.823l2.497-10.823c-1.677 3.708-2.204 7.007-2.497 10.823" transform="matrix(-.44189 0 0 .49773 366.83 417.01)" stroke-width="3.75" fill="none"/>
     <path id="path979" d="m461.24 54.946h-0.833c2.249 0 1.099-0.0534-3.33 0.8326-1.817 2.2709-4.807 4.3057-7.493 5.8279-2.977 1.8244-5.367 4.0093-8.326 4.9954l8.326-4.9954c-2.977 1.8244-5.367 4.0093-8.326 4.9954" transform="matrix(-.44189 0 0 .49773 366.83 417.01)" stroke-width="3.75" fill="none"/>
     <path id="path980" d="m402.13 51.615h0.833c-2.248 0-1.105-0.0545 3.33 0.8326 2.936 1.3906 4.752 2.8901 7.493 4.9954 1.291 1.9353 3.257 2.3054 4.163 5.8279 1.574 0.8475 2.124 1.67 2.498 4.1629" transform="matrix(-.44189 0 0 .49773 366.83 417.01)" stroke-width="3.75" fill="none"/>
     <path id="path981" d="m427.11 29.968h0.833 3.33c4.529 0 6.733 0.6811 10.824 0.8326 3.538-0.4246 4.382-1.7374 7.493-2.4977" transform="matrix(-.44189 0 0 .49773 366.83 417.01)" stroke-width="3.75" fill="none"/>
     <path id="path982" d="m442.93 133.21c0.139 0.661 1.652 4.256 2.498 5.828 1.517 2.512 3.538 4.914 4.163 8.326 0.968 2.905 1.526 6.23 1.665 9.99 0.761 3.503 1.264 6.62-0.833 9.159-0.898 3.292-2.57 5.692-4.162 9.158-1.111 0-0.833-0.278-0.833 0.833" transform="matrix(-.44189 0 0 .49773 366.83 417.01)" stroke-width="3.75" fill="none"/>
     <path id="path983" d="m416.28 134.87v0.833c0-2.248 0.055-1.105-0.832 3.33-1.147 4.013-2.15 7.388-4.163 9.991-1.098 3.294-2.326 4.504-2.498 9.158 0.662 1.544 0.833 3.263 0.833 5.828" transform="matrix(-.44189 0 0 .49773 366.83 417.01)" stroke-width="3.75" fill="none"/>
     <path id="path984" d="m412.12 169.01v0.833 3.33c0.908 1.211 0.55 1.294 1.665 1.665" transform="matrix(-.44189 0 0 .49773 366.83 417.01)" stroke-width="3.75" fill="none"/>
     <path id="path985" d="m343.02 128.21v0.832c0-2.327-0.258-0.936 4.163 0.833 3.572 0.638 7.937 1.037 10.823 1.665 2.672 1.312 5.265 3.48 7.493 4.995 1.994 1.728 4.819 3.48 7.494 4.996 3.004 1.502 4.325 2.823 5.828 5.828 0.907 1.21 0.549 1.293 1.665 1.665" transform="matrix(-.44189 0 0 .49773 366.83 417.01)" stroke-width="3.75" fill="none"/>
     <path id="path986" d="m423.78-16.655c0.123-0.1836 2.467-1.9143 4.996-2.4977 1.805-1.3541 4.812-0.7395 6.66 0" transform="matrix(-.69026 0 0 .49773 476.25 418.77)" stroke-width="3.0004" fill="none"/>
     <path id="path987" d="m445.42-19.153h0.833c-2.248 0-1.106 0.0545 3.33-0.8325 3.481-1.1604 7.672-0.8326 11.656-0.8326 1.174 0.3914 0.832 0.242 0.832 1.6651" transform="matrix(-.53687 0 0 .49773 411.25 418.77)" stroke-width="3.4021" fill="none"/>
     <path id="path988" d="m444.59-7.4971v0.8326c0-2.3269-0.103-1.0906 1.666 3.3302 0.643 2.9618 1.76 7.0496 0.832 9.1582-2.184 0-2.859-0.27397-4.163-0.83252" transform="matrix(-.53687 0 0 .49773 411.25 418.77)" stroke-width="3.4021" fill="none"/>
     <path id="path989" d="m371.33-24.981c0 3.2187-4.1003 5.828-9.1582 5.828-5.058 0-9.1582-2.6093-9.1582-5.828s4.1003-5.828 9.1582-5.828c5.058 0 9.1582 2.6093 9.1582 5.828z" fill-rule="evenodd" transform="matrix(-.52891 -.085390 -.052631 .28020 361.22 463.74)" stroke-width="4.5006"/>
     <path id="path990" d="m371.33-24.981c0 3.2187-4.1003 5.828-9.1582 5.828-5.058 0-9.1582-2.6093-9.1582-5.828s4.1003-5.828 9.1582-5.828c5.058 0 9.1582 2.6093 9.1582 5.828z" fill-rule="evenodd" transform="matrix(-.38279 -.056078 -.038091 .18402 317.16 435.6)" stroke-width="6.5281"/>
     <path id="path991" d="m371.33-24.981c0 3.2187-4.1003 5.828-9.1582 5.828-5.058 0-9.1582-2.6093-9.1582-5.828s4.1003-5.828 9.1582-5.828c5.058 0 9.1582 2.6093 9.1582 5.828z" fill-rule="evenodd" transform="matrix(-.38279 -.056078 -.038091 .18402 305.54 434.35)" stroke-width="6.5281"/>
     <path id="path992" d="m412.95 113.64c0 2.0692-1.8638 3.7466-4.1628 3.7466-2.2991 0-4.1628-1.6774-4.1628-3.7466s1.8638-3.7466 4.1628-3.7466c2.2991 0 4.1628 1.6774 4.1628 3.7466z" fill-rule="evenodd" transform="matrix(-.44189 0 0 .49773 366.83 417.01)" stroke-width="3.75"/>
     <path id="path993" d="m469.57 119.89c0 1.3794-1.3046 2.4977-2.914 2.4977-1.6093 0-2.914-1.1183-2.914-2.4977s1.3046-2.4977 2.914-2.4977c1.6093 0 2.914 1.1183 2.914 2.4977z" fill-rule="evenodd" transform="matrix(-.44189 0 0 .49773 366.83 417.01)" stroke-width="3.75"/>
     <path id="path994" d="m447.09 31.634v0.8325c0-2.7951 0.197-1.029-4.163 3.3303-3.724 1.7856-5.164 3.6672-6.66 6.6605-1.742 3.8506-2.342 6.6127-2.498 10.824v6.6605" transform="matrix(-.44189 0 0 .49773 366.83 417.01)" stroke-width="3.75" fill="none"/>
     <path id="path995" d="m419.61 30.801c0.577 0 1.477 2.2728 2.498 4.9954 1.856 2.1886 3.037 5.3507 3.33 9.1582 0 4.5188 0.78 6.4537 0.833 10.824v3.3302" transform="matrix(-.44189 0 0 .49773 366.83 417.01)" stroke-width="3.75" fill="none"/>
     <path id="path996" d="m504.54 129.04c0 0.481-2.6 1.455-4.163 3.33-3.161 0.428-5.964 0.833-9.99 0.833-0.611-0.916-1.836-1.217-3.331-1.665" transform="matrix(-.44189 0 0 .49773 366.83 417.01)" stroke-width="3.75" fill="none"/>
    </g>
    <g id="g997" fill-rule="evenodd" transform="matrix(-.45148 0 0 .28623 377.8 437.15)" stroke="#000" stroke-width="3.75" fill="#fff">
     <path id="path998" d="m276.41 36.63 88.253 1.6651v11.656s8.325 14.986 13.321 48.289c4.995 33.303 9.991 158.19 9.991 158.19l21.646 141.54s-13.321 21.647-23.312 19.982c-9.99-1.666-39.963-13.321-39.963-14.987 0-1.665-1.665-79.926-4.995-133.21-3.331-53.285-9.991-81.592-24.977-104.9-19.982 48.288-21.647 98.243-19.982 98.243s1.665 39.963 3.33 69.936c1.666 29.972-1.665 71.601-1.665 71.601l-58.28-3.331s1.665-36.633 3.331-64.94c1.665-28.307 6.744-41.625 8.326-73.266 1.748-34.963 4.202-53.319 6.66-109.9 3.238-45.739 14.687-75.258 17.9-103.24 0.871-7.1332-0.416-12.488 0.416-13.321z" transform="translate(103.24 138.21)"/>
     <path id="path999" d="m316.38 166.51s-8.326-13.321-11.656-36.633-3.33-28.307-3.33-28.307" transform="translate(103.24 138.21)"/>
     <path id="path1000" d="m298.06 233.12-9.99 39.963" transform="translate(103.24 138.21)"/>
     <path id="path1001" d="m276.41 223.12 11.657 54.949" transform="translate(163.18 139.87)"/>
     <path id="path1002" d="m387.98 417.95-11.66-81.6" transform="translate(103.24 138.21)"/>
     <path id="path1003" d="m276.41 44.955 88.253 1.6651" transform="translate(103.24 138.21)"/>
     <path id="path1004" d="m318.04 164.84c0-1.665 4.995-29.972 4.995-29.972" transform="translate(103.24 138.21)"/>
     <path id="path1005" d="m284.74 44.955-8.326 84.922" transform="translate(103.24 138.21)"/>
    </g>
    <g id="g628">
     <path id="path558" d="m549.21 538.58c0 136.98-111.05 248.03-248.03 248.03s-248.03-111.05-248.03-248.03 111.05-248.03 248.03-248.03 248.03 111.05 248.03 248.03z" stroke="#006a00" stroke-width="6.25" fill="none"/>
     <g id="g555" stroke-width="1pt" transform="matrix(.44034 0 0 0.375 424.39 323.33)">
      <path id="path552" d="m336.61 432.28c70.866 70.867-14.031 141.73-53.149 141.73-39.119 0-124.02-70.866-53.15-141.73-17.717 70.867 53.149 88.583 53.15 124.02-0.001-35.433 70.866-53.149 53.149-124.02z" fill-rule="evenodd" transform="translate(0 .00065613)" fill="#006a00"/>
      <path id="path554" d="m336.61 432.28c35.433 124.02-53.149 106.3-53.149 141.73 0-35.433-88.583-17.717-53.15-141.73" stroke="#000" fill="none"/>
     </g>
     <g id="g559" stroke-width="1pt" transform="matrix(.048683 -.43764 .3727 .041459 101.59 391.74)">
      <path id="path560" d="m336.61 432.28c70.866 70.867-14.031 141.73-53.149 141.73-39.119 0-124.02-70.866-53.15-141.73-17.717 70.867 53.149 88.583 53.15 124.02-0.001-35.433 70.866-53.149 53.149-124.02z" fill-rule="evenodd" transform="translate(0 .00065613)" fill="#006a00"/>
      <path id="path561" d="m336.61 432.28c35.433 124.02-53.149 106.3-53.149 141.73 0-35.433-88.583-17.717-53.15-141.73" stroke="#000" fill="none"/>
     </g>
     <g id="g562" stroke-width="1pt" transform="matrix(.065626 .43542 -.37081 .055888 496.64 630.62)">
      <path id="path563" d="m336.61 432.28c70.866 70.867-14.031 141.73-53.149 141.73-39.119 0-124.02-70.866-53.15-141.73-17.717 70.867 53.149 88.583 53.15 124.02-0.001-35.433 70.866-53.149 53.149-124.02z" fill-rule="evenodd" transform="translate(0 .00065613)" fill="#006a00"/>
      <path id="path564" d="m336.61 432.28c35.433 124.02-53.149 106.3-53.149 141.73 0-35.433-88.583-17.717-53.15-141.73" stroke="#000" fill="none"/>
     </g>
     <g id="g565" stroke-width="1pt" transform="matrix(-.43948 -.027465 .023390 -.37427 165.81 724.76)">
      <path id="path566" d="m336.61 432.28c70.866 70.867-14.031 141.73-53.149 141.73-39.119 0-124.02-70.866-53.15-141.73-17.717 70.867 53.149 88.583 53.15 124.02-0.001-35.433 70.866-53.149 53.149-124.02z" fill-rule="evenodd" transform="translate(0 .00065613)" fill="#006a00"/>
      <path id="path567" d="m336.61 432.28c35.433 124.02-53.149 106.3-53.149 141.73 0-35.433-88.583-17.717-53.15-141.73" stroke="#000" fill="none"/>
     </g>
     <g id="g568" stroke-width="1pt" transform="matrix(.42862 -.10090 .085927 .36502 368.06 294.31)">
      <path id="path569" d="m336.61 432.28c70.866 70.867-14.031 141.73-53.149 141.73-39.119 0-124.02-70.866-53.15-141.73-17.717 70.867 53.149 88.583 53.15 124.02-0.001-35.433 70.866-53.149 53.149-124.02z" fill-rule="evenodd" transform="translate(0 .00065613)" fill="#006a00"/>
      <path id="path570" d="m336.61 432.28c35.433 124.02-53.149 106.3-53.149 141.73 0-35.433-88.583-17.717-53.15-141.73" stroke="#000" fill="none"/>
     </g>
     <g id="g571" stroke-width="1pt" transform="matrix(-.093297 -.43034 .36648 -.079453 77.137 459.54)">
      <path id="path572" d="m336.61 432.28c70.866 70.867-14.031 141.73-53.149 141.73-39.119 0-124.02-70.866-53.15-141.73-17.717 70.867 53.149 88.583 53.15 124.02-0.001-35.433 70.866-53.149 53.149-124.02z" fill-rule="evenodd" transform="translate(0 .00065613)" fill="#006a00"/>
      <path id="path573" d="m336.61 432.28c35.433 124.02-53.149 106.3-53.149 141.73 0-35.433-88.583-17.717-53.15-141.73" stroke="#000" fill="none"/>
     </g>
     <g id="g574" stroke-width="1pt" transform="matrix(.20956 .38727 -.32981 .17846 510.01 563.07)">
      <path id="path575" d="m336.61 432.28c70.866 70.867-14.031 141.73-53.149 141.73-39.119 0-124.02-70.866-53.15-141.73-17.717 70.867 53.149 88.583 53.15 124.02-0.001-35.433 70.866-53.149 53.149-124.02z" fill-rule="evenodd" transform="translate(0 .00065613)" fill="#006a00"/>
      <path id="path576" d="m336.61 432.28c35.433 124.02-53.149 106.3-53.149 141.73 0-35.433-88.583-17.717-53.15-141.73" stroke="#000" fill="none"/>
     </g>
     <g id="g577" stroke-width="1pt" transform="matrix(-.42532 0.114 -.097080 -.36222 228.08 741.59)">
      <path id="path578" d="m336.61 432.28c70.866 70.867-14.031 141.73-53.149 141.73-39.119 0-124.02-70.866-53.15-141.73-17.717 70.867 53.149 88.583 53.15 124.02-0.001-35.433 70.866-53.149 53.149-124.02z" fill-rule="evenodd" transform="translate(0 .00065613)" fill="#006a00"/>
      <path id="path579" d="m336.61 432.28c35.433 124.02-53.149 106.3-53.149 141.73 0-35.433-88.583-17.717-53.15-141.73" stroke="#000" fill="none"/>
     </g>
     <g id="g580" stroke-width="1pt" transform="matrix(.37184 -.23586 .20086 .31667 300.35 309.04)">
      <path id="path581" d="m336.61 432.28c70.866 70.867-14.031 141.73-53.149 141.73-39.119 0-124.02-70.866-53.15-141.73-17.717 70.867 53.149 88.583 53.15 124.02-0.001-35.433 70.866-53.149 53.149-124.02z" fill-rule="evenodd" transform="translate(0 .00065613)" fill="#006a00"/>
      <path id="path582" d="m336.61 432.28c35.433 124.02-53.149 106.3-53.149 141.73 0-35.433-88.583-17.717-53.15-141.73" stroke="#000" fill="none"/>
     </g>
     <g id="g583" stroke-width="1pt" transform="matrix(-.19330 -.39564 .33693 -.16462 59.409 521.4)">
      <path id="path584" d="m336.61 432.28c70.866 70.867-14.031 141.73-53.149 141.73-39.119 0-124.02-70.866-53.15-141.73-17.717 70.867 53.149 88.583 53.15 124.02-0.001-35.433 70.866-53.149 53.149-124.02z" fill-rule="evenodd" transform="translate(0 .00065613)" fill="#006a00"/>
      <path id="path585" d="m336.61 432.28c35.433 124.02-53.149 106.3-53.149 141.73 0-35.433-88.583-17.717-53.15-141.73" stroke="#000" fill="none"/>
     </g>
     <g id="g586" stroke-width="1pt" transform="matrix(.31140 .31132 -.26513 .26520 504.67 508.8)">
      <path id="path587" d="m336.61 432.28c70.866 70.867-14.031 141.73-53.149 141.73-39.119 0-124.02-70.866-53.15-141.73-17.717 70.867 53.149 88.583 53.15 124.02-0.001-35.433 70.866-53.149 53.149-124.02z" fill-rule="evenodd" transform="translate(0 .00065613)" fill="#006a00"/>
      <path id="path588" d="m336.61 432.28c35.433 124.02-53.149 106.3-53.149 141.73 0-35.433-88.583-17.717-53.15-141.73" stroke="#000" fill="none"/>
     </g>
     <g id="g589" stroke-width="1pt" transform="matrix(-.38583 .21221 -.18072 -.32858 278.58 752.08)">
      <path id="path590" d="m336.61 432.28c70.866 70.867-14.031 141.73-53.149 141.73-39.119 0-124.02-70.866-53.15-141.73-17.717 70.867 53.149 88.583 53.15 124.02-0.001-35.433 70.866-53.149 53.149-124.02z" fill-rule="evenodd" transform="translate(0 .00065613)" fill="#006a00"/>
      <path id="path591" d="m336.61 432.28c35.433 124.02-53.149 106.3-53.149 141.73 0-35.433-88.583-17.717-53.15-141.73" stroke="#000" fill="none"/>
     </g>
     <g id="g592" stroke-width="1pt" transform="matrix(.29698 -.32512 .27688 .25291 238.82 318.87)">
      <path id="path593" d="m336.61 432.28c70.866 70.867-14.031 141.73-53.149 141.73-39.119 0-124.02-70.866-53.15-141.73-17.717 70.867 53.149 88.583 53.15 124.02-0.001-35.433 70.866-53.149 53.149-124.02z" fill-rule="evenodd" transform="translate(0 .00065613)" fill="#006a00"/>
      <path id="path594" d="m336.61 432.28c35.433 124.02-53.149 106.3-53.149 141.73 0-35.433-88.583-17.717-53.15-141.73" stroke="#000" fill="none"/>
     </g>
     <g id="g595" stroke-width="1pt" transform="matrix(-.29029 -.33110 .28197 -.24722 63.292 583.37)">
      <path id="path596" d="m336.61 432.28c70.866 70.867-14.031 141.73-53.149 141.73-39.119 0-124.02-70.866-53.15-141.73-17.717 70.867 53.149 88.583 53.15 124.02-0.001-35.433 70.866-53.149 53.149-124.02z" fill-rule="evenodd" transform="translate(0 .00065613)" fill="#006a00"/>
      <path id="path597" d="m336.61 432.28c35.433 124.02-53.149 106.3-53.149 141.73 0-35.433-88.583-17.717-53.15-141.73" stroke="#000" fill="none"/>
     </g>
     <g id="g598" stroke-width="1pt" transform="matrix(.37605 .22908 -.19510 .32026 491.18 454.96)">
      <path id="path599" d="m336.61 432.28c70.866 70.867-14.031 141.73-53.149 141.73-39.119 0-124.02-70.866-53.15-141.73-17.717 70.867 53.149 88.583 53.15 124.02-0.001-35.433 70.866-53.149 53.149-124.02z" fill-rule="evenodd" transform="translate(0 .00065613)" fill="#006a00"/>
      <path id="path600" d="m336.61 432.28c35.433 124.02-53.149 106.3-53.149 141.73 0-35.433-88.583-17.717-53.15-141.73" stroke="#000" fill="none"/>
     </g>
     <g id="g601" stroke-width="1pt" transform="matrix(-.31668 .30596 -.26056 -.26969 335.04 746.65)">
      <path id="path602" d="m336.61 432.28c70.866 70.867-14.031 141.73-53.149 141.73-39.119 0-124.02-70.866-53.15-141.73-17.717 70.867 53.149 88.583 53.15 124.02-0.001-35.433 70.866-53.149 53.149-124.02z" fill-rule="evenodd" transform="translate(0 .00065613)" fill="#006a00"/>
      <path id="path603" d="m336.61 432.28c35.433 124.02-53.149 106.3-53.149 141.73 0-35.433-88.583-17.717-53.15-141.73" stroke="#000" fill="none"/>
     </g>
     <g id="g604" stroke-width="1pt" transform="matrix(.22802 -.37670 .32081 .19418 187.06 325.19)">
      <path id="path605" d="m336.61 432.28c70.866 70.867-14.031 141.73-53.149 141.73-39.119 0-124.02-70.866-53.15-141.73-17.717 70.867 53.149 88.583 53.15 124.02-0.001-35.433 70.866-53.149 53.149-124.02z" fill-rule="evenodd" transform="translate(0 .00065613)" fill="#006a00"/>
      <path id="path606" d="m336.61 432.28c35.433 124.02-53.149 106.3-53.149 141.73 0-35.433-88.583-17.717-53.15-141.73" stroke="#000" fill="none"/>
     </g>
     <g id="g607" stroke-width="1pt" transform="matrix(-.38467 -.21430 .18251 -.32759 100.95 645.15)">
      <path id="path608" d="m336.61 432.28c70.866 70.867-14.031 141.73-53.149 141.73-39.119 0-124.02-70.866-53.15-141.73-17.717 70.867 53.149 88.583 53.15 124.02-0.001-35.433 70.866-53.149 53.149-124.02z" fill-rule="evenodd" transform="translate(0 .00065613)" fill="#006a00"/>
      <path id="path609" d="m336.61 432.28c35.433 124.02-53.149 106.3-53.149 141.73 0-35.433-88.583-17.717-53.15-141.73" stroke="#000" fill="none"/>
     </g>
     <g id="g610" stroke-width="1pt" transform="matrix(.39973 .18469 -.15729 .34042 493.92 411.37)">
      <path id="path611" d="m336.61 432.28c70.866 70.867-14.031 141.73-53.149 141.73-39.119 0-124.02-70.866-53.15-141.73-17.717 70.867 53.149 88.583 53.15 124.02-0.001-35.433 70.866-53.149 53.149-124.02z" fill-rule="evenodd" transform="translate(0 .00065613)" fill="#006a00"/>
      <path id="path612" d="m336.61 432.28c35.433 124.02-53.149 106.3-53.149 141.73 0-35.433-88.583-17.717-53.15-141.73" stroke="#000" fill="none"/>
     </g>
     <g id="g613" stroke-width="1pt" transform="matrix(-.19546 .39458 -.33603 -.16645 403.15 723.55)">
      <path id="path614" d="m336.61 432.28c70.866 70.867-14.031 141.73-53.149 141.73-39.119 0-124.02-70.866-53.15-141.73-17.717 70.867 53.149 88.583 53.15 124.02-0.001-35.433 70.866-53.149 53.149-124.02z" fill-rule="evenodd" transform="translate(0 .00065613)" fill="#006a00"/>
      <path id="path615" d="m336.61 432.28c35.433 124.02-53.149 106.3-53.149 141.73 0-35.433-88.583-17.717-53.15-141.73" stroke="#000" fill="none"/>
     </g>
     <g id="g616" stroke-width="1pt" transform="matrix(.42973 .096064 -.081810 .36597 466.94 368.52)">
      <path id="path617" d="m336.61 432.28c70.866 70.867-14.031 141.73-53.149 141.73-39.119 0-124.02-70.866-53.15-141.73-17.717 70.867 53.149 88.583 53.15 124.02-0.001-35.433 70.866-53.149 53.149-124.02z" fill-rule="evenodd" transform="translate(0 .00065613)" fill="#006a00"/>
      <path id="path618" d="m336.61 432.28c35.433 124.02-53.149 106.3-53.149 141.73 0-35.433-88.583-17.717-53.15-141.73" stroke="#000" fill="none"/>
     </g>
     <g id="g619" stroke-width="1pt" transform="matrix(.14298 -.41647 .35468 .12177 140.32 354.87)">
      <path id="path620" d="m336.61 432.28c70.866 70.867-14.031 141.73-53.149 141.73-39.119 0-124.02-70.866-53.15-141.73-17.717 70.867 53.149 88.583 53.15 124.02-0.001-35.433 70.866-53.149 53.149-124.02z" fill-rule="evenodd" transform="translate(0 .00065613)" fill="#006a00"/>
      <path id="path621" d="m336.61 432.28c35.433 124.02-53.149 106.3-53.149 141.73 0-35.433-88.583-17.717-53.15-141.73" stroke="#000" fill="none"/>
     </g>
     <g id="g622" stroke-width="1pt" transform="matrix(-.11117 .42607 -.36285 -.094679 463.79 704.63)">
      <path id="path623" d="m336.61 432.28c70.866 70.867-14.031 141.73-53.149 141.73-39.119 0-124.02-70.866-53.15-141.73-17.717 70.867 53.149 88.583 53.15 124.02-0.001-35.433 70.866-53.149 53.149-124.02z" fill-rule="evenodd" transform="translate(0 .00065613)" fill="#006a00"/>
      <path id="path624" d="m336.61 432.28c35.433 124.02-53.149 106.3-53.149 141.73 0-35.433-88.583-17.717-53.15-141.73" stroke="#000" fill="none"/>
     </g>
     <g id="g625" stroke-width="1pt" transform="matrix(-.42290 -.12268 .10448 -.36015 129.41 685.63)">
      <path id="path626" d="m336.61 432.28c70.866 70.867-14.031 141.73-53.149 141.73-39.119 0-124.02-70.866-53.15-141.73-17.717 70.867 53.149 88.583 53.15 124.02-0.001-35.433 70.866-53.149 53.149-124.02z" fill-rule="evenodd" transform="translate(0 .00065613)" fill="#006a00"/>
      <path id="path627" d="m336.61 432.28c35.433 124.02-53.149 106.3-53.149 141.73 0-35.433-88.583-17.717-53.15-141.73" stroke="#000" fill="none"/>
     </g>
    </g>
    <g id="g947" stroke="#000" transform="matrix(.92152 0 0 1.1243 33.045 -62.042)">
     <path id="path839" d="m193.63 88.249c15.546 4.4237 43.275 46.12 53.766 45.791 16.652-0.481 83.233-77.561 72.564-88.252-7.399-8.2462-67.939 41.192-71.852 44.126-0.67-8.601-15.95-51.042-28.31-59.945-14.62-9.31-32.21-4.157-47.82-6.661-7.3-2.843-18.84-14.056-23.78-24.976 8.182-3.5438 15.323-2.4786 23.311-10.651 5.679-6.6419 2.381-46.913 0.37-51.059-13.291-14.268 5.429-7.3272-39.024-9.0822-64.268-2.446-75.878 49.582-31.653 70.792-3.462 15.928-14.219 19.594-22.939 21.646-8.777 0.106-38.826-0.763-55.546 12.489-33.403 24.552-8.925 30.904-15.352 35.8-7.1735 5.645-17.868 19.827-21.888 28.307-10.472 4.996-99.485-4.995-116.5-1.664-16.42 0.9652-56.467 15.818-73.15 26.641 3.565 14.142 241.51-7.603 249.27-2.497 5.9464 3.345-2.7047 51.237 2.0112 54.949 1.6594 9.063 116.54 5.829 125.6 5.829 7.557-18.859 15.389-81.558 20.925-91.583z" fill-rule="evenodd" transform="matrix(.30122 0 0 .39240 391.9 433.3)" stroke-width="4.7021" fill="#520900"/>
     <path id="path841" d="m174.9-96.568c1.543 25.457-7.118 3.3041-38.369 3.3041-60.56-5.035-39.286 99.196-39.286 67.025-26.227-13.71-44.834-100.29 29.616-96.931 23.538 0 44.958 7.858 48.044 26.603z" fill-rule="evenodd" transform="matrix(.36145 0 0 .27530 383.43 434.95)" stroke-width="5.1248"/>
     <path id="path851" d="m387.98 96.574c0 1.6805-0.172 7.957-0.833 11.656-0.445 3.74-1.539 8.077-2.498 10.823-0.342 4.452-2.091 5.174-2.497 9.991-1.544 2.27-2.209 5.944-2.498 9.991 0 4.27 0.686 7.558 0.833 11.656 0.481 3.56 1.612 6.366 1.665 10.823 0 4.365-0.005 7.549-1.665 9.991v5.828" transform="matrix(.47361 0 0 .39240 224.95 421.05)" stroke-width="3.75" fill="none"/>
     <path id="path853" d="m383.81 76.592c0.58 0 1.029 20.129 5.828 24.978 1.039 3.212 4.574 7.343 5.828 9.99 1.672 2.459 3.981 5.368 8.326 6.661h11.656c4.634 0 7.473 0.055 10.823-1.665 1.485-0.8 2.531-1.846 3.33-3.331" transform="matrix(.47361 0 0 .39240 224.95 421.05)" stroke-width="3.75" fill="none"/>
     <path id="path854" d="m442.09 115.72h0.832c-2.327 0-1.092-0.104 3.331 1.665 1.725 2.537 3.768 3.625 6.66 4.996 2.982 1.467 6.391 1.665 10.823 1.665 4.198-0.354 6.74-1.686 9.159-3.331 4.043-1.308 4.815-2.935 5.828-7.493v-11.656c-0.478-3.5309-1.384-6.3725-2.498-9.1578-0.419-1.258-0.833-0.7048-0.833-2.4977" transform="matrix(.47361 0 0 .39240 224.95 421.05)" stroke-width="3.75" fill="none"/>
     <path id="path855" d="m510.36 121.55c-0.425 0-2.65 2.575-4.163 4.995-2.568 0.918-3.233 3.716-4.162 5.828-0.669 2.675-1.666 2.859-1.666 6.661-1.677 3.708-2.204 7.007-2.497 10.823l2.497-10.823c-1.677 3.708-2.204 7.007-2.497 10.823" transform="matrix(.47361 0 0 .39240 224.95 421.05)" stroke-width="3.75" fill="none"/>
     <path id="path856" d="m461.24 54.946h-0.833c2.249 0 1.099-0.0534-3.33 0.8326-1.817 2.2709-4.807 4.3057-7.493 5.8279-2.977 1.8244-5.367 4.0093-8.326 4.9954l8.326-4.9954c-2.977 1.8244-5.367 4.0093-8.326 4.9954" transform="matrix(.47361 0 0 .39240 224.95 421.05)" stroke-width="3.75" fill="none"/>
     <path id="path857" d="m402.13 51.615h0.833c-2.248 0-1.105-0.0545 3.33 0.8326 2.936 1.3906 4.752 2.8901 7.493 4.9954 1.291 1.9353 3.257 2.3054 4.163 5.8279 1.574 0.8475 2.124 1.67 2.498 4.1629" transform="matrix(.47361 0 0 .39240 224.95 421.05)" stroke-width="3.75" fill="none"/>
     <path id="path858" d="m427.11 29.968h0.833 3.33c4.529 0 6.733 0.6811 10.824 0.8326 3.538-0.4246 4.382-1.7374 7.493-2.4977" transform="matrix(.47361 0 0 .39240 224.95 421.05)" stroke-width="3.75" fill="none"/>
     <path id="path859" d="m442.93 133.21c0.139 0.661 1.652 4.256 2.498 5.828 1.517 2.512 3.538 4.914 4.163 8.326 0.968 2.905 1.526 6.23 1.665 9.99 0.761 3.503 1.264 6.62-0.833 9.159-0.898 3.292-2.57 5.692-4.162 9.158-1.111 0-0.833-0.278-0.833 0.833" transform="matrix(.47361 0 0 .39240 224.95 421.05)" stroke-width="3.75" fill="none"/>
     <path id="path860" d="m416.28 134.87v0.833c0-2.248 0.055-1.105-0.832 3.33-1.147 4.013-2.15 7.388-4.163 9.991-1.098 3.294-2.326 4.504-2.498 9.158 0.662 1.544 0.833 3.263 0.833 5.828" transform="matrix(.47361 0 0 .39240 224.95 421.05)" stroke-width="3.75" fill="none"/>
     <path id="path862" d="m412.12 169.01v0.833 3.33c0.908 1.211 0.55 1.294 1.665 1.665" transform="matrix(.47361 0 0 .39240 224.95 421.05)" stroke-width="3.75" fill="none"/>
     <path id="path863" d="m343.02 128.21v0.832c0-2.327-0.258-0.936 4.163 0.833 3.572 0.638 7.937 1.037 10.823 1.665 2.672 1.312 5.265 3.48 7.493 4.995 1.994 1.728 4.819 3.48 7.494 4.996 3.004 1.502 4.325 2.823 5.828 5.828 0.907 1.21 0.549 1.293 1.665 1.665" transform="matrix(.47361 0 0 .39240 224.95 421.05)" stroke-width="3.75" fill="none"/>
     <path id="path865" d="m423.78-16.655c0.123-0.1836 2.467-1.9143 4.996-2.4977 1.805-1.3541 4.812-0.7395 6.66 0" transform="matrix(.73981 0 0 .39240 107.68 422.43)" stroke-width="3.0004" fill="none"/>
     <path id="path866" d="m445.42-19.153h0.833c-2.248 0-1.106 0.0545 3.33-0.8325 3.481-1.1604 7.672-0.8326 11.656-0.8326 1.174 0.3914 0.832 0.242 0.832 1.6651" transform="matrix(.57541 0 0 .39240 177.35 422.43)" stroke-width="3.4021" fill="none"/>
     <path id="path868" d="m444.59-7.4971v0.8326c0-2.3269-0.103-1.0906 1.666 3.3302 0.643 2.9618 1.76 7.0496 0.832 9.1582-2.184 0-2.859-0.27397-4.163-0.83252" transform="matrix(.57541 0 0 .39240 177.35 422.43)" stroke-width="3.4021" fill="none"/>
     <path id="path871" d="m371.33-24.981c0 3.2187-4.1003 5.828-9.1582 5.828-5.058 0-9.1582-2.6093-9.1582-5.828s4.1003-5.828 9.1582-5.828c5.058 0 9.1582 2.6093 9.1582 5.828z" fill-rule="evenodd" transform="matrix(.56688 -.067319 .056409 .22090 230.97 457.89)" stroke-width="4.5006"/>
     <path id="path872" d="m371.33-24.981c0 3.2187-4.1003 5.828-9.1582 5.828-5.058 0-9.1582-2.6093-9.1582-5.828s4.1003-5.828 9.1582-5.828c5.058 0 9.1582 2.6093 9.1582 5.828z" fill-rule="evenodd" transform="matrix(.41026 -.044211 .040825 .14507 278.19 435.7)" stroke-width="6.5281"/>
     <path id="path873" d="m371.33-24.981c0 3.2187-4.1003 5.828-9.1582 5.828-5.058 0-9.1582-2.6093-9.1582-5.828s4.1003-5.828 9.1582-5.828c5.058 0 9.1582 2.6093 9.1582 5.828z" fill-rule="evenodd" transform="matrix(.41026 -.044211 .040825 .14507 290.65 434.72)" stroke-width="6.5281"/>
     <path id="path874" d="m412.95 113.64c0 2.0692-1.8638 3.7466-4.1628 3.7466-2.2991 0-4.1628-1.6774-4.1628-3.7466s1.8638-3.7466 4.1628-3.7466c2.2991 0 4.1628 1.6774 4.1628 3.7466z" fill-rule="evenodd" transform="matrix(.47361 0 0 .39240 224.95 421.05)" stroke-width="3.75"/>
     <path id="path875" d="m469.57 119.89c0 1.3794-1.3046 2.4977-2.914 2.4977-1.6093 0-2.914-1.1183-2.914-2.4977s1.3046-2.4977 2.914-2.4977c1.6093 0 2.914 1.1183 2.914 2.4977z" fill-rule="evenodd" transform="matrix(.47361 0 0 .39240 224.95 421.05)" stroke-width="3.75"/>
     <path id="path876" d="m447.09 31.634v0.8325c0-2.7951 0.197-1.029-4.163 3.3303-3.724 1.7856-5.164 3.6672-6.66 6.6605-1.742 3.8506-2.342 6.6127-2.498 10.824v6.6605" transform="matrix(.47361 0 0 .39240 224.95 421.05)" stroke-width="3.75" fill="none"/>
     <path id="path878" d="m419.61 30.801c0.577 0 1.477 2.2728 2.498 4.9954 1.856 2.1886 3.037 5.3507 3.33 9.1582 0 4.5188 0.78 6.4537 0.833 10.824v3.3302" transform="matrix(.47361 0 0 .39240 224.95 421.05)" stroke-width="3.75" fill="none"/>
     <path id="path879" d="m504.54 129.04c0 0.481-2.6 1.455-4.163 3.33-3.161 0.428-5.964 0.833-9.99 0.833-0.611-0.916-1.836-1.217-3.331-1.665" transform="matrix(.47361 0 0 .39240 224.95 421.05)" stroke-width="3.75" fill="none"/>
    </g>
    <g id="g842" fill-rule="evenodd" transform="matrix(.45148 0 0 .28623 234.3 439.76)" stroke="#000" stroke-width="3.75" fill="#fff">
     <path id="path831" d="m276.41 36.63 88.253 1.6651v11.656s8.325 14.986 13.321 48.289c4.995 33.303 9.991 158.19 9.991 158.19l21.646 141.54s-13.321 21.647-23.312 19.982c-9.99-1.666-39.963-13.321-39.963-14.987 0-1.665-1.665-79.926-4.995-133.21-3.331-53.285-9.991-81.592-24.977-104.9-19.982 48.288-21.647 98.243-19.982 98.243s1.665 39.963 3.33 69.936c1.666 29.972-1.665 71.601-1.665 71.601l-58.28-3.331s1.665-36.633 3.331-64.94c1.665-28.307 6.744-41.625 8.326-73.266 1.748-34.963 4.202-53.319 6.66-109.9 3.238-45.739 14.687-75.258 17.9-103.24 0.871-7.1332-0.416-12.488 0.416-13.321z" transform="translate(103.24 138.21)"/>
     <path id="path832" d="m316.38 166.51s-8.326-13.321-11.656-36.633-3.33-28.307-3.33-28.307" transform="translate(103.24 138.21)"/>
     <path id="path833" d="m298.06 233.12-9.99 39.963" transform="translate(103.24 138.21)"/>
     <path id="path834" d="m276.41 223.12 11.657 54.949" transform="translate(163.18 139.87)"/>
     <path id="path835" d="m387.98 417.95-11.66-81.6" transform="translate(103.24 138.21)"/>
     <path id="path836" d="m276.41 44.955 88.253 1.6651" transform="translate(103.24 138.21)"/>
     <path id="path837" d="m318.04 164.84c0-1.665 4.995-29.972 4.995-29.972" transform="translate(103.24 138.21)"/>
     <path id="path838" d="m284.74 44.955-8.326 84.922" transform="translate(103.24 138.21)"/>
    </g>
    <path id="path1115" d="m349.68 188.16c0 13.794-7.0823 24.977-15.819 24.977-8.7365 0-15.819-11.183-15.819-24.977s7.0823-24.977 15.819-24.977c8.7365 0 15.819 11.183 15.819 24.977z" fill-rule="evenodd" transform="matrix(.72776 0 0 .70907 -82.219 465.05)" stroke="#000" stroke-width="2.5" fill="#ffc600"/>
    <g id="g1240" stroke-width="1pt" transform="matrix(.43987 0 0 .51992 142.76 215.7)">
     <g id="g1177" fill-rule="evenodd" stroke="#000">
      <path id="path1168" d="m212.6 892.91s53.15-17.716 70.867-17.716c17.716 0 17.716 17.716 19.135 18.212l-1.419 34.937h-88.583v-35.433z" transform="translate(-35.434 -.22022)" fill="#00cfe6"/>
      <path id="path1170" d="m265.75 892.91s0-17.716 17.717-17.716c17.716 0 35.433-0.496 53.149-0.001v53.15h-70.866v-35.433z" transform="matrix(1 0 0 -1 -.00043869 1874.2)" fill="#00cfe6"/>
      <path id="path1172" d="m212.6 892.91s53.15-17.716 70.867-17.716c17.716 0 17.716 17.716 19.135 18.212l-1.419 34.937h-88.583v-35.433z" transform="matrix(-1 0 0 1 814.96 .00042725)" fill="#00cfe6"/>
      <path id="path1173" d="m265.75 892.91s0-17.716 17.717-17.716c17.716 0 35.433-0.496 53.149-0.001v53.15h-70.866v-35.433z" transform="matrix(-1 0 0 -1 779.53 1874.4)" fill="#00cfe6"/>
      <path id="path1174" d="m249.45 875.2s0-17.717-17.716-17.717h53.15l-35.434 17.717z" transform="matrix(-1 0 0 -1 727.8 1856.7)" fill="#fff"/>
      <path id="path1175" d="m159.45 892.91 106.3 53.15s-36.039 33.299-70.866 35.433c-17.717 0-35.433-35.433-35.433-35.433v-53.15z" transform="matrix(-1.1667 0 0 1 841.54 -.0052185)" fill="#00cfe6"/>
      <path id="path1176" d="m249.45 892.91c0.71-8.858-2.214-35.434-19.931-35.434h55.364c17.717 0 35.434 17.717 35.434 35.434l-1.419 35.432-69.448 0.001v-35.433z" transform="matrix(-1 0 0 1 763.23 17.717)" fill="#fff"/>
      <path id="path1171" d="m249.45 875.2s0-17.717-17.716-17.717h53.15l-35.434 17.717z" transform="matrix(1 0 0 -1 51.73 1856.5)" fill="#fff"/>
      <path id="path1166" d="m159.45 892.91 106.3 53.15s-36.039 33.299-70.866 35.433c-17.717 0-35.433-35.433-35.433-35.433v-53.15z" transform="matrix(1.1667 0 0 1 -62.009 -.22586)" fill="#00cfe6"/>
      <path id="path1169" d="m249.45 892.91c0.71-8.858-2.214-35.434-19.931-35.434h55.364c17.717 0 35.434 17.717 35.434 35.434l-1.419 35.432-69.448 0.001v-35.433z" transform="translate(16.297 17.496)" fill="#fff"/>
      <path id="path1165" d="m88.802 891.9c-0.1102 1.012 17.607-34.421 53.04-34.421s177.16 70.866 247.92 70.866c70.975 0 196.65-72.56 230.42-70.866 33.773 1.694 53.521 37.161 53.149 35.433-0.373-1.728-17.716 53.15-17.716 53.15 0-17.716-17.717-35.433-35.433-35.433-17.717 0-106.3 70.866-230.42 70.866-123.91 0-212.49-70.866-230.21-70.866-17.717 0-35.433 17.716-35.433 35.433l-35.318-54.16z" transform="translate(-.10956 -.000030518)" fill="#fff"/>
     </g>
     <path id="path1196" d="m311.49 1033.9v-42.837h9.846v5.057h-8.045v13.12h7.533v5.02h-7.533v14.58h8.36v5.06h-10.161z" transform="matrix(1.6105 -.62438 .36153 .93250 -309.42 157.31)"/>
     <path id="path1201" d="m272.27 1033.9v-42.837h1.801v37.777h6.707v5.06h-8.508z" transform="matrix(1.6105 -.62438 .36153 .93250 -312.75 158.98)"/>
     <path id="path1202" d="m260.81 1033.9v-42.837h9.186v5.057h-7.383v13.26h6.39v5.06h-6.39v19.46h-1.803z" transform="matrix(1.6105 -.62438 .36153 .93250 -314.42 159.81)"/>
     <path id="path1210" d="m200.42 1033.9v-42.837h2.712l3.223 30.327c0.298 2.82 0.515 4.94 0.651 6.34 0.154-1.56 0.397-3.85 0.725-6.86l3.259-29.807h2.425v42.837h-1.737v-35.856l-3.957 35.856h-1.626l-3.938-36.469v36.469h-1.737z" transform="matrix(2.2021 .54597 -.23844 .96174 106.42 -142.17)"/>
     <path id="path1211" d="m195.68 991.08h1.802v24.747c0 4.3-0.155 7.72-0.464 10.26-0.309 2.53-0.87 4.59-1.682 6.19-0.804 1.58-1.863 2.36-3.177 2.36-1.274 0-2.317-0.68-3.129-2.07-0.811-1.38-1.39-3.38-1.737-5.99-0.347-2.63-0.52-6.21-0.52-10.75v-24.747h1.802v24.717c0 3.72 0.108 6.47 0.325 8.24 0.222 1.75 0.601 3.1 1.134 4.06 0.539 0.95 1.195 1.43 1.968 1.43 1.326 0 2.269-0.94 2.833-2.83 0.563-1.89 0.845-5.52 0.845-10.9v-24.717z" transform="matrix(2.0955 .86968 -.37982 .91517 265.88 -160.76)"/>
     <path id="path1215" d="m163.97 991.08h1.803v24.747c0 4.3-0.156 7.72-0.465 10.26-0.309 2.53-0.87 4.59-1.682 6.19-0.803 1.58-1.862 2.36-3.175 2.36-1.276 0-2.319-0.68-3.13-2.07-0.812-1.38-1.39-3.38-1.737-5.99-0.347-2.63-0.52-6.21-0.52-10.75v-24.747h1.801v24.717c0 3.72 0.109 6.47 0.326 8.24 0.222 1.75 0.6 3.1 1.133 4.06 0.539 0.95 1.195 1.43 1.969 1.43 1.325 0 2.27-0.94 2.833-2.83 0.564-1.89 0.844-5.52 0.844-10.9v-24.717z" transform="matrix(1.5677 .72505 -.41982 .90775 382.54 -129.43)"/>
     <path id="path1216" d="m141.73 1020.2 1.7-0.47c0.081 2.15 0.266 3.91 0.557 5.3 0.297 1.36 0.756 2.47 1.375 3.33 0.619 0.83 1.316 1.25 2.09 1.25 0.687 0 1.294-0.32 1.82-0.96 0.527-0.64 0.917-1.52 1.17-2.63 0.261-1.13 0.391-2.36 0.391-3.68 0-1.35-0.124-2.52-0.372-3.51-0.248-1.01-0.656-1.86-1.226-2.54-0.365-0.45-1.173-1.14-2.424-2.07-1.251-0.96-2.127-1.85-2.629-2.69-0.65-1.07-1.136-2.4-1.458-3.98-0.316-1.59-0.474-3.38-0.474-5.34 0-2.166 0.195-4.181 0.586-6.05 0.39-1.89 0.959-3.321 1.709-4.294 0.749-0.977 1.582-1.461 2.498-1.461 1.009 0 1.898 0.514 2.666 1.546 0.774 1.012 1.368 2.513 1.783 4.498 0.415 1.989 0.638 4.241 0.669 6.751l-1.728 0.41c-0.093-2.71-0.409-4.753-0.947-6.134-0.533-1.386-1.322-2.074-2.369-2.074-1.09 0-1.885 0.628-2.387 1.894-0.495 1.247-0.743 2.754-0.743 4.534 0 1.53 0.177 2.8 0.53 3.79 0.346 1 1.251 2.02 2.712 3.08 1.467 1.03 2.474 1.93 3.018 2.71 0.793 1.15 1.378 2.61 1.756 4.38 0.378 1.76 0.566 3.78 0.566 6.08 0 2.28-0.207 4.43-0.622 6.46-0.415 2-1.012 3.57-1.792 4.7-0.774 1.11-1.648 1.66-2.62 1.66-1.232 0-2.266-0.56-3.102-1.69-0.83-1.13-1.483-2.82-1.96-5.08-0.47-2.28-0.718-4.85-0.743-7.72z" transform="matrix(1.5677 .72505 -.41982 .90775 379.21 -132.76)"/>
     <path id="path1219" d="m323.59 1013c0-7.1 0.607-12.67 1.821-16.676 1.214-4.034 2.78-6.049 4.7-6.049 1.257 0 2.39 0.943 3.399 2.833s1.776 4.527 2.303 7.922c0.532 3.37 0.799 7.19 0.799 11.48 0 4.34-0.278 8.23-0.836 11.66-0.558 3.42-1.347 6.03-2.368 7.8-1.022 1.75-2.124 2.62-3.307 2.62-1.282 0-2.426-0.97-3.436-2.92-1.01-1.94-1.774-4.6-2.294-7.97s-0.781-6.94-0.781-10.7zm1.857 0.09c0 5.16 0.441 9.23 1.319 12.21 0.886 2.97 1.994 4.45 3.326 4.45 1.357 0 2.471-1.5 3.343-4.51 0.88-2.99 1.319-7.25 1.319-12.76 0-3.49-0.189-6.53-0.566-9.12-0.371-2.61-0.919-4.623-1.644-6.044-0.718-1.441-1.526-2.164-2.424-2.164-1.276 0-2.374 1.386-3.297 4.149-0.917 2.749-1.376 7.349-1.376 13.789z" transform="matrix(1.6105 -.62438 .36153 .93250 -306.09 153.98)"/>
     <path id="path1222" d="m297.74 1033.9v-42.837h6.036c1.214 0 2.137 0.389 2.77 1.167 0.63 0.763 1.134 2.114 1.513 4.064 0.378 1.95 0.566 4.096 0.566 6.456 0 3.04-0.312 5.6-0.938 7.69-0.625 2.08-1.592 3.4-2.898 3.97 0.477 0.72 0.839 1.43 1.088 2.13 0.526 1.52 1.024 3.42 1.494 5.7l2.369 11.66h-2.267l-1.801-8.91c-0.526-2.58-0.961-4.54-1.301-5.91-0.34-1.36-0.647-2.32-0.92-2.86-0.266-0.54-0.537-0.93-0.816-1.14-0.205-0.14-0.539-0.21-1.003-0.21h-2.09v19.03h-1.802zm1.802-23.93h3.873c0.823 0 1.468-0.27 1.932-0.79 0.465-0.55 0.817-1.4 1.059-2.57 0.241-1.19 0.361-2.48 0.361-3.86 0-2.02-0.234-3.689-0.705-4.995-0.464-1.306-1.202-1.96-2.211-1.96h-4.309v14.175z" transform="matrix(1.6105 -.62438 .36153 .93250 -312.75 158.14)"/>
     <path id="path1225" d="m282.37 1013c0-7.1 0.605-12.67 1.819-16.676 1.215-4.034 2.781-6.049 4.7-6.049 1.257 0 2.391 0.943 3.399 2.833 1.01 1.89 1.777 4.527 2.305 7.922 0.531 3.37 0.797 7.19 0.797 11.48 0 4.34-0.277 8.23-0.835 11.66-0.557 3.42-1.348 6.03-2.368 7.8-1.023 1.75-2.125 2.62-3.307 2.62-1.282 0-2.427-0.97-3.437-2.92-1.009-1.94-1.774-4.6-2.293-7.97-0.52-3.37-0.78-6.94-0.78-10.7zm1.856 0.09c0 5.16 0.441 9.23 1.319 12.21 0.886 2.97 1.994 4.45 3.325 4.45 1.357 0 2.472-1.5 3.345-4.51 0.878-2.99 1.319-7.25 1.319-12.76 0-3.49-0.19-6.53-0.568-9.12-0.37-2.61-0.919-4.623-1.643-6.044-0.718-1.441-1.527-2.164-2.424-2.164-1.276 0-2.375 1.386-3.297 4.149-0.916 2.749-1.376 7.349-1.376 13.789z" transform="matrix(1.6105 -.62438 .36153 .93250 -313.59 158.14)"/>
     <path id="path1229" d="m216.25 1033.9v-42.837h5.107c1.042 0 1.874 0.439 2.5 1.317 0.631 0.857 1.122 2.189 1.476 3.999 0.36 1.795 0.539 3.671 0.539 5.641 0 1.83-0.159 3.55-0.474 5.17-0.316 1.62-0.793 2.92-1.43 3.92 0.823 0.76 1.455 2.05 1.894 3.88 0.446 1.83 0.669 4 0.669 6.49 0 2-0.136 3.87-0.409 5.61-0.266 1.71-0.597 3.04-0.994 3.97-0.396 0.94-0.894 1.65-1.494 2.13-0.595 0.47-1.326 0.71-2.193 0.71h-5.191zm1.801-24.84h2.945c0.799 0 1.371-0.17 1.718-0.49 0.458-0.43 0.802-1.15 1.03-2.14 0.237-0.99 0.354-2.24 0.354-3.74 0-1.42-0.109-2.67-0.325-3.738-0.217-1.092-0.526-1.83-0.929-2.219-0.403-0.409-1.094-0.613-2.072-0.613h-2.721v12.94zm0 19.78h3.39c0.582 0 0.991-0.07 1.227-0.2 0.414-0.24 0.761-0.63 1.04-1.17 0.279-0.55 0.507-1.34 0.686-2.37 0.181-1.05 0.27-2.26 0.27-3.62 0-1.6-0.13-2.98-0.39-4.15-0.26-1.19-0.621-2.02-1.086-2.48-0.458-0.49-1.121-0.73-1.988-0.73h-3.149v14.72z" transform="matrix(2.2473 .31150 -.13604 .98148 -2.967 -111.48)"/>
     <path id="path1232" d="m229.04 1033.9v-42.837h6.038c1.212 0 2.135 0.389 2.767 1.167 0.631 0.763 1.137 2.114 1.514 4.064 0.378 1.95 0.566 4.096 0.566 6.456 0 3.04-0.312 5.6-0.938 7.69-0.625 2.08-1.59 3.4-2.898 3.97 0.477 0.72 0.84 1.43 1.088 2.13 0.526 1.52 1.024 3.42 1.494 5.7l2.369 11.66h-2.266l-1.802-8.91c-0.526-2.58-0.961-4.54-1.3-5.91-0.341-1.36-0.648-2.32-0.919-2.86-0.266-0.54-0.539-0.93-0.818-1.14-0.205-0.14-0.539-0.21-1.004-0.21h-2.089v19.03h-1.802zm1.802-23.93h3.873c0.824 0 1.468-0.27 1.932-0.79 0.465-0.55 0.816-1.4 1.059-2.57 0.241-1.19 0.361-2.48 0.361-3.86 0-2.02-0.234-3.689-0.705-4.995-0.464-1.306-1.202-1.96-2.21-1.96h-4.31v14.175z" transform="matrix(2.2688 0 0 .99086 -141.3 -48.685)"/>
     <path id="path1235" d="m241.25 1033.9 5.229-42.837h1.942l5.572 42.837h-2.053l-1.588-12.98h-5.693l-1.496 12.98h-1.913zm3.929-17.59h4.616l-1.422-11.86c-0.432-3.61-0.754-6.57-0.965-8.889-0.173 2.747-0.419 5.479-0.734 8.179l-1.495 12.57z" transform="matrix(2.234 -.39578 .17286 .97567 -303.54 61.375)"/>
     <path id="path1239" d="m168.7 1033.9v-42.837h5.107c1.042 0 1.874 0.439 2.5 1.317 0.631 0.857 1.122 2.189 1.476 3.999 0.36 1.795 0.539 3.671 0.539 5.641 0 1.83-0.159 3.55-0.474 5.17s-0.793 2.92-1.43 3.92c0.823 0.76 1.455 2.05 1.894 3.88 0.446 1.83 0.669 4 0.669 6.49 0 2-0.136 3.87-0.409 5.61-0.266 1.71-0.597 3.04-0.994 3.97-0.396 0.94-0.894 1.65-1.494 2.13-0.595 0.47-1.326 0.71-2.193 0.71h-5.191zm1.801-24.84h2.945c0.799 0 1.371-0.17 1.718-0.49 0.458-0.43 0.802-1.15 1.031-2.14 0.236-0.99 0.353-2.24 0.353-3.74 0-1.42-0.109-2.67-0.325-3.738-0.217-1.092-0.526-1.83-0.929-2.219-0.402-0.409-1.093-0.613-2.072-0.613h-2.721v12.94zm0 19.78h3.39c0.582 0 0.991-0.07 1.227-0.2 0.414-0.24 0.761-0.63 1.04-1.17 0.279-0.55 0.507-1.34 0.687-2.37 0.18-1.05 0.269-2.26 0.269-3.62 0-1.6-0.13-2.98-0.39-4.15-0.26-1.19-0.621-2.02-1.086-2.48-0.458-0.49-1.12-0.73-1.988-0.73h-3.149v14.72z" transform="matrix(1.5677 .72505 -.41982 .90775 390.87 -127.76)"/>
    </g>
    <g id="g1267" transform="matrix(1.0891 0 0 1 -26.351 3.3302)">
     <path id="path714" d="m212.6 432.28v106.3c0 70.866 88.583 106.3 88.583 106.3s88.583-35.433 88.583-106.3v-106.3h-177.17z" fill-rule="evenodd" transform="matrix(.80784 0 0 .82759 63.772 114.72)" stroke="#000" stroke-width="1pt" fill="#00daec"/>
     <path id="path715" d="m212.6 432.28v106.3c0 8.858 1.384 17.163 3.806 24.914l84.777-42.631v-88.583h-88.583z" fill-rule="evenodd" transform="matrix(.80784 0 0 .82759 63.772 114.72)" stroke="#000" stroke-width="1pt" fill="#fff"/>
     <path id="path716" d="m212.6 432.28v106.3c0 8.858 1.384 17.163 3.806 24.914l84.777-42.631v-88.583h-88.583z" fill-rule="evenodd" transform="matrix(-.80784 0 0 .82759 550.39 114.72)" stroke="#000" stroke-width="1pt" fill="#fff300"/>
     <g id="g725" fill-rule="evenodd" transform="matrix(.80784 0 0 .82759 63.772 114.72)" stroke="#000" stroke-width="1.25">
      <path id="path720" d="m244.77 87.419c7.322-5.9471 11.157-3.7176 17.649 3.1015 9.323 9.8147 41.318 58.855 46.313 63.018s4.241-6.417 10.344-1.387c3.032 3.727-10.437 17.026-13.737 14.569-6.411-5.02 3.915-5.374-0.354-9.643-4.925-5.133-51.215-40.497-60.282-50.571-5.92-6.5775-6.314-13.969 0.067-19.087z" transform="matrix(.63945 .23742 .14230 .70223 58.901 338.88)" fill="#923d09"/>
      <rect id="rect718" ry="1.2932" rx="2.6061" transform="matrix(.75556 .65508 -.58585 .81042 0 0)" height="66.045" width="5.2122" y="181.35" x="495.52" fill="#af8000"/>
      <rect id="rect719" transform="matrix(.83117 .55602 -.64108 .76747 0 0)" height="18.868" width="29.375" y="228.63" x="497.3" fill="#b0b0d4"/>
     </g>
     <g id="g733" stroke="#000" fill-rule="evenodd" transform="matrix(.80784 0 0 .82759 63.772 114.72)">
      <path id="path721" d="m273.75 383.58c-2.737 4.561 42.976 12.952 57.694 22.371 14.719 9.42 14.718 10.008 21.194 14.718l1.765-2.944c-3.532-3.532-38.494-26.356-62.403-34.145-6.805-2.273-10.3-13.248-12.951-8.83l-5.299 8.83z" transform="matrix(-.81194 -.58374 .58374 -.81194 383.47 999.81)" stroke-width="1pt" fill="#af8000"/>
      <path id="path723" d="m319.08 369.45-25.315-5.887s-5.887 2.354-6.475 11.185c-0.589 8.831 4.709 14.129 4.709 14.129l27.081-9.419v-10.008z" transform="matrix(.94788 -.31862 .31862 .94788 -78.616 205.02)" stroke-width="1pt" fill="#808080"/>
      <rect id="rect722" ry="3.5323" rx="3.5323" transform="rotate(-18.579)" height="19.428" width="7.0645" y="534.62" x="175.71" stroke-width="1pt" fill="#808080"/>
      <path id="path731" d="m239.61 381.52c0 7.3156-1.5814 13.246-3.5323 13.246-1.9508 0-3.5323-5.9305-3.5323-13.246 0-7.3156 1.5815-13.246 3.5323-13.246s3.5323 5.9305 3.5323 13.246z" transform="matrix(.74465 -.71591 .63468 .39346 -105.9 523.83)" stroke-width="1pt" fill="#cf0000"/>
      <path id="path732" d="m239.61 381.52c0 7.3156-1.5814 13.246-3.5323 13.246-1.9508 0-3.5323-5.9305-3.5323-13.246 0-7.3156 1.5815-13.246 3.5323-13.246s3.5323 5.9305 3.5323 13.246z" transform="matrix(-.97804 .31097 .027484 .75540 595.47 104.78)" stroke-width="1pt" fill="#cf0000"/>
      <rect id="rect729" transform="matrix(.85897 -.51203 .49936 .86639 0 0)" height="17.796" width="78.868" y="596.25" x="15.073" stroke-width=".86455pt" fill="#b0b0d4"/>
     </g>
     <path id="path741" d="m231.36 591.4 8.83-7.065s1.767 8.831 7.065 8.831 8.831-7.653 8.831-7.653 0 7.653 5.887 7.653 10.597-7.653 10.597-7.064c0 0.588 0.588 7.064 5.298 7.064s10.597-6.476 10.597-6.476 0.589 7.654 5.887 7.065c5.299-0.589 7.065-8.242 7.653-7.653 0.589 0.588 4.121 7.653 8.242 7.064s10.009-6.476 10.009-6.476 1.177 7.065 5.887 7.065c4.709 0 6.476-6.476 6.476-6.476s2.354 5.298 6.475 5.298 10.597-5.887 10.597-5.887" transform="matrix(.77167 0 0 .82759 84.031 128.85)" stroke="#0072ff" stroke-width="1pt" fill="none"/>
     <path id="path742" d="m231.95 591.4c3.139-1.374 5.69 0.196 9.418-7.654 0 4.121 2.945 9.42 8.243 9.42s8.831-7.653 8.831-7.653 0 7.653 5.887 7.653 10.597-7.653 10.597-7.064c0 0.588 0.588 7.064 5.298 7.064s10.597-6.476 10.597-6.476 0.589 7.654 5.887 7.065c5.299-0.589 7.065-8.242 7.653-7.653 0.589 0.588 4.121 7.653 8.242 7.064 2.943-0.589 10.009-7.065 10.009-7.065" transform="matrix(.80784 0 0 .82759 85.649 137.62)" stroke="#0072ff" stroke-width="1pt" fill="none"/>
     <g id="g763" fill-rule="evenodd" transform="matrix(.63809 0 0 .61718 131.64 357.23)">
      <path id="path745" d="m305.54 350.62v18.839h14.717l-5.298-18.839h-9.419z" transform="translate(4.121 16.484)" stroke="#000" stroke-width="1pt" fill="#fff"/>
      <path id="path743" d="m329.68 377.11c-0.589 0.589-23.549 12.952-53.573 12.952s-41.799-3.533-44.742-5.887c-2.944-2.355-6.476-7.065-10.008-7.065-3.533 0-6.476 2.944-6.476 2.944s5.887 2.943 10.008 6.475c4.121 3.533 5.298 10.009 5.298 10.009l97.138 1.177s-0.589-6.476-0.589-10.008 3.533-8.831 2.944-10.597z"/>
      <rect id="rect746" height="54.75" width="2.3549" y="335.31" x="244.91" stroke-width="1pt"/>
      <rect id="rect747" height="62.404" width="2.3549" y="328.24" x="276.7" stroke-width="1pt"/>
      <rect id="rect748" height="51.218" width="2.3549" y="338.84" x="307.9" stroke-width="1pt"/>
      <rect id="rect751" height="8.8307" width="18.839" stroke="#000" y="342.37" x="299.07" stroke-width=".76791pt" fill="#fff"/>
      <rect id="rect750" height="8.8307" width="21.782" stroke="#000" y="350.61" x="297.89" stroke-width=".82572pt" fill="#fff"/>
      <rect id="rect749" height="8.8307" width="24.137" stroke="#000" y="358.86" x="296.71" stroke-width=".86921pt" fill="#fff"/>
      <rect id="rect754" height="12.527" width="23.837" stroke="#000" y="334.72" x="266.17" stroke-width="1.0288pt" fill="#fff"/>
      <rect id="rect753" height="12.527" width="27.561" stroke="#000" y="346.41" x="264.68" stroke-width="1.1063pt" fill="#fff"/>
      <rect id="rect752" height="12.527" width="30.541" stroke="#000" y="358.1" x="263.19" stroke-width="1.1645pt" fill="#fff"/>
      <rect id="rect755" height="15.307" width="36.5" stroke="#000" y="368.28" x="260.21" stroke-width=".98425pt" fill="#fff"/>
      <rect id="rect756" height="10.414" width="15.763" stroke="#000" y="342.37" x="238.25" stroke-width=".76282pt" fill="#fff"/>
      <rect id="rect757" height="10.414" width="18.226" stroke="#000" y="352.09" x="237.26" stroke-width=".82025pt" fill="#fff"/>
      <rect id="rect758" height="10.414" width="20.197" stroke="#000" y="361.81" x="236.28" stroke-width=".86344pt" fill="#fff"/>
      <rect id="rect759" height="12.725" width="24.137" stroke="#000" y="370.27" x="234.31" stroke-width=".72977pt" fill="#fff"/>
      <path id="path762" d="m220 377.51h9.876l10.597-33.374-20.473 33.374z" stroke="#000" stroke-width=".76282pt" fill="#fff"/>
      <rect id="rect761" transform="matrix(.89662 .44280 -.54260 .83999 0 0)" height="52.648" width="2.4262" y="193.78" x="391.01" stroke-width="1pt"/>
     </g>
     <path id="path740" d="m231.36 591.4 8.83-7.065s1.767 8.831 7.065 8.831 8.831-7.653 8.831-7.653 0 7.653 5.887 7.653 10.597-7.653 10.597-7.064c0 0.588 0.588 7.064 5.298 7.064s10.597-6.476 10.597-6.476 0.589 7.654 5.887 7.065c5.299-0.589 7.065-8.242 7.653-7.653 0.589 0.588 4.121 7.653 8.242 7.064s10.009-6.476 10.009-6.476 1.177 7.065 5.887 7.065c4.709 0 6.476-6.476 6.476-6.476s2.354 5.298 6.475 5.298 7.065-7.064 7.065-7.064 1.177 6.476 4.121 6.476c2.943 0 6.476-6.476 6.476-6.476s1.177 8.242 4.121 7.653c2.943-0.589 4.121-8.242 4.71-7.653 0.588 0.589 4.709 7.064 4.12 7.064" transform="matrix(.76317 0 0 .82759 77.436 118.62)" stroke="#0072ff" stroke-width="1pt" fill="none"/>
    </g>
   </g>
  </g>
 </g>
</svg>
