<?xml version="1.0" encoding="UTF-8" standalone="no"?>
<!-- Created with Sodipodi ("http://www.sodipodi.com/") -->
<svg id="svg1" xmlns:rdf="http://www.w3.org/1999/02/22-rdf-syntax-ns#" xmlns="http://www.w3.org/2000/svg" height="480" width="640" version="1.1" xmlns:cc="http://creativecommons.org/ns#" xmlns:xlink="http://www.w3.org/1999/xlink" xmlns:dc="http://purl.org/dc/elements/1.1/">
 <metadata id="metadata3075">
  <rdf:RDF>
   <cc:Work rdf:about="">
    <dc:format>image/svg+xml</dc:format>
    <dc:type rdf:resource="http://purl.org/dc/dcmitype/StillImage"/>
   </cc:Work>
  </rdf:RDF>
 </metadata>
 <g id="flag">
  <rect id="rect124" height="480" width="640" y="0" x="0" stroke-width="1pt" fill="#006"/>
  <g id="g3104" stroke-width="1pt" transform="matrix(.81519 0 0 .81519 0 -.000018658)">
   <path id="path146" d="m0 0.000022888v30.436l392.24 241.79h49.374v-30.436l-392.24-241.79-49.37 0.000022888zm441.62 0v30.436l-392.25 241.79h-49.37v-30.44l392.24-241.79h49.374z" fill="#fff"/>
   <path id="path136" d="m184.01 0.000022888v272.23h73.603v-272.23h-73.603zm-184.01 90.743v90.743h441.62v-90.743h-441.62z" fill="#fff"/>
   <path id="path141" d="m0 108.89v54.446h441.62v-54.446h-441.62zm198.73-108.89v272.23h44.162v-272.23h-44.162z" fill="#c00"/>
   <path id="path150" d="m0 272.23 147.21-90.743h32.916l-147.21 90.74h-32.92zm0-272.23 147.21 90.743h-32.916l-114.29-70.452v-20.291zm261.5 90.743 147.2-90.743h32.916l-147.21 90.743h-32.916zm180.12 181.49-147.21-90.743h32.916l114.29 70.452v20.291z" fill="#c00"/>
  </g>
  <g id="g3087" fill-rule="evenodd" fill="#fff" transform="matrix(.85925 0 0 .85925 87.546 62.776)">
   <polygon id="polygon791" transform="matrix(.66592 .031497 -.030250 .65803 13.302 31.285)" d="m 659.70147,186.56717 7.73069,-29.84368 -25.29727,-17.61977 30.77193,-1.86988 8.94011,-29.50395 11.28741,28.68803 30.82257,-0.61468 -23.79593,19.60006 10.10929,29.12406 -25.99411,-16.57453 z" points="659.7 186.57 667.43 156.72 642.14 139.1 672.91 137.23 681.85 107.73 693.13 136.42 723.96 135.8 700.16 155.4 710.27 184.53 684.28 167.95"/>
   <polygon id="polygon794" transform="matrix(.61693 .25623 -.24608 .60962 134.3 -104.13)" d="m 659.70147,186.56717 7.73069,-29.84368 -25.29727,-17.61977 30.77193,-1.86988 8.94011,-29.50395 11.28741,28.68803 30.82257,-0.61468 -23.79593,19.60006 10.10929,29.12406 -25.99411,-16.57453 z" points="659.7 186.57 667.43 156.72 642.14 139.1 672.91 137.23 681.85 107.73 693.13 136.42 723.96 135.8 700.16 155.4 710.27 184.53 684.28 167.95"/>
   <polygon id="polygon795" transform="matrix(.63686 -.19987 .19195 .62931 -55.339 205.46)" d="m 659.70147,186.56717 7.73069,-29.84368 -25.29727,-17.61977 30.77193,-1.86988 8.94011,-29.50395 11.28741,28.68803 30.82257,-0.61468 -23.79593,19.60006 10.10929,29.12406 -25.99411,-16.57453 z" points="659.7 186.57 667.43 156.72 642.14 139.1 672.91 137.23 681.85 107.73 693.13 136.42 723.96 135.8 700.16 155.4 710.27 184.53 684.28 167.95"/>
   <polygon id="polygon796" transform="matrix(.51021 -.43522 .41799 .50416 -48.071 415)" d="m 659.70147,186.56717 7.73069,-29.84368 -25.29727,-17.61977 30.77193,-1.86988 8.94011,-29.50395 11.28741,28.68803 30.82257,-0.61468 -23.79593,19.60006 10.10929,29.12406 -25.99411,-16.57453 z" points="659.7 186.57 667.43 156.72 642.14 139.1 672.91 137.23 681.85 107.73 693.13 136.42 723.96 135.8 700.16 155.4 710.27 184.53 684.28 167.95"/>
   <polygon id="polygon797" transform="matrix(.27702 -.61506 .59070 .27374 57.965 621.23)" d="m 659.70147,186.56717 7.73069,-29.84368 -25.29727,-17.61977 30.77193,-1.86988 8.94011,-29.50395 11.28741,28.68803 30.82257,-0.61468 -23.79593,19.60006 10.10929,29.12406 -25.99411,-16.57453 z" points="659.7 186.57 667.43 156.72 642.14 139.1 672.91 137.23 681.85 107.73 693.13 136.42 723.96 135.8 700.16 155.4 710.27 184.53 684.28 167.95"/>
   <polygon id="polygon798" transform="matrix(.012887 -.67608 .64931 .012734 220.9 760.28)" d="m 659.70147,186.56717 7.73069,-29.84368 -25.29727,-17.61977 30.77193,-1.86988 8.94011,-29.50395 11.28741,28.68803 30.82257,-0.61468 -23.79593,19.60006 10.10929,29.12406 -25.99411,-16.57453 z" points="659.7 186.57 667.43 156.72 642.14 139.1 672.91 137.23 681.85 107.73 693.13 136.42 723.96 135.8 700.16 155.4 710.27 184.53 684.28 167.95"/>
   <polygon id="polygon799" transform="matrix(-.25789 -.62356 .59887 -.25484 431.53 817.88)" d="m 659.70147,186.56717 7.73069,-29.84368 -25.29727,-17.61977 30.77193,-1.86988 8.94011,-29.50395 11.28741,28.68803 30.82257,-0.61468 -23.79593,19.60006 10.10929,29.12406 -25.99411,-16.57453 z" points="659.7 186.57 667.43 156.72 642.14 139.1 672.91 137.23 681.85 107.73 693.13 136.42 723.96 135.8 700.16 155.4 710.27 184.53 684.28 167.95"/>
   <polygon id="polygon800" transform="matrix(-.45428 -.49489 .47530 -.44889 619.07 802.79)" d="m 659.70147,186.56717 7.73069,-29.84368 -25.29727,-17.61977 30.77193,-1.86988 8.94011,-29.50395 11.28741,28.68803 30.82257,-0.61468 -23.79593,19.60006 10.10929,29.12406 -25.99411,-16.57453 z" points="659.7 186.57 667.43 156.72 642.14 139.1 672.91 137.23 681.85 107.73 693.13 136.42 723.96 135.8 700.16 155.4 710.27 184.53 684.28 167.95"/>
   <polygon id="polygon801" transform="matrix(-.64713 -.16242 .15599 -.63946 848.5 625.64)" d="m 659.70147,186.56717 7.73069,-29.84368 -25.29727,-17.61977 30.77193,-1.86988 8.94011,-29.50395 11.28741,28.68803 30.82257,-0.61468 -23.79593,19.60006 10.10929,29.12406 -25.99411,-16.57453 z" points="659.7 186.57 667.43 156.72 642.14 139.1 672.91 137.23 681.85 107.73 693.13 136.42 723.96 135.8 700.16 155.4 710.27 184.53 684.28 167.95"/>
   <polygon id="polygon802" transform="matrix(-.64912 .15404 -.14794 -.64142 954.43 409.88)" d="m 659.70147,186.56717 7.73069,-29.84368 -25.29727,-17.61977 30.77193,-1.86988 8.94011,-29.50395 11.28741,28.68803 30.82257,-0.61468 -23.79593,19.60006 10.10929,29.12406 -25.99411,-16.57453 z" points="659.7 186.57 667.43 156.72 642.14 139.1 672.91 137.23 681.85 107.73 693.13 136.42 723.96 135.8 700.16 155.4 710.27 184.53 684.28 167.95"/>
   <polygon id="polygon803" transform="matrix(-.34579 .57812 -.55523 -.34169 880.42 -146.58)" d="m 659.70147,186.56717 7.73069,-29.84368 -25.29727,-17.61977 30.77193,-1.86988 8.94011,-29.50395 11.28741,28.68803 30.82257,-0.61468 -23.79593,19.60006 10.10929,29.12406 -25.99411,-16.57453 z" points="659.7 186.57 667.43 156.72 642.14 139.1 672.91 137.23 681.85 107.73 693.13 136.42 723.96 135.8 700.16 155.4 710.27 184.53 684.28 167.95"/>
   <polygon id="polygon804" transform="matrix(-.55770 .37046 -.35579 -.55109 1024.7 74.614)" d="m 659.70147,186.56717 7.73069,-29.84368 -25.29727,-17.61977 30.77193,-1.86988 8.94011,-29.50395 11.28741,28.68803 30.82257,-0.61468 -23.79593,19.60006 10.10929,29.12406 -25.99411,-16.57453 z" points="659.7 186.57 667.43 156.72 642.14 139.1 672.91 137.23 681.85 107.73 693.13 136.42 723.96 135.8 700.16 155.4 710.27 184.53 684.28 167.95"/>
   <polygon id="polygon805" transform="matrix(-.65982 .096477 -.092658 -0.652 1058.6 332.2)" d="m 659.70147,186.56717 7.73069,-29.84368 -25.29727,-17.61977 30.77193,-1.86988 8.94011,-29.50395 11.28741,28.68803 30.82257,-0.61468 -23.79593,19.60006 10.10929,29.12406 -25.99411,-16.57453 z" points="659.7 186.57 667.43 156.72 642.14 139.1 672.91 137.23 681.85 107.73 693.13 136.42 723.96 135.8 700.16 155.4 710.27 184.53 684.28 167.95"/>
   <polygon id="polygon806" transform="matrix(-.65232 -.13943 .13391 -.64459 1000.3 547.27)" d="m 659.70147,186.56717 7.73069,-29.84368 -25.29727,-17.61977 30.77193,-1.86988 8.94011,-29.50395 11.28741,28.68803 30.82257,-0.61468 -23.79593,19.60006 10.10929,29.12406 -25.99411,-16.57453 z" points="659.7 186.57 667.43 156.72 642.14 139.1 672.91 137.23 681.85 107.73 693.13 136.42 723.96 135.8 700.16 155.4 710.27 184.53 684.28 167.95"/>
   <polygon id="polygon807" transform="matrix(-.48374 -.46529 .44686 -.47801 800.73 785.25)" d="m 659.70147,186.56717 7.73069,-29.84368 -25.29727,-17.61977 30.77193,-1.86988 8.94011,-29.50395 11.28741,28.68803 30.82257,-0.61468 -23.79593,19.60006 10.10929,29.12406 -25.99411,-16.57453 z" points="659.7 186.57 667.43 156.72 642.14 139.1 672.91 137.23 681.85 107.73 693.13 136.42 723.96 135.8 700.16 155.4 710.27 184.53 684.28 167.95"/>
  </g>
 </g>
</svg>
