<?xml version="1.0" encoding="UTF-8" standalone="no"?>
<!-- Created with Sodipodi ("http://www.sodipodi.com/") -->
<svg id="svg697" xmlns:rdf="http://www.w3.org/1999/02/22-rdf-syntax-ns#" xmlns="http://www.w3.org/2000/svg" height="480" width="640" version="1.1" xmlns:cc="http://creativecommons.org/ns#" xmlns:dc="http://purl.org/dc/elements/1.1/">
 <metadata id="metadata3022">
  <rdf:RDF>
   <cc:Work rdf:about="">
    <dc:format>image/svg+xml</dc:format>
    <dc:type rdf:resource="http://purl.org/dc/dcmitype/StillImage"/>
   </cc:Work>
  </rdf:RDF>
 </metadata>
 <defs id="defs699">
  <clipPath id="clipPath3489" clipPathUnits="userSpaceOnUse">
   <rect id="rect3491" fill-opacity="0.67" height="480" width="640" y="0" x="0"/>
  </clipPath>
 </defs>
 <g id="flag" fill-rule="evenodd" clip-path="url(#clipPath3489)">
  <rect id="rect3447" height="480" width="640" y=".0000052634" x="0" stroke-width="1pt" fill="#0021ad"/>
  <path id="path3446" d="m0.000026362-1.434e-7 640 480-0.37-479.64-639.63-0.36z" fill="#1c8a42"/>
  <path id="path733" d="m227.5 97.284a34.922 34.922 0 1 1 -69.844 0 34.922 34.922 0 1 1 69.844 0z" transform="matrix(3.1467 0 0 3.1467 -287.54 -51.027)" fill="#ffc639"/>
  <path id="path732" d="m250.12 206.06c7.5171 10.323 18.903 27.606 28.068 23.098 7.1431 0.0233 10.838 0.52975 11.807 5.2803 16.864 2.8744 45.208-4.2417 62.832-27.202 0 0 1.4899 0.19253 0.9712-8.5373 0.0981-3.8076 5.2006-3.0387 5.3233-1.8112 0.71369 1.8909 0.58493 3.3097 1.5414 3.3563 2.1803-0.72963 5.1454-5.5943 7.6311-8.682 0.68058-1.3624 0.31024-2.8033 0.46844-4.5115 1.3097-3.23 4.5814-2.5249 5.2742-0.83754 0.61926 1.0889 0.62908 1.9289 1.2483 3.0178 3.3208 2.2122 9.3209 0.14716 9.7894 0.14716 0.58861-2.7052 2.3299-2.4513 2.3299-2.4513 2.2122-0.48928 1.3489-0.29185 2.7971 0.46598-1.2814 14.605 2.8732 15.249 2.5298 22.747 0.14838 8.3571-2.5298 10.734-2.5298 13.934 0.84981 3.8885 13.185 4.0234 8.8427 7.3221-3.8149 2.0393 0.0209 5.8555-5.7279 7.3331-16.693 8.4785-19.894 15.75-19.894 15.75s-4.1938 7.9242-4.6598 7.9242c-2.8033 5.2865-6.3472 2.3974-8.3129 4.9775-0.98471 3.2386-2.0908 10.409-0.12268 14.138 0.98224 5.1234-0.12268 7.918-1.3538 13.045-1.1061 10.691-5.3429 12.311-5.8322 16.07-1.9682 4.0075 0.41326 22.837-1.4494 22.837-12.436 0.24525-21.966-2.379-26.884-3.36 4.7948-20.653 2.9382-38.812 2.9382-40.674-1.2312-14.774-22.14-11.177-25.334-13.143-2.6561-0.5641-4.3238-2.7248-5.2583-3.658-2.9529-0.31025-4.059-0.99083-7.0118-1.2986-1.4764 0.73577-0.58617 1.501-3.8763 2.5114-8.3338 1.0055-12.021-7.2657-12.021-7.2657 0.40712-2.7886-18.741 0.56776-29.151-1.848-4.2687 2.379-6.1314 9.4141-9.6312 10.253-0.0994 2.1803-5.7463-1.7916-6.8855-3.9376-0.24402-6.243 5.441-9.0094 5.441-9.0094 4.5066-3.1687 7.1872-3.6899 9.3589-5.8763 1.0889-5.4373 0.53834-9.457 2.856-13.544 1.9608-3.1184 4.8524-1.6555 6.8132-3.0559 2.1141-1.3967 3.0019-10.541 1.0607-13.048 0 0-8.4392-7.6139-8.904-8.0787-2.7481-7.8764 3.208-12.948 4.9174-12.378z" fill="#1c8a42"/>
  <path id="path3443" d="m579.51 72.574c-2.8399-11.235-28.252-35.433-47.35-50.832-4.5623-3.1062-7.5336-1.2561-6.94 3.1726 2.3798 3.9659 4.1616 8.3263 6.5428 12.292 0.66084 2.6432 1.9161 4.4933 2.577 7.1366 0 0 0.1972 4.5596 0.5965 4.9561 5.9462 6.5448 6.7392 12.095 6.7392 12.095 3.4364 6.6092 6.4756 11.433 12.491 16.852 6.7406 4.2294 1.7818 17.381 1.9812 24.388 0 4.428-3.1707 3.8994-5.9469 3.3693-21.874-20.09-43.552-20.156-62.653-25.971-7.4658-0.79371-7.5987 2.7756-5.1532 4.7567 13.349 14.276 25.907 23.991 42.429 32.119 2.7756 1.7189 5.5497 3.4371 8.326 5.156 3.1728 2.6427 6.3434 5.2861 9.5162 7.9295 7.3358 4.7588 7.9316 9.1211 7.9316 9.5155 0.19652 8.9225-4.5616 15.861-5.9497 18.637-2.5049 9.4624-7.5323 11.103-7.5323 11.103-40.842 27.559-62.256 34.696-128.48 26.17-0.99093-0.52869-7.3365 0.52866 0 3.1728 16.854 5.6169 58.252 14.623 98.303-4.3441 9.6162-6.742 16.05-4.5301 23.016-8.5658 11.437-7.0532 27.775-15.837 30.749-16.828 8.9218-4.7588 33.902-10.112 39.652-14.871 6.6085-0.52939 13.455-1.3958 13.918-7.0791 2.1734-1.4014 5.3434-0.37901 7.7036-5.005 5.2329-0.9112 4.3518-2.7867 4.3518-2.7867-1.321-3.6994-6.2127-5.2204-9.7134-7.9288-5.156-1.7196-8.7232-2.2476-12.492-0.39792-1.1895 0.53007-2.379 1.0581-3.5686 1.5867 0 0-5.5511-0.79232-5.5511-1.1888-12.337-0.67693-11.136-41.559-15.499-58.61z" fill="#ffc639"/>
  <path id="path3445" d="m354.38 73.886a2.0703 1.3672 0 1 1 -4.1406 0 2.0703 1.3672 0 1 1 4.1406 0z" transform="matrix(1.4308 .44936 -.48050 1.3381 117.1 -185.57)" fill="#1c8a42"/>
  <polygon id="polygon3449" d="m 73.826341,356.02127 -13.802536,-12.92086 -13.96742,12.74244 1.496193,-18.84728 -18.670985,-2.97538 15.668257,-10.58132 -9.314917,-16.45269 18.041805,5.6526 7.055472,-17.54078 6.829506,17.62999 18.112948,-5.42031 -9.525551,16.33164 15.531004,10.78177 -18.707674,2.73523 z" points="73.826 356.02 60.024 343.1 46.056 355.84 47.553 337 28.882 334.02 44.55 323.44 35.235 306.99 53.277 312.64 60.332 295.1 67.162 312.73 85.275 307.31 75.749 323.64 91.28 334.42 72.572 337.16" transform="matrix(1.0128 0 0 1.0128 6.0636 53.133)" stroke-width="1pt" fill="#fff"/>
  <polygon id="polygon3451" d="m 73.826341,356.02127 -13.802536,-12.92086 -13.96742,12.74244 1.496193,-18.84728 -18.670985,-2.97538 15.668257,-10.58132 -9.314917,-16.45269 18.041805,5.6526 7.055472,-17.54078 6.829506,17.62999 18.112948,-5.42031 -9.525551,16.33164 15.531004,10.78177 -18.707674,2.73523 z" points="73.826 356.02 60.024 343.1 46.056 355.84 47.553 337 28.882 334.02 44.55 323.44 35.235 306.99 53.277 312.64 60.332 295.1 67.162 312.73 85.275 307.31 75.749 323.64 91.28 334.42 72.572 337.16" transform="matrix(.79767 0 0 .79767 116.49 18.326)" stroke-width="1pt" fill="#fff"/>
  <polygon id="polygon3452" d="m 240.50642,428.32541 -23.60735,-11.90224 -9.43503,24.69717 -8.27677,-25.10907 -24.13511,10.79197 11.90224,-23.60735 -24.69718,-9.43504 25.10907,-8.27676 -10.79196,-24.13512 23.60735,11.90224 9.43503,-24.69718 8.27677,25.10908 24.13511,-10.79197 -11.90224,23.60735 24.69718,9.43504 -25.10907,8.27676 z" points="240.51 428.32 216.9 416.42 207.46 441.12 199.19 416.01 175.05 426.8 186.95 403.2 162.26 393.76 187.37 385.48 176.57 361.35 200.18 373.25 209.62 348.55 217.89 373.66 242.03 362.87 230.13 386.48 254.82 395.91 229.71 404.19" transform="matrix(.77960 0 0 .77960 2.2716 204.54)" stroke-width="1pt" fill="#fff"/>
  <polygon id="polygon3455" d="m 269.57019,243.43115 -13.75475,-0.61336 -6.8041,11.9697 -6.34619,-12.21864 -13.76811,0.0923 7.40856,-11.60528 -6.96402,-11.87737 13.75476,0.61336 6.80409,-11.9697 6.34619,12.21864 13.76811,-0.0923 -7.40856,11.60528 z" points="269.57 243.43 255.82 242.82 249.01 254.79 242.66 242.57 228.9 242.66 236.31 231.06 229.34 219.18 243.1 219.79 249.9 207.82 256.25 220.04 270.02 219.95 262.61 231.55" transform="matrix(1.0126 -.014871 .014871 1.0126 -2.7427 157.47)" stroke-width="1pt" fill="#fff"/>
  <polygon id="polygon3461" d="m 159.75957,320.13498 -12.93016,-8.8571 -12.58938,9.33513 4.42796,-15.03431 -12.76857,-9.0885 15.66679,-0.43461 4.69798,-14.95213 5.25464,14.7657 15.67208,-0.15243 -12.41924,9.56032 z" points="159.76 320.14 146.83 311.28 134.24 320.61 138.67 305.58 125.9 296.49 141.57 296.06 146.26 281.1 151.52 295.87 167.19 295.72 154.77 305.28" transform="matrix(.91834 0 0 .89434 38.974 151.64)" stroke-width="1pt" fill="#fff"/>
 </g>
</svg>
