<?xml version="1.0" encoding="UTF-8" standalone="no"?>
<!-- Created with Sodipodi ("http://www.sodipodi.com/") -->
<svg id="svg559" xmlns:rdf="http://www.w3.org/1999/02/22-rdf-syntax-ns#" xmlns="http://www.w3.org/2000/svg" height="480" width="640" version="1.1" xmlns:cc="http://creativecommons.org/ns#" xmlns:dc="http://purl.org/dc/elements/1.1/">
 <metadata id="metadata3056">
  <rdf:RDF>
   <cc:Work rdf:about="">
    <dc:format>image/svg+xml</dc:format>
    <dc:type rdf:resource="http://purl.org/dc/dcmitype/StillImage"/>
   </cc:Work>
  </rdf:RDF>
 </metadata>
 <g id="flag">
  <rect id="rect4964" height="480" width="640" y="0" x="0" fill="#fff"/>
  <polygon id="polygon565" fill="#808080" fill-rule="evenodd" transform="matrix(.56176 0 0 .56176 -93.752 -60.109)" d="m 699.33337,498.1459 3.01619,-3.97839 -1.56739,-4.74007 4.71573,1.63917 4.02372,-2.95543 -0.1017,4.99145 4.05419,2.91351 -4.77859,1.44572 -1.5181,4.75608 -2.85162,-4.09795 z" stroke-width="1pt" points="699.33 498.15 702.35 494.17 700.78 489.43 705.5 491.07 709.52 488.11 709.42 493.1 713.47 496.02 708.7 497.46 707.18 502.22 704.33 498.12"/>
  <path id="path568" d="m164.84 244.11h0.30828c-0.82281 0-0.39051-0.0627 0.92556 0.94204 1.076 0.43778 2.0229 0.62828 3.7016 0.62828 1.4717 0.10678 2.7452 0.31376 4.3189 0.31376 1.4474 0.62155 2.2717 1.1893 3.3933 1.5696 0.49471 0.76275 1.5737 2.4713 2.1594 3.1399 1.0863 0.81353 2.3972 1.3103 3.3933 2.1978 1.2412 0.3444 2.031 0.88152 3.3933 1.8833 1.0254 0.49454 1.995 0.90168 3.3933 1.5703 1.3425 0.47214 2.8098 1.1042 4.0098 1.5696 1.057 0.25326 2.4699 0.6858 3.3933 1.2558 1.3109 0.28986 2.4112 0.6619 4.0106 0.94205 1.6332 0.19796 2.4574 0.63723 4.0099 0.94202 1.3939 0.71793 2.4802 1.2536 4.0106 1.8841 0.62097 0.92933 1.1546 1.7653 2.4677 2.1971 0.67453 0.83148 1.7932 1.0526 2.4677 1.8841 0.99382 0.47885 2.0882 0.79637 3.3933 1.2558 1.573 0.1143 2.7077 0.56926 4.3189 0.62827h4.3189 4.3189c1.377 0.16661 2.9191 0.38623 4.0098 0.62754 1.5098 0 2.9815 0.0261 4.3189-0.31376 1.7264-0.0208 2.5316-0.51249 4.0106-0.62829 1.65 0.2667 2.7694 0.11947 3.3933 1.5703 1.0224 1.0406 1.6442 2.0596 1.8504 3.4536 0.32517 0.99283 0.30902 2.6341 0.30902 4.0812 0 1.3641 0.007 2.85 0.30828 3.7682 0.9821 0.96444 1.7476 1.2491 3.085 1.5696 0.99164 0.33618 2.8186 0.62978 3.7016 1.2558 0.72886 0.77844 1.0856 2.0148 2.1594 2.8261 0.93878 0.73362 2.5088 0.88677 4.0098 0.9413h4.3189c1.3484 0 3.1379 0.13069 4.0106-0.31377 1.3359-0.49455 1.6867-1.4142 3.3933-1.5696 1.6075 0.24651 1.5744 1.0212 2.776 1.5696 0.76484 1.1221 1.49 1.5853 2.4677 2.1978 0.63418 0.92261 1.4636 1.639 2.7767 1.8841 1.6074-0.16584 3.0615-0.64546 4.3188-0.94203 0.43968-1.1206 0.97842-1.8938 1.5421-2.8261 0.41838-0.72017 0.61656-0.90542 0.61656-2.1978 0.46169-0.9383 0.40444-2.847 0-4.0812-0.058-1.5979-0.42499-2.4421-0.61656-4.0819 0-1.5218 0.0713-2.9703 0.30828-4.0812 0.63418-0.74482 1.0467-1.9633 1.5429-2.8261 0.84118-1.0272 1.6207-1.4134 2.776-1.8833 0.97621-0.33094 2.5881-0.31451 4.0106-0.31451 0.75455-0.23008 2.0075-0.15392 1.5421-0.62752-0.40003 0.40714-1.9348 0.53563-0.30828 0.62752 0.8852-0.61109 2.5-0.89198 3.3933-1.2558 1.3175-0.2017 2.1073-0.6574 3.3933-0.94128 0.96155-0.573 2.0376-0.84717 3.3933-1.2566 1.1172-0.43254 2.3738-0.85538 3.7016-1.2558 1.4203-0.67908 2.296-1.0623 3.7016-1.2558 0.96741-0.5192 2.1822-0.62753 3.7023-0.62753 1.4254 0.93009 2.1734 1.6592 3.3933 2.8254 0.58281 0.87331 1.1047 1.3985 1.5421 2.5116 0.98724 0.68355 1.515 1.1878 3.3933 1.2558 1.4856 0 2.075 0.25849 2.4677-0.94128 0.81181-0.7366 1.2324-2.0395 2.1594-2.8261 0.92043-0.92036 2.0574-1.388 3.085-1.8833 1.1582-0.32197 2.0941-0.74781 3.7016-0.94205 1.0702-0.39817 2.1763-0.48259 3.3933 0.31377 0.90575 1.2872 1.9282 2.6012 3.085 4.0819 0.78463 0.51696 1.7455 0.62752 3.0843 0.62752 0.94173-0.47886 2.8846-0.31376 4.3188-0.31376 1.2632 0.36979 1.8152 1.217 3.085 1.5696 0.70979 0.0725 1.0922 0.31376 1.8512 0.31376 2.2563 0.29807 3.1951 0.0717 4.9354-0.31376h4.3189c1.5157 0.0575 2.3326 0.31376 4.0098 0.31376 0.93732 0.57897 2.544 0.84791 3.7023 1.2566 1.4599 0.34961 1.7388 0.91365 3.0843 1.5696 0.87272 0.44375 2.6622 0.31376 4.0106 0.31376 1.6104-0.19498 2.6806-0.47363 4.0098-0.94204 1.1707-0.2906 1.6662-0.59167 2.1594-1.5696 0.76704-0.53042 1.8255-1.3798 2.4684-2.1978 0.84704-0.58643 1.5825-1.335 2.1587-2.1978 0.83089-0.55806 2.2277-1.9797 2.7767-2.8254 0.78831-0.64246 1.6309-1.9879 2.1594-2.8261 0.67675-1.0235 1.5311-1.6166 2.1594-3.1391 0.48078-1.468 0.5439-2.6184 0.92558-4.0819 0.31782-1.1863 0.90135-2.1904 1.2339-3.7674 0.62683-1.3746 1.1289-2.7156 1.5421-3.7682 0.75748-0.86433 1.2595-1.9095 2.1594-2.8254 0.51601-0.81206 1.2038-1.2252 1.8512-1.8841 0.73473-0.7127 1.8431-1.2401 3.0843-1.5696 1.2742-0.35336 1.8254-0.92186 2.4677-1.8841 1.1663-0.3952 1.8541-0.90694 3.3933-1.2558 1.3535-0.40789 2.4618-0.66711 3.7023-0.94204h4.3188c1.5554 0 2.8949 0.14191 4.3181 0.31452 1.4064 0.40863 2.7261 0.76498 4.0106 0.94204 0.88301 0.42508 2.3518 1.202 3.085 1.8833 0.92117 0.61931 1.9275 1.6189 2.4677 2.5116 0.40295 1.2319 1.0584 1.7757 1.8504 2.8261 0.82429 1.0914 1.5179 1.7817 3.085 2.5116 1.2485 0.29435 2.271 0.82998 3.7016 0.94204 1.639 0 2.6307 0.2062 4.0106 0.31376 1.5091 0 2.9815 0.0261 4.3189-0.31376 1.3469-0.79187 1.8298-1.0033 2.776-2.1978 1.2441-0.62304 2.1477-1.1176 3.7023-1.2558 1.0217-0.22635 2.2879-0.31376 3.7016-0.31376 0.80079 0.55881 1.6508 0.76947 2.1594 1.5696 0.81254 0.58569 0.86613 0.90318 2.1594 0.94204 0.88226 0.52518 2.1814 0.77545 3.3933 0.94204h4.3181-4.3181 4.3181c1.1825-1.0108 1.5429-0.89572 1.5429-2.1978 0.95494-0.77842 1.4284-1.8706 2.4677-3.1399 0.56371-0.93157 1.1025-1.7055 1.5421-2.8261 0.3369-1.0287 0.75601-2.6065 0.92558-3.7674 0.38975-1.0414 0.75748-2.6423 0.92558-4.0812 0.37359-1.4508 0.61729-2.7477 0.61729-4.3957v-4.3957c-0.0184-1.5524-0.24737-2.6379-0.61729-3.7674-0.48886-1.3873-1.3065-2.401-1.8512-3.4536-0.9131-0.73436-2.0405-1.7638-2.776-2.5116-1.4027-0.86061-2.4655-1.4874-3.7016-2.1978-1.3513-0.85164-2.649-1.5905-3.7023-2.1978-0.61875-0.70446-1.6243-1.6719-2.1587-2.1978-0.42278-0.85988-0.42278-2.9083 0-3.7674 0.036-1.3074 0.17248-2.0604 0.92483-2.8261 1.4056-0.51323 2.343-1.1893 3.3933-1.8841 0.68189-0.97118 1.7506-1.158 3.085-2.1971 1.3352-0.59614 2.0919-0.90917 3.085-1.8841 1.443-0.49008 2.7899-1.4881 4.0099-1.8841 0.66059-0.8128 1.8974-1.4852 3.3933-1.8834 1.0702-0.7418 2.351-1.5307 3.3933-1.884 1.4526-0.78367 2.5316-1.0593 4.0106-1.8841 1.5084-0.38322 2.8553-1.0735 4.3189-1.5696 0.37507-0.46692 0.82281-0.8128 1.5421-0.94205 1.9201-0.11577 3.521-0.32571 4.6271-1.2558 1.2405-0.44748 1.3689-1.3537 2.1594-2.1978 0.56738-1.0384 1.1869-1.4986 1.5421-2.8254 0.98135-1.0728 0.43892-1.3873-1.2339-1.5703-0.52628-0.53565-1.0012 0.005-1.2339-0.9413-1.1069-0.50576-1.396-1.3836-2.1594-2.1978-0.46608-1.2976-0.45508-1.8811 0.92556-2.5123 0.86026-0.59465 2.0846-0.79488 2.7767-1.5696 1.2852-0.19722 2.2615-0.76199 3.3933-1.2558 1.6765-0.12181 2.5683-0.50725 4.0099-0.94203 1.2272-0.66712 2.0244-1.0586 3.085-1.5696 1.2683-0.5588 2.7804-1.3477 4.0098-1.8841 1.1061-0.75004 2.511-1.4836 4.0106-1.8833 1.1047-0.5715 2.4633-1.0205 3.7016-1.5703 1.057-0.25324 2.4699-0.68504 3.3933-1.2558 1.4218-0.27566 2.961-0.79785 4.0106-1.2558 1.032-0.47439 2.2475-1.0713 3.0843-1.5696 1.2779-0.56253 2.1902-1.2356 3.394-1.5703 0.72886-0.70747 1.711-1.2087 2.776-1.5696 0.86831-0.82026 2.7151-1.9536 3.7016-2.5116 0.93585-0.45123 2.0295-0.91066 2.7767-1.5703 0.71785-0.0808 0.51527-0.23233 1.2338-0.31376 2.2483-0.68879 3.3962-0.94503 4.6272-2.1978 0.95641-0.46093 1.94-0.96144 2.776-1.5696 1.029-0.83147 1.8489-1.5845 2.4677-2.5116 1.123-0.40565 1.7381-1.1975 2.7767-1.8841 1.076-0.43777 2.0236-0.62827 3.7016-0.62827 1.3491 0 3.1378 0.13069 4.0106-0.31376 1.9355-0.0233 2.4391-0.49605 3.7016-1.2558 0.41764-1.1983 1.3094-1.7974 2.4677-2.5116 0.68261-0.63426 2.4083-1.5838 3.085-2.1978 1.3352-0.65069 1.9121-1.4807 3.085-2.5116 0.90576-0.9921 2.0405-1.9095 3.0843-2.5116 1.297-0.57522 2.2262-0.8337 3.3933-1.2558 1.4607-0.2652 2.9287-0.53787 4.3159-0.94203 1.5781-0.12327 2.1359-0.59318 3.3984-0.94205 0.87347-0.84791 1.4019-1.2752 2.4662-2.5116 0.52114-1.4426 1.2918-1.9707 2.7745-2.1978 1.49-0.79264 2.6864-0.88676 3.7067-1.8841 1.0423-1.0631 1.7616-2.2591 2.7745-3.4536 0.5725-1.3529 1.1083-2.1665 1.2331-3.7674-0.0219-1.9266-0.43306-2.2038-1.2331-3.4536-0.77073-1.1251-1.2552-1.8407-1.8497-2.8261-0.96153-0.55282-2.3268-1.1019-3.3984-1.5696-1.468 0.11504-2.3708 0.45048-3.3911 0.94205-1.0496 0.86358-1.7763 1.5733-2.4662 2.8254-0.46976 1.0115-0.78538 2.1254-1.2331 3.4536-0.58721 0.85388-1.9891 1.6644-3.0902 2.1978-1.2918 0.57524-2.2167 0.83373-3.3911 1.2558-1.4606 0.51398-2.1418 0.95848-3.7008 1.5703-0.91237 0.43927-2.1748 1.1146-3.085 1.5696-1.3418 0.8128-2.627 1.4463-3.7016 1.8841-1.3682 0.79038-2.1499 1.2244-3.3933 1.5696-1.4027 0.84939-2.7606 1.4934-4.0106 2.1978-1.0371 0.51845-2.0493 1.1915-3.3933 1.8841-1.0907 0.2413-2.6336 0.46093-4.0098 0.62752h-4.6279c-1.3183-0.30927-2.8868-0.57896-4.3181-1.2558-1.5363-0.80982-2.2879-1.3223-3.3933-2.1978-0.67602-1.3395-0.90429-1.9797-0.92558-3.7674-0.95861-0.48783-2.2849-0.61035-3.7016-0.62827-1.5649 0-3.016-0.0591-4.0106 0.62827-1.3432 0.20321-2.4721 0.75602-3.3933 1.5696-1.4203 0.68729-2.3481 1.5158-3.3933 2.1978-1.0871 0.66712-2.4934 1.6659-3.7016 2.1978-1.1355 0.49529-2.911 1.0376-4.3189 1.5696-1.8115 0.52967-3.1217 1.1139-4.9354 1.2566-1.5487 0.71269-2.7628 0.92485-4.3189 1.5696-1.5796 0.59765-2.6952 1.0384-4.3189 1.5696-1.0709 0.55431-3.005 1.4807-4.0106 2.1978-1.8424 0.93755-3.1907 1.7339-4.6272 2.5116-1.4438 0.61708-2.4897 1.2028-4.0098 1.8841-0.74721 0.67757-2.2277 1.2087-3.085 1.8841-1.3762 0.35035-2.9573 0.92783-3.7016 1.5696-1.217 0.1487-1.893 0.47512-2.4677 1.2558-1.0995 1.3425-0.61877 1.2558-1.8512 1.2558-1.054 0.65143-2.693 0.62826-4.3189 0.62826-1.6456-0.0448-2.9411-0.3145-4.6271-0.3145-1.4474-0.26296-2.7701-0.57151-4.3189-0.62754h-4.3189-4.3181-4.3189-4.9362-4.3181-4.3189c-1.639 0-2.6306 0.20618-4.0106 0.31378-1.5348 0.11208-2.7312 0.45196-4.0099 0.62826-1.3902 0.21291-2.0258 0.74481-3.085 1.2558-0.97402 0.46989-1.9561 0.94277-3.085 1.2558-1.5142 0.81504-3.2568 1.2424-4.9354 1.5696-1.2669 0.59841-3.0659 0.91814-4.0106 1.5703-1.446 0.11282-2.3921 0.51023-4.0098 0.62752-1.374 0.63276-2.5059 0.96969-3.7023 1.2558-1.1091 0.37651-2.1763 0.60959-3.7016 0.62827-1.4269 0.19648-2.2137 0.60512-3.7016 0.94204-0.52922 0.45345-1.374 0.77619-2.1594 0.94128-1.8122 0.87406-2.406 0.94205-4.3189 0.94205h-4.3189c-2.0574-0.20321-4.0994-0.46467-6.1693-0.94205-2.1117-0.10309-4.1258-0.37427-6.17-0.62752h-4.6271-4.6272-4.3188c-1.6302-0.059-3.0777-0.37651-4.6271-0.62827-1.4504-0.26372-2.983-0.39147-4.3181-0.94129-1.9187-0.10308-3.8594-0.36756-5.5527-0.94204-1.5429-0.28014-3.0219-0.80757-4.6271-0.94204-0.89108-0.55058-2.6387-0.73361-3.3933-1.2558-1.4108-0.11061-2.583-0.55656-3.3933-1.2558-1.443-0.21814-2.2791-0.86584-3.7023-1.2558-1.2816-0.78964-2.8288-1.0541-4.6271-1.8841-1.5319-0.33392-3.0652-0.88524-4.6271-1.2558-1.2302-0.43329-2.7298-0.84565-3.7016-1.5696-1.3638-0.37874-2.1462-0.78738-3.7016-1.2565-0.72664-0.65815-2.1565-1.3477-3.085-1.8833-0.67455-0.61183-2.4472-1.6629-3.3933-2.1978-1.0048-1.1841-2.0185-2.3518-3.3933-3.7674-0.9542-1.0593-2.0434-1.911-3.085-2.5124-1.3373-0.567-2.8523-1.3776-3.7016-1.8833-1.1685-0.32422-2.1117-1.0474-2.7767-1.8841-1.0518-0.6066-1.7381-1.1475-2.776-1.8833-1.6119 0.62156-1.7814 0.31376-3.3933 0.31376-1.8387-0.15392-3.1914-0.21142-4.9354 0-1.5084 0.1808-2.9837 0.31378-4.6279 0.31378h-4.3181c-1.9517 0.0239-2.2673 0.28089-2.7767 1.8841-0.89768 1.0048-1.2728 2.1814-2.1594 2.8254-0.76114 0.9824-1.8592 1.651-3.085 2.1978-1.523 1.072-1.9825 1.4598-2.776 2.8261-1.01 0.90096-1.8519 2.1896-2.4677 3.1391-0.56003 0.97489-0.93584 1.8781-1.2338 3.4536 0 1.5023 0.12107 3.0831-0.30828 4.3957 0 1.5023 0.12107 3.0831-0.30902 4.3957v4.3957 4.3957c0.64298 0.96221 1.5091 1.3313 1.8512 2.8254 0.45728 1.2409-0.38975 0.79637-1.2338 1.5696h-4.3189-4.3189c-1.573 0-2.8464-0.20693-4.3188-0.31376-1.2464-0.22635-3.0711-0.30927-4.0098-0.62752h-4.3189c-1.5348-0.11208-2.7312-0.45198-4.0106-0.62828-1.7866-0.34662-3.0226-0.87255-4.6272-1.8841-1.6427-0.35785-2.8971-0.98761-4.3188-1.8833-1.5319-0.40863-2.7459-1.2274-4.3181-1.5703-1.0584-0.5095-1.8152-1.0033-3.085-1.5696-0.74648-1.0399-1.4665-1.6196-3.085-1.8841-1.2412-0.64845-2.293-0.62753-4.0099-0.62753-1.6074 0.19424-2.5433 0.62005-3.7023 0.94204-1.2852 0.59167-2.961 1.0952-4.0098 1.5696-1.0489 0.42731-2.0016 1.001-3.085 1.5696-0.82942 1.0862-1.3146 1.7354-1.8512 2.8261-0.41102 0-0.30828-0.10457-0.30828 0.31377-1.6618 0.0605-3.4094 0-5.2437 0-0.87054 0.44301-2.5639 0.53864-3.7023 0.62827-0.90356 0.7112-1.9722 1.3275-2.776 1.8833-0.53215 1.0832-0.9043 1.3716-0.92558 3.1399 0.066 1.8759 0.72812 2.4212 1.2339 3.7674-0.37141 1.7123-1.0313 1.8542-2.4677 2.1978-1.0915 0.24129-2.5147 0.31376-4.0106 0.31376h-4.6271-4.6272c-1.777 0-2.6123 0.0202-3.3933-0.94129-0.53655-1.0646-0.5872-2.4212-0.92558-3.4536-0.91895-1.2723-1.3293-2.1261-2.776-3.1399-0.31854-0.97267-1.0826-2.4003-1.5421-3.4536-0.49472-1.0616-0.87638-1.9991-1.8511-2.8261-1.0254-0.96893-2.1873-1.5979-3.085-2.5116-1.032-0.67384-1.8607-1.2334-3.7016-1.2558-1.4952 0-2.9191 0.0726-4.0106 0.31376-0.75161 0.66414-2.0089 1.3731-3.0842 2.1978-0.85293 1.1572-1.609 2.0014-2.7767 3.1399-1.3161 1.2282-2.6255 1.9737-3.7016 2.5116-0.98577 0.50202-1.9914 1.1213-2.7767 2.1978-0.91603 0.4064-1.3608 1.0885-1.8504 2.1978-0.80519 0.73062-1.2669 1.9476-1.5429 3.1399-0.50279 1.5367-0.57178 3.302-0.61655 5.0232v4.3957c-0.48812 0.59019-0.75163 1.2177-1.5421 1.8841-0.75529 0.6843-1.8908 1.4328-2.7767 1.8833-0.85952 1.1251-1.3953 1.7855-1.5421 3.4536 0 1.3723-0.12769 3.1936 0.30828 4.0819 0.6239 0.88899 1.8827 1.5031 3.085 2.1978 1.1553 0.41686 1.755 1.3283 2.4677 2.5116 1.3212 0.60361 1.1582 1.1624 2.776 1.2558 0.9799 0.78366 2.4831 1.0294 3.7023 1.5696 1.2346 0.3429 1.8497 0.91366 3.0843 1.2558 0.79932 1.0593 1.6801 1.7466 2.1594 3.4536 0.12988 1.0974 0.55637 2.1971 0 3.1399-1.2566 0.76125-2.9426 1.2461-3.7016 1.8841-0.99825 0.0531-0.92411 0.2891-1.5421 0.62752-0.0127 2.0985-0.28774 3.1682-0.6173 4.7094-0.10568 1.4045-0.30828 2.4137-0.30828 4.0819v4.3957c0.65619 1.3948 1.523 1.6547 2.4677 2.5116 0.94026 0.68355 1.2331 1.4889 1.5421 2.8254 0.52921 1.2282 1.0929 2.2524 1.5429 3.4536 0.56225 1.2028 0.92558 2.2942 0.92558 4.0819-0.15407 1.719-0.86025 2.0148-2.1594 2.8254-0.68997 0.85016-0.46316 2.3547-0.92558 3.7681 0 1.4471-0.0169 3.0884 0.30828 4.0812 0.52847 0.71717 0.40002 1.0175 0.6173 2.1978z" fill-rule="evenodd" fill="#ffce00"/>
  <g id="g3317" fill-rule="evenodd" fill="#009a00" transform="translate(25.62)">
   <g id="g588" transform="matrix(0.734 0 0 .74706 -160.21 -163.25)">
    <path id="path569" d="m460.16 634.92l-0.683-0.683c1.55 1.549 0.802 0.981-0.683-2.731-0.145-3.936-1.098-4.57-3.413-6.145-2.715-0.904-3.875-2.064-4.779-4.779-1.736-1.433-3.042-3.351-4.097-5.462-1.876-1.275-3.503-2.903-4.779-4.779-1.876-1.276-3.503-2.903-4.779-4.779-2.594-0.906-4.306-2.751-7.51-4.096-1.803-1.719-3.497-2.567-6.145-4.097-2.963-1.419-3.132-2.446-6.827-2.731-1.13 1.244-2.92 0.755-3.414 2.731 0.15 4.046 0.955 4.894 2.731 8.193 0.138 3.729 1.14 5.484 2.731 8.193 1.939 1.357 3.431 3.769 5.462 5.462 2.168 1.474 3.03 3.04 6.145 4.779 1.627 2.035 4.347 3.126 6.827 4.779 3.054 1.178 5.559 2.087 7.51 3.414 2.74 0.644 4.611 1.681 6.827 2.731 3.277 0.307 4.611 0.673 8.876 0z"/>
    <path id="path570" d="m474.5 654.03l-0.682-0.682c1.621 1.621 0.848 0.958-1.366-2.731-2.524-2.39-3.07-4.221-6.827-4.78-2.006-0.802-5.262-1.298-7.51-2.048-3.887 0-5.668-0.415-8.876-1.365-2.293-0.626-5.194-1.738-7.51-2.731-2.746-0.408-5.589-1.482-8.193-2.048h-9.558c-3.067 0.721-4.793 0.753-5.462 4.096 1.4 1.695 3.248 3.173 4.779 4.779 0.863 2.999 2.946 3.714 4.779 5.462 3.161 1.094 3.803 1.911 7.51 2.048 3.143 1.048 5.428 1.324 8.876 1.366 3.657 0 6.287 0.742 9.558 1.365 2.724 0.368 5.396 0.683 8.876 0.683 2.966 0 6.197-0.017 8.193-0.683 4.302-3.441 3.413-4.188 3.413 0.683 0.456 0.455 0.911 0.91 1.366 1.365"/>
    <path id="path571" d="m497.71 664.27h-0.682c1.843 0 0.907 0.045-2.731-0.682-3.405-0.973-5.339-1.918-8.876-2.049-2.101-1.228-4.68-1.365-8.193-1.365h-9.558c-3.38 0.26-4.813 1.105-8.193 1.365-1.794 1.05-5.358 1.912-7.51 2.731-1.92 1.306-3.559 2.929-6.145 4.097 0.596 3.391 2.479 4.668 4.78 6.144 2.31 0.925 4.685 1.798 8.192 2.049 3.355 0.124 5.163 0.682 8.876 0.682 3.479 0 6.152-0.314 8.876-0.682 2.266-1.074 4.194-2.199 7.51-2.731 1.653-1.433 4.073-2.433 6.144-3.414 1.834-0.868 4.329-1.669 6.145-2.731l-6.145 2.731c1.834-0.868 4.329-1.669 7.51-6.145z"/>
    <path id="path573" d="m529.8 679.98v-0.682c0 1.908 0.085 0.894-1.365-2.731-2.527-1.332-5.559-2.273-7.511-3.414-2.984 0-6.944-0.283-8.875 0.683-3.448 0.041-5.733 0.318-8.876 1.365-2.996 0.452-4.723 1.5-6.827 2.731-2.378 1.283-5.824 2.934-8.876 4.096-2.698 1.881-3.612 2.984-6.827 4.78-2.025 2.219-4.098 3.552-5.462 5.462-0.606 2.304 0.039 5.022 2.731 6.144 1.702 1.406 4.316 2.14 6.827 2.731 3.187-0.118 6.001-0.56 8.193-2.048 3.383-0.448 5.393-1.44 8.193-2.048 2.396-0.851 4.69-1.667 7.51-2.049 1.953-1.324 5.416-2.467 7.51-3.413 3.43-1.389 5.621-3.221 8.193-4.779 1.226-1.419 2.862-2.951 4.779-3.414l-4.779 3.414c1.226-1.419 2.862-2.951 5.462-6.828z" transform="matrix(1 0 0 .85157 1.1887 101.1)"/>
    <path id="path574" d="m557.11 693.63c-0.127-0.032-3.176-1.365-5.461-1.365-2.024-1.184-5.299-1.422-8.193-2.731-3.731 0-6.271 0.418-8.193 2.048-2.838 0.383-5.375 1.217-7.51 2.731-2.658 0.625-5.07 1.21-7.51 2.731-3.294 1.382-4.744 2.679-6.828 4.096-1.405 1.701-4.441 2.652-6.144 4.097-1.529 1.851-1.526 4.299-0.683 6.827 1.748 1.076 4.736 2.144 6.827 3.414 3.052 0.545 6.162 0.682 9.559 0.682 3.031-0.233 5.588-0.741 7.51-2.048 3.434-1.654 4.348-2.876 6.827-4.779 1.434-1.736 3.833-3.133 6.145-4.096 1.742-1.51 3.856-2.614 6.827-3.414 1.663-1.585 3.194-3.117 4.779-4.779 1.909 0 0.598 0.211 2.048-3.414z" transform="matrix(1 0 0 .88839 0 76.96)"/>
    <path id="path575" d="m587.15 696.36c-0.164-0.025-3.855-0.683-6.145-0.683-1.931-0.965-5.891-0.683-8.875-0.683-3.762 0.14-4.925 0.917-6.828 2.731-1.935 1.191-4.271 2.261-6.144 4.097-2.394 1.467-4.551 3.489-6.828 4.779-2.505 1.073-4.664 2.302-7.51 2.731-1.372 1.661-3.778 3.096-5.462 4.779-1.874 1.406-2.669 2.082-2.731 5.462-1.39 1.121-2.329 3.322-2.048 4.096 2.763 1.419 5.047 2.003 8.876 2.049 3.647 0.043 6.208 0.837 9.558 0 3.414-1.012 4.778-1.72 8.193-2.731 1.743-2.271 3.052-3.791 5.462-5.462 1.302-1.915 2.862-3.677 5.462-4.779 1.948-1.772 4.83-3.729 6.827-4.78 1.221-1.709 3.602-3.527 5.462-4.779 1.368-2.315 1.757-2.7 2.731-6.827z" transform="matrix(1 0 0 .86641 -.59437 95.81)"/>
    <path id="path577" d="m589.88 693.63v-10.924-9.558c-3.17-1.875-3.645-2.997-4.779-6.827-1.683-2.73-2.969-4.447-4.097-6.828-1.581-1.659-2.884-3.812-3.414-6.827-1.304-2.528-2.113-5.07-4.779-6.145-2.415-0.525-5.565-0.683-8.875-0.683-4.522 0.168-4.097 0.965-4.097 5.462 0.318 3.497 1.433 4.412 2.731 7.51 1.003 2.118 2.092 4.294 3.414 6.145 1.021 2.262 2.623 5.174 4.096 6.827 1.196 2.511 2.915 4.786 3.414 7.511 1.871 2.374 3.164 4.451 4.779 6.144 1.337 2.791 2.343 4.37 4.779 5.462 1.393 2.088 3.748 2.26 6.828 2.731z"/>
    <path id="path578" d="m557.11 682.71h0.683c-1.908 0-0.894 0.085 2.731-1.365 0.966-1.932 0.683-5.891 0.683-8.876 0-3.887-0.643-5.542-1.366-8.193-1.242-2.965-2.255-4.355-2.731-7.51-1.021-2.156-2.049-4.329-2.731-6.827-1.227-1.806-2.104-4.529-2.73-6.827-2.305-1.306-4.433-2.616-6.828-3.414-2.171-1.028-4.193-2.561-6.827-3.414-3.425 0.627-3.812 1.756-4.097 5.462-0.787 2.754 0.293 5.244 1.366 7.51 1.128 2.694 1.801 5.426 3.414 7.51 0.984 3.063 1.986 4.131 2.048 7.51 1.175 2.01 1.666 4.969 2.731 7.51 1.371 3.171 2.647 4.538 4.779 6.828 2.915 1.982 3.916 2.814 8.875 4.096z"/>
    <path id="path579" d="m529.8 673.83c0-0.327 2.168-1.67 3.414-3.414 1.02-2.041 0.894-6.191 0-8.876-1.295-3.199-2.706-5.597-3.414-8.192-0.72-2.16-0.683-5.728-0.683-8.876-0.623-2.868-1.649-4.988-2.731-8.193-0.882-2.206-2.602-4.966-3.413-7.51-1.065-1.006-2.269-3.071-3.414-4.096-1.335-1.092-1.382-1.366-4.096-1.366-3.629 0.135-5.455 0.47-7.511 2.731-0.719 2.16-0.682 5.728-0.682 8.876 0.045 3.762 0.395 5.541 2.048 8.193 1.206 2.869 3.736 5.663 5.462 8.192 1.415 2.396 2.316 4.675 4.096 6.145 0.464 3.076 1.621 4.484 2.731 6.827 0.464 3.076 1.621 4.484 2.731 6.828 1.786 0.198 0.952 0.634 2.048 1.365l-2.048-1.365c1.786 0.198 0.952 0.634 5.462 2.731z"/>
    <path id="path581" d="m502.49 653.35c0.417-0.939 2.951-4.593 3.413-6.828-0.046-3.872-0.497-6.515-2.731-8.875-0.554-2.389-1.894-5.998-2.731-8.193 0-3.148 0.038-6.716-0.682-8.876 0-3.587-0.496-5.742-1.366-8.193-1.542-2.267-3.203-2.931-6.827-4.096-2.937-0.979-4.967-0.273-8.193 0.683v9.558c0.043 3.613 0.688 6.193 2.048 8.193 1.11 2.342 2.182 4.016 3.414 6.827 0.132 3.711 1.116 5.629 1.365 8.876 0.269 3.491 0.597 5.298 2.731 7.51 2.907 1.374 3.794 2.703 6.145 3.414l-6.145-3.414c2.907 1.374 3.794 2.703 9.559 3.414z"/>
    <path id="path582" d="m477.92 638.33v-0.682c0 1.908-0.084 0.894 1.366-2.731 0.739-2.96 0.682-6.218 0.682-9.559-0.211-2.751-0.61-5.928-1.365-8.192-0.624-3.495-1.339-5.682-2.048-8.876-0.488-2.773-2.366-5.834-3.414-8.193-0.67-2.01-1.353-6.2-2.048-8.193-0.489-2.552-1.715-3.355-4.097-4.096-1.869-0.935-6.323-0.935-8.193 0-2.009 0.696-2.006 2.284-2.73 4.096-0.253 3.533-0.854 6.143 0 9.559 1.155 1.975 2.377 4.071 3.413 6.144 1.342 2.423 2.687 6.059 4.097 8.193 1.027 3.467 1.407 5.068 3.413 8.193 0.738 2.213 1.902 4.873 3.414 6.827 0.972 2.43 2.39 4.152 3.414 6.828 1.842 0 0.461-0.045 4.096 0.682z"/>
    <path id="path583" d="m618.13 711.13h-0.594-2.378-8.321c-1.735 1.648-2.339 2.595-5.349 2.972-1.52 1.317-2.96 2.534-5.349 2.971-2.103 0.458-4.845 0.595-7.727 0.595-3.523-0.043-4.733 0.109-5.349-2.972 0.056-3.063 0.2-3.234 2.972-3.566 1.484-1.226 3.971-1.807 6.538-2.377 1.962-0.697 4.365-1.311 6.538-1.784 2.107-0.748 4.118-1.512 5.943-2.377-0.454-1.815-1.921-1.417-3.566-0.594-2.135 0-4.682 0.162-5.944-0.595-1.483-2.204-2.286-2.927-5.943-2.971-3.47-0.042-4.062-0.953-7.132-1.189-2.94-0.036-4.995-0.476-7.133-1.189-3.138-0.224-5.246-0.702-7.726-1.783-0.797-0.797 1.094-0.962 2.377-1.189 1.758-1.195 3.617-1.675 6.538-1.783h8.321c3.049 0 5.395 0.49 8.321 0.595 2.385 0.825 4.891 1.257 6.538 2.377 2.151 0.717 3.505 1.978 4.755 3.566 2.091 0.571 4.195 1.274 6.538 1.783 2.74 0 5.846-0.032 7.726 0.595 1.361 2.268 0.285 5.986-0.594 8.915z"/>
   </g>
   <g id="g601" transform="matrix(-0.734 0 0 .74706 748.97 -162.81)">
    <path id="path602" d="m460.16 634.92l-0.683-0.683c1.55 1.549 0.802 0.981-0.683-2.731-0.145-3.936-1.098-4.57-3.413-6.145-2.715-0.904-3.875-2.064-4.779-4.779-1.736-1.433-3.042-3.351-4.097-5.462-1.876-1.275-3.503-2.903-4.779-4.779-1.876-1.276-3.503-2.903-4.779-4.779-2.594-0.906-4.306-2.751-7.51-4.096-1.803-1.719-3.497-2.567-6.145-4.097-2.963-1.419-3.132-2.446-6.827-2.731-1.13 1.244-2.92 0.755-3.414 2.731 0.15 4.046 0.955 4.894 2.731 8.193 0.138 3.729 1.14 5.484 2.731 8.193 1.939 1.357 3.431 3.769 5.462 5.462 2.168 1.474 3.03 3.04 6.145 4.779 1.627 2.035 4.347 3.126 6.827 4.779 3.054 1.178 5.559 2.087 7.51 3.414 2.74 0.644 4.611 1.681 6.827 2.731 3.277 0.307 4.611 0.673 8.876 0z"/>
    <path id="path603" d="m474.5 654.03l-0.682-0.682c1.621 1.621 0.848 0.958-1.366-2.731-2.524-2.39-3.07-4.221-6.827-4.78-2.006-0.802-5.262-1.298-7.51-2.048-3.887 0-5.668-0.415-8.876-1.365-2.293-0.626-5.194-1.738-7.51-2.731-2.746-0.408-5.589-1.482-8.193-2.048h-9.558c-3.067 0.721-4.793 0.753-5.462 4.096 1.4 1.695 3.248 3.173 4.779 4.779 0.863 2.999 2.946 3.714 4.779 5.462 3.161 1.094 3.803 1.911 7.51 2.048 3.143 1.048 5.428 1.324 8.876 1.366 3.657 0 6.287 0.742 9.558 1.365 2.724 0.368 5.396 0.683 8.876 0.683 2.966 0 6.197-0.017 8.193-0.683 4.302-3.441 3.413-4.188 3.413 0.683 0.456 0.455 0.911 0.91 1.366 1.365"/>
    <path id="path604" d="m497.71 664.27h-0.682c1.843 0 0.907 0.045-2.731-0.682-3.405-0.973-5.339-1.918-8.876-2.049-2.101-1.228-4.68-1.365-8.193-1.365h-9.558c-3.38 0.26-4.813 1.105-8.193 1.365-1.794 1.05-5.358 1.912-7.51 2.731-1.92 1.306-3.559 2.929-6.145 4.097 0.596 3.391 2.479 4.668 4.78 6.144 2.31 0.925 4.685 1.798 8.192 2.049 3.355 0.124 5.163 0.682 8.876 0.682 3.479 0 6.152-0.314 8.876-0.682 2.266-1.074 4.194-2.199 7.51-2.731 1.653-1.433 4.073-2.433 6.144-3.414 1.834-0.868 4.329-1.669 6.145-2.731l-6.145 2.731c1.834-0.868 4.329-1.669 7.51-6.145z"/>
    <path id="path605" d="m529.8 679.98v-0.682c0 1.908 0.085 0.894-1.365-2.731-2.527-1.332-5.559-2.273-7.511-3.414-2.984 0-6.944-0.283-8.875 0.683-3.448 0.041-5.733 0.318-8.876 1.365-2.996 0.452-4.723 1.5-6.827 2.731-2.378 1.283-5.824 2.934-8.876 4.096-2.698 1.881-3.612 2.984-6.827 4.78-2.025 2.219-4.098 3.552-5.462 5.462-0.606 2.304 0.039 5.022 2.731 6.144 1.702 1.406 4.316 2.14 6.827 2.731 3.187-0.118 6.001-0.56 8.193-2.048 3.383-0.448 5.393-1.44 8.193-2.048 2.396-0.851 4.69-1.667 7.51-2.049 1.953-1.324 5.416-2.467 7.51-3.413 3.43-1.389 5.621-3.221 8.193-4.779 1.226-1.419 2.862-2.951 4.779-3.414l-4.779 3.414c1.226-1.419 2.862-2.951 5.462-6.828z" transform="matrix(1 0 0 .85157 1.1887 101.1)"/>
    <path id="path606" d="m557.11 693.63c-0.127-0.032-3.176-1.365-5.461-1.365-2.024-1.184-5.299-1.422-8.193-2.731-3.731 0-6.271 0.418-8.193 2.048-2.838 0.383-5.375 1.217-7.51 2.731-2.658 0.625-5.07 1.21-7.51 2.731-3.294 1.382-4.744 2.679-6.828 4.096-1.405 1.701-4.441 2.652-6.144 4.097-1.529 1.851-1.526 4.299-0.683 6.827 1.748 1.076 4.736 2.144 6.827 3.414 3.052 0.545 6.162 0.682 9.559 0.682 3.031-0.233 5.588-0.741 7.51-2.048 3.434-1.654 4.348-2.876 6.827-4.779 1.434-1.736 3.833-3.133 6.145-4.096 1.742-1.51 3.856-2.614 6.827-3.414 1.663-1.585 3.194-3.117 4.779-4.779 1.909 0 0.598 0.211 2.048-3.414z" transform="matrix(1 0 0 .88839 0 76.96)"/>
    <path id="path607" d="m587.15 696.36c-0.164-0.025-3.855-0.683-6.145-0.683-1.931-0.965-5.891-0.683-8.875-0.683-3.762 0.14-4.925 0.917-6.828 2.731-1.935 1.191-4.271 2.261-6.144 4.097-2.394 1.467-4.551 3.489-6.828 4.779-2.505 1.073-4.664 2.302-7.51 2.731-1.372 1.661-3.778 3.096-5.462 4.779-1.874 1.406-2.669 2.082-2.731 5.462-1.39 1.121-2.329 3.322-2.048 4.096 2.763 1.419 5.047 2.003 8.876 2.049 3.647 0.043 6.208 0.837 9.558 0 3.414-1.012 4.778-1.72 8.193-2.731 1.743-2.271 3.052-3.791 5.462-5.462 1.302-1.915 2.862-3.677 5.462-4.779 1.948-1.772 4.83-3.729 6.827-4.78 1.221-1.709 3.602-3.527 5.462-4.779 1.368-2.315 1.757-2.7 2.731-6.827z" transform="matrix(1 0 0 .86641 -.59437 95.81)"/>
    <path id="path608" d="m589.88 693.63v-10.924-9.558c-3.17-1.875-3.645-2.997-4.779-6.827-1.683-2.73-2.969-4.447-4.097-6.828-1.581-1.659-2.884-3.812-3.414-6.827-1.304-2.528-2.113-5.07-4.779-6.145-2.415-0.525-5.565-0.683-8.875-0.683-4.522 0.168-4.097 0.965-4.097 5.462 0.318 3.497 1.433 4.412 2.731 7.51 1.003 2.118 2.092 4.294 3.414 6.145 1.021 2.262 2.623 5.174 4.096 6.827 1.196 2.511 2.915 4.786 3.414 7.511 1.871 2.374 3.164 4.451 4.779 6.144 1.337 2.791 2.343 4.37 4.779 5.462 1.393 2.088 3.748 2.26 6.828 2.731z"/>
    <path id="path609" d="m557.11 682.71h0.683c-1.908 0-0.894 0.085 2.731-1.365 0.966-1.932 0.683-5.891 0.683-8.876 0-3.887-0.643-5.542-1.366-8.193-1.242-2.965-2.255-4.355-2.731-7.51-1.021-2.156-2.049-4.329-2.731-6.827-1.227-1.806-2.104-4.529-2.73-6.827-2.305-1.306-4.433-2.616-6.828-3.414-2.171-1.028-4.193-2.561-6.827-3.414-3.425 0.627-3.812 1.756-4.097 5.462-0.787 2.754 0.293 5.244 1.366 7.51 1.128 2.694 1.801 5.426 3.414 7.51 0.984 3.063 1.986 4.131 2.048 7.51 1.175 2.01 1.666 4.969 2.731 7.51 1.371 3.171 2.647 4.538 4.779 6.828 2.915 1.982 3.916 2.814 8.875 4.096z"/>
    <path id="path610" d="m529.8 673.83c0-0.327 2.168-1.67 3.414-3.414 1.02-2.041 0.894-6.191 0-8.876-1.295-3.199-2.706-5.597-3.414-8.192-0.72-2.16-0.683-5.728-0.683-8.876-0.623-2.868-1.649-4.988-2.731-8.193-0.882-2.206-2.602-4.966-3.413-7.51-1.065-1.006-2.269-3.071-3.414-4.096-1.335-1.092-1.382-1.366-4.096-1.366-3.629 0.135-5.455 0.47-7.511 2.731-0.719 2.16-0.682 5.728-0.682 8.876 0.045 3.762 0.395 5.541 2.048 8.193 1.206 2.869 3.736 5.663 5.462 8.192 1.415 2.396 2.316 4.675 4.096 6.145 0.464 3.076 1.621 4.484 2.731 6.827 0.464 3.076 1.621 4.484 2.731 6.828 1.786 0.198 0.952 0.634 2.048 1.365l-2.048-1.365c1.786 0.198 0.952 0.634 5.462 2.731z"/>
    <path id="path611" d="m502.49 653.35c0.417-0.939 2.951-4.593 3.413-6.828-0.046-3.872-0.497-6.515-2.731-8.875-0.554-2.389-1.894-5.998-2.731-8.193 0-3.148 0.038-6.716-0.682-8.876 0-3.587-0.496-5.742-1.366-8.193-1.542-2.267-3.203-2.931-6.827-4.096-2.937-0.979-4.967-0.273-8.193 0.683v9.558c0.043 3.613 0.688 6.193 2.048 8.193 1.11 2.342 2.182 4.016 3.414 6.827 0.132 3.711 1.116 5.629 1.365 8.876 0.269 3.491 0.597 5.298 2.731 7.51 2.907 1.374 3.794 2.703 6.145 3.414l-6.145-3.414c2.907 1.374 3.794 2.703 9.559 3.414z"/>
    <path id="path612" d="m477.92 638.33v-0.682c0 1.908-0.084 0.894 1.366-2.731 0.739-2.96 0.682-6.218 0.682-9.559-0.211-2.751-0.61-5.928-1.365-8.192-0.624-3.495-1.339-5.682-2.048-8.876-0.488-2.773-2.366-5.834-3.414-8.193-0.67-2.01-1.353-6.2-2.048-8.193-0.489-2.552-1.715-3.355-4.097-4.096-1.869-0.935-6.323-0.935-8.193 0-2.009 0.696-2.006 2.284-2.73 4.096-0.253 3.533-0.854 6.143 0 9.559 1.155 1.975 2.377 4.071 3.413 6.144 1.342 2.423 2.687 6.059 4.097 8.193 1.027 3.467 1.407 5.068 3.413 8.193 0.738 2.213 1.902 4.873 3.414 6.827 0.972 2.43 2.39 4.152 3.414 6.828 1.842 0 0.461-0.045 4.096 0.682z"/>
    <path id="path613" d="m618.13 711.13h-0.594-2.378-8.321c-1.735 1.648-2.339 2.595-5.349 2.972-1.52 1.317-2.96 2.534-5.349 2.971-2.103 0.458-4.845 0.595-7.727 0.595-3.523-0.043-4.733 0.109-5.349-2.972 0.056-3.063 0.2-3.234 2.972-3.566 1.484-1.226 3.971-1.807 6.538-2.377 1.962-0.697 4.365-1.311 6.538-1.784 2.107-0.748 4.118-1.512 5.943-2.377-0.454-1.815-1.921-1.417-3.566-0.594-2.135 0-4.682 0.162-5.944-0.595-1.483-2.204-2.286-2.927-5.943-2.971-3.47-0.042-4.062-0.953-7.132-1.189-2.94-0.036-4.995-0.476-7.133-1.189-3.138-0.224-5.246-0.702-7.726-1.783-0.797-0.797 1.094-0.962 2.377-1.189 1.758-1.195 3.617-1.675 6.538-1.783h8.321c3.049 0 5.395 0.49 8.321 0.595 2.385 0.825 4.891 1.257 6.538 2.377 2.151 0.717 3.505 1.978 4.755 3.566 2.091 0.571 4.195 1.274 6.538 1.783 2.74 0 5.846-0.032 7.726 0.595 1.361 2.268 0.285 5.986-0.594 8.915z"/>
   </g>
  </g>
 </g>
</svg>
