<?xml version="1.0" encoding="UTF-8" standalone="no"?>
<!-- Created with Sodipodi ("http://www.sodipodi.com/") -->
<svg id="svg5907" xmlns:rdf="http://www.w3.org/1999/02/22-rdf-syntax-ns#" xmlns="http://www.w3.org/2000/svg" height="480" width="640" version="1" y="0" x="0" xmlns:cc="http://creativecommons.org/ns#" xmlns:dc="http://purl.org/dc/elements/1.1/">
 <metadata id="metadata3144">
  <rdf:RDF>
   <cc:Work rdf:about="">
    <dc:format>image/svg+xml</dc:format>
    <dc:type rdf:resource="http://purl.org/dc/dcmitype/StillImage"/>
   </cc:Work>
  </rdf:RDF>
 </metadata>
 <defs id="defs5909">
  <clipPath id="clipPath4074" clipPathUnits="userSpaceOnUse">
   <rect id="rect4076" fill-opacity="0.67" height="512" width="682.67" y="-.0000063554" x="-85.009"/>
  </clipPath>
 </defs>
 <g id="flag" fill-rule="evenodd" clip-path="url(#clipPath4074)" transform="matrix(.93750 0 0 .93750 79.696 .0000059582)">
  <rect id="rect8587" height="512" width="1027.5" y=".0000038147" x="-258.27" stroke-width="1pt" fill="#108c00"/>
  <rect id="rect8594" height="50.162" width="1032.6" y="178.16" x="-260" stroke-width="1pt" fill="#ffd600"/>
  <rect id="rect8595" height="512" width="48.432" y="0" x="181.08" stroke-width="1pt" fill="#ffd600"/>
  <rect id="rect8596" height="512" width="48.432" y="0" x="227.78" stroke-width="1pt"/>
  <rect id="rect8597" height="50.162" width="1032.6" y="226.59" x="-260" stroke-width="1pt"/>
  <rect id="rect8598" height="50.162" width="1032.6" y="276.76" x="-260" stroke-width="1pt" fill="#fff"/>
  <rect id="rect8599" height="512" width="48.432" y="-.0000056028" x="276.22" stroke-width="1pt" fill="#fff"/>
  <rect id="rect8601" stroke-width="1pt" transform="scale(-1)" ry="137.51" width="273.75" y="-393.87" x="-394.56" height="275.03" fill="#e72910"/>
  <g id="g597" stroke-width="1pt" transform="matrix(.35309 0 0 .35309 82.476 178.92)">
   <path id="path598" d="m130.3 124.25c0-0.83 18.259-51.456 18.259-51.456l16.599 50.626s55.606 1.66 55.606 0.83-43.987 33.198-43.987 33.198 20.748 58.096 19.919 56.436c-0.83-1.66-48.137-34.858-48.137-34.858s-48.136 33.198-47.306 33.198 18.258-54.776 18.258-54.776l-43.156-32.37 53.946-0.83z" transform="matrix(.86997 0 0 .88048 362.54 -228.35)"/>
   <g id="g599" transform="translate(27.96 -31.866)">
    <rect id="rect600" height="0" width="1.6704" y="177.01" x="233.86" fill="#108c00"/>
    <path id="path601" d="m130.3 124.25c0-0.83 18.259-51.456 18.259-51.456l16.599 50.626s55.606 1.66 55.606 0.83-43.987 33.198-43.987 33.198 20.748 58.096 19.919 56.436c-0.83-1.66-48.137-34.858-48.137-34.858s-48.136 33.198-47.306 33.198 18.258-54.776 18.258-54.776l-43.156-32.37 53.946-0.83z" transform="matrix(.75348 0 0 .76258 351.92 -179.57)" fill="#ffe700"/>
    <path id="path602" d="m130.3 124.25c0-0.83 18.259-51.456 18.259-51.456l16.599 50.626s55.606 1.66 55.606 0.83-43.987 33.198-43.987 33.198 20.748 58.096 19.919 56.436c-0.83-1.66-48.137-34.858-48.137-34.858s-48.136 33.198-47.306 33.198 18.258-54.776 18.258-54.776l-43.156-32.37 53.946-0.83z" transform="matrix(.43444 0 0 .43969 399.31 -133.03)" fill="#108c00"/>
   </g>
  </g>
  <g id="g625" stroke-width="1pt" transform="matrix(.35309 0 0 .35309 188.84 253.8)">
   <path id="path626" d="m130.3 124.25c0-0.83 18.259-51.456 18.259-51.456l16.599 50.626s55.606 1.66 55.606 0.83-43.987 33.198-43.987 33.198 20.748 58.096 19.919 56.436c-0.83-1.66-48.137-34.858-48.137-34.858s-48.136 33.198-47.306 33.198 18.258-54.776 18.258-54.776l-43.156-32.37 53.946-0.83z" transform="matrix(.86997 0 0 .88048 362.54 -228.35)"/>
   <g id="g627" transform="translate(27.96 -31.866)">
    <rect id="rect628" height="0" width="1.6704" y="177.01" x="233.86" fill="#108c00"/>
    <path id="path629" d="m130.3 124.25c0-0.83 18.259-51.456 18.259-51.456l16.599 50.626s55.606 1.66 55.606 0.83-43.987 33.198-43.987 33.198 20.748 58.096 19.919 56.436c-0.83-1.66-48.137-34.858-48.137-34.858s-48.136 33.198-47.306 33.198 18.258-54.776 18.258-54.776l-43.156-32.37 53.946-0.83z" transform="matrix(.75348 0 0 .76258 351.92 -179.57)" fill="#ffe700"/>
    <path id="path630" d="m130.3 124.25c0-0.83 18.259-51.456 18.259-51.456l16.599 50.626s55.606 1.66 55.606 0.83-43.987 33.198-43.987 33.198 20.748 58.096 19.919 56.436c-0.83-1.66-48.137-34.858-48.137-34.858s-48.136 33.198-47.306 33.198 18.258-54.776 18.258-54.776l-43.156-32.37 53.946-0.83z" transform="matrix(.43444 0 0 .43969 399.31 -133.03)" fill="#108c00"/>
   </g>
  </g>
  <g id="g631" stroke-width="1pt" transform="matrix(.35309 0 0 .35309 157.84 372.65)">
   <path id="path632" d="m130.3 124.25c0-0.83 18.259-51.456 18.259-51.456l16.599 50.626s55.606 1.66 55.606 0.83-43.987 33.198-43.987 33.198 20.748 58.096 19.919 56.436c-0.83-1.66-48.137-34.858-48.137-34.858s-48.136 33.198-47.306 33.198 18.258-54.776 18.258-54.776l-43.156-32.37 53.946-0.83z" transform="matrix(.86997 0 0 .88048 362.54 -228.35)"/>
   <g id="g633" transform="translate(27.96 -31.866)">
    <rect id="rect634" height="0" width="1.6704" y="177.01" x="233.86" fill="#108c00"/>
    <path id="path635" d="m130.3 124.25c0-0.83 18.259-51.456 18.259-51.456l16.599 50.626s55.606 1.66 55.606 0.83-43.987 33.198-43.987 33.198 20.748 58.096 19.919 56.436c-0.83-1.66-48.137-34.858-48.137-34.858s-48.136 33.198-47.306 33.198 18.258-54.776 18.258-54.776l-43.156-32.37 53.946-0.83z" transform="matrix(.75348 0 0 .76258 351.92 -179.57)" fill="#ffe700"/>
    <path id="path636" d="m130.3 124.25c0-0.83 18.259-51.456 18.259-51.456l16.599 50.626s55.606 1.66 55.606 0.83-43.987 33.198-43.987 33.198 20.748 58.096 19.919 56.436c-0.83-1.66-48.137-34.858-48.137-34.858s-48.136 33.198-47.306 33.198 18.258-54.776 18.258-54.776l-43.156-32.37 53.946-0.83z" transform="matrix(.43444 0 0 .43969 399.31 -133.03)" fill="#108c00"/>
   </g>
  </g>
  <g id="g637" stroke-width="1pt" transform="matrix(.35309 0 0 .35309 9.132 372.65)">
   <path id="path638" d="m130.3 124.25c0-0.83 18.259-51.456 18.259-51.456l16.599 50.626s55.606 1.66 55.606 0.83-43.987 33.198-43.987 33.198 20.748 58.096 19.919 56.436c-0.83-1.66-48.137-34.858-48.137-34.858s-48.136 33.198-47.306 33.198 18.258-54.776 18.258-54.776l-43.156-32.37 53.946-0.83z" transform="matrix(.86997 0 0 .88048 362.54 -228.35)"/>
   <g id="g639" transform="translate(27.96 -31.866)">
    <rect id="rect640" height="0" width="1.6704" y="177.01" x="233.86" fill="#108c00"/>
    <path id="path641" d="m130.3 124.25c0-0.83 18.259-51.456 18.259-51.456l16.599 50.626s55.606 1.66 55.606 0.83-43.987 33.198-43.987 33.198 20.748 58.096 19.919 56.436c-0.83-1.66-48.137-34.858-48.137-34.858s-48.136 33.198-47.306 33.198 18.258-54.776 18.258-54.776l-43.156-32.37 53.946-0.83z" transform="matrix(.75348 0 0 .76258 351.92 -179.57)" fill="#ffe700"/>
    <path id="path642" d="m130.3 124.25c0-0.83 18.259-51.456 18.259-51.456l16.599 50.626s55.606 1.66 55.606 0.83-43.987 33.198-43.987 33.198 20.748 58.096 19.919 56.436c-0.83-1.66-48.137-34.858-48.137-34.858s-48.136 33.198-47.306 33.198 18.258-54.776 18.258-54.776l-43.156-32.37 53.946-0.83z" transform="matrix(.43444 0 0 .43969 399.31 -133.03)" fill="#108c00"/>
   </g>
  </g>
  <g id="g643" stroke-width="1pt" transform="matrix(.35309 0 0 .35309 -18.025 250.74)">
   <path id="path644" d="m130.3 124.25c0-0.83 18.259-51.456 18.259-51.456l16.599 50.626s55.606 1.66 55.606 0.83-43.987 33.198-43.987 33.198 20.748 58.096 19.919 56.436c-0.83-1.66-48.137-34.858-48.137-34.858s-48.136 33.198-47.306 33.198 18.258-54.776 18.258-54.776l-43.156-32.37 53.946-0.83z" transform="matrix(.86997 0 0 .88048 362.54 -228.35)"/>
   <g id="g645" transform="translate(27.96 -31.866)">
    <rect id="rect646" height="0" width="1.6704" y="177.01" x="233.86" fill="#108c00"/>
    <path id="path647" d="m130.3 124.25c0-0.83 18.259-51.456 18.259-51.456l16.599 50.626s55.606 1.66 55.606 0.83-43.987 33.198-43.987 33.198 20.748 58.096 19.919 56.436c-0.83-1.66-48.137-34.858-48.137-34.858s-48.136 33.198-47.306 33.198 18.258-54.776 18.258-54.776l-43.156-32.37 53.946-0.83z" transform="matrix(.75348 0 0 .76258 351.92 -179.57)" fill="#ffe700"/>
    <path id="path648" d="m130.3 124.25c0-0.83 18.259-51.456 18.259-51.456l16.599 50.626s55.606 1.66 55.606 0.83-43.987 33.198-43.987 33.198 20.748 58.096 19.919 56.436c-0.83-1.66-48.137-34.858-48.137-34.858s-48.136 33.198-47.306 33.198 18.258-54.776 18.258-54.776l-43.156-32.37 53.946-0.83z" transform="matrix(.43444 0 0 .43969 399.31 -133.03)" fill="#108c00"/>
   </g>
  </g>
  <g id="g649" stroke-width="1pt" transform="matrix(-.35309 0 0 -.35309 492.65 132.14)">
   <path id="path650" d="m130.3 124.25c0-0.83 18.259-51.456 18.259-51.456l16.599 50.626s55.606 1.66 55.606 0.83-43.987 33.198-43.987 33.198 20.748 58.096 19.919 56.436c-0.83-1.66-48.137-34.858-48.137-34.858s-48.136 33.198-47.306 33.198 18.258-54.776 18.258-54.776l-43.156-32.37 53.946-0.83z" transform="matrix(.86997 0 0 .88048 362.54 -228.35)"/>
   <g id="g651" transform="translate(27.96 -31.866)">
    <rect id="rect652" height="0" width="1.6704" y="177.01" x="233.86" fill="#108c00"/>
    <path id="path653" d="m130.3 124.25c0-0.83 18.259-51.456 18.259-51.456l16.599 50.626s55.606 1.66 55.606 0.83-43.987 33.198-43.987 33.198 20.748 58.096 19.919 56.436c-0.83-1.66-48.137-34.858-48.137-34.858s-48.136 33.198-47.306 33.198 18.258-54.776 18.258-54.776l-43.156-32.37 53.946-0.83z" transform="matrix(.75348 0 0 .76258 351.92 -179.57)" fill="#ffe700"/>
    <path id="path654" d="m130.3 124.25c0-0.83 18.259-51.456 18.259-51.456l16.599 50.626s55.606 1.66 55.606 0.83-43.987 33.198-43.987 33.198 20.748 58.096 19.919 56.436c-0.83-1.66-48.137-34.858-48.137-34.858s-48.136 33.198-47.306 33.198 18.258-54.776 18.258-54.776l-43.156-32.37 53.946-0.83z" transform="matrix(.43444 0 0 .43969 399.31 -133.03)" fill="#108c00"/>
   </g>
  </g>
  <g id="g595" stroke-width="1pt" transform="matrix(-.35309 0 0 -.35309 535.35 248.28)">
   <path id="path596" d="m130.3 124.25c0-0.83 18.259-51.456 18.259-51.456l16.599 50.626s55.606 1.66 55.606 0.83-43.987 33.198-43.987 33.198 20.748 58.096 19.919 56.436c-0.83-1.66-48.137-34.858-48.137-34.858s-48.136 33.198-47.306 33.198 18.258-54.776 18.258-54.776l-43.156-32.37 53.946-0.83z" transform="matrix(.86997 0 0 .88048 362.54 -228.35)"/>
   <g id="g598" transform="translate(27.96 -31.866)">
    <rect id="rect599" height="0" width="1.6704" y="177.01" x="233.86" fill="#108c00"/>
    <path id="path600" d="m130.3 124.25c0-0.83 18.259-51.456 18.259-51.456l16.599 50.626s55.606 1.66 55.606 0.83-43.987 33.198-43.987 33.198 20.748 58.096 19.919 56.436c-0.83-1.66-48.137-34.858-48.137-34.858s-48.136 33.198-47.306 33.198 18.258-54.776 18.258-54.776l-43.156-32.37 53.946-0.83z" transform="matrix(.75348 0 0 .76258 351.92 -179.57)" fill="#ffe700"/>
    <path id="path603" d="m130.3 124.25c0-0.83 18.259-51.456 18.259-51.456l16.599 50.626s55.606 1.66 55.606 0.83-43.987 33.198-43.987 33.198 20.748 58.096 19.919 56.436c-0.83-1.66-48.137-34.858-48.137-34.858s-48.136 33.198-47.306 33.198 18.258-54.776 18.258-54.776l-43.156-32.37 53.946-0.83z" transform="matrix(.43444 0 0 .43969 399.31 -133.03)" fill="#108c00"/>
   </g>
  </g>
  <g id="g604" stroke-width="1pt" transform="matrix(-.35309 0 0 -.35309 429.46 333.25)">
   <path id="path605" d="m130.3 124.25c0-0.83 18.259-51.456 18.259-51.456l16.599 50.626s55.606 1.66 55.606 0.83-43.987 33.198-43.987 33.198 20.748 58.096 19.919 56.436c-0.83-1.66-48.137-34.858-48.137-34.858s-48.136 33.198-47.306 33.198 18.258-54.776 18.258-54.776l-43.156-32.37 53.946-0.83z" transform="matrix(.86997 0 0 .88048 362.54 -228.35)"/>
   <g id="g606" transform="translate(27.96 -31.866)">
    <rect id="rect607" height="0" width="1.6704" y="177.01" x="233.86" fill="#108c00"/>
    <path id="path608" d="m130.3 124.25c0-0.83 18.259-51.456 18.259-51.456l16.599 50.626s55.606 1.66 55.606 0.83-43.987 33.198-43.987 33.198 20.748 58.096 19.919 56.436c-0.83-1.66-48.137-34.858-48.137-34.858s-48.136 33.198-47.306 33.198 18.258-54.776 18.258-54.776l-43.156-32.37 53.946-0.83z" transform="matrix(.75348 0 0 .76258 351.92 -179.57)" fill="#ffe700"/>
    <path id="path609" d="m130.3 124.25c0-0.83 18.259-51.456 18.259-51.456l16.599 50.626s55.606 1.66 55.606 0.83-43.987 33.198-43.987 33.198 20.748 58.096 19.919 56.436c-0.83-1.66-48.137-34.858-48.137-34.858s-48.136 33.198-47.306 33.198 18.258-54.776 18.258-54.776l-43.156-32.37 53.946-0.83z" transform="matrix(.43444 0 0 .43969 399.31 -133.03)" fill="#108c00"/>
   </g>
  </g>
  <g id="g610" stroke-width="1pt" transform="matrix(-.35309 0 0 -.35309 329.97 248.28)">
   <path id="path611" d="m130.3 124.25c0-0.83 18.259-51.456 18.259-51.456l16.599 50.626s55.606 1.66 55.606 0.83-43.987 33.198-43.987 33.198 20.748 58.096 19.919 56.436c-0.83-1.66-48.137-34.858-48.137-34.858s-48.136 33.198-47.306 33.198 18.258-54.776 18.258-54.776l-43.156-32.37 53.946-0.83z" transform="matrix(.86997 0 0 .88048 362.54 -228.35)"/>
   <g id="g612" transform="translate(27.96 -31.866)">
    <rect id="rect613" height="0" width="1.6704" y="177.01" x="233.86" fill="#108c00"/>
    <path id="path614" d="m130.3 124.25c0-0.83 18.259-51.456 18.259-51.456l16.599 50.626s55.606 1.66 55.606 0.83-43.987 33.198-43.987 33.198 20.748 58.096 19.919 56.436c-0.83-1.66-48.137-34.858-48.137-34.858s-48.136 33.198-47.306 33.198 18.258-54.776 18.258-54.776l-43.156-32.37 53.946-0.83z" transform="matrix(.75348 0 0 .76258 351.92 -179.57)" fill="#ffe700"/>
    <path id="path615" d="m130.3 124.25c0-0.83 18.259-51.456 18.259-51.456l16.599 50.626s55.606 1.66 55.606 0.83-43.987 33.198-43.987 33.198 20.748 58.096 19.919 56.436c-0.83-1.66-48.137-34.858-48.137-34.858s-48.136 33.198-47.306 33.198 18.258-54.776 18.258-54.776l-43.156-32.37 53.946-0.83z" transform="matrix(.43444 0 0 .43969 399.31 -133.03)" fill="#108c00"/>
   </g>
  </g>
  <g id="g616" stroke-width="1pt" transform="matrix(-.35309 0 0 -.35309 366.69 133.85)">
   <path id="path617" d="m130.3 124.25c0-0.83 18.259-51.456 18.259-51.456l16.599 50.626s55.606 1.66 55.606 0.83-43.987 33.198-43.987 33.198 20.748 58.096 19.919 56.436c-0.83-1.66-48.137-34.858-48.137-34.858s-48.136 33.198-47.306 33.198 18.258-54.776 18.258-54.776l-43.156-32.37 53.946-0.83z" transform="matrix(.86997 0 0 .88048 362.54 -228.35)"/>
   <g id="g618" transform="translate(27.96 -31.866)">
    <rect id="rect619" height="0" width="1.6704" y="177.01" x="233.86" fill="#108c00"/>
    <path id="path620" d="m130.3 124.25c0-0.83 18.259-51.456 18.259-51.456l16.599 50.626s55.606 1.66 55.606 0.83-43.987 33.198-43.987 33.198 20.748 58.096 19.919 56.436c-0.83-1.66-48.137-34.858-48.137-34.858s-48.136 33.198-47.306 33.198 18.258-54.776 18.258-54.776l-43.156-32.37 53.946-0.83z" transform="matrix(.75348 0 0 .76258 351.92 -179.57)" fill="#ffe700"/>
    <path id="path621" d="m130.3 124.25c0-0.83 18.259-51.456 18.259-51.456l16.599 50.626s55.606 1.66 55.606 0.83-43.987 33.198-43.987 33.198 20.748 58.096 19.919 56.436c-0.83-1.66-48.137-34.858-48.137-34.858s-48.136 33.198-47.306 33.198 18.258-54.776 18.258-54.776l-43.156-32.37 53.946-0.83z" transform="matrix(.43444 0 0 .43969 399.31 -133.03)" fill="#108c00"/>
   </g>
  </g>
  <g id="g1112" transform="matrix(1.0355 0 0 1.0355 -250.6 359.43)">
   <g id="g1014" transform="matrix(.16350 -.016275 .011822 .18436 429.84 -215.63)" stroke="#000" stroke-width="2.5" fill="#009200">
    <ellipse id="path1011" d="m 711.01062,586.12573 c 0,104.83738 -13.79184,189.82486 -30.80493,189.82486 -17.0131,0 -30.80493,-84.98748 -30.80493,-189.82486 0,-104.83737 13.79183,-189.82486 30.80493,-189.82486 17.01309,0 30.80493,84.98749 30.80493,189.82486 z" rx="30.805" ry="189.82" transform="matrix(1.4051 -.0058122 .0081670 .99998 -534.29 263.72)" cy="586.13" cx="680.21"/>
    <ellipse id="path1012" d="m 711.01062,586.12573 c 0,104.83738 -13.79184,189.82486 -30.80493,189.82486 -17.0131,0 -30.80493,-84.98748 -30.80493,-189.82486 0,-104.83737 13.79183,-189.82486 30.80493,-189.82486 17.01309,0 30.80493,84.98749 30.80493,189.82486 z" rx="30.805" ry="189.82" transform="matrix(1.4862 -.0058122 .0086379 .99998 -547.22 267.05)" cy="586.13" cx="680.21"/>
    <ellipse id="path1013" d="m 711.01062,586.12573 c 0,104.83738 -13.79184,189.82486 -30.80493,189.82486 -17.0131,0 -30.80493,-84.98748 -30.80493,-189.82486 0,-104.83737 13.79183,-189.82486 30.80493,-189.82486 17.01309,0 30.80493,84.98749 30.80493,189.82486 z" rx="30.805" ry="189.82" transform="matrix(1.189 -.0064240 .0069111 1.1052 -364.93 214.1)" cy="586.13" cx="680.21"/>
   </g>
   <g id="g1105" stroke="#000" transform="translate(72.865 -9.797)">
    <path id="path1010" d="m238.34 971.79c29.972-1.665 16.651-16.652 31.637-24.977 14.986-8.326 36.633-3.33 43.293 6.66 6.661 9.991 1.666 19.982 9.991 19.982 8.326 0 234.56-12.675 242.88-4.349 8.326 8.325 9.991 24.977 1.665 31.634-8.325 6.66-294.5 14.34-304.49 7.68-9.991-6.66-24.977-34.965-24.977-36.63z" transform="matrix(.20244 .0034863 -.0039367 .21385 340.86 -247.31)" stroke-width="2.5054" fill="#a95600"/>
    <path id="path1506" d="m529.59 405.46c0 39.983 45.562 27.879 46.81 61.249-0.724 35.408-76.706 3.467-78.635-61.249 1.929-64.716 75.107-97.929 76.705-61.011 1.246 30.686-44.88 21.028-44.88 61.011z" transform="matrix(.14799 .0019514 -.0027548 .11459 340.42 -81.691)" stroke-width="3.8527" fill="#ff0"/>
    <path id="path1507" d="m529.59 405.46c0 39.983 45.562 27.879 46.81 61.249-0.724 35.408-76.706 3.467-78.635-61.249 1.929-64.716 75.107-97.929 76.705-61.011 1.246 30.686-44.88 21.028-44.88 61.011z" transform="matrix(.14799 .0019514 -.0027548 .11459 344.42 -81.638)" stroke-width="3.8527" fill="#ff0"/>
    <path id="path1508" d="m529.59 405.46c0 39.983 45.562 27.879 46.81 61.249-0.724 35.408-76.706 3.467-78.635-61.249 1.929-64.716 75.107-97.929 76.705-61.011 1.246 30.686-44.88 21.028-44.88 61.011z" transform="matrix(.14799 .0019514 -.0027548 .11459 348.71 -81.8)" stroke-width="3.8527" fill="#ff0"/>
    <path id="path1509" d="m529.59 405.46c0 39.983 45.562 27.879 46.81 61.249-0.724 35.408-76.706 3.467-78.635-61.249 1.929-64.716 75.107-97.929 76.705-61.011 1.246 30.686-44.88 21.028-44.88 61.011z" transform="matrix(.14799 .0019514 -.0027548 .11459 352.71 -81.747)" stroke-width="3.8527" fill="#ff0"/>
    <ellipse id="path1091" d="m 481.91562,-41.085754 c 0,1.879412 -1.58217,3.402977 -3.53388,3.402977 -1.9517,0 -3.53387,-1.523565 -3.53387,-3.402977 0,-1.879413 1.58217,-3.402977 3.53387,-3.402977 1.95171,0 3.53388,1.523564 3.53388,3.402977 z" rx="3.5339" ry="3.403" transform="matrix(1.0945 .016483 -.024286 1.1537 -75.571 4.6776)" cy="-41.086" cx="478.38" stroke-width=".39908" fill="#a95600"/>
   </g>
   <g id="g1048" transform="matrix(.99488 -.10102 .10102 .99488 66.684 66.338)" stroke="#000" stroke-width="2.5" fill="#009200">
    <ellipse id="path1049" d="m 447.92003,904.99817 c 0,13.33459 -9.31881,24.14441 -20.81413,24.14441 -11.49533,0 -20.81414,-10.80982 -20.81414,-24.14441 0,-13.33459 9.31881,-24.14441 20.81414,-24.14441 11.49532,0 20.81413,10.80982 20.81413,24.14441 z" rx="20.814" ry="24.144" transform="matrix(.16619 -.0080728 .0016875 .31520 369.8 -361.65)" cy="905" cx="427.11"/>
    <ellipse id="path1050" d="m 447.92003,904.99817 c 0,13.33459 -9.31881,24.14441 -20.81413,24.14441 -11.49533,0 -20.81414,-10.80982 -20.81414,-24.14441 0,-13.33459 9.31881,-24.14441 20.81414,-24.14441 11.49532,0 20.81413,10.80982 20.81413,24.14441 z" rx="20.814" ry="24.144" transform="matrix(.16619 -.0080728 .0016875 .31520 364.04 -362.7)" cy="905" cx="427.11"/>
    <ellipse id="path1052" d="m 447.92003,904.99817 c 0,13.33459 -9.31881,24.14441 -20.81413,24.14441 -11.49533,0 -20.81414,-10.80982 -20.81414,-24.14441 0,-13.33459 9.31881,-24.14441 20.81414,-24.14441 11.49532,0 20.81413,10.80982 20.81413,24.14441 z" rx="20.814" ry="24.144" transform="matrix(.16619 -.0080728 .0016875 .31520 360.64 -370.55)" cy="905" cx="427.11"/>
    <ellipse id="path1053" d="m 447.92003,904.99817 c 0,13.33459 -9.31881,24.14441 -20.81413,24.14441 -11.49533,0 -20.81414,-10.80982 -20.81414,-24.14441 0,-13.33459 9.31881,-24.14441 20.81414,-24.14441 11.49532,0 20.81413,10.80982 20.81413,24.14441 z" rx="20.814" ry="24.144" transform="matrix(.15990 -.0089056 .0016237 .34772 369.3 -399.35)" cy="905" cx="427.11"/>
    <ellipse id="path1054" d="m 447.92003,904.99817 c 0,13.33459 -9.31881,24.14441 -20.81413,24.14441 -11.49533,0 -20.81414,-10.80982 -20.81414,-24.14441 0,-13.33459 9.31881,-24.14441 20.81414,-24.14441 11.49532,0 20.81413,10.80982 20.81413,24.14441 z" rx="20.814" ry="24.144" transform="matrix(.15990 -.0083504 .0016237 .32604 377.41 -379.07)" cy="905" cx="427.11"/>
    <ellipse id="path1055" d="m 447.92003,904.99817 c 0,13.33459 -9.31881,24.14441 -20.81413,24.14441 -11.49533,0 -20.81414,-10.80982 -20.81414,-24.14441 0,-13.33459 9.31881,-24.14441 20.81414,-24.14441 11.49532,0 20.81413,10.80982 20.81413,24.14441 z" rx="20.814" ry="24.144" transform="matrix(.15990 -.0083504 .0016237 .32604 373.22 -382.21)" cy="905" cx="427.11"/>
    <ellipse id="path1056" d="m 447.92003,904.99817 c 0,13.33459 -9.31881,24.14441 -20.81413,24.14441 -11.49533,0 -20.81414,-10.80982 -20.81414,-24.14441 0,-13.33459 9.31881,-24.14441 20.81414,-24.14441 11.49532,0 20.81413,10.80982 20.81413,24.14441 z" rx="20.814" ry="24.144" transform="matrix(.15990 -.0083504 .0016237 .32604 367.99 -386.66)" cy="905" cx="427.11"/>
    <ellipse id="path1057" d="m 447.92003,904.99817 c 0,13.33459 -9.31881,24.14441 -20.81413,24.14441 -11.49533,0 -20.81414,-10.80982 -20.81414,-24.14441 0,-13.33459 9.31881,-24.14441 20.81414,-24.14441 11.49532,0 20.81413,10.80982 20.81413,24.14441 z" rx="20.814" ry="24.144" transform="matrix(.15990 -.0083504 .0016237 .32604 363.01 -389.54)" cy="905" cx="427.11"/>
   </g>
   <path id="path851" d="m173.17 346.35s-54.198 64.893-21.252 208.82c33.958 144.59 178.96 189.78 178.96 189.78s26.496-47.423 1.726-164.04c-39.96-169.85-116.14-234.56-116.14-234.56h-43.293z" transform="matrix(.17689 .032191 -.031422 .18236 461.79 -208.61)" stroke="#000" stroke-width="2.5" fill="#804bff"/>
   <g id="g1026" transform="matrix(.99696 .077910 -.077910 .99696 60.532 -11.76)" stroke="#000" stroke-width="2.5" fill="#009200">
    <ellipse id="path1025" d="m 447.92003,904.99817 c 0,13.33459 -9.31881,24.14441 -20.81413,24.14441 -11.49533,0 -20.81414,-10.80982 -20.81414,-24.14441 0,-13.33459 9.31881,-24.14441 20.81414,-24.14441 11.49532,0 20.81413,10.80982 20.81413,24.14441 z" rx="20.814" ry="24.144" transform="matrix(.16619 -.0080728 .0016875 .31520 369.8 -361.65)" cy="905" cx="427.11"/>
    <ellipse id="path1017" d="m 447.92003,904.99817 c 0,13.33459 -9.31881,24.14441 -20.81413,24.14441 -11.49533,0 -20.81414,-10.80982 -20.81414,-24.14441 0,-13.33459 9.31881,-24.14441 20.81414,-24.14441 11.49532,0 20.81413,10.80982 20.81413,24.14441 z" rx="20.814" ry="24.144" transform="matrix(.16619 -.0080728 .0016875 .31520 364.04 -362.7)" cy="905" cx="427.11"/>
    <ellipse id="path1016" d="m 447.92003,904.99817 c 0,13.33459 -9.31881,24.14441 -20.81413,24.14441 -11.49533,0 -20.81414,-10.80982 -20.81414,-24.14441 0,-13.33459 9.31881,-24.14441 20.81414,-24.14441 11.49532,0 20.81413,10.80982 20.81413,24.14441 z" rx="20.814" ry="24.144" transform="matrix(.16619 -.0080728 .0016875 .31520 360.64 -370.55)" cy="905" cx="427.11"/>
    <ellipse id="path1018" d="m 447.92003,904.99817 c 0,13.33459 -9.31881,24.14441 -20.81413,24.14441 -11.49533,0 -20.81414,-10.80982 -20.81414,-24.14441 0,-13.33459 9.31881,-24.14441 20.81414,-24.14441 11.49532,0 20.81413,10.80982 20.81413,24.14441 z" rx="20.814" ry="24.144" transform="matrix(.15990 -.0089056 .0016237 .34772 369.3 -399.35)" cy="905" cx="427.11"/>
    <ellipse id="path1020" d="m 447.92003,904.99817 c 0,13.33459 -9.31881,24.14441 -20.81413,24.14441 -11.49533,0 -20.81414,-10.80982 -20.81414,-24.14441 0,-13.33459 9.31881,-24.14441 20.81414,-24.14441 11.49532,0 20.81413,10.80982 20.81413,24.14441 z" rx="20.814" ry="24.144" transform="matrix(.15990 -.0083504 .0016237 .32604 377.41 -379.07)" cy="905" cx="427.11"/>
    <ellipse id="path1019" d="m 447.92003,904.99817 c 0,13.33459 -9.31881,24.14441 -20.81413,24.14441 -11.49533,0 -20.81414,-10.80982 -20.81414,-24.14441 0,-13.33459 9.31881,-24.14441 20.81414,-24.14441 11.49532,0 20.81413,10.80982 20.81413,24.14441 z" rx="20.814" ry="24.144" transform="matrix(.15990 -.0083504 .0016237 .32604 373.22 -382.21)" cy="905" cx="427.11"/>
    <ellipse id="path1005" d="m 447.92003,904.99817 c 0,13.33459 -9.31881,24.14441 -20.81413,24.14441 -11.49533,0 -20.81414,-10.80982 -20.81414,-24.14441 0,-13.33459 9.31881,-24.14441 20.81414,-24.14441 11.49532,0 20.81413,10.80982 20.81413,24.14441 z" rx="20.814" ry="24.144" transform="matrix(.15990 -.0083504 .0016237 .32604 367.99 -386.66)" cy="905" cx="427.11"/>
    <ellipse id="path988" d="m 447.92003,904.99817 c 0,13.33459 -9.31881,24.14441 -20.81413,24.14441 -11.49533,0 -20.81414,-10.80982 -20.81414,-24.14441 0,-13.33459 9.31881,-24.14441 20.81414,-24.14441 11.49532,0 20.81413,10.80982 20.81413,24.14441 z" rx="20.814" ry="24.144" transform="matrix(.15990 -.0083504 .0016237 .32604 363.01 -389.54)" cy="905" cx="427.11"/>
   </g>
   <ellipse id="path985" d="m 682.70337,606.1073 c 0,102.99811 -26.09264,186.49458 -58.27954,186.49458 -32.1869,0 -58.27954,-83.49647 -58.27954,-186.49458 0,-102.99811 26.09264,-186.49458 58.27954,-186.49458 32.1869,0 58.27954,83.49647 58.27954,186.49458 z" rx="58.28" ry="186.49" stroke="#000" transform="matrix(.15695 -.060628 .063642 .14840 369.61 -145.05)" cy="606.11" cx="624.42" stroke-width="1pt" fill="#c90000"/>
   <g id="g1072" stroke="#000" fill="#009200" transform="matrix(.99984 .017802 -.017802 .99984 -34.814 -4.6285)">
    <ellipse id="path872" d="m 228.95542,356.75403 c 0,7.12711 -4.84577,12.90477 -10.82334,12.90477 -5.97757,0 -10.82334,-5.77766 -10.82334,-12.90477 0,-7.12711 4.84577,-12.90477 10.82334,-12.90477 5.97757,0 10.82334,5.77766 10.82334,12.90477 z" rx="10.823" ry="12.905" transform="matrix(.39530 0 0 .29270 445.07 -230.53)" cy="356.75" cx="218.13" stroke-width="1.4635"/>
    <ellipse id="path888" d="m 228.95542,356.75403 c 0,7.12711 -4.84577,12.90477 -10.82334,12.90477 -5.97757,0 -10.82334,-5.77766 -10.82334,-12.90477 0,-7.12711 4.84577,-12.90477 10.82334,-12.90477 5.97757,0 10.82334,5.77766 10.82334,12.90477 z" rx="10.823" ry="12.905" transform="matrix(.35412 0 0 .29270 457.17 -235.92)" cy="356.75" cx="218.13" stroke-width="1.5462"/>
    <ellipse id="path887" d="m 228.95542,356.75403 c 0,7.12711 -4.84577,12.90477 -10.82334,12.90477 -5.97757,0 -10.82334,-5.77766 -10.82334,-12.90477 0,-7.12711 4.84577,-12.90477 10.82334,-12.90477 5.97757,0 10.82334,5.77766 10.82334,12.90477 z" rx="10.823" ry="12.905" transform="matrix(.35412 0 0 .29270 452 -235.92)" cy="356.75" cx="218.13" stroke-width="1.5462"/>
    <ellipse id="path879" d="m 228.95542,356.75403 c 0,7.12711 -4.84577,12.90477 -10.82334,12.90477 -5.97757,0 -10.82334,-5.77766 -10.82334,-12.90477 0,-7.12711 4.84577,-12.90477 10.82334,-12.90477 5.97757,0 10.82334,5.77766 10.82334,12.90477 z" rx="10.823" ry="12.905" transform="matrix(.37059 0 0 .27478 449.48 -233.46)" cy="356.75" cx="218.13" stroke-width="1.56"/>
    <ellipse id="path878" d="m 228.95542,356.75403 c 0,7.12711 -4.84577,12.90477 -10.82334,12.90477 -5.97757,0 -10.82334,-5.77766 -10.82334,-12.90477 0,-7.12711 4.84577,-12.90477 10.82334,-12.90477 5.97757,0 10.82334,5.77766 10.82334,12.90477 z" rx="10.823" ry="12.905" transform="matrix(.37059 0 0 .27478 448.95 -237.93)" cy="356.75" cx="218.13" stroke-width="1.56"/>
    <ellipse id="path867" d="m 228.95542,356.75403 c 0,7.12711 -4.84577,12.90477 -10.82334,12.90477 -5.97757,0 -10.82334,-5.77766 -10.82334,-12.90477 0,-7.12711 4.84577,-12.90477 10.82334,-12.90477 5.97757,0 10.82334,5.77766 10.82334,12.90477 z" rx="10.823" ry="12.905" transform="matrix(.35412 0 0 .29270 447.01 -238.85)" cy="356.75" cx="218.13" stroke-width="1.5462"/>
    <ellipse id="path877" d="m 228.95542,356.75403 c 0,7.12711 -4.84577,12.90477 -10.82334,12.90477 -5.97757,0 -10.82334,-5.77766 -10.82334,-12.90477 0,-7.12711 4.84577,-12.90477 10.82334,-12.90477 5.97757,0 10.82334,5.77766 10.82334,12.90477 z" rx="10.823" ry="12.905" transform="matrix(.35412 0 0 .28673 448.08 -241.58)" cy="356.75" cx="218.13" stroke-width="1.5623"/>
    <ellipse id="path876" d="m 228.95542,356.75403 c 0,7.12711 -4.84577,12.90477 -10.82334,12.90477 -5.97757,0 -10.82334,-5.77766 -10.82334,-12.90477 0,-7.12711 4.84577,-12.90477 10.82334,-12.90477 5.97757,0 10.82334,5.77766 10.82334,12.90477 z" rx="10.823" ry="12.905" transform="matrix(.39530 0 0 .29270 432.77 -243.48)" cy="356.75" cx="218.13" stroke-width="1.4635"/>
    <ellipse id="path874" d="m 228.95542,356.75403 c 0,7.12711 -4.84577,12.90477 -10.82334,12.90477 -5.97757,0 -10.82334,-5.77766 -10.82334,-12.90477 0,-7.12711 4.84577,-12.90477 10.82334,-12.90477 5.97757,0 10.82334,5.77766 10.82334,12.90477 z" rx="10.823" ry="12.905" transform="matrix(.37059 0 0 .27478 445.92 -243.48)" cy="356.75" cx="218.13" stroke-width="1.56"/>
    <ellipse id="path873" d="m 228.95542,356.75403 c 0,7.12711 -4.84577,12.90477 -10.82334,12.90477 -5.97757,0 -10.82334,-5.77766 -10.82334,-12.90477 0,-7.12711 4.84577,-12.90477 10.82334,-12.90477 5.97757,0 10.82334,5.77766 10.82334,12.90477 z" rx="10.823" ry="12.905" transform="matrix(.35412 0 0 .28673 444.16 -246.97)" cy="356.75" cx="218.13" stroke-width="1.5623"/>
    <ellipse id="path871" d="m 228.95542,356.75403 c 0,7.12711 -4.84577,12.90477 -10.82334,12.90477 -5.97757,0 -10.82334,-5.77766 -10.82334,-12.90477 0,-7.12711 4.84577,-12.90477 10.82334,-12.90477 5.97757,0 10.82334,5.77766 10.82334,12.90477 z" rx="10.823" ry="12.905" transform="matrix(.35412 0 0 .29270 436.14 -243.17)" cy="356.75" cx="218.13" stroke-width="1.5462"/>
    <ellipse id="path1070" d="m 228.95542,356.75403 c 0,7.12711 -4.84577,12.90477 -10.82334,12.90477 -5.97757,0 -10.82334,-5.77766 -10.82334,-12.90477 0,-7.12711 4.84577,-12.90477 10.82334,-12.90477 5.97757,0 10.82334,5.77766 10.82334,12.90477 z" rx="10.823" ry="12.905" transform="matrix(.35412 0 0 .28673 437.42 -243.88)" cy="356.75" cx="218.13" stroke-width="1.5623"/>
    <ellipse id="path869" d="m 228.95542,356.75403 c 0,7.12711 -4.84577,12.90477 -10.82334,12.90477 -5.97757,0 -10.82334,-5.77766 -10.82334,-12.90477 0,-7.12711 4.84577,-12.90477 10.82334,-12.90477 5.97757,0 10.82334,5.77766 10.82334,12.90477 z" rx="10.823" ry="12.905" transform="matrix(.35412 0 0 .28673 438.99 -247.02)" cy="356.75" cx="218.13" stroke-width="1.5623"/>
   </g>
   <g id="g946" stroke="#000" fill="#009200" transform="matrix(.17961 -.0045211 .0041926 .18512 420.99 -216.8)">
    <ellipse id="path889" d="m 596.11665,564.479 c 0,113.57383 -30.19291,205.6436 -67.43776,205.6436 -37.24484,0 -67.43776,-92.06977 -67.43776,-205.6436 0,-113.57382 30.19292,-205.6436 67.43776,-205.6436 37.24485,0 67.43776,92.06978 67.43776,205.6436 z" rx="67.438" ry="205.64" transform="matrix(.97574 -.30793 .36304 .87448 -245.81 324.4)" cy="564.48" cx="528.68" stroke-width="2.5449"/>
    <ellipse id="path894" d="m 541.99991,646.07043 c 0,22.53084 -5.96405,40.79569 -13.32108,40.79569 -7.35702,0 -13.32107,-18.26485 -13.32107,-40.79569 0,-22.53083 5.96405,-40.79568 13.32107,-40.79568 7.35703,0 13.32108,18.26485 13.32108,40.79568 z" rx="13.321" ry="40.796" transform="matrix(.91788 -.39685 .39685 .91788 -210.48 304.49)" cy="646.07" cx="528.68" stroke-width="2.5"/>
    <path id="path893" d="m139.87 643.99c0 57.677-18.755 86.171-34.551 110.32 7.517-32.47 12.905-52.637 12.905-110.31 0-57.677 29.579-85.337 40.379-101.99-4.186 16.652-18.733 44.312-18.733 101.99z" transform="matrix(1.8828 -.45598 .95342 1.1822 -352.26 -10.02)" stroke-width="1.5327"/>
    <path id="path892" d="m139.87 643.99c0 57.677-18.755 86.171-34.551 110.32 7.517-32.47 12.905-52.637 12.905-110.31 0-57.677 29.579-85.337 40.379-101.99-4.186 16.652-18.733 44.312-18.733 101.99z" transform="matrix(1.8828 -.45598 .95342 1.1822 -348.42 44.058)" stroke-width="1.5327"/>
    <path id="path891" d="m139.87 643.99c0 57.677-18.755 86.171-34.551 110.32 7.517-32.47 12.905-52.637 12.905-110.31 0-57.677 29.579-85.337 40.379-101.99-4.186 16.652-18.733 44.312-18.733 101.99z" transform="matrix(1.873 -.49468 .97758 1.1623 -361.92 105.78)" stroke-width="1.5327"/>
    <ellipse id="path895" d="m 541.99991,646.07043 c 0,22.53084 -5.96405,40.79569 -13.32108,40.79569 -7.35702,0 -13.32107,-18.26485 -13.32107,-40.79569 0,-22.53083 5.96405,-40.79568 13.32107,-40.79568 7.35703,0 13.32108,18.26485 13.32108,40.79568 z" rx="13.321" ry="40.796" transform="matrix(1.8105 -.40052 .69907 1.6353 -915.63 -221.01)" cy="646.07" cx="528.68" stroke-width="1.3887"/>
    <ellipse id="path896" d="m 541.99991,646.07043 c 0,22.53084 -5.96405,40.79569 -13.32108,40.79569 -7.35702,0 -13.32107,-18.26485 -13.32107,-40.79569 0,-22.53083 5.96405,-40.79568 13.32107,-40.79568 7.35703,0 13.32108,18.26485 13.32108,40.79568 z" rx="13.321" ry="40.796" transform="matrix(1.6257 -.23068 .54158 1.3528 -739.49 -91.775)" cy="646.07" cx="528.68" stroke-width="1.6398"/>
    <ellipse id="path897" d="m 541.99991,646.07043 c 0,22.53084 -5.96405,40.79569 -13.32108,40.79569 -7.35702,0 -13.32107,-18.26485 -13.32107,-40.79569 0,-22.53083 5.96405,-40.79568 13.32107,-40.79568 7.35703,0 13.32108,18.26485 13.32108,40.79568 z" rx="13.321" ry="40.796" transform="matrix(1.6304 -.19719 .51251 1.3635 -750.62 -91.826)" cy="646.07" cx="528.68" stroke-width="1.6398"/>
    <ellipse id="path898" d="m 541.99991,646.07043 c 0,22.53084 -5.96405,40.79569 -13.32108,40.79569 -7.35702,0 -13.32107,-18.26485 -13.32107,-40.79569 0,-22.53083 5.96405,-40.79568 13.32107,-40.79568 7.35703,0 13.32108,18.26485 13.32108,40.79568 z" rx="13.321" ry="40.796" transform="matrix(1.3144 -.20060 .46889 1.0101 -531.06 47.568)" cy="646.07" cx="528.68" stroke-width="2.0966"/>
    <ellipse id="path899" d="m 541.99991,646.07043 c 0,22.53084 -5.96405,40.79569 -13.32108,40.79569 -7.35702,0 -13.32107,-18.26485 -13.32107,-40.79569 0,-22.53083 5.96405,-40.79568 13.32107,-40.79568 7.35703,0 13.32108,18.26485 13.32108,40.79568 z" rx="13.321" ry="40.796" transform="matrix(1.3258 -.13044 .40342 1.0327 -517.87 12.211)" cy="646.07" cx="528.68" stroke-width="2.0966"/>
    <path id="path945" d="m145.7 569.47c0 34.006-6.712 61.61-14.985 61.61-8.272 0-14.986-27.604-14.986-61.61" transform="matrix(1.0254 -.49277 .46438 1.1773 12.767 -14.519)" stroke-width="2.0862"/>
    <ellipse id="path902" d="m 541.99991,646.07043 c 0,22.53084 -5.96405,40.79569 -13.32108,40.79569 -7.35702,0 -13.32107,-18.26485 -13.32107,-40.79569 0,-22.53083 5.96405,-40.79568 13.32107,-40.79568 7.35703,0 13.32108,18.26485 13.32108,40.79568 z" rx="13.321" ry="40.796" transform="matrix(1.3258 -.13044 .40342 1.0327 -519.53 -34.412)" cy="646.07" cx="528.68" stroke-width="2.0966"/>
    <ellipse id="path903" d="m 541.99991,646.07043 c 0,22.53084 -5.96405,40.79569 -13.32108,40.79569 -7.35702,0 -13.32107,-18.26485 -13.32107,-40.79569 0,-22.53083 5.96405,-40.79568 13.32107,-40.79568 7.35703,0 13.32108,18.26485 13.32108,40.79568 z" rx="13.321" ry="40.796" transform="matrix(1.3288 -.10511 .37955 1.04 -533.98 -40.121)" cy="646.07" cx="528.68" stroke-width="2.0966"/>
    <path id="path909" d="m145.7 569.47c0 34.006-6.712 61.61-14.985 61.61-8.272 0-14.986-27.604-14.986-61.61" transform="matrix(.67220 -.47182 .45894 .79910 39.486 143.28)" stroke-width="2.8797"/>
    <path id="path906" d="m145.7 569.47c0 34.006-6.712 61.61-14.985 61.61-8.272 0-14.986-27.604-14.986-61.61" transform="matrix(.67220 -.47182 .45894 .79910 51.142 125.79)" stroke-width="2.8797"/>
    <path id="path907" d="m145.7 569.47c0 34.006-6.712 61.61-14.985 61.61-8.272 0-14.986-27.604-14.986-61.61" transform="matrix(.93740 -.64468 0.64 1.0919 -40.198 -10.744)" stroke-width="2.0862"/>
    <path id="path908" d="m145.7 569.47c0 34.006-6.712 61.61-14.985 61.61-8.272 0-14.986-27.604-14.986-61.61" transform="matrix(.67220 -.52022 .45894 .88108 68.626 71.179)" stroke-width="2.7424"/>
   </g>
   <g id="g919" transform="matrix(1.1014 .27587 -.26559 .97437 -85.415 -157.9)" stroke="#000" stroke-width="2.5" fill="#804bff">
    <path id="path875" d="m276.27 345.41c-12.278 9.174 0.409 25.144 12.022 30.679 13.06 7.672 86.603 58.185 136.32 11.999-40.795 0.833-118.66-63.183-148.34-42.678z" transform="matrix(.13441 -.030448 .048511 .21681 448.75 -184.91)"/>
    <path id="path870" d="m276.27 345.41c-12.278 9.174 0.409 25.144 12.022 30.679 13.06 7.672 86.603 58.185 136.32 11.999-40.795 0.833-118.66-63.183-148.34-42.678z" transform="matrix(.13441 -.030448 .048511 .21681 446.2 -190.22)"/>
    <path id="path868" d="m276.27 345.41c-12.278 9.174 0.409 25.144 12.022 30.679 13.06 7.672 86.603 58.185 136.32 11.999-40.795 0.833-118.66-63.183-148.34-42.678z" transform="matrix(.13441 -.030448 .048511 .21681 443.39 -195.19)"/>
    <path id="path866" d="m276.27 345.41c-12.278 9.174 0.409 25.144 12.022 30.679 13.06 7.672 86.603 58.185 136.32 11.999-40.795 0.833-118.66-63.183-148.34-42.678z" transform="matrix(.13441 -.030448 .048511 .21681 438.61 -200.44)"/>
   </g>
   <g id="g907" transform="matrix(.99984 .017802 -.017802 .99984 12.04 10.605)">
    <path id="path852" d="m211.17 247.3c21.773-12.065 56.618-9.749 79.734 11.165 19.36 16.943 45.307 75.194 70.322 92.834-20.227 0.019-31.298-5.769-42.241-15.18-28.767 15.442-38.127 16.724-63.89 15.632-35.881-1.334-62.459-17.654-68.178-40.604-6.166-21.804 4.925-52.498 24.253-63.847z" transform="matrix(.20883 -.040911 .047305 .18060 407.8 -213.64)" stroke="#000" stroke-width="2.5" fill="#804bff"/>
    <ellipse id="path1051" d="m 301.3886,323.03516 c 0,8.27662 -6.33679,14.98616 -14.15361,14.98616 -7.81683,0 -14.15361,-6.70954 -14.15361,-14.98616 0,-8.27663 6.33678,-14.98616 14.15361,-14.98616 7.81682,0 14.15361,6.70953 14.15361,14.98616 z" rx="14.154" ry="14.986" stroke="#000" transform="matrix(.24521 0 0 .13433 401.82 -215.18)" cy="323.04" cx="287.23" stroke-width="2.5" fill="#f00"/>
    <ellipse id="path1062" d="m 227.83175,348.26199 c 0,8.7787 -10.41124,15.89524 -23.25414,15.89524 -12.84291,0 -23.25415,-7.11654 -23.25415,-15.89524 0,-8.77869 10.41124,-15.89523 23.25415,-15.89523 12.8429,0 23.25414,7.11654 23.25414,15.89523 z" rx="23.254" ry="15.895" stroke="#000" transform="matrix(.19364 -.075987 .067590 .17273 398.66 -208.06)" cy="348.26" cx="204.58" stroke-width="2.5" fill="#ff0"/>
    <ellipse id="path1059" d="m 289.73268,333.85846 c 0,3.21868 -2.60926,5.82794 -5.82796,5.82794 -3.21869,0 -5.82795,-2.60926 -5.82795,-5.82794 0,-3.21868 2.60926,-5.82794 5.82795,-5.82794 3.2187,0 5.82796,2.60926 5.82796,5.82794 z" rx="5.828" ry="5.8279" transform="matrix(.21412 0 0 .18518 411.29 -233.74)" cy="333.86" cx="283.9" stroke-width="1pt"/>
    <path id="path1061" d="m516.8 260.29c4.425 18.107-6.674 43.083-33.133 52.609-26.775 13.173-46.079 41.831-55.641 88.017-47.244-103.27-23.107-148.28 20.6-160.35 37.377-14.363 60.42-13.371 68.174 19.72z" transform="matrix(.092289 .00088747 -.0033970 .084817 417.85 -191.49)" stroke="#000" stroke-width="6.5598" fill="#ff0"/>
    <ellipse id="path1113" d="m 203.69458,362.39093 c 0,2.6011 -2.1086,4.7097 -4.7097,4.7097 -2.6011,0 -4.7097,-2.1086 -4.7097,-4.7097 0,-2.6011 2.1086,-4.7097 4.7097,-4.7097 2.6011,0 4.7097,2.1086 4.7097,4.7097 z" rx="4.7097" ry="4.7097" transform="matrix(.18697 -.013131 .013988 .19143 418.69 -234.98)" cy="362.39" cx="198.98" stroke-width="1pt"/>
   </g>
  </g>
 </g>
</svg>
