<?xml version="1.0" encoding="UTF-8" standalone="no"?>
<!-- Created with Sodipodi ("http://www.sodipodi.com/") -->
<svg id="svg378" xmlns:rdf="http://www.w3.org/1999/02/22-rdf-syntax-ns#" xmlns="http://www.w3.org/2000/svg" height="480" width="640" version="1" y="0" x="0" xmlns:cc="http://creativecommons.org/ns#" xmlns:dc="http://purl.org/dc/elements/1.1/">
 <metadata id="metadata10104">
  <rdf:RDF>
   <cc:Work rdf:about="">
    <dc:format>image/svg+xml</dc:format>
    <dc:type rdf:resource="http://purl.org/dc/dcmitype/StillImage"/>
   </cc:Work>
  </rdf:RDF>
 </metadata>
 <g id="flag">
  <g id="g4427" fill-rule="evenodd" stroke-width="1pt" transform="matrix(1.25 0 0 .93750 0 .00000512)">
   <rect id="rect171" height="512" width="512" y="-.0000077672" x="0" fill="#ffe800"/>
   <rect id="rect403" height="256" width="512" y="256" x="0" fill="#00148e"/>
   <rect id="rect135" height="128" width="512" y="384" x="0" fill="#da0010"/>
  </g>
  <g id="g1649" transform="matrix(1.2423 0 0 1.4908 -142.19 -129.94)">
   <g id="g876" fill-rule="evenodd" transform="matrix(-.47007 0 0 .41368 605.23 96.094)">
    <path id="path877" d="m4.7987 403.83 23.793 196.9h3.8211l-23.793-196.9h-3.821z" transform="matrix(.57212 -.69718 .56072 .71411 353.28 164.96)" stroke-width="1pt"/>
    <path id="path878" d="m4.7987 403.83-7.3373 229.84h3.8211l7.3374-229.84h-3.8211z" transform="matrix(.74475 -.66734 .72991 .68354 197.73 197.43)" stroke-width="1pt"/>
    <path id="path879" d="m478.35 60.236v88.583l17.717 88.583 17.717-88.583v-88.583h-35.434z" transform="matrix(.11739 -.11008 .15205 .14618 590.2 674.92)" stroke="#000" stroke-width="4.1036" fill="#808080"/>
    <path id="path880" d="m478.35 60.236v88.583l17.717 88.583 17.717-88.583v-88.583h-35.434z" transform="matrix(.11739 -.11008 .15205 .14618 632.05 611.64)" stroke="#000" stroke-width="4.1036" fill="#808080"/>
   </g>
   <g id="g1095" transform="matrix(.47007 0 0 .41368 122.21 80.334)">
    <path id="path571" d="m301.18 272.84s-17.716 336.61 53.15 336.61 106.3-35.433 106.3-35.433l-0.86-185.03-158.59-116.15z" fill-rule="evenodd" transform="matrix(.76821 0 0 1.0447 107.43 -80.403)" stroke="#000" stroke-width="1pt" fill="#ffdf00"/>
    <path id="path572" d="m344.46 304.2c-0.001 17.717-7.846 269.82 27.587 269.82s88.583-17.717 88.583-17.717l-0.86-167.31-115.31-84.79z" fill-rule="evenodd" transform="matrix(.76821 0 0 1.0447 107.43 -80.403)" stroke="#000" stroke-width="1pt" fill="#0000c4"/>
    <path id="path573" d="m367.52 321.16c-0.001 17.717 4.525 217.42 39.958 217.42h53.15l-0.859-149.59-92.249-67.833z" fill-rule="evenodd" transform="matrix(.76821 0 0 1.0447 107.43 -80.403)" stroke="#000" stroke-width="1pt" fill="#e10000"/>
    <path id="path574" d="m4.7987 403.83 23.793 196.9h3.8211l-23.793-196.9h-3.821z" fill-rule="evenodd" transform="matrix(.57212 -.69718 .56072 .71411 107.43 -80.403)" stroke-width="1pt"/>
    <path id="path551" d="m301.18 272.84s-35.433 336.61 70.866 336.61c88.583 0 88.583-53.15 106.3-53.15l-17.72-124.02-159.45-159.44z" fill-rule="evenodd" stroke="#000" stroke-width="1pt" fill="#ffdf00"/>
    <g id="g1056" stroke="#000" transform="matrix(.51617 -.27185 .21845 .40928 202.4 380.19)">
     <path id="path1046" d="m269.59 155.24c1.133 0 28.318-94.016 118.94-147.25" transform="matrix(1.0328 .57880 -.58895 .99892 119.61 -225.32)" stroke-width="2.3046" fill="none"/>
     <path id="path1036" d="m421.37-20.327c0 18.133-4.567 31.716-11.328 45.309-5.627-18.124-9.061-27.176-9.061-45.309s6.832-35.114 12.459-48.707c2.23 12.46 7.93 30.574 7.93 48.707z" fill-rule="evenodd" transform="matrix(.64661 -.44175 .57085 .93288 81.137 184.9)" stroke-width="1pt" fill="#005b00"/>
     <path id="path1049" d="m454.22-169.28c0 4.0663-3.8035 7.3627-8.4954 7.3627s-8.4954-3.2964-8.4954-7.3627 3.8035-7.3627 8.4954-7.3627 8.4954 3.2964 8.4954 7.3627z" fill-rule="evenodd" transform="matrix(.6 0 0 .69230 86.54 185.79)" stroke-width="1pt" fill="#f00"/>
     <path id="path1032" d="m421.37-20.327c0 18.133-4.567 31.716-11.328 45.309-5.627-18.124-9.061-27.176-9.061-45.309s6.832-35.114 12.459-48.707c2.23 12.46 7.93 30.574 7.93 48.707z" fill-rule="evenodd" transform="matrix(.30183 .67129 -.76402 .80884 305.07 -304.02)" stroke-width="1pt" fill="#005b00"/>
     <path id="path1033" d="m421.37-20.327c0 18.133-4.567 31.716-11.328 45.309-5.627-18.124-9.061-27.176-9.061-45.309s6.832-35.114 12.459-48.707c2.23 12.46 7.93 30.574 7.93 48.707z" fill-rule="evenodd" transform="matrix(.49226 .20511 -.50577 .95183 218.44 -112.53)" stroke-width="1pt" fill="#005b00"/>
     <path id="path1034" d="m421.37-20.327c0 18.133-4.567 31.716-11.328 45.309-5.627-18.124-9.061-27.176-9.061-45.309s6.832-35.114 12.459-48.707c2.23 12.46 7.93 30.574 7.93 48.707z" fill-rule="evenodd" transform="matrix(-.16649 .88938 -.69968 .30034 493.42 -380.78)" stroke-width="1pt" fill="#005b00"/>
     <path id="path1035" d="m421.37-20.327c0 18.133-4.567 31.716-11.328 45.309-5.627-18.124-9.061-27.176-9.061-45.309s6.832-35.114 12.459-48.707c2.23 12.46 7.93 30.574 7.93 48.707z" fill-rule="evenodd" transform="matrix(.77794 -.21907 .17683 1.0498 36.133 90.53)" stroke-width="1pt" fill="#005b00"/>
     <path id="path1037" d="m421.37-20.327c0 18.133-4.567 31.716-11.328 45.309-5.627-18.124-9.061-27.176-9.061-45.309s6.832-35.114 12.459-48.707c2.23 12.46 7.93 30.574 7.93 48.707z" fill-rule="evenodd" transform="matrix(.85513 -.32081 .38526 1.0592 -55.632 192.12)" stroke-width="1pt" fill="#005b00"/>
     <path id="path1038" d="m421.37-20.327c0 18.133-4.567 31.716-11.328 45.309-5.627-18.124-9.061-27.176-9.061-45.309s6.832-35.114 12.459-48.707c2.23 12.46 7.93 30.574 7.93 48.707z" fill-rule="evenodd" transform="matrix(.53960 .73688 -.91599 .65671 107.95 -231.91)" stroke-width="1pt" fill="#005b00"/>
     <path id="path1039" d="m421.37-20.327c0 18.133-4.567 31.716-11.328 45.309-5.627-18.124-9.061-27.176-9.061-45.309s6.832-35.114 12.459-48.707c2.23 12.46 7.93 30.574 7.93 48.707z" fill-rule="evenodd" transform="matrix(.11804 .90567 -1.119 .13442 289.51 -286.85)" stroke-width="1pt" fill="#005b00"/>
     <path id="path1040" d="m421.37-20.327c0 18.133-4.567 31.716-11.328 45.309-5.627-18.124-9.061-27.176-9.061-45.309s6.832-35.114 12.459-48.707c2.23 12.46 7.93 30.574 7.93 48.707z" fill-rule="evenodd" transform="matrix(.095023 .40764 -.56380 .27251 477.35 -164.9)" stroke-width="1pt" fill="#005b00"/>
     <path id="path1041" d="m421.37-20.327c0 18.133-4.567 31.716-11.328 45.309-5.627-18.124-9.061-27.176-9.061-45.309s6.832-35.114 12.459-48.707c2.23 12.46 7.93 30.574 7.93 48.707z" fill-rule="evenodd" transform="matrix(.26965 .20212 -.42690 .39695 400.57 -82.108)" stroke-width="1pt" fill="#005b00"/>
     <path id="path1042" d="m421.37-20.327c0 18.133-4.567 31.716-11.328 45.309-5.627-18.124-9.061-27.176-9.061-45.309s6.832-35.114 12.459-48.707c2.23 12.46 7.93 30.574 7.93 48.707z" fill-rule="evenodd" transform="matrix(-.21477 .43025 -.45956 .020529 600.54 -168.3)" stroke-width="1pt" fill="#005b00"/>
     <path id="path1043" d="m421.37-20.327c0 18.133-4.567 31.716-11.328 45.309-5.627-18.124-9.061-27.176-9.061-45.309s6.832-35.114 12.459-48.707c2.23 12.46 7.93 30.574 7.93 48.707z" fill-rule="evenodd" transform="matrix(.023099 .46942 -.84882 .040686 382.72 -176.4)" stroke-width="1pt" fill="#005b00"/>
     <path id="path1044" d="m421.37-20.327c0 18.133-4.567 31.716-11.328 45.309-5.627-18.124-9.061-27.176-9.061-45.309s6.832-35.114 12.459-48.707c2.23 12.46 7.93 30.574 7.93 48.707z" fill-rule="evenodd" transform="matrix(.045414 .91220 -1.1262 .044718 406.9 -340.56)" stroke-width="1pt" fill="#005b00"/>
     <path id="path1045" d="m269.59 155.24c1.133 0 28.318-94.016 118.94-147.25" transform="matrix(1.1714 0 0 1.1077 -46.215 -16.719)" stroke-width="2.3703" fill="none"/>
     <path id="path1047" d="m454.22-169.28c0 4.0663-3.8035 7.3627-8.4954 7.3627s-8.4954-3.2964-8.4954-7.3627 3.8035-7.3627 8.4954-7.3627 8.4954 3.2964 8.4954 7.3627z" fill-rule="evenodd" transform="matrix(.6 0 0 .69231 187.35 125.75)" stroke-width="1pt" fill="#f00"/>
     <path id="path1048" d="m454.22-169.28c0 4.0663-3.8035 7.3627-8.4954 7.3627s-8.4954-3.2964-8.4954-7.3627 3.8035-7.3627 8.4954-7.3627 8.4954 3.2964 8.4954 7.3627z" fill-rule="evenodd" transform="matrix(.6 0 0 .69231 223.6 124.62)" stroke-width="1pt" fill="#f00"/>
     <path id="path1050" d="m454.22-169.28c0 4.0663-3.8035 7.3627-8.4954 7.3627s-8.4954-3.2964-8.4954-7.3627 3.8035-7.3627 8.4954-7.3627 8.4954 3.2964 8.4954 7.3627z" fill-rule="evenodd" transform="matrix(.62069 0 0 0.52 89.954 93.049)" stroke-width="1pt" fill="#f00"/>
     <path id="path1051" d="m454.22-169.28c0 4.0663-3.8035 7.3627-8.4954 7.3627s-8.4954-3.2964-8.4954-7.3627 3.8035-7.3627 8.4954-7.3627 8.4954 3.2964 8.4954 7.3627z" fill-rule="evenodd" transform="matrix(.62069 0 0 0.52 99.797 94.227)" stroke-width="1pt" fill="#f00"/>
     <path id="path1052" d="m454.22-169.28c0 4.0663-3.8035 7.3627-8.4954 7.3627s-8.4954-3.2964-8.4954-7.3627 3.8035-7.3627 8.4954-7.3627 8.4954 3.2964 8.4954 7.3627z" fill-rule="evenodd" transform="matrix(.62069 0 0 0.52 91.36 100.12)" stroke-width="1pt" fill="#f00"/>
     <path id="path1053" d="m454.22-169.28c0 4.0663-3.8035 7.3627-8.4954 7.3627s-8.4954-3.2964-8.4954-7.3627 3.8035-7.3627 8.4954-7.3627 8.4954 3.2964 8.4954 7.3627z" fill-rule="evenodd" transform="matrix(.66667 0 0 .76923 102.7 156.33)" stroke-width="1pt" fill="#f00"/>
     <path id="path1054" d="m454.22-169.28c0 4.0663-3.8035 7.3627-8.4954 7.3627s-8.4954-3.2964-8.4954-7.3627 3.8035-7.3627 8.4954-7.3627 8.4954 3.2964 8.4954 7.3627z" fill-rule="evenodd" transform="matrix(.66667 0 0 .76923 111.76 152.93)" stroke-width="1pt" fill="#f00"/>
     <path id="path1055" d="m454.22-169.28c0 4.0663-3.8035 7.3627-8.4954 7.3627s-8.4954-3.2964-8.4954-7.3627 3.8035-7.3627 8.4954-7.3627 8.4954 3.2964 8.4954 7.3627z" fill-rule="evenodd" transform="matrix(.66667 0 0 .76923 111.76 157.46)" stroke-width="1pt" fill="#f00"/>
    </g>
    <path id="path552" d="m336.61 308.27c-0.001 17.717-35.433 212.6 53.15 265.75 35.433 17.716 88.582-17.717 88.582 0l-17.71-141.74-124.02-124.01z" fill-rule="evenodd" transform="translate(0 -.000030518)" stroke="#000" stroke-width="1pt" fill="#0000c4"/>
    <path id="path553" d="m372.05 343.7c-0.001 17.717-17.716 159.45 35.433 194.88 35.433 35.433 124.02 25.822 124.02 25.822l-70.87-132.12-88.58-88.58z" fill-rule="evenodd" stroke="#000" stroke-width="1pt" fill="#e10000"/>
    <path id="path570" d="m4.7987 403.83-7.3373 229.84h3.8211l7.3374-229.84h-3.8211z" fill-rule="evenodd" transform="matrix(.74475 -.66734 .72991 .68354 0 0)" stroke-width="1pt"/>
    <path id="path575" d="m460.63 184.25 17.716 35.433v17.717c-0.865-1.305 0 17.716-17.716 17.716-17.717 0-17.717-35.433-17.717-35.433s-17.716 35.433-17.716 70.866 17.716 53.15 17.716 53.15-2.611-36.703 17.717-35.433c20.328 1.271 17.716 17.716 17.716 17.716v35.433h17.717v-141.73l17.717-35.433-27.136-53.15-26.014 53.15z" fill-rule="evenodd" transform="matrix(.23199 -.22936 .17842 .17687 131.38 328.08)" stroke="#000" stroke-width="1pt" fill="#cececc"/>
    <path id="path576" d="m557.82 95.669-26.323 70.866 17.717 53.15-35.433-17.716 35.433 53.149v35.433h17.716v-35.433l35.433-53.149-35.433 17.716 17.717-53.15-26.827-70.866z" fill-rule="evenodd" transform="matrix(.17862 -.25938 .23884 .15008 178.7 314.58)" stroke="#000" stroke-width="1pt" fill="#cececc"/>
    <path id="path582" d="m422.53 136.96c0 2.068-1.958 3.746-4.371 3.746-2.412 0-4.371-1.678-4.371-3.746s1.959-3.747 4.371-3.747c2.413 0 4.371 1.679 4.371 3.747zm-6.244 7.909c0 35.801 20.917 187.81 22.582 191.56 0.139 4.44-4.718 6.383-7.077 0.833-6.551-17.342-20.744-159.91-21.333-193.22-0.244-13.734 3.761-14.801 8.326-14.57 3.759 0.209 8.325 3.725 8.325 7.909 0 4.996-5.828 8.742-10.823 7.493z" fill-rule="evenodd" transform="matrix(.68641 0 0 .50303 58.427 129.68)" stroke="#000" stroke-width="1pt" fill="#e10000"/>
    <path id="path583" d="m422.53 136.96c0 2.068-1.958 3.746-4.371 3.746-2.412 0-4.371-1.678-4.371-3.746s1.959-3.747 4.371-3.747c2.413 0 4.371 1.679 4.371 3.747zm-6.244 7.909c31.488 61.415 48.722 166.77 50.387 170.52 0.139 4.44-4.718 6.383-7.077 0.833-2.479-3.315-12.667-100.18-49.138-172.18-0.244-13.734 3.761-14.801 8.326-14.57 3.759 0.209 8.325 3.725 8.325 7.909 0 4.996-5.828 8.742-10.823 7.493z" fill-rule="evenodd" transform="matrix(.64753 .14728 -.25810 .47453 113.74 78.375)" stroke="#000" stroke-width="1pt" fill="#0000c4"/>
    <path id="path586" d="m422.53 136.96c0 2.068-1.958 3.746-4.371 3.746-2.412 0-4.371-1.678-4.371-3.746s1.959-3.747 4.371-3.747c2.413 0 4.371 1.679 4.371 3.747zm-6.244 7.909c0 35.801 20.917 187.81 22.582 191.56 0.139 4.44-4.718 6.383-7.077 0.833-6.551-17.342-20.744-159.91-21.333-193.22-0.244-13.734 3.761-14.801 8.326-14.57 3.759 0.209 8.325 3.725 8.325 7.909 0 4.996-5.828 8.742-10.823 7.493z" fill-rule="evenodd" transform="matrix(.87712 0 0 .81837 -58.633 151.18)" stroke="#000" stroke-width="1pt" fill="#e10000"/>
    <path id="path587" d="m422.53 136.96c0 2.068-1.958 3.746-4.371 3.746-2.412 0-4.371-1.678-4.371-3.746s1.959-3.747 4.371-3.747c2.413 0 4.371 1.679 4.371 3.747zm-6.244 7.909c31.488 61.415 48.722 166.77 50.387 170.52 0.139 4.44-4.718 6.383-7.077 0.833-2.479-3.315-12.667-100.18-49.138-172.18-0.244-13.734 3.761-14.801 8.326-14.57 3.759 0.209 8.325 3.725 8.325 7.909 0 4.996-5.828 8.742-10.823 7.493z" fill-rule="evenodd" transform="matrix(.82744 .23961 -.32980 .77201 12.05 67.705)" stroke="#000" stroke-width="1pt" fill="#0000c4"/>
   </g>
   <g id="g841" fill-rule="evenodd" transform="matrix(.47007 0 0 .41368 138.86 96.094)">
    <path id="path840" d="m4.7987 403.83 23.793 196.9h3.8211l-23.793-196.9h-3.821z" transform="matrix(.57212 -.69718 .56072 .71411 353.28 164.96)" stroke-width="1pt"/>
    <path id="path839" d="m4.7987 403.83-7.3373 229.84h3.8211l7.3374-229.84h-3.8211z" transform="matrix(.74475 -.66734 .72991 .68354 197.73 197.43)" stroke-width="1pt"/>
    <path id="path700" d="m478.35 60.236v88.583l17.717 88.583 17.717-88.583v-88.583h-35.434z" transform="matrix(.11739 -.11008 .15205 .14618 590.2 674.92)" stroke="#000" stroke-width="4.1036" fill="#808080"/>
    <path id="path701" d="m478.35 60.236v88.583l17.717 88.583 17.717-88.583v-88.583h-35.434z" transform="matrix(.11739 -.11008 .15205 .14618 632.05 611.64)" stroke="#000" stroke-width="4.1036" fill="#808080"/>
   </g>
   <g id="g1003" fill-rule="evenodd" stroke-width="1pt" transform="matrix(.47007 0 0 .41368 122.21 80.334)">
    <path id="path862" d="m301.18 272.84s-17.716 336.61 53.15 336.61 106.3-35.433 106.3-35.433l-0.86-185.03-158.59-116.15z" transform="matrix(-.76821 0 0 1.0447 955.56 -80.403)" stroke="#000" fill="#ffdf00"/>
    <path id="path863" d="m344.46 304.2c-0.001 17.717-7.846 269.82 27.587 269.82s88.583-17.717 88.583-17.717l-0.86-167.31-115.31-84.79z" transform="matrix(-.76821 0 0 1.0447 955.56 -80.403)" stroke="#000" fill="#0000c4"/>
    <path id="path864" d="m367.52 321.16c-0.001 17.717 4.525 217.42 39.958 217.42h53.15l-0.859-149.59-92.249-67.833z" transform="matrix(-.76821 0 0 1.0447 955.56 -80.403)" stroke="#000" fill="#e10000"/>
    <path id="path865" d="m4.7987 403.83 23.793 196.9h3.8211l-23.793-196.9h-3.821z" transform="matrix(-.57212 -.69718 -.56072 .71411 955.56 -80.403)"/>
    <g id="g940" transform="matrix(.52429 -.22358 .16895 .69382 362.76 423.13)" stroke="#000" fill="#005b00">
     <path id="path922" d="m428.17-16.928s81.556 90.618 111.01 154.05c29.451 63.432 54.371 156.32 54.371 156.32s2.265-86.086-36.247-163.11c-52.1-97.419-131.4-142.73-129.13-147.26z" transform="matrix(.53445 0 0 .82343 287.66 -.29338)"/>
     <path id="path923" d="m428.17-16.928s81.556 90.618 111.01 154.05c29.451 63.432 54.371 156.32 54.371 156.32s2.265-86.086-36.247-163.11c-52.1-97.419-131.4-142.73-129.13-147.26z" transform="matrix(.61528 .078751 -.061757 .89037 253.7 -77.628)"/>
     <path id="path924" d="m428.17-16.928s81.556 90.618 111.01 154.05c29.451 63.432 54.371 156.32 54.371 156.32s2.265-86.086-36.247-163.11c-52.1-97.419-131.4-142.73-129.13-147.26z" transform="matrix(.58869 .51998 -.35619 .81397 345.67 -312.47)"/>
     <path id="path925" d="m428.17-16.928s81.556 90.618 111.01 154.05c29.451 63.432 54.371 156.32 54.371 156.32s2.265-86.086-36.247-163.11c-52.1-97.419-131.4-142.73-129.13-147.26z" transform="matrix(.70720 .29774 -.25186 .94875 249.31 -237.18)"/>
     <path id="path926" d="m428.17-16.928s81.556 90.618 111.01 154.05c29.451 63.432 54.371 156.32 54.371 156.32s2.265-86.086-36.247-163.11c-52.1-97.419-131.4-142.73-129.13-147.26z" transform="matrix(.42062 .52704 -.35125 .71621 446.49 -285.66)"/>
     <path id="path927" d="m428.17-16.928s81.556 90.618 111.01 154.05c29.451 63.432 54.371 156.32 54.371 156.32s2.265-86.086-36.247-163.11c-52.1-97.419-131.4-142.73-129.13-147.26z" transform="matrix(.66899 .21888 -.17326 .88554 249.21 -174.23)"/>
     <path id="path934" d="m428.17-16.928s81.556 90.618 111.01 154.05c29.451 63.432 54.371 156.32 54.371 156.32s2.265-86.086-36.247-163.11c-52.1-97.419-131.4-142.73-129.13-147.26z" transform="matrix(.63368 .038274 -.065522 .87865 239.97 -48.721)"/>
     <path id="path935" d="m428.17-16.928s81.556 90.618 111.01 154.05c29.451 63.432 54.371 156.32 54.371 156.32s2.265-86.086-36.247-163.11c-52.1-97.419-131.4-142.73-129.13-147.26z" transform="matrix(.60862 .11977 -.12124 .88424 268.02 -109.93)"/>
     <path id="path936" d="m428.17-16.928s81.556 90.618 111.01 154.05c29.451 63.432 54.371 156.32 54.371 156.32s2.265-86.086-36.247-163.11c-52.1-97.419-131.4-142.73-129.13-147.26z" transform="matrix(.55418 .53394 -.40735 .75026 373.79 -312.51)"/>
     <path id="path937" d="m428.17-16.928s81.556 90.618 111.01 154.05c29.451 63.432 54.371 156.32 54.371 156.32s2.265-86.086-36.247-163.11c-52.1-97.419-131.4-142.73-129.13-147.26z" transform="matrix(.68567 .34443 -.31483 .92976 274.32 -269.42)"/>
     <path id="path938" d="m428.17-16.928s81.556 90.618 111.01 154.05c29.451 63.432 54.371 156.32 54.371 156.32s2.265-86.086-36.247-163.11c-52.1-97.419-131.4-142.73-129.13-147.26z" transform="matrix(.38774 .52048 -.39386 .64347 470.97 -270.71)"/>
     <path id="path939" d="m428.17-16.928s81.556 90.618 111.01 154.05c29.451 63.432 54.371 156.32 54.371 156.32s2.265-86.086-36.247-163.11c-52.1-97.419-131.4-142.73-129.13-147.26z" transform="matrix(.70076 .26126 -.25554 .87905 246.36 -207.5)"/>
    </g>
    <path id="path866" d="m301.18 272.84s-35.433 336.61 70.866 336.61c88.583 0 88.583-53.15 106.3-53.15l-17.72-124.02-159.45-159.44z" transform="matrix(-1 0 0 1 1063 .000045776)" stroke="#000" fill="#ffdf00"/>
    <path id="path867" d="m336.61 308.27c-0.001 17.717-35.433 212.6 53.15 265.75 35.433 17.716 88.582-17.717 88.582 0l-17.71-141.74-124.02-124.01z" transform="matrix(-1 0 0 1 1063 .000015259)" stroke="#000" fill="#0000c4"/>
    <path id="path868" d="m372.05 343.7c-0.001 17.717-17.716 159.45 35.433 194.88 35.433 35.433 124.02 25.822 124.02 25.822l-70.87-132.12-88.58-88.58z" transform="matrix(-1 0 0 1 1063 .000045776)" stroke="#000" fill="#e10000"/>
    <path id="path869" d="m4.7987 403.83-7.3373 229.84h3.8211l7.3374-229.84h-3.8211z" transform="matrix(-.74475 -.66734 -.72991 .68354 1063 .000045776)"/>
    <path id="path870" d="m460.63 184.25 17.716 35.433v17.717c-0.865-1.305 0 17.716-17.716 17.716-17.717 0-17.717-35.433-17.717-35.433s-17.716 35.433-17.716 70.866 17.716 53.15 17.716 53.15-2.611-36.703 17.717-35.433c20.328 1.271 17.716 17.716 17.716 17.716v35.433h17.717v-141.73l17.717-35.433-27.136-53.15-26.014 53.15z" transform="matrix(-.23199 -.22936 -.17842 .17687 931.61 328.08)" stroke="#000" fill="#cececc"/>
    <path id="path871" d="m557.82 95.669-26.323 70.866 17.717 53.15-35.433-17.716 35.433 53.149v35.433h17.716v-35.433l35.433-53.149-35.433 17.716 17.717-53.15-26.827-70.866z" transform="matrix(-.17862 -.25938 -.23884 .15008 884.3 314.58)" stroke="#000" fill="#cececc"/>
    <path id="path872" d="m422.53 136.96c0 2.068-1.958 3.746-4.371 3.746-2.412 0-4.371-1.678-4.371-3.746s1.959-3.747 4.371-3.747c2.413 0 4.371 1.679 4.371 3.747zm-6.244 7.909c0 35.801 20.917 187.81 22.582 191.56 0.139 4.44-4.718 6.383-7.077 0.833-6.551-17.342-20.744-159.91-21.333-193.22-0.244-13.734 3.761-14.801 8.326-14.57 3.759 0.209 8.325 3.725 8.325 7.909 0 4.996-5.828 8.742-10.823 7.493z" transform="matrix(-.68641 0 0 .50303 1004.6 129.68)" stroke="#000" fill="#e10000"/>
    <path id="path873" d="m422.53 136.96c0 2.068-1.958 3.746-4.371 3.746-2.412 0-4.371-1.678-4.371-3.746s1.959-3.747 4.371-3.747c2.413 0 4.371 1.679 4.371 3.747zm-6.244 7.909c31.488 61.415 48.722 166.77 50.387 170.52 0.139 4.44-4.718 6.383-7.077 0.833-2.479-3.315-12.667-100.18-49.138-172.18-0.244-13.734 3.761-14.801 8.326-14.57 3.759 0.209 8.325 3.725 8.325 7.909 0 4.996-5.828 8.742-10.823 7.493z" transform="matrix(-.64753 .14728 .25810 .47453 949.25 78.375)" stroke="#000" fill="#0000c4"/>
    <path id="path874" d="m422.53 136.96c0 2.068-1.958 3.746-4.371 3.746-2.412 0-4.371-1.678-4.371-3.746s1.959-3.747 4.371-3.747c2.413 0 4.371 1.679 4.371 3.747zm-6.244 7.909c0 35.801 20.917 187.81 22.582 191.56 0.139 4.44-4.718 6.383-7.077 0.833-6.551-17.342-20.744-159.91-21.333-193.22-0.244-13.734 3.761-14.801 8.326-14.57 3.759 0.209 8.325 3.725 8.325 7.909 0 4.996-5.828 8.742-10.823 7.493z" transform="matrix(-.87712 0 0 .81837 1121.6 151.18)" stroke="#000" fill="#e10000"/>
    <path id="path875" d="m422.53 136.96c0 2.068-1.958 3.746-4.371 3.746-2.412 0-4.371-1.678-4.371-3.746s1.959-3.747 4.371-3.747c2.413 0 4.371 1.679 4.371 3.747zm-6.244 7.909c31.488 61.415 48.722 166.77 50.387 170.52 0.139 4.44-4.718 6.383-7.077 0.833-2.479-3.315-12.667-100.18-49.138-172.18-0.244-13.734 3.761-14.801 8.326-14.57 3.759 0.209 8.325 3.725 8.325 7.909 0 4.996-5.828 8.742-10.823 7.493z" transform="matrix(-.82744 .23961 .32980 .77201 1050.9 67.705)" stroke="#000" fill="#0000c4"/>
   </g>
   <g id="g618" fill-rule="evenodd" transform="matrix(.47007 0 0 .41368 122.21 80.334)" stroke="#000" stroke-width="1pt">
    <path id="path561" d="m478.35 698.03c17.717 10.652 37.089 8.268 53.15 0v-141.73h-35.433c17.717 53.15 17.717 106.3-17.717 141.73z" fill="#e10000"/>
    <path id="path559" d="m513.78 609.45c0 88.582-42.466 108.27-42.466 125.98 17.716 0 29.465-8.248 42.466-19.685 17.716-17.717 19.426-107.68 17.716-106.3h-17.716z" transform="matrix(.60127 0 0 1.125 194.96 -129.32)" fill="#0000c4"/>
    <path id="path560" d="m478.35 609.45c-0.81 51.77-44.794 99.639-36.497 110.24 9.474 9.475 36.497-21.654 71.931-3.937 17.716-17.717 19.426-107.68 17.716-106.3h-53.15z" transform="matrix(.60127 0 0 1.125 194.96 -129.32)" fill="#0000c4"/>
    <path id="path558" d="m513.78 609.45c0 88.582-40.696 94.469-40.696 118.09 17.717 0 40.603-12.912 40.696-11.791 17.716-17.717 19.426-107.68 17.716-106.3h-17.716z" transform="matrix(.60127 0 0 .75003 176.18 99.207)" fill="#ffdf00"/>
    <path id="path557" d="m478.35 609.45c-0.81 51.77-43.73 95.702-35.433 106.3 9.474 9.475 35.433-17.717 70.867 0 17.716-17.717 19.426-107.68 17.716-106.3h-53.15z" transform="matrix(.60127 0 0 .75003 176.18 99.207)" fill="#ffdf00"/>
    <path id="path562" d="m478.35 698.03c17.717 10.652 37.089 8.252 53.15-0.015v-141.72h-35.433c17.717 53.15 17.717 106.3-17.717 141.73z" transform="matrix(-1 0 0 1 1063 .015686)" fill="#e10000"/>
    <path id="path563" d="m513.78 609.45c0 88.582-42.466 108.27-42.466 125.98 17.716 0 29.465-8.248 42.466-19.685 17.716-17.717 19.426-107.68 17.716-106.3h-17.716z" transform="matrix(-.60127 0 0 1.125 868.03 -129.31)" fill="#0000c4"/>
    <path id="path564" d="m478.35 609.45c-0.81 51.77-44.794 99.639-36.497 110.24 9.474 9.475 36.497-21.654 71.931-3.937 17.716-17.717 19.426-107.68 17.716-106.3h-53.15z" transform="matrix(-.60127 0 0 1.125 868.03 -129.31)" fill="#0000c4"/>
    <path id="path565" d="m513.78 609.45c0 88.582-40.696 94.469-40.696 118.09 17.717 0 40.603-12.912 40.696-11.791 17.716-17.717 19.426-107.68 17.716-106.3h-17.716z" transform="matrix(-.60127 0 0 .75003 886.82 99.223)" fill="#ffdf00"/>
    <path id="path566" d="m478.35 609.45c-0.81 51.77-43.73 95.702-35.433 106.3 9.474 9.475 35.433-17.717 70.867 0 17.716-17.717 19.426-107.68 17.716-106.3h-53.15z" transform="matrix(-.60127 0 0 .75003 886.82 99.207)" fill="#ffdf00"/>
   </g>
   <g id="g751" stroke="#000" fill-rule="evenodd" transform="matrix(.47007 0 0 .41368 122.21 80.334)">
    <path id="path702" d="m198.56 77.952-89.676 35.434 89.676 35.434 44.837-17.717 22.419 17.717 22.419 35.433 22.419-35.433 22.419-17.717 1201.9-0.002v-35.434l-1201.9 0.0023-22.419-17.717c0-17.716 4.703-35.433 22.419-35.433 17.717 0 54.242-0.0021 89.675-0.0021 0-17.716-44.838-53.15-134.51-53.15-89.675 0-134.51 35.434-134.51 53.15 35.433 0 71.958 0.0021 89.675 0.0021 17.716 0 22.419 17.717 22.419 35.433l-22.44 17.717-44.84-17.716z" transform="matrix(.20636 0 0 .36363 356.48 542.45)" stroke-width="4.4666" fill="#908f8a"/>
    <rect id="rect651" transform="matrix(.47619 0 0 .44444 353.49 559.05)" height="17.717" width="336.61" y="95.671" x="204.35" stroke-width="1.3784pt" fill="#b74d00"/>
    <rect id="rect652" transform="matrix(.47619 0 0 .44444 353.49 559.05)" height="17.717" width="336.61" y="77.955" x="204.35" stroke-width="1.3784pt" fill="#b74d00"/>
    <rect id="rect653" transform="matrix(.47619 0 0 .44444 353.49 559.05)" height="17.717" width="336.61" y="60.237" x="204.35" stroke-width="1.3784pt" fill="#b74d00"/>
    <rect id="rect654" transform="matrix(.47619 0 0 .44444 353.49 559.05)" height="17.717" width="336.61" y="42.522" x="204.35" stroke-width="1.3784pt" fill="#b74d00"/>
    <rect id="rect655" transform="matrix(.47619 0 0 .44444 353.49 559.05)" height="17.717" width="336.61" y="24.805" x="204.35" stroke-width="1.3784pt" fill="#b74d00"/>
    <rect id="rect656" transform="matrix(.47619 0 0 .44444 353.49 559.05)" height="17.717" width="336.61" y="7.0887" x="204.35" stroke-width="1.3784pt" fill="#b74d00"/>
    <rect id="rect657" transform="matrix(.47619 0 0 .44444 353.49 559.05)" height="17.717" width="336.61" y="-10.628" x="204.35" stroke-width="1.3784pt" fill="#b74d00"/>
    <path id="path678" d="m423.23 60.236 137.8 124.02h19.686l-137.8-124.02h-19.686z" transform="matrix(.42856 0 0 .44444 277.86 527.56)" stroke-width="3.2546" fill="#908f8a"/>
    <path id="path680" d="m423.23 60.236 137.8 124.02h19.686l-137.8-124.02h-19.686z" transform="matrix(.42856 0 0 -.44444 277.86 636.22)" stroke-width="3.2546" fill="#908f8a"/>
    <path id="path672" d="m425.2 60.236v124.02h17.716v-124.02h-17.716z" transform="matrix(.47621 0 0 .44444 256.75 527.56)" stroke-width="3.0875" fill="#908f8a"/>
    <path id="path679" d="m423.23 60.236 137.8 124.02h19.686l-137.8-124.02h-19.686z" transform="matrix(.42856 0 0 .44444 353.79 527.56)" stroke-width="3.2546" fill="#908f8a"/>
    <path id="path681" d="m423.23 60.236 137.8 124.02h19.686l-137.8-124.02h-19.686z" transform="matrix(.42856 0 0 -.44444 353.79 636.22)" stroke-width="3.2546" fill="#908f8a"/>
    <path id="path673" d="m425.2 60.236v124.02h17.716v-124.02h-17.716z" transform="matrix(.47620 0 0 .44444 391.74 527.56)" stroke-width="3.0875" fill="#908f8a"/>
    <path id="path674" d="m425.2 60.236v124.02h17.716v-124.02h-17.716z" transform="matrix(.47620 0 0 .44444 332.68 527.56)" stroke-width="3.0875" fill="#908f8a"/>
    <path id="path675" d="m425.2 60.236v124.02h17.716v-124.02h-17.716z" transform="matrix(.47621 0 0 .44444 315.81 527.56)" stroke-width="3.0875" fill="#908f8a"/>
   </g>
   <g id="g967" transform="matrix(.47007 0 0 .41368 122.21 80.334)">
    <g id="g645" stroke="#000" stroke-width="1pt" fill="#ffdf00" fill-rule="evenodd">
     <path id="path635" d="m655.51 396.85c0 88.016-55.559 159.45-124.02 159.45-68.456 0-124.02-71.433-124.02-159.45 0-88.015 55.559-159.45 124.02-159.45 68.457 0 124.02 71.433 124.02 159.45zm-17.717 0.001c0 78.236-47.622 141.73-106.3 141.73-58.677 0-106.3-63.496-106.3-141.73 0-78.237 47.622-141.73 106.3-141.73 58.677 0 106.3 63.496 106.3 141.73z"/>
     <path id="path643" d="m579.75 249.94c-14.836-8.072-31.144-12.537-48.258-12.537s-33.422 4.465-48.257 12.537l6.893 16.323c12.716-7.175 26.695-11.144 41.364-11.144s28.648 3.969 41.364 11.144l6.894-16.323z"/>
     <path id="path644" d="m579.75 249.94c-14.836-8.072-31.144-12.537-48.258-12.537s-33.422 4.465-48.257 12.537l6.893 16.323c12.716-7.175 26.695-11.144 41.364-11.144s28.648 3.969 41.364 11.144l6.894-16.323z" transform="matrix(1 0 0 -1 .20466 793.7)"/>
    </g>
    <path id="path883" d="m637.8 396.85c0 78.277-47.592 141.73-106.3 141.73-58.707 0-106.3-63.456-106.3-141.73 0-78.277 47.592-141.73 106.3-141.73 58.707 0 106.3 63.456 106.3 141.73z" fill-rule="evenodd" fill="#a7cfff"/>
    <path id="path889" d="m637.8 396.85c1.133 26.658-4.634 39.635-11.89 67.356-1.912 2.979-10.966-6.537-16.447-11.236s-7.812 4.239-14.537-3.046c-6.725-7.284-11.049 2.058-15.983-4.095s-51.301-7.056-51.366-7.585c4.591-2.276 28.269 0.152 24.474-11.193-4.3-11.722-31.094-0.352-34.692-15.365-2.44-14.907-53.566-15.543-57.219-19.225 1.444 5.664 39.728 8.049 38.814 22.57-0.833 5.915-37.693 7.644-41.247 12.651-3.045 6.295 28.927-1.707 30.114 6.032-0.078 3.185-4.705 0.068-21.358 4.99-8.326 2.46 15.454 10.329 6.41 14.637-9.045 4.307-28.261 6.187-27.433 7.997 2.94 8.908 44.693 19.536 40.535 21.065-14.754 6.559-22.552 10.872-29.627 14.652-19.24-25.653-31.146-61.087-31.146-100.2 31.716-11.405 24.968-13.735 83.645-13.735s77.981 2.33 128.95 13.735z" fill-rule="evenodd" stroke="#000" stroke-width="1pt" fill="#afff7b"/>
    <path id="path887" d="m637.8 396.85c-8.07 0-16.454 3.399-25.07 3.399-8.617 0-17.465-3.398-26.466-3.398s-19.287 4.531-28.512 4.531c-9.224 0-17.388-4.531-26.676-4.531-9.287 0-18.566 3.398-27.755 3.398s-18.289-3.398-27.219-3.398-17.691 3.398-26.201 3.398-16.77-3.399-24.699-3.399c0-19.559 2.976-38.197 8.358-55.151 27.075 2.002 11.042-15.715 27.075-15.715 8.655 0 17.434 1.859 25.238 9.788 2.447 0 14.479-11.373 27.912-9.788 13.432 1.586 8.492 27.272 26.371 28.637 9.062 6.796 14.392 11.133 26.778 13.871 17.717 1.606 68.351-2.5 68.705-0.194 1.417 9.223 2.161 18.772 2.161 28.552z" fill-rule="evenodd" stroke="#000" stroke-width="1pt" fill="#fff"/>
    <path id="path891" d="m549.85 473.94c0-5.664 13.512-9.462 13.512-18.524s-11.914-9.349-12.379-17.86c-0.2-3.461 10.319-7.046 14.914-7.335s8.493 7.42 8.493 9.119-4.662-4.192-8.578-4.378-12.313 0.631-12.313 2.33c0 3.399 14.851 7.598 13.718 18.925-1.132 11.327-12.71 14.657-12.71 18.055s5.056 12.86 5.056 12.86-9.713-7.529-9.713-13.192z" fill-rule="evenodd" transform="matrix(.35108 0 0 .78038 355.49 112.99)" stroke="#000" stroke-width="1pt"/>
    <path id="path892" d="m549.85 473.94c0-5.664 13.512-9.462 13.512-18.524s-11.949-9.348-12.379-17.86c-0.947-3.962 11.813-6.544 16.408-6.833s9.986 7.921 9.986 9.62-5.409-5.195-9.325-5.381-14.553 0.631-14.553 2.33c0 3.399 14.851 7.598 13.718 18.925-1.132 11.327-12.71 14.657-12.71 18.055s5.056 12.86 5.056 12.86-9.713-7.529-9.713-13.192z" fill-rule="evenodd" transform="matrix(-.35108 0 0 .78038 746.95 112.36)" stroke="#000" stroke-width="1pt"/>
    <path id="path893" d="m555.86 443.24c0 2.2118-1.7034 4.0048-3.8045 4.0048-2.1012 0-3.8045-1.793-3.8045-4.0048s1.7034-4.0048 3.8045-4.0048c2.1012 0 3.8045 1.793 3.8045 4.0048z" fill-rule="evenodd" transform="matrix(.65465 0 0 .97703 189.79 12.892)"/>
    <rect id="rect894" fill-rule="evenodd" height="31.638" width=".80096" y="458.05" x="586.7" stroke-width="1pt"/>
    <rect id="rect895" fill-rule="evenodd" height="31.638" width=".80096" y="455.65" x="593.91" stroke-width="1pt"/>
    <rect id="rect896" fill-rule="evenodd" transform="matrix(.0075562 -.99997 0.987 .16074 0 0)" height="6.9004" width=".80049" y="597.92" x="-376.42" stroke-width="1pt"/>
    <path id="path890" d="m497.26 478.07s26.052 11.328 31.716 18.124c5.664 6.797 3.398 6.796 3.398 6.796l57.769 2.266c0-3.398 10.194-3.399 12.46-11.328 2.265-7.929 2.265-10.194 2.265-10.194l-18.123 5.664 1.132-10.194-15.858-0.001-2.265 10.195-33.982-1.133 2.266-27.186-6.796 1.133-1.133 26.053c-1.133 0-31.717-7.929-32.849-10.195z" fill-rule="evenodd" transform="translate(-4.5309 1.1326)" stroke="#000" stroke-width="1pt" fill="#b74d00"/>
    <path id="path897" d="m440.53 316.28s37.645-11.214 92.11-10.413 92.11 12.815 91.309 12.815-10.413-18.422-10.413-18.422-38.446-10.412-81.697-11.213c-43.252-0.801-80.897 8.01-80.096 8.811l-11.213 18.422z" fill-rule="evenodd" stroke="#fede00" stroke-width="1pt" fill="#fede00"/>
    <rect id="rect898" fill-rule="evenodd" transform="rotate(-1.0493)" height="12.815" width="23.228" y="301.17" x="502.2" stroke-width="1pt" fill="#38a9f9"/>
    <path id="path905" d="m395.32 373.11-10.255 11.01 27.822 1.622v-12.815l-17.567 0.183z" fill-rule="evenodd" transform="rotate(-9.9873)" stroke-width="1pt" fill="#38a9f9"/>
    <rect id="rect900" fill-rule="evenodd" transform="rotate(-4.7573)" height="12.815" width="23.228" y="332.64" x="451.6" stroke-width="1pt" fill="#38a9f9"/>
    <rect id="rect901" fill-rule="evenodd" transform="matrix(-.99798 -.063470 -.063470 .99798 0 0)" height="12.815" width="23.228" y="256.52" x="-578.71" stroke-width="1pt" fill="#38a9f9"/>
    <path id="path904" d="m-662.06 160.45-11.642 13.5 25.748-0.258v-12.815l-14.106-0.427z" fill-rule="evenodd" transform="matrix(-0.976 -.21775 -.21775 0.976 0 0)" stroke-width="1pt" fill="#38a9f9"/>
    <rect id="rect903" fill-rule="evenodd" transform="matrix(-.99179 -.12788 -.12788 .99179 0 0)" height="12.815" width="23.228" y="218.17" x="-624.16" stroke-width="1pt" fill="#38a9f9"/>
    <polygon id="polygon906" d="m 532.6358,323.49219 -2.57827,-13.46973 -7.53666,11.45774 2.77263,-13.43106 -11.34765,7.70142 7.70143,-11.34765 -13.43107,2.77262 11.45774,-7.53665 -13.46973,-2.57827 13.46973,-2.57828 -11.45774,-7.53665 13.43107,2.77263 -7.70142,-11.34765 11.34764,7.70142 -2.77262,-13.43107 7.53665,11.45775 2.57828,-13.46973 2.57827,13.46973 7.53665,-11.45775 -2.77263,13.43107 11.34765,-7.70142 -7.70142,11.34765 13.43107,-2.77263 -11.45774,7.53666 13.46972,2.57827 -13.46972,2.57827 11.45774,7.53666 -13.43107,-2.77263 7.70142,11.34765 -11.34765,-7.70142 2.77263,13.43106 -7.53665,-11.45774 z" fill-rule="evenodd" stroke="#000" points="532.64 323.49 530.06 310.02 522.52 321.48 525.29 308.05 513.95 315.75 521.65 304.4 508.22 307.18 519.67 299.64 506.2 297.06 519.67 294.48 508.22 286.95 521.65 289.72 513.95 278.37 525.29 286.07 522.52 272.64 530.06 284.1 532.64 270.63 535.21 284.1 542.75 272.64 539.98 286.07 551.33 278.37 543.62 289.72 557.06 286.95 545.6 294.48 559.07 297.06 545.6 299.64 557.06 307.18 543.62 304.4 551.33 315.75 539.98 308.05 542.75 321.48 535.21 310.02" stroke-width="1pt" fill="#ffdf00"/>
    <path id="path907" d="m547.05 293.86c0 9.2895-6.6341 16.82-14.818 16.82-8.1836 0-14.818-7.5306-14.818-16.82 0-9.2895 6.6341-16.82 14.818-16.82 8.1836 0 14.818 7.5306 14.818 16.82z" fill-rule="evenodd" transform="matrix(.97297 0 0 .83333 14.786 51.779)" stroke="#000" stroke-width="1pt" fill="#ffdf00"/>
    <path id="path908" d="m533.44 291.85c0 1.1059-2.1516 2.0024-4.8057 2.0024s-4.8057-0.89651-4.8057-2.0024 2.1516-2.0024 4.8057-2.0024 4.8057 0.89651 4.8057 2.0024z" fill-rule="evenodd" transform="matrix(1 0 0 .80001 -.80097 59.57)"/>
    <path id="path909" d="m543.85 291.45c0 0.88471-1.6137 1.6019-3.6043 1.6019s-3.6043-0.7172-3.6043-1.6019c0-0.88471 1.6137-1.6019 3.6043-1.6019s3.6043 0.71721 3.6043 1.6019z" fill-rule="evenodd" transform="translate(-.80093 1.6019)"/>
    <path id="path911" d="m529.43 297.86l0.801 0.801c-1.902-1.902-0.996-1.126 1.602 3.203 2.393-0.495 3.091-1.39 4.806-2.403" transform="matrix(.95881 -.28405 .28405 .95881 -62.241 163.46)" stroke="#000" stroke-width="1pt" fill="none"/>
    <path id="path912" d="m527.83 304.27l0.801 0.801c-1.902-1.902-1.124-0.995 3.204 1.602 4.027 0.544 8.092-1.196 10.412-4.005" transform="translate(-1.6019 -.000030518)" stroke="#000" stroke-width="1pt" fill="none"/>
    <path id="path914" d="m468.56 330.7s1.602 12.815-8.81 28.834c-10.413 16.019-8.811 10.413-8.811 10.413s4.806 8.81 4.005 8.81-8.009-8.009-8.009-8.009l-8.811 8.81s8.01-13.616 7.209-13.616-2.403-4.806-2.403-4.806l6.407-2.403s9.612-16.82 9.612-16.019-28.835 18.422-28.835 18.422l38.446-30.436z" fill-rule="evenodd" fill="#b7e1ff"/>
    <path id="path915" d="m474.97 335.51c-0.801 0 4.005 12.816 8.01 19.223 4.004 6.408 4.004 14.418 4.004 14.418l13.617 6.407-17.621-24.829 11.213 4.004-19.223-19.223z" fill-rule="evenodd" fill="#b7e1ff"/>
    <path id="path916" d="m474.97 369.15s9.611 9.611 10.412 12.815 0.801 10.412 0.801 10.412l-4.004-8.009-5.607 7.208s4.005-11.213 3.204-12.014-6.408 4.005-6.408 4.005 2.403-6.408 2.403-7.209 0-4.806-0.801-7.208z" fill-rule="evenodd" fill="#b7e1ff"/>
    <path id="path917" d="m426.91 391.57c3.203-2.402 9.611-4.004 9.611-4.004s-4.005 6.407-4.806 6.407-3.203 0-4.805-2.403z" fill-rule="evenodd" fill="#b7e1ff"/>
    <path id="path918" d="m537.44 356.33s20.824 12.015 20.824 12.816-13.616-5.607-13.616-5.607l-7.208-7.209z" fill-rule="evenodd" fill="#b7e1ff"/>
    <path id="path919" d="m499.8 331.5c1.602 0.801 30.436 23.227 29.635 23.227s-12.815-6.407-12.815-5.606v5.606l-6.408-12.815-1.602 4.806-8.81-15.218z" fill-rule="evenodd" fill="#b7e1ff"/>
    <path id="path920" d="m507 367.54 8.01 15.218 8.009-1.602s-15.218-13.616-16.019-13.616z" fill-rule="evenodd" fill="#b7e1ff"/>
    <path id="path921" d="m531.84 357.93c0 2.403 0.801 14.417 0.801 14.417s4.806 4.005 4.806 3.204-4.806-16.82-5.607-17.621z" fill-rule="evenodd" fill="#b7e1ff"/>
   </g>
   <g id="g1032" transform="matrix(.42172 0 0 .40723 143.48 81.974)">
    <path id="path1021" d="m-66.605 93.247s69.103-39.131 147.78-68.27c78.677-29.14 166.93-48.289 178.59-48.289 23.312 0 63.275 59.945 69.936 59.945 6.66 0 33.302-16.651 66.605-16.651s53.284 26.642 59.945 26.642h59.944c6.661 0-19.981-66.605 0-63.275 9.991 1.6651 94.913 14.986 174.01 41.212 79.093 26.226 191.37 72.523 191.37 72.523s-183.5 25.082-232.16 17.663c-6.661 3.33-0.33 44.052-9.662 26.137-15.332-3.583-71.616-12.563-81.607-12.563s-28.621 11.551-55.263 18.211c-26.642 6.661-59.944 16.652-59.944 16.652l43.293 69.935-53.284 26.642s-33.303-79.926-46.624-79.926-19.981 56.614-36.633 53.284c-16.651-3.33-23.311-53.284-36.633-66.605-13.321-13.321-83.553-18.169-110.2-24.829-26.642-6.661-69.639-11.804-92.95-18.464-23.312-6.661-46.624 16.651-56.615 16.651-9.9908 0 13.321-19.982 3.3302-23.312s-16.651 9.991-23.312 9.991c-6.6605 0-76.596-13.321-83.256-16.651-6.6605-3.331 16.651-16.652 9.9908-16.652h-26.642z" fill-rule="evenodd" transform="matrix(.57953 0 0 .48866 318.34 114.63)" fill="#984000"/>
    <path id="path1022" d="m462.91-64.94c0 21.151-20.501 38.298-45.791 38.298s-45.791-17.147-45.791-38.298 20.501-38.298 45.791-38.298 45.791 17.147 45.791 38.298z" fill-rule="evenodd" transform="matrix(.41772 0 0 .43433 373.3 171.72)" stroke="#772600" stroke-width="3.7057" fill="#808080"/>
    <path id="path1023" d="m284.74-59.945c6.661-6.6606 14.987-16.651 36.633-16.651 4.996-1.6651 4.996-11.656 16.651-11.656 11.656 0 8.326 9.9908 16.652 13.321 8.325 3.3303 76.596-3.3302 76.596-3.3302s6.66 4.9954 6.66 11.656c0 6.6605-4.995 11.656-6.66 11.656s-68.271-4.9954-73.266-3.3303c-4.995 1.6652-8.326 3.3303-19.982 3.3303-11.655 0-14.986-11.656-23.311-11.656-8.326 0-16.652-1.6651-29.973 6.6605z" fill-rule="evenodd" transform="matrix(.52215 0 0 .52577 323.22 178.53)" stroke="#772600" stroke-width="5.25" fill="#984000"/>
    <path id="path1025" d="m487.88-76.597h26.642c9.572 0.1139 12.873 3.0053 21.647 3.3302h23.312c8.475-0.3139 12.951-2.2951 21.647-3.3302 14.504-0.1748 9.555-1.3055 6.66-9.9908-2.625-6.5643-2.949-9.6097-6.66-13.321-1.396-7.9455-4.655-10.772-4.996-19.982-1.527-7.026-4.342-11.752-1.665-19.982 3.84 5.647 5.387 7.97 14.986 8.326 10.045 0 13.937-0.206 19.982 3.33 4.663 4.891 10.886 3.331 19.982 3.331 7.677 1.405 8.96 5.312 14.986 8.325 7.103 3.936 11.694 4.996 21.646 4.996 7.968 1.422 14.88 2.578 19.982 4.995 4.25 5.08 10.951 6.338 19.982 6.6605 5.049 0 8.949-0.5245 13.321-1.6655 7.677 0.369 15.473 0 24.977 0 6.162 7.2093 7.586 9.8619 18.316 9.9912 7.338 5.1538 13.527 6.0354 19.982 8.3256h24.977c8.928 0.6868 11.789 4.3502 19.981 6.6606 8.114 3.7673 15.721 6.3503 21.647 8.3256 5.891 1.2807 13.574 1.6651 21.646 1.6651 6.183 3.1747 13.609 3.4592 18.317 6.6606 6.89 1.4765 16.302 3.2139 21.647 4.9954 8.816 1.1684 12.187 3.9421 19.981 4.9953 6.703 1.9152-2.224 3.5604-6.66 4.9955-9.827-0.364-10.537-3.946-19.982-4.9955-5.023-2.9383-12.639-2.5478-19.981-4.9953h-1.666c6.6 3.9038 12.948 6.4222 9.991 13.321-8.492 0-15.367-1.0976-23.312-1.6651-8.384-1.6162-12.226-3.3303-21.646-3.3303 9.395-2.2639 11.855 0.2697 18.316 3.3303 2.396 8.0585-2.725 4.9954-11.656 4.9954-7.608-2.731-12.173-5.9839-21.647-6.6605h-19.981c9.89 0.3663 11.977 4.0991 18.316 8.3256 0.518 2.5897-0.132 2.472-4.995 3.3302-5.16-4.4781-11.889-6.0133-19.982-8.3256-7.879-0.2815-16.217-0.9655-23.311-3.3302-4.867-0.3041-4.116-6.1776 6.66 3.3302 6.533 3.8431 8.833 6.9461 8.326 9.9908-8.576-2.1441-12.825-5.5798-18.317-8.3256-7.736-2.855-14.128-3.3303-23.312-3.3303-8.609-2.2657 0.894-3.5729 6.661 4.9954 12.379 8.7682-1.633 5.0062-6.661 3.3302-7.507-2.1449-15.284-5.1851-21.646-6.6605-5.046-1.4417-9.441-2.8549-14.986-3.3302 8.631 0.7846 11.571 3.8227 14.986 9.9907 8.755 6.0313-0.384 3.1005-8.326 1.6651-5.071-4.4015-11.487-6.6577-14.986-11.656-8.351-4.1755-8.563-8.9817-3.33 1.6651 1.363 3.4072 1.111 10.795 1.665 11.656-6.136-6.6263-4.825-8.3256-11.656-8.3256-4.634-3.244-11.496-5.7655-14.986-9.9909-6.436-0.6033-6.842-2.8991-13.321-4.9953 5.341 6.2741 12.389 12.479 16.651 18.316 7.597 4.2422 9.7 8.0611 14.986 11.656 2.14 3.6378 7.904 6.6557 1.665 1.6652-7.144-7.0433-12.46-8.6703-23.312-13.321-6.149-4.9594-8.37-7.0447-14.986-11.656-9.003-2.9043-5.508-4.5429 0 4.9954 6.318 5.7687 11.169 12.23 16.652 16.651 3.767 4.9068 10.136 10.118 14.986 13.321 1.501 2.2515 5.991 2.6645 0 3.3302-5.091-4.5985-12.398-7.531-18.317-11.656-8.302-2.3417-12.191-6.6534-18.316-11.656-3.9-5.8499-10.382-10.381-14.986-14.986-9.631-3.7687 1.899 3.6373 4.995 8.3257 2.153 6.0685 4.788 11.035 6.661 16.651 2.78 5.5605-8.47-1.3274-11.656-3.3303-7.321-4.1572-12.674-6.937-21.647-8.3257-5.98-1.3-13.602-2.4681-19.982-3.3302-7.614-2.0501 4.042 4.801 8.326 11.656 8.418 7.908-8.332 1.4253-13.321 0-8.223-1.6446-16.287-1.6651-24.977-1.6651-10.67 0.6276-3.05 1.9462 0 6.6605 3.287 2.5283 5.637 7.8537 4.995 9.9908-7.032-0.9504-13.025-3.0223-21.646-3.3303-6.962 2.3206-15.345 1.6652-23.312 1.6652-0.381 4.1913 1.444 0.6548 4.995 4.9953 5.763 2.3412 9.585 5.1775 8.326 8.3256h-23.312-24.977c-5.29 1.4478 1.14 0.70424 5 6.6639-2.161 5.4019-4.95 3.3303-11.656 3.3303-4.545-1.8177-13.598-2.6359-18.317-4.9954-4.689 0-4.336-1.2218-8.325-1.6651 14.035 9.9277 7.073 7.4499 14.986 14.986 1.367 0.4556 4.524 1.6651 1.665 1.6651" transform="matrix(.52215 0 0 .52577 323.22 185.53)" stroke="#772600" stroke-width="3.5" fill="none"/>
    <path id="path1027" d="m371.32 73.265c-0.997 0-3.199-5.3754-6.66-9.9907-2.327-6.0491-5.392-2.5881-8.326-11.656 0.348-9.402 0.684-11.094 0-19.982-6.863-4.783-9.714-6.2706-14.986-14.986-8.46-7.0787 1.236-19.063 2.845-27.849-7.375-1.6388-11.001 11.476-22.341 16.193-8.155 5.492-0.911-11.354-4.891-21.188-2.775-13.872-10.826 6.9561-13.911 12.862-5.467 3.7173-7.128 8.5414-14.986 1.665 0-5.1446 4.937-19.489 2.845-22.279-7.814 3.8139-18.087 15.49-26.157 17.283-8.131-1.7677 1.769-14.828 1.769-24.518-2.937-0.979-14.695 25.756-19.519 26.003-4.824 0.24727-2.713-25.993-4.972-25.428-3.542 4.959-10.649 15.429-15.576 18.948-9.454-1.2198 1.398-17.435 2.845-23.427 1.629-7.1679-8.904 13.751-14.501 15.102-4.101 3.5539-12.237 6.0715-14.986 6.6607 3.239-6.132 19.076-18.713 17.935-22.279-9.21 0.341-23.311 12.557-31.256 13.953-5.192 0-12.388 1.7583-13.321 1.665 0.448-7.9258 19.418-14.65 22.445-19.465-9.306 1.4938-27.186 9.7055-32.436 16.135-6.145 1.3357-13.943 3.0196-19.982 0 0.897-7.4754 14.856-21.998 17.936-26.758-8.396 3.6984-12.642 6.5898-21.647 8.3258-1.652 1.6522-6.524 5.2313-4.995 1.6651 2.655-6.945 6.675-10.11 9.99-14.986-7.45 1.3641-10.28 5.6337-18.316 9.9907-5.094 0.2216-19.646 14.854-24.596 15.102-11.449 8.3819-16.009 9.8072-28.307 13.321-7.5874 1.3549-11.259 2.9337-14.986 6.6606 3.7961-6.6884 9.5974-13.093 14.986-16.651 3.6765-5.5674 7.1214-10.195 14.986-13.321 1.8965-2.3181 7.1875-2.9055 1.6652-3.3304-4.746 4.2375-12.696 8.966-16.651 11.656-5.1015 3.2068-11.01 6.4812-13.321 4.9956 2.6173-7.1977 7.4363-8.9022 11.656-14.986 8.809-5.6056 0.0422-1.915-6.6605 0-4.3375 3.8661-12.122 6.7259-18.316 9.9907-7.1135 1.8558-11.704 6.1318-19.982 8.3258 0 2.3753 2.3654-4.2485 3.3303-6.6605 6.8314-7.4088 8.6573-9.4758 16.651-11.656 1.9116-2.8674 4.4187-1.6652-1.6652-1.6652-4.5139 4.0233-10.811 6.2116-16.651 9.9908-5.8913 1.2807-13.574 1.6651-21.647 1.6651-10.355 1.2427-9.4605 2.0247 0-3.3302 5.3575-5.0421 9.7688-3.775 9.9908-9.9907-6.2546 4.5322-13.869 7.8597-21.647 11.656-6.4345 0.1894-8.1336 1.6651-14.986 1.6651 3.2981-3.4158 5.2772-7.6337 9.9908-9.9907 6.896-7.6622-4.3772-1.4774-6.6605 0h-24.977c-4.4652 5.5817-0.2292 0.0513 3.3303-3.3302 4.3056-2.2388 8.756-5.1542 8.3256-6.6606-4.972 4.3154-10.726 6.2985-14.986 9.9908-4.6389 1.3917-9.9908 2.0845-9.9908 3.3304 3.6273-5.3456 9.5248-8.5759 13.321-13.321 5.6124-1.2201 10.396-2.9346 11.656-4.9953h-23.312 16.651c8.3988 0 15.628-0.7505 23.312-1.6652 13.263-2.2105-1.1589-3.3301-8.3257-3.3301-1.3899-2.5482 4.1118-3.9876 9.9908-4.9956 5.0242-2.3798 11.233-4.4931 16.651-6.6605 5.2558-1.4334 12.706-5.809 13.321-6.6605-5.0155 0.264-4.9752 1.4012-9.9908 1.6653 7.4468-0.5731 12.8-1.6653 21.647-1.6653 8.0276-2.5803 14.906-5.411 21.647-8.3256 2.9361-3.5887 4.2392-3.3303-3.3303-3.3303 6.7132-2.1578 16.238-3.1926 21.647-4.9954 7.8721-1.6869 14.899-4.2528 19.982-6.6608 4.8756-3.315 7.6895-7.175 13.321-9.99 6.527 4.438 6.601 4.995 18.317 4.995 9.409-0.112 15.171-2.373 19.981-6.661 7.207-1.965 8.482-5.429 16.651-6.66 7.444 1.329 15.029 1.665 23.312 1.665 8.096-2.12 15.677-6.011 21.647-9.991 5.093-2.502 11.139-6.121 16.651-8.326 6.07 3.133 10.843 5.651 18.317 6.661 7.727-1.149 11.746-4.869 18.316-6.661 3.577-4.329 8.777-6.632 14.986-8.325 9.671-4.748 8.913 1.574 13.321 6.66 4.895 5.133 11.373 2.681 18.317 4.996 3.83 5.893 6.646 9.914 11.656 13.321 3.889 4.708 8.508 6.034 16.651 6.66 2.967 3.957 0.601 6.811 6.661 8.326 2.388 2.529 6.518 3.606 9.99 4.995" transform="matrix(.52215 0 0 .52577 323.22 185.53)" stroke="#772600" stroke-width="3.5" fill="none"/>
    <path id="path1028" d="m468.74 30.803v0.8326c0-2.3271-0.103-1.0907 1.665 3.3302 0.595 3.6407-0.809 3.2188-2.498 5.828-0.286 3.7234-0.832 6.4001-0.832 10.823-0.537 3.6125-2.571 7.0401-4.163 9.9907-1.604 3.132-8.555 4.8691-8.326 9.1583-3.99 1.1403-4.084-1.4443-4.162-5.828-2.386-2.7269-3.212-6.467-4.996-9.9908-1.108-3.476-3.469-6.0323-4.995-9.9908-2.459-3.7861-4.546-4.8749-6.661-9.1582-0.826-2.0664-0.682-4.6176-2.497-5.828-2.72-3.438-4.489-3.9898-9.159-4.1628-3.592 0.8453-4.971 2.4155-8.325 3.3302-2.57 0.8568-7.57 0.5806-10.824 1.6652-0.808 1.314 1.6 1.9407 2.498 4.9954-2.135 1.7639-2.926 4.8829-4.163 7.4931-1.965 2.4858-3.283 3.7052-4.163 7.4931 1.363 2.3156 0.201 5.3864-1.665 7.4931-0.574 3.8637-2.434 5.8733-3.33 9.1583-2.686 1.8265-3.652 3.5385-5.828 6.6605-1.914 2.6791-3.636 2.4976-8.326 2.4976-3.667-1.0002-4.181-2.9876-7.493-4.1628-0.352-1.0565-0.608-1.3129-1.665-1.6651" transform="matrix(.52215 0 0 .52577 323.22 185.53)" stroke="#782600" stroke-width="3.125" fill="none"/>
    <path id="path1029" d="m369.66 93.245s-1.665 22.48-13.321 37.466-35.801 32.47-35.801 32.47 32.47-19.149 35.8-14.986c3.331 4.163-20.814 37.465-20.814 37.465s31.638-34.968 35.801-34.968 13.321 34.135 16.651 33.303c3.33-0.833-7.493-43.294-5.828-49.954 1.665-6.661 0-42.461 0-42.461l-12.488 1.6651z" fill-rule="evenodd" transform="matrix(.52215 0 0 .36307 325.39 185.66)" fill="#812e00"/>
    <path id="path1030" d="m369.66 93.245s-1.665 22.48-13.321 37.466-35.801 32.47-35.801 32.47 32.47-19.149 35.8-14.986c3.331 4.163-20.814 37.465-20.814 37.465s31.638-34.968 35.801-34.968 13.321 34.135 16.651 33.303c3.33-0.833-7.493-43.294-5.828-49.954 1.665-6.661 0-42.461 0-42.461l-12.488 1.6651z" fill-rule="evenodd" transform="matrix(.52215 0 0 .38810 364.51 182.22)" fill="#812e00"/>
    <path id="path1031" d="m502.76 139.27c0 1.6257-1.845 2.9436-4.121 2.9436s-4.121-1.3179-4.121-2.9436 1.845-2.9436 4.121-2.9436 4.121 1.3179 4.121 2.9436z" fill-rule="evenodd" fill="#812e00"/>
   </g>
  </g>
 </g>
</svg>
