<?xml version="1.0" encoding="UTF-8" standalone="no"?>
<!-- Created with Sodipodi ("http://www.sodipodi.com/") -->
<!--

<rdf:RDF xmlns="http://web.resource.org/cc/"
    xmlns:dc="http://purl.org/dc/elements/1.1/"
    xmlns:rdf="http://www.w3.org/1999/02/22-rdf-syntax-ns#">
<Work rdf:about="">
   <dc:title>SVG graphic of Eritrea's Flag</dc:title>
   <dc:rights><Agent>
      <dc:title>Andrew Duhan</dc:title>
   </Agent></dc:rights>
   <license rdf:resource="http://web.resource.org/cc/PublicDomain" />
</Work>

<License rdf:about="http://web.resource.org/cc/PublicDomain">
   <permits rdf:resource="http://web.resource.org/cc/Reproduction" />
   <permits rdf:resource="http://web.resource.org/cc/Distribution" />
   <permits rdf:resource="http://web.resource.org/cc/DerivativeWorks" />
</License>

</rdf:RDF>

-->
<svg id="svg678" xmlns:rdf="http://www.w3.org/1999/02/22-rdf-syntax-ns#" xmlns="http://www.w3.org/2000/svg" height="480" width="640" version="1.1" xmlns:cc="http://creativecommons.org/ns#" xmlns:dc="http://purl.org/dc/elements/1.1/">
 <metadata id="metadata3062">
  <rdf:RDF>
   <cc:Work rdf:about="">
    <dc:format>image/svg+xml</dc:format>
    <dc:type rdf:resource="http://purl.org/dc/dcmitype/StillImage"/>
   </cc:Work>
  </rdf:RDF>
 </metadata>
 <g id="flag" fill-rule="evenodd">
  <g id="g5244" transform="matrix(1.0821 0 0 .9375 97.387 0)">
   <rect id="rect686" height="512" width="591.45" y="0" x="-90" stroke-width="1pt" fill="#be0027"/>
   <path id="path684" d="m-90 512 591.45-0.32-0.03-255.68-591.42 256z" fill="#b4d7f4"/>
   <path id="path685" d="m-90 0.00041424 591.45 0.32072-0.03 255.68-591.42-256z" fill="#239e46"/>
  </g>
  <path id="path687" d="m186.23 360.4c-10.713 2.958-16.854 11.269-16.697 19.111l52.731-0.21171c0.47384-8.4262-6.4583-16.219-17.012-19.288 51.628-1.0666 96.479-20.405 104.63-32.814-8.0653-3.5003-17.391 2.1333-24.039 0.83677 15.784-7.2951 63.073-37.903 55.384-70.717-5.9764 18.226-24.081 33.306-31.791 37.354 17.665-26.823 41.786-54.749 20.859-76.374 1.0566 12.533-7.9645 26.327-11.949 27.364 10.247-28.341 20.024-63.926-2.1776-87.384 2.9156 8.4786 1.7381 32.396-2.2764 33.471-1.236-19.272-4.5246-59.808-24.821-59.232 6.4462 5.7385 9.267 21.401 9.4102 37.221-4.6254-10.838-9.882-18.998-21.125-27.001-9.0956-17.443-25.279-31.896-41.464-42.25 1.8167 12.697 3.3209 22.714 21.048 35.883-9.2428-0.57466-18.484-18.097-28.362-18.582-7.8576-0.37907-14.024 7.1196-26.864 2.8047 1.4215 4.2383 7.412 6.1155 8.6763 9.2509-2.7503 1.8994-9.2791-0.29641-14.707-3.1233 7.4664 10.17 19.036 16.151 28.858 14.132 11.681-2.2462 24.204-1.0586 36.149 5.7385-3.0507 1.5667-14.925 1.5566-22.545 0.60288 6.9261 7.0128 11.572 11.66 23.615 11.584 10.757-0.0705 16.397-5.7385 19.159-2.228 6.7466 7.9947 11.287 15.985 16.931 25.398-12.467 1.3772-8.7085-14.1-22.593-22.016-7.8012 16.147 8.9726 35.288 20.391 43.244 0.15324 12.136 1.9276 22.29 7.0753 31.531 3.4701 6.5147 7.9564 13.183 6.2647 27.886-6.8354-4.9783-13.515-21.768-11.058-35.096-8.5553 2.3329-11.9 17.377-7.8677 24.95 3.0124 5.7647 5.0227 16.798 1.5485 21.73-3.3854 4.5952-3.7403 4.081-3.6959 13.943 0.12097 5.9018-3.1757 12.88-8.5452 17.746 1.1211-4.1577 2.3994-11.312 1.1574-15.784-4.2444 7.2003-14.893 14.651-18.246 22.391-3.2927 7.7588-4.1274 21.198-20.062 24.297-20.5 4.0689-27.575 7.6217-40.766 13.019-1.4638-10.019 2.9176-30.912 11.295-29.721 8.1802 1.4558 32.981-8.5452 24.109-29.438-1.7522 6.5853-7.5975 13.011-13.917 13.296 6.8273-8.8577 19.012-18.03 13.078-32.872-3.2987 6.3091-8.4867 13.88-16.354 18.141 8.4343-16.163 0.97994-20.998-9.0352-7.6862-3.7826 5.1356-6.0671 15.427-8.4706 28.497-3.9339-10.63-3.6738-24.623-8.3355-35.985-4.8694-12.287 6.4623-15.532 11.796-14.546 13.058 3.4862 34.88 3.4842 33.259-18.088-5.6397 7.2971-15.53 9.5513-26.21 6.924 11.995-8.7589 21.466-25.234 8.0996-33.836-0.44561 9.1218-7.5048 19.349-16.929 24.059-2.2059-7.6963-2.2059-15.864-0.31455-24.819-5.2626 5.5388-9.1057 17.064-12.162 30.166-0.22985-12.951 2.22-22.282 4.0367-29.249 2.7543-10.176 9.5997-3.5548 20.079-2.8047 10.092 0.57264 23.986-5.0045 21.331-18.689-3.4459 5.4138-10.519 7.5209-17.746 6.9483 8.7004-5.2707 23.859-14.637 15.546-29.043-3.4923 5.4562-4.6234 10.124-14.731 11.798 2.6474-6.0893 3.087-14.699 10.933-18.111-13.995-2.7866-22.008 6.3978-26.081 20.782-1.6514-9.9727-3.6173-13.644-4.0084-20.94 7.5652-8.402 8.3577-24.839-8.021-28.515-0.97186 8.4786-0.68353 10.499 1.1796 17.403-7.6882-4.567-18.524-7.0874-25.738-0.6291 4.8876 5.2747 12.453 9.9183 24.113 4.1657-2.7543 9.011-9.9183 7.4685-19.762 4.0326 6.0167 11.302 13.61 13.31 21.99 12.007 4.3875 11.568 4.5811 20.357-8.2407 37.203 0.5928-10.469-0.15123-18.268-8.4686-26.732-7.1277-6.9805-12.921 0.29842-1.7824 15.818-6.7567-4.9763-14.405-15.076-16.707-25.174-2.228 12.475-0.22179 27.178 6.6841 35.421-3.2664 3.4903-6.9805-0.371-12.475-8.9101 2.0788 27.327 13.737 32.6 29.406 26.509 0.44561 14.999 0.44561 28.888 1.3368 47.007-9.136-13.142-20.718-22.946-27.18-25.396-2.0042 7.3515 5.5711 16.929 9.8034 22.276-6.4603-1.3368-20.496-12.029-20.496-12.029-1.4114 12.179 14.334 23.466 24.506 28.515-11.955-0.52021-17.23-5.0489-24.952-12.475 0.1492 33.788 36.608 27.92 43.442 22.722 0.89121 16.635 2.1615 35.864 3.0527 52.499-10.307-1.7986-9.4969-4.8977-18.316-5.7143-24.478-0.95372-43.895-29.384-50.325-50.297-1.8449 3.4419-0.38109 7.043-2.0688 11.271-3.9742-10.265-9.0513-23.522-15.86-29.692 1.734 5.9844 1.9175 12.066 1.3146 23.25-2.3369-7.2467-4.5105-9.4686-4.6678-17.976 0.14921-6.5309 6.301-11.35 5.9603-20.536-0.25204-6.7063-6.3696-21.242-7.2688-32.495-2.962 11.582-4.821 23.791-9.3578 30.961 2.2543-12.368 1.5316-20.903 5.3453-29.227 4.4057-8.7629 8.152-16.586 5.2182-25.43-2.8128 3.4156-1.8449 6.5188-8.912 14.818-1.535-9.0251 9.1378-23.47 19.496-29.277 7.3052-3.8492 16.514-17.617 10.515-27.053-6.8696 4.934-9.9546 11.6-19.659 22.99 6.922-27.059 24.908-34.138 46.44-34.231 4.7646-0.0222 14.37-1.7421 17.066-8.0472-6.0692 2.343-13.245 2.6414-19.631 1.363 4.6476-6.8232 14.435-5.9361 23.555-5.9764 7.1539-0.0343 18.322-1.0041 22.837-11.193-8.7267 3.7806-22.337 4.567-30.906 1.8893 13.628-7.0612 34.975-7.8213 45.924-17.088-12.479-9.3134-43.706 2.1696-63.43 15.697 5.5126-5.0408 14.225-13.983 19.032-21.202-10.787-5.1719-38.068 25.051-47.466 43.008-8.9263 5.0408-12.497 12.943-15.963 18.457 4.7565-16.072 5.2606-27.735 9.2287-40.97-30.599 10.533-17.88 67.069-24.536 80.595 0.78334-14.933 0.14901-34.116-5.999-44.008-9.4247 7.1902-10.185 49.509-1.3368 84.74-3.1953-9.4283-9.2261-18.23-11.161-29.705-13.949 25.44 8.1768 55.453 26.678 79.161-13.928-7.2548-27.7-22.859-36.746-35.941 2.4968 45.533 50.046 54.993 57.427 66.184-10.019-4.6638-29.173-13.892-37.301-4.2222 13.232 3.0547 23.786 6.5853 32.291 12.16 12.34 15.407 35.707 22.145 76.403 23.847z" fill="#f3e295"/>
 </g>
</svg>
