<?xml version="1.0" encoding="UTF-8" standalone="no"?>
<!-- Created with Sodipodi ("http://www.sodipodi.com/") -->
<svg id="svg378" xmlns:rdf="http://www.w3.org/1999/02/22-rdf-syntax-ns#" xmlns="http://www.w3.org/2000/svg" height="480" width="640" version="1" y="0" x="0" xmlns:cc="http://creativecommons.org/ns#" xmlns:dc="http://purl.org/dc/elements/1.1/">
 <metadata id="metadata3768">
  <rdf:RDF>
   <cc:Work rdf:about="">
    <dc:format>image/svg+xml</dc:format>
    <dc:type rdf:resource="http://purl.org/dc/dcmitype/StillImage"/>
   </cc:Work>
  </rdf:RDF>
 </metadata>
 <defs id="defs380">
  <clipPath id="clipPath4680" clipPathUnits="userSpaceOnUse">
   <rect id="rect4682" fill-opacity="0.67" height="512" width="682.67" y=".000014384" x="-61.312"/>
  </clipPath>
 </defs>
 <g id="flag" fill-rule="evenodd" clip-path="url(#clipPath4680)" transform="matrix(.9375 0 0 .9375 57.48 -.000013485)" stroke-width="1pt">
  <rect id="rect171" height="498" width="1037.9" y="3.4988" x="-237.99" fill="#ffc621"/>
  <rect id="rect289" height="169.5" width="1039.3" y="342.5" x="-240" fill="#ef2118"/>
  <rect id="rect288" height="180" width="1038" y=".000013510" x="-237.99" fill="#298c08"/>
  <ellipse id="path316" d="m 733.8736,352.9678 c 0,110.26463 -89.38716,199.65177 -199.6518,199.65177 -110.26464,0 -199.65179,-89.38714 -199.65179,-199.65177 0,-110.26462 89.38715,-199.65176 199.65179,-199.65176 110.26464,0 199.6518,89.38714 199.6518,199.65176 z" cx="534.22" rx="199.65" cy="352.97" transform="matrix(.53920 0 0 .53920 -25.807 73.951)" ry="199.65" fill="#006bc6"/>
  <path id="path322" d="m214.25 188.2-6.4322 4.5218 23.494 33.021 6.2666-3.996-23.329-33.546zm29.41 77.942-9.6609-6.7363 3.9923-12.676-48.122 0.67185-13.929-10.664 65.691-0.70797 12.183-36.908 6.5443 14.924-16.699 52.098zm76.522-70.679-6.2542-4.7649-24.378 32.374 5.7032 4.766 24.929-32.375zm-65.412 51.587 3.5027-11.245 13.29-0.0243-15.182-45.67 5.9577-16.5 20.524 62.407 38.864 0.46047-12.248 10.748-54.709-0.17578zm90.672 51.165 2.6146-7.4151-38.295-13.262-2.785 6.8905 38.465 13.786zm-69.179-46.416 11.777-0.11916 4.1039 12.641 38.803-28.469 17.532 0.60391-53.092 38.693 11.493 37.128-13.989-8.3571-16.629-52.12zm-19.749 102.08 7.8616 0.11485 0.36342-40.524-7.4189-0.44323-0.80611 40.853zm21.944-80.365 3.8666 11.125-10.673 7.9182 39.353 27.705 5.0162 16.81-53.597-37.989-31.528 22.728 3.4622-15.923 44.101-32.375zm-103.27 12.986 2.325 7.5111 38.646-12.203-1.8764-7.1919-39.094 11.884zm83.21-4.0198-9.3805 7.1212-10.835-7.696-14.157 45.997-14.431 9.9747 19.525-62.727-31.375-22.94 16.213-1.6386 44.44 31.908z" fill="#ffc621"/>
 </g>
</svg>
