<?xml version="1.0" encoding="UTF-8" standalone="no"?>
<!-- Created with Sodipodi ("http://www.sodipodi.com/") -->
<svg id="svg556" xmlns:rdf="http://www.w3.org/1999/02/22-rdf-syntax-ns#" xmlns="http://www.w3.org/2000/svg" height="480" width="640" version="1.1" xmlns:cc="http://creativecommons.org/ns#" xmlns:xlink="http://www.w3.org/1999/xlink" xmlns:dc="http://purl.org/dc/elements/1.1/">
 <metadata id="metadata3147">
  <rdf:RDF>
   <cc:Work rdf:about="">
    <dc:format>image/svg+xml</dc:format>
    <dc:type rdf:resource="http://purl.org/dc/dcmitype/StillImage"/>
   </cc:Work>
  </rdf:RDF>
 </metadata>
 <g id="flag">
  <path id="path688" d="m0 0v480h640v-480h-640z" fill-rule="evenodd" stroke-width="1pt" fill="#67b1ff"/>
  <g id="g5143" stroke-width="1pt" transform="matrix(1.3763 0 0 1.3351 0 -.0000022721)">
   <rect id="rect962" fill-rule="evenodd" height="207.6" width="313.47" y=".0000067803" x="0" fill="#0000b4"/>
   <g id="g584" transform="matrix(5.2245 0 0 6.9201 0 .00015498)">
    <path id="path146" d="m0 0v3.3541l53.292 26.646h6.708v-3.354l-53.292-26.646h-6.708zm60 0v3.354l-53.292 26.646h-6.708v-3.354l53.292-26.646h6.708z" fill="#fff"/>
    <path id="path136" d="m25 0v30h10v-30h-10zm-25 10v10h60v-10h-60z" fill="#fff"/>
    <path id="path141" d="m0 12v6h60v-6h-60zm27-12v30h6v-30h-6z" fill="#c00"/>
    <path id="path150" d="m0 30 20-10h4.472l-20 10h-4.472zm0-30 20 10h-4.472l-15.528-7.7639v-2.2361zm35.528 10 20-10h4.472l-20 10h-4.472zm24.472 20-20-10h4.472l15.528 7.764v2.236z" fill="#c00"/>
   </g>
  </g>
  <g id="g901" fill-rule="evenodd" transform="matrix(1.0951 0 0 1.2741 -361.45 -17.196)">
   <path id="path689" d="m687.5 121.06v125c18.75 87.5 51.562 100 93.75 125 42.188-25 75-37.5 93.75-125v-125h-187.5z" transform="translate(0 -.000015259)" stroke-width="1pt" fill="#fff"/>
   <path id="path694" d="m768.75 121.06 0.196 242.91 12.5 7.053 12.5-7.249-0.196-242.71h-25z" stroke-width="1pt" fill="#da0000"/>
   <path id="path693" d="m687.5 247.38 9.377 34.047 169.24-0.095 8.885-33.952h-187.5z" stroke-width="1pt" fill="#da0000"/>
   <rect id="rect566" height="87.5" width="187.5" y="121.06" x="687.5" stroke-width="1pt" fill="#da0000"/>
   <g id="g910" transform="matrix(.25759 0 0 .30435 612.91 247.3)">
    <rect id="rect909" rx="23.225" ry="27.989" height="55.978" width="46.45" stroke="#000" y="-281.68" x="306.09" stroke-width=".75" fill="#f6efec"/>
    <path id="path908" d="m850.4-296.57s47.641-3.573 64.315-22.63c16.675-19.056-11.314-53.596 6.551-57.169 7.146-0.596 17.27 1.787 25.011 11.314-1.191-7.145-5.955-11.314-7.741-15.481-6.551-5.957-13.102-5.361-22.63-5.361-6.551 1.192-7.742-1.192-18.46-13.697-5.36-5.955-5.36-20.842-1.192-30.966-12.505 9.528-10.123 22.628-8.932 25.606 2.977 13.102 5.955 16.675 5.955 22.631-3.573-1.787-10.124-17.271-44.068-19.653-33.945-2.382-119.7 23.821-158.41 23.821-38.709 0-94.687-16.079-94.687-16.079s14.292-11.315-2.978-16.079c-17.269-4.764-55.382 16.675-66.102 4.764-7.741-11.315-4.764-8.933-5.955-14.292-2.977 1.786-4.764 8.933-0.595 18.461 4.168 9.528 6.55 6.55 5.955 6.55-0.596 0-13.697 0-14.888 4.765-1.191 3.572-2.978 7.741 3.573 20.842 2.382-13.101-6.55-14.887 13.101-16.078 19.653-1.191 33.349 7.742 50.023 10.719 16.675 2.978 16.675-7.146 17.27-6.551 0.596 0.596 51.214 14.293 97.664 11.315 46.45-2.977 121.49-28.585 156.02-23.225 34.54 5.359 57.17 30.371 57.765 53.596-0.595 14.292-15.483 21.438-27.393 23.82-14.292 2.382-47.641 5.956-47.641 5.956l18.461 13.101z" transform="matrix(.87977 0 0 .69778 113.77 -89.63)" stroke="#000" stroke-width=".875" fill="#ff0"/>
    <path id="path900" d="m683.06-248.92c-0.596 0-32.754 0.596-42.282 14.292-9.528 13.697-13.697 26.799-13.101 26.799 0.595 0 21.438-11.315 21.438-11.315s-15.483 22.629-7.146 42.877c8.337 20.247-22.01 19.056-39.507 19.651-7.742-5.955-32.473-16.079-41.292-17.865-5.507-2.084-16.321-2.353-27.616 10.347-6.653 7.831 9.888-7.37 26.295-6.178 1.774 1.786 2.916 3.574 3.232 7.741-8.742-0.595-17.84-10.719-28.559 10.124 10.719-7.146 12.059-6.997 17.493-7.444 7.239-0.536 6.309 3.276 6.011 3.276-1.191 0-4.145 0.595-8.617 4.764-2.382 2.977-8.337 9.528-7.146 9.528s4.752-3.573 10.327-6.551c3.484-2.382 6.793-2.382 17.322 0.596 57.765 13.696 88.731 3.573 92.304-1.787 1.787-2.381-33.349-69.675 60.147-87.54-1.191-0.596-39.303-10.719-39.303-11.315z" transform="matrix(.85464 0 0 1 231.25 -38.113)" stroke="#000" stroke-width=".5" fill="#ff0"/>
    <path id="path899" d="m472.84-212.6c32.753 27.394 253.69-29.18 281.68-48.832 16.079-11.315 44.068-19.652 44.068 19.056 7.146-26.203 7.147-32.753 7.147-32.158 0.595 0.596 11.314 10.125 20.843 42.283 2.382-28.586-4.169-45.26-0.596-42.878 2.382-2.382 2.382 14.292 21.438 37.517-4.168-18.46-5.359-26.798-5.359-26.798s35.731 34.54 55.978 39.304c20.248 4.764 49.428-9.528 58.361-1.191 8.932 8.338 24.418 23.225 23.818 35.136-0.59 11.91-33.347 1.786-36.92 11.314-3.573 9.529 2.382 9.529 2.382 9.529s2.977 7.146 5.36 13.101c1.786-4.169-1.787-13.102 4.764-13.697 4.764 0.595 4.764 8.337 5.955 12.506 1.389-4.764-0.199-14.292 4.169-14.292 4.764-0.993 5.359 7.543 8.932 13.1v-13.1c13.698-4.169 25.604-4.764 27.394-13.697 1.78-8.933-20.846-29.18-26.206-42.282-5.356-13.101 4.17-18.461-5.952-25.607-10.123-7.146-48.832 11.315-66.697 4.169-17.866-7.146-10.72-58.361-78.013-69.675-67.293-11.315-249.52 59.551-281.68 62.529-32.158 2.977-71.461-10.124-71.461-10.124l0.595 54.787z" stroke="#000" stroke-width=".625" fill="#ff0"/>
    <path id="path892" d="m420.43-263.22s-28.585-37.518-51.81-41.091c-23.225-2.977-45.855 14.293-50.619 11.911-4.764-2.383-6.55 0.596-9.528 5.955-2.978 5.36 0.596 8.932 0.595 8.337 1.191 0 4.169-8.933 5.361-9.528 1.191-0.596-5.956 10.72 1.191 11.91 2.382 0.596 3.573-8.337 6.551-11.911 0.595 0.596-4.765 12.507-1.787 13.102 2.977 0.596 6.551-11.91 11.91-14.888 7.742-5.359 19.056-7.147 33.349-7.146 14.292 4.169 43.472 38.708 46.45 38.112l8.337-4.763z" transform="matrix(.98384 .22683 .17906 -1.2464 64.173 -655.73)" stroke="#000" stroke-width=".5" fill="#ff0"/>
    <path id="path891" d="m420.43-263.22s-28.585-37.518-51.81-41.091c-23.225-2.977-45.855 14.293-50.619 11.911-4.764-2.383-6.55 0.596-9.528 5.955-2.978 5.36 0.596 8.932 0.595 8.337 1.191 0 4.169-8.933 5.361-9.528 1.191-0.596-5.956 10.72 1.191 11.91 2.382 0.596 3.573-8.337 6.551-11.911 0.595 0.596-4.765 12.507-1.787 13.102 2.977 0.596 6.551-11.91 11.91-14.888 7.742-5.359 19.056-7.147 33.349-7.146 14.292 4.169 43.472 38.708 46.45 38.112l8.337-4.763z" transform="matrix(1 0 0 1.1289 11.315 42.241)" stroke="#000" stroke-width=".5" fill="#ff0"/>
    <path id="path887" d="m417.46-267.98-31.562 15.483 23.225 5.956-16.675 19.057 23.821-7.742-1.786 25.607 13.697-16.674 8.932 23.225 9.528-17.27 11.315 19.056 4.764-18.461 13.697 18.461 4.764-25.011 16.675 15.483-2.382-26.203 20.247 6.551-12.506-20.248s22.034-1.191 20.843-1.191-16.674-13.101-30.371-16.674l-76.226 0.595z" stroke="#000" stroke-width=".5" fill="#ff0"/>
    <path id="path888" d="m417.46-267.98-31.562 15.483 23.225 5.956-16.675 19.057 23.821-7.742-1.786 25.607 13.697-16.674 8.932 23.225 9.528-17.27 11.315 19.056 4.764-18.461 13.697 18.461 4.764-25.011 16.675 15.483-2.382-26.203 20.247 6.551-12.506-20.248s22.034-1.191 20.843-1.191-16.674-13.101-30.371-16.674l-76.226 0.595z" transform="matrix(.54756 0 0 .56637 205.56 -123.01)" stroke="#000" stroke-width=".80806" fill="#ff0"/>
    <path id="path901" d="m441.87-316.81s-8.932-7.146-12.505 0c-3.574 7.147 7.741 4.169 7.741 5.36s-7.741 9.528-7.741 19.057c0 9.528 5.955 25.607 5.955 27.989s2.382 8.932 10.719 11.314 11.315-7.741 13.101-8.932c1.787-1.191 13.102 1.786 17.27-8.337 4.169-10.124 4.169-28.585 4.169-28.585s7.146 5.359 7.146-5.36-7.742 0-7.742 0 1.191-11.314-17.27-16.674-20.247 5.36-20.843 4.168z" transform="translate(1.191 -.000015259)" stroke="#000" stroke-width=".5" fill="#ff0"/>
    <path id="path893" d="m441.48-317.31c-2.38-4.827-9.14-23.321-9.14-23.321l16.205 6.943c-5.53-1.374-10.25-2.179-9.654-2.179 0.595 0 7.146 8.933 7.146 8.933 6.451-0.374 12.903 1.774 20.843 3.503 0 0 6.55-7.286 5.955-7.286-0.596 0-3.573-1.192-3.573-1.192l14.888-6.83-4.764 9.213h-2.978l-5.955 6.69c6.699 1.261 9.975 2.242 16.525 6.445 5.807-0.84 10.72-3.851 13.846-6.129-5.21-1.437-7.592-2.558-6.997-2.558 0.596 0 21.885 1.121 21.885 1.121s-20.889 12.916-33.093 17.65c-11.289-3.246-39.948-9.216-41.139-11.003z" transform="matrix(.94169 -.015964 .033279 1.4162 35.5 137.73)" stroke="#000" stroke-width=".54015" fill="#ff0"/>
    <rect id="rect903" transform="matrix(.90427 .42695 -.99418 -.10777 0 0)" rx="6.8653" ry="3.0767" height="6.1534" width="13.731" y="-1416.1" x="-1065.8" stroke-width="1pt"/>
    <rect id="rect904" transform="matrix(.90427 .42695 -.99418 -.10777 0 0)" rx="6.8653" ry="3.0767" height="6.1534" width="13.731" y="-1419.6" x="-1050" stroke-width="1pt"/>
    <rect id="rect905" transform="matrix(.94659 .32243 -.99696 -.077966 0 0)" rx="12.761" ry="5.9698" height="11.94" width="25.522" y="-1636.5" x="-1253.9" stroke-width="1pt"/>
    <rect id="rect906" transform="matrix(.93542 .35353 -.99626 -.086447 0 0)" rx="5.7808" ry="2.6743" height="5.3487" width="11.562" y="-1565.8" x="-1186.4" stroke-width="1pt"/>
    <rect id="rect907" transform="matrix(.32908 -.94430 .13645 .99065 0 0)" rx="4.9308" ry="2.0464" height="4.0928" width="9.8615" y="734.39" x="1061.7" stroke-width="1pt"/>
   </g>
   <g id="g695" stroke="#000">
    <path id="path881" d="m737.05 319.5c1.663 4.742 0.814 0-0.957 7.344 1.094-2.188 2.656-3.438 3.281-3.437 0.938 0 1.406-0.001 3.281 1.406-1.718-2.5-4.687-1.875-4.531-5.625-0.156-0.859-0.999 0.081-1.074 0.312z" transform="matrix(1.0471 0 0 1.3894 -30.434 -120.97)" stroke-width=".375" fill="#ff7300"/>
    <rect id="rect760" transform="matrix(.81841 -.57463 .19718 .98037 0 0)" rx=".68451" ry=".50573" height="18.038" width="1.369" y="717.59" x="708.8" stroke-width=".10288" fill="#b2802e"/>
    <path id="path785" d="m734.06 312.16c0.781-0.469 6.562-11.094 34.062-9.532-15.625 5.313-25.313 16.563-27.656 17.031-1.719 0.469-5.469-5.781-6.406-7.499z" transform="matrix(.79486 0 0 .97816 152.8 3.9014)" stroke-width=".375" fill="#fff"/>
    <g id="g741" transform="matrix(.077554 -.15007 .49698 .37410 547.14 335.66)" stroke-width=".33302" fill="#007500">
     <path id="path742" d="m-3819.3-4447.1-7.42-2.76 15.13 11.39-2.9-5.35-4.81-3.28z" transform="matrix(3.178 -1.5262 -3.4237 1.1639 -2258.1 -426.8)"/>
     <path id="path743" d="m-3819.3-4447.1-5.31 0.27 12.7 7.59-2.58-4.58-4.81-3.28z" transform="matrix(3.5127 -.40025 -3.6221 -.021804 -1862.5 -1401.1)"/>
     <path id="path744" d="m-3819.9-4447.6 4.64 7.4 4.42 1.26-3.58-4.96-5.48-3.7z" transform="matrix(-2.6372 -2.3184 2.3892 2.6793 1392 3285)"/>
     <path id="path745" d="m-3821.8-4448.7 17.53 22.4-6.67-12.48-3.47-5.09-7.39-4.83z" transform="matrix(-3.4904 -.55765 3.4788 .99308 2977.8 2508.4)"/>
     <path id="path746" d="m-3822.2-4449.9-12.5-6.51 24.05 18.66-3.81-6.13-7.74-6.02z" transform="matrix(3.2054 1.4696 -3.074 -1.8856 -598.79 -2550.3)"/>
     <path id="path747" d="m-3823.5-4450.2-5.23-1.22 17.81 13.32-3.56-5.79-9.02-6.31z" transform="matrix(2.2844 2.6564 -1.988 -2.9799 713.89 -2886)"/>
     <path id="path748" d="m-3824.7-4451.7-13.4-9.74 24.35 20.96-0.74-3.33-10.21-7.89z" transform="matrix(.37924 3.46 .050450 -3.5644 2504.7 -2418.4)"/>
     <path id="path749" d="m-3822.2-4449.3 10.6 14.41 1.71-2.6-4.55-6.35-7.76-5.46z" transform="matrix(-1.7431 3.0279 2.1539 -2.866 3756.5 -963.26)"/>
     <path id="path750" d="m-3820.2-4447 15.6 19.25-3.35-7.74-6.53-8.32-5.72-3.19z" transform="matrix(-2.682 2.2681 3.0128 -1.9788 3991.9 81.022)"/>
     <path id="path751" d="m-3821-4448.7 12.21 17.13-0.11-5.25-5.57-6.99-6.53-4.89z" transform="matrix(-3.4114 .91629 3.5841 -.51526 3749.2 1428)"/>
     <path id="path752" d="m-3818.9-4446.9 1.97 4.26 4.24 2.13-1.8-3.38-4.41-3.01z" transform="matrix(2.2975 -2.6455 -2.6694 2.4095 -2265 838.98)"/>
     <path id="path753" d="m-3819.3-4447.1v5.78l6.63 1.34-1.82-3.84-4.81-3.28z" transform="matrix(1.6877 -1.2717 -1.8182 .96978 -807.24 -319.88)"/>
     <path id="path754" d="m-3819.3-4447.1v5.78l6.63 1.34-1.82-3.84-4.81-3.28z" transform="matrix(-1.7023 -1.4301 1.3594 1.5963 381.49 1860.1)"/>
     <path id="path755" d="m-3819.3-4447.1v5.78l6.63 1.34-1.82-3.84-4.81-3.28z" transform="matrix(1.8936 1.1287 -1.795 -1.3772 80.698 -1592.5)"/>
     <path id="path756" d="m-3819.3-4447.1 15.68 18.95-10.18-13.71-0.69-1.96-4.81-3.28z" transform="matrix(-2.0834 .82640 2.2338 -.61096 2813.4 659.36)"/>
     <path id="path757" d="m-3819.3-4447.1 10.95 13.18-4.32-6.06-1.82-3.84-4.81-3.28z" transform="matrix(-.67839 3.4155 1.1202 -3.39 3224 -1814.7)"/>
     <path id="path758" d="m-3819.3-4447.1-14.43-12.59 18.26 16.79 0.98-0.92-4.81-3.28z" transform="matrix(2.394 2.5613 -2.1114 -2.8965 583.34 -2880.2)"/>
     <path id="path759" d="m-3819.3-4447.1v5.78l6.63 1.34-1.82-3.84-4.81-3.28z" transform="matrix(2.2059 -1.0764 -2.3765 .82088 -1312.4 -235.44)"/>
    </g>
    <path id="path876" d="m759.39 305.01c-3.239 1.066-4.827 1.573-6.465 1.782 0.835 0.357 2.69 0.14 4.807 0.711-1.886 0.041-5.374 1.48-6.825 1.515 1.003 0.602 4.58 0.022 5.238 0.179-1.913 0.119-4.991 1.601-6.908 1.601-0.878 0.671 4.46-0.459 6.602 0.807-2.215-0.114-6.518 1.16-8.85 0.853 1.778 1.042 4.953-0.112 7.601 1.017-0.767 0.084-6.911 0.772-9.086 0.445 1.3 0.651 5.218 0.543 6.181 1.121-1.622-0.212-5.928 0.689-7.426 0.331 1.349 0.972 5.414 0.424 6.161 1.009-2.657 0.926-6.683 0.187-8.535 0.438 1.242 0.581 2.267 1.168 3.366 1.712 1.604 1.126 6.61 4.293 9.6 5.244-3.31-0.433-4.465-0.49-6.604-0.665l4.867 5.159c-2.031-1.094-5.611-3.161-7.988-4.228-5.264-2.578-9.058-2.132-12.704-4.314-5.122-4.966-7.966-10.885-8.222-12.464-0.257-1.578-0.481-4.407-5.153-2.933 4.511-0.581 6.405-5.792 6.758-5.583 0.161 0.089 0.578 3.483 1.638 4.853 0.706 0.983 6.711 4.348 7.706 4.527 8.944-5.314 16.198-5.967 24.241-3.117z" transform="matrix(1.0471 0 0 1.3894 -29.616 -119.66)" stroke-width=".375" fill="#fff"/>
   </g>
   <g id="g829" stroke="#000" stroke-width=".25" transform="translate(2.7708 -.000015259)">
    <rect id="rect607" transform="matrix(.71096 .70323 -.70323 .71096 0 0)" rx="1.3908" ry="5.5633" height="11.127" width="2.7816" y="-352.62" x="802.37" fill="#e4cc00"/>
    <path id="path574" d="m801.33 335.45c-0.21-1.173-0.347-1.765 0.245-3.303 0.864-1.083 1.317-2.043 2.893-3.164 1.709-0.563 2.286-0.055 4.528-2.134 0.721-1.37 1.819-2.405 2.445-3.882 1.461-2.177 1.951-3.252 3.119-4.927 1.552-1.741 2.801-3.302 3.709-4.636 0.969-1.71 1.839-2.767 3.245-4.173 0.569-1.604 1.789-2.794 3.245-4.172 1.113-2.033 3.247-4.361 4.173-6.027 1.641-1.88 2.283-2.697 3.708-4.636 1.255-0.828 3.372-2.644 5.1-3.245 2.359-0.989 3.621-1.969 5.173-0.464 1.027 1.027 2.873 2.68 1.59 3.9-0.675 0.748-1.78 0.841-3.054 0.273-1.309-0.848-1.946-3.315-3.709-1.391-1.274 1.455-1.927 2.616-3.709 4.172-0.886 1.304-1.525 2.279-2.318 4.173-1.048 1.209-1.914 2.568-2.781 4.636-1.124 0.928-2.093 2.77-2.782 4.172-1.112 1.166-1.915 2.364-2.782 4.173-1.751 1.677-2.405 3.095-3.709 4.172-0.861 1.82-2.217 3.558-3.245 4.636-0.812 1.32-1.618 2.695-2.318 4.173-1.475 1.505-1.54 1.83-3.709 4.172-1.806 2.355-1.198 2.071-4.026 4.801-1.548 0.51-3.103 0.684-5.031-1.299z" transform="translate(-6.3109 -1.1154)" fill="#006000"/>
    <rect id="rect600" transform="rotate(22.168)" rx="1.3908" ry="5.5633" height="11.127" width="2.7816" y="-20.84" x="862.29" fill="#e4cc00"/>
    <rect id="rect601" transform="rotate(24.033)" rx="1.3908" ry="5.5633" height="11.127" width="2.7816" y="-48.488" x="863.44" fill="#e4cc00"/>
    <rect id="rect603" transform="matrix(.81058 .58564 -.58563 .81058 0 0)" rx="1.3908" ry="5.5633" height="11.127" width="2.7816" y="-224.52" x="840.48" fill="#e4cc00"/>
    <rect id="rect605" transform="matrix(.6491 .76070 -.76070 .6491 0 0)" rx="1.3908" ry="5.5633" height="11.127" width="2.7816" y="-420.33" x="773.6" fill="#e4cc00"/>
    <rect id="rect606" transform="matrix(.70142 .71274 -.71274 .70142 0 0)" rx="1.3908" ry="5.5633" height="11.127" width="2.7816" y="-363.86" x="799.69" fill="#e4cc00"/>
    <rect id="rect608" transform="matrix(.81058 .58564 -.58563 .81058 0 0)" rx="1.3908" ry="5.5633" height="11.127" width="2.7816" y="-224.23" x="844.16" fill="#e4cc00"/>
    <rect id="rect609" transform="matrix(.81058 .58564 -.58563 .81058 0 0)" rx="1.3908" ry="5.5633" height="11.127" width="2.7816" y="-224.62" x="842.29" fill="#e4cc00"/>
    <g id="g586" transform="translate(-6.3109 -1.1154)" fill="#e4cc00">
     <rect id="rect575" transform="rotate(35.848)" rx="1.3908" ry="5.5633" height="11.127" width="2.7816" y="-244.57" x="838.79"/>
     <rect id="rect576" transform="rotate(35.848)" rx="1.3908" ry="5.5633" height="11.127" width="2.7816" y="-244.68" x="840.85"/>
     <rect id="rect577" transform="rotate(35.848)" rx="1.3908" ry="5.5633" height="11.127" width="2.7816" y="-244.66" x="843"/>
     <rect id="rect578" transform="rotate(35.848)" rx="1.3908" ry="5.5633" height="11.127" width="2.7816" y="-244.7" x="845.3"/>
     <rect id="rect579" transform="rotate(35.848)" rx="1.3908" ry="5.5633" height="11.127" width="2.7816" y="-244.54" x="847.15"/>
     <rect id="rect580" transform="rotate(35.848)" rx="1.3908" ry="5.5633" height="11.127" width="2.7816" y="-245.75" x="857.84"/>
     <rect id="rect581" transform="rotate(35.848)" rx="1.3908" ry="5.5633" height="11.127" width="2.7816" y="-245.32" x="856.37"/>
     <rect id="rect582" transform="rotate(35.848)" rx="1.3908" ry="5.5633" height="11.127" width="2.7816" y="-245.1" x="854.94"/>
     <rect id="rect583" transform="rotate(35.848)" rx="1.3908" ry="5.5633" height="11.127" width="2.7816" y="-245.02" x="852.83"/>
     <rect id="rect584" transform="rotate(35.848)" rx="1.3908" ry="5.5633" height="11.127" width="2.7816" y="-244.68" x="850.76"/>
     <rect id="rect585" transform="rotate(35.848)" rx="1.3908" ry="5.5633" height="11.127" width="2.7816" y="-244.64" x="848.96"/>
    </g>
    <rect id="rect602" transform="matrix(.87904 .47676 -.47676 .87904 -.39185 -.000015259)" rx="1.3908" ry="5.5633" height="11.127" width="2.7816" y="-115.05" x="859.81" fill="#e4cc00"/>
    <g id="g610" transform="translate(-11.95 5.7652)" fill="#e4cc00">
     <rect id="rect611" transform="rotate(35.848)" rx="1.3908" ry="5.5633" height="11.127" width="2.7816" y="-244.57" x="838.79"/>
     <rect id="rect612" transform="rotate(35.848)" rx="1.3908" ry="5.5633" height="11.127" width="2.7816" y="-244.68" x="840.85"/>
     <rect id="rect613" transform="rotate(35.848)" rx="1.3908" ry="5.5633" height="11.127" width="2.7816" y="-244.66" x="843"/>
     <rect id="rect614" transform="rotate(35.848)" rx="1.3908" ry="5.5633" height="11.127" width="2.7816" y="-244.7" x="845.3"/>
     <rect id="rect615" transform="rotate(35.848)" rx="1.3908" ry="5.5633" height="11.127" width="2.7816" y="-244.54" x="847.15"/>
     <rect id="rect616" transform="rotate(35.848)" rx="1.3908" ry="5.5633" height="11.127" width="2.7816" y="-245.75" x="857.84"/>
     <rect id="rect617" transform="rotate(35.848)" rx="1.3908" ry="5.5633" height="11.127" width="2.7816" y="-245.32" x="856.37"/>
     <rect id="rect618" transform="rotate(35.848)" rx="1.3908" ry="5.5633" height="11.127" width="2.7816" y="-245.1" x="854.94"/>
     <rect id="rect619" transform="rotate(35.848)" rx="1.3908" ry="5.5633" height="11.127" width="2.7816" y="-245.02" x="852.83"/>
     <rect id="rect620" transform="rotate(35.848)" rx="1.3908" ry="5.5633" height="11.127" width="2.7816" y="-244.68" x="850.76"/>
     <rect id="rect621" transform="rotate(35.848)" rx="1.3908" ry="5.5633" height="11.127" width="2.7816" y="-244.64" x="848.96"/>
    </g>
   </g>
   <g id="g864" stroke="#000" transform="matrix(.96634 0 0 .90397 23.343 23.148)">
    <rect id="rect721" transform="rotate(18.815)" rx="1.4318" ry=".67821" height="24.19" width="2.8636" y="-28.09" x="774.89" stroke-width=".17230" fill="#b2802e"/>
    <rect id="rect720" rx="1.4318" ry=".67821" height="24.19" width="2.8636" y="221.74" x="727.44" stroke-width=".17230" fill="#b2802e"/>
    <rect id="rect719" rx="1.4318" ry=".67821" height="24.19" width="2.8636" y="221.28" x="707.97" stroke-width=".17230" fill="#b2802e"/>
    <g id="g715" transform="matrix(.94101 -.33837 .33837 .94101 -41.713 263.18)" stroke-width=".25" fill="#004500">
     <path id="path716" d="m692.68 226.06c0.3-4.898 4.144-6.405 10.399-4.219 0.528 0.301 0.98-0.603 0.829-0.679-10.023-5.274-14.492-19.462 1.559-16.899 2.411 0.753-2.171 2.143-5.508 2.76-4.52 0.571-1.703 6.83 7.265 12.632 1.959 1.508 6.329 4.597 6.329 4.597s-1.582 2.788-1.733 2.788c-0.15 0-12.207-4.371-15.071-0.603-1.809 3.014 0.688 3.448 0.085 7.97-1.055 3.918-1.582 3.466-1.809-0.075 0.784-2.466-2.346-6.312-2.345-8.272z" transform="matrix(.19503 .70640 -.72637 -.017110 764.19 -278.28)"/>
     <path id="path717" d="m692.68 226.06c0.3-4.898 4.144-6.405 10.399-4.219 0.528 0.301 0.98-0.603 0.829-0.679-10.023-5.274-6.197-19.173 9.854-16.61 2.411 0.753 1.945 1.61-1.392 2.227-4.52 0.571-14.114 7.074-5.146 12.876 1.959 1.508 6.329 4.597 6.329 4.597s-1.582 2.788-1.733 2.788c-0.15 0-12.207-4.371-15.071-0.603-1.809 3.014 1.096 5.817 0.493 10.339-1.055 3.918-1.582 3.466-1.809-0.075 0.075-0.603-2.754-8.681-2.753-10.641z" transform="matrix(.15123 .71705 -.72395 -.061737 793.24 -271.41)"/>
     <path id="path718" d="m692.68 226.06c0.3-4.898 4.144-6.405 10.399-4.219 0.528 0.301 0.98-0.603 0.829-0.679-10.023-5.274-2.639-11.925 11.989-9.101 1.587 0.2-2.095 2.164-5.432 2.781-4.52 0.571-12.209-0.989-3.241 4.813 1.959 1.508 6.329 4.597 6.329 4.597s-1.582 2.788-1.733 2.788c-0.15 0-12.207-4.371-15.071-0.603-1.809 3.014 7.071 9.439 6.468 13.961-1.055 3.918-1.582 3.466-1.809-0.075 0.075-0.603-8.729-12.303-8.728-14.263z" transform="matrix(.093062 .72689 -.71664 -.11977 831.05 -260.09)"/>
    </g>
    <g id="g707" transform="translate(-9.4432 -14.668)" stroke-width=".25" fill="#004500">
     <path id="path704" d="m692.68 226.06c0.3-4.898 4.144-6.405 10.399-4.219 0.528 0.301 0.98-0.603 0.829-0.679-10.023-5.274-10.194-16.401 5.857-13.838 2.411 0.753-2.095 2.164-5.432 2.781-4.52 0.571-6.077 3.748 2.891 9.55 1.959 1.508 6.329 4.597 6.329 4.597s-1.582 2.788-1.733 2.788c-0.15 0-12.207-4.371-15.071-0.603-1.809 3.014-1.733 3.165-2.336 7.687-1.055 3.918-1.582 3.466-1.809-0.075 0.075-0.603 0.075-6.029 0.076-7.989z" transform="matrix(.42734 .59533 -.68745 .23520 569.63 -241.84)"/>
     <path id="path705" d="m692.68 226.06c0.3-4.898 4.144-6.405 10.399-4.219 0.528 0.301 0.98-0.603 0.829-0.679-10.023-5.274-10.194-16.401 5.857-13.838 2.411 0.753-2.095 2.164-5.432 2.781-4.52 0.571-6.077 3.748 2.891 9.55 1.959 1.508 6.329 4.597 6.329 4.597s-1.582 2.788-1.733 2.788c-0.15 0-12.207-4.371-15.071-0.603-1.809 3.014-1.733 3.165-2.336 7.687-1.055 3.918-1.582 3.466-1.809-0.075 0.075-0.603 0.075-6.029 0.076-7.989z" transform="matrix(.38992 .62048 -.70061 .19249 599.26 -245.44)"/>
     <path id="path706" d="m692.68 226.06c0.3-4.898 4.144-6.405 10.399-4.219 0.528 0.301 0.98-0.603 0.829-0.679-10.023-5.274-10.194-16.401 5.857-13.838 2.411 0.753-2.095 2.164-5.432 2.781-4.52 0.571-6.077 3.748 2.891 9.55 1.959 1.508 6.329 4.597 6.329 4.597s-1.582 2.788-1.733 2.788c-0.15 0-12.207-4.371-15.071-0.603-1.809 3.014-1.733 3.165-2.336 7.687-1.055 3.918-1.582 3.466-1.809-0.075 0.075-0.603 0.075-6.029 0.076-7.989z" transform="matrix(.33876 .64983 -.71383 .13552 638.65 -247.9)"/>
    </g>
    <g id="g711" transform="translate(6.0103 -.72439)" stroke-width=".25" fill="#004500">
     <path id="path701" d="m692.68 226.06c0.3-4.898 4.144-6.405 10.399-4.219 0.528 0.301 0.98-0.603 0.829-0.679-10.023-5.274-14.492-19.462 1.559-16.899 2.411 0.753-2.171 2.143-5.508 2.76-4.52 0.571-1.703 6.83 7.265 12.632 1.959 1.508 6.329 4.597 6.329 4.597s-1.582 2.788-1.733 2.788c-0.15 0-12.207-4.371-15.071-0.603-1.809 3.014 0.688 3.448 0.085 7.97-1.055 3.918-1.582 3.466-1.809-0.075 0.784-2.466-2.346-6.312-2.345-8.272z" transform="matrix(.19503 .70640 -.72637 -.017110 764.19 -278.28)"/>
     <path id="path702" d="m692.68 226.06c0.3-4.898 4.144-6.405 10.399-4.219 0.528 0.301 0.98-0.603 0.829-0.679-10.023-5.274-6.197-19.173 9.854-16.61 2.411 0.753 1.945 1.61-1.392 2.227-4.52 0.571-14.114 7.074-5.146 12.876 1.959 1.508 6.329 4.597 6.329 4.597s-1.582 2.788-1.733 2.788c-0.15 0-12.207-4.371-15.071-0.603-1.809 3.014 1.096 5.817 0.493 10.339-1.055 3.918-1.582 3.466-1.809-0.075 0.075-0.603-2.754-8.681-2.753-10.641z" transform="matrix(.15123 .71705 -.72395 -.061737 793.24 -271.41)"/>
     <path id="path703" d="m692.68 226.06c0.3-4.898 4.144-6.405 10.399-4.219 0.528 0.301 0.98-0.603 0.829-0.679-10.023-5.274-2.639-11.925 11.989-9.101 1.587 0.2-2.095 2.164-5.432 2.781-4.52 0.571-12.209-0.989-3.241 4.813 1.959 1.508 6.329 4.597 6.329 4.597s-1.582 2.788-1.733 2.788c-0.15 0-12.207-4.371-15.071-0.603-1.809 3.014 7.071 9.439 6.468 13.961-1.055 3.918-1.582 3.466-1.809-0.075 0.075-0.603-8.729-12.303-8.728-14.263z" transform="matrix(.093062 .72689 -.71664 -.11977 831.05 -260.09)"/>
    </g>
   </g>
   <g id="g880" stroke="#000">
    <rect id="rect668" rx="1.4318" ry=".67821" height="24.19" width="2.8636" y="222.49" x="826.05" stroke-width=".17230" fill="#b2802e"/>
    <g id="g722" transform="matrix(.89029 0 0 .81475 84.748 43.403)" stroke-width=".33302" fill="#007500">
     <path id="path671" d="m-3819.3-4447.1-7.42-2.76 15.13 11.39-2.9-5.35-4.81-3.28z" transform="matrix(3.178 -1.5262 -3.4237 1.1639 -2258.1 -426.8)"/>
     <path id="path672" d="m-3819.3-4447.1-5.31 0.27 12.7 7.59-2.58-4.58-4.81-3.28z" transform="matrix(3.5127 -.40025 -3.6221 -.021804 -1862.5 -1401.1)"/>
     <path id="path673" d="m-3819.9-4447.6 4.64 7.4 4.42 1.26-3.58-4.96-5.48-3.7z" transform="matrix(-2.6372 -2.3184 2.3892 2.6793 1392 3285)"/>
     <path id="path674" d="m-3821.8-4448.7 17.53 22.4-6.67-12.48-3.47-5.09-7.39-4.83z" transform="matrix(-3.4904 -.55765 3.4788 .99308 2977.8 2508.4)"/>
     <path id="path675" d="m-3822.2-4449.9-12.5-6.51 24.05 18.66-3.81-6.13-7.74-6.02z" transform="matrix(3.2054 1.4696 -3.074 -1.8856 -598.79 -2550.3)"/>
     <path id="path676" d="m-3823.5-4450.2-5.23-1.22 17.81 13.32-3.56-5.79-9.02-6.31z" transform="matrix(2.2844 2.6564 -1.988 -2.9799 713.89 -2886)"/>
     <path id="path677" d="m-3824.7-4451.7-13.4-9.74 24.35 20.96-0.74-3.33-10.21-7.89z" transform="matrix(.37924 3.46 .050450 -3.5644 2504.7 -2418.4)"/>
     <path id="path678" d="m-3822.2-4449.3 10.6 14.41 1.71-2.6-4.55-6.35-7.76-5.46z" transform="matrix(-1.7431 3.0279 2.1539 -2.866 3756.5 -963.26)"/>
     <path id="path679" d="m-3820.2-4447 15.6 19.25-3.35-7.74-6.53-8.32-5.72-3.19z" transform="matrix(-2.682 2.2681 3.0128 -1.9788 3991.9 81.022)"/>
     <path id="path680" d="m-3821-4448.7 12.21 17.13-0.11-5.25-5.57-6.99-6.53-4.89z" transform="matrix(-3.4114 .91629 3.5841 -.51526 3749.2 1428)"/>
     <path id="path681" d="m-3818.9-4446.9 1.97 4.26 4.24 2.13-1.8-3.38-4.41-3.01z" transform="matrix(2.2975 -2.6455 -2.6694 2.4095 -2265 838.98)"/>
     <path id="path682" d="m-3819.3-4447.1v5.78l6.63 1.34-1.82-3.84-4.81-3.28z" transform="matrix(1.6877 -1.2717 -1.8182 .96978 -807.24 -319.88)"/>
     <path id="path683" d="m-3819.3-4447.1v5.78l6.63 1.34-1.82-3.84-4.81-3.28z" transform="matrix(-1.7023 -1.4301 1.3594 1.5963 381.49 1860.1)"/>
     <path id="path684" d="m-3819.3-4447.1v5.78l6.63 1.34-1.82-3.84-4.81-3.28z" transform="matrix(1.8936 1.1287 -1.795 -1.3772 80.698 -1592.5)"/>
     <path id="path685" d="m-3819.3-4447.1 15.68 18.95-10.18-13.71-0.69-1.96-4.81-3.28z" transform="matrix(-2.0834 .82640 2.2338 -.61096 2813.4 659.36)"/>
     <path id="path686" d="m-3819.3-4447.1 10.95 13.18-4.32-6.06-1.82-3.84-4.81-3.28z" transform="matrix(-.67839 3.4155 1.1202 -3.39 3224 -1814.7)"/>
     <path id="path687" d="m-3819.3-4447.1-14.43-12.59 18.26 16.79 0.98-0.92-4.81-3.28z" transform="matrix(2.394 2.5613 -2.1114 -2.8965 583.34 -2880.2)"/>
     <path id="path698" d="m-3819.3-4447.1v5.78l6.63 1.34-1.82-3.84-4.81-3.28z" transform="matrix(2.2059 -1.0764 -2.3765 .82088 -1312.4 -235.44)"/>
    </g>
   </g>
  </g>
 </g>
</svg>
