<?xml version="1.0" encoding="UTF-8" standalone="no"?>
<!-- Created with Sodipodi ("http://www.sodipodi.com/") -->
<svg id="svg676" xmlns:rdf="http://www.w3.org/1999/02/22-rdf-syntax-ns#" xmlns="http://www.w3.org/2000/svg" height="480" width="640" version="1.0" xmlns:cc="http://creativecommons.org/ns#" xmlns:xlink="http://www.w3.org/1999/xlink" xmlns:dc="http://purl.org/dc/elements/1.1/">
 <metadata id="metadata2448">
  <rdf:RDF>
   <cc:Work rdf:about="">
    <dc:format>image/svg+xml</dc:format>
    <dc:type rdf:resource="http://purl.org/dc/dcmitype/StillImage"/>
   </cc:Work>
  </rdf:RDF>
 </metadata>
 <defs id="defs678">
  <linearGradient id="linearGradient1104">
   <stop id="stop1105" stop-color="#a43907" stop-opacity=".99608" offset="0"/>
   <stop id="stop1106" stop-color="#fff" offset="1"/>
  </linearGradient>
  <linearGradient id="linearGradient4427" y2="577.14" xlink:href="#linearGradient1104" gradientUnits="userSpaceOnUse" x2="470.9" gradientTransform="scale(1.0028 .99725)" y1="592.2" x1="444.4"/>
  <linearGradient id="linearGradient4431" y2="552.83" xlink:href="#linearGradient1104" gradientUnits="userSpaceOnUse" x2="520.55" gradientTransform="scale(.93636 1.068)" y1="562.51" x1="458.24"/>
  <linearGradient id="linearGradient4433" y2="580.2" xlink:href="#linearGradient1104" gradientUnits="userSpaceOnUse" x2="445.28" gradientTransform="scale(1.0028 .99725)" y1="578.68" x1="472.38"/>
  <linearGradient id="linearGradient4435" y2="558.12" xlink:href="#linearGradient1104" gradientUnits="userSpaceOnUse" x2="456.44" gradientTransform="scale(.93636 1.068)" y1="553.74" x1="517.97"/>
  <linearGradient id="linearGradient4437" y2="369.94" xlink:href="#linearGradient1104" gradientUnits="userSpaceOnUse" x2="646.19" y1="369.94" x1="851.78"/>
  <linearGradient id="linearGradient4439" y2="508.75" xlink:href="#linearGradient1104" gradientUnits="userSpaceOnUse" x2="677.4" gradientTransform="scale(.82275 1.2154)" y1="507.23" x1="388.53"/>
  <linearGradient id="linearGradient4441" y2="505.86" xlink:href="#linearGradient1104" gradientUnits="userSpaceOnUse" x2="556.8" gradientTransform="scale(.83508 1.1975)" y1="504.94" x1="579.84"/>
  <linearGradient id="linearGradient4443" y2="514.33" xlink:href="#linearGradient1104" gradientUnits="userSpaceOnUse" x2="558.88" gradientTransform="scale(.82275 1.2154)" y1="512.01" x1="581.43"/>
  <linearGradient id="linearGradient4445" y2="503.9" xlink:href="#linearGradient1104" gradientUnits="userSpaceOnUse" x2="589.77" gradientTransform="scale(.83508 1.1975)" y1="517.88" x1="552"/>
 </defs>
 <g id="flag">
  <rect id="rect124" height="480" width="640" y="0" x="-0.000209" stroke-width="1pt" fill="#006"/>
  <g id="g3413" transform="matrix(.78125 0 0 .78125 .00016328 -.000084904)">
   <rect id="rect5476" fill-rule="evenodd" height="256" width="512" y=".00010868" x="-.0000033488" fill="#006"/>
   <g id="g584" stroke-width="1pt" transform="matrix(7.6172 0 0 9.7548 -.000209 .0010152)">
    <path id="path146" d="m0 0v3.3541l53.292 26.646h6.708v-3.354l-53.292-26.646h-6.708zm60 0v3.354l-53.292 26.646h-6.708v-3.354l53.292-26.646h6.708z" fill="#fff"/>
    <path id="path136" d="m25 0v30h10v-30h-10zm-25 10v10h60v-10h-60z" fill="#fff"/>
    <path id="path141" d="m0 12v6h60v-6h-60zm27-12v30h6v-30h-6z" fill="#c00"/>
    <path id="path150" d="m0 30 20-10h4.472l-20 10h-4.472zm0-30 20 10h-4.472l-15.528-7.7639v-2.2361zm35.528 10 20-10h4.472l-20 10h-4.472zm24.472 20-20-10h4.472l15.528 7.764v2.236z" fill="#c00"/>
   </g>
  </g>
  <g id="g8971" transform="matrix(1.1682 0 0 1.1682 -389.21 -20.789)">
   <path id="path10718" d="m670.97 321.56c-0.73381 0.0116-1.4385 0.0842-2.0312 0.1875-3.3882 0.59049-8.7326 11.631-11.688 18.094-4.6221 5.6442-7.0886 10.031-9.0312 13.281-0.75493 1.263-1.9188 2.728-1.5625 4.4062-6.9961 1.7188-7.3438 7.7248-7.3438 10.062 0.00003 2.4794 0.78125 3.7188 0.78125 3.7188l4.1875 7.8438 0.0312 0.0937c4.457 9.2164 11.057 21.626 14.75 22.656 5.2423 1.4616 18.821-3.5505 29-12.156 16.689 6.8749 38.072 12.562 61.969 12.562 23.896 0 45.248-5.6876 61.938-12.562 10.179 8.6058 23.758 13.618 29 12.156 3.7045-1.033 10.324-13.525 14.781-22.75l4.1875-7.8438s0.78126-1.2394 0.78125-3.7188c0-2.338-0.37651-8.3445-7.375-10.062 0.35082-1.6784-0.77624-3.1431-1.5312-4.4062-1.9571-3.2744-4.42-7.7008-9.0938-13.406-2.9664-6.4791-8.2887-17.382-11.656-17.969-4.7422-0.82644-14.969 1.5798-14.969 2.4062 0 0.0192-0.0575 0.44857-0.0625 0.5l-20.54 19.4c0 0.55703 1.0892 14.594 4.9375 27-13.749 5.0052-30.626 8.5312-50.406 8.5312-19.793 0-36.715-3.5207-50.469-8.5312 3.8484-12.406 4.9687-26.443 4.9688-27l-20.53-19.4c-0.005-0.0514-0.0625-0.48082-0.0625-0.5 0-0.72314-7.8321-2.6753-12.969-2.5938zm5.25 24.094c2.5816-0.0323 5.3317 2.0948 7.5938 4.4688-0.0782 0.46652-0.15642 0.94458-0.25 1.375-0.62401 2.8719-1.6957 6.6637-3.1875 10.625-5.87-3.4287-10.66-6.996-14.312-10.312 2.2278-2.3694 5.8057-5.5968 9.5938-6.125 0.18526-0.0258 0.37518-0.0289 0.5625-0.0312zm147.56 0c0.18732 0.002 0.37724 0.005 0.5625 0.0312 3.7881 0.52819 7.3972 3.7556 9.625 6.125-3.6603 3.3235-8.4569 6.9084-14.344 10.344-1.4971-3.9708-2.5621-7.7779-3.1875-10.656-0.0939-0.43171-0.17163-0.90698-0.25-1.375 2.2649-2.3803 5.0065-4.5012 7.5938-4.4688zm-166 27.375c2.73 2.0923 6.2958 4.4762 10.594 7-1.1911 0.75604-2.456 1.3171-3.7812 1.625-1.765 0.41016-3.6208 0.33136-5.5-0.0625-0.58636-1.4514-1.0815-3.2754-1.2188-5.7188-0.0574-1.0182-0.0802-1.9657-0.0937-2.8438zm184.47 0c-0.0136 0.87801-0.0676 1.8256-0.125 2.8438-0.13724 2.4433-0.60114 4.2673-1.1875 5.7188-1.8792 0.39386-3.7662 0.47266-5.5312 0.0625-1.3253-0.30793-2.5589-0.86896-3.75-1.625 4.2993-2.5244 7.8631-4.9072 10.594-7z" fill-rule="evenodd" transform="translate(-.015625 -1.0054)" stroke="#fff" stroke-width="10" fill="url(#linearGradient4427)"/>
   <path id="path8617" d="m445.63 595.48s5.625-8.75 10.313-8.125c4.687 0.625 9.062 6.25 9.375 6.562 0.312 0.313 7.187-7.187 6.875-7.5-0.313-0.312-7.188-16.562-10.938-17.187s-11.847 1.1956-11.847 1.8206-3.7784 24.429-3.7784 24.429z" fill-rule="evenodd" transform="matrix(-1.2646 0 0 1.3223 1252.2 -431.98)" stroke="#000" stroke-width="1.16" fill="url(#linearGradient4427)"/>
   <path id="path8619" d="m433.13 586.11c0 0.625 1.875 23.75 10 31.875s21.25 13.125 25.938 11.875c4.687-1.25 15.312-24.687 15.312-24.687s-11.25 11.25-19.687 9.375c-8.438-1.875-13.438-15.938-15-22.813-1.563-6.875-0.313-20.313-0.313-20.313l-16.25 14.688z" fill-rule="evenodd" transform="matrix(-1.2646 0 0 1.3223 1252.2 -431.98)" stroke="#000" stroke-width="1.16" fill="url(#linearGradient4431)"/>
   <path id="path1097" d="m445.63 595.48s5.625-8.75 10.313-8.125c4.687 0.625 9.062 6.25 9.375 6.562 0.312 0.313 7.187-7.187 6.875-7.5-0.313-0.312-7.188-16.562-10.938-17.187s-11.847 1.1956-11.847 1.8206-3.7784 24.429-3.7784 24.429z" fill-rule="evenodd" transform="matrix(1.2646 0 0 1.3223 247.76 -431.98)" stroke="#000" stroke-width="1.16" fill="url(#linearGradient4433)"/>
   <path id="path1098" d="m433.13 586.11c0 0.625 1.875 23.75 10 31.875s21.25 13.125 25.938 11.875c4.687-1.25 15.312-24.687 15.312-24.687s-11.25 11.25-19.687 9.375c-8.438-1.875-13.438-15.938-15-22.813-1.563-6.875-0.313-20.313-0.313-20.313l-16.25 14.688z" fill-rule="evenodd" transform="matrix(1.2646 0 0 1.3223 247.76 -431.98)" stroke="#000" stroke-width="1.16" fill="url(#linearGradient4435)"/>
   <path id="path1092" d="m656.44 338.56c-4.7422 5.7852-7.2741 10.257-9.25 13.562-1.9759 3.3058-0.8139 7.9061 3.75 14.469 4.9205 7.0731 45.374 34.719 98.062 34.719 52.689 0 93.142-27.646 98.062-34.719 4.5639-6.5627 5.6947-11.163 3.7188-14.469-1.9759-3.3058-4.4766-7.7774-9.2188-13.562 0 8.677-33.512 40.031-92.562 40.031-59.051 0.00001-92.562-31.354-92.562-40.031z" fill-rule="evenodd" transform="translate(1.0015)" stroke="#000" stroke-width="1.5" fill="url(#linearGradient4437)"/>
   <path id="path1102" d="m467.82 625.48c0.625-0.937 7.187-11.875 7.187-11.875l-3.598-2.538c-1.105 3.094-5.152 4.101-5.777 7.851s2.813 7.5 2.188 6.562z" fill-rule="evenodd" transform="matrix(1.2646 0 0 1.3223 248.6 -430.81)" stroke="#000" stroke-width="1.16" fill="url(#linearGradient4439)"/>
   <path id="path1103" d="m475 622.98s1.25-5.312-2.812-5.937c-4.063-0.625-6.2137 2.9734-5.625 1.562 0.65376-1.5673 3.125-3.125 3.437-8.437 0.313-5.313-0.312-8.125-0.312-8.125s1.562-6.876 8.125-5.938c6.562 0.938 6.875 5.938 6.875 7.813s-0.625 2.812-0.625 2.812l-9.063 16.25z" fill-rule="evenodd" transform="matrix(1.2646 0 0 1.3223 247.76 -431.98)" stroke="#000" stroke-width="1.16" fill="url(#linearGradient4441)"/>
   <path id="path1122" d="m436.62 649.96v2.602h0.875l0.203-1.573 0.203-0.191h1.522v7.996l-0.215 0.235-0.825 0.073v0.72h3.793v-0.72l-0.824-0.073-0.216-0.235v-7.996h1.523l0.19 0.191 0.215 1.573h0.876v-2.602h-7.32z" stroke-width="1pt" transform="matrix(1.3037 -.81376 .64946 1.1357 -171.7 -17.227)"/>
   <path id="path1123" d="m427.15 649.96v0.72l0.736 0.074 0.203 0.235v7.805l-0.203 0.235-0.736 0.073v0.72h3.591v-0.72l-0.762-0.073-0.203-0.235v-3.704h3.667v3.704l-0.19 0.235-0.762 0.073v0.72h3.578v-0.72l-0.736-0.073-0.203-0.235v-7.805l0.203-0.235 0.736-0.074v-0.72h-3.578v0.72l0.762 0.074 0.19 0.235v3.219h-3.667v-3.219l0.203-0.235 0.762-0.074v-0.72h-3.591z" stroke-width="1pt" transform="matrix(1.3555 -.71541 .57124 1.1806 -142.84 -89.134)"/>
   <path id="path1124" d="m422.81 654.98v0.72l0.939 0.074 0.203 0.206v2.998c-0.33 0.029-0.571 0.044-0.698 0.044-1.953 0-3.146-1.543-3.146-4.189 0-2.572 1.167-4.1 3.058-4.1 0.368 0 0.71 0.073 1.053 0.235l0.19 0.264 0.241 1.558h0.926v-2.498c-0.939-0.324-1.839-0.485-2.677-0.485-2.816 0-4.63 2.013-4.63 5.026 0 3.057 1.801 5.174 4.465 5.174 0.926 0 1.865-0.206 2.842-0.603v-3.424l0.203-0.206 0.736-0.074v-0.72h-3.705z" stroke-width="1pt" transform="matrix(1.4551 -.45466 .36380 1.267 -48.925 -257.17)"/>
   <path id="path1125" d="m413.66 659.83h3.793v-0.72l-0.85-0.073-0.203-0.235v-7.834l0.203-0.206 0.85-0.074v-0.72h-3.793v0.72l0.837 0.074 0.203 0.206v7.834l-0.203 0.235-0.837 0.073v0.72z" stroke-width="1pt" transform="matrix(1.4506 -.45679 .38067 1.2651 -58.062 -254.63)"/>
   <path id="path1128" d="m393.88 659.83h6.813v-2.63h-0.863l-0.216 1.558-0.165 0.235h-2.943v-3.822h1.649l0.178 0.206 0.127 1.058h0.748v-3.41h-0.748l-0.127 1.059-0.178 0.205h-1.649v-3.498h2.525l0.165 0.191 0.19 1.294h0.888v-2.308h-6.394v0.72l0.774 0.074 0.203 0.206v7.834l-0.203 0.235-0.774 0.073v0.72z" stroke-width="1pt" transform="matrix(1.4218 -.13018 .11226 1.3173 129.29 -421.88)"/>
   <path id="path1129" d="m384.25 649.96v0.72l0.736 0.074 0.203 0.235v7.805l-0.203 0.235-0.736 0.073v0.72h3.59v-0.72l-0.761-0.073-0.203-0.235v-3.704h3.666v3.704l-0.19 0.235-0.761 0.073v0.72h3.578v-0.72l-0.736-0.073-0.203-0.235v-7.805l0.203-0.235 0.736-0.074v-0.72h-3.578v0.72l0.761 0.074 0.19 0.235v3.219h-3.666v-3.219l0.203-0.235 0.761-0.074v-0.72h-3.59z" stroke-width="1pt" transform="matrix(1.4272 -.024912 .023078 1.3221 185.56 -466.47)"/>
   <path id="path1130" d="m376.42 649.96v2.602h0.875l0.203-1.573 0.203-0.191h1.523v7.996l-0.216 0.235-0.825 0.073v0.72h3.794v-0.72l-0.825-0.073-0.216-0.235v-7.996h1.523l0.19 0.191 0.216 1.573h0.875v-2.602h-7.32z" stroke-width="1pt" transform="matrix(1.4274 .017066 -.012489 1.3222 208.78 -482.9)"/>
   <path id="path1131" d="m365.33 659.83h6.813v-2.63h-0.863l-0.216 1.558-0.165 0.235h-2.943v-3.822h1.649l0.178 0.206 0.127 1.058h0.748v-3.41h-0.748l-0.127 1.059-0.178 0.205h-1.649v-3.498h2.525l0.165 0.191 0.19 1.294h0.888v-2.308h-6.394v0.72l0.774 0.074 0.203 0.206v7.834l-0.203 0.235-0.774 0.073v0.72z" stroke-width="1pt" transform="matrix(1.3898 .068810 -.057847 1.3208 251.72 -502.75)"/>
   <path id="path1134" d="m352.34 659.83h3.793v-0.72l-0.85-0.073-0.203-0.235v-7.834l0.203-0.206 0.85-0.074v-0.72h-3.793v0.72l0.837 0.074 0.203 0.206v7.834l-0.203 0.235-0.837 0.073v0.72z" stroke-width="1pt" transform="matrix(1.3248 .44669 -.38642 1.2584 487.78 -599.44)"/>
   <path id="path1135" d="m345.5 659.5c0.787 0.323 1.637 0.485 2.449 0.485 2.081 0 3.362-1.264 3.362-3.013 0-0.867-0.406-1.661-1.142-2.205-0.748-0.558-1.421-0.779-1.814-1.058-0.672-0.47-1.028-0.911-1.028-1.587 0-0.809 0.571-1.396 1.497-1.396 0.406 0 0.698 0.073 0.926 0.205l0.178 0.206 0.216 1.529h0.913v-2.381c-0.799-0.324-1.598-0.5-2.385-0.5-1.814 0-2.994 1.264-2.994 2.895 0 0.721 0.304 1.441 0.888 2.014 0.558 0.544 1.155 0.794 1.662 1.088 0.901 0.529 1.358 1.058 1.358 1.851 0 0.809-0.609 1.397-1.637 1.397-0.393 0-0.761-0.074-1.116-0.206l-0.165-0.22-0.203-1.764h-0.965v2.66z" stroke-width="1pt" transform="matrix(1.3248 .44669 -.38642 1.2584 487.78 -599.44)"/>
   <path id="path1136" d="m337.56 659.83h6.813v-2.63h-0.862l-0.216 1.558-0.165 0.235h-2.943v-3.822h1.649l0.178 0.206 0.126 1.058h0.749v-3.41h-0.749l-0.126 1.059-0.178 0.205h-1.649v-3.498h2.524l0.165 0.191 0.191 1.294h0.888v-2.308h-6.395v0.72l0.774 0.074 0.203 0.206v7.834l-0.203 0.235-0.774 0.073v0.72z" stroke-width="1pt" transform="matrix(1.256 .62785 -0.544 1.1928 614.27 -618.93)"/>
   <path id="path1141" d="m332.18 649.96h-3.704v0.72l0.774 0.074 0.203 0.235v7.805l-0.203 0.235-0.774 0.073v0.72h3.704c1.269 0 2.22-0.22 3.007-0.925 1.028-0.912 1.561-2.264 1.561-3.998 0-3.087-1.624-4.939-4.568-4.939zm-1.053 0.823h0.736c2.017 0 2.994 1.338 2.994 4.101s-0.977 4.115-2.994 4.115h-0.736v-8.216z" stroke-width="1pt" transform="matrix(1.1627 .80092 -.69458 1.1039 743.08 -619.06)"/>
   <path id="path1144" d="m356.84 649.96v0.72l0.749 0.074 0.203 0.206v7.834l-0.203 0.235-0.749 0.073v0.72h3.578v-0.72l-0.774-0.073-0.203-0.235v-3.307h0.216c1.281 0 1.611 0.632 2.004 2.028 0.203 0.705 0.317 1.367 0.977 1.955 0.305 0.279 0.774 0.455 1.32 0.455 0.393 0 0.824-0.044 1.268-0.117v-0.706h-0.165c-0.85 0-1.23-0.22-1.497-1.029-0.241-0.734-0.342-1.528-0.736-2.175-0.291-0.47-0.723-0.749-1.332-0.911 1.434-0.309 2.183-1.161 2.183-2.513 0-1.632-1.015-2.514-2.982-2.514h-3.857zm2.601 0.838h0.584c1.23 0 1.877 0.676 1.877 1.881 0 1.353-0.647 1.97-2.004 1.97-0.14 0-0.292 0-0.457-0.015v-3.836z" stroke-width="1pt" transform="matrix(1.3602 .30069 -.26641 1.2936 398.15 -570.11)"/>
   <path id="path1147" d="m405.15 649.96v0.72l0.749 0.074 0.203 0.206v7.834l-0.203 0.235-0.749 0.073v0.72h3.578v-0.72l-0.774-0.073-0.203-0.235v-3.307h0.216c1.281 0 1.611 0.632 2.004 2.028 0.203 0.705 0.318 1.367 0.977 1.955 0.305 0.279 0.774 0.455 1.32 0.455 0.393 0 0.824-0.044 1.268-0.117v-0.706h-0.165c-0.85 0-1.23-0.22-1.497-1.029-0.241-0.734-0.342-1.528-0.735-2.175-0.292-0.47-0.724-0.749-1.332-0.911 1.433-0.309 2.182-1.161 2.182-2.513 0-1.632-1.015-2.514-2.982-2.514h-3.857zm2.601 0.838h0.584c1.23 0 1.877 0.676 1.877 1.881 0 1.353-0.647 1.97-2.004 1.97-0.14 0-0.292 0-0.457-0.015v-3.836z" stroke-width="1pt" transform="matrix(1.4991 -.25608 .20579 1.305 35.993 -363.5)"/>
   <path id="path8623" d="m467.82 625.48c0.625-0.937 7.187-11.875 7.187-11.875l-3.598-2.538c-1.105 3.094-5.152 4.101-5.777 7.851s2.813 7.5 2.188 6.562z" fill-rule="evenodd" transform="matrix(-1.2646 0 0 1.3223 1251.4 -430.81)" stroke="#000" stroke-width="1.16" fill="url(#linearGradient4443)"/>
   <path id="path8778" d="m475 622.98s1.25-5.312-2.812-5.937c-4.063-0.625-6.2137 2.9734-5.625 1.562 0.65376-1.5673 3.125-3.125 3.437-8.437 0.313-5.313-0.312-8.125-0.312-8.125s1.562-6.876 8.125-5.938c6.562 0.938 6.875 5.938 6.875 7.813s-0.625 2.812-0.625 2.812l-9.063 16.25z" fill-rule="evenodd" transform="matrix(-1.2646 0 0 1.3223 1252.2 -431.98)" stroke="#000" stroke-width="1.16" fill="url(#linearGradient4445)"/>
   <path id="path703" d="m396.85 605.91s-75.43-21.26-74.99-102.14l0.581-106.91h148.82l0.583 106.3c0.44 80.882-74.993 102.76-74.993 102.76z" fill-rule="evenodd" fill-opacity=".99608" transform="matrix(1.2646 0 0 1.3223 248.14 -428.58)" stroke="#fff" stroke-width="3.8666" fill="#0072c4"/>
   <g id="g8591" fill-rule="evenodd">
    <path id="path1019" d="m339.69 420.17c0.124 0 1.038-0.83 1.875-1.562 1.169-0.56 2.25-1.347 3.438-1.875 0.885-0.49 2.634-0.87 3.437-1.25 1.053-0.527 1.912-1.134 2.813-2.188 0.108-1.398 0.313-2.402 0.313-4.062 1.243-0.572 2.346-1.127 3.437-1.563 1.564-0.421 1.903-1.019 3.438-1.25 0.988-0.33 2.621-0.313 4.062-0.313 1.555 0 2.536 1.057 3.933 1.307 1.656 0.639 2.429 1.081 3.75 2.188 0.746 0.903 1.21 1.637 2.482 2.317 1.007 0.494 1.95 1.242 3.125 1.562 1.29 0.715 2.435 1.129 3.437 2.188 0.918 0.624 1.297 1.551 2.188 2.187 1.032 0.819 2.011 1.556 3.125 2.188 1.339 0.858 2.666 1.51 4.835 1.323 1.148-0.065 2.384-0.191 3.75 0.053 1.529 0 3.021-0.026 4.375 0.313 1.594 0 2.884 0.206 4.375 0.312 1.397 0.25 2.821 0.313 4.375 0.313 1.355 0.338 2.846 0.312 4.375 0.312h4.375 4.375c1.592 0 3.204 0.062 4.375 0.313 1.577 0 2.933-0.141 4.375-0.313 1.697 0 2.991-0.297 4.688-0.312h5.313c1.364 0.357 3.107 0.602 4.062 1.25 1.251 0.341 1.874 0.908 3.125 1.25 0.958 0.47 2.413 1.214 3.125 2.187 0.882 0.882 1.788 2.145 2.5 3.438 0.87 1.2 1.201 2.572 1.875 4.062 0.357 1.428 0.606 2.786 0.625 4.375 0.339 1.355 0.313 2.846 0.313 4.375-0.357 1.425-0.435 3.011-0.938 4.375-0.054 1.525-0.373 2.905-0.625 4.063-0.278 1.279-0.605 2.102-0.625 3.75v4.375c-0.11 1.435-0.438 2.489-0.625 4.062-0.756 1.365-1.48 2.961-2.187 4.688-1.04 0.693-1.942 1.679-2.5 2.5-0.667 0.394-1.053 0.992-0.938 1.25 1.249 0.416 0.938 1.247 0.938 2.812 0.162 1.205 0.284 2.699 0.625 4.063 0.114 1.492 0.448 2.404 0.937 3.437 0.493 0.616 0.589 0.313-0.625 0.313-0.903 0.677-1.817 0.323-2.187-0.938-0.729-0.841-0.969-1.859-1.25-3.437-0.173-1.447-0.415-2.857-0.938-3.75-0.16-1.761-0.65-1.743-2.5-1.875-0.88-0.746-2.042-0.938-3.75-0.938-1.701 0-1.844-0.166-1.875 1.563v4.375c-0.294 1.268-0.939 2.296-1.25 3.437-0.932 0.653-1.417 1.749-2.5 2.5-0.516 1.419-1.266 1.666-2.813 1.875-0.541-0.646-1.423-1.489-1.875-2.187 0.875-1.404 1.639-1.616 2.188-3.125 0.664-1.244 1.054-2.051 1.562-3.125-0.667-0.982-1.266-1.425-1.875-2.813-0.514-0.756-1.226-2.383-1.562-3.437-1.026-0.342-2.642-0.397-3.438-0.938-1.516-0.337-1.94 1.25-3.749 1.25h-4.375c-1.935 0-2.418 1.033-4.063 0.938-0.483 0.15-1.655-0.066-3.438 0-1.306 0.435-2.879 0.312-4.375 0.312-1.585-0.019-2.882-0.368-4.062-0.625-1.436-0.376-2.864-0.757-4.375-0.937-1.835 0-2.518 0.14-3.75 0.937-0.975 0.553-2.388 1.817-3.438 2.5-0.444 1.037-0.675 2.792-1.25 4.063-0.332 1.219-0.872 1.992-1.25 3.125-0.423 1.057-0.823 2.145-0.937 3.75-0.106 2.106-0.587 1.848-1.875 1.25-0.537-0.872-1.393-1.831-1.875-2.813 0.284-1.59 0.604-2.381 0.625-4.062-0.304-1.213-1.014-1.174-1.875-0.313 0 1.636 0.079 2.898-0.625 3.75-0.352 1.291-0.918 1.849-1.875 2.5-0.468 1.16-1.507 1.691-2.5 2.188-0.159-0.053 0-0.419 0-1.25-0.749-1.429-0.054-2.615-0.054-4.375 0.019-1.578-0.075-2.624 0.404-4.063 0-1.515-0.735-2.956-0.975-4.062-0.581-1.161-0.916-1.735-2.5-2.188-1.113-0.423-2.717-0.995-3.438-1.875-0.907-1.125-1.486-1.588-2.812-2.187-1.438-0.498-2.136-0.954-3.125-1.563-0.966-1.019-1.751-1.461-2.188-2.812-0.652-0.961-0.764-2.746-1.25-4.063-0.106-1.372-0.517-2.647-0.937-3.75-0.186-1.372-0.412-2.376-0.938-3.75-0.174-1.285-0.562-2.629-0.937-4.062 0-1.529 0.026-3.021-0.313-4.375v-4.375c-0.225-1.263-0.308-3.112-0.625-4.063 0-1.7-0.189-2.66-0.625-3.75-0.715-1.104-0.773-1.599-1.875-1.875-0.796 0.971-2.108 1.367-3.75 1.563-1.147-0.25-2.766-0.413-4.063-0.938-1.253-0.295-2.11-0.769-3.125-1.25-0.555-0.817-1.218-1.742-1.875-2.5-0.194-1.632-0.566-2.472-0.625-4.062 0-1.193 0.03-0.56 1.25-2.188z" stroke-opacity=".99608" transform="matrix(1.2646 0 0 1.3223 239.42 -427.4)" stroke-width="1pt" fill="#bcbcbc"/>
    <path id="path1022" d="m358.2 431.43c0.074-0.073 0.147-0.147 0.221-0.221-0.502 0.502-0.318 0.26 0.884-0.221 0.672-0.405 1.95-1.118 2.431-1.547 0.577-0.253 1.496-0.583 1.988-1.104 0.616-0.628 1.231-1.149 1.989-1.768 0.875-0.71 1.691-0.943 2.652-1.547 1.25-0.089 1.703-0.601 2.872-0.221 1.097 0.238 1.552 0.245 2.431-0.663 0.887-0.543 1.863-1.071 2.21-1.989v-1.325c-0.017 1.444-0.289 1.912-1.326 2.43-0.723 0.792-1.624 1.688-1.989 2.431-0.702 0.972-0.851 1.516-1.547 1.989-0.571 0.696-1.551 1.064-1.767 2.209 0.315 0.526 0.027 0.814 0.662 0.884 0.64 0.526 1.306 0.302 2.21 0 0.899-0.995 1.303-1.638 1.768-2.651 0.742-0.969 1.157-1.43 1.547-2.21 0.768-0.533 1.256-0.948 1.547-1.768 0.889-0.497 1.62-1.021 2.209-1.547 0.661-0.406 1.011-0.736 1.989-0.884-0.014 1.187-0.198 1.748-0.663 2.431-0.22 1.231-0.176 1.814 0.221 2.652 0.635 0.375 0.522 0.702 0.884 1.547 0.36-0.731 0.543-2.21 0.663-3.094v-0.221c0 0.966 0.092 2.248-0.221 2.873 0.015 1.288 0.314 1.863 0.663 2.872 0.372 0.487 0.635 0.803 1.105 1.105 0.044-1.275 0.377-2.115 0.442-3.314 0.308 0.925 0.205 2.148 0.442 3.093 0.08 1.04 0.474 1.846 0.884 2.652 0.503 0.297 0.674 1.174 0.883 0.442 0.523-1.555 0.536-3.256 0.884-4.862 0.063-0.815 0.131-2.028 0.442-2.651l-0.442 2.651c0.063-0.815 0.131-2.028 0.442-2.651v-0.221c0.206 1.164 0.401 2.288 0.442 3.535 0 0.995-0.067 2.008 0.221 2.873 0.735-0.325 1.161-1.088 1.547-1.989 0.589-1.068 0.992-1.542 1.768-2.43l-1.768 2.43c0.589-1.068 0.992-1.542 1.768-2.43v-0.221c-0.122 1.019-0.221 1.979-0.221 3.093 0 1.019-0.012 2.174 0.221 2.873 0.26 1.172 0.616 1.389 0.663 2.651 0 0.615-0.084 1.243 0.221 1.547 0.952 0.238 0.955-0.292 1.105-1.547 0.012-1.425 0.393-2.397 0.441-3.756 0-1.677 0.248 0.204 0.442 0.884 0.446 0.984 0.585 1.859 0.663 2.872 0 0.615-0.083 1.243 0.221 1.547 0.854-0.338 1.192-1.292 1.768-1.768 0.44-1.047 0.895-1.509 1.326-2.209 1.145-0.229 1.089-0.679 1.105-1.989 0-1.057-0.087-2.17 0.221-3.094 0.354-0.96 0.688-2.029 0.884-2.872 0.413-0.236 0.859 0.348 1.104 0.884 0.484 0.712 0.442 1.751 0.442 2.872 0.213 0.978 0.638 1.742 1.105 2.652 0.554 1.021 1.004 1.64 1.547 2.21 0.233 0.699 0.221 1.854 0.221 2.872 0.861-0.935 1.026-2.329 1.105-3.756-0.116-0.971-0.137-2.18-0.442-3.094-0.035-0.973-0.217-1.978-0.442-2.651-0.746-0.343-0.864-0.647-0.221-1.547 0.711-0.588 1.479-0.361 2.652-0.221 0.593 0.593 0.837 0.91 0.884 2.209 0 1.177 0.052 2.082 0.442 2.873 0.432 0.636 0.861 1.073 1.104 2.21 0.339 0.277 0.601 0.725 1.105 0.221 0.277-0.647 0.44-1.982 0.663-2.652 0.216-0.839 0.605-1.251 1.105-1.547 0 1.23-0.015 1.984 0.442 2.873 0.433 0.987 0.733 1.358 1.105 2.431 0.471 0.314 0.531 0.991 1.105 1.325 0.135-1.038 0.221-2.226 0.221-3.535v-3.094c0.081-1.053 0.348-1.645 0.663-2.43 0.712 0.848 0.663 1.199 0.663 2.43 0.727-0.259 0.849-0.758 1.104-1.546 0.519-0.437 0.661-0.641 0.884 0.441 0.155 1.156 0.45 2.197 0.663 3.315 0.455 0.51 0.98 1.745 1.547 2.21 0.389 0.632 0.826 1.243 1.326 1.768 0.344 0.727 0.432 1.107 1.326 1.325 0-1.495 0.052-2.995-0.221-4.419 0-1.27-0.29-1.723-0.442-2.873-0.368-0.762-0.585-1.885-0.442-2.209 1.035 0.982 1.503 1.552 1.989 2.651 0.518 1.062 0.955 1.776 1.325 2.873 0.511 0.419 1.416 1.677 1.768 2.21 0.789 0.674 1.173 1.376 1.989 1.988 0.422 0.38 1.314 0.592 1.547 0.442-0.041-1.296-0.247-2.408-0.663-3.535-0.015-1.237-0.311-1.909-0.663-2.652-0.869-0.717-1.528-1.206-1.989-2.21-0.342-0.28-0.409-0.489-0.442-1.104 1.27 1.005 2.157 1.901 3.094 3.093 0.633 0.785 0.955 1.141 1.768 1.547 0.44 0.472 1.723 1.06 2.651 1.326 0.557 0.706 1.301 1.112 2.21 1.326l-2.21-1.326c0.557 0.706 1.301 1.112 2.21 1.326v0.221c-0.111-1.382-0.642-2.392-1.326-3.536-0.576-1.209-1.103-1.657-1.989-2.431-0.578-0.875-1.225-1.391-2.209-1.988-0.61-0.686-1.523-1.825-1.989-2.21 0.942-0.566 2.049 0.383 3.094 0.884 0.862 0.894 1.668 2.059 2.209 2.651 0.589 1.136 1.04 1.838 1.989 2.873 0.952 0.54 1.613 1.074 2.431 1.768 1.266 0.335 0.761-0.108 0.442-1.105-0.437-1.247-0.048-1.267 0.884-0.442 0.615 0.419 1.3 1.117 2.209 1.547 0.393 0.487 0.986 0.757 1.547 0.442 0.234-0.312 0.221-0.277 0.221-0.663-0.465-1.371-0.897-2.439-1.989-2.873-0.5-0.61-1.314-1.336-1.988-1.989-0.44-0.647-0.953-1.02-1.326-1.767l1.326 1.767c-0.44-0.647-0.953-1.02-1.326-1.767h-0.221c1.334 0.047 1.809 0.371 2.872 0.884 0.757 0.264 1.575 0.955 1.989 1.546 0.431 0.547 1.121 1.135 1.547 1.768 0.679 0.5 1.429 1.069 2.21 1.547 0.735 0.922 0.867 1.522 0.884 2.873 0.424 0.625 0.5 1.903 0.662 2.651-0.162 1.215-0.597 0.261-0.662-0.442-0.187-0.976-0.576-0.925-1.326-0.663 0 1.335 0.154 1.7 0.663 2.652-0.138 0.912-0.455 1.579-0.884 2.21-0.516 0.294-0.627-0.65-1.105-1.105-0.051-1.367-0.453-1.517-1.326-2.21v0.884c0.493 0.943 1.013 1.803 1.105 3.094 0.341 0.985 0.442 1.607 0.442 2.872 0 1.082 0.018 2.136-0.221 3.094 0 1.199-0.207 1.713-0.221 2.873v3.093 3.094c-0.17 0.782-0.221 1.801-0.221 2.872l0.221-2.872c-0.17 0.782-0.221 1.801-0.221 2.872v0.221c-0.42-1.11-0.877-2.115-1.105-3.314-0.716-0.678-1.171-1.377-1.547-2.21-0.169-0.948-0.275-2.106-0.442-2.873-0.311-0.778-0.641-1.609-1.326-1.104-0.271 1.647 0.071 2.628 0.663 4.198 0.347 1.041 0.309 1.859 0.663 2.873 0.512 1.168 0.924 1.336 0 2.651-0.456 0.701-0.7 0.923-0.884 1.768-0.817 0.409-1.022 0.591-1.104 1.547-0.275-0.86-0.943-1.867-1.326-2.873-0.396-1.058-0.885-2.145-1.105-3.093-0.536-0.74-1.165-1.937-1.768-2.431-0.555-0.714-1.352-1.904-1.768-2.652-0.846-0.943-1.033-1.489-1.767-1.988-0.189-0.441-0.414-0.992-0.884-0.663 0 1.057-0.087 2.169 0.221 3.093 0.223 1.303 0.615 2.026 0.663 3.315v2.431c-0.531-1.245-1.098-2.356-1.547-3.536-0.483-0.66-0.955-1.945-1.547-2.431-0.376-0.857-0.669-1.568-1.105-2.209-0.113-0.642-0.41-0.635-0.663-1.105 0.015 1.253 0.413 1.692 0.663 2.651 0.431 0.842 0.569 2.253 0.442 2.652-0.557-1.549-1.061-3.242-1.768-4.64-0.67-0.908-1.324-2.075-1.768-2.873-0.657-0.759-1.333-0.784-1.988-1.326-0.597-0.283-1.168-0.599-1.547-1.105 0.174 1.165 0.628 1.893 0.884 2.873 0.145 1.111 0.656 2.001 0.884 2.873-0.246 1.512-0.603-0.419-0.884-1.105-0.233-1.244-0.664-1.935-1.105-2.652-0.592-0.403-1.131-1.118-1.768-1.547-0.62-0.238-0.442 0.043-0.442 0.884 0 1.367 0.052 2.27 0.442 3.094 0.441 0.648 0.442 1.493 0.442 2.651-0.039 1.088-0.221 1.961-0.221 3.094v1.768c-0.507-0.94-0.989-1.473-1.326-2.652-0.767-1.003-0.994-1.74-1.547-2.872-0.49-0.197-1.288-0.36-1.767 0 0.086 1.118 0.603 1.61 0.663 2.872-0.881 0.863-0.722 1.109-1.326-0.221-0.504-1.007-1.091-0.96-1.768-1.547-1.109-0.138-0.757-0.817-1.105-1.767 0-0.851 0.088-1.71-0.221-2.431-1.211 0-1.906-0.042-2.651 0.663-0.351 0.7-0.227 1.964 0 2.872v3.094c-0.252 0.774-0.751 0.816-0.884 1.768-0.427 0.943-0.568 1.984-0.884 2.652-0.787 0.679-0.445 0.765-0.884-0.442v-3.978-3.094c0-1.201 0.181-1.786 0.221-2.872-0.458-0.916-0.583-1.088-1.989-1.105-0.342 0.571-0.212 1.631 0 2.21 0 1.071 0.051 2.091 0.221 2.872 0 1.174 0.145 1.885 0.221 2.873-0.042 1.171-0.27 2.105-0.884 2.652-0.797 0.199-0.087 0.684-0.884 0.884-0.799-0.383-1.738-0.904-2.43-1.547-0.859-0.262-1.669-0.442-2.873-0.442-1.465-0.018-1.49-0.188-1.989-1.326-0.448-1.217-0.659-2.276-0.884-3.536-0.486-1.034-0.6-1.739-0.884-2.872-0.371-0.675-0.767-1.185-1.325-1.547-0.32 1.117-0.621 2.052-0.663 3.315-0.259 0.517-0.313 1.834-0.442 2.43-0.444-0.654-0.618-1.94-0.884-2.872-0.419-1.34-0.777-2.21-2.21-1.768-1.487 0.018-1.529 0.059-1.547 1.547 0.64 0.959 1.324 1.89 1.768 2.651v3.094c0 1.277 0.078 1.647-0.884 1.989-0.366-1.326-1.143-2.592-1.989-3.757-0.116-0.901-0.406-0.663-1.325-0.663-0.615 0-1.243-0.083-1.547 0.221 0 0.77 0.066 1.839 0 1.989-0.533 0.094-0.748-0.005-1.105-0.442-0.386 0.643-0.095 1.549 0 2.431-0.281 0.983-0.616 1.881-1.105 2.43-0.098-0.294-0.319-0.221 0-0.221-1.517-0.557-2.703-0.901-3.977-1.325-0.767 0.095-1.324 0.77-1.768 1.325-1.123 0.361-1.62 0.648-2.873 0.663-1.202 0-1.787 0.181-2.873 0.221-0.781 0.17-1.801 0.221-2.872 0.221-0.594-0.169-1.632-0.174-1.989-0.442 0.456-0.651 0.964-0.98 1.326-1.988 0.605-0.412 1.172-0.94 1.768-1.547 0.583-0.397 1.266-1.219 1.767-1.768 0.345-1.064 0.819-1.248 1.547-1.768 1.314 0.049 1.57 0.448 2.873 0.663 1.272 0.461 1.976 0.597 2.652-0.221 1.055-0.427 1.951-1.094 3.093-1.326 0.885-0.423 1.452-0.834 2.21-1.326 0.94-0.541 1.388-1.097 2.21-1.767 0.235-0.901 0.901-1.597 0.663-2.652-1.196-0.299-1.955-0.179-2.652 0.442-0.967 0.762-1.15 1.079-2.21 1.768-0.915 0.249-1.306 0.634-2.431 0.884-0.923 0.308-2.036 0.221-3.093 0.221-0.966 0-2.248-0.092-2.873 0.221 0.983-0.633 2.164-1.291 3.094-1.547 0.892-0.573 1.229-0.863 2.431-0.884 0.558-0.698 1.133-0.715 1.325-1.768 0.374-1.307-0.815-0.893-1.767-0.442-0.898 0.158-1.889 0.766-2.652 1.105-0.737 0.246-1.814 0.429-2.873 0.442-0.279-0.398 0.218-0.716 0.442-1.326 1.032-0.35 1.198-0.479 1.326-1.547-1.17 0.155-1.617 0.523-2.652 0.663-1.128 0.282-2.298 0.407-3.535 0.442h-3.094c-1.086-0.04-1.671-0.221-2.872-0.221-0.88-0.44-0.884-0.649-0.884-1.989 0.693-0.762 1.367-0.662 2.651-0.662 0.989-0.465 1.758-0.712 2.431-1.105 0.8-0.165 1.346-0.492 1.105-0.884h-3.094c-1.191-0.482-0.054-0.703 0.663-1.105 1.075 0 2.184 0.061 2.873 0.442 1.329-0.049 1.792-0.451 2.872-1.326 0.847-0.667 1.262-1.093 2.21-1.547 0.681-0.719 1.324-1.115 1.768-1.768 0.909-0.827 1.511-1.286 1.989-1.988 0.585-0.308 0.942-0.706 0.663-1.105-1.385 0.161-1.945 0.643-2.873 1.326-0.539 0.513-1.062 0.973-1.768 1.326-0.995 0.565-1.615 0.794-2.872 0.883-1.134 0-2.006-0.182-3.094-0.221-1.2-0.12-0.095-0.387 0.221-0.883 0.464-0.31 0.826-0.998 0.442-1.547-0.924-0.308-2.036-0.221-3.094-0.221h-3.093c-1.168-0.043-1.662-0.299-2.431-0.663-0.238-0.62 0.043-0.442 0.884-0.442 1.065-0.04 1.82-0.179 2.873-0.442 1.039-0.283 1.169-0.614 1.325-1.768-1.019 0-2.173 0.012-2.872-0.221h-1.989z" transform="matrix(1.2646 0 0 1.3223 239.42 -427.4)" stroke-width="1pt" fill="#fefefe"/>
    <path id="path1023" d="m339.06 426.42c-0.194-1.632-0.566-2.472-0.625-4.062 0-1.193 0.03-0.56 1.25-2.188 0.124 0 1.038-0.83 1.875-1.562 1.169-0.56 2.25-1.347 3.438-1.875 0.885-0.49 2.634-0.87 3.437-1.25 1.053-0.527 1.912-1.134 2.813-2.188 0.108-1.398 0.313-2.402 0.313-4.062 1.243-0.572 2.346-1.127 3.437-1.563 1.564-0.421 1.903-1.019 3.438-1.25 0.988-0.33 2.621-0.313 4.062-0.313 1.555 0 2.536 1.057 3.933 1.307 1.656 0.639 2.429 1.081 3.75 2.188 0.746 0.903 1.21 1.637 2.482 2.317 1.007 0.494 1.95 1.242 3.125 1.562 0.01 1.128 0.261 0.933-0.581 0.933-0.089 1.156-0.378 1.084-1.547 1.105-0.896-0.466-1.535-1.093-1.989-1.768 0.442-1.148 0.149 0.929 0 1.326-0.568 0.447-0.906 0.923-1.547 0.442-0.359-1.078-0.662-1.823-0.662-3.093-0.168-1.381-0.572-0.379-0.884 0.221-0.299 1.114-0.163 1.517 0.221 2.43-1.127 0-1.991-0.102-2.873-0.221-0.82-0.195-1.741 0.045-2.652 0.442-1.157 0.695-0.797 0.7-0.221 1.547 1.021 0.288 1.755 0.829 2.652 1.326 1.02-0.194 2.085-0.411 3.094-0.663 1.053-0.351 2.017-0.128 3.093 0 0.534 0.267 1.236 0.321 1.547 0.663 0 0.683 0.057 1.397-0.221 1.768-0.46 0.292-0.896 1.101-1.547 1.325-0.974 0.534-1.996 0.87-3.093 1.105-1.354 0.049-1.849 0.333-2.873 0.884-0.168 1.117-0.509 1.432-1.547 1.768-1.033 0.431-1.854 0.663-3.093 0.663-0.615 0-1.243 0.083-1.547-0.221 0.984-1.074 1.28-1.58 1.768-2.652 0.191-0.447 0.591-0.734 0.221-1.105-1.309 0.049-1.651 0.041-1.768 1.326-0.148 1.164-0.616 1.359-1.547 1.768 0.251-1.078 0.293-1.906 0.663-2.873-0.782 0.17-1.801 0.221-2.873 0.221-0.669 0.406-0.948 0.564-0.663 1.326-0.888 0.296-1.969 0.114-3.093 0-0.939-0.049-0.421-0.456-1.105-0.884-0.448-0.841-0.963-1.046-1.989-1.105-0.509 0.609-1.452 0.861-1.989 1.326-0.968 0.323-1.584 0.055-2.43-0.442-1.104 0.033-0.956 0.373-0.663 1.105 0.421 0.281-0.026 0.587 0.663 0.663 0.635 0.551 1.178 0.663 2.43 0.663 0.958-0.239 2.013-0.221 3.094-0.221 1.091 0.032 0.884 0.279 0.884 1.326-0.713 0.483-1.752 0.442-2.873 0.442-1.066-0.127-1.884-0.391-2.651-0.663-1.035-0.074-1.863-0.263-2.652 0-0.356 0.377-1.428 0.542-0.221 0.663 0.475 0.428 3.032 0.221 3.214 0.949 0.603 0.641 0.469 1.482-0.562 1.482-0.626-0.313-1.109-0.236-1.547 0-0.736 0.184-1.61 0.05-2.894 0.142 1.677 0.132-1.218-1.742-1.875-2.5z" transform="matrix(1.2646 0 0 1.3223 239.42 -427.4)" stroke-width="1pt" fill="#fefefe"/>
    <path id="path1025" d="m346.04 419.06c-0.073 0-0.733 0.439-1.326 0.884-0.971 0.497-2.008 1.343-2.652 1.768-0.507 0.388-0.504 0.557-1.104 0.663 1.053-0.143 1.522-0.399 2.43-0.884 1.148-0.132 2.26-0.365 2.873-0.884 0.575-0.192-0.043-1.073-0.221-1.547z" transform="matrix(1.2646 0 0 1.3223 239.42 -427.4)" stroke-width="1pt" fill="#bcbcbc"/>
    <path id="path1026" d="m356.21 408.67c0.127 0 0.386 0.691 0.883 1.105 0.318 0.848 0.611 1.447 0.663 2.431 0.271-1.08 0.734-1.948 0.884-3.094-0.344-0.582-0.367-0.855-1.326-0.884 0 0.597 0.073 0.207-1.104 0.442z" transform="matrix(1.2646 0 0 1.3223 239.42 -427.4)" stroke-width="1pt" fill="#bcbcbc"/>
    <path id="path1024" d="m349.36 417.73c-0.494 0 0.871-0.492 1.326-0.663 0.364-0.767 0.653-1.31 1.326-1.767 1.107 0.085 1.65 0.404 2.21 1.104 0.93 0.254 1.265 0.697 2.431 0.884 0.433 0.366 1.019 0.408 0 0.663-0.693 0.366-1.564 0.442-2.652 0.442-1.14 0.082-1.954 0.333-2.652 0.663-1.479 0-1.242 0.049-1.989-1.326z" transform="matrix(1.2646 0 0 1.3223 239.42 -427.4)" stroke="#000" stroke-width=".875" fill="#c4c4c2"/>
    <path id="path1027" d="m360.18 408.89v0.221c0-0.596-0.014-0.292 0.221 0.884 0.365 0.741 0.442 1.536 0.442 2.652 0.58-0.414 1.064-1.24 1.326-1.989 0-1.745-0.247-1.642-1.989-1.768z" transform="matrix(1.2646 0 0 1.3223 239.42 -427.4)" stroke-width="1pt" fill="#bcbcbc"/>
    <path id="path1028" d="m368.36 434.3h0.221c-0.65 0-0.284 0.038 0.884-0.663 0.756-0.504 1.375-1.249 2.431-1.547 1.023-0.803 1.81-1.179 2.872-1.546 0.518-0.238 0.975-0.651 1.547-0.221-0.164 1.09-0.353 1.502-1.326 1.988-0.503 0.63-1.295 0.998-1.988 1.326-0.719 0.316-1.51 0.332-1.768 1.105-1.202 0.529-1.35 0.44-2.873-0.442z" transform="matrix(1.2646 0 0 1.3223 239.42 -427.4)" stroke-width="1pt" fill="#bcbcbc"/>
    <path id="path1029" d="m372.56 440.71c0.394-0.298 1.778-1.678 2.43-2.209 0.738-0.973 1.484-1.717 2.21-2.21 0.644-0.948 1.469-1.583 1.989-2.431 0.614-0.743 1.066-1.372 1.768-2.209 0 0.966-0.092 2.247 0.22 2.872 0 1.335-0.154 1.7-0.662 2.652-0.502 0.782-0.876 1.3-1.989 1.768-1.004 0.532-1.606 0.719-2.431 1.325-0.629 0.387-1.284 0.772-1.989 1.105-0.632 0.271-0.342 0.153-1.546-0.663z" transform="matrix(1.2646 0 0 1.3223 239.42 -427.4)" stroke-width="1pt" fill="#bcbcbc"/>
    <path id="path1030" d="m365.71 445.79h0.221c-0.65 0-0.285 0.038 0.884-0.663 0.943-0.943 1.694-1.271 2.873-1.768 0.897-0.069 1.982-0.292 2.652-0.663 0.534-0.094 0.906-0.419 1.325 0 0.694 0.938 0.885 1.203-0.221 1.768-0.529 0.449-1.462 0.901-2.209 1.105-0.552 0.455-1.644 0.483-2.652 0.663-0.903 0-1.405 0.102-1.768-0.442l1.768 0.442c-0.903 0-1.405 0.102-2.873-0.442z" transform="matrix(1.2646 0 0 1.3223 239.42 -427.4)" stroke-width="1pt" fill="#bcbcbc"/>
    <path id="path1031" d="m375.21 445.79v-0.221c0 0.617-0.027 0.29 0.442-0.884 0.828-1.236 1.14-1.918 2.21-2.21 0.501-0.606 1.369-0.763 2.431-1.105 0.398 0.664 0.092 1.438 0 2.21-0.289 0.825-1.077 1.407-1.547 1.989-0.689 0.468-0.97 0.918-1.989 1.105-0.843 0-0.396-0.021-1.547-0.884z" transform="matrix(1.2646 0 0 1.3223 239.42 -427.4)" stroke-width="1pt" fill="#bcbcbc"/>
    <path id="path1078" d="m139.21 302.6c0 0.61022-0.49466 1.1049-1.1049 1.1049-0.6102 0-1.1049-0.49467-1.1049-1.1049 0-0.61021 0.49467-1.1049 1.1049-1.1049 0.6102 0 1.1049 0.49468 1.1049 1.1049z" transform="matrix(1.2646 0 0 1.3223 510.48 -276.05)"/>
   </g>
   <g id="g4116" stroke-opacity=".99608" fill-rule="evenodd" fill-opacity=".99608" transform="matrix(1.0079 0 0 1.0079 -15.156 2.1989)" stroke="#002b0d" stroke-width="1pt" fill="#005120">
    <path id="path993" d="m351.79 479.6h0.884c-2.771 0-1.115-0.185 3.535 3.535 1.948-1.623 1.925-1.842 3.536 0.884 0.93 1.552 1.203-0.158 2.651-1.767 0.698 3.211 1.145 6.578 3.536 3.535 2.731 0 5.59-0.227 7.071 0.884 1.79 3.325 1.204-0.564 2.652 0.884 3.892 0.467 3.818-3.338 8.057-4.322 2.635 3.293 3.789 0.759 7.072-0.883 2.438 0.682 4.736 4.381 5.2 0.785 1.996-3.256 2.17-2.979 3.536 0 1.941 1.748 2.759-0.874 4.419-1.767 2.959 1.731 6.259 1.971 10.607 0.884 0.736 2.944 2.592 1.667 4.419 0.883 3.91 1.643 5.274 2.146 9.723 0 2.204-2.604 0.956 0.073 2.651 1.768 3.296-1.023 2.386-1.24 6.188-0.884 3.821 0 4.13-0.092 5.303-2.651 1.92 1.92 2.614 3.304 5.303 0.884 4.12 0.121 2.846 0.52 5.304-0.884 1.818 4.026 2.245 1.117 4.419 2.651-1.432 3.631-3.632 5.334-6.187 7.071-1.7 2.816-2.763 5.857-6.187 7.072-2.498 2.548-5.16 4.025-7.955 6.187-3.832 0.958-8.05 0.884-12.375 0.884h-12.374-12.375-12.374c-2.64 1.319-6.958 1.948-10.607 2.651-4.075 0-8.694 0.048-11.49-0.884-1.895-1.894-5.219-4.011-7.071-6.187-1.874-1.511-1.928-4.46-3.536-6.187-1.479-2.529-1.936-6.486-3.535-8.839v-6.187z" transform="matrix(1.2546 0 0 1.3119 258.12 -427.38)"/>
    <path id="path994" d="m437.52 487.56v0.884c0-2.471 0.109-1.158-1.768 3.535-0.38 1.14-1.212 1.408-2.652 1.768" transform="matrix(1.2546 0 0 1.3119 258.12 -427.38)"/>
    <path id="path995" d="m429.57 491.09h0.884c-3.273 3.091-5.476 4.515-6.188 7.955l6.188-7.955c-3.273 3.091-5.476 4.515-6.188 7.955" transform="matrix(1.2546 0 0 1.3119 258.12 -427.38)"/>
    <path id="path996" d="m417.19 486.68c0 0.079-0.124 3.153-0.884 4.419" transform="matrix(1.2546 0 0 1.3119 258.12 -427.38)"/>
    <path id="path997" d="m413.66 492.86v0.884-0.884 0z" transform="matrix(1.2546 0 0 1.3119 258.12 -427.38)"/>
    <path id="path998" d="m406.59 487.56h0.884-0.884c0.294 0 0.589 0 0 0z" transform="matrix(1.2546 0 0 1.3119 258.12 -427.38)"/>
    <path id="path999" d="m357.09 487.56c0.422 0 2.161 2.806 4.419 4.419-0.562 2.586-1.426 5.578 0 7.955" transform="matrix(1.2546 0 0 1.3119 258.12 -427.38)"/>
    <path id="path1000" d="m364.16 492.86c0.422 0 2.161 2.807 4.42 4.42l-4.42-4.42c0.422 0 2.161 2.807 4.42 4.42v0.884c0-2.731-0.227-5.591 0.883-7.072 0.983 1.663 2.224 4.337 2.652 1.768 4.978-0.178 7.381-1.576 10.607-2.651 0 1.3-0.209 0.675 0.884 1.767" transform="matrix(1.2546 0 0 1.3119 258.12 -427.38)"/>
    <path id="path1001" d="m443.71 488.44h0.884c-1.667 1.389-2.946 4.222-4.42 6.187" transform="matrix(1.2546 0 0 1.3119 258.12 -427.38)"/>
    <path id="path1002" d="m407.47 485.79h7.071" transform="matrix(1.2546 0 0 1.3119 258.12 -427.38)"/>
   </g>
   <path id="path4267" d="m696.88 218.75c-13.337 0-17.757 13.938-31.094 13.938-0.25658 0-0.49987-0.0211-0.75-0.0312v0.84375c-0.0503 9.6611 0.70908 18.66 2.0938 27.062 12.303-0.89857 16.873-13.938 29.75-13.938 13.337 0 17.788 13.969 31.125 13.969s17.788-13.969 31.125-13.969 17.788 13.969 31.125 13.969 17.788-13.969 31.125-13.969c12.843 0 17.426 12.947 29.656 13.906 1.4651-8.6271 2.2393-17.896 2.1875-27.844v-0.0312c-0.25013 0.0101-0.49342 0.0312-0.75 0.0312-13.337 0-17.757-13.938-31.094-13.938s-17.788 13.938-31.125 13.938-17.788-13.938-31.125-13.938-17.788 13.938-31.125 13.938-17.788-13.938-31.125-13.938z" fill-rule="evenodd" transform="matrix(1.0079 0 0 1.0079 -15.156 2.1989)" stroke-width="1pt" fill="#fff"/>
   <path id="path4280" d="m696.88 273.16c-10.375-0.00001-15.366 8.41-23.344 12.156 2.7873 7.6844 6.156 14.679 9.9062 21.094 3.7886-2.8649 7.816-5.3438 13.438-5.3438 13.33-0.01 17.78 13.93 31.12 13.93 13.337 0 17.788-13.938 31.125-13.938 13.337-0.00001 17.788 13.938 31.125 13.938s17.788-13.938 31.125-13.938c5.4974 0 9.4711 2.3723 13.188 5.1562 3.7494-6.3852 7.1321-13.368 9.9375-21-7.8521-3.7957-12.845-12.062-23.125-12.062-13.337-0.00001-17.788 13.938-31.125 13.938s-17.788-13.938-31.125-13.938c-13.337-0.00001-17.788 13.938-31.125 13.938s-17.788-13.938-31.125-13.938z" fill-rule="evenodd" transform="matrix(1.0079 0 0 1.0079 -15.156 2.1989)" stroke-width="1pt" fill="#fff"/>
   <path id="path4288" d="m759.12 327.56c-13.337-0.00001-17.788 13.969-31.125 13.969-12.613 0-17.281-12.487-29.031-13.844 15.704 17.494 33.512 28.085 45.656 33.906 4.1072-3.1878 8.3606 3.875 14.5 3.875 6.0956 0 10.326-7.0991 14.406-3.9375 12.01-5.8474 29.601-16.455 45.219-33.781-11.366 1.6616-16.078 13.781-28.5 13.781-13.337 0-17.788-13.969-31.125-13.969z" fill-rule="evenodd" transform="matrix(1.0079 0 0 1.0079 -15.156 2.1989)" stroke-width="1pt" fill="#fff"/>
   <g id="g4128" transform="matrix(1.0079 0 0 1.0079 -15.156 2.1989)">
    <path id="path728" d="m332.54 541.35c1.744-0.581 10.173-3.197 10.464-2.907 0.291 0.291 16.278 15.697 16.278 15.697l-13.371 2.616-13.371-15.406z" stroke-opacity=".99608" transform="matrix(1.2546 0 0 1.3119 259.35 -430)" stroke="#512007" stroke-width="0.475" fill="none"/>
    <path id="path858" d="m413.64 471.01c0.291-4.651 8.72-31.103 8.72-31.103" stroke-opacity=".99608" transform="matrix(1.0628 0 0 1.029 276.8 -177.96)" stroke="#512007" stroke-width=".59402" fill="none"/>
    <path id="path859" d="m416.54 471.32c0-0.291 6.686-31.127 6.686-31.127" stroke-opacity=".99608" transform="matrix(1.0628 0 0 1.029 276.8 -177.96)" stroke="#512007" stroke-width=".59402" fill="none"/>
    <path id="path860" d="m418.83 471.37c0.29-1.744 5.558-31.175 5.558-31.175" stroke-opacity=".99608" transform="matrix(1.0628 0 0 1.029 276.8 -177.96)" stroke="#512007" stroke-width=".59402" fill="none"/>
    <path id="path861" d="m413.93 467.23c1.453-0.872 5.813-2.035 5.813-2.035" stroke-opacity=".99608" transform="matrix(1.0628 0 0 1.029 276.8 -177.96)" stroke="#512007" stroke-width=".59402" fill="none"/>
    <path id="path862" d="m415.96 462.58c1.453 0 4.36-1.163 4.36-1.163" stroke-opacity=".99608" transform="matrix(1.0628 0 0 1.029 276.8 -177.96)" stroke="#512007" stroke-width=".59402" fill="none"/>
    <path id="path863" d="m416.83 459.09c0-0.291 4.36-1.163 4.36-1.163" stroke-opacity=".99608" transform="matrix(1.0628 0 0 1.029 276.8 -177.96)" stroke="#512007" stroke-width=".59402" fill="none"/>
    <path id="path864" d="m417.41 454.73 4.651-0.872" stroke-opacity=".99608" transform="matrix(1.0628 0 0 1.029 276.8 -177.96)" stroke="#512007" stroke-width=".59402" fill="none"/>
    <path id="path865" d="m419.45 450.95c0 0.291 3.197 0.291 3.197 0.291" stroke-opacity=".99608" transform="matrix(1.0628 0 0 1.029 276.8 -177.96)" stroke="#512007" stroke-width=".59402" fill="none"/>
    <path id="path866" d="m420.32 447.46c0.581 0 3.197 0.581 3.197 0.581" stroke-opacity=".99608" transform="matrix(1.0628 0 0 1.029 276.8 -177.96)" stroke="#512007" stroke-width=".59402" fill="none"/>
    <path id="path809" d="m413.64 471.01c0.291-4.651 8.72-31.103 8.72-31.103" stroke-opacity=".99608" transform="matrix(-1.2546 0 0 1.762 1290.4 -502.06)" stroke="#512007" stroke-width=".40987" fill="none"/>
    <path id="path810" d="m416.54 470.13c0-0.291 6.686-29.94 6.686-29.94" stroke-opacity=".99608" transform="matrix(-1.2546 0 0 1.762 1290.4 -502.06)" stroke="#512007" stroke-width=".40987" fill="none"/>
    <path id="path811" d="m419.45 467.81c0.29-1.744 4.941-27.614 4.941-27.614" stroke-opacity=".99608" transform="matrix(-1.2546 0 0 1.762 1290.4 -502.06)" stroke="#512007" stroke-width=".40987" fill="none"/>
    <path id="path812" d="m413.93 467.23c1.453-0.872 5.813-2.035 5.813-2.035" stroke-opacity=".99608" transform="matrix(-1.2546 0 0 1.762 1290.4 -502.06)" stroke="#512007" stroke-width=".40987" fill="none"/>
    <path id="path813" d="m415.96 462.58c1.453 0 4.36-1.163 4.36-1.163" stroke-opacity=".99608" transform="matrix(-1.2546 0 0 1.762 1290.4 -502.06)" stroke="#512007" stroke-width=".40987" fill="none"/>
    <path id="path814" d="m416.83 459.09c0-0.291 4.36-1.163 4.36-1.163" stroke-opacity=".99608" transform="matrix(-1.2546 0 0 1.762 1290.4 -502.06)" stroke="#512007" stroke-width=".40987" fill="none"/>
    <path id="path815" d="m417.41 454.73 4.651-0.872" stroke-opacity=".99608" transform="matrix(-1.2546 0 0 1.762 1290.4 -502.06)" stroke="#512007" stroke-width=".40987" fill="none"/>
    <path id="path816" d="m419.45 450.95c0 0.291 3.197 0.291 3.197 0.291" stroke-opacity=".99608" transform="matrix(-1.2546 0 0 1.762 1290.4 -502.06)" stroke="#512007" stroke-width=".40987" fill="none"/>
    <path id="path817" d="m420.32 447.46c0.581 0 3.197 0.581 3.197 0.581" stroke-opacity=".99608" transform="matrix(-1.2546 0 0 1.762 1290.4 -502.06)" stroke="#512007" stroke-width=".40987" fill="none"/>
    <path id="path799" d="m413.64 471.01c0.291-4.651 8.72-31.103 8.72-31.103" stroke-opacity=".99608" transform="matrix(-1.2546 0 0 1.3119 1321.3 -301.92)" stroke="#512007" stroke-width="0.475" fill="none"/>
    <path id="path800" d="m416.54 470.13c0-0.291 6.686-29.94 6.686-29.94" stroke-opacity=".99608" transform="matrix(-1.2546 0 0 1.3119 1321.3 -301.92)" stroke="#512007" stroke-width="0.475" fill="none"/>
    <path id="path801" d="m419.45 467.81c0.29-1.744 4.941-27.614 4.941-27.614" stroke-opacity=".99608" transform="matrix(-1.2546 0 0 1.3119 1321.3 -301.92)" stroke="#512007" stroke-width="0.475" fill="none"/>
    <path id="path802" d="m413.93 467.23c1.453-0.872 5.813-2.035 5.813-2.035" stroke-opacity=".99608" transform="matrix(-1.2546 0 0 1.3119 1321.3 -301.92)" stroke="#512007" stroke-width="0.475" fill="none"/>
    <path id="path803" d="m415.96 462.58c1.453 0 4.36-1.163 4.36-1.163" stroke-opacity=".99608" transform="matrix(-1.2546 0 0 1.3119 1321.3 -301.92)" stroke="#512007" stroke-width="0.475" fill="none"/>
    <path id="path804" d="m416.83 459.09c0-0.291 4.36-1.163 4.36-1.163" stroke-opacity=".99608" transform="matrix(-1.2546 0 0 1.3119 1321.3 -301.92)" stroke="#512007" stroke-width="0.475" fill="none"/>
    <path id="path805" d="m417.41 454.73 4.651-0.872" stroke-opacity=".99608" transform="matrix(-1.2546 0 0 1.3119 1321.3 -301.92)" stroke="#512007" stroke-width="0.475" fill="none"/>
    <path id="path806" d="m419.45 450.95c0 0.291 3.197 0.291 3.197 0.291" stroke-opacity=".99608" transform="matrix(-1.2546 0 0 1.3119 1321.3 -301.92)" stroke="#512007" stroke-width="0.475" fill="none"/>
    <path id="path807" d="m420.32 447.46c0.581 0 3.197 0.581 3.197 0.581" stroke-opacity=".99608" transform="matrix(-1.2546 0 0 1.3119 1321.3 -301.92)" stroke="#512007" stroke-width="0.475" fill="none"/>
    <path id="path723" d="m395.32 572.16c0-0.291 0.872-72.96 0.872-72.96s2.616-0.291 2.616 0-0.29 72.669-0.581 72.96-3.198 0.581-2.907 0z" stroke-opacity=".99608" fill-rule="evenodd" transform="matrix(1.2546 0 0 1.3119 259.35 -430)" stroke="#512007" stroke-width="0.475" fill="#dd8b59"/>
    <path id="path724" d="m423.81 502.4c0 0.582-0.582 61.333-0.582 61.333l-2.035 2.326 0.582-63.659h2.035z" stroke-opacity=".99608" fill-rule="evenodd" transform="matrix(1.2546 0 0 1.3119 259.35 -430)" stroke="#512007" stroke-width="0.475" fill="#dd8b59"/>
    <path id="path719" d="m363.06 560.24s2.907 29.94 36.335 29.068 42.729-30.23 42.729-30.23-14.243-0.582-14.534-0.582c-0.29 0-11.627 13.953-26.161 13.662s-19.184-3.779-22.382-6.685c-3.197-2.907-6.104-7.267-6.104-7.267l-16.859-6.686 0.872 6.395 6.104 2.325z" stroke-opacity=".99608" fill-rule="evenodd" transform="matrix(1.2546 0 0 1.3119 259.35 -430)" stroke="#512007" stroke-width="0.475" fill="#dd8b59"/>
    <path id="path712" d="m453.3 557.13c-0.291-0.872-1.007-3.866-1.007-3.866v-3.488l1.609-3.532s-25.289 3.623-25.289 3.914c0-0.335-0.156 6.885-0.156 6.885l24.843 0.087z" stroke-opacity=".99608" fill-rule="evenodd" transform="matrix(1.2546 0 0 1.3119 259.35 -430)" stroke="#512007" stroke-width="0.475" fill="#dd8b59"/>
    <path id="path714" d="m448.52 549.78-0.581 6.104h4.069l-0.29-6.104h-3.198z" stroke-opacity=".99608" transform="matrix(1.2546 0 0 1.3119 259.35 -430)" stroke="#512007" stroke-width="0.475" fill="none"/>
    <path id="path715" d="m444.16 550.07-0.291 6.394 2.616-0.29 0.291-6.104h-2.616z" stroke-opacity=".99608" transform="matrix(1.2546 0 0 1.3119 259.35 -430)" stroke="#512007" stroke-width="0.475" fill="none"/>
    <path id="path716" d="m439.8 556.46v-4.941l2.616-0.872 0.291 4.941-2.907 0.872z" stroke-opacity=".99608" transform="matrix(1.2546 0 0 1.3119 259.35 -430)" stroke="#512007" stroke-width="0.475" fill="none"/>
    <path id="path717" d="m434.85 556.18 0.582-4.36 2.906 0.29 0.291 4.651-3.779-0.581z" stroke-opacity=".99608" transform="matrix(1.2546 0 0 1.3119 259.35 -430)" stroke="#512007" stroke-width="0.475" fill="none"/>
    <path id="path718" d="m429.33 556.18 0.291-3.779 2.907-0.291v4.36l-3.198-0.29z" stroke-opacity=".99608" transform="matrix(1.2546 0 0 1.3119 259.35 -430)" stroke="#512007" stroke-width="0.475" fill="none"/>
    <path id="path720" d="m361.89 559.95c0.872 0 7.558 1.453 7.558 1.453l6.976 9.302" stroke-opacity=".99608" transform="matrix(1.2546 0 0 1.3119 259.35 -430)" stroke="#512007" stroke-width="0.475" fill="none"/>
    <path id="path721" d="m366.84 561.12c0.29 0.291 6.104 19.766 34.009 19.766s34.591-22.091 34.591-22.091" stroke-opacity=".99608" transform="matrix(1.2546 0 0 1.3119 259.35 -430)" stroke="#512007" stroke-width="0.475" fill="none"/>
    <path id="path722" d="m439.8 559.37s-13.371 29.068-38.951 27.033c-25.58-2.034-29.649-11.627-31.684-16.568-2.035-4.942-3.197-9.011-3.197-9.011" stroke-opacity=".99608" transform="matrix(1.2546 0 0 1.3119 259.35 -430)" stroke="#512007" stroke-width="0.475" fill="none"/>
    <path id="path725" d="m373.23 558.21c0.29-1.745 0.29-54.357 0.29-54.357l-1.744-0.291-0.29 53.776 1.744 0.872z" stroke-opacity=".99608" fill-rule="evenodd" transform="matrix(1.2546 0 0 1.3119 259.35 -430)" stroke="#512007" stroke-width="0.475" fill="#dd8b59"/>
    <path id="path726" d="m331.66 541.06 22.091 10.755-0.581 1.453s-21.22-9.883-21.22-10.174c0-0.29 0.291-1.453-0.29-2.034z" stroke-opacity=".99608" fill-rule="evenodd" transform="matrix(1.2546 0 0 1.3119 259.35 -430)" stroke="#512007" stroke-width="0.475" fill="#dd8b59"/>
    <path id="path727" d="m341.84 537.86c0 0.872 3.198 18.603 3.198 18.603s2.035 0.291 2.035 0c0-0.29-3.489-18.312-3.489-18.312l-1.744-0.291z" stroke-opacity=".99608" fill-rule="evenodd" transform="matrix(1.2546 0 0 1.3119 259.35 -430)" stroke="#512007" stroke-width="0.475" fill="#dd8b59"/>
    <path id="path730" d="m362.18 538.44c1.163 0 20.929-3.197 20.929-3.197l-0.291 3.197-19.475 2.035-1.163-2.035z" stroke-opacity=".99608" fill-rule="evenodd" transform="matrix(1.2546 0 0 1.3119 259.35 -430)" stroke="#512007" stroke-width="0.475" fill="#dd8b59"/>
    <path id="path746" d="m365.09 514.32c0.581 0 6.976 3.198 9.592 2.326s0.872-2.907 1.453-2.907c0.582 0 2.616 1.453 3.779 0.29 1.163-1.162 2.035-4.65 1.454-4.36-0.582 0.291-15.988 5.814-16.278 4.651z" stroke-opacity=".99608" fill-rule="evenodd" transform="matrix(1.2546 0 0 1.3119 259.35 -430)" stroke="#512007" stroke-width="0.475" fill="#fecf3e"/>
    <path id="path731" d="m362.48 521.58c1.163 0.291 23.836-6.104 23.836-6.104s0 2.035-0.291 2.035c-0.29 0-23.545 6.104-23.545 6.104v-2.035z" stroke-opacity=".99608" fill-rule="evenodd" transform="matrix(1.2546 0 0 1.3119 259.35 -430)" stroke="#512007" stroke-width="0.475" fill="#dd8b59"/>
    <path id="path748" d="m415.09 512.57s1.454 3.488 2.907 2.907 2.907-1.744 2.907-1.744 1.163 2.907 3.197 2.325c2.035-0.581 3.198-3.779 3.198-3.779s2.034 0.582 2.906 0.291c0.873-0.291 2.035-4.941 2.035-4.941l-17.15 4.941z" stroke-opacity=".99608" fill-rule="evenodd" transform="matrix(1.2546 0 0 1.3119 259.35 -430)" stroke="#512007" stroke-width="0.475" fill="#fecf3e"/>
    <path id="path745" d="m413.34 540.77c-0.291 0.581 1.454 2.035 2.907 2.035s2.035-2.035 2.325-1.454c0.291 0.582 0.291 3.198 4.07 2.326s3.779-3.488 3.779-3.488-1.163 0.872 1.453 1.162c2.616 0.291 5.232-3.779 4.942-3.779-0.291 0-18.894 3.489-19.476 3.198z" stroke-opacity=".99608" fill-rule="evenodd" transform="matrix(1.2546 0 0 1.3119 259.35 -430)" stroke="#512007" stroke-width="0.475" fill="#fecf3e"/>
    <path id="path732" d="m363.35 513.15c-0.291 1.163 0.29 2.617 0.29 2.617l18.894-6.395s0.872-1.454 0-1.454-19.475 5.814-19.184 5.232z" stroke-opacity=".99608" fill-rule="evenodd" transform="matrix(1.2546 0 0 1.3119 259.35 -430)" stroke="#512007" stroke-width="0.475" fill="#dd8b59"/>
    <path id="path733" d="m388.35 509.08c0.581 0 19.475-6.104 19.475-6.104s0.291 2.616 0 2.616c-0.29 0-17.731 5.232-17.731 5.232l-1.744-1.744z" stroke-opacity=".99608" fill-rule="evenodd" transform="matrix(1.2546 0 0 1.3119 259.35 -430)" stroke="#512007" stroke-width="0.475" fill="#dd8b59"/>
    <path id="path741" d="m413.34 521.88s-2.907 3.197-2.035 7.557c0.872 4.361 2.035 8.139 2.326 8.139s3.488-5.813 6.976-6.104 9.883 3.198 9.883 3.198-0.872-6.977-0.581-10.174c0.29-3.198 5.232-8.72 5.232-8.72l-21.801 6.104z" stroke-opacity=".99608" fill-rule="evenodd" transform="matrix(1.2546 0 0 1.3119 259.35 -430)" stroke="#512007" stroke-width="0.475" fill="#fecf3e"/>
    <path id="path734" d="m386.89 516.64s-0.581 2.616-0.29 2.616c0.29 0 24.707-6.395 24.707-6.395v-1.744l-24.417 5.523z" stroke-opacity=".99608" fill-rule="evenodd" transform="matrix(1.2546 0 0 1.3119 259.35 -430)" stroke="#512007" stroke-width="0.475" fill="#dd8b59"/>
    <path id="path749" d="m355.5 551.82s-5.813-0.872-5.523 0.581c0.291 1.453 2.907 2.907 3.198 3.779 0.29 0.872-0.872 4.069 0.872 3.779 1.744-0.291 3.488-1.454 3.488-2.326s-0.291-4.941-0.291-4.941l-1.744-0.872z" stroke-opacity=".99608" fill-rule="evenodd" fill-opacity=".99608" transform="matrix(1.2546 0 0 1.3119 259.35 -430)" stroke="#512007" stroke-width="0.475" fill="#b6b6b4"/>
    <path id="path735" d="m387.76 537.28v2.034l20.929-2.906-0.581-1.454-20.348 2.326z" stroke-opacity=".99608" fill-rule="evenodd" transform="matrix(1.2546 0 0 1.3119 259.35 -430)" stroke="#512007" stroke-width="0.475" fill="#dd8b59"/>
    <path id="path743" d="m363.06 540.77c0.291 0 0 2.616 2.325 2.035 2.326-0.582 2.907-2.035 2.907-2.035s0.581 3.197 3.779 2.907c3.197-0.291 4.941-3.779 4.941-3.779s0.291 2.616 2.326 1.744 2.616-2.907 2.616-2.907l-18.313 2.616-0.581-0.581z" stroke-opacity=".99608" fill-rule="evenodd" transform="matrix(1.2546 0 0 1.3119 259.35 -430)" stroke="#512007" stroke-width="0.475" fill="#fecf3e"/>
    <path id="path739" d="m363.06 523.62s-2.616 0.872-1.744 6.104 2.907 8.139 3.197 8.139c0.291 0 2.616-4.941 6.104-5.813 3.489-0.873 9.593 2.616 9.593 2.616s-0.582-4.651 0.291-9.011c0.872-4.361 3.778-7.558 3.778-7.558s-20.347 5.523-21.219 5.523z" stroke-opacity=".99608" fill-rule="evenodd" transform="matrix(1.2546 0 0 1.3119 259.35 -430)" stroke="#512007" stroke-width="0.475" fill="#fecf3e"/>
    <path id="path736" d="m411.89 538.73 0.29 1.744s20.929-2.616 20.929-2.907c0-0.29 0-2.034-0.29-2.034-0.291 0-20.639 3.488-20.929 3.197z" stroke-opacity=".99608" fill-rule="evenodd" transform="matrix(1.2546 0 0 1.3119 259.35 -430)" stroke="#512007" stroke-width="0.475" fill="#dd8b59"/>
    <path id="path737" d="m411.6 520.13 0.291 2.034 24.707-6.685s0.582-1.744 0.291-1.744-24.708 7.267-25.289 6.395z" stroke-opacity=".99608" fill-rule="evenodd" transform="matrix(1.2546 0 0 1.3119 259.35 -430)" stroke="#512007" stroke-width="0.475" fill="#dd8b59"/>
    <path id="path738" d="m414.22 510.83s-0.29 1.744 0 1.744c0.291 0 18.313-4.36 18.313-4.651 0-0.29 1.744-2.035 0.291-1.744-1.454 0.291-18.022 5.523-18.604 4.651z" stroke-opacity=".99608" transform="matrix(1.2546 0 0 1.3119 259.35 -430)" stroke="#512007" stroke-width="0.475" fill="none"/>
    <path id="path750" d="m452.88 544.55-18.03-28.49" stroke-opacity=".99608" transform="matrix(1.2546 0 0 1.3119 259.35 -430)" stroke="#512007" stroke-width="0.475" fill="none"/>
    <path id="path751" d="m432.53 535.83c0.291-0.872 1.163-18.312 1.163-18.312" stroke-opacity=".99608" transform="matrix(1.2546 0 0 1.3119 259.35 -430)" stroke="#512007" stroke-width="0.475" fill="none"/>
    <path id="path747" d="m388.93 509.96c1.163 0.291 3.198 3.197 4.36 2.616 1.163-0.581 2.907-2.325 2.907-2.325s-0.291 3.488 2.035 2.906c2.325-0.581 2.616-2.906 2.616-2.906s1.744 0.872 3.197 0c1.454-0.872 2.907-5.233 2.326-5.233s-16.859 5.233-17.441 4.942z" stroke-opacity=".99608" fill-rule="evenodd" transform="matrix(1.2546 0 0 1.3119 259.35 -430)" stroke="#512007" stroke-width="0.475" fill="#fecf3e"/>
    <path id="path740" d="m388.35 518.39c0 0.581-2.907 5.232-2.035 9.592s2.616 8.43 2.907 8.43 4.651-4.651 8.43-5.523c3.778-0.872 9.301 2.907 9.011 2.907-0.291 0-1.454-4.361-1.454-7.558 0-3.198 4.36-13.081 4.36-13.081l-21.219 5.233z" stroke-opacity=".99608" fill-rule="evenodd" transform="matrix(1.2546 0 0 1.3119 259.35 -430)" stroke="#512007" stroke-width="0.475" fill="#fecf3e"/>
    <path id="path744" d="m388.35 539.32c0 0.291 0.872 2.326 2.907 2.326 2.034 0 2.325-2.035 2.325-2.035s-0.291 3.488 2.907 3.198c3.197-0.291 4.36-3.489 4.36-3.489s0.291 1.745 2.907 0.873c2.616-0.873 6.104-3.779 5.813-3.779-0.29 0-20.928 3.779-21.219 2.906z" stroke-opacity=".99608" fill-rule="evenodd" transform="matrix(1.2546 0 0 1.3119 259.35 -430)" stroke="#512007" stroke-width="0.475" fill="#fecf3e"/>
    <use id="use4342" xlink:href="#path774" transform="translate(-6.5645 7.2747)" height="496.06299" width="992.12598" y="0" x="0"/>
    <use id="use4344" xlink:href="#path774" transform="translate(6.5645 3.7582)" height="496.06299" width="992.12598" y="0" x="0"/>
    <use id="use4346" xlink:href="#path774" transform="translate(0 11.033)" height="496.06299" width="992.12598" y="0" x="0"/>
    <path id="path774" d="m408.98 476.96c0 1.0435-0.84591 1.8894-1.8894 1.8894s-1.8894-0.84591-1.8894-1.8894 0.84592-1.8894 1.8894-1.8894 1.8894 0.84591 1.8894 1.8894z" stroke-opacity=".99608" fill-rule="evenodd" fill-opacity=".99608" transform="matrix(.040639 -1.0717 1.0237 .042541 251.6 667.92)" stroke="#512007" stroke-width=".58134" fill="#be0f17"/>
    <path id="path753" d="m398.23 500.07c0-0.291 9.011 3.779 9.011 4.069 0 0.291 31.974 42.73 32.265 42.73" stroke-opacity=".99608" transform="matrix(1.2546 0 0 1.3119 259.35 -430)" stroke="#512007" stroke-width="0.475" fill="none"/>
    <path id="path754" d="m423.52 504.14 8.139 3.489 2.616 6.394" stroke-opacity=".99608" transform="matrix(1.2546 0 0 1.3119 259.35 -430)" stroke="#512007" stroke-width="0.475" fill="none"/>
    <path id="path755" d="m372.94 503.56c-0.291 0 9.011 6.976 9.011 6.976l1.163 5.814" stroke-opacity=".99608" transform="matrix(1.2546 0 0 1.3119 259.35 -430)" stroke="#512007" stroke-width="0.475" fill="none"/>
    <path id="path756" d="m341.26 546c4.069-1.744 32.265-26.452 32.265-26.452" stroke-opacity=".99608" transform="matrix(1.2546 0 0 1.3119 259.35 -430)" stroke="#512007" stroke-width="0.475" fill="none"/>
    <path id="path757" d="m333.7 541.35c3.489-2.907 31.684-26.742 31.684-26.742" stroke-opacity=".99608" transform="matrix(1.2546 0 0 1.3119 259.35 -430)" stroke="#512007" stroke-width="0.475" fill="none"/>
    <path id="path758" d="m386.6 518.68 29.94 49.706" stroke-opacity=".99608" transform="matrix(1.2546 0 0 1.3119 259.35 -430)" stroke="#512007" stroke-width="0.475" fill="none"/>
    <path id="path759" d="m413.01 539.23s3.532 11.711 7.02 13.455 7.557 4.651 7.557 4.651" stroke-opacity=".99608" transform="matrix(1.2546 0 0 1.3119 259.35 -430)" stroke="#512007" stroke-width="0.475" fill="none"/>
    <path id="path760" d="m412.61 539.48s2.481 13.793 5.969 16.409 6.977 5.523 6.977 5.523" stroke-opacity=".99608" transform="matrix(1.2546 0 0 1.3119 259.35 -430)" stroke="#512007" stroke-width="0.475" fill="none"/>
    <path id="path761" d="m390.96 439.03s3.488 19.185 10.465 23.545c6.976 4.36 12.789 8.139 12.789 8.139" stroke-opacity=".99608" transform="matrix(1.2546 0 0 1.3119 256.26 -299.49)" stroke="#512007" stroke-width="0.475" fill="none"/>
    <path id="path762" d="m390.67 438.74s7.557 15.116 13.952 19.767c6.395 4.65 15.115 9.011 15.115 9.011" stroke-opacity=".99608" transform="matrix(1.2546 0 0 1.3119 256.26 -299.49)" stroke="#512007" stroke-width="0.475" fill="none"/>
    <path id="path763" d="m366.26 439.9c2.034 3.488 1.744 10.174 4.069 12.499 2.325 2.326 5.814 7.558 5.814 7.558" stroke-opacity=".99608" transform="matrix(1.2546 0 0 1.3119 256.26 -299.49)" stroke="#512007" stroke-width="0.475" fill="none"/>
    <path id="path764" d="m366.84 440.19c1.163 1.744 4.406 10.428 6.395 13.08 1.454 2.326 16.278 17.15 16.278 17.15" stroke-opacity=".99608" transform="matrix(1.2546 0 0 1.3119 256.26 -299.49)" stroke="#512007" stroke-width="0.475" fill="none"/>
    <path id="path766" d="m384.57 471.15c0 1.204-0.97605 2.1801-2.1801 2.1801s-2.1801-0.97606-2.1801-2.1801 0.97605-2.1801 2.1801-2.1801 2.1801 0.97607 2.1801 2.1801z" stroke-opacity=".99608" fill-rule="evenodd" transform="matrix(1.2546 0 0 1.3119 256.26 -299.49)" stroke="#512007" stroke-width="0.475"/>
    <path id="path767" d="m395.32 475.8c0 1.0435-0.84592 1.8894-1.8894 1.8894s-1.8894-0.84591-1.8894-1.8894 0.84591-1.8894 1.8894-1.8894 1.8894 0.84591 1.8894 1.8894z" stroke-opacity=".99608" fill-rule="evenodd" transform="matrix(1.2546 0 0 1.3119 256.26 -299.49)" stroke="#512007" stroke-width="0.475"/>
    <path id="path768" d="m408.98 476.96c0 1.0435-0.84591 1.8894-1.8894 1.8894s-1.8894-0.84591-1.8894-1.8894 0.84592-1.8894 1.8894-1.8894 1.8894 0.84591 1.8894 1.8894z" stroke-opacity=".99608" fill-rule="evenodd" transform="matrix(1.2546 0 0 1.3119 256.26 -299.49)" stroke="#512007" stroke-width="0.475"/>
    <path id="path769" d="m420.9 472.46c0 0.96323-0.71577 1.7441-1.5987 1.7441-0.88295 0-1.5987-0.78085-1.5987-1.7441 0-0.96323 0.71577-1.7441 1.5987-1.7441 0.88296 0 1.5987 0.78085 1.5987 1.7441z" stroke-opacity=".99608" fill-rule="evenodd" transform="matrix(1.2546 0 0 1.3119 256.26 -299.49)" stroke="#512007" stroke-width="0.475"/>
    <path id="path770" d="m430.49 466.79c0 0.88297-0.84591 1.5988-1.8894 1.5988s-1.8894-0.71579-1.8894-1.5988c0-0.88296 0.84591-1.5988 1.8894-1.5988s1.8894 0.71579 1.8894 1.5988z" stroke-opacity=".99608" fill-rule="evenodd" transform="matrix(1.2546 0 0 1.3119 256.26 -299.49)" stroke="#512007" stroke-width="0.475"/>
    <path id="path776" d="m374.1 404.44c-0.872 0.582-15.406 4.07-13.371 3.779 2.034-0.29 13.662 2.907 13.371 2.035s0-5.232 0-5.814z" stroke-opacity=".99608" fill-rule="evenodd" fill-opacity=".99608" transform="matrix(1.2546 0 0 1.3119 256.26 -299.49)" stroke="#512007" stroke-width="0.475" fill="#f00"/>
    <path id="path777" d="m398.81 400.08c-0.582 0-9.012 3.198-8.721 3.198s9.593 2.616 9.302 2.034c-0.291-0.581-0.291-4.36-0.581-5.232z" stroke-opacity=".99608" fill-rule="evenodd" fill-opacity=".99608" transform="matrix(1.2546 0 0 1.3119 256.26 -299.49)" stroke="#512007" stroke-width="0.475" fill="#f00"/>
    <path id="path778" d="m424.1 402.99c-0.582 0.291-10.465 2.616-8.721 2.907s8.43 2.616 8.43 2.035c0-0.582 0-4.651 0.291-4.942z" stroke-opacity=".99608" fill-rule="evenodd" fill-opacity=".99608" transform="matrix(1.2546 0 0 1.3119 256.26 -299.49)" stroke="#512007" stroke-width="0.475" fill="#f00"/>
    <path id="path779" d="m413.64 471.01c0.291-4.651 8.72-31.103 8.72-31.103" stroke-opacity=".99608" transform="matrix(1.2546 0 0 1.3119 256.26 -299.49)" stroke="#512007" stroke-width="0.475" fill="none"/>
    <path id="path780" d="m416.54 470.13c0-0.291 6.686-29.94 6.686-29.94" stroke-opacity=".99608" transform="matrix(1.2546 0 0 1.3119 256.26 -299.49)" stroke="#512007" stroke-width="0.475" fill="none"/>
    <path id="path781" d="m419.45 467.81c0.29-1.744 4.941-27.614 4.941-27.614" stroke-opacity=".99608" transform="matrix(1.2546 0 0 1.3119 256.26 -299.49)" stroke="#512007" stroke-width="0.475" fill="none"/>
    <path id="path782" d="m413.93 467.23c1.453-0.872 5.813-2.035 5.813-2.035" stroke-opacity=".99608" transform="matrix(1.2546 0 0 1.3119 256.26 -299.49)" stroke="#512007" stroke-width="0.475" fill="none"/>
    <path id="path783" d="m415.96 462.58c1.453 0 4.36-1.163 4.36-1.163" stroke-opacity=".99608" transform="matrix(1.2546 0 0 1.3119 256.26 -299.49)" stroke="#512007" stroke-width="0.475" fill="none"/>
    <path id="path784" d="m416.83 459.09c0-0.291 4.36-1.163 4.36-1.163" stroke-opacity=".99608" transform="matrix(1.2546 0 0 1.3119 256.26 -299.49)" stroke="#512007" stroke-width="0.475" fill="none"/>
    <path id="path785" d="m417.41 454.73 4.651-0.872" stroke-opacity=".99608" transform="matrix(1.2546 0 0 1.3119 256.26 -299.49)" stroke="#512007" stroke-width="0.475" fill="none"/>
    <path id="path786" d="m419.45 450.95c0 0.291 3.197 0.291 3.197 0.291" stroke-opacity=".99608" transform="matrix(1.2546 0 0 1.3119 256.26 -299.49)" stroke="#512007" stroke-width="0.475" fill="none"/>
    <path id="path787" d="m420.32 447.46c0.581 0 3.197 0.581 3.197 0.581" stroke-opacity=".99608" transform="matrix(1.2546 0 0 1.3119 256.26 -299.49)" stroke="#512007" stroke-width="0.475" fill="none"/>
    <path id="path819" d="m413.64 471.01c0.291-4.651 8.72-31.103 8.72-31.103" stroke-opacity=".99608" transform="matrix(1.2546 0 0 1.3632 225.31 -323.36)" stroke="#512007" stroke-width="0.475" fill="none"/>
    <path id="path820" d="m416.54 471.32c0-0.291 6.686-31.127 6.686-31.127" stroke-opacity=".99608" transform="matrix(1.2546 0 0 1.3632 225.31 -323.36)" stroke="#512007" stroke-width="0.475" fill="none"/>
    <path id="path821" d="m418.83 471.37c0.29-1.744 5.558-31.175 5.558-31.175" stroke-opacity=".99608" transform="matrix(1.2546 0 0 1.3632 225.31 -323.36)" stroke="#512007" stroke-width="0.475" fill="none"/>
    <path id="path822" d="m413.93 467.23c1.453-0.872 5.813-2.035 5.813-2.035" stroke-opacity=".99608" transform="matrix(1.2546 0 0 1.3632 225.31 -323.36)" stroke="#512007" stroke-width="0.475" fill="none"/>
    <path id="path823" d="m415.96 462.58c1.453 0 4.36-1.163 4.36-1.163" stroke-opacity=".99608" transform="matrix(1.2546 0 0 1.3632 225.31 -323.36)" stroke="#512007" stroke-width="0.475" fill="none"/>
    <path id="path824" d="m416.83 459.09c0-0.291 4.36-1.163 4.36-1.163" stroke-opacity=".99608" transform="matrix(1.2546 0 0 1.3632 225.31 -323.36)" stroke="#512007" stroke-width="0.475" fill="none"/>
    <path id="path825" d="m417.41 454.73 4.651-0.872" stroke-opacity=".99608" transform="matrix(1.2546 0 0 1.3632 225.31 -323.36)" stroke="#512007" stroke-width="0.475" fill="none"/>
    <path id="path826" d="m419.45 450.95c0 0.291 3.197 0.291 3.197 0.291" stroke-opacity=".99608" transform="matrix(1.2546 0 0 1.3632 225.31 -323.36)" stroke="#512007" stroke-width="0.475" fill="none"/>
    <path id="path827" d="m420.32 447.46c0.581 0 3.197 0.581 3.197 0.581" stroke-opacity=".99608" transform="matrix(1.2546 0 0 1.3632 225.31 -323.36)" stroke="#512007" stroke-width="0.475" fill="none"/>
    <path id="path848" d="m413.64 471.01c0.291-4.651 8.72-31.103 8.72-31.103" stroke-opacity=".99608" transform="matrix(-1.2546 0 0 1.3198 1259.2 -307.28)" stroke="#512007" stroke-width=".47357" fill="none"/>
    <path id="path849" d="m416.54 470.13c0-0.291 6.686-29.94 6.686-29.94" stroke-opacity=".99608" transform="matrix(-1.2546 0 0 1.3198 1259.2 -307.28)" stroke="#512007" stroke-width=".47357" fill="none"/>
    <path id="path850" d="m419.45 467.81c0.29-1.744 4.941-27.614 4.941-27.614" stroke-opacity=".99608" transform="matrix(-1.2546 0 0 1.3198 1259.2 -307.28)" stroke="#512007" stroke-width=".47357" fill="none"/>
    <path id="path851" d="m413.93 467.23c1.453-0.872 5.813-2.035 5.813-2.035" stroke-opacity=".99608" transform="matrix(-1.2546 0 0 1.3198 1259.2 -307.28)" stroke="#512007" stroke-width=".47357" fill="none"/>
    <path id="path852" d="m415.96 462.58c1.453 0 4.36-1.163 4.36-1.163" stroke-opacity=".99608" transform="matrix(-1.2546 0 0 1.3198 1259.2 -307.28)" stroke="#512007" stroke-width=".47357" fill="none"/>
    <path id="path853" d="m416.83 459.09c0-0.291 4.36-1.163 4.36-1.163" stroke-opacity=".99608" transform="matrix(-1.2546 0 0 1.3198 1259.2 -307.28)" stroke="#512007" stroke-width=".47357" fill="none"/>
    <path id="path854" d="m417.41 454.73 4.651-0.872" stroke-opacity=".99608" transform="matrix(-1.2546 0 0 1.3198 1259.2 -307.28)" stroke="#512007" stroke-width=".47357" fill="none"/>
    <path id="path855" d="m419.45 450.95c0 0.291 3.197 0.291 3.197 0.291" stroke-opacity=".99608" transform="matrix(-1.2546 0 0 1.3198 1259.2 -307.28)" stroke="#512007" stroke-width=".47357" fill="none"/>
    <path id="path856" d="m420.32 447.46c0.581 0 3.197 0.581 3.197 0.581" stroke-opacity=".99608" transform="matrix(-1.2546 0 0 1.3198 1259.2 -307.28)" stroke="#512007" stroke-width=".47357" fill="none"/>
    <path id="path711" d="m426.42 558.5 27.614 0.582 0.291-2.035-28.487-0.291 0.582 1.744z" stroke-opacity=".99608" fill-rule="evenodd" transform="matrix(1.2546 0 0 1.3119 259.35 -430)" stroke="#512007" stroke-width="0.475" fill="#dd8b59"/>
    <path id="path713" d="m427.59 551.23c3.198 0 27.324-4.651 27.324-4.651s0.872-2.906 0-2.906-27.324 5.523-27.324 5.523v2.034z" stroke-opacity=".99608" fill-rule="evenodd" transform="matrix(1.2546 0 0 1.3119 259.35 -430)" stroke="#512007" stroke-width="0.475" fill="#dd8b59"/>
    <use id="use4351" xlink:href="#path774" transform="translate(0 5.5164)" height="496.06299" width="992.12598" y="0" x="0"/>
   </g>
  </g>
 </g>
</svg>
