<?xml version="1.0" encoding="UTF-8" standalone="no"?>
<!-- Created with Sodipodi ("http://www.sodipodi.com/") -->
<svg id="svg559" xmlns:rdf="http://www.w3.org/1999/02/22-rdf-syntax-ns#" xmlns="http://www.w3.org/2000/svg" height="480" width="640" version="1.1" xmlns:cc="http://creativecommons.org/ns#" xmlns:dc="http://purl.org/dc/elements/1.1/">
 <metadata id="metadata3014">
  <rdf:RDF>
   <cc:Work rdf:about="">
    <dc:format>image/svg+xml</dc:format>
    <dc:type rdf:resource="http://purl.org/dc/dcmitype/StillImage"/>
   </cc:Work>
  </rdf:RDF>
 </metadata>
 <g id="flag" fill-rule="evenodd">
  <rect id="rect575" height="480" width="640" y="0" x="0" stroke-width="1pt" fill="#f00"/>
  <g id="g8567" transform="translate(83.911 -.15476)">
   <rect id="rect567" height="314.41" width="360.91" y="83.609" x="62.085" stroke-width="1pt" fill="#009a00"/>
   <path id="path571" d="m62.085 398.02h360.91l-180.46-157.19-180.46 157.19z" stroke-width="1pt" fill="#ffca00"/>
   <path id="path570" d="m62.085 83.683 180.46 157.19 180.45-157.19h-360.91z" stroke-width="1pt" fill="#ffca00"/>
   <polygon id="polygon578" fill="#ffce00" transform="matrix(.95788 0 0 .95788 -151.84 6.7037)" d="m 256.43826,57.228493 -17.16617,-12.243548 -17.18785,12.213117 6.33967,-20.10947 -16.9267,-12.572548 21.08431,-0.184787 6.72656,-19.9833795 6.69115,19.9952645 21.08395,0.222141 -16.94895,12.54254 z" stroke-width="1pt" points="256.44 57.228 239.27 44.985 222.08 57.198 228.42 37.089 211.5 24.516 232.58 24.331 239.31 4.3479 246 24.343 267.08 24.565 250.13 37.108"/>
   <polygon id="polygon579" fill="#ffce00" transform="matrix(.95788 0 0 .95788 13.047 7.193)" d="m 256.43826,57.228493 -17.16617,-12.243548 -17.18785,12.213117 6.33967,-20.10947 -16.9267,-12.572548 21.08431,-0.184787 6.72656,-19.9833795 6.69115,19.9952645 21.08395,0.222141 -16.94895,12.54254 z" stroke-width="1pt" points="256.44 57.228 239.27 44.985 222.08 57.198 228.42 37.089 211.5 24.516 232.58 24.331 239.31 4.3479 246 24.343 267.08 24.565 250.13 37.108"/>
   <polygon id="polygon581" fill="#ffce00" transform="matrix(.95788 0 0 .95788 178.04 6.9277)" d="m 256.43826,57.228493 -17.16617,-12.243548 -17.18785,12.213117 6.33967,-20.10947 -16.9267,-12.572548 21.08431,-0.184787 6.72656,-19.9833795 6.69115,19.9952645 21.08395,0.222141 -16.94895,12.54254 z" stroke-width="1pt" points="256.44 57.228 239.27 44.985 222.08 57.198 228.42 37.089 211.5 24.516 232.58 24.331 239.31 4.3479 246 24.343 267.08 24.565 250.13 37.108"/>
   <polygon id="polygon583" fill="#ffce00" transform="matrix(.95788 0 0 .95788 -151.84 414.13)" d="m 256.43826,57.228493 -17.16617,-12.243548 -17.18785,12.213117 6.33967,-20.10947 -16.9267,-12.572548 21.08431,-0.184787 6.72656,-19.9833795 6.69115,19.9952645 21.08395,0.222141 -16.94895,12.54254 z" stroke-width="1pt" points="256.44 57.228 239.27 44.985 222.08 57.198 228.42 37.089 211.5 24.516 232.58 24.331 239.31 4.3479 246 24.343 267.08 24.565 250.13 37.108"/>
   <polygon id="polygon584" fill="#ffce00" transform="matrix(.95788 0 0 .95788 13.047 414.62)" d="m 256.43826,57.228493 -17.16617,-12.243548 -17.18785,12.213117 6.33967,-20.10947 -16.9267,-12.572548 21.08431,-0.184787 6.72656,-19.9833795 6.69115,19.9952645 21.08395,0.222141 -16.94895,12.54254 z" stroke-width="1pt" points="256.44 57.228 239.27 44.985 222.08 57.198 228.42 37.089 211.5 24.516 232.58 24.331 239.31 4.3479 246 24.343 267.08 24.565 250.13 37.108"/>
   <polygon id="polygon585" fill="#ffce00" transform="matrix(.95788 0 0 .95788 178.04 414.36)" d="m 256.43826,57.228493 -17.16617,-12.243548 -17.18785,12.213117 6.33967,-20.10947 -16.9267,-12.572548 21.08431,-0.184787 6.72656,-19.9833795 6.69115,19.9952645 21.08395,0.222141 -16.94895,12.54254 z" stroke-width="1pt" points="256.44 57.228 239.27 44.985 222.08 57.198 228.42 37.089 211.5 24.516 232.58 24.331 239.31 4.3479 246 24.343 267.08 24.565 250.13 37.108"/>
   <path id="path577" d="m455.81 246.95c0 25.234-20.456 45.689-45.689 45.689-25.234 0-45.689-20.456-45.689-45.689 0-25.234 20.456-45.689 45.689-45.689 25.234 0 45.689 20.456 45.689 45.689z" transform="matrix(.95788 0 0 .95788 -150.8 6.7037)" fill="#f00"/>
   <polygon id="polygon586" fill="#ffce00" transform="matrix(1.1378 0 0 1.1378 -29.933 205.08)" d="m 256.43826,57.228493 -17.16617,-12.243548 -17.18785,12.213117 6.33967,-20.10947 -16.9267,-12.572548 21.08431,-0.184787 6.72656,-19.9833795 6.69115,19.9952645 21.08395,0.222141 -16.94895,12.54254 z" stroke-width="1pt" points="256.44 57.228 239.27 44.985 222.08 57.198 228.42 37.089 211.5 24.516 232.58 24.331 239.31 4.3479 246 24.343 267.08 24.565 250.13 37.108"/>
   <g id="g3182" transform="matrix(.93812 0 0 .93812 88.677 -6.8325)">
    <path id="path588" d="m-2.7888 298.95s2.3668-19.607 1.0149-32.791c-1.3529-13.184-35.158-16.903-35.158-16.903l-0.33797 30.763s27.045 21.974 34.481 18.931z" fill="#f00"/>
    <path id="path587" d="m-52.145 221.2s3.2582 17.276-1.3519 51.723c-2.4628 18.703 17.917 31.439 42.933 37.186-5.0706-8.7893-18.592-22.988-15.212-49.018 18.255 2.3658 35.495 37.862 35.495 37.862s13.658-50.331-13.86-58.145c-26.744-7.514-48.004-19.269-48.004-19.607z" fill="#ffce00"/>
   </g>
  </g>
 </g>
</svg>
