<?xml version="1.0" encoding="UTF-8" standalone="no"?>
<!-- Created with Sodipodi ("http://www.sodipodi.com/") -->
<svg id="svg1387" xmlns:rdf="http://www.w3.org/1999/02/22-rdf-syntax-ns#" xmlns="http://www.w3.org/2000/svg" height="480" width="640" version="1.1" xmlns:cc="http://creativecommons.org/ns#" xmlns:dc="http://purl.org/dc/elements/1.1/">
 <metadata id="metadata303">
  <rdf:RDF>
   <cc:Work rdf:about="">
    <dc:format>image/svg+xml</dc:format>
    <dc:type rdf:resource="http://purl.org/dc/dcmitype/StillImage"/>
   </cc:Work>
  </rdf:RDF>
 </metadata>
 <defs id="defs1389">
  <clipPath id="clipPath8171" clipPathUnits="userSpaceOnUse">
   <rect id="rect8173" fill-opacity="0.67" height="512" width="682.67" y="-.000023176" x="-85.241"/>
  </clipPath>
 </defs>
 <g id="flag" clip-path="url(#clipPath8171)" transform="matrix(.93750 0 0 .93750 79.914 .000021728)">
  <rect id="rect848" fill-rule="evenodd" height="510.88" width="1021.8" y="-.000023382" x="-254.55" stroke-width="1pt" fill="#fff"/>
  <path id="path8052" d="m405.2 175.1zm-71.913-62.795-12.743 64.988 88.979-0.90887-9.5575-64.072" fill="#a11011"/>
  <rect id="rect7926" fill-rule="evenodd" height="6.8271" width="27.309" y="77.584" x="276.15" stroke-width="1pt" fill="#a11011"/>
  <rect id="rect7925" fill-rule="evenodd" height="6.8271" width="26.398" y="77.584" x="243.38" stroke-width="1pt" fill="#a11011"/>
  <rect id="rect7924" fill-rule="evenodd" height="6.372" width="26.398" y="77.129" x="209.7" stroke-width="1pt" fill="#a11011"/>
  <path id="path7920" d="m301.84 99.559zm-91.904-16.391v16.749h93.536v-16.391l-93.536-0.358" fill="#a11011"/>
  <path id="path7918" d="m221.33 106.84-10.926 69.082 94.438 0.45819-12.743-69.082m2.9618 66.43z" fill="#a11011"/>
  <rect id="rect3065" fill-rule="evenodd" height="127.46" width="1024.2" y="384.54" x="-256" fill="#d61517"/>
  <rect id="rect7787" fill-rule="evenodd" height="26.356" width="347.88" y="175.2" x="82.674" stroke-width="1pt" fill="#a11011"/>
  <path id="path7415" d="m95.911 198.65-7.3607 131.63-37.822 0.45518v21.157h413.49v-21.157l-37.822 0.45519-7.3573-131.92-323.12-0.62806z" fill="#a11011"/>
  <path id="path1018" fill="#d61517" d="m204.56 234.3v21.755h5.3384v-21.755h-5.3384m8.0076 0v21.755h42.707v-21.755h-42.707m45.377 0v21.755h40.038v-21.755h-40.038m42.707 0v21.755h8.0076v-21.755h-8.0076z"/>
  <path id="path1233" d="m366.97 256.01zm-38.317-21.736v22.21h38.997v-21.736l-38.997-0.47474" fill="#d61517"/>
  <path id="path1236" fill="#d61517" d="m316.67 306.19v23.548h29.361v-23.548h-29.361m32.031 0v14.718h5.3384v-14.718h-5.3384m37.369 0v14.718h5.3384v-14.718h-5.3384m8.0076 0v23.548h29.361v-23.548h-29.361z"/>
  <path id="path1175" fill="#d61517" d="m319.33 282.23v21.3h5.3384v-21.3h-5.3384m8.0076 0v21.3h18.684v-21.3h-18.684z"/>
  <path id="path1180" fill="#d61517" d="m394.07 282.23v21.3h19.135v-21.3h-19.135m21.869 0v21.3h5.4672v-21.3h-5.4672z"/>
  <path id="path961" fill="#d61517" d="m317.91 201.89v5.7801h102.92v-5.7801h-102.92z"/>
  <path id="path1167" d="m101.56 282.68v21.3h18.041v-21.3h-18.041z" fill="#d61517"/>
  <path id="path1171" fill="#d61517" d="m167.19 282.23v22.21h18.684v-22.21h-18.684m21.354 0v22.21h5.3384v-22.21h-5.3384z"/>
  <path id="path7814" fill="#d61517" d="m203.21 202.35v5.325h106.1v-5.325h-106.1z"/>
  <path id="path7815" fill="#d61517" d="m95.343 202.81v5.325h97.002v-5.325h-97.002z"/>
  <path id="path958" d="m313.08 200.53c-10.186 0.75376 1.348 96.039 1.3666 125.75 0 0 12.182-119.51-1.3666-125.75z" fill="#fff"/>
  <path id="path942" fill="#d61517" d="m84.444 184.62v14.61h344.33v-14.61h-344.33z"/>
  <path id="path7819" d="m196.57 200.98c-10.186 0.76739 1.348 97.777 1.3666 128.03 0 0 12.182-121.67-1.3666-128.03z" fill="#fff"/>
  <path id="path7821" d="m90.901 282.68v21.3h8.2162v-21.3h-8.2162z" fill="#d61517"/>
  <path id="path7826" d="m90.693 305.73v24.031h29.361l-0.16015-24.001-29.201-0.03m28.849 23.517z" fill="#d61517"/>
  <path id="path7827" d="m454.7 349.85zm-403.15-18.172v18.569h410.32v-18.172l-410.32-0.39692" fill="#d61517"/>
  <path id="path7828" d="m167.16 306.19v23.226h28.451v-23.203l-28.451-0.0232m27.954 22.73z" fill="#d61517"/>
  <path id="path7829" d="m201.75 305.73v23.548h29.361l-0.16015-23.519-29.201-0.0294m28.849 23.045z" fill="#d61517"/>
  <path id="path7830" d="m279.58 306.19v23.548h32.547l-0.15978-23.519-32.388-0.0294m31.979 23.045z" fill="#d61517"/>
  <path id="path7831" d="m139.48 256.45zm-38.208-22.626v23.121h38.887v-22.626l-38.887-0.4942" fill="#d61517"/>
  <path id="path7832" d="m97.684 256.46zm-3.8057-22.181v22.665h3.8733v-22.181l-3.8733-0.48447" fill="#d61517"/>
  <path id="path7833" d="m183.51 256.9zm-40.476-22.626v23.121h41.195v-22.626l-41.195-0.4942" fill="#d61517"/>
  <path id="path7834" d="m190.97 256.91zm-4.7001-22.181v22.665h4.7836v-22.181l-4.7836-0.48447" fill="#d61517"/>
  <path id="path7835" d="m346.23 279.7zm-27.06-20.845v21.3h27.541v-20.845l-27.541-0.45529" fill="#d61517"/>
  <path id="path7836" d="m420.87 279.26zm-27.507-19.954v20.39h27.996v-19.954l-27.996-0.43583" fill="#d61517"/>
  <path id="path7837" d="m390.15 279.71zm-39.92-20.399v20.845h40.629v-20.399l-40.629-0.44556" fill="#d61517"/>
  <path id="path7838" d="m315.23 183.92zm-4.7002-9.264v9.4663h4.7836v-9.264l-4.7836-0.20234" fill="#fff"/>
  <path id="path7839" d="m325.23 255.57zm-5.1474-21.29v21.755h5.2388v-21.29l-5.2388-0.46502" fill="#d61517"/>
  <path id="path7840" d="m408.49 256.02zm-37.052-21.29v21.755h37.71v-21.29l-37.71-0.46502" fill="#d61517"/>
  <path id="path7841" d="m419.86 256.02zm-7.3833-21.29v21.755h7.5145v-21.29l-7.5145-0.46502" fill="#d61517"/>
  <path id="path7842" d="m343.11 231.89zm-23.482-21.736v22.21h23.9v-21.736l-23.9-0.47475" fill="#d61517"/>
  <path id="path7843" d="m389.21 231.9zm-41.894-21.29v21.755h42.639v-21.29l-42.639-0.46502" fill="#d61517"/>
  <path id="path7844" d="m417.72 231.89zm-25.271-21.736v22.21h25.72v-21.736l-25.72-0.47475" fill="#d61517"/>
  <path id="path7845" d="m201.75 281.15v21.755h12.066v-21.611l-12.066-0.14412m11.855 21.29z" fill="#d61517"/>
  <path id="path7846" d="m216.31 281.61v21.755h14.93v-21.611l-14.93-0.14412m14.669 21.29z" fill="#d61517"/>
  <path id="path7847" d="m279.58 282.07v21.755h19.348v-21.774l-19.348 0.019m19.011 21.29z" fill="#d61517"/>
  <path id="path7848" d="m311.04 303.36zm-9.6193-21.29v21.755h9.7902v-21.29l-9.7902-0.46501" fill="#d61517"/>
  <path id="path7849" fill="#d61517" d="m92.612 201.44v4.4147h102.92v-4.4147h-102.92z"/>
  <path id="path7850" fill="#d61517" d="m198.2 201.44v4.4147h113.84v-4.4147h-113.84z"/>
  <path id="path7852" fill="#d61517" d="m314.64 200.98v4.4147h108.91v-4.4147h-108.91z"/>
  <path id="path7853" d="m119.12 280.14zm-27.06-21.29v21.755h27.541v-21.29l-27.541-0.46502" fill="#d61517"/>
  <path id="path7854" d="m192.44 280.14zm-24.824-21.29v21.755h25.265v-21.29l-25.265-0.46502" fill="#d61517"/>
  <path id="path7855" d="m122.93 259.31v21.755h42.183l0.16106-21.611-42.344-0.14413m41.447 21.29z" fill="#d61517"/>
  <path id="path7856" d="m203.57 257.94v21.755h27.996l0.16034-21.611-28.156-0.14413m27.507 21.29z" fill="#d61517"/>
  <path id="path7857" d="m276.77 279.23zm-43.159-21.29v21.755h43.926l-0.15973-21.451-43.766-0.30457" fill="#d61517"/>
  <path id="path7858" d="m280.03 258.4v21.755h28.451l0.16036-21.774-28.611 0.019m27.954 21.29z" fill="#d61517"/>
  <path id="path7859" d="m232.42 230.99zm-28.402-21.29v21.755h28.906v-21.29l-28.906-0.46502" fill="#d61517"/>
  <path id="path7860" d="m277.76 231.43zm-42.789-21.736v22.21h43.549v-21.736l-43.549-0.47475" fill="#d61517"/>
  <path id="path7861" d="m306.67 231.43zm-25.271-21.736v22.21h25.72v-21.736l-25.72-0.47475" fill="#d61517"/>
  <path id="path7862" d="m186.73 182.38zm-73.73-62.795-10.926 64.988 88.979-0.90887-10.014-65.439" fill="#a11011"/>
  <path id="path714" fill="#d61517" d="m220.62 123.84-2.718 10.65h38.052v-10.65h-35.334m38.052 0v10.65h35.334v-10.65h-35.334z"/>
  <path id="path756" fill="#d61517" d="m217.9 137.15v10.65h13.503v-10.65h-13.503m16.204 0v10.65h43.21v-10.65h-43.21m45.91 0v10.65h16.204v-10.65h-16.204z"/>
  <path id="path658" fill="#d61517" d="m223.3 110.53-2.7217 10.65h10.887v-10.65h-8.1652m10.887 0v10.65h43.548v-10.65h-43.548m46.269 0v10.65h10.887v-10.65h-10.887z"/>
  <path id="path579" fill="#d61517" d="m209.9 86.565v5.325h45.832v-5.325h-45.832m48.528 0v5.325h43.136v-5.325h-43.136z"/>
  <path id="path600" fill="#d61517" d="m209.9 94.553v5.325h21.354v-5.325h-21.354m24.023 0v5.325h42.707v-5.325h-42.707m45.377 0v5.325h21.354v-5.325h-21.354z"/>
  <path id="path561" fill="#d61517" d="m244.6 78.578v5.325h24.023v-5.325h-24.023z"/>
  <path id="path912" fill="#d61517" d="m84.444 177.09v5.325h21.354v-5.325h-21.354z"/>
  <path id="path927" fill="#d61517" d="m407.42 177.09v5.325h21.354v-5.325h-21.354z"/>
  <path id="path7890" d="m127.43 182.66zm-20.352-4.3644v4.4598h20.714v-4.3644l-20.714-0.0953" fill="#d61517"/>
  <path id="path7892" d="m172.99 183.13zm-17.669-3.7345v3.8161h17.983v-3.7345l-17.983-0.0816" fill="#d61517"/>
  <path id="path7893" d="m203.25 184.34zm-5.1473-10.6v10.832h5.2387v-10.6l-5.2387-0.23153" fill="#fff"/>
  <path id="path7894" d="m124.29 176.09zm-17.669-13.088v13.374h17.983v-13.088l-17.983-0.28587" fill="#d61517"/>
  <path id="path7895" d="m134.91 176.1zm-9.1721-12.643v12.919h9.3351v-12.643l-9.3351-0.27615" fill="#d61517"/>
  <path id="path7898" d="m187.13 177.42zm-15.88-14.87v15.195h16.162v-14.87l-16.162-0.32479" fill="#d61517"/>
  <path id="path7899" d="m168.16 176.18zm-12.379-12.98v13.264h12.599v-12.98l-12.599-0.28352" fill="#d61517"/>
  <path id="path7921" d="m192.98 181.7zm-19.905-6.5915v6.7355h20.258v-6.5915l-20.258-0.14397" fill="#a11011"/>
  <path id="path7919" d="m295.06 173.73zm-74.187-66.43-11.383-7.3836h93.534l-10.47 8.2925" fill="#a11011"/>
  <path id="path7922" fill="#d61517" d="m210.92 78.578v5.325h24.023v-5.325h-24.023z"/>
  <path id="path7923" fill="#d61517" d="m276.91 79.033v5.325h25.388v-5.325h-25.388z"/>
  <g id="g7933" fill="#d61517" transform="matrix(1.0299 0 0 1.0299 -145.31 -9.1034)">
   <path id="path7934" d="m139.81 122.83zm-10.81-7.83v8h11v-7.829l-11-0.17" transform="matrix(6.0068 0 0 .20985 -418.88 88.002)"/>
   <path id="path7935" d="m139.81 122.83zm-10.81-7.83v8h11v-7.829l-11-0.17" transform="matrix(6.6496 0 0 .20985 -505.34 87.118)"/>
   <path id="path7936" d="m139.81 122.83zm-10.81-7.83v8h11v-7.829l-11-0.17" transform="matrix(6.971 0 0 .20985 -547.25 85.792)"/>
   <path id="path7937" d="m139.81 122.83zm-10.81-7.83v8h11v-7.829l-11-0.17" transform="matrix(6.971 0 0 .20985 -547.25 85.792)"/>
   <path id="path7938" d="m139.81 122.83zm-10.81-7.83v8h11v-7.829l-11-0.17" transform="matrix(7.2523 0 0 .20985 -584.41 84.024)"/>
  </g>
  <path id="path7958" d="m243.12 182.68zm-15.88-3.4737v3.5495h16.162v-3.4737l-16.162-0.0759" fill="#d61517"/>
  <path id="path7959" d="m283.21 182.68zm-13.644-3.4737v3.5495h13.887v-3.4737l-13.887-0.0759" fill="#d61517"/>
  <path id="path7960" d="m117.39 231.88zm-21.694-22.181v22.665h22.079v-22.181l-22.079-0.48447" fill="#d61517"/>
  <path id="path7961" d="m242.86 177.45zm-30.19-13.718v14.018h30.727v-13.718l-30.727-0.29963" fill="#d61517"/>
  <path id="path7962" d="m302.57 177.45zm-25.61-13.718v14.018h26.065v-13.718l-26.065-0.29963" fill="#d61517"/>
  <path id="path7963" d="m273.31 177.45zm-7.3833-13.718v14.018h7.5145v-13.718l-7.5145-0.29963" fill="#d61517"/>
  <path id="path7964" d="m226.71 182.14zm-16.774-7.0369v7.1906h17.072v-7.0369l-17.072-0.1537" fill="#a11011"/>
  <path id="path917" fill="#d61517" d="m175.2 177.09v5.7802h21.354v-5.7802h-21.354m29.361 0v5.7802h21.354v-5.7802h-21.354z"/>
  <path id="path7965" d="m304.02 182.15zm-20.352-6.5915v6.7355h20.714v-6.5915l-20.714-0.14397" fill="#a11011"/>
  <path id="path7966" d="m165.23 231.89zm-44.578-21.736v22.21h45.369v-21.736l-45.369-0.47475" fill="#d61517"/>
  <path id="path7967" d="m191.1 231.89zm-23.035-21.736v22.21h23.444v-21.736l-23.444-0.47475" fill="#d61517"/>
  <path id="path7968" d="m254.98 161.56zm-40.029-11.936v12.197h40.74v-11.936l-40.74-0.26072" fill="#d61517"/>
  <path id="path7969" d="m298.21 162.01zm-40.029-11.936v12.197h40.74v-11.936l-40.74-0.26072" fill="#d61517"/>
  <rect id="rect7889" fill-rule="evenodd" height="6.8271" width="23.667" y="88.962" x="168.74" stroke-width="1pt" fill="#a11011"/>
  <rect id="rect7888" fill-rule="evenodd" height="7.7375" width="26.398" y="88.507" x="134.15" stroke-width="1pt" fill="#a11011"/>
  <rect id="rect7887" fill-rule="evenodd" height="6.8271" width="20.937" y="88.962" x="105.02" stroke-width="1pt" fill="#a11011"/>
  <path id="path7885" d="m189.57 109.24zm-76.616 10.801-8.1465-11.473 87.617 0.45523-10.497 9.5761" fill="#a11011"/>
  <path id="path624" fill="#d61517" d="m105.8 102.54v5.325h18.684v-5.325h-18.684m21.354 0v5.325h42.707v-5.325h-42.707m45.377 0v5.325h18.684v-5.325h-18.684z"/>
  <path id="path586" fill="#d61517" d="m105.8 90.138v4.6813h18.684v-4.6813h-18.684m29.361 0v4.6813h24.023v-4.6813h-24.023z"/>
  <path id="path588" fill="#d61517" d="m169.86 90.593v4.0377h21.354v-4.0377h-21.354z"/>
  <rect id="rect7886" fill-rule="evenodd" height="13.654" width="87.387" y="95.79" x="105.02" stroke-width="1pt" fill="#a11011"/>
  <path id="path7896" d="m142.29 160.22zm-33.845-10.416v10.643h34.446v-10.416l-34.446-0.2275" fill="#d61517"/>
  <path id="path7897" d="m184.89 160.22zm-39.788-10.416v10.643h40.495v-10.416l-40.495-0.2275" fill="#d61517"/>
  <path id="path7900" d="m146.64 101.2zm-40.476-3.919v4.0046h41.195v-3.919l-41.195-0.0856" fill="#d61517"/>
  <path id="path7901" d="m124.8 147.01zm-14.539-11.046v11.287h14.797v-11.046l-14.797-0.24125" fill="#d61517"/>
  <path id="path7902" d="m167.22 147.04zm-39.288-9.7859v9.9996h39.986v-9.7859l-39.986-0.21374" fill="#d61517"/>
  <path id="path7903" d="m183.55 147.47zm-12.75-11.046v11.287h12.976v-11.046l-12.976-0.24126" fill="#d61517"/>
  <path id="path7904" d="m145.03 134.75zm-32.95-9.7859v9.9996h33.536v-9.7859l-33.536-0.21374" fill="#d61517"/>
  <path id="path7905" d="m181.82 134.75zm-33.321-9.7859v9.9996h33.913v-9.7859l-33.913-0.21374" fill="#d61517"/>
  <path id="path7906" d="m171.53 122.59zm-48.973-3.9191v4.0047h49.843v-3.9191l-49.843-0.0856" fill="#d61517"/>
  <path id="path7907" d="m180.46 122.59zm-6.9362-3.9191v4.0047h7.0594v-3.9191l-7.0594-0.0856" fill="#d61517"/>
  <path id="path7908" d="m120.82 122.59zm-7.8306-3.9191v4.0047h7.9697v-3.9191l-7.9697-0.0856" fill="#d61517"/>
  <path id="path7914" d="m190.79 101.2zm-40.553-3.919v4.0046h41.273v-3.919l-41.273-0.0856" fill="#d61517"/>
  <path id="path7915" d="m126.53 109.81zm-19.905-5.5926v5.7148h20.258v-5.5926l-20.258-0.12216" fill="#d61517"/>
  <path id="path7916" d="m166.76 109.17zm-35.263-5.1472v5.2596h35.89v-5.1472l-35.89-0.11242" fill="#d61517"/>
  <path id="path7917" d="m190.7 109.18zm-19.796-4.9627v5.0711h20.148v-4.9627l-20.148-0.1084" fill="#d61517"/>
  <g id="g7927" fill="#d61517" transform="matrix(1.0299 0 0 .91607 -254.55 12.308)">
   <path id="path7909" d="m139.81 122.83zm-10.81-7.83v8h11v-7.829l-11-0.17" transform="matrix(6.0068 0 0 .20985 -418.88 88.002)"/>
   <path id="path7910" d="m139.81 122.83zm-10.81-7.83v8h11v-7.829l-11-0.17" transform="matrix(6.6496 0 0 .20985 -505.34 87.118)"/>
   <path id="path7911" d="m139.81 122.83zm-10.81-7.83v8h11v-7.829l-11-0.17" transform="matrix(6.971 0 0 .20985 -547.25 85.792)"/>
   <path id="path7912" d="m139.81 122.83zm-10.81-7.83v8h11v-7.829l-11-0.17" transform="matrix(6.971 0 0 .20985 -547.25 85.792)"/>
   <path id="path7913" d="m139.81 122.83zm-10.81-7.83v8h11v-7.829l-11-0.17" transform="matrix(7.2523 0 0 .20985 -584.41 84.024)"/>
  </g>
  <path id="path8053" d="m354.19 182.67zm-14.986-3.919v4.0046h15.252v-3.919l-15.252-0.0856" fill="#d61517"/>
  <path id="path8054" d="m404.57 182.21zm-22.588-3.919v4.0046h22.99v-3.919l-22.99-0.0856" fill="#d61517"/>
  <path id="path8055" d="m406.89 176.57zm-20.167-12.305v12.574h20.525v-12.305l-20.525-0.26877" fill="#d61517"/>
  <path id="path8056" d="m383.89 176.56zm-8.243-12.751v13.029h8.3894v-12.751l-8.3894-0.2785" fill="#d61517"/>
  <path id="path8057" d="m340.5 176.99zm-16.775-13.642v13.94h17.073v-13.642l-17.073-0.29796" fill="#d61517"/>
  <path id="path8058" d="m354.26 176.99zm-10.591-13.826v14.128h10.779v-13.826l-10.779-0.30199" fill="#d61517"/>
  <path id="path8059" d="m338.66 183.03zm-17.669-7.9277v8.1009h17.983v-7.9277l-17.983-0.17315" fill="#a11011"/>
  <path id="path922" fill="#d61517" d="m285.54 177.09v5.7802h23.613v-5.7802h-23.613m31.484 0v5.7802h20.99v-5.7802h-20.99z"/>
  <path id="path8060" d="m298.25 162.01zm-38.132-11.936v12.197h38.809v-11.936l-38.809-0.26072" fill="#d61517"/>
  <rect id="rect8007" fill-rule="evenodd" height="6.8271" width="23.667" y="88.852" x="387.66" stroke-width="1pt" fill="#a11011"/>
  <rect id="rect8008" fill-rule="evenodd" height="7.7375" width="26.398" y="88.397" x="353.07" stroke-width="1pt" fill="#a11011"/>
  <rect id="rect8009" fill-rule="evenodd" height="6.8271" width="20.937" y="88.852" x="323.94" stroke-width="1pt" fill="#a11011"/>
  <path id="path8010" d="m408.49 109.13zm-76.616 10.801-8.1465-11.473 87.617 0.45523-10.497 9.5761" fill="#a11011"/>
  <path id="path8011" fill="#d61517" d="m324.72 102.43v5.325h18.684v-5.325h-18.684m21.354 0v5.325h42.707v-5.325h-42.707m45.377 0v5.325h18.684v-5.325h-18.684z"/>
  <path id="path8012" fill="#d61517" d="m324.72 90.027v4.0377h18.684v-4.0377h-18.684m29.361 0v4.0377h24.023v-4.0377h-24.023z"/>
  <path id="path8013" fill="#d61517" d="m388.78 90.483v3.394h21.354v-3.394h-21.354z"/>
  <rect id="rect8014" fill-rule="evenodd" height="13.654" width="87.387" y="95.679" x="323.94" stroke-width="1pt" fill="#a11011"/>
  <path id="path8015" d="m361.83 160.1zm-35.372-11.046v11.287h36v-11.046l-36-0.24126" fill="#d61517"/>
  <path id="path8016" d="m403.84 160.1zm-38.055-11.046v11.287h38.731v-11.046l-38.731-0.24126" fill="#d61517"/>
  <path id="path8017" d="m363.04 101.09zm-37.946-3.919v4.0046h38.62v-3.919l-38.62-0.0856" fill="#d61517"/>
  <path id="path8018" d="m343.73 146.9zm-14.539-11.046v11.287h14.797v-11.046l-14.797-0.24126" fill="#d61517"/>
  <path id="path8019" d="m386.16 146.9zm-38.655-11.046v11.287h39.342v-11.046l-39.342-0.24126" fill="#d61517"/>
  <path id="path8020" d="m402.47 147.35zm-12.75-11.046v11.287h12.976v-11.046l-12.976-0.24126" fill="#d61517"/>
  <path id="path8021" d="m364.59 133.39zm-33.583-7.8961v8.0686h34.179v-7.8961l-34.179-0.17246" fill="#d61517"/>
  <path id="path8022" d="m400.75 133.39zm-32.688-7.8961v8.0686h33.269v-7.8961l-33.269-0.17246" fill="#d61517"/>
  <path id="path8023" d="m390.45 122.48zm-48.973-3.9191v4.0047h49.843v-3.9191l-49.843-0.0856" fill="#d61517"/>
  <path id="path8024" d="m399.39 122.48zm-6.9362-3.9191v4.0047h7.0594v-3.9191l-7.0594-0.0856" fill="#d61517"/>
  <path id="path8025" d="m339.75 122.48zm-7.8306-3.9191v4.0047h7.9697v-3.9191l-7.9697-0.0856" fill="#d61517"/>
  <path id="path8026" d="m409.69 101.09zm-41.818-3.919v4.0046h42.56v-3.919l-42.56-0.0856" fill="#d61517"/>
  <path id="path8027" d="m344.19 108.4zm-18.64-6.2226v6.3585h18.971v-6.2226l-18.971-0.13591" fill="#d61517"/>
  <path id="path8028" d="m384.38 108.41zm-36.528-5.7771v5.9033h37.177v-5.7771l-37.177-0.12618" fill="#d61517"/>
  <path id="path8029" d="m409.59 108.41zm-21.694-5.5926v5.7148h22.079v-5.5926l-22.079-0.12216" fill="#d61517"/>
  <g id="g8030" fill="#d61517" transform="matrix(1.0299 0 0 .91607 -35.622 12.197)">
   <path id="path8031" d="m139.81 122.83zm-10.81-7.83v8h11v-7.829l-11-0.17" transform="matrix(6.0068 0 0 .20985 -418.88 88.002)"/>
   <path id="path8032" d="m139.81 122.83zm-10.81-7.83v8h11v-7.829l-11-0.17" transform="matrix(6.6496 0 0 .20985 -505.34 87.118)"/>
   <path id="path8033" d="m139.81 122.83zm-10.81-7.83v8h11v-7.829l-11-0.17" transform="matrix(6.971 0 0 .20985 -547.25 85.792)"/>
   <path id="path8034" d="m139.81 122.83zm-10.81-7.83v8h11v-7.829l-11-0.17" transform="matrix(6.971 0 0 .20985 -547.25 85.792)"/>
   <path id="path8035" d="m139.81 122.83zm-10.81-7.83v8h11v-7.829l-11-0.17" transform="matrix(7.2523 0 0 .20985 -584.41 84.024)"/>
  </g>
  <g id="g8036" fill="#d61517" transform="matrix(1.0299 0 0 .23327 -35.622 88.621)">
   <path id="path8037" d="m139.81 122.83zm-10.81-7.83v8h11v-7.829l-11-0.17" transform="matrix(6.0068 0 0 .20985 -418.88 88.002)"/>
   <path id="path8038" d="m139.81 122.83zm-10.81-7.83v8h11v-7.829l-11-0.17" transform="matrix(6.6496 0 0 .20985 -505.34 87.118)"/>
   <path id="path8039" d="m139.81 122.83zm-10.81-7.83v8h11v-7.829l-11-0.17" transform="matrix(6.971 0 0 .20985 -547.25 85.792)"/>
   <path id="path8040" d="m139.81 122.83zm-10.81-7.83v8h11v-7.829l-11-0.17" transform="matrix(6.971 0 0 .20985 -547.25 85.792)"/>
   <path id="path8041" d="m139.81 122.83zm-10.81-7.83v8h11v-7.829l-11-0.17" transform="matrix(7.2523 0 0 .20985 -584.41 84.024)"/>
  </g>
  <rect id="rect9122" fill-rule="evenodd" height="28.965" width="19.954" y="462.6" x="232.07" stroke-width="1pt" fill="#808080"/>
  <rect id="rect9123" fill-rule="evenodd" height="25.103" width="17.379" y="464.54" x="234.64" stroke-width="1pt" fill="#ffc500"/>
  <rect id="rect9127" fill-rule="evenodd" height="17.379" width="11.586" y="469.68" x="237.86" stroke-width="1pt" fill="#808080"/>
  <rect id="rect9126" fill-rule="evenodd" height="13.517" width="7.0803" y="471.62" x="240.44" stroke-width="1pt" fill="#d61517"/>
  <g id="g9128" fill-rule="evenodd" stroke-width="1pt" transform="matrix(1.0299 0 0 1.0299 -257.76 -50.207)">
   <rect id="rect9125" height="8.75" width="7.5" y="509.19" x="475" fill="#808080"/>
   <rect id="rect9124" height="5.0001" width="8.125" y="511.06" x="475" fill="#d61517"/>
  </g>
  <g id="g752" fill-rule="evenodd" stroke-width="1pt" transform="matrix(1.0299 0 0 1.0299 -397.6 -225.98)">
   <rect id="rect747" transform="matrix(-1 0 0 -1 1128.6 1194.5)" height="73.125" width="9.375" y="486.69" x="488.75" fill="#808080"/>
   <rect id="rect748" transform="matrix(-1 0 0 -1 1128.6 1194.5)" height="69.375" width="5.625" y="488.56" x="490.63" fill="#ffc500"/>
  </g>
  <rect id="rect761" fill-rule="evenodd" transform="matrix(-.72619 .68749 -.72619 -.68749 0 0)" height="34.697" width="6.4603" y="-491.28" x="101.42" stroke-width="1pt" fill="#808080"/>
  <rect id="rect771" fill-rule="evenodd" transform="matrix(-.67437 -.73839 .67437 -.73839 0 0)" height="32.527" width="6.5743" y="-99.08" x="-486.13" stroke-width="1pt" fill="#808080"/>
  <rect id="rect758" fill-rule="evenodd" transform="matrix(.72178 -.69212 .72178 .69212 0 0)" height="33.052" width="5.3118" y="456.76" x="-104.4" stroke-width="1pt" fill="#ffc500"/>
  <rect id="rect766" fill-rule="evenodd" transform="matrix(-.67050 -.74191 .67050 -.74191 0 0)" height="32.948" width="5.2951" y="-97.62" x="-484.94" stroke-width="1pt" fill="#ffc500"/>
  <rect id="rect768" fill-rule="evenodd" transform="matrix(.71324 -.70092 .71324 .70092 0 0)" height="30.755" width="6.2161" y="454.71" x="-131.02" stroke-width="1pt" fill="#808080"/>
  <rect id="rect769" fill-rule="evenodd" transform="matrix(.71771 .69634 -.71771 .69634 0 0)" height="35.909" width="6.6859" y="98.053" x="453.17" stroke-width="1pt" fill="#808080"/>
  <rect id="rect762" fill-rule="evenodd" transform="rotate(225)" height="32.906" width="5.2884" y="-124.58" x="-457.36" stroke-width="1pt" fill="#ffc500"/>
  <rect id="rect9112" fill-rule="evenodd" height="62.156" width="5.1493" y="336.22" x="254.14" stroke-width="1pt" fill="#808080"/>
  <rect id="rect9113" fill-rule="evenodd" height="60.114" width="3.5402" y="337.05" x="255.01" stroke-width="1pt" fill="#ffc500"/>
  <rect id="rect765" fill-rule="evenodd" transform="rotate(-45)" height="35.125" width="5.6449" y="452.12" x="-126.24" stroke-width="1pt" fill="#ffc500"/>
  <g id="g813" fill-rule="evenodd" transform="matrix(1.3111 0 0 1.0558 -279.63 -7.6723)" stroke-width="1pt" fill="#a11011">
   <rect id="rect814" height="44.301" width="34.57" y="275.98" x="477.98"/>
   <rect id="rect815" ry="18.298" height="36.596" width="34.311" y="258.3" x="478.13"/>
  </g>
  <g id="g810" fill-rule="evenodd" transform="matrix(1.2413 0 0 1.0195 -244.64 3.9693)" stroke-width="1pt" fill="#d61517">
   <rect id="rect811" height="44.301" width="34.57" y="275.98" x="477.98"/>
   <rect id="rect812" ry="18.298" height="36.596" width="34.311" y="258.3" x="478.13"/>
  </g>
  <g id="g807" fill-rule="evenodd" transform="matrix(.92478 0 0 .95717 -87.879 23.926)" stroke-width="1pt" fill="#a11011">
   <rect id="rect808" height="44.301" width="34.57" y="275.98" x="477.98"/>
   <rect id="rect809" ry="18.298" height="36.596" width="34.311" y="258.3" x="478.13"/>
  </g>
  <rect id="rect793" fill-rule="evenodd" height="40.449" width="28.039" y="289.23" x="355.98" stroke-width="1pt" fill="#d61517"/>
  <rect id="rect794" fill-rule="evenodd" ry="16.707" height="33.414" width="27.829" y="273.09" x="356.11" stroke-width="1pt" fill="#d61517"/>
  <g id="g984" fill-rule="evenodd" transform="matrix(1.3484 0 0 1.0558 -412.97 -8.7173)" stroke-width="1pt" fill="#a11011">
   <rect id="rect985" height="44.301" width="34.57" y="275.98" x="477.98"/>
   <rect id="rect986" ry="18.298" height="36.596" width="34.311" y="258.3" x="478.13"/>
  </g>
  <g id="g987" fill-rule="evenodd" transform="matrix(1.2766 0 0 1.0195 -376.99 2.9243)" stroke-width="1pt" fill="#d61517">
   <rect id="rect988" height="44.301" width="34.57" y="275.98" x="477.98"/>
   <rect id="rect989" ry="18.298" height="36.596" width="34.311" y="258.3" x="478.13"/>
  </g>
  <g id="g990" fill-rule="evenodd" transform="matrix(.95104 0 0 .95717 -215.77 22.881)" stroke-width="1pt" fill="#a11011">
   <rect id="rect991" height="44.301" width="34.57" y="275.98" x="477.98"/>
   <rect id="rect992" ry="18.298" height="36.596" width="34.311" y="258.3" x="478.13"/>
  </g>
  <g id="g993" fill-rule="evenodd" transform="matrix(.83413 0 0 .91304 -158 36.213)" stroke-width="1pt" fill="#d61517">
   <rect id="rect994" height="44.301" width="34.57" y="275.98" x="477.98"/>
   <rect id="rect995" ry="18.298" height="36.596" width="34.311" y="258.3" x="478.13"/>
  </g>
  <g id="g997" fill-rule="evenodd" transform="matrix(1.3298 0 0 1.0558 -515.42 -8.5564)" stroke-width="1pt" fill="#a11011">
   <rect id="rect998" height="44.301" width="34.57" y="275.98" x="477.98"/>
   <rect id="rect999" ry="18.298" height="36.596" width="34.311" y="258.3" x="478.13"/>
  </g>
  <g id="g1000" fill-rule="evenodd" transform="matrix(1.2589 0 0 1.0195 -479.94 3.0852)" stroke-width="1pt" fill="#d61517">
   <rect id="rect1001" height="44.301" width="34.57" y="275.98" x="477.98"/>
   <rect id="rect1002" ry="18.298" height="36.596" width="34.311" y="258.3" x="478.13"/>
  </g>
  <g id="g1003" fill-rule="evenodd" transform="matrix(.93791 0 0 .95717 -320.95 23.042)" stroke-width="1pt" fill="#a11011">
   <rect id="rect1004" height="44.301" width="34.57" y="275.98" x="477.98"/>
   <rect id="rect1005" ry="18.298" height="36.596" width="34.311" y="258.3" x="478.13"/>
  </g>
  <g id="g1006" fill-rule="evenodd" transform="matrix(.82261 0 0 .91304 -263.97 36.374)" stroke-width="1pt" fill="#d61517">
   <rect id="rect1007" height="44.301" width="34.57" y="275.98" x="477.98"/>
   <rect id="rect1008" ry="18.298" height="36.596" width="34.311" y="258.3" x="478.13"/>
  </g>
  <path id="path1009" d="m233.03 322.27v2.3118h6.2939v-2.3118h-6.2939z" fill="#a11011"/>
  <path id="path1010" d="m121.19 320.66v2.3118h6.2939v-2.3118h-6.2939z" fill="#a11011"/>
  <path id="path1011" d="m121.19 303.44v2.3118h6.2939v-2.3118h-6.2939z" fill="#a11011"/>
  <path id="path1012" d="m121.35 287.19v2.3118h6.2939v-2.3118h-6.2939z" fill="#a11011"/>
  <path id="path1013" d="m159.65 321.3v2.3118h6.2939v-2.3118h-6.2939z" fill="#a11011"/>
  <path id="path1014" d="m159.49 303.92v2.3118h6.2939v-2.3118h-6.2939z" fill="#a11011"/>
  <path id="path1015" d="m159.01 287.51v2.3118h6.2939v-2.3118h-6.2939z" fill="#a11011"/>
  <path id="path1016" d="m242.09 278.03 1.6347-1.6347-4.4504-4.4504-1.6347 1.6347 4.4504 4.4504z" fill="#a11011"/>
  <path id="path1017" d="m271.16 322.11v2.3118h6.2939v-2.3118h-6.2939z" fill="#a11011"/>
  <path id="path1019" d="m233.19 303.6v2.3118h6.2939v-2.3118h-6.2939z" fill="#a11011"/>
  <path id="path1020" d="m232.71 287.03v2.3118h6.2939v-2.3118h-6.2939z" fill="#a11011"/>
  <path id="path1021" d="m271.16 303.92v2.3118h6.2939v-2.3118h-6.2939z" fill="#a11011"/>
  <path id="path1022" d="m271.49 286.22v2.3118h6.2939v-2.3118h-6.2939z" fill="#a11011"/>
  <path id="path1023" d="m348.24 322.91v2.3118h6.2939v-2.3118h-6.2939z" fill="#a11011"/>
  <path id="path1024" d="m348.24 303.6v2.3118h6.2939v-2.3118h-6.2939z" fill="#a11011"/>
  <path id="path1025" d="m348.4 285.26v2.3118h6.2939v-2.3118h-6.2939z" fill="#a11011"/>
  <path id="path1026" d="m385.58 323.07v2.3118h6.2939v-2.3118h-6.2939z" fill="#a11011"/>
  <path id="path1027" d="m385.42 303.76v2.3118h6.2939v-2.3118h-6.2939z" fill="#a11011"/>
  <path id="path1028" d="m385.58 285.9v2.3118h6.2939v-2.3118h-6.2939z" fill="#a11011"/>
  <g id="g1065" fill-rule="evenodd" transform="matrix(.55913 0 0 .46281 88.214 34.398)" stroke-width="1pt" fill="#a11011">
   <rect id="rect1066" height="44.301" width="34.57" y="275.98" x="477.98"/>
   <rect id="rect1067" ry="18.298" height="36.596" width="34.311" y="258.3" x="478.13"/>
  </g>
  <g id="g1068" fill-rule="evenodd" transform="matrix(.52936 0 0 .44688 103.13 39.501)" stroke-width="1pt" fill="#d61517">
   <rect id="rect1069" height="44.301" width="34.57" y="275.98" x="477.98"/>
   <rect id="rect1070" ry="18.298" height="36.596" width="34.311" y="258.3" x="478.13"/>
  </g>
  <g id="g1071" fill-rule="evenodd" transform="matrix(.39437 0 0 .41957 169.98 48.249)" stroke-width="1pt" fill="#a11011">
   <rect id="rect1072" height="44.301" width="34.57" y="275.98" x="477.98"/>
   <rect id="rect1073" ry="18.298" height="36.596" width="34.311" y="258.3" x="478.13"/>
  </g>
  <g id="g792" fill-rule="evenodd" transform="matrix(.34589 0 0 .40022 193.94 54.093)" stroke-width="1pt" fill="#d61517">
   <rect id="rect1075" height="44.301" width="34.57" y="275.98" x="477.98"/>
   <rect id="rect1076" ry="18.298" height="36.596" width="34.311" y="258.3" x="478.13"/>
  </g>
  <path id="path1029" d="m371.21 265.24h-2.3118v6.2939h2.3118v-6.2939z" fill="#a11011"/>
  <path id="path1030" d="m273.33 274.06-1.6347-1.6347-4.4504 4.4504 1.6347 1.6347 4.4504-4.4504z" fill="#a11011"/>
  <path id="path1031" d="m386.46 273.9-1.6347-1.6347-4.4504 4.4504 1.6347 1.6347 4.4504-4.4504z" fill="#a11011"/>
  <path id="path1032" d="m358.27 278.19 1.6347-1.6347-4.4504-4.4504-1.6347 1.6347 4.4504 4.4504z" fill="#a11011"/>
  <path id="path1033" d="m129.37 270.66-1.6347 1.6347 4.4504 4.4504 1.6347-1.6347-4.4504-4.4504z" fill="#a11011"/>
  <path id="path1034" d="m256.48 264.76h-2.3118v6.2939h2.3118v-6.2939z" fill="#a11011"/>
  <path id="path1035" d="m142.33 272.02h2.3118v-6.2939h-2.3118v6.2939z" fill="#a11011"/>
  <path id="path1036" d="m154.77 276.23 1.6347 1.6347 4.4504-4.4504-1.6347-1.6347-4.4504 4.4504z" fill="#a11011"/>
  <path id="path1128" d="m358.63 175.86v7.006h22.902v-7.006h-22.902z" fill="#a11011"/>
  <path id="path925" fill="#d61517" d="m359.37 177.09v5.325h21.354v-5.325h-21.354z"/>
  <g id="g1101" fill-rule="evenodd" stroke-width="1pt" transform="matrix(1.0299 0 0 1.0299 -357.65 -111.23)">
   <g id="g1115" transform="matrix(.61374 0 0 .46256 290.81 137.49)" fill="#a11011">
    <rect id="rect1116" height="44.301" width="34.57" y="275.98" x="477.98"/>
    <rect id="rect1117" ry="18.298" height="36.596" width="34.311" y="258.3" x="478.13"/>
   </g>
   <g id="g1118" transform="matrix(.58106 0 0 .44663 307.18 142.59)" fill="#d61517">
    <rect id="rect1119" height="44.301" width="34.57" y="275.98" x="477.98"/>
    <rect id="rect1120" ry="18.298" height="36.596" width="34.311" y="258.3" x="478.13"/>
   </g>
   <g id="g1121" transform="matrix(.43289 0 0 .41934 380.56 151.34)" fill="#a11011">
    <rect id="rect1122" height="44.301" width="34.57" y="275.98" x="477.98"/>
    <rect id="rect1123" ry="18.298" height="36.596" width="34.311" y="258.3" x="478.13"/>
   </g>
   <g id="g1124" transform="matrix(.37967 0 0 0.4 406.86 157.18)" fill="#d61517">
    <rect id="rect1125" height="44.301" width="34.57" y="275.98" x="477.98"/>
    <rect id="rect1126" ry="18.298" height="36.596" width="34.311" y="258.3" x="478.13"/>
   </g>
  </g>
  <path id="path1127" d="m244.32 176.14v7.006h25.424v-7.006h-25.424z" fill="#a11011"/>
  <path id="path919" fill="#d61517" d="m244.6 177.55v5.325h24.023v-5.325h-24.023z"/>
  <g id="g1129" fill-rule="evenodd" stroke-width="1pt" transform="matrix(1.0299 0 0 1.0299 -469.44 -111.23)">
   <g id="g1130" transform="matrix(.61374 0 0 .46256 290.81 137.49)" fill="#a11011">
    <rect id="rect1131" height="44.301" width="34.57" y="275.98" x="477.98"/>
    <rect id="rect1132" ry="18.298" height="36.596" width="34.311" y="258.3" x="478.13"/>
   </g>
   <g id="g1133" transform="matrix(.58106 0 0 .44663 307.18 142.59)" fill="#d61517">
    <rect id="rect1134" height="44.301" width="34.57" y="275.98" x="477.98"/>
    <rect id="rect1135" ry="18.298" height="36.596" width="34.311" y="258.3" x="478.13"/>
   </g>
   <g id="g1136" transform="matrix(.43289 0 0 .41934 380.56 151.34)" fill="#a11011">
    <rect id="rect1137" height="44.301" width="34.57" y="275.98" x="477.98"/>
    <rect id="rect1138" ry="18.298" height="36.596" width="34.311" y="258.3" x="478.13"/>
   </g>
   <g id="g1139" transform="matrix(.37967 0 0 0.4 406.86 157.18)" fill="#d61517">
    <rect id="rect1140" height="44.301" width="34.57" y="275.98" x="477.98"/>
    <rect id="rect1141" ry="18.298" height="36.596" width="34.311" y="258.3" x="478.13"/>
   </g>
  </g>
  <path id="path1142" d="m128.32 173.9v8.4069h22.342v-8.4069h-22.342z" fill="#a11011"/>
  <path id="path7891" d="m149.29 182.59zm-19.458-7.4823v7.6457h19.803v-7.4823l-19.803-0.16342" fill="#d61517"/>
 </g>
</svg>
