<?xml version="1.0" encoding="UTF-8" standalone="no"?>
<!-- Created with Sodipodi ("http://www.sodipodi.com/") -->
<svg id="svg548" xmlns:rdf="http://www.w3.org/1999/02/22-rdf-syntax-ns#" xmlns="http://www.w3.org/2000/svg" height="480" width="640" version="1.0" xmlns:cc="http://creativecommons.org/ns#" xmlns:xlink="http://www.w3.org/1999/xlink" xmlns:dc="http://purl.org/dc/elements/1.1/">
 <defs id="defs550">
  <linearGradient id="linearGradient795">
   <stop id="stop796" stop-color="#d5dfff" offset="0"/>
   <stop id="stop797" stop-color="#fff" offset="1"/>
  </linearGradient>
  <linearGradient id="linearGradient783">
   <stop id="stop784" stop-color="#474747" offset="0"/>
   <stop id="stop785" stop-color="#f50" offset="1"/>
  </linearGradient>
  <linearGradient id="linearGradient3491" y2="173.45" xlink:href="#linearGradient783" gradientUnits="userSpaceOnUse" x2="110.94" gradientTransform="matrix(1.5101 0 0 .65184 40.513 .0061069)" y1="218.47" x1="109.34"/>
  <linearGradient id="linearGradient3493" y2="337.23" gradientUnits="userSpaceOnUse" x2="126.02" gradientTransform="matrix(1.2315 0 0 .79928 40.513 .0061069)" y1="316.38" x1="125.91">
   <stop id="stop744" stop-color="#b50000" offset="0"/>
   <stop id="stop745" stop-color="#ffc500" offset="1"/>
  </linearGradient>
  <linearGradient id="linearGradient3495" y2="147.35" xlink:href="#linearGradient795" gradientUnits="userSpaceOnUse" x2="456.4" gradientTransform="matrix(.55904 0 0 1.7607 40.513 .0061069)" y1="149.38" x1="407.87"/>
  <linearGradient id="linearGradient3497" y2="102.99" xlink:href="#linearGradient783" gradientUnits="userSpaceOnUse" x2="228.97" gradientTransform="matrix(.74087 0 0 1.3286 40.513 .0061069)" y1="102.99" x1="215.83"/>
  <linearGradient id="linearGradient3499" y2="1003.7" xlink:href="#linearGradient795" gradientUnits="userSpaceOnUse" x2="78.221" gradientTransform="matrix(2.5627 0 0 .38409 40.513 .0061069)" y1="1040.4" x1="117.6"/>
  <linearGradient id="linearGradient3501" y2="226.38" xlink:href="#linearGradient795" gradientUnits="userSpaceOnUse" x2="255.03" gradientTransform="matrix(.88634 0 0 1.1105 40.513 .0061069)" y1="245.98" x1="264.72"/>
 </defs>
 <g id="flag">
  <rect id="rect877" height="480" width="640" y="-.0000038147" x="0" stroke-width="1pt" fill="#006"/>
  <g id="g878" stroke-width="1pt" transform="scale(7.5663 9.8227)">
   <path id="path879" fill="#fff" d="m0 0v3.3541l53.292 26.646h6.708v-3.354l-53.292-26.646h-6.708zm60 0v3.354l-53.292 26.646h-6.708v-3.354l53.292-26.646h6.708z"/>
   <path id="path2296" fill="#fff" d="m25 0v30h10v-30h-10zm-25 10v10h60v-10h-60z"/>
   <path id="path881" fill="#c00" d="m0 12v6h60v-6h-60zm27-12v30h6v-30h-6z"/>
   <path id="path882" fill="#c00" d="m0 30 20-10h4.472l-20 10h-4.472zm0-30 20 10h-4.472l-15.528-7.7639v-2.2361zm35.528 10 20-10h4.472l-20 10h-4.472zm24.472 20-20-10h4.472l15.528 7.764v2.236z"/>
  </g>
  <g id="g1223" transform="matrix(.86059 0 0 .86059 337.27 11.701)">
   <path id="path802" d="m146.97 393.04s-3.3456 8.842-5.2573 8.842c-1.9118 0-8.8419-3.8236-8.8419-3.8236s-5.0184 8.125-7.6471 8.6029c-2.6287 0.478-9.5588-1.1948-9.5588-1.1948s-6.6912 0-6.9302-0.9559c-0.2389-0.9559 0.239-2.8677 0.239-2.8677s-9.5588 7.6471-11.71 7.1692c-2.1507-0.4779-9.3198-9.5588-9.3198-9.5588l-1.198 4.79-13.621-0.48-11.949-7.65s-6.6912 10.993-6.9301 10.754c-0.23898-0.2389-11.71 2.6287-11.71 2.6287l-0.71691-2.1507-7.6471-4.5405s5.9743-8.3639 5.9743-8.6029c0-0.2389-2.8676-1.1948-2.8676-1.1948l-4.3015 3.5845-8.8419 5.7353-8.8419-4.0625 3.8235-7.1691 0.47794-5.2573 6.9302-10.515 84.835-82.445 41.82 77.188-6.2133 23.18z" fill-rule="evenodd" stroke="#000" stroke-width="1pt" fill="#6a4c2d"/>
   <path id="path798" d="m207.24 398.04 22.083-0.7927-9.3993-4.643 84.14-3.1709-11.891-4.5297-10.532-14.269-43.599-3.2841s-3.2841-2.4913-8.6066-1.2456c-0.2265-3.3974-4.3033-7.8139-4.3033-7.8139l-26.839-2.0384-16.76 11.438 11.324 28.99 14.382 1.3589z" fill-rule="evenodd" stroke="#000" stroke-width="1pt" fill="#fff"/>
   <path id="path782" d="m121.32 150.76 2.224-7.5615s3.892-6.5609 3.892-9.452c0-2.8912 2.8912-6.3384 2.8912-6.3384s8.8959-2.5576 10.786 2.8912c9.5632-14.456 20.794-0.6672 20.794-0.6672l3.1136-3.6696 6.3383-7.7839s9.0072 8.4511 9.1184 9.8967 1.5568 0.4448 1.5568 0.4448l9.7855-0.7783s4.6443 3.6355 3.6696 10.564c3.4488 2.0341 6.5608 14.011 6.5608 14.011l-80.731-1.5568z" fill-rule="evenodd" stroke="#000" stroke-width="1pt" fill="url(#linearGradient3491)"/>
   <path id="path770" d="m207.25 240.72c1.686-1.0375 7.0036-2.7236 6.3551-10.505-0.6485-7.7817-7.3927-8.6895-11.154-8.4302-3.7612 0.2594-7.1332 3.5018-7.1332 3.5018l-12.451-7.9115s6.2254-39.298 12.84-41.762c6.2818-4.5267 7.3927-6.4847 7.3927-7.5223s-2.3345-3.6315-2.3345-3.6315l-40.595-4.7988-38.39 4.5394s-2.983 4.5394-2.5939 6.3551 0.5188 3.7611 7.3927 9.0787c7.6058 5.8497 12.84 39.428 12.84 39.428s-10.765 5.3176-11.413 4.6691c-0.6484-0.6485-3.8908-1.297-5.5769-1.0376-1.686 0.2594-7.263 3.1127-7.263 10.505 0 7.3927 5.577 11.673 5.577 11.673s36.704-4.2799 42.151 5.8363c5.3175-12.191 40.206-7.9115 44.356-9.9866z" fill-rule="evenodd" stroke="#000" stroke-width="1pt" fill="#656263"/>
   <path id="path1163" stroke-linejoin="round" d="m246.79 199.87s0.407-4.266 3.453-6.297c3.047-2.031 23.359-3.047 28.234 0s6.703 18.078 6.703 18.078 3.047 5.281 3.25 9.14 0.609 6.5 0.609 6.5 16.25 21.125 16.453 40.218c1.829 13 1.422 47.733-3.656 60.936-0.203 16.452-7.109 27.218-7.109 27.218s1.625 2.843 1.422 5.89c-0.204 3.047-1.829 5.891-1.829 5.891l23.765 11.781-8.734-3.25s8.938 7.515 8.734 7.312c-0.203-0.203-9.952-4.672-9.952-4.672s6.093 6.094 5.89 5.891c-0.203-0.204-14.421-6.5-14.421-6.5s6.702 6.297 6.296 6.093c-0.406-0.203-10.765-5.078-10.765-5.078s6.5 6.906 6.297 6.5-9.344-4.062-9.344-4.062l0.406 3.453s-7.312-0.406-7.312-5.891c-3.656-2.031-6.094-4.875-6.094-4.875l-16.858-2.843-19.094-57.077 4.469-96.482 1.219-4.875-2.032-12.999z" stroke-opacity=".97854" fill-rule="evenodd" stroke="#000" stroke-width="1.25"/>
   <path id="path837" d="m234.03 508.2s-9.779-20.579-14.656-20.867c-4.4-8.387 15.291-76.962 53.381-80.871 20.941 1.725 1.722 24.141-12.047 17.243 1.72 6.035 8.605 14.657 8.605 14.657s-27.252 11.783-35.283 69.838z" fill-rule="evenodd" stroke="#000" stroke-width=".99323pt" fill="#fb0"/>
   <path id="path834" d="m102.91 511.2s8.094-23.416 13.009-23.705c4.914-0.289-13.009-78.053-52.035-78.631-21.103 1.735-1.7345 24.283 12.142 17.345-1.7345 6.071-8.6725 14.743-8.6725 14.743s27.463 11.853 35.557 70.248z" fill-rule="evenodd" stroke="#000" stroke-width="1pt" fill="#fb0"/>
   <g id="g932">
    <path id="path839" d="m138.71 364.93c-0.094-0.188-9.686 3.009-3.479 13.448 0.47-4.044 4.796-6.489 4.796-6.489s-6.583 7.805 0.376 14.388c0.846-6.206 4.796-8.181 4.796-8.181s-4.89 14.388 0.094 17.303c0.564-5.737 4.232-8.276 4.232-8.276s-4.42 12.884-0.47 15.799c0.47-4.89 3.761-7.053 3.761-7.053s-1.975 13.354 3.198 14.294c0.094-4.701 3.855-9.31 3.855-9.31s-1.693 10.909 6.395 11.379c0.094-4.138 1.599-8.84 1.599-8.84s3.667 11.567 9.027 9.686c-0.093-3.385 0.094-9.78 0-9.78s3.386 11.003 9.78 8.934c-0.94-3.103 0.377-6.771 0.377-6.771s3.385 6.865 9.498 4.608c1.034-2.069-0.283-6.112-0.283-6.112s8.934 9.216 11.661 3.667c2.728-5.548-7.147-7.429-7.147-7.429h6.677s-2.163-5.642-11.191-6.865c3.104-1.41 6.301-0.376 6.301-0.376s-1.881-7.053-11.097-7.805c3.574-1.223 7.524-0.377 7.524-0.377s-1.223-6.676-11.379-8.557c1.599-1.787 5.924-1.223 5.924-1.223s-4.043-6.3-8.651-5.924-46.268-4.232-46.174-4.138z" fill-rule="evenodd" stroke="#000" stroke-width="1pt" fill="#00713d"/>
    <g id="g906" stroke="#3ec26d" stroke-linecap="round" stroke-width="1.25" fill="none">
     <path id="path855" d="m179.8 398.88s3.667 1.787 3.573 3.386"/>
     <path id="path856" d="m181.97 395.97s4.702 3.291 4.608 5.736"/>
     <path id="path857" d="m186.1 394.27s3.762 2.351 3.95 6.019"/>
     <path id="path858" d="m192.4 395.78s1.881 4.044 1.222 4.796"/>
     <path id="path859" d="m196.17 397.94c0.282 3.197-0.283 3.479-0.283 3.479"/>
     <path id="path840" d="m149.8 377.72s4.42 2.821 4.044 6.771"/>
     <path id="path841" d="m149.52 381.11s2.069 1.974 1.599 3.291"/>
     <path id="path842" d="m154.98 377.82s2.915 4.044 1.975 6.865"/>
     <path id="path843" d="m159.96 380.45s1.317 2.539 0.094 3.95"/>
     <path id="path844" d="m162.31 381.67s1.599 2.539 0.188 3.385"/>
     <path id="path845" d="m160.53 390.04s4.137 0.941 4.702 4.044"/>
     <path id="path846" d="m162.97 387.22s4.325 0.282 4.796 4.89"/>
     <path id="path847" d="m168.71 385.62c0.094 0 2.915 4.984 2.445 6.582"/>
     <path id="path848" d="m174.26 386.09s1.129 4.796 0.282 6.3"/>
     <path id="path849" d="m177.83 387.97c0 0.094 0.094 5.548 0.094 5.548"/>
     <path id="path850" d="m172.38 380.45s2.727 1.035 2.539 3.668"/>
     <path id="path851" d="m174.91 378s3.479 1.975 3.103 5.737"/>
     <path id="path852" d="m178.96 376.41s3.01 3.573 1.881 7.523"/>
     <path id="path853" d="m184.22 377.25s-1.129 4.42-0.659 6.207"/>
     <path id="path854" d="m187.42 380.26s-1.975 1.505-0.941 3.386"/>
     <path id="path860" d="m170.31 397.47s0.658 3.385 0 3.949"/>
     <path id="path861" d="m165.98 395.5s2.163 3.761 1.41 5.642"/>
     <path id="path862" d="m161.37 395.31s2.445 2.821 2.351 5.078"/>
     <path id="path863" d="m157.61 395.87s2.257 2.163 2.069 3.385"/>
     <path id="path864" d="m155.64 399.16s2.163 2.257 2.069 2.727"/>
    </g>
   </g>
   <path id="path552" d="m108.86 244.78c10.368-0.185 20.735-0.37 31.103-0.555 0 0 20.551 0 22.773 6.665 3.887-8.887 21.661-8.331 21.661-8.331 10.738-0.37 21.476-0.741 32.214-1.111 0.185 25.92 0.371 51.839 0.556 77.759-6.295 30.178-28.142 51.469-52.21 60.541-28.696-9.258-46.841-33.511-52.765-61.097-1.111-24.624-2.221-49.247-3.332-73.871z" fill-rule="evenodd" stroke="#000" stroke-width="1pt" fill="#fff"/>
   <path id="path553" d="m119.94 244.49 45.307 120.74 40.93-123.37c-12.696 0.819-39.939-1.998-43.323 9.587-5.236-10.369-33.895-6.189-42.914-6.956z" fill-rule="evenodd" stroke="#000" stroke-width="1pt" fill="#006b00"/>
   <path id="path567" d="m150.78 309.86c1.742 0.912 1.695-32.768 3.983-33.813 0.654-2.789 0.982-4.01 1.799-6.972-1.962-3.487-10.79-3.312-14.06-0.349 1.471 4.706 2.125 6.275 2.125 6.275 4.415 7.146 3.538 35.619 6.153 34.859z" fill-rule="evenodd" stroke="#006b00" stroke-linecap="round" stroke-width=".68918" fill="#ffc900"/>
   <path id="path560" stroke-linejoin="round" d="m138.64 49.548s3.201-3.6371 3.346-4.51c0.146-0.8729 14.549-1.4548 23.132-17.458 4.801-8.438 0-3.4915 0-3.4915l-0.291-4.0735s5.965-5.6739 3.783-8.7291c-2.182-3.055-1.455 3.9281-4.947 3.7826-3.491-0.1455-1.6-7.565-1.6-7.565s-0.29-0.87296-1.309-1.3094c-1.455 0.14549-1.019 2.7641-2.328 3.0551-1.309 0.29099-2.473-6.1103-2.473-6.1103s-2.182-2.9096-4.074 6.2558c1.019 9.7473 7.274 7.8561 7.274 14.257 0 6.4012-5.528 11.348-7.128 11.493-1.601 0.1455-1.019-5.3828-1.019-5.3828s-0.872-2.6188-1.454-2.6188 3.2-0.5818 2.619-7.856c-1.31-8.729-2.328 2.0366-4.656 1.6002s-0.582-8.0015 0.291-8.8744-1.019-4.5099-6.111 4.801c-0.436 4.51-1.018-1.164-2.036-0.873-1.746 3.6372-1.455 6.2558 1.018 9.6019 3.637 3.3461 5.965 6.6923 5.819 8.438-0.145 1.7458-2.036 5.6739-4.655 5.6739s0.145-4.8009 0-6.4013c-0.146-1.6003-4.51-7.4195-4.51-7.4195s-3.055-4.9466-2.764-5.092c0.291-0.1455-0.291-0.8729-1.746 4.219s-3.201-3.3461-3.201-3.3461-2.036 6.2557 2.328 10.038c-3.346-0.4364-3.637 0.873-3.637 0.873 0 1.7458 4.51 2.473 5.092 5.5282s-4.655 4.8011-4.655 4.8011 2.182 3.0551 8.292-2.9097c0.146 3.7825-2.328 6.4012-2.328 6.4012 2.037 0.9214 3.637 0.8243 3.928 3.2006z" fill-rule="evenodd" stroke="#000" stroke-width="1.25" fill="#cdad56"/>
   <path id="path561" stroke-linejoin="round" d="m118.68 49.548s-2.718-4.0369-2.842-4.8312c-0.123-0.7943-13.375 1.0038-19.646-15.158-4.0774-7.6781 0-3.1771 0-3.1771l0.2471-3.7066s-4.3386-5.3083-2.4854-8.0884c1.8531-2.7799 1.0901 3.5743 3.4741 3.5874 2.9647-0.1324 1.3588-6.8838 1.3588-6.8838s0.2462-0.7944 1.1122-1.1914c1.2347 0.1323 1.7377 4.1153 2.8507 4.3801 1.111 0.2649 3.408-4.6872 4.136-5.7055 1.018-0.14564 0.98-4.1023 2.587 4.2377-0.865 8.8695-8.214 7.1486-8.214 12.973 0 5.8248 4.695 10.326 6.053 10.458 1.36 0.1324 0.865-4.898 0.865-4.898s0.741-2.383 1.235-2.383c0.495 0-4.317 0.9254-3.824-5.6936 1.113-6.1971 3.578 0.3983 5.554 0.0012 1.978-0.3971-0.231-6.5536 0.335-7.4933 0.132-0.9398 3.047-4.9766 4.172 3.9322 0.371 4.1039 2.61-3.5323 3.475-3.2675 1.483 3.3095-0.656 7.7291-2.756 10.774-3.088 3.0449-4.484 6.3806-4.36 7.9691 0.123 1.5886 0.856 3.5626 3.081 3.5626 2.224 0 0.749-2.7682 0.873-4.2245 0.123-1.4562 3.83-6.1694 3.83-6.1694 0.727-1.1639 0.122-3.3372 0.893-4.3424 1.207 0.013 1.702-1.6672 2.938 2.9661 1.235 4.6334 2.717-3.0447 2.717-3.0447s1.73 5.6923-1.976 9.1342c2.842-0.3971 3.088 0.7944 3.088 0.7944 0 1.5886-1.356 2.2503-1.851 5.0304-0.495 2.78 1.48 4.3687 1.48 4.3687s-1.853 2.7799-7.042-2.6477c-0.124 3.4419 1.977 5.8247 1.977 5.8247-1.73 0.8385-3.088 0.7501-3.336 2.9124z" fill-rule="evenodd" stroke="#000" stroke-width="1.0989" fill="#cdad56"/>
   <path id="path564" d="m198.62 262.5c-2.71-2.459-3.032-0.311-4.365-0.861-0.653-0.274-1.165-0.886-1.733-1.442-0.494-0.507-1.081-0.717-1.734-0.992-0.246 0.728-0.493 1.456-0.739 2.185-0.247 0.728 0.686 1.934 0.665 3.027-0.185 1.625-0.847 2.969-2.885 3.526 0.581-1.152 0.911-1.208 0.734-2.613-0.088-0.702-2.053-1.948-1.811-2.613 0.361-1.068 0.975-2.304 0.521-3.371-0.838 0.571-1.929 0.272-2.767 0.62-0.702 0.314-0.75 1.621-1.728 2.165-1.002 0.469-3.213 0.237-5.058-0.811 1.128-0.855 2.06-0.278 3.188-1.134 0.564-0.428 0.538-2.26 1.102-2.688s1.915-0.884 2.479-1.312c-0.507-0.578-0.48-1.493-0.987-2.07-0.508-0.578-2.757-0.453-3.265-1.031-1.014-1.155-0.821-2.676-1.836-3.831 2.626 0.942 2.245 2.222 2.904 2.125 1.244-0.596 2.486-0.715 3.138-0.441 0.653 0.275 1.895 1.898 2.548 2.173 0.246-0.728 0.605-1.653 0.852-2.381 0.247-0.729-1.108-1.991-0.861-2.719 0.493-1.456 1.717-2.744 2.21-4.201 0.177 1.405 0.41 2.586 0.587 3.991 0.088 0.702 1.469 1.067 1.558 1.77 0.088 0.702-0.722 2.332-0.633 3.034 0.754-0.15 1.845-0.048 2.598-0.199 0.754-0.15 1.255-1.902 2.009-2.052 1.508-0.301 2.594-0.209 4.13 0.08-1.128 1.052-2.003 0.981-2.71 1.949-0.564 0.428 0.22 1.839-1.411 2.829-0.613 0.355-2.224-0.072-2.788 0.356 0.507 0.578 1.015 1.155 1.522 1.733s2.785 0.846 3.292 1.424c1.014 1.156 1.552 2.536 1.274 3.775z" fill-rule="evenodd" stroke-width="1pt" fill="#ffc900"/>
   <path id="path565" d="m128.95 263.69c2.71-2.46 3.032-0.312 4.365-0.861 0.652-0.275 1.165-0.887 1.733-1.442 0.494-0.508 1.08-0.718 1.733-0.993 0.247 0.729 0.493 1.457 0.74 2.185s-0.687 1.934-0.665 3.027c0.184 1.625 0.846 2.969 2.884 3.527-0.581-1.152-0.91-1.209-0.733-2.613 0.088-0.703 2.052-1.948 1.81-2.614-0.36-1.067-0.974-2.303-0.52-3.371 0.838 0.572 1.929 0.273 2.767 0.62 0.702 0.314 0.75 1.621 1.728 2.165 1.002 0.47 3.213 0.237 5.058-0.81-1.129-0.856-2.061-0.279-3.188-1.135-0.564-0.428-0.538-2.26-1.102-2.688-0.565-0.428-1.916-0.884-2.48-1.312 0.508-0.577 0.481-1.492 0.988-2.07 0.508-0.577 2.757-0.453 3.264-1.031 1.015-1.155 0.822-2.676 1.836-3.831-2.625 0.943-2.244 2.222-2.904 2.125-1.243-0.596-2.485-0.715-3.138-0.44-0.652 0.274-1.894 1.898-2.547 2.172-0.247-0.728-0.606-1.653-0.852-2.381-0.247-0.728 1.108-1.99 0.861-2.718-0.493-1.457-1.717-2.745-2.21-4.201-0.177 1.405-0.41 2.585-0.587 3.99-0.089 0.702-1.47 1.068-1.559 1.77-0.088 0.703 0.722 2.332 0.634 3.035-0.754-0.151-1.845-0.049-2.599-0.199-0.753-0.151-1.254-1.902-2.009-2.053-1.508-0.301-2.593-0.209-4.13 0.08 1.128 1.053 2.004 0.981 2.711 1.949 0.564 0.428-0.221 1.839 1.411 2.829 0.612 0.355 2.224-0.071 2.788 0.357-0.508 0.577-1.015 1.155-1.522 1.733-0.507 0.577-2.785 0.846-3.292 1.424-1.015 1.155-1.552 2.535-1.274 3.775z" fill-rule="evenodd" stroke-width="1pt" fill="#ffc900"/>
   <path id="path566" stroke-linejoin="round" d="m196.19 270.28c-2.453 1.917-18.311 5.925-18.474 19.695-0.163 13.769 2.78 16.907-0.163 17.256-5.723 0-6.54-15.338-6.376-22.136 0.162-6.798 0.326-5.752 0.326-5.752s3.923 1.045 3.597 4.358c-0.327 3.311 3.923-8.192 2.453-11.33 2.615 2.615 6.048 1.569 6.048 1.394 0-0.174-1.961-2.265-2.779-3.834-0.817-1.569 2.943 0.871 2.943 0.871s0.163-2.614-3.107-2.44c-4.25 0 0.655-1.394 0.655-1.394s2.452 2.265 4.087-0.175c-1.799-1.916-4.414-2.963-4.414-2.963s-2.289-4.357-5.395-5.228c-3.597-0.872-3.107 1.568-7.194 1.22-0.817 1.568-0.817 1.743 0.818 2.265-2.779 1.918-1.308 5.752-1.308 5.752s4.414-1.917 4.25 1.22c-0.163 3.138-2.616 2.615-4.25 0.698-1.471-0.872-1.962 0.871-1.962 0.871l2.289 2.44s-4.415-0.174-5.559 2.789c2.453-0.174 3.761 0.523 3.761 0.523s-5.069 2.266-5.56 3.486c-0.489 1.22-0.653-1.395-0.817-1.395-0.163 0-4.904-1.742-4.904-1.742l-1.637 7.537s3.272 3.269 5.07 2.223c1.799-1.046 5.068-4.183 7.03-3.312-5.722 4.358-11.444 10.632-14.55 11.504-0.818-0.697-3.597-3.486-4.741-2.092-1.145 1.395-0.328 3.138 1.144 2.963 1.471-0.174-4.741 1.395-3.433 4.009 1.308 2.615 1.144 2.44 2.289 1.744 1.144-0.698-0.981-0.872 3.269-2.092 4.251-1.22 4.087-2.441 4.087-2.441s-0.817 1.918-3.105 2.441c-2.289 0.523-4.088 0.523-3.597 1.22 0.49 0.697 1.47 1.917 1.144 2.615-0.327 0.696 4.741-3.661 6.049-0.175 3.434-0.174 5.722-4.357 4.087-6.797 0.164 2.614 1.798 3.485 0.817 4.705s7.684-4.009 3.433-7.146c1.146 2.615 1.308 4.706 1.308 4.706s1.962-0.174 2.453-0.871c0.49-0.698-0.981 1.917-0.327 2.44 0.653 0.523 3.76 3.486 2.452 5.578-0.817-1.22-0.981-3.138-1.961-2.964-0.982 0.175-5.069 3.138-7.521 3.312s2.943 9.064 2.943 9.064-3.761-0.523-4.25-0.175c-0.491 0.349-2.943-3.137-3.434-1.045-0.818 2.614 0.817 1.568 0.817 1.568s-2.125-1.046-3.269 0.175c-1.144 1.22-2.289 2.44-1.472 2.962 0.818 0.523 4.415 0.523 4.905 0.349s-4.087 0.349-4.414 0.872c-0.328 0.522-0.981 2.44 0 3.137s3.433-0.349 3.596-0.871c0.164-0.524 0.328 1.917 0.328 1.917s4.25 0.348 4.25-4.009 0.328 3.137 0.328 3.137 4.25 0.697 4.413-3.66 0.49 2.963 0.49 2.963 2.78-0.872 2.78-1.568c0-0.698-0.164 8.714-2.125 11.329-3.107-2.092-5.069 1.394-5.069 1.394s0.164 5.055-0.163 6.275c-0.326 1.22 2.125-0.698 2.289-1.22 0.163-0.523 3.106-1.918 3.27-2.266 0.163-0.349 0.98-2.092 0.98-2.092s-0.654 2.44-1.798 2.789-2.289 1.569-1.799 2.615c0.491 1.045 2.29 1.743 2.943 2.788 0.654 1.046 2.943-6.1 2.943-6.1l0.163 1.568s2.943-0.696 3.27-2.091c0.327-1.394-3.106-2.614-0.327-4.881 2.779-2.265 0 2.092 0 2.092s0.981 3.312 1.635 3.312 2.288-6.275 0.654-7.844c-1.635-1.568 2.452 1.918 2.452 1.918s2.29-6.449-0.163-7.321c-2.452-0.871-3.597-1.22-3.597-1.22s1.308-1.743 0.654-1.917 3.433 3.835 4.087 2.789 1.635-4.184-3.105-5.926c-4.742-1.743-0.164-6.624-0.164-6.624s2.943 3.486 5.068 1.568c2.125-1.916-0.164-1.916-0.164-1.916s6.049-3.834 6.212-5.752c-1.144-0.175-3.106 0.174-3.106 0.174s3.434-2.265 2.617-5.926c-1.309 1.917-3.107 1.918-3.107 1.918s2.943-2.964 2.452-5.752c-1.798 1.394-1.635 2.439-2.779 2.091s-3.106-11.329 1.471-12.027c4.578-0.696 2.125 5.404 2.289 5.404 0.163 0 6.867-2.789 0-7.321 1.635-0.523 5.068 2.615 5.068 2.615s-1.471-7.67-8.828-2.963c1.799-1.917 2.943-3.138 4.414-2.789 1.472 0.349 6.704-0.174 6.704-1.743-1.308-1.046-4.088 0.523-5.56 0-1.471-0.523 10.463-1.395 9.483-7.32z" fill-rule="evenodd" stroke="#006b00" stroke-linecap="round" stroke-width=".68918" fill="#ffc900"/>
   <path id="path568" d="m481.3 118.54s12.247-6.43 18.37 1.531" transform="matrix(.53397 0 0 .56928 -112.64 207.32)" stroke="#006b00" stroke-linecap="round" stroke-width="1.25" fill="none"/>
   <path id="path569" d="m504.57 132.32c-0.306 0-4.286 3.98-5.205 3.98" transform="matrix(.53397 0 0 .56928 -112.64 207.32)" stroke="#006b00" stroke-linecap="round" stroke-width="1.25" fill="none"/>
   <path id="path570" d="m512.84 145.18s11.328 0.918 18.676-10.41" transform="matrix(.53397 0 0 .56928 -112.64 207.32)" stroke="#006b00" stroke-linecap="round" stroke-width="1.25" fill="none"/>
   <path id="path571" d="m525.08 141.81s0.919 6.123 2.756 6.123-3.062 1.531-4.899 0.306c2.143 2.756 3.368 7.655 0 9.492" transform="matrix(.53397 0 0 .56928 -112.64 207.32)" stroke="#006b00" stroke-linecap="round" stroke-width="1.25" fill="none"/>
   <path id="path572" d="m519.26 218.97s-3.98 4.286-8.879 4.592" fill-rule="evenodd" transform="matrix(.53397 0 0 .56928 -112.64 207.32)" stroke="#006b00" stroke-linecap="round" stroke-width="1.25" fill="#e80000"/>
   <path id="path573" d="m523.86 199.37s-2.45-12.247-0.919-15.309c0.919-3.979 4.899-5.511 7.961-10.716" transform="matrix(.53397 0 0 .56928 -112.64 207.32)" stroke="#006b00" stroke-linecap="round" stroke-width="1.25" fill="none"/>
   <path id="path574" d="m522.63 190.49s-3.062 7.348-16.533 4.899" transform="matrix(.53397 0 0 .56928 -112.64 207.32)" stroke="#006b00" stroke-linecap="round" stroke-width="1.25" fill="none"/>
   <path id="path575" d="m526.31 172.12s0.919 9.797-11.328 6.123" transform="matrix(.53397 0 0 .56928 -112.64 207.32)" stroke="#006b00" stroke-linecap="round" stroke-width="1.25" fill="none"/>
   <path id="path576" d="m511.3 128.04s-4.899 4.287-3.062 10.104" transform="matrix(.53397 0 0 .56928 -112.64 207.32)" stroke="#006b00" stroke-linecap="round" stroke-width="1.25" fill="none"/>
   <path id="path577" d="m529.67 117.32s6.43-2.449 7.654-3.674c1.225-1.224 3.368-3.674 3.98-5.511 0.613-1.837-4.285-4.593-1.837-8.5726 1.531-1.837 3.674-2.1431 7.348 0 3.675 2.1436-3.367-6.7357-7.041-7.0419s-6.124 2.4493-7.042 1.837c-0.919-0.6123 0.306 2.4494-1.225 2.4494s3.062 2.4494 2.756 3.9801c-0.307 1.531 4.898 6.736 4.592 7.961-0.306 1.224-7.654 8.266-9.185 8.572z" fill-rule="evenodd" transform="matrix(.53397 0 0 .56928 -112.64 207.32)" stroke-linecap="round" stroke-width="1.25" fill="#006b00"/>
   <path id="path578" stroke-linejoin="round" d="m534.27 97.112c2.794-0.6363 3.243 0.0704 2.755 2.4493-1.309-0.6602-1.79-1.2169-2.755-2.4493z" fill-rule="evenodd" transform="matrix(.53397 0 0 .56928 -112.64 207.32)" stroke="#ffc900" stroke-linecap="round" stroke-width="1.25" fill="#ffc900"/>
   <path id="path579" stroke-linejoin="round" d="m514.71 233.52s-1.033 6.409 1.489 6.946c-0.124-2.48 0.538-4.176 1.158-4.837-0.538-0.249-2.522-2.067-2.647-2.109z" fill-rule="evenodd" transform="matrix(.53397 0 0 .56928 -112.64 207.32)" stroke="#006b00" stroke-width="1.25" fill="#e80000"/>
   <path id="path580" stroke-linejoin="round" d="m509.03 225.63c-2.316-0.331-6.23 1.591-5.105 3.911 1.881-1.621 3.626 0.134 4.941-1.519 0.404-0.453 0.29-1.812 0.164-2.392z" fill-rule="evenodd" transform="matrix(.53397 0 0 .56928 -112.64 207.32)" stroke="#006b00" stroke-width="1.25" fill="#e80000"/>
   <path id="path581" stroke-linejoin="round" d="m509.01 221.05s-3.651-0.581-4.157 1.948c2.52-0.32 3.274-0.59 4.109-0.06 0.242-0.541 0.008-1.762 0.048-1.888z" fill-rule="evenodd" transform="matrix(.53397 0 0 .56928 -112.64 207.32)" stroke="#006b00" stroke-width="1.25" fill="#e80000"/>
   <path id="path582" stroke-linejoin="round" d="m493.54 184.94s2.191 0.828 2.811 3.06c1.736-1.075 2.564-5.83-2.811-3.06z" fill-rule="evenodd" transform="matrix(.53397 0 0 .56928 -112.64 207.32)" stroke="#006b00" stroke-width="1pt" fill="#e80000"/>
   <path id="path583" stroke-linejoin="round" d="m488.12 190.39c0.083-0.041 4.59-2.77 5.045-0.165-0.952 0.95-1.365 1.57-2.109 1.778-0.579-0.001-1.737-1.778-2.936-1.613z" fill-rule="evenodd" transform="matrix(.53397 0 0 .56928 -112.64 207.32)" stroke="#006b00" stroke-width="1pt" fill="#e80000"/>
   <path id="path584" stroke-linejoin="round" d="m487.67 199.24c0.082-0.042 2.894-2.522 3.969-0.868 1.075 1.653-0.868 1.571-0.868 1.571s-0.993-0.455-3.101-0.703z" fill-rule="evenodd" transform="matrix(.53397 0 0 .56928 -112.64 207.32)" stroke="#006b00" stroke-width="1pt" fill="#e80000"/>
   <path id="path585" stroke-linejoin="round" d="m483.7 149.96c-0.041 0-3.597-1.364-5.085 1.116 2.357 0.29 3.184 1.117 4.258 1.944-0.289-1.034-0.785-2.605 0.827-3.06z" fill-rule="evenodd" transform="matrix(.53397 0 0 .56928 -112.64 207.32)" stroke="#006b00" stroke-width="1pt" fill="#e80000"/>
   <path id="path586" stroke-linejoin="round" d="m476.8 168.52s0.165-4.176 2.15-5.871c1.116 0.62 1.446 1.612 2.191 2.853-1.488 0.33-3.473 0.413-4.341 3.018z" fill-rule="evenodd" transform="matrix(.53397 0 0 .56928 -112.64 207.32)" stroke="#006b00" stroke-width="1pt" fill="#e80000"/>
   <path id="path587" stroke-linejoin="round" d="m486.3 165.54s-3.928 1.82-2.646 3.804c1.282-1.364 2.688-0.951 2.688-0.992s0-2.77-0.042-2.812z" fill-rule="evenodd" transform="matrix(.53397 0 0 .56928 -112.64 207.32)" stroke="#006b00" stroke-width="1pt" fill="#e80000"/>
   <path id="path588" stroke-linejoin="round" d="m480.64 125.6c-1.406 1.571 1.736 5.003 5.044 4.507 0.827-3.72-4.217-5.664-5.044-4.507z" fill-rule="evenodd" transform="matrix(.53397 0 0 .56928 -112.64 207.32)" stroke="#006b00" stroke-width="1pt" fill="#ffc900"/>
   <path id="path589" stroke-linejoin="round" d="m480.6 118.41c-0.689 1.75 2.053 4.203 3.638 3.514 0.648-1.792-2.922-4.906-3.638-3.514z" transform="matrix(.53397 0 0 .56928 -112.64 207.32)" stroke-width="1pt" fill="none"/>
   <path id="path590" stroke-linejoin="round" d="m484.28 122.75s0.62 2.936 3.473 2.15c-0.455-2.274-2.439-3.969-2.439-3.969-0.124 0.662 0.413 1.695-1.034 1.819z" fill-rule="evenodd" transform="matrix(.53397 0 0 .56928 -112.64 207.32)" stroke="#006b00" stroke-width="1pt" fill="#e80000"/>
   <path id="path591" stroke-linejoin="round" d="m486.18 131.27s1.571 1.695 4.672-1.778c-1.405 0.413-3.886-0.827-3.886-0.827s0 2.398-0.786 2.605z" fill-rule="evenodd" transform="matrix(.53397 0 0 .56928 -112.64 207.32)" stroke="#006b00" stroke-width="1pt" fill="#e80000"/>
   <path id="path592" stroke-linejoin="round" d="m480.46 118.86c-1.406 1.571 0.583 3.762 3.891 3.266 0.827-3.72-3.064-4.423-3.891-3.266z" fill-rule="evenodd" transform="matrix(.53397 0 0 .56928 -112.64 207.32)" stroke="#006b00" stroke-width="1pt" fill="#ffc900"/>
   <path id="path742" d="m144.62 266.62s7.037-2.011 10.771 1.005 3.734 0.287 3.734 0.287 5.457 2.011 7.037 1.58-1.148 0.144 1.006-1.149c2.154-1.292-4.309 0.288-4.883-2.441-1.006-1.724 0.143-3.878-2.154-3.16-1.58-2.011 1.005-3.446 0.43-5.601-1.579 1.149-2.441-0.431-3.734 2.442-3.015-0.575-0.431-4.74-3.734-5.171 0 3.016-2.442 3.16-2.585 4.883-1.436 1.006-7.755 4.74-5.888 7.325z" fill-rule="evenodd" fill="url(#linearGradient3493)"/>
   <path id="path833" d="m63.624 495.58c4.566-1.102 29.306 5.462 38.844 15.689-2.024-18.213-7.0701-32.166-7.0701-32.166s-14.743-4.205-16.767-2.181c-2.9683 3.126-11.884 12.492-15.007 18.658z" fill-rule="evenodd" stroke="#000" stroke-width="1pt" fill="#c01500"/>
   <path id="path835" d="m56.082 411.46c-1.7345 0.289-3.469 1.446-5.2035 4.336-2.0236 4.914-3.469 17.345-6.3599 20.236-2.8908 2.891-5.4926 3.18-5.4926 5.782 0 2.601 0.2891 8.672 8.0944 10.985 7.8053 0.289 20.236-12.431 20.236-12.431s6.3599-6.938 8.9616-14.454c-15.032 5.204-25.728-8.673-20.236-14.454z" fill-rule="evenodd" stroke="#000" stroke-width="1pt" fill="#c01500"/>
   <path id="path836" d="m273.49 492.68c-4.531-1.096-29.556 5.43-39.02 15.597 2.009-18.106 7.016-31.978 7.016-31.978 1.747-0.476 14.47-4.18 16.479-2.168 2.945 3.108 12.426 12.419 15.525 18.549z" fill-rule="evenodd" stroke="#000" stroke-width=".99323pt" fill="#c01500"/>
   <path id="path838" d="m280.5 409.05c1.722 0.287 2.33 2.549 3.735 5.422 2.007 4.885 4.077 12.003 6.946 14.876 2.868 2.875 5.45 7.132 5.45 9.719 0 2.585-0.605 6.081-8.35 8.379-7.745 0.288-18.968-9.657-18.968-9.657s-6.311-6.898-8.893-14.37c14.917 5.174 24.578-8.146 20.08-14.369z" fill-rule="evenodd" stroke="#000" stroke-width=".99323pt" fill="#c01500"/>
   <path id="path832" d="m47.41 479.69s15.61 10.696 15.9 15.61c41.918-62.153 148.88-81.522 209.88-4.336 8.094-10.696 16.478-14.165 16.478-14.165-64.18-83.84-191.96-73.43-242.26 2.89z" fill-rule="evenodd" stroke="#000" stroke-width="1pt" fill="#fb0"/>
   <g id="g971" fill="#3fa4d5" transform="translate(-.0000071526 .000045776)">
    <g id="g3239" stroke="#000" fill-rule="evenodd" fill="#1e5aa6">
     <path id="path555" d="m206.44 241.88 6.11-0.145-10.911 13.82 13.094 15.276-25.751 32.443 24.296 29.242c-2.667 6.547-5.771 12.512-9.893 17.894l-13.966-15.421 25.314-31.57-20.804-23.568 12.511-37.971z" stroke-width="1pt"/>
     <path id="path556" d="m119.15 244.64-6.546 0.146 12.22 13.238-12.949 16.149 26.915 29.242-22.259 29.824c2.667 6.547 6.498 13.821 10.62 19.203l13.239-16.73-27.205-30.261 19.931-25.313-13.966-35.498z" stroke-width="1pt"/>
     <path id="path557" d="m149.41 323.2-9.602 12.803 34.334 39.716c6.062-3.055 10.815-6.546 16.003-10.765l-17.894-20.659 7.274-21.386 10.475 12.075-32.733 41.754c-5.48-2.328-11.542-5.965-17.022-10.475l17.312-21.968-8.147-21.095z" stroke-width="1pt"/>
     <path id="path558" d="m138.79 303.27 6.256 7.856-4.073-10.62-2.183 2.764z" stroke-width="1pt"/>
     <path id="path559" d="m183.6 310.22c0.137-0.146 5.049-6.693 5.049-6.693l-1.911-2.618-3.138 9.311z" stroke-width=".96849pt"/>
    </g>
   </g>
   <text id="text1025" font-weight="bold" transform="rotate(-49.557)" line-height="100%" font-size="14px" y="362.39716" x="-328.34363" font-family="Timmons" fill="#000000">
    <tspan id="tspan1032" y="362.39716" x="-328.34363">L</tspan>
   </text>
   <text id="text1034" font-weight="bold" transform="rotate(-45.392)" line-height="100%" font-size="14px" y="384.26642" x="-292.33514" font-family="Timmons" fill="#000000">
    <tspan id="tspan1037" y="384.26642" x="-292.33514">E</tspan>
   </text>
   <text id="text1039" font-weight="bold" transform="matrix(.76280 -.54464 .56769 .75422 0 0)" line-height="100%" font-size="14px" y="451.6806" x="-239.78038" font-family="Timmons" fill="#000000">
    <tspan id="tspan1042" y="451.6806" x="-239.78038">O</tspan>
   </text>
   <text id="text1044" font-weight="bold" transform="matrix(.82844 -.56007 .56007 .82844 0 0)" line-height="100%" font-size="14px" y="429.95776" x="-188.5262" font-family="Timmons" fill="#000000">
    <tspan id="tspan1049" y="429.95776" x="-188.5262">T</tspan>
   </text>
   <text id="text1051" font-weight="bold" transform="rotate(-25.549)" line-height="100%" font-size="14px" y="451.47876" x="-115.42612" font-family="Timmons" fill="#000000">
    <tspan id="tspan1052" y="451.47876" x="-115.42612">E</tspan>
   </text>
   <text id="text1054" font-weight="bold" transform="rotate(-23.988)" line-height="100%" font-size="14px" y="453.04584" x="-94.110794" font-family="Timmons" fill="#000000">
    <tspan id="tspan1057" y="453.04584" x="-94.110794">R</tspan>
   </text>
   <text id="text1065" font-weight="bold" transform="rotate(-21.911)" line-height="100%" font-size="14px" y="454.98212" x="-68.37056" font-family="Timmons" fill="#000000">
    <tspan id="tspan1066" y="454.98212" x="-68.37056">R</tspan>
   </text>
   <text id="text1068" font-weight="bold" transform="rotate(-4.7626)" line-height="100%" font-size="14px" y="445.66595" x="112.01579" font-family="Timmons" fill="#000000">
    <tspan id="tspan1069" y="445.66595" x="112.01579">R</tspan>
   </text>
   <text id="text1071" font-weight="bold" transform="rotate(.85649)" line-height="100%" font-size="14px" y="430.7926" x="180.22531" font-family="Timmons" fill="#000000">
    <tspan id="tspan1072" y="430.7926" x="180.22531">R</tspan>
   </text>
   <text id="text1074" font-weight="bold" transform="rotate(29.645)" line-height="100%" font-size="14px" y="275.21735" x="414.75919" font-family="Timmons" fill="#000000">
    <tspan id="tspan1075" y="275.21735" x="414.75919">R</tspan>
   </text>
   <text id="text1080" font-weight="bold" transform="rotate(39.802)" line-height="100%" font-size="14px" y="193.05025" x="483.87762" font-family="Timmons" fill="#000000">
    <tspan id="tspan1081" y="193.05025" x="483.87762">E</tspan>
   </text>
   <text id="text1083" font-weight="bold" transform="matrix(.96356 .18112 -.15531 .95184 0 0)" line-height="100%" font-size="14px" y="414.02829" x="309.11557" font-family="Timmons" fill="#000000">
    <tspan id="tspan1084" y="414.02829" x="309.11557">O</tspan>
   </text>
   <text id="text1086" font-weight="bold" transform="matrix(.90188 -.13160 .13648 0.975 0 0)" line-height="100%" font-size="14px" y="459.27182" x="105.05786" font-family="Timmons" fill="#000000">
    <tspan id="tspan1087" y="459.27182" x="105.05786">O</tspan>
   </text>
   <text id="text1089" font-weight="bold" transform="rotate(-20.292)" line-height="100%" font-size="14px" y="455.83463" x="-45.707756" font-family="Timmons" fill="#000000">
    <tspan id="tspan1092" y="455.83463" x="-45.707756">A</tspan>
   </text>
   <text id="text1094" font-weight="bold" transform="matrix(.70468 .70952 -.70952 .70468 0 0)" line-height="100%" font-size="14px" y="144.72449" x="518.34955" font-family="Timmons" fill="#000000">
    <tspan id="tspan1095" y="144.72449" x="518.34955">A</tspan>
   </text>
   <text id="text1097" font-weight="bold" transform="matrix(.98042 .19691 -.19691 .98042 0 0)" line-height="100%" font-size="14px" y="388.29758" x="271.18784" font-family="Timmons" fill="#000000">
    <tspan id="tspan1098" y="388.29758" x="271.18784">A</tspan>
   </text>
   <text id="text1100" font-weight="bold" transform="rotate(-10.645)" line-height="100%" font-size="14px" y="455.1676" x="40.321587" font-family="Timmons" fill="#000000">
    <tspan id="tspan1103" y="455.1676" x="40.321587">M</tspan>
   </text>
   <text id="text1105" font-weight="bold" transform="rotate(-5.9402)" line-height="100%" font-size="14px" y="448.07883" x="94.428757" font-family="Timmons" fill="#000000">
    <tspan id="tspan1108" y="448.07883" x="94.428757">P</tspan>
   </text>
   <text id="text1113" font-weight="bold" transform="rotate(-1.4626)" line-height="100%" font-size="14px" y="437.60687" x="155.08846" font-family="Timmons" fill="#000000">
    <tspan id="tspan1114" y="437.60687" x="155.08846">P</tspan>
   </text>
   <text id="text1116" font-weight="bold" transform="rotate(29.499)" line-height="100%" font-size="14px" y="276.66531" x="405.13382" font-family="Timmons" fill="#000000">
    <tspan id="tspan1117" y="276.66531" x="405.13382">P</tspan>
   </text>
   <text id="text1119" font-weight="bold" transform="matrix(.99340 .11468 -.11468 .99340 0 0)" line-height="100%" font-size="14px" y="409.79309" x="232.09538" font-family="Timmons" fill="#000000">
    <tspan id="tspan1122" y="409.79309" x="232.09538">I</tspan>
   </text>
   <text id="text1124" font-weight="bold" transform="rotate(46.586)" line-height="100%" font-size="14px" y="132.08934" x="530.39215" font-family="Timmons" fill="#000000">
    <tspan id="tspan1125" y="132.08934" x="530.39215">T</tspan>
   </text>
   <text id="text1127" font-weight="bold" transform="rotate(36.816)" line-height="100%" font-size="14px" y="218.51869" x="464.15771" font-family="Timmons" fill="#000000">
    <tspan id="tspan1128" y="218.51869" x="464.15771">T</tspan>
   </text>
   <text id="text1130" font-weight="bold" transform="rotate(16.412)" line-height="100%" font-size="14px" y="361.96112" x="313.72498" font-family="Timmons" fill="#000000">
    <tspan id="tspan1131" y="361.96112" x="313.72498">M</tspan>
   </text>
   <text id="text1133" font-weight="bold" transform="rotate(47.66)" line-height="100%" font-size="14px" y="123.24773" x="513.7041" font-family="Timmons" fill="#000000">
    <tspan id="tspan1136" y="123.24773" x="513.7041">G</tspan>
   </text>
   <g id="g1148" stroke="#fff700" stroke-linecap="round" stroke-width="1pt" fill="none">
    <path id="path1138" d="m255.94 200.94s6.032-5.171 10.341-5.315"/>
    <path id="path1139" d="m256.81 200.22c0.143-0.143 36.05-5.17 37.199-6.319"/>
    <path id="path1140" d="m256.95 200.51c0.144-0.144 40.216-3.447 40.216-3.447"/>
    <path id="path1141" d="m256.81 200.65s42.657-2.011 45.242 0.144"/>
    <path id="path1142" d="m256.66 200.51s41.796 0.287 42.514 1.292"/>
    <path id="path1143" d="m256.81 200.51 40.215 3.303"/>
    <path id="path1144" d="m256.38 200.8c0.143 0 40.934 3.591 44.955 8.761"/>
    <path id="path1145" d="m303.48 216.88c-0.143-0.143-13.931-16.517-47.253-16.23"/>
    <path id="path1146" d="m256.38 200.94s23.124 1.579 30.449 9.623"/>
    <path id="path1147" d="m256.81 200.65s14.937-2.872 30.592 15.943"/>
   </g>
   <path id="path1159" d="m247.4 217.74s20.718 0.813 20.718 2.844-15.437 5.89-15.64 14.422c-0.203 8.531 11.781 9.14 12.593 19.905 0.813 10.766-9.343 12.39-11.375 15.234-2.031 1.422-6.906 16.656-6.296 25.593 0.609 8.938 3.249 39.203 7.921 45.296 3.657 2.844 9.141 11.984 15.031 9.14 5.891-2.843 1.828-13.202 1.219-16.046s2.437-7.516 2.437-11.781c0-4.266-2.234-7.719-2.031-8.734 0.203-1.016 16.453 3.859 15.437 19.906-1.015 16.046-7.515 11.171-7.515 11.171s2.031 19.703-3.047 22.343c-9.14 4.875-15.843-1.015-15.843-1.015l0.8587 4.0069-6.9527-3.6009s-8.937-12.797-10.968-18.484-4.469-31.077-3.656-36.561c0.812-5.485 1.421-37.578 1.015-39.203s-2.031-28.436-1.015-32.499c1.015-4.062 7.312-21.937 7.109-21.937z" fill-rule="evenodd" stroke="#000" stroke-width="1pt" fill="url(#linearGradient3495)"/>
   <path id="path1160" d="m225.06 212.46s14.421-14.015 22.749-12.39c4.266 0 0.203 3.047 0.203 3.047s7.312 0.609 8.328 3.859c0.203 1.422-3.453 1.828-3.453 1.828s3.047 0.609 3.25 3.25-30.874 0.609-31.077 0.406z" fill-rule="evenodd" stroke="#000" stroke-width="1pt" fill="#ff7000"/>
   <path id="path1161" d="m225.87 211.85s15.437-2.031 21.937-8.531" stroke="#000" stroke-width="1pt" fill="none"/>
   <path id="path1162" d="m241.51 207.59s11.375-0.406 11.375 1.219" stroke="#000" stroke-width="1pt" fill="none"/>
   <path id="path1164" stroke-linejoin="round" d="m281.93 373.74s9.75-2.234 12.39-5.687c1.626-1.219 10.157 12.796-12.39 5.687z" fill-rule="evenodd" stroke="#000" stroke-width="1.25" fill="#fff"/>
   <path id="path1165" d="m279.29 293.1s1.219 7.515-2.235 12.593c-1.828 2.031-7.312 5.484-7.312 7.922 0 2.437 2.031 5.687 1.625 8.531s-3.453 5.688-3.25 8.125c0 2.437 3.453 15.437 3.047 15.64" stroke="#fff" stroke-linecap="round" stroke-width="1.25" fill="none"/>
   <path id="path1166" d="m261.42 268.73s-7.718 2.641-9.343 10.36" stroke="#fff" stroke-linecap="round" stroke-width="1.25" fill="none"/>
   <path id="path1167" d="m258.16 207.59s2.641 7.313 11.172 0.407c-5.484-7.515-11.172-0.204-11.172-0.407z" fill-rule="evenodd" stroke="#000" stroke-width="1pt" fill="#c75b00"/>
   <path id="path1168" d="m264.87 206.47c0 0.39265-0.40924 0.71095-0.91405 0.71095s-0.91405-0.3183-0.91405-0.71095c0-0.39264 0.40924-0.71094 0.91405-0.71094s0.91405 0.3183 0.91405 0.71094z" fill-rule="evenodd" transform="translate(-.40625 .8125)"/>
   <path id="path743" d="m188.41 190.62s16.177 17.509 26.644 17.319c1.9032 5.1385-4.752 9.9188-7.4164 12.202-5.3288-1.7129-10.145 0.3122-22.515-14.913 0.7613-9.7059 3.4777-14.227 3.2874-14.608z" fill-rule="evenodd" stroke="#000" stroke-width="1pt" fill="#fff"/>
   <path id="path744" d="m210.3 149.89c2.0935-6.4706 6.2804-11.609 9.8964-12.18-0.9515-4.9481 7.6126-26.834 32.544-35.208 1.5226 11.228-10.658 22.267-10.658 22.267s36.731-6.2804 44.153-15.606c-0.7612 4.1869-8.1835 30.26-47.388 30.07 14.845 14.083-4.7578 25.312-13.132 21.886 15.416-11.8-4.3773-18.841-15.416-11.229z" fill-rule="evenodd" stroke="#000" stroke-width="1pt" fill="#fff"/>
   <path id="path745" d="m222.86 140.76c7.4223-4.7578 10.087-4.7578 16.177-3.8062-4.3772 0.571-4.3772 0.7612-4.3772 0.7612s-0.3806 0.571 2.2837 3.0451c-3.045-0.7613-5.7093-2.474-14.083-0.0001z" fill-rule="evenodd" stroke="#ccc" stroke-width="1pt" fill="#cccccd"/>
   <path id="path746" d="m220 137.71s14.654-7.8029 22.838-13.132" stroke="#000" stroke-width="1pt" fill="none"/>
   <path id="path747" d="m207.44 220.12s20.173 5.519 22.457-23.409c-4.3772-12.561-10.467-39.585-1.1419-47.388-8.5641-5.8998-17.89 0.1904-17.89 0.1904-0.5709 1.3322-8.1835 12.18 2.0934 31.212-24.36-6.4707-14.464 16.557-14.464 16.557 0.9516-3.616 13.893-7.0416 17.128 11.419 1.3323 4.5676-8.7544 11.609-8.1835 11.419z" fill-rule="evenodd" stroke="#000" stroke-width="1pt" fill="#00f"/>
   <path id="path748" d="m230.09 196.9s21.315-11.419 20.744-38.253c-18.08 0.3807-24.55 23.789-24.55 23.789l3.8062 14.464z" fill-rule="evenodd" stroke="#000" stroke-width="1pt" fill="#00f"/>
   <path id="path749" d="m134.55 195.57s-15.796 13.703-24.741 9.3254c-6.661 3.9966-14.464-3.0449-14.464-3.0449s9.1351 33.686 41.869 9.3254c-0.5709-7.4223-2.2838-15.035-2.6644-15.606z" fill-rule="evenodd" stroke="#000" stroke-width="1pt" fill="#fff"/>
   <path id="path750" d="m109.62 204.32c1.3322-7.0416 6.8514-10.467 11.229-3.8063 5.8998 1.1419 11.8-23.028-9.1351-19.031 5.8998-31.592-11.799-43.392-11.799-43.392s-6.2804 35.018-3.4257 41.489c2.8547 6.4707-4.1869-11.99-26.834-17.128-0.38063 26.454 25.312 38.824 25.312 38.824s7.2319 6.6609 14.654 3.045z" fill-rule="evenodd" stroke="#000" stroke-width="1pt" fill="#00f"/>
   <path id="path751" d="m111.71 181.29s-9.8963 8.3739-7.6126 19.793" stroke="#000" stroke-width="1pt" fill="none"/>
   <path id="path752" d="m96.68 180.15s-2.2838 8.1835 2.6644 19.793" stroke="#000" stroke-width="1pt" fill="none"/>
   <path id="path753" d="m95.157 202.61s4.5676-7.4222 14.464 2.0935" stroke="#000" stroke-width="1pt" fill="none"/>
   <path id="path755" d="m97.06 151.22c0-0.1903-15.035-0.0001-6.0901 15.225-6.661 2.0935-21.506-7.6126-11.229-20.554-33.686-0.7613-47.388-16.938-47.388-31.782 9.8964 10.277 33.495 6.0899 41.869 12.37-10.277-9.5158-8.1835-22.647-8.1835-22.647s28.738 8.5641 33.876 34.066c-1.7128 4.9481-2.4741 13.703-2.8547 13.322z" fill-rule="evenodd" stroke="#000" stroke-width="1pt" fill="#fff"/>
   <path id="path756" d="m73.942 125.82c5.5459 5.6425 19.796 7.3285 27.028 13.609" stroke="#000" stroke-width="1pt" fill="none"/>
   <path id="path757" d="m80.503 142.47s11.797-1.5226 15.216 2.6644c-4.6161 0-6.1549-1.142-12.823 1.3322 1.8807-0.9516 1.3678-2.6644 2.3936-2.6644s-4.2742-1.3322-4.7871-1.3322z" fill-rule="evenodd" stroke="#ccc" stroke-width=".94781" fill="#cccccd"/>
   <path id="path758" d="m139.31 50.166s6.4707-5.7095 13.512-0.57099c-3.1814 9.5065-14.654 5.8997-14.654 5.8997s0.3807 4.7579-0.7612 7.0417c2.2968 1.7262 4.1869 7.4222 4.1869 7.4222s11.8-2.8547 14.274 2.2838c4.5187-0.62355 7.8029 0 7.8029 0s9.1351-2.2838 12.37-2.2838c3.2354 0 13.512 2.6645 14.464 4.5676 0.9516 1.9031 4.3772 14.654 6.661 14.464 2.2838-0.19035-5.5191 3.045-7.6125-0.19035-2.0935-3.2353-1.5226 4.1869-1.5226 4.1869s6.4707 6.8513 7.232 8.3738c0.7612 1.5225-3.9966 13.893-0.3806 22.457-3.1685 0.2929-3.4257 3.616-3.4257 3.616-0.1745 3.7702-4.9482 4.7578-4.9482 4.7578l-1.1419-5.1385-3.2353 1.9032 1.3322-3.9967s4.3772-10.658 4.7579-14.083c0.3806-3.4257-3.9967-9.5157-7.4223-9.5157-3.4257 0-5.8998 10.848-5.8998 10.848s-1.7128 8.1835-1.1418 8.9448c0.5709 0.7613-2.2838-2.6644-2.2838-2.6644s-1.5225 4.9481-2.6644 6.4706c-1.1419 1.5226-3.616 2.0935-3.616 2.0935s-1.7128-4.9482-1.1419-6.8513c0.571-1.9032 9.3254-9.3255 8.5642-14.654-0.7613-5.3288 0-3.9966-0.1904-4.1869-0.1903-0.1904-4.5675-3.9966-4.7578-6.0901-0.1903-2.0934-5.7095 2.6644-12.941 1.1419-2.2134 3.8678-2.4741 13.512-2.4741 13.512s-0.7612 11.609 0.7613 12.941c1.5225 1.3322-3.8063 4.1869-3.8063 4.1869l-3.8063 5.1385s-1.3322-3.2354-1.3322-3.045c0 0.1903-2.6644 1.9031-2.6644 1.9031l1.5225-3.8063c-0.0929-2.8811 3.7-10.75 3.7-17.412 0-6.661 0.4869-13.8 0.4869-13.8s-7.0416-0.38055-6.8513 6.8513c0.1903 7.2319-1.7128 7.6126-1.3322 9.7061 0.3806 2.0934 2.2838 7.9932 1.7128 9.706-0.5709 1.7128-2.8547 2.2837-2.8547 2.2837l-0.5709 0.9516s-7.0417 3.2354-6.8514 4.5676c0.1904 1.3322-0.1903-3.8063-0.1903-3.8063l-0.3806-5.5191s4.1869-2.6644 4.1869-9.3254c0-6.6611-0.9649-7.6081-0.7746-9.1306 0.1903-1.5226 1.1552-7.0462 0.9649-7.6172-0.1903-0.5709-3.9966 1.5225-5.1385 1.5225s2.0935-3.9965 2.4741-6.8513c0.3807-2.8548-3.8063 2.6643-7.2319-0.57098 1.5929-3.5141 3.9966-4.5675 4.3772-7.2319s-2.6644 2.2838-5.3288 0.38063c0.2166-2.5537 2.8547-4.7579 2.8547-4.7579s-2.1686-0.2655-3.045 0c-1.7128-0.57091 1.9031-3.2353 2.0934-7.0416 0.1904-3.8063-2.0934-5.3288-2.0934-5.5191 0-0.19028-3.8063-3.4256-4.3772-4.7578-0.571-1.3322-0.571-2.8548-0.571-2.8548s-6.2804 4.5676-13.703-5.1385c6.797-5.8027 14.083-1.5225 14.083-1.5225s1.9032-5.3288 10.658-4.9482c8.7544 0.38063 10.467 5.3288 10.087 4.7579z" fill-rule="evenodd" stroke="#000" stroke-width="1pt" fill="#923f00"/>
   <path id="path763" d="m187.19 148.61c0.1585 0 16.167 0.4754 16.325 9.0343 0.1585 8.5589-4.9135 6.34-5.072 6.34s-11.729-1.4266-11.729-1.4266l0.4755-13.948z" fill-rule="evenodd" stroke="#000" stroke-width="1pt" fill="#00f"/>
   <path id="path764" d="m171.65 146.23s19.971-0.1585 18.861 8.5588c-1.1095 8.7173-6.1814 6.9739-6.1814 6.9739l-9.6683-0.7925-3.0115-14.74z" fill-rule="evenodd" stroke="#000" stroke-width="1pt" fill="#fffeff"/>
   <path id="path765" d="m160.4 145.28 11.57 0.951s6.9739 0.9508 6.6569 7.6078c-0.317 6.6569-7.1324 6.8154-7.1324 6.8154l-11.253-0.634 0.1585-14.74z" fill-rule="evenodd" stroke="#000" stroke-width="1pt" fill="#00f"/>
   <path id="path766" d="m133.3 148.61c-0.1585 0-16.167 0.4754-16.325 9.0343-0.1585 8.5589 4.9135 6.34 5.072 6.34s11.729-1.4266 11.729-1.4266l-0.48-13.95z" fill-rule="evenodd" stroke="#000" stroke-width="1pt" fill="#fff"/>
   <path id="path767" d="m148.83 146.23s-19.971-0.1585-18.861 8.5588c1.1095 8.7173 6.1814 6.9739 6.1814 6.9739l9.6683-0.7925 3.0115-14.74z" fill-rule="evenodd" stroke="#000" stroke-width="1pt" fill="#00f"/>
   <path id="path768" d="m160.09 145.28-11.57 0.951s-6.9739 0.9508-6.6569 7.6078c0.317 6.6569 7.1324 6.8154 7.1324 6.8154l11.253-0.634-0.1585-14.74z" fill-rule="evenodd" stroke="#000" stroke-width="1pt" fill="#fff"/>
   <path id="path950" d="m191.07 241.51s8.3201-12.261 11.823-10.948c3.0653 1.0218 0.7298 10.51-0.7299 11.386l-11.094-0.4379z" fill-rule="evenodd" stroke="#000" stroke-width="1pt" fill="#5e0043"/>
   <path id="path951" d="m134.04 243.7c-2.6274-3.6492-6.4225-13.721-9.9258-10.948-3.0653 1.0218-0.7298 10.51 0.7299 11.386l9.1959-0.4379z" fill-rule="evenodd" stroke="#000" stroke-width="1pt" fill="#5e0043"/>
   <path id="path772" d="m139.55 219.45s16.212 9.9868 21.53 10.246c5.3176 0.2593 22.178-12.97 22.178-12.97" stroke="#000" stroke-width="1pt" fill="none"/>
   <path id="path777" d="m141.11 180.29 3.1127-3.8909 15.564 7.9115 15.823-7.0036 3.1127 3.2424-17.639 12.451-19.973-12.71z" fill-rule="evenodd" stroke="#000" stroke-width="1pt" fill="#5e0043"/>
   <path id="path778" stroke-linejoin="round" d="m128.75 180.08c1.2641 1.5967 11.323 13.828 13.139 23.944 1.8157 10.116-1.0376-13.878-1.0376-13.878s12.451 6.0959 12.84 9.9867c0.3891 3.8908 5.9526-0.2628 6.2187-0.9281l-36.048-23.414 4.8881 4.2894z" fill-rule="evenodd" stroke="#474747" stroke-width="1.25" fill="#474747"/>
   <path id="path779" stroke-linejoin="round" d="m190.26 179.38s-13.099 17.25-11.543 36.055c-2.7017-9.0043-0.5188-23.864-0.5188-23.864l-2.8533 1.8158s-2.983 12.71-6.7442 14.656c-0.6342-1.5142-0.5188-2.0752-0.5188-2.0752s-4.0206 5.1878-4.7988 5.7066c-0.7781 0.5188 0.2594 17.509 0.2594 17.509s1.3501 12.314 2.9064 12.185c-1.7702 0.8682-3.9439 2.2149-3.9439 2.2149l-1.6137-32.882 3.6888-3.6954s4.9284-5.966 5.3175-11.802c-2.1391 1.8147-4.5393 2.3345-4.5393 2.3345s-0.6485 8.3005-2.5939 9.4678c-1.9455 1.1673-1.9985 3.3325-1.9985 3.3325l-0.4625-10.848 29.956-20.11z" fill-rule="evenodd" stroke="#474747" stroke-width="1.25" fill="#474747"/>
   <path id="path773" d="m160.3 199.35 2.5308 51.872" stroke="#000" stroke-linecap="round" stroke-width="1.25" fill="none"/>
   <path id="path771" d="m128.4 224.12s5.966 3.5017 8.1709 14.137c19.454-1.4267 25.55 5.4472 25.55 5.4472s15.953-7.652 23.345-6.2254c2.5939-5.4472 9.9866-12.451 9.9866-12.451" stroke="#000" stroke-width="1pt" fill="none"/>
   <path id="path775" d="m120.26 173.28 40.045 26.199 36.056-24.253s7.5224-4.1502 6.8739-7.1332-3.2424-1.8158-4.5394-1.297c-1.2969 0.5188-37.742 26.328-37.742 26.328l-38.779-24.512s-2.8533-0.908-3.3721 0.9078 1.0682 2.8533 1.4573 3.7612z" fill-rule="evenodd" stroke="#000" stroke-width="1pt" fill="#b4b6b9"/>
   <path id="path780" stroke-linejoin="round" d="m191.87 166.48s-10.246-4.3496-10.246-0.5799c0 3.7696 0.29 4.1562 1.9332 6.5727 1.6432 2.4166-1.2565 3.9632-1.2565 3.9632s-0.3867-1.0633-0.9667-2.7065c-0.5799-1.6432-6.0895-2.8031-6.5728-4.7363-0.4834-1.9333 1.1599-5.0264-2.1266-5.413-3.2864-0.3867-6.4762 1.3533-7.1528 5.123-0.6766 3.7696-4.9297 12.566-4.9297 12.566l0.58-20.009c7.2173 0.5156 20.621 2.0943 30.931 3.2865-3.0931-0.4833 1.16 0.1933 1.0633 1.2565-0.29 0.87-1.3533 0.9667-1.2566 0.6767z" fill-rule="evenodd" stroke="#474747" stroke-width="1.25" fill="#474747"/>
   <path id="path781" stroke-linejoin="round" d="m155.62 161.45c-1.8366 0-11.019 1.0634-13.339 2.4166-2.3198 1.3532 3.7698 3.4798 2.9965 5.3163-0.7733 1.8366-0.8699 5.5096-3.7697 4.7363-2.8998-0.7732-12.662-5.6062-12.952-7.2494-0.2899-1.6432-2.3198-1.7399-2.3198-1.7399s28.031-3.7697 29.385-3.4799z" fill-rule="evenodd" stroke="#474747" stroke-width="1.25" fill="#474747"/>
   <path id="path776" d="m160.04 159.15-0.0699 24.582" stroke="#000" stroke-width="1pt" fill="none"/>
   <path id="path786" d="m141.11 130.19s-11.231 18.237-11.454 18.793" stroke="#000" stroke-width="1pt" fill="none"/>
   <path id="path787" d="m161.8 129.74s4.8928 6.6719 4.3368 8.5623c2.0016 1.5569 4.2255 7.784 4.2255 7.784" fill-rule="evenodd" stroke="#000" stroke-width="1pt" fill="url(#linearGradient3497)"/>
   <path id="path788" d="m180.7 128.63s-10.564 14.901-10.23 16.013" stroke="#000" stroke-width="1pt" fill="none"/>
   <path id="path791" d="m126.5 56.748c0 0.79388-1.1339 1.4375-2.5327 1.4375s-2.5327-0.64357-2.5327-1.4375c0-0.79388 1.1339-1.4375 2.5327-1.4375s2.5327 0.64357 2.5327 1.4375z" fill-rule="evenodd" transform="matrix(1.0161 .31118 -.30126 1.0495 15.15 -41.141)"/>
   <path id="path789" d="m126.5 56.748c0 0.79388-1.1339 1.4375-2.5327 1.4375s-2.5327-0.64357-2.5327-1.4375c0-0.79388 1.1339-1.4375 2.5327-1.4375s2.5327 0.64357 2.5327 1.4375z" fill-rule="evenodd" transform="matrix(-1.0161 .31118 .30126 1.0495 242.3 -41.435)"/>
   <path id="path790" stroke-linejoin="round" d="m254.49 366.13s-3.9171 0.7345-3.7947 1.1017-11.384 0.7344-11.629 0.3672c-0.2448-0.3672-1.7137 1.9586-1.7137 1.9586l1.8362-1.1017s2.8154 2.9379 3.6723 2.693c0.8568-0.2448-0.3673 1.1017-0.1224 1.3466 0.2448 0.2448 1.1016-0.4897 1.1016-0.4897l19.023-0.3182-8.373-5.5575z" fill-rule="evenodd" stroke="#000" stroke-width="1pt" fill="#ff7000"/>
   <path id="path792" stroke-linejoin="round" d="m261.58 372.05-15.537 0.4498s-3.9171 3.5498-4.1619 4.4067 2.5706 1.1017 2.5706 1.1017l0.8569 2.9378 1.9585-0.7344s13.211 1.9644 25.339-0.7345c6.1205-2.1421 7.1916-4.7128 2.9072-6.2735-4.2843-1.5607-13.811-1.0925-13.933-1.1536z" fill-rule="evenodd" stroke="#000" stroke-width="1.25" fill="#ff7000"/>
   <path id="path793" d="m208.37 403.93 27.971-1.2458-5.2091-4.4165 75.647-3.0576-2.6046-6.0019-84.707 3.3973 10.192 4.7563-22.875 0.6794 0.6794 2.3782-6.0019-0.2266s6.6814 2.6047 6.9079 3.7372z" fill-rule="evenodd" stroke="#000" stroke-width="1pt" fill="url(#linearGradient3499)"/>
   <path id="path799" d="m239.73 249.42c-2.2218-1.1109-11.998-2.4439-22.884 4.6656l0.4443 25.106s15.997-8.6648 23.773-6.6652c-0.4443-7.7761-0.4443-17.774-1.333-23.106z" fill-rule="evenodd" stroke="#000" stroke-width="1pt" fill="url(#linearGradient3501)"/>
   <path id="path803" d="m85.074 325.65-65.956 65.478" stroke="#000" stroke-width="1pt" fill="none"/>
   <path id="path804" d="m114.47 326.13-53.532 70.5" stroke="#000" stroke-width="1pt" fill="none"/>
   <path id="path805" d="m112.08 307.73-71.455 86.51" stroke="#000" stroke-width="1pt" fill="none"/>
   <path id="path806" d="m38.474 393.04 6.9302-8.125" stroke="#000" stroke-width="1pt" fill="none"/>
   <path id="path807" d="m125.7 351.22-27.722 38.24" stroke="#000" stroke-width="1pt" fill="none"/>
   <path id="path808" d="m96.783 394.48 0.717 14.57" stroke="#000" stroke-width="1pt" fill="none"/>
   <path id="path809" d="m138.36 364.6-29.393 36.802" stroke="#000" stroke-width="1pt" fill="none"/>
   <path id="path810" d="m133.11 398.54 11.949-19.596" stroke="#000" stroke-width="1pt" fill="none"/>
   <path id="path811" d="m137.65 375.12-14.338 16.25" stroke="#000" stroke-width="1pt" fill="none"/>
   <path id="path812" d="m133.35 359.83-9.7978 11.949" stroke="#000" stroke-width="1pt" fill="none"/>
   <path id="path813" d="m120.68 342.38s-29.871 43.732-29.393 47.316" stroke="#000" stroke-width="1pt" fill="none"/>
   <path id="path814" d="m117.57 336.65c-0.7169 0.478-25.809 33.695-25.809 33.695" stroke="#000" stroke-width="1pt" fill="none"/>
   <path id="path815" d="m90.331 380.85-4.5404 5.4963" stroke="#000" stroke-width="1pt" fill="none"/>
   <path id="path816" d="m80.055 394.72-6.93 9.08" stroke="#000" stroke-width="1pt" fill="none"/>
   <path id="path831" d="m81.811 225s-2.0236 6.36 0 9.54 14.743 28.908 14.743 28.908 8.6728-10.696 11.853-10.985c3.18-0.289 1.734 27.752 1.734 27.752s-5.203 4.915-8.383 4.626c-3.1802-0.289 7.805 10.985 7.516 20.525s-14.454 56.949-19.658 57.817c-5.2035 0.867 2.3127-8.673 2.0236-11.275-0.2891-2.601-1.7345-0.867-2.8908-3.758-1.1564-2.891 1.7345-7.227 1.1563-10.118s-3.1799-2.312-3.469-4.336 1.7345-2.602 1.4454-4.914c-0.2891-2.313-3.469-1.735-3.1799-3.759 0.28909-2.023 0.57809-1.156 0.28909-4.914-0.28909-3.758-0.8673 2.602-4.0472 2.891-3.18 0.289-5.7817 7.516-5.7817 7.516s-6.3599 8.962-12.72 4.914c3.7581 8.095 0.8672 11.564-0.5782 11.853s1.1563 6.36-2.3127 6.649 2.6018 13.587-1.4454 14.743c4.3362 2.024 0.8673 4.626 0.8673 4.626s-10.021 0.8323-7.8053 13.876c-29.487-10.39-43.941-28.31-43.652-46.52 0.28908-18.212 6.0708-34.69 20.236-40.761 4.0472-15.033 10.985-31.221 10.985-31.221s-1.1563-6.649-0.2891-10.986c0.8673-4.336 4.9145-8.672 4.9145-8.672s-0.5782-10.407-0.2891-15.61c0.2891-5.204 2.3127-7.517 2.6018-10.407 0.289-2.891-0.8673-17.635 2.0236-20.236 2.8908-2.602 8.3834-2.313 11.274-4.048 2.8908-1.734 6.6489-4.914 10.407-4.625s6.938 2.891 6.938 2.891 14.165 0 15.032 5.493c0.86729 5.492-2.8908 7.516-2.8908 7.516s2.0236 7.805-6.649 15.032z" fill-rule="evenodd" stroke="#2b2b2b" stroke-width="1pt" fill="#8a9396"/>
   <path id="path817" d="m69.666 206.45c0 0.95295-1.5933 1.7255-3.5588 1.7255s-3.5588-0.77251-3.5588-1.7255c0-0.95295 1.5933-1.7255 3.5588-1.7255s3.5588 0.77251 3.5588 1.7255z" fill-rule="evenodd" transform="matrix(.87942 -.47604 .47604 .87942 -90.31 56.579)" stroke="#2b2b2b" stroke-width="1pt" fill="#cecfcf"/>
   <path id="path818" d="m66.68 206.44c0 0.35596-0.44597 0.64453-0.99609 0.64453-0.55013 0-0.99609-0.28857-0.99609-0.64453 0-0.35597 0.44597-0.64453 0.99609-0.64453 0.55013 0 0.99609 0.28856 0.99609 0.64453z" fill-rule="evenodd" transform="matrix(1.0784 0 0 1.4848 -5.0735 -100.09)"/>
   <path id="path819" d="m87.971 216s3.5108 15.676-0.6876 26.504" stroke="#2b2b2b" stroke-width=".625" fill="none"/>
   <path id="path820" d="m89.051 209.14s6.8501 9.0599 5.9662 20.329" stroke="#2b2b2b" stroke-width=".625" fill="none"/>
   <path id="path821" d="m89.714 207.15c0.22097 0 5.7452 4.8615 5.5243 8.176" stroke="#2b2b2b" stroke-width=".625" fill="none"/>
   <path id="path822" d="m91.04 205.16s3.7565 2.6516 4.6404 5.3033" stroke="#2b2b2b" stroke-width=".625" fill="none"/>
   <path id="path823" d="m89.272 203.61s-13.479 21.876-11.711 35.576" stroke="#000" stroke-width="1pt" fill="none"/>
   <path id="path824" d="m90.156 202.95s-17.899 10.607-21.213 45.299" stroke="#2b2b2b" stroke-width=".625" fill="none"/>
   <path id="path825" d="m88.167 209.36-7.0711 5.3034" stroke="#000" stroke-width="1pt" fill="none"/>
   <path id="path826" d="m62.314 250.24s9.9437-41.322 27.621-47.288" stroke="#2b2b2b" stroke-width=".625" fill="none"/>
   <path id="path827" d="m96.785 264.16s9.5017-11.932 11.711-11.49c2.2097 0.442 1.5468 27.621 1.5468 27.621s-7.0711 5.3033-8.6179 5.0823c-1.5468-0.2209 7.955 12.816 7.734 17.678-0.2209 4.8614-0.4419 4.8614-0.4419 4.8614s0-2.8727-2.2097-7.5131c-2.2097-4.6403-0.8839-9.9437-15.247-21.655-3.5355-7.2921 7.0711 4.4194 9.2808 2.6516 2.2097-1.7677-3.9775-17.015-3.7565-17.236z" fill-rule="evenodd" stroke="#2b2b2b" stroke-width="1pt" fill="#2b2b2b"/>
   <path id="path829" d="m79.893 196.96s-3.9947 1.0894-4.5394 2.7237c-0.54473 1.6342-2.9052 3.2682-4.1762 2.7236-1.271-0.5447-3.6315-2.5421-3.6315-2.5421" stroke="#2b2b2b" stroke-width="1pt" fill="none"/>
   <path id="path830" stroke-linejoin="round" d="m57.196 210.94s-5.992 5.9921-3.0868 6.7183c2.9052 0.7263 5.992-4.721 5.992-4.721s0.00001 9.2604 2.5421 7.8078 9.9867-6.7183 9.9867-6.7183 2.5421-0.1815 3.0868 0c0.54473 0.1815 6.8999 5.6289 11.076 3.6315-2.3605 6.1736-5.0841 6.8999-5.0841 6.8999s-4.3578 5.6289-9.9867 4.3578c-5.6289-1.271-7.0815-3.6315-7.0815-3.6315s-4.721 0.3631-6.1736-1.8158c-1.4526-2.1788-1.9973-3.4499-1.9973-3.4499s-2.7236 2.7237-3.4499 1.4526c-0.72631-1.271 0-8.7157 4.1762-10.531z" fill-rule="evenodd" stroke="#2b2b2b" stroke-width="1.25" fill="#2b2b2b"/>
   <path id="path865" d="m91.151 202.59s-11.076-3.2683-14.889 2.1789c-3.8131 5.4472-2.9052 8.5342-0.90788 9.0788" stroke="#2b2b2b" stroke-width="1pt" fill="none"/>
   <path id="path866" d="m92.86 202.28c0 1.3059-0.93488 2.3645-2.0881 2.3645s-2.0881-1.0586-2.0881-2.3645 0.93488-2.3645 2.0881-2.3645 2.0881 1.0586 2.0881 2.3645z" fill-rule="evenodd"/>
   <path id="path867" d="m60.624 230.54s4.5164 6.9483 9.9014 8.8592-3.7348 3.561-9.1197-0.0869c-3.9085-5.2981-2.8662-9.1196-2.8662-9.1196s1.0423-1.0424 2.0845 0.3473z" fill-rule="evenodd" stroke="#2b2b2b" stroke-width="1pt" fill="#2b2b2b"/>
   <path id="path868" d="m99.275 271.54s-12.681-17.631-16.329-18.587c-3.6479-0.9554 2.7794-1.737 6.6878 1.9977 3.9084 3.7348-1.0423-6.0798-1.0423-6.0798l10.683 22.669z" fill-rule="evenodd" stroke="#2b2b2b" stroke-width="1pt" fill="#2b2b2b"/>
   <path id="path869" stroke-linejoin="round" d="m59.409 373.42c4.8638-1.3028 26.056 12.16 30.833 15.547 4.777 3.3874 14.765 1.216 14.765 1.216s-4.6033 2.7794-7.4695 3.4742 8.5118 0.6948 8.5118 0.6948-27.099 7.4695-54.632-7.0352c-2.5188-11.291 5.9061-13.81 7.9906-13.897z" fill-rule="evenodd" stroke="#2b2b2b" stroke-width="1.25" fill="#2b2b2b"/>
   <path id="path870" d="m90.416 275.88s-3.561-0.6949-5.385-2.7794c-1.8239-2.0845-4.4296-7.2089-7.1221-9.3803s-16.155-9.5541-21.019-9.0329c-4.8639 0.5212-6.3404-0.5211-6.9484-1.1291-0.60798-0.608-2.6056 0.2606-2.2582 2.7793 0.34742 2.5188-3.7347 8.0775-2.2582 10.683 1.4765 2.6056 8.4249 13.202 9.8146 13.549 1.3897 0.3474 0.52113 6.1666 0.52113 6.1666s6.1667 6.2535 7.7301 6.601c1.5634 0.3474 3.1268 1.4766 2.953 2.9531-0.17371 1.4765-6.7747 9.554-6.7747 9.554s-7.1221 3.7347-7.2089 5.8192c-0.08685 2.0845 1.7371 6.4273 7.3826 7.817 5.6456 1.3896 20.845 0.2605 21.627-1.0423 0.7817-1.3028 1.9976-9.1197 1.4765-9.9014-0.52113-0.7817-4.2559-3.1267-6.1667-2.7793-1.9108 0.3473-3.6479 1.9107-3.4742 2.2581 0.17371 0.3475-2.6925 1.824-2.6925 0.4344 0-1.3897 5.6456-7.6433 6.1667-7.1222 0.52113 0.5212 8.5118 1.3029 9.9883 5.2982s1.4765 6.8615 5.6455 6.4272c4.169-0.4342 9.9883-4.2558 10.509-12.246 0.5211-7.9906-4.6902-13.376-5.993-14.157-1.3028-0.7817-5.6456-3.3873-5.993-4.6033-0.34742-1.2159-1.216-5.2112-0.52113-6.1666z" fill-rule="evenodd" stroke="#2b2b2b" stroke-width="1pt" fill="#2b2b2b"/>
   <path id="path871" d="m15.286 311.15s13.462-3.4742 16.937-3.3873c3.4742 0.0869 16.589 6.1667 20.411 9.9014 3.8216 3.7347 11.638 12.594 16.763 11.812 5.1244-0.7816 6.6009-1.8238 6.6009-1.8238l-1.9976 3.8215s-4.169 1.1291-6.2535 0.608c-2.0845-0.5212-6.1667-1.8239-10.249-5.8193-4.0822-3.9953-16.676-14.765-27.359-13.984-10.683 0.7817-16.85 11.291-16.85 11.291s0.08686-5.1245 0.52113-6.2535c0.43427-1.1291-2.2582 2.4319-2.2582 2.4319l3.7348-8.5986z" fill-rule="evenodd" stroke="#2b2b2b" stroke-width="1pt" fill="#2b2b2b"/>
   <path id="path872" d="m64.88 321.57c0.08685 0.0868 3.3873 0.9554 8.946 0.9554s8.5118-2.432 8.5118-2.432l-0.34742-2.1714 0.86855-3.0398s4.2559 4.3427 4.169 5.2112c-0.08686 0.8686-1.7371 1.216-1.7371 1.216l-0.60797-2.0845-1.4765 1.824s-8.0775 6.4272-12.507 5.4718c-4.4296-0.9555-8.5117-3.8217-7.3826-4.5165s1.7371-0.4342 1.5634-0.4342z" fill-rule="evenodd" stroke="#2b2b2b" stroke-width="1pt" fill="#2b2b2b"/>
   <path id="path873" d="m45.251 332.95s-4.8639-0.0868-7.0352 0.9554c-2.1714 1.0423-2.9531 2.3451-4.4296 2.1714-1.4765-0.1738-2.6056-2.0846-2.1714-2.8663 0.60798-1.216 3.4742-2.7793 8.946-2.345s4.6902 2.0845 4.6902 2.0845z" fill-rule="evenodd" stroke="#2b2b2b" stroke-width="1pt" fill="#2b2b2b"/>
   <path id="path874" d="m62.275 346.15c0-0.2605-0.34742-7.1221-3.0399-9.9014s-5.993-2.7794-7.4695-2.432c-1.4765 0.3475 5.4718 3.3873 6.1667 5.385 0.69484 1.9977 2.9531 7.5565 2.3451 8.9461-0.60799 1.3896-1.7371-3.9085-5.993-5.385s-10.162-0.6948-8.946 1.216 5.993 0.1736 8.4249 4.2558 4.2559 8.4249 4.2559 8.4249l0.78169-2.953 2.1714-0.608 0.26057-5.6456 1.0422-1.3028z" fill-rule="evenodd" stroke="#2b2b2b" stroke-width="1pt" fill="#2b2b2b"/>
   <path id="path875" stroke-linejoin="round" d="m58.801 368.38-4.4296-8.8592s-1.3897-5.6455-5.1244-7.2089c-3.7348-1.5634-8.6855-1.3028-8.7723 0.608-0.08686 1.9108 7.9906 4.3427 8.5118 5.385 0.52113 1.0422 0.26056 2.7793-0.43427 2.8662-0.69484 0.0868-4.2559-1.3028-6.0798-0.8686-1.824 0.4343-2.8662 2.7794-5.5587 2.0845-2.6925-0.6948-4.9507-9.2935-3.9085-10.162 1.0423-0.8685-1.9976 1.5634-2.6056-0.6948-0.60799-2.2582 0.86854-9.2935-0.17371-10.162-1.0423-0.8685-6.0798-3.9084-6.1667-4.5164-0.08685-0.608 0.26057-34.568 28.662-6.4273-12.16-14.418-16.937-12.854-19.195-12.941-1.6502 0-12.681 0.9553-15.46 15.026-2.7793 14.07-6.0798 5.2982-6.0798 5.2982s-0.60798 6.0799 2.3451 7.8169c2.953 1.7371-1.3897 6.7746-1.3897 6.7746s-5.2981-12.941-4.5164-18.587c-1.0423 4.5165-0.9554 15.721 5.7324 27.967 7.8169 8.2511 15.2 15.894 34.829 24.493 10.336-15.808 9.8146-17.718 9.8146-17.892z" fill-rule="evenodd" stroke="#2b2b2b" stroke-width="1.25" fill="#2b2b2b"/>
   <path id="path876" stroke-linejoin="round" d="m40.214 368.47s5.7324 0.6949 7.2958 3.648c1.5634 2.953 2.2582 7.4694 2.2582 7.4694 0.9554-1.9107 1.3897-3.561 3.3005-4.9507s3.3005-1.5634 3.2136-2.6056c-0.08686-1.0423-6.0798-7.3826-9.1197-7.7301-3.0399-0.3474-8.338 3.3005-8.338 3.3005s-0.9554 1.3897 1.3897 0.8685z" fill-rule="evenodd" stroke="#2b2b2b" stroke-width="1.25" fill="#8a9396"/>
   <path id="path877" d="m53.307 383.41s14.856 6.7725 39.325 7.2095" stroke="#8a9396" stroke-linecap="round" stroke-width="1.25" fill="none"/>
   <path id="path878" d="m102.9 314.45s-1.2783 12.464-10.866 37.071" stroke="#2b2b2b" stroke-linecap="round" stroke-width="1.25" fill="none"/>
   <path id="path880" d="m100.99 322.12s-2.8763 8.9482-10.866 15.659" stroke="#2b2b2b" stroke-width="1pt" fill="none"/>
  </g>
 </g>
 <metadata id="metadata4897">
  <rdf:RDF>
   <cc:Work rdf:about="">
    <dc:title>South Georgia and South Sandwich Islands</dc:title>
    <dc:description/>
    <dc:subject>
     <rdf:Bag>
      <rdf:li>united_kingdom</rdf:li>
      <rdf:li>flags</rdf:li>
      <rdf:li>antarctic</rdf:li>
      <rdf:li>sign</rdf:li>
      <rdf:li>signs_and_symbols</rdf:li>
      <rdf:li/>
      <rdf:li>europe</rdf:li>
     </rdf:Bag>
    </dc:subject>
    <dc:publisher>
     <cc:Agent rdf:about="http://www.openclipart.org">
      <dc:title>Tobias Jakobs</dc:title>
     </cc:Agent>
    </dc:publisher>
    <dc:creator>
     <cc:Agent rdf:about="">
      <dc:title>Tobias Jakobs</dc:title>
     </cc:Agent>
    </dc:creator>
    <dc:rights>
     <cc:Agent rdf:about="">
      <dc:title>Tobias Jakobs</dc:title>
     </cc:Agent>
    </dc:rights>
    <dc:date/>
    <dc:format>image/svg+xml</dc:format>
    <dc:type rdf:resource="http://purl.org/dc/dcmitype/StillImage"/>
    <cc:license rdf:resource="http://web.resource.org/cc/PublicDomain">
     <dc:date/>
    </cc:license>
    <dc:language>en</dc:language>
   </cc:Work>
   <cc:License rdf:about="http://web.resource.org/cc/PublicDomain">
    <cc:permits rdf:resource="http://web.resource.org/cc/Reproduction"/>
    <cc:permits rdf:resource="http://web.resource.org/cc/Distribution"/>
    <cc:permits rdf:resource="http://web.resource.org/cc/DerivativeWorks"/>
   </cc:License>
  </rdf:RDF>
 </metadata>
</svg>
