<?xml version="1.0" encoding="UTF-8" standalone="no"?>
<!-- Created with Sodipodi ("http://www.sodipodi.com/") -->
<svg id="svg378" xmlns:rdf="http://www.w3.org/1999/02/22-rdf-syntax-ns#" xmlns="http://www.w3.org/2000/svg" height="480" width="640" version="1" y="0" x="0" xmlns:cc="http://creativecommons.org/ns#" xmlns:dc="http://purl.org/dc/elements/1.1/">
 <metadata id="metadata3616">
  <rdf:RDF>
   <cc:Work rdf:about="">
    <dc:format>image/svg+xml</dc:format>
    <dc:type rdf:resource="http://purl.org/dc/dcmitype/StillImage"/>
   </cc:Work>
  </rdf:RDF>
 </metadata>
 <defs id="defs380">
  <clipPath id="clipPath3395" clipPathUnits="userSpaceOnUse">
   <rect id="rect3397" fill-opacity="0.67" height="512" width="682.67" y="0" x="-89.048"/>
  </clipPath>
 </defs>
 <g id="flag" clip-path="url(#clipPath3395)" transform="matrix(.9375 0 0 .9375 83.483 0)">
  <rect id="rect148" fill-rule="evenodd" transform="scale(-1)" height="512" width="731.43" y="-512" x="-618" stroke-width="1pt" fill="#ba0000"/>
  <g id="g694" transform="matrix(.68808 0 0 .68808 -123.29 4.5459)">
   <g id="g669" transform="translate(6.25 -3.75)">
    <path id="path573" d="m524.45 357.28s-75.02-32.301-64.255-116c10.421-40.29 28.828-67.727 62.17-82.661 15.629-4.863 31.607-6.947 47.93-8.336-4.284 4.052-7.872 8.104-9.724 13.198-3.59 9.146-0.927 17.945 3.819 26.743 6.02 10.188 9.607 20.723 10.766 34.384 2.199 19.218-6.02 37.743-21.186 48.973-9.61 7.409-20.954 9.956-30.217 18.407-7.177 7.063-11.576 14.126-13.197 26.396-0.232 23.386 6.137 26.629 13.894 38.9z" fill-rule="evenodd" fill="#fff"/>
    <path id="path574" d="m510.21 236.18v-0.347" fill-rule="evenodd" stroke="#000" stroke-width="2.3449pt" fill="#ba0000"/>
    <path id="path575" d="m514.95 348.59c-29.18-25.82-26.63-90.76-4.4-112.41" stroke="#ba0000" stroke-width="2.3449pt" fill="none"/>
    <polygon id="polygon638" fill-rule="evenodd" transform="matrix(.13567 -.030684 .026985 .12909 441.38 191.89)" points="569.1 365.81 591.04 433.16 591.04 433.16 533.77 391.48 476.5 433.15 498.45 365.81 441.12 324.21 511.95 324.28 533.78 256.9 555.61 324.28 626.44 324.23" fill="#ba0000"/>
   </g>
   <g id="g674" transform="matrix(.29302 .95611 -.95611 .29302 725 -258.13)">
    <path id="path675" d="m524.45 357.28s-75.02-32.301-64.255-116c10.421-40.29 28.828-67.727 62.17-82.661 15.629-4.863 31.607-6.947 47.93-8.336-4.284 4.052-7.872 8.104-9.724 13.198-3.59 9.146-0.927 17.945 3.819 26.743 6.02 10.188 9.607 20.723 10.766 34.384 2.199 19.218-6.02 37.743-21.186 48.973-9.61 7.409-20.954 9.956-30.217 18.407-7.177 7.063-11.576 14.126-13.197 26.396-0.232 23.386 6.137 26.629 13.894 38.9z" fill-rule="evenodd" fill="#fff"/>
    <path id="path676" d="m510.21 236.18v-0.347" fill-rule="evenodd" stroke="#000" stroke-width="2.3449pt" fill="#ba0000"/>
    <path id="path677" d="m514.95 348.59c-29.18-25.82-26.63-90.76-4.4-112.41" stroke="#ba0000" stroke-width="2.3449pt" fill="none"/>
    <polygon id="polygon678" fill-rule="evenodd" transform="matrix(.13567 -.030684 .026985 .12909 441.38 191.89)" points="569.1 365.81 591.04 433.16 591.04 433.16 533.77 391.48 476.5 433.15 498.45 365.81 441.12 324.21 511.95 324.28 533.78 256.9 555.61 324.28 626.44 324.23" fill="#ba0000"/>
   </g>
   <g id="g679" transform="matrix(-.81354 .58150 -.58150 -.81354 1177.1 339.55)">
    <path id="path680" d="m524.45 357.28s-75.02-32.301-64.255-116c10.421-40.29 28.828-67.727 62.17-82.661 15.629-4.863 31.607-6.947 47.93-8.336-4.284 4.052-7.872 8.104-9.724 13.198-3.59 9.146-0.927 17.945 3.819 26.743 6.02 10.188 9.607 20.723 10.766 34.384 2.199 19.218-6.02 37.743-21.186 48.973-9.61 7.409-20.954 9.956-30.217 18.407-7.177 7.063-11.576 14.126-13.197 26.396-0.232 23.386 6.137 26.629 13.894 38.9z" fill-rule="evenodd" fill="#fff"/>
    <path id="path681" d="m510.21 236.18v-0.347" fill-rule="evenodd" stroke="#000" stroke-width="2.3449pt" fill="#ba0000"/>
    <path id="path682" d="m514.95 348.59c-29.18-25.82-26.63-90.76-4.4-112.41" stroke="#ba0000" stroke-width="2.3449pt" fill="none"/>
    <polygon id="polygon683" fill-rule="evenodd" transform="matrix(.13567 -.030684 .026985 .12909 441.38 191.89)" points="569.1 365.81 591.04 433.16 591.04 433.16 533.77 391.48 476.5 433.15 498.45 365.81 441.12 324.21 511.95 324.28 533.78 256.9 555.61 324.28 626.44 324.23" fill="#ba0000"/>
   </g>
   <g id="g684" transform="matrix(-.78657 -.61750 .61750 -.78657 732.78 966.96)">
    <path id="path685" d="m524.45 357.28s-75.02-32.301-64.255-116c10.421-40.29 28.828-67.727 62.17-82.661 15.629-4.863 31.607-6.947 47.93-8.336-4.284 4.052-7.872 8.104-9.724 13.198-3.59 9.146-0.927 17.945 3.819 26.743 6.02 10.188 9.607 20.723 10.766 34.384 2.199 19.218-6.02 37.743-21.186 48.973-9.61 7.409-20.954 9.956-30.217 18.407-7.177 7.063-11.576 14.126-13.197 26.396-0.232 23.386 6.137 26.629 13.894 38.9z" fill-rule="evenodd" fill="#fff"/>
    <path id="path686" d="m510.21 236.18v-0.347" fill-rule="evenodd" stroke="#000" stroke-width="2.3449pt" fill="#ba0000"/>
    <path id="path687" d="m514.95 348.59c-29.18-25.82-26.63-90.76-4.4-112.41" stroke="#ba0000" stroke-width="2.3449pt" fill="none"/>
    <polygon id="polygon688" fill-rule="evenodd" transform="matrix(.13567 -.030684 .026985 .12909 441.38 191.89)" points="569.1 365.81 591.04 433.16 591.04 433.16 533.77 391.48 476.5 433.15 498.45 365.81 441.12 324.21 511.95 324.28 533.78 256.9 555.61 324.28 626.44 324.23" fill="#ba0000"/>
   </g>
   <g id="g689" transform="matrix(.32107 -.94705 .94705 .32107 25.287 742.5)">
    <path id="path690" d="m524.45 357.28s-75.02-32.301-64.255-116c10.421-40.29 28.828-67.727 62.17-82.661 15.629-4.863 31.607-6.947 47.93-8.336-4.284 4.052-7.872 8.104-9.724 13.198-3.59 9.146-0.927 17.945 3.819 26.743 6.02 10.188 9.607 20.723 10.766 34.384 2.199 19.218-6.02 37.743-21.186 48.973-9.61 7.409-20.954 9.956-30.217 18.407-7.177 7.063-11.576 14.126-13.197 26.396-0.232 23.386 6.137 26.629 13.894 38.9z" fill-rule="evenodd" fill="#fff"/>
    <path id="path691" d="m510.21 236.18v-0.347" fill-rule="evenodd" stroke="#000" stroke-width="2.3449pt" fill="#ba0000"/>
    <path id="path692" d="m514.95 348.59c-29.18-25.82-26.63-90.76-4.4-112.41" stroke="#ba0000" stroke-width="2.3449pt" fill="none"/>
    <polygon id="polygon693" fill-rule="evenodd" transform="matrix(.13567 -.030684 .026985 .12909 441.38 191.89)" points="569.1 365.81 591.04 433.16 591.04 433.16 533.77 391.48 476.5 433.15 498.45 365.81 441.12 324.21 511.95 324.28 533.78 256.9 555.61 324.28 626.44 324.23" fill="#ba0000"/>
   </g>
  </g>
 </g>
</svg>
