<?xml version="1.0" encoding="UTF-8" standalone="no"?>
<!-- Created with Sodipodi ("http://www.sodipodi.com/") -->
<svg id="svg557" xmlns:rdf="http://www.w3.org/1999/02/22-rdf-syntax-ns#" xmlns="http://www.w3.org/2000/svg" height="480" width="640" version="1" y="0" x="0" xmlns:cc="http://creativecommons.org/ns#" xmlns:xlink="http://www.w3.org/1999/xlink" xmlns:dc="http://purl.org/dc/elements/1.1/">
 <metadata id="metadata3779">
  <rdf:RDF>
   <cc:Work rdf:about="">
    <dc:format>image/svg+xml</dc:format>
    <dc:type rdf:resource="http://purl.org/dc/dcmitype/StillImage"/>
   </cc:Work>
  </rdf:RDF>
 </metadata>
 <defs id="defs559">
  <clipPath id="clipPath3868" clipPathUnits="userSpaceOnUse">
   <rect id="rect3870" fill-opacity="0.67" height="480" width="640" y="0" x="0"/>
  </clipPath>
 </defs>
 <g id="flag" clip-path="url(#clipPath3868)">
  <rect id="rect675" fill-rule="evenodd" height="170.15" width="936.34" y="135.66" x="-148.86" stroke-width="1pt" fill="#fff"/>
  <rect id="rect714" fill-rule="evenodd" height="190.24" width="938.16" y="289.76" x="-148.01" stroke-width="1pt" fill="#003e9f"/>
  <rect id="rect713" fill-rule="evenodd" height="159.51" width="939.68" y="-.0000011293" x="-150.15" stroke-width="1pt" fill="#d61517"/>
  <g id="g3353" transform="matrix(1.2446 0 0 1.2446 -78.769 -50.054)">
   <path id="path683" d="m242.64 155.17c24.536-8.728 51.74-13.437 78.329-13.504 26.589-0.0671 53.705 4.1048 80.499 13.706l19.944-40.235-14.018-24.419s-25.011 10.273-25.216 10.273c-0.20533 0-17.635-19.182-17.635-19.182l-22.39 13.523-21.01-16.073-19.78 15.825-23.08-13.34-16.83 20.008-25.24-10.792-13.51 24.195 19.932 40.015z" fill-rule="evenodd" stroke="#e5141d" stroke-linecap="round" stroke-width="1.0662" fill="#fff"/>
   <path id="path680" d="m370.5 144.01 11.42-40.371 24.457-9.9251 12.885 21.634-18.5 37.839c-10.634-4.2488-16.331-6.0691-30.263-9.1767z" fill-rule="evenodd" stroke="#0084fd" stroke-width=".26655pt" fill="#00a7bd"/>
   <path id="path671" d="m273.69 144.11-10.675-39.69 16.061-19.712 22.854 13.194 3.8571 41.721c-11.167 0.82858-19.238 1.8891-32.098 4.4869z" stroke-opacity=".99608" stroke-width="1pt" fill="none"/>
   <path id="path672" d="m306.1 139.64-3.8565-41.811 19.436-15.45 20.307 15.412-3.5884 41.886c-11.189-0.59169-19.18-0.57387-32.298-0.0376z" fill-rule="evenodd" stroke="#0084fd" stroke-width=".26655pt" fill="#00a7bd"/>
   <path id="path670" d="m243.61 153.16-18.117-38.322 12.108-21.155 25.099 10.924 10.605 39.535c-11.46 2.3697-17.528 4.306-29.695 9.0166z" stroke-opacity=".99608" fill-rule="evenodd" stroke="#0084fd" stroke-width=".26655pt" fill="#00a7bd"/>
   <path id="path561" d="m237.97 131.93c5.7045 1.155 9.7695 1.1965 14.885-0.20619 6.1113-2.5025 8.2699-5.8715 10.26-8.5802 0.92521 5.7202-0.042 10.904-7.022 14.562-6.2655 2.8877-14.717 1.0727-18.123-5.7751z" fill-rule="evenodd" stroke="#fff" stroke-width=".26655pt" fill="#fff"/>
   <g id="g591" stroke-width="1pt" transform="matrix(.26911 0 0 .26401 215.86 72.486)">
    <path id="path568" d="m410.94 120.56-4.063 1.016 0.156 7.5-5 1.094-3.497 6.614 2.159 2.044c0.111 0.221-1.703 4.892-1.625 4.892s1.323 1.762 1.323 1.762l1.328 4.063 3.359 0.468 0.86 4.766 5.312 0.859 4.922 3.516 0.312 2.188 5.625 0.156 3.829 1.25 13.359-1.563 1.797-2.812 0.156-3.828 7.188-0.235 0.657-6.105h3.809l-0.474-6.875 3.177 0.286-0.82-3.295-1.975-2.683-0.39-4.218-5.625-5.625-1.25-7.344s-3.594-1.641-3.594-1.719-0.234-4.922-0.234-4.922l4.062-5.703-0.39-2.265-3.75-0.079-2.813 2.344s-3.75 0.391-3.75 0.469v1.719s0.938 3.203 0.938 3.281-4.297 0-4.297 0l-0.157-5.078-6.093-3.047s-5.703 3.906-5.703 3.984-0.313 4.532-0.313 4.532l-2.734 0.781-2.813-4.219-4.922-1.875-2.656-0.156-0.078 3.281 5.156 6.797-0.468 3.984z" stroke-opacity=".99608" fill-rule="evenodd" fill-opacity=".99608" stroke="#544b20" fill="#faf703"/>
    <path id="path570" d="m449.23 148.04-1.105-4.088" stroke="#544b20" fill="none"/>
    <path id="path571" d="m452.33 141.3-1.878-2.762" stroke="#544b20" fill="none"/>
    <path id="path576" d="m400.84 138.21 5.856-0.332 1.105 5.303 1.988 1.768 0.332 9.723 1.878 0.773 0.553-3.867 4.53-0.331 0.883 7.844-1.104 0.995 0.442 1.215 5.413-0.11s1.216-2.1 1.326-2.1c0.111 0 3.094-0.331 3.094-0.221 0 0.111 1.215 2.321 1.215 2.321l0.884-2.984s2.873-1.215 2.873-1.104c0 0.11 2.32 3.756 2.32 3.756l3.977-0.552-2.43-2.32-0.995-5.083 5.524-2.983 2.21 3.757s2.099 0.11 1.989 0c-0.111-0.111-2.431-4.309-2.431-4.309v-8.839l4.199-5.745 5.855-0.663v-2.431l-5.855-5.414-1.547-7.513-3.315-1.657-0.884 0.994-3.646 0.332 3.646 5.414v3.535l1.658 0.884-0.332 9.723s-4.088 0.552-4.088 0.663c0 0.11-0.331 5.413-0.331 5.413l-2.541 2.542s-1.437 5.082-1.547 5.082c-0.111 0-2.431 3.093-2.431 3.093l-4.53 0.111s-2.651-2.541-2.651-2.652c0-0.11-0.442-3.756-0.442-3.756s-1.768-0.553-1.879-0.553c-0.11 0-0.994-4.088-0.994-4.088l-3.094-1.767-0.22-2.431-2.984-1.326s-0.331-2.21-0.442-2.32c-0.11-0.111-1.436-0.994-1.546-0.994-0.111 0-0.111-6.077-0.111-6.077l2.652-0.442-1.485-1.94-0.504-1.706v-1.768l2.21-2.21s-3.978-0.552-3.978-0.442c0 0.111-3.866 1.768-3.866 1.658 0.11 0-0.111 7.181-0.111 7.181l-4.53 1.437-3.646 5.855 1.878 1.658z" stroke-opacity=".99999" fill-rule="evenodd" stroke="#544b21" fill="#544b20"/>
    <path id="path577" d="m423.71 148.04 2.983-1.768-0.111-3.425-2.872-0.663-1.106-1.105 3.205 0.553 3.977-0.332 1.326-0.663c-0.552 1.437-0.994 1.326-1.105 1.326-0.11 0-2.209 1.105-2.209 1.105l0.11 3.315s6.85 0.883 6.74 0.883c-0.111 0 0 1.326-0.221 1.326s-7.071-1.547-7.071-1.547l-4.309 2.652 0.663-1.657z" fill-rule="evenodd" stroke="#544b20" fill="#544b20"/>
    <path id="path578" d="m440.95 127.49-3.977 3.093-2.541 4.53-1.326 0.221-3.867-5.193-4.419 0.111s-2.431 6.076-2.431 6.187c0 0.11-1.768-0.221-1.768-0.221l-4.64-5.082s-1.437-2.542-1.216-2.542 11.601 0.111 11.601 0.111l-0.11-5.524s-1.768-0.553-2.652-1.105c0.663-0.221 6.298-0.221 6.298-0.221l-2.431 1.657v4.751l10.054 0.11 3.425-0.883z" fill-rule="evenodd" stroke="#544b20" fill="#544b20"/>
    <rect id="rect579" fill-rule="evenodd" fill-opacity=".99608" ry="1.3258" height="2.6516" width="2.6516" y="130.14" x="419.51" fill="#796a3a"/>
    <rect id="rect580" fill-rule="evenodd" ry="1.3258" height="2.6516" width="2.6516" y="129.59" x="432.11" fill="#7a6b3a"/>
    <path id="path581" d="m413.55 121.3c4.198-1.694 7.181-3.056 12.374-3.535 4.898-0.516 8.692 0.184 13.037 0.994" stroke="#544b20" fill="none"/>
    <path id="path584" d="m415.87 112.35h-3.425l-4.862-5.193 2.763 0.332 3.204 1.436 2.32 3.425z" fill-rule="evenodd" stroke="#544b20" fill="#544b20"/>
    <path id="path585" d="m436.53 110.36 7.734-5.965-2.541-0.332-2.873 2.651-3.425 0.553 1.105 3.093z" fill-rule="evenodd" stroke="#544b20" fill="#544b20"/>
    <path id="path586" d="m431.97 111.46-12.123 0.451 0.11-1.326 4.42-0.442 0.552-1.767s1.326-0.11 1.326 0c0 0.111 0.994 1.657 0.994 1.657l4.309 0.773 0.412 0.654z" fill-rule="evenodd" stroke="#544b20" fill="#544b20"/>
    <path id="path587" d="m431.34 106.83-4.198 0.11-0.332-2.32 4.53 2.21z" fill-rule="evenodd" stroke="#544b20" fill="#544b20"/>
    <path id="path588" d="m424.26 104.73-0.332 2.319-4.087 0.663 4.419-2.982z" fill-rule="evenodd" stroke="#544b20" fill="#544b20"/>
    <path id="path589" d="m401.06 147.04 2.099-5.303-1.878-3.646-1.878 5.414 1.657 3.535z" fill-rule="evenodd" stroke="#544b20" fill="#544b20"/>
    <path id="path590" d="m405.37 149.81 2.541-6.298-4.861 5.082 2.32 1.216z" fill-rule="evenodd" transform="translate(-.11047 .11044)" stroke="#544b20" fill="#544b20"/>
   </g>
   <g id="g576" stroke-width="1pt" transform="matrix(.26911 0 0 .26401 197.81 73.069)">
    <path id="path579" d="m410.94 120.56-4.063 1.016 0.156 7.5-5 1.094-3.497 6.614 2.159 2.044c0.111 0.221-1.703 4.892-1.625 4.892s1.323 1.762 1.323 1.762l1.328 4.063 3.359 0.468 0.86 4.766 5.312 0.859 4.922 3.516 0.312 2.188 5.625 0.156 3.829 1.25 13.359-1.563 1.797-2.812 0.156-3.828 7.188-0.235 0.657-6.105h3.809l-0.474-6.875 3.177 0.286-0.82-3.295-1.975-2.683-0.39-4.218-5.625-5.625-1.25-7.344s-3.594-1.641-3.594-1.719-0.234-4.922-0.234-4.922l4.062-5.703-0.39-2.265-3.75-0.079-2.813 2.344s-3.75 0.391-3.75 0.469v1.719s0.938 3.203 0.938 3.281-4.297 0-4.297 0l-0.157-5.078-6.093-3.047s-5.703 3.906-5.703 3.984-0.313 4.532-0.313 4.532l-2.734 0.781-2.813-4.219-4.922-1.875-2.656-0.156-0.078 3.281 5.156 6.797-0.468 3.984z" stroke-opacity=".99608" fill-rule="evenodd" fill-opacity=".99608" stroke="#544b20" fill="#faf703"/>
    <path id="path580" d="m449.23 148.04-1.105-4.088" stroke="#544b20" fill="none"/>
    <path id="path591" d="m452.33 141.3-1.878-2.762" stroke="#544b20" fill="none"/>
    <path id="path592" d="m400.84 138.21 5.856-0.332 1.105 5.303 1.988 1.768 0.332 9.723 1.878 0.773 0.553-3.867 4.53-0.331 0.883 7.844-1.104 0.995 0.442 1.215 5.413-0.11s1.216-2.1 1.326-2.1c0.111 0 3.094-0.331 3.094-0.221 0 0.111 1.215 2.321 1.215 2.321l0.884-2.984s2.873-1.215 2.873-1.104c0 0.11 2.32 3.756 2.32 3.756l3.977-0.552-2.43-2.32-0.995-5.083 5.524-2.983 2.21 3.757s2.099 0.11 1.989 0c-0.111-0.111-2.431-4.309-2.431-4.309v-8.839l4.199-5.745 5.855-0.663v-2.431l-5.855-5.414-1.547-7.513-3.315-1.657-0.884 0.994-3.646 0.332 3.646 5.414v3.535l1.658 0.884-0.332 9.723s-4.088 0.552-4.088 0.663c0 0.11-0.331 5.413-0.331 5.413l-2.541 2.542s-1.437 5.082-1.547 5.082c-0.111 0-2.431 3.093-2.431 3.093l-4.53 0.111s-2.651-2.541-2.651-2.652c0-0.11-0.442-3.756-0.442-3.756s-1.768-0.553-1.879-0.553c-0.11 0-0.994-4.088-0.994-4.088l-3.094-1.767-0.22-2.431-2.984-1.326s-0.331-2.21-0.442-2.32c-0.11-0.111-1.436-0.994-1.546-0.994-0.111 0-0.111-6.077-0.111-6.077l2.652-0.442-1.485-1.94-0.504-1.706v-1.768l2.21-2.21s-3.978-0.552-3.978-0.442c0 0.111-3.866 1.768-3.866 1.658 0.11 0-0.111 7.181-0.111 7.181l-4.53 1.437-3.646 5.855 1.878 1.658z" stroke-opacity=".99999" fill-rule="evenodd" stroke="#544b21" fill="#544b20"/>
    <path id="path593" d="m423.71 148.04 2.983-1.768-0.111-3.425-2.872-0.663-1.106-1.105 3.205 0.553 3.977-0.332 1.326-0.663c-0.552 1.437-0.994 1.326-1.105 1.326-0.11 0-2.209 1.105-2.209 1.105l0.11 3.315s6.85 0.883 6.74 0.883c-0.111 0 0 1.326-0.221 1.326s-7.071-1.547-7.071-1.547l-4.309 2.652 0.663-1.657z" fill-rule="evenodd" stroke="#544b20" fill="#544b20"/>
    <path id="path594" d="m440.95 127.49-3.977 3.093-2.541 4.53-1.326 0.221-3.867-5.193-4.419 0.111s-2.431 6.076-2.431 6.187c0 0.11-1.768-0.221-1.768-0.221l-4.64-5.082s-1.437-2.542-1.216-2.542 11.601 0.111 11.601 0.111l-0.11-5.524s-1.768-0.553-2.652-1.105c0.663-0.221 6.298-0.221 6.298-0.221l-2.431 1.657v4.751l10.054 0.11 3.425-0.883z" fill-rule="evenodd" stroke="#544b20" fill="#544b20"/>
    <rect id="rect595" fill-rule="evenodd" fill-opacity=".99608" ry="1.3258" height="2.6516" width="2.6516" y="130.14" x="419.51" fill="#796a3a"/>
    <rect id="rect596" fill-rule="evenodd" ry="1.3258" height="2.6516" width="2.6516" y="129.59" x="432.11" fill="#7a6b3a"/>
    <path id="path597" d="m413.55 121.3c4.198-1.694 7.181-3.056 12.374-3.535 4.898-0.516 8.692 0.184 13.037 0.994" stroke="#544b20" fill="none"/>
    <path id="path600" d="m415.87 112.35h-3.425l-4.862-5.193 2.763 0.332 3.204 1.436 2.32 3.425z" fill-rule="evenodd" stroke="#544b20" fill="#544b20"/>
    <path id="path601" d="m436.53 110.36 7.734-5.965-2.541-0.332-2.873 2.651-3.425 0.553 1.105 3.093z" fill-rule="evenodd" stroke="#544b20" fill="#544b20"/>
    <path id="path602" d="m431.97 111.46-12.123 0.451 0.11-1.326 4.42-0.442 0.552-1.767s1.326-0.11 1.326 0c0 0.111 0.994 1.657 0.994 1.657l4.309 0.773 0.412 0.654z" fill-rule="evenodd" stroke="#544b20" fill="#544b20"/>
    <path id="path603" d="m431.34 106.83-4.198 0.11-0.332-2.32 4.53 2.21z" fill-rule="evenodd" stroke="#544b20" fill="#544b20"/>
    <path id="path604" d="m424.26 104.73-0.332 2.319-4.087 0.663 4.419-2.982z" fill-rule="evenodd" stroke="#544b20" fill="#544b20"/>
    <path id="path605" d="m401.06 147.04 2.099-5.303-1.878-3.646-1.878 5.414 1.657 3.535z" fill-rule="evenodd" stroke="#544b20" fill="#544b20"/>
    <path id="path606" d="m405.37 149.81 2.541-6.298-4.861 5.082 2.32 1.216z" fill-rule="evenodd" transform="translate(-.11047 .11044)" stroke="#544b20" fill="#544b20"/>
   </g>
   <path id="path673" d="m338.69 139.62 3.6134-41.935 22.207-12.777 17.166 18.605-11.44 40.401c-11.089-2.2645-17.416-3.2348-31.546-4.2944z" stroke-opacity=".99608" fill-rule="evenodd" stroke="#001071" stroke-width=".26655pt" fill="#001070"/>
   <g id="g607" stroke-width="1pt" transform="matrix(.26911 0 0 .26401 207.16 88.736)">
    <path id="path608" d="m410.94 120.56-4.063 1.016 0.156 7.5-5 1.094-3.497 6.614 2.159 2.044c0.111 0.221-1.703 4.892-1.625 4.892s1.323 1.762 1.323 1.762l1.328 4.063 3.359 0.468 0.86 4.766 5.312 0.859 4.922 3.516 0.312 2.188 5.625 0.156 3.829 1.25 13.359-1.563 1.797-2.812 0.156-3.828 7.188-0.235 0.657-6.105h3.809l-0.474-6.875 3.177 0.286-0.82-3.295-1.975-2.683-0.39-4.218-5.625-5.625-1.25-7.344s-3.594-1.641-3.594-1.719-0.234-4.922-0.234-4.922l4.062-5.703-0.39-2.265-3.75-0.079-2.813 2.344s-3.75 0.391-3.75 0.469v1.719s0.938 3.203 0.938 3.281-4.297 0-4.297 0l-0.157-5.078-6.093-3.047s-5.703 3.906-5.703 3.984-0.313 4.532-0.313 4.532l-2.734 0.781-2.813-4.219-4.922-1.875-2.656-0.156-0.078 3.281 5.156 6.797-0.468 3.984z" stroke-opacity=".99608" fill-rule="evenodd" fill-opacity=".99608" stroke="#544b20" fill="#faf703"/>
    <path id="path609" d="m449.23 148.04-1.105-4.088" stroke="#544b20" fill="none"/>
    <path id="path610" d="m452.33 141.3-1.878-2.762" stroke="#544b20" fill="none"/>
    <path id="path611" d="m400.84 138.21 5.856-0.332 1.105 5.303 1.988 1.768 0.332 9.723 1.878 0.773 0.553-3.867 4.53-0.331 0.883 7.844-1.104 0.995 0.442 1.215 5.413-0.11s1.216-2.1 1.326-2.1c0.111 0 3.094-0.331 3.094-0.221 0 0.111 1.215 2.321 1.215 2.321l0.884-2.984s2.873-1.215 2.873-1.104c0 0.11 2.32 3.756 2.32 3.756l3.977-0.552-2.43-2.32-0.995-5.083 5.524-2.983 2.21 3.757s2.099 0.11 1.989 0c-0.111-0.111-2.431-4.309-2.431-4.309v-8.839l4.199-5.745 5.855-0.663v-2.431l-5.855-5.414-1.547-7.513-3.315-1.657-0.884 0.994-3.646 0.332 3.646 5.414v3.535l1.658 0.884-0.332 9.723s-4.088 0.552-4.088 0.663c0 0.11-0.331 5.413-0.331 5.413l-2.541 2.542s-1.437 5.082-1.547 5.082c-0.111 0-2.431 3.093-2.431 3.093l-4.53 0.111s-2.651-2.541-2.651-2.652c0-0.11-0.442-3.756-0.442-3.756s-1.768-0.553-1.879-0.553c-0.11 0-0.994-4.088-0.994-4.088l-3.094-1.767-0.22-2.431-2.984-1.326s-0.331-2.21-0.442-2.32c-0.11-0.111-1.436-0.994-1.546-0.994-0.111 0-0.111-6.077-0.111-6.077l2.652-0.442-1.485-1.94-0.504-1.706v-1.768l2.21-2.21s-3.978-0.552-3.978-0.442c0 0.111-3.866 1.768-3.866 1.658 0.11 0-0.111 7.181-0.111 7.181l-4.53 1.437-3.646 5.855 1.878 1.658z" stroke-opacity=".99999" fill-rule="evenodd" stroke="#544b21" fill="#544b20"/>
    <path id="path612" d="m423.71 148.04 2.983-1.768-0.111-3.425-2.872-0.663-1.106-1.105 3.205 0.553 3.977-0.332 1.326-0.663c-0.552 1.437-0.994 1.326-1.105 1.326-0.11 0-2.209 1.105-2.209 1.105l0.11 3.315s6.85 0.883 6.74 0.883c-0.111 0 0 1.326-0.221 1.326s-7.071-1.547-7.071-1.547l-4.309 2.652 0.663-1.657z" fill-rule="evenodd" stroke="#544b20" fill="#544b20"/>
    <path id="path613" d="m440.95 127.49-3.977 3.093-2.541 4.53-1.326 0.221-3.867-5.193-4.419 0.111s-2.431 6.076-2.431 6.187c0 0.11-1.768-0.221-1.768-0.221l-4.64-5.082s-1.437-2.542-1.216-2.542 11.601 0.111 11.601 0.111l-0.11-5.524s-1.768-0.553-2.652-1.105c0.663-0.221 6.298-0.221 6.298-0.221l-2.431 1.657v4.751l10.054 0.11 3.425-0.883z" fill-rule="evenodd" stroke="#544b20" fill="#544b20"/>
    <rect id="rect614" fill-rule="evenodd" fill-opacity=".99608" ry="1.3258" height="2.6516" width="2.6516" y="130.14" x="419.51" fill="#796a3a"/>
    <rect id="rect615" fill-rule="evenodd" ry="1.3258" height="2.6516" width="2.6516" y="129.59" x="432.11" fill="#7a6b3a"/>
    <path id="path616" d="m413.55 121.3c4.198-1.694 7.181-3.056 12.374-3.535 4.898-0.516 8.692 0.184 13.037 0.994" stroke="#544b20" fill="none"/>
    <path id="path619" d="m415.87 112.35h-3.425l-4.862-5.193 2.763 0.332 3.204 1.436 2.32 3.425z" fill-rule="evenodd" stroke="#544b20" fill="#544b20"/>
    <path id="path620" d="m436.53 110.36 7.734-5.965-2.541-0.332-2.873 2.651-3.425 0.553 1.105 3.093z" fill-rule="evenodd" stroke="#544b20" fill="#544b20"/>
    <path id="path621" d="m431.97 111.46-12.123 0.451 0.11-1.326 4.42-0.442 0.552-1.767s1.326-0.11 1.326 0c0 0.111 0.994 1.657 0.994 1.657l4.309 0.773 0.412 0.654z" fill-rule="evenodd" stroke="#544b20" fill="#544b20"/>
    <path id="path622" d="m431.34 106.83-4.198 0.11-0.332-2.32 4.53 2.21z" fill-rule="evenodd" stroke="#544b20" fill="#544b20"/>
    <path id="path623" d="m424.26 104.73-0.332 2.319-4.087 0.663 4.419-2.982z" fill-rule="evenodd" stroke="#544b20" fill="#544b20"/>
    <path id="path624" d="m401.06 147.04 2.099-5.303-1.878-3.646-1.878 5.414 1.657 3.535z" fill-rule="evenodd" stroke="#544b20" fill="#544b20"/>
    <path id="path625" d="m405.37 149.81 2.541-6.298-4.861 5.082 2.32 1.216z" fill-rule="evenodd" transform="translate(-.11047 .11044)" stroke="#544b20" fill="#544b20"/>
   </g>
   <path id="path628" d="m344.2 132.11-1.1131 1.3018 0.0856 1.0919 2.3117-0.042c0.74195-0.17504 0.92737-0.43403 1.0703-0.73499 0.22821-0.37093 0.0713-0.57395 0.12836-1.0708l-2.4828-0.54597z" stroke-opacity=".99652" fill-rule="evenodd" stroke="#a0210c" stroke-width=".26655pt" fill="#a0210c"/>
   <path id="path629" d="m349.76 135.38-0.9419 0.88178v1.008l2.055-0.042c0.74194-0.17504 0.84151-0.3081 0.98441-0.6088 0.22821-0.3712 0.15717-0.36407 0.21422-0.86093l-2.3117-0.37805z" stroke-opacity=".99652" fill-rule="evenodd" stroke="#a0210c" stroke-width=".26655pt" fill="#a0210c"/>
   <path id="path630" d="m358.79 132.57-1.0703 1.0919 0.0428 0.8398 2.1833 0.084c0.74195-0.17504 0.62758-0.13993 0.85605-0.52485 0.22821-0.37093 0.15717-0.44802 0.21422-0.94488l-2.2261-0.54596z" stroke-opacity=".99652" fill-rule="evenodd" stroke="#a0210c" stroke-width=".26655pt" fill="#a0210c"/>
   <path id="path631" d="m365.17 134.54-1.2414 1.0497v1.05l2.3117 0.21015c0.74195-0.17504 0.799-0.39205 0.98469-0.65104 0.22821-0.37093 0.1141-0.40604 0.17115-0.9029l-2.2261-0.75585z" stroke-opacity=".99652" fill-rule="evenodd" stroke="#a0210c" stroke-width=".26655pt" fill="#a0210c"/>
   <path id="path632" d="m349.63 107.08 4.3664 2.8977c0.8208-0.68087 2.5283-0.26823 3.1971-0.0795 1.2008 0.31338 2.0472 1.0244 3.0959 1.2134 1.9182 0.48207 4.2165 0.81498 5.9571 0.62595 1.7409-0.18876 3.203-1.0985 4.488-1.7599v-0.41977h-0.85605c-1.3897 0.50003-3.337 0.52748-4.8282 0.33159s-1.893-0.86436-4.1188-1.5075l-0.17115-0.42003c2.7019 0.12831 3.2506 0.0584 4.3817-0.43482 1.1058-0.29357 1.6039-0.93537 2.2283-1.3786l-0.0175-0.49633-0.81353-0.042c-1.0479 0.69803-1.7159 0.82423-3.3214 0.67718-1.461-0.14785-2.777-0.97947-3.7571-0.99689-1.0396 0.008-0.9906-0.48868-1.996-0.53752-1.5983-0.13992-3.3257 0.0731-4.8381 0.4372-1.8122 0.54596-2.0835 1.0077-2.9966 1.8898z" fill-rule="evenodd" stroke="#000" stroke-width=".26655pt" fill="#a0210c"/>
   <path id="path633" d="m350.48 106.43c0.41793 0.0951 0.88673 0.21543 1.2285 0.41001 0.34205 0.19457 0.25351 0.19061 0.62085 0.45963-0.0589-0.3477-0.0422-0.32288-0.27853-0.59613-0.23656-0.27351-0.62516-0.52194-0.93733-0.74581l-0.63349 0.4723z" fill-rule="evenodd" stroke="#000" stroke-width=".26655pt"/>
   <path id="path634" d="m354.13 109.56c0.008-0.37673-0.18569-0.7041-0.3294-1.0312-0.14344-0.3271-0.26185-0.60483-0.53204-0.93194 0.33774 0.095 0.5237 0.23998 0.81084 0.58372 0.28688 0.344 0.27019 0.68774 0.32913 1.1804l-0.27853 0.19906z" fill-rule="evenodd" stroke="#000" stroke-width=".26655pt"/>
   <path id="path635" d="m354.96 104.97c0.10146 0.2611 0.30034 0.44037 0.4688 0.99742 0.14559 0.5061 0.21502 1.2144 0.21502 1.2144-0.0549-0.377 0.0423-0.80364-0.0127-1.1806-0.0549-0.37674-0.26184-0.7041-0.31674-1.0811l-0.35443 0.0499z" fill-rule="evenodd" stroke="#000" stroke-width=".26655pt"/>
   <path id="path636" d="m358.51 105.19 0.17735 2.0878 0.20291-1.9634-0.38026-0.12434z" fill-rule="evenodd" stroke="#000" stroke-width=".26655pt"/>
   <path id="path637" d="m357.65 109.51c0.0845-0.33952 0.0676-0.67929 0.0253-1.0191-0.0423-0.33951-0.16066-0.62939-0.2788-1.0188 0.33773 0.28988 0.4731 0.65447 0.65879 1.0439 0 0.38915-0.10119 0.72866-0.40529 0.99399z" fill-rule="evenodd" stroke="#000" stroke-width=".26655pt"/>
   <path id="path638" d="m361.32 108.6c0.0127 0 0.10792 0.70833-0.0536 1.2179-0.16147 0.50953-0.27557 0.54676-0.57967 0.82027 0.40528-0.29807 0.75998-0.3976 0.88673-0.72074 0.12675-0.49713-0.20291-1.2427-0.25351-1.3174z" fill-rule="evenodd" stroke="#000" stroke-width=".26655pt"/>
   <path id="path639" d="m361.96 107.92c-0.25324 0.0414-0.30383-1.0109-0.45588-1.5162 0.1098-0.0581 0.21959-0.0414 0.32939 0.1988 0.11814 0.14098 0.0842 0.87835 0.12649 1.3174z" fill-rule="evenodd" stroke="#000" stroke-width=".26655pt"/>
   <path id="path640" d="m364.46 107.5 0.10145-0.8699 0.27854-0.0248v0.74556c0 0.0251-0.35443 0.17398-0.37999 0.14916z" fill-rule="evenodd" stroke="#000" stroke-width=".26655pt"/>
   <path id="path641" d="m364.26 109.84c0.16066 0.26506 0.44754 0.58002 0.48145 0.8699 0.0339 0.28988-0.0592 0.43086-0.27854 0.8699l0.40529 0.0248c0.21933-0.35192 0.28714-0.60457 0.25351-0.88204-0.0339-0.27774-0.16928-0.55521-0.45615-0.78305l-0.40556-0.0995z" fill-rule="evenodd" stroke="#000" stroke-width=".26655pt"/>
   <path id="path642" d="m367.28 110.06 0.10119 1.2176 0.3294-0.17398-0.0759-1.0436h-0.3547z" fill-rule="evenodd" stroke="#000" stroke-width=".26655pt"/>
   <path id="path643" d="m349.36 107.29c-0.98819 0.28592-1.3456 0.83188-1.8292 1.3037l-2.7842-1.4101c-0.45157 0.37463-0.62542 0.90977-0.40825 1.4576 0.21718 0.54755 1.0907 1.4048 1.7118 1.8285-0.15555 0.75638-0.38484 1.3272-0.65637 1.9906-0.30276 0.74581-0.95267 1.688-0.9715 1.9906-0.0371 0.34638-0.15017 1.0885 0.36788 1.2862 0.51831 0.19774 2.1847-0.13702 2.7406-0.10032-0.0904 0.29754-0.30679 0.81789-0.23305 1.0412 0.0737 0.22335 0.2231 0.2978 0.67548 0.31074-0.13026 0.27641-0.41148 0.62675-0.27665 0.79175 0.34931 0.26427 0.74948 0.2186 1.0861 0.19801-0.53096 0.61566-1.8574 1.8005-2.2877 2.3298-0.45534 0.61566-0.49436 1.2807 0.38807 1.2155-0.32832 0.3638-0.64399 0.71519-0.59367 1.0294 0.0759 0.37621 0.26508 0.6286 0.89588 0.41053-0.37326 0.84403-0.1281 1.6015 0.004 2.4824-0.31863 0.66661-0.18327 1.2839-0.26239 2.0495-0.6491 0.3675-0.72983 0.8464-1.1518 1.5854-0.38052 0.79994-1.0888 1.0183-1.4817 2.7346l2.5472 0.63519c0.0936-0.35297 0.42681-0.58213 0.52046-0.93484 0.0934-0.35298 0.0861-0.79255 0.0406-1.1828 0.5054-0.73183 1.528-2.2435 1.8566-3.0495 0.55626-0.297 0.96073-0.48286 1.3781-0.48286 0.4174 0 0.68301 0.24763 1.1257 0.48286-0.19591 0.67929-0.74517 1.4201-0.77693 2.3718v2.6261c-0.11087 0.65236-0.85282 0.66107-1.1658 2.6258l2.2883 0.59296c0.3886-0.66081 1.0041-0.75189 1.1655-1.0164l0.16524-2.7282c0.29118-1.2878 2.0969-2.3526 2.123-3.7518 0.64802-0.009 0.89265 0.0573 1.1496-0.0752 0.34527-0.12012 0.46368-0.31443 0.73334-0.55837 0.10387 0.42109 0.43515 0.45805 0.71584 0.45805 0.28042 0 0.83856-0.39601 1.0689-0.55706 0.16201 0.22837 0.24785 0.44433 0.5864 0.52406 0.33855 0.0797 1.2952-0.0634 1.6844-0.15709l-1.8803 3.0762c-0.0702 0.29648 0.0237 0.48155-0.12218 0.82766-0.13671 0.31074-0.41229 0.46043-0.53635 0.74661l2.1317 0.50927 0.34016-0.89762c0.45184-0.19035 0.81568-0.2941 1.053-0.58345 0.23736-0.28935 0.2352-0.83901 0.37165-1.1532 0.72822-0.52854 1.8728-1.6762 2.6766-2.6258 0.54577 0.0921 1.3187 0.54333 1.612 1.2176 0.0412 0.72338 0.0945 2.0537-0.23037 2.9754l-1.3816 2.1601-0.15662 0.3543 2.175 0.77485 1.3816-1.0589 0.0538-1.5104c0.69405-1.2255 1.6871-1.8953 2.6336-2.668 0-0.0425 0.10092-1.6221 0.063-1.6838-0.23387-0.17794-0.39183-0.071-0.47445-0.39759-0.0824-0.32631-0.0261-1.2224 0.0178-1.5735 0.13671-0.16949 0.42493-0.36406 0.41013-0.50874-0.37649-0.41317-0.26131-1.4827-0.14586-2.3166-0.0283-0.94963 1.2689-2.0724 1.4678-2.6258l0.081-0.99689c-0.13267-0.245-0.32805-0.39099-0.33451-0.59903-0.006-0.20777 0.25216-0.55203 0.41013-0.77248l0.27504-0.46914-0.0431-2.4566c-0.077-0.26532-0.30545-0.67902-0.52128-0.72153-0.2161-0.0422-0.53284 0.20038-0.77397 0.46729l-1.25 0.92271c-0.59932 0.18322-1.123 0.25529-2.1766-0.007l-1.6072 0.0319c-0.84394 0.23576-1.2842 0.27378-2.0778-0.0723l-0.95158 0.0153c-0.29657 0.16157-0.70697 0.42162-1.0288 0.48392-0.32159 0.062-0.75701 0.0747-1.0789-0.024-2.4565 0.16526-1.8464 0.34268-2.5485 0.49554-0.5638-0.10693-0.38295-0.38704-2.5744-0.40763l-0.8687-0.25424c-1.0961-0.72628-1.94-1.8858-2.6702-3.2188 2.2832-0.65395 3.2412-1.333 3.9339-2.8906l-3.2286 0.12065-4.5655-3.0337z" fill-rule="evenodd" stroke="#544b20" stroke-width=".26655pt" fill="#dc9103"/>
   <path id="path644" d="m348.22 111.27 0.91418 0.3873c0.11168 0.13279 0.32805 0.28592 0.47122 0.29489 0.14289 0.009 0.2648-0.13702 0.38698-0.24156l0.84152-0.44063c-0.49867-0.0721-0.65072-0.38149-1.1809-0.38149-0.53016 0-0.90288 0.27826-1.433 0.38149z" fill-rule="evenodd" stroke="#000" stroke-width=".26655pt"/>
   <path id="path645" d="m352.23 111.5c0.2971 0.1753 0.83614 0.5259 1.2804 0.5259 0.48629-0.0412 0.47848-0.38149 1.175-0.60827l1.0216-0.82581c-0.61628 0.007-1.9476 0.12751-2.6793 0.35113-0.61627 0.16157-0.75944 0.40578-0.79766 0.55705z" fill-rule="evenodd" stroke="#000" stroke-width=".26655pt"/>
   <path id="path646" d="m349.9 122.06c-0.00026 0.0755-0.12675 0.13068-0.19026 0.0412-0.0783-1.0713-0.31432-1.823-0.6448-2.6572 0.373 0.63467 0.68275 1.6614 0.83506 2.616z" fill-rule="evenodd" stroke="#000" stroke-width=".26655pt"/>
   <path id="path647" d="m352.51 126.45c-0.41551 0.0422-0.57913-0.019-0.99465 0.0232-0.0457-1.0779-0.0498-2.3106-0.043-3.0791 0.1585 0.0195 0.62192 0.5032 0.89614 1.2654 0.0716 0.56234 0.17493 1.197 0.14156 1.7905z" fill-rule="evenodd" stroke="#000" stroke-width=".26655pt"/>
   <path id="path648" d="m355.27 122.17c0.18731 0.0515 0.44835 0.0517 0.50944-0.0721 0.0794-0.22968-0.1569-0.47996-0.24544-0.76113-0.30813-0.60378-0.47902-1.2588-0.60793-1.5426-0.13563-0.0855-0.28176-0.0779-0.24946 0.0636 0.1768 0.53699 0.47983 2.1052 0.59339 2.3122z" fill-rule="evenodd" stroke="#000" stroke-width=".26655pt"/>
   <path id="path649" d="m358.21 121.85c0.0202 0.13016-0.42224-0.0591-0.49679-0.20724-0.006-0.2875-0.602-2.3903-0.50351-2.4716 0.12514-0.0613 0.5132 0.70279 0.63834 1.0544 0.0293 0.20804 0.29037 0.97287 0.36196 1.6244z" fill-rule="evenodd" stroke="#000" stroke-width=".26655pt"/>
   <path id="path650" d="m357.79 126.18c-0.0105 0.14705 0.33639 0.0261 0.4731-0.0845 0.39641-0.61962 0.88754-1.2701 1.0318-1.5183 0.0869-0.26533 0.52073-1.9536 0.38698-1.9402-0.0474-0.0489-0.42466 0.83742-0.91175 1.7121-0.50675 0.89075-0.9855 1.7456-0.98012 1.8309z" fill-rule="evenodd" stroke="#000" stroke-width=".26655pt"/>
   <path id="path651" d="m360.75 125.27c-0.14425 0.0694 0.28957-1.4597 0.32401-1.7306 0.0794-0.42822 0.19-1.1967 0.36384-2.192 0.21234 1.39-0.0382 2.8832-0.68785 3.9226z" fill-rule="evenodd" stroke="#000" stroke-width=".26655pt"/>
   <path id="path652" d="m362.52 120.59c-0.0947 0.0826-1.3633-2.0144-1.2468-2.0247 0.0326-0.0929 1.0633 1.3124 1.2105 1.5598 0.0614 0.11721 0.12218 0.29621 0.0363 0.46491z" fill-rule="evenodd" stroke="#000" stroke-width=".26655pt"/>
   <path id="path653" d="m365.49 122.15c-0.0947-0.0715-0.0568-0.74107-0.24462-1.4763-0.18757-0.73526-0.50674-1.4438-0.4435-1.645 0.0592-0.10587 0.26561-0.057 0.43004 0.0845 0.0783 0.39997 0.26158 1.9346 0.4766 2.9328-0.003 0.0966-0.1106 0.16236-0.21852 0.10402z" fill-rule="evenodd" stroke="#000" stroke-width=".26655pt"/>
   <path id="path654" d="m367.56 120.29c-0.10145-0.10798 0.27558 0.71995 0.55007 1.7036 0.2745 0.98395 0.41498 2.7219 0.48172 2.5984 0.18864-0.12514 0.15662-0.28117 0.45049-0.34453 0.29361-0.0631 1.3865 0.0385 1.323-0.0349-0.67602-0.6022-1.2996-1.1014-1.7654-1.7551-0.46557-0.65368-0.7737-1.5138-1.0399-2.1675z" fill-rule="evenodd" stroke="#000" stroke-width=".26655pt"/>
   <path id="path655" d="m370.12 129.26c-0.21206 0.15286-0.61331 0.27456-0.73065 0.21094-0.64452-1.3404-1.0054-2.2166-1.9024-3.6499-0.23117-0.3403-0.80654-0.28777-0.77397-0.42188 0.0215-0.15471 0.3232-0.0927 0.51831-0.31707 0.19511-0.22414 0.22067-0.50795 0.3415-0.61091-0.26373 0.61856 0.42897 1.5671 0.81703 2.3198 0.25808 0.0702 0.46342 0.0686 0.58479 0.22124 0.0288 0.0723-0.27907 0.12355-0.23978 0.38149l0.65448 1.3179c0.21314 0.15998 0.54173 0.24816 0.85982 0.29516 0.0832 0.0739-0.0651 0.17899-0.12917 0.25318z" fill-rule="evenodd" stroke="#000" stroke-width=".26655pt"/>
   <path id="path674" d="m370.48 144 11.513-40.577 24.437-9.8439 12.96 21.913-18.55 37.669c-10.493-3.9653-16.493-6.0837-30.36-9.1602z" stroke-opacity=".99608" stroke-width="1pt" fill="none"/>
   <path id="path656" d="m371.46 117.54c0.40448 0.0224 0.76993 0.0578 0.88996-0.14785 0.24731-0.50926 0.39075-0.92903 0.22417-1.2601-0.63403 0.051-1.1131 0.34295-1.3719 0.90185 0.008 0.19404 0.0552 0.3374 0.25781 0.5061z" fill-rule="evenodd" stroke="#000" stroke-width=".26655pt"/>
   <path id="path681" d="m378.12 117.16c6.2685 1.3243 12.071 2.8312 17.874 4.7033 5.8026 1.8721 11.326 4.1095 16.943 6.5297l-9.4026 18.996c-5.2483-1.9972-10.43-3.6071-15.613-5.2812-5.1821-1.6743-10.233-3.1551-15.481-4.7648l5.6786-20.183z" fill-rule="evenodd" stroke="#fdfcfc" stroke-width=".26655pt" fill="#fdfcfc"/>
   <path id="path682" d="m376.87 121.65s8.7548 1.9534 17.238 4.6819c8.4836 2.7282 16.761 6.2314 16.728 6.2314-0.0659 0-5.3322 10.849-5.3322 10.849-5.1124-2.0342-10.488-3.9395-15.798-5.6508-5.3102-1.7113-10.62-3.3579-16.062-4.6172l3.2256-11.495z" fill-rule="evenodd" stroke="#e6151e" stroke-width=".26655pt" fill="#e6151e"/>
   <path id="path657" d="m377.6 126.95c0.86116-0.48102 1.4443-0.61091 1.908-1.4037l3.1002 0.00026 0.0401 1.1305c0.76186 0.36406 1.2056 0.7672 1.9675 1.131 0.76186 0.36407 1.8418 0.68879 2.6037 1.0529l6.6778 0.58504c0.89427 0.14282 2.1863 0.51983 2.9613 0.97471 0.77505 0.45514 1.2721 1.027 1.6895 1.7548 1.3711 0.48102 2.7428 0.76694 4.1538 0.97497 1.4112 0.20778 3.1799 0.29886 4.5513 0.35087 0.67575 0.23417 0.67575 0.58504 0.35765 0.9359 0 0-0.7554 1.0236-2.8174 1.0333-2.062 0.01-4.3973-1.1503-5.4108-0.99425 0.0398 0.62385 1.1131 1.9109 2.3453 2.4178l-0.0396 2.9632-0.5568 0.50716-0.59608-0.38994c0.47714-0.70173 0.31782-1.5209 0.11921-2.2227-0.45722-0.66292-0.51669-0.9359-1.3711-0.97471-1.0138-0.19537-1.7492-0.46835-3.041-1.3652l-0.47714 0.0781c-0.27826 0.49395-0.55653 0.83188-1.1924 1.1307l-1.3117-0.0779s-3.0211-0.66292-3.0211-0.70199c0-0.0388-0.0398-0.46782 0.0398-0.50689 0.0794-0.0391 1.0334-0.0388 1.1128-0.0388 0.63618 0.19484 1.9877 0.19484 1.9877 0.19484l-0.0398-1.131 2.0272-0.11695c-0.41067-1.4037-0.54334-2.3008-2.4247-2.6126l-5.8831 0.15603 0.0797 0.81895c-1.4707-0.1951-4.1339-0.22995-5.4942 0.22071-0.79497 0.0781-1.939 0.48102-2.4557 0.48102l-0.59636-0.15577c-0.39748-0.11695-0.39748-0.23391-0.23843-0.58503 2.5439-0.19511 2.9417-0.38994 3.6968-0.74081 0.0398-0.23391-0.27827-0.74106-0.39748-0.78014-1.5899-0.0779-2.862 0.0391-3.2991-0.0388-0.67575-0.1951-1.5902-0.54597-1.5902-0.58504 0-0.0391-0.11921-0.62385-0.0794-0.62385 0.0395 0 1.0337 0.27298 1.073 0.27298 1.0735 0.19484 2.9417 0.11696 3.379-0.11695l0.0398-0.85802c-0.0398-0.38994-0.3181-0.7408-0.39775-0.77988-0.0794-0.0391-1.749-0.23391-2.3453-0.23391-0.9672-0.16896-0.82134-0.64998-0.83452-1.131z" stroke-opacity=".99608" fill-rule="evenodd" stroke="#010001" stroke-width=".26655pt"/>
   <path id="path658" d="m390.44 133.89c0.90099 0.28591 1.5636 0.37673 2.9018 0.46781l2.0272-0.11695c-0.41067-1.4037-0.54334-2.3008-2.4247-2.6126l-5.8831 0.15603 0.0797 0.81895c1.7888 0.66265 2.6632 1.0267 3.2991 1.2868z" stroke-opacity=".99608" fill-rule="evenodd" fill-opacity=".99608" stroke="#010001" stroke-width=".26655pt" fill="#fdfdfd"/>
   <path id="path679" d="m273.6 143.99-10.632-39.621 16.223-19.652 22.748 12.986 3.856 41.985c-11.608 0.86022-19.128 1.9772-32.196 4.3025z" fill-rule="evenodd" fill-opacity=".99608" stroke="#011171" stroke-width=".26655pt" fill="#011171"/>
   <path id="path563" d="m236.92 112.42 3.7003 3.2589-1.0512 5.2389 5.1301-1.7739 3.7843 3.2589 0.84099-4.8263 4.2049-1.3615-3.1957-3.4651 1.0512-4.7848s-5.0459 1.4848-5.0459 1.4436-3.3637-3.2174-3.4059-3.1763c-0.042 0.0412-1.0933 4.5375-1.0933 4.5375l-4.9197 1.65z" stroke-opacity=".99608" fill-rule="evenodd" fill-opacity=".99608" stroke="#fdc605" stroke-width=".26655pt" fill="#fbfd10"/>
   <path id="path565" d="m237.01 112.46 16.483 3.713-4.2472 1.4436-3.8263-3.0939s3.1115 7.7552 3.0695 7.714-3.6161-3.0115-3.7423-3.1351l0.6308-4.5789s-5.7188 6.3528-5.7188 6.3116c0-0.0415 1.0933-5.1978 1.0933-5.1978l-3.7424-3.1765z" fill-rule="evenodd" stroke-width="1pt" fill="#ffc500"/>
   <path id="path566" d="m241.8 110.77 3.6583 3.5065-2.5229-8.1264-1.1353 4.6198z" fill-rule="evenodd" stroke-width="1pt" fill="#ffc500"/>
   <path id="path567" d="m246.3 109.45c0.042 0.0412-0.88323 4.7437-0.84125 4.7437 0.42036-0.49502 5.9288-6.229 5.8871-6.229-0.0422 0-4.9619 1.5265-5.0459 1.4853z" fill-rule="evenodd" stroke-width="1pt" fill="#ffc500"/>
   <path id="path666" d="m396.21 104.41 0.7824 4.8175-4.1796 3.4202 5.1238 1.7914 0.84764 4.8694 3.7514-3.2295 4.1403 1.5402-0.2581-4.666 3.8881-3.0675s-4.8728-1.964-4.8463-1.996c0.0264-0.032-0.54751-4.5774-0.60677-4.5715-0.0591 0.006-3.762 2.8493-3.762 2.8493l-4.8808-1.7576z" stroke-opacity=".99608" fill-rule="evenodd" fill-opacity=".99608" stroke="#fdc605" stroke-width=".26655pt" fill="#fbfd10"/>
   <path id="path667" d="m396.25 104.49 10.421 13.068-4.2259-1.5025-0.98618-4.7672s-2.5613 7.9465-2.5674 7.8886c-0.006-0.0579-0.87578-4.5734-0.89451-4.7473l3.4294-3.1672s-8.5204 1.4018-8.494 1.3698c0.0266-0.0322 4.1858-3.3622 4.1858-3.3622l-0.86796-4.7795z" fill-rule="evenodd" stroke-width="1pt" fill="#ffc500"/>
   <path id="path668" d="m401.06 106.14 0.5908 4.9839 3.2567-7.8712-3.8475 2.8873z" fill-rule="evenodd" stroke-width="1pt" fill="#fdc605"/>
   <path id="path669" d="m405.4 107.9c0.006 0.0579-3.7312 3.1392-3.6986 3.1652 0.64429-0.12483 8.6041-1.1758 8.5717-1.2016-0.0328-0.0261-4.8343-1.8797-4.8731-1.9636z" fill-rule="evenodd" stroke-width="1pt" fill="#fdc605"/>
   <path id="path675" d="m263.05 104.52c5.7741-2.7599 12.255-4.9132 19.09-5.8521 6.5691-0.93939 13.144-1.0208 19.89-1.0063 0 0 0.88377 10.331 0.88377 10.418-5.3026 0.0433-9.2543-0.0552-18.608 1.1548-9.3016 1.2899-13.133 2.3953-18.79 4.5628l-2.4651-9.2772z" fill-rule="evenodd" stroke="#e6141d" stroke-width=".26655pt" fill="#e6141d"/>
   <path id="path677" d="m267.99 122.81c-0.0885 0 2.9212 10.929 2.9212 10.929 5.5532-1.4016 11.195-2.4566 16.836-3.2512 5.6414-0.79466 11.641-1.2474 17.106-1.6086l-0.96-10.66c-5.7593-0.3469-12.323-0.3469-18.259 0.43323-5.9361 0.78041-11.7 2.163-17.636 4.157z" fill-rule="evenodd" fill-opacity=".99608" stroke="#e6141d" stroke-width=".26655pt" fill="#e6141d"/>
   <path id="path688" d="m241.49 156.56h161.16v103.34c-4.0965 40.244-42.778 70.327-78.125 70.097-38.155 1.6646-80.349-29.566-83.391-70.442l0.35114-102.99z" fill-rule="evenodd" stroke="#e5141d" stroke-width="1.0662" fill="#fff"/>
   <path id="path689" d="m244.84 160.17h154.45v99.03c-3.9257 38.567-40.995 67.395-74.868 67.176-36.565 1.5952-77-28.334-79.916-67.506l0.3365-98.7z" fill-rule="evenodd" stroke="#e5141d" stroke-width="1.0218" fill="#d61517"/>
   <rect id="rect693" fill-rule="evenodd" ry="0" height="32.302" width="29.763" y="160.67" x="337.68" stroke-width="1pt" fill="#fff"/>
   <rect id="rect694" fill-rule="evenodd" ry="0" height="32.302" width="29.763" y="160.67" x="276.27" stroke-width="1pt" fill="#fff"/>
   <rect id="rect695" fill-rule="evenodd" ry="0" height="31.526" width="30.162" y="194.04" x="245.22" stroke-width="1pt" fill="#fff"/>
   <rect id="rect696" fill-rule="evenodd" ry="0" height="31.526" width="29.467" y="194.04" x="307.22" stroke-width="1pt" fill="#fff"/>
   <rect id="rect697" fill-rule="evenodd" ry="0" height="31.526" width="30.364" y="194.04" x="368.33" stroke-width="1pt" fill="#fff"/>
   <rect id="rect698" fill-rule="evenodd" ry="0" height="32.011" width="29.763" y="226.54" x="337.68" stroke-width="1pt" fill="#fff"/>
   <rect id="rect699" fill-rule="evenodd" ry="0" height="32.011" width="29.763" y="226.54" x="276.27" stroke-width="1pt" fill="#fff"/>
   <rect id="rect700" fill-rule="evenodd" ry="0" height="32.011" width="29.467" y="259.52" x="307.22" stroke-width="1pt" fill="#fff"/>
   <path id="path705" d="m368.52 259.8 0.008 31.447 18.122 0.0235c8.2675-12.078 11.099-23.843 11.876-31.464-0.13401 0-29.888-0.0143-30.006-0.007z" fill-rule="evenodd" stroke="#fff" stroke-width=".26655pt" fill="#fff"/>
   <path id="path706" d="m337.86 292.78 0.005 31.559c12.891-2.6789 23.39-8.7867 29.4-13.27l0.002-18.302-29.407 0.0127z" fill-rule="evenodd" stroke="#fff" stroke-width=".26655pt" fill="#fff"/>
   <path id="path708" d="m276.5 292.72-0.0425 17.832c10.125 7.3853 21.688 11.707 29.389 13.369l0.005-31.19-29.352-0.0116z" fill-rule="evenodd" stroke="#fff" stroke-width=".26655pt" fill="#fff"/>
   <path id="path710" d="m245.28 259.76c0.96128 12.356 6.2249 23.816 11.88 31.567l18.046-0.0304 0.003-31.55-29.929 0.0135z" fill-rule="evenodd" stroke="#fff" stroke-width=".26655pt" fill="#fff"/>
  </g>
 </g>
</svg>
