<?xml version="1.0" encoding="UTF-8" standalone="no"?>
<!-- Created with Sodipodi ("http://www.sodipodi.com/") -->
<svg id="svg378" xmlns:rdf="http://www.w3.org/1999/02/22-rdf-syntax-ns#" xmlns="http://www.w3.org/2000/svg" height="480" width="640" version="1" y="0" x="0" xmlns:cc="http://creativecommons.org/ns#" xmlns:dc="http://purl.org/dc/elements/1.1/">
 <metadata id="metadata3891">
  <rdf:RDF>
   <cc:Work rdf:about="">
    <dc:format>image/svg+xml</dc:format>
    <dc:type rdf:resource="http://purl.org/dc/dcmitype/StillImage"/>
   </cc:Work>
  </rdf:RDF>
 </metadata>
 <defs id="defs380">
  <clipPath id="clipPath8588" clipPathUnits="userSpaceOnUse">
   <rect id="rect8590" fill-opacity="0.67" height="512" width="682.67" y="0" x="-77.62"/>
  </clipPath>
 </defs>
 <g id="flag" clip-path="url(#clipPath8588)" transform="matrix(.9375 0 0 .9375 72.769 0)">
  <rect id="rect148" fill-rule="evenodd" transform="scale(-1)" height="512" width="731.43" y="-512" x="-629.43" stroke-width="1pt" fill="#ba0000"/>
  <path id="path747" d="m281.02 376.01c0.20002-0.60503 0.60338-6.8438 0.4017-6.8438s-9.459-10.867-9.2573-10.867c0.20167 0 11.874 2.6168 11.874 2.2135 0-0.4017 4.6286-11.471 4.6286-11.672 0-0.20003 5.6354 13.484 5.6354 13.484l11.471 5.032-8.0506 6.6405s1.8118 12.881 1.8118 13.083c0 0.20003-8.0506-7.6488-8.0506-7.6488l-8.8556 1.0067s-1.2068-4.0253-1.6085-4.427z" fill-rule="evenodd" fill-opacity=".98823" stroke="#000" stroke-width="1.6531pt" fill="#ffef00"/>
  <path id="path724" d="m218.66 206.89c-7.6472 3.9377-36.996 37.486-41.021 42.718-3.3723 7.596-9.9682 17.205-16.762 23.391-7.2521 5.4866-11.282 12.982-10.284 20.078-0.081 8.8308 4.87 14.843 8.8143 21.057 2.3342 2.8384 5.475 4.6733 8.8143 4.8965 6.8504 0.90424 7.4588 3.0136 10.887 4.3195 13.506 18.389 33.654 31.949 48.164 42.691 9.249 4.875 15.681 9.7499 17.885 12.411 4.2484 8.1117 3.4665 16.022 2.8846 19.908-3.5905 13.549-7.1827 27.097-10.773 40.646-1.8118 11.069 7.8076 8.5796 8.325 6.3661 4.341-5.6354 10.819-1.6779 20.077-34.28 4.2435-5.7131 8.4886-11.426 12.732-17.139 0 0 4.8981-1.9589 4.8981-2.4482 7.4472-8.9416 1.7771-14.06-2.4499-15.67-3.1012-1.1423-6.2024-2.2862-9.3036-3.4285 0 0-10.773-10.773-11.263-10.773-5.1196-14.893-30.248-46.687-36.085-51.114-4.0402-4.2104-5.9627-6.004-9.7979-8.3465-5.8966-2.8202-7.7993-3.7376-11.411-5.1791-3.007-1.2068-0.86622-4.508 1.0464-6.0173 19.903-10.834 35.68-22.875 54.778-35.118 0.97863-0.65297 1.9589-1.3059 2.9375-1.9589-2.2846-13.058-4.5708-26.117-6.8554-39.175-10.61-3.7542-21.221-7.51-31.83-11.264-1.6696 1.1423-2.9375 2.2862-4.4071 3.4285z" fill-rule="evenodd" stroke="#000" stroke-width="2.6358" fill="#fff"/>
  <path id="path745" d="m245.29 413.15c0.10084-0.4017 19.923-4.0253 19.923-4.0253s-2.3143 7.3463-2.4152 7.3463l-19.721 5.9362 2.2135-9.2573z" fill-rule="evenodd" stroke-width="1pt" fill="#ffec00"/>
  <path id="path725" d="m193.64 338.51c3.8236-10.163 14.438-18.21 21.568-20.431" stroke="#000" stroke-width="1.6531pt" fill="none"/>
  <path id="path744" d="m244.58 413.32c1.2795-0.36037 6.9612-2.0184 8.6159-2.2763 1.7655-0.41328 3.5227-0.87614 5.2205-1.4233 1.9589-0.40005 3.1855-0.76868 5.2205-1.139 1.5936-0.60833 3.169-1.0249 4.8733-1.4233m-27.519 18.518c0.16531-0.22151 1.5159-1.415 2.4862-1.992 1.1423-0.36038 5.0486-2.0184 6.5264-2.2763 1.577-0.41327 3.1458-0.87614 4.6617-1.4233 1.7506-0.40005 2.845-0.76869 4.6634-1.139 1.4233-0.60834 2.8301-1.0249 4.3509-1.4233" stroke="#000" stroke-width="1.828pt" fill="none"/>
  <path id="path726" d="m249.04 341.38h-0.28433c0.89101 0 0.34384-0.0744-0.85465 1.4233-0.4265 1.1506-4.0798 3.6996-6.8306 3.6996-1.3274 0.14216-3.3674 0.28433-4.6964 0.28433-0.37856 0-0.90094-0.28433-1.2812-0.28433" stroke="#000" stroke-width="1.6531pt" fill="none"/>
  <path id="path728" d="m248.76 400.02h0.28433 1.1373c1.4762 0 2.9574 0.26285 4.2699 0.28434 1.4233 0 2.8466 0.40335 4.2699 0.40335 1.4365 0.20333 3.1673 0.13721 4.6534 0.3488 1.6663 0.0562 3.0037 0.38517 4.7378 0.38517 1.3985 0.0529 2.1523 0.28599 3.7013 0.28599l-3.7013-0.28599c1.3985 0.0529 2.1523 0.28599 3.7013 0.28599" stroke="#000" stroke-width="1.6531pt" fill="none"/>
  <path id="path727" d="m239.08 434.74c0.15208-0.22151 1.3886-1.415 2.2763-1.992 1.0464-0.36038 4.6237-2.0184 5.9776-2.2763 1.4432-0.41327 2.8797-0.87614 4.2683-1.4233 1.6035-0.40005 2.6053-0.76869 4.2699-1.139 1.3043-0.60834 2.592-1.0249 3.984-1.4233" stroke="#000" stroke-width="1.6531pt" fill="none"/>
  <path id="path729" d="m265.73 385.27c-0.80505 2.3375 0.23805 2.9243 0.66951 3.9327 0.7505 0.97697 2.6664 2.4664 5.6932 3.4153 1.1671 0.31409 2.0647 0.62157 3.4153 1.139 0.89432 0.0827 1.334 0.30582 1.992 0.56867" stroke="#000" stroke-width="1.6531pt" fill="none"/>
  <path id="path730" d="m153.13 299.55h0.28433c-0.89267 0-0.35707 0.0579 1.139-1.139 0.92408-1.0332 1.6961-1.501 2.5606-2.5606" stroke="#000" stroke-width="1.6531pt" fill="none"/>
  <path id="path731" d="m171.55 319.82c0.1901 0 16.557-8.2489 18.305-10.011 1.2382-0.89763 2.1755-1.8448 3.6814-2.8648 0.9654-0.50419 1.658-1.1506 2.5623-1.7076 0.75216-1.0894 1.7341-1.7473 2.2763-2.7441 1.0051-0.87118 0.57362-1.8151 1.3886-2.8648 0.38517-1.0745 1.1059-2.8846 1.3407-3.8682" stroke="#000" stroke-width="1.6531pt" fill="none"/>
  <path id="path733" d="m221.95 308c0.0893 0.5885-0.26119 2.402-0.2364 3.7823-0.0562 1.6002-2.1143 6.5429-4.6022 8.0192" stroke="#000" stroke-width="1.6531pt" fill="none"/>
  <path id="path734" d="m192.55 307.82c0.0959 0 2.5871 0.81002 6.7512 2.0912 5.0122 1.8019 15.437 8.3713 16.471 9.2755 1.0563 0.8315 2.9458 1.5737 3.6699 2.5606 1.1324 0.97863 1.9622 2.1077 2.8466 3.131 1.0398 1.2679 1.9258 2.3408 2.5606 3.4153 3.1657 2.5672 11.681 20.343 11.954 21.346 0.47774 0.93896 1.0696 2.2466 1.4233 3.131 0.63148 0.72736 1.0596 1.7556 1.7076 2.8466 0.59511 1.415 1.2613 2.0598 1.9936 3.131 0.94226 0.65462 2.2118 1.8978 3.4153 2.5606 1.2828 1.0976 2.4862 1.544 3.4153 2.278 1.3423 0.57032 16.342 10.052 17.038 10.527 1.3704 1.101 5.5544 5.437 2.6168 8.5911-1.2464 1.0662-2.3689 2.478-3.4335 3.0814-1.0844 1.0861-2.5937 1.5721-3.8401 2.1341-6.7578 1.9969-10.2 1.2812-11.529 1.2812h-1.4233" stroke="#000" stroke-width="1.6531pt" fill="none"/>
  <path id="path735" d="m159.42 274.29c1.9209 0.75215 1.1456 0.19671 2.8747 0.98359 1.1621 0.50915 1.9275 0.52237 3.0698 0.93895 1.2117 0.38848 4.5972 0.99847 6.2239 2.6317 1.1935 1.0778 2.1044 1.9887 3.4153 2.7755 1.5506 1.0696 2.6697 1.5456 4.5923 2.3474 1.6217 0.60669 3.4351 1.2795 5.075 1.3374 1.7043 0.0992 2.1126 0.0149 3.7476 0.0149h3.9856-3.9856 3.9856" stroke="#000" stroke-width="1.6531pt" fill="none"/>
  <path id="path738" d="m158.96 293.28c4.2683-0.28433 11.383 0.99681 11.525 0.99681 0.002 0 9.3929-0.14216 9.3929-0.14216 4.9345-0.47609 6.0239-2.3722 6.8306-3.7013 1.8498-2.845 3.131-3.8418 4.5543-5.9759 2.2763-1.7076 5.4089 2.2763 5.5511 2.2763 7.9679 7.543 1.5638 16.792 1.1373 17.076-3.984 3.6533-4.8386 3.8897-7.2571 1.5655-2.4201-2.8466-3.131-4.1261-5.1229-5.1229-3.8418-1.8498-11.811-0.4265-11.955-0.4265-0.14216 0-4.1261 1.5655-4.1261 1.5655-1.9457 0.71083-3.1789 2.4201-6.5462 2.9871-3.4153 0.23804-4.5543-0.0942-6.2619-2.845-2.2763-3.5575-1.139-7.8274 2.278-8.2539z" fill-rule="evenodd" stroke="#000" stroke-width="1.6531pt" fill="#ffe606"/>
  <path id="path770" d="m381.8 120.66c-0.62542 0.12216-6.2613 2.8281-6.1624 3.0039 0.0988 0.1758-4.8371 13.571-4.936 13.395-0.0988-0.17579-3.5383-11.633-3.8899-11.435-0.35015 0.19687-12.267 1.587-12.443 1.6858-0.17436 0.098 8.9921-11.521 8.9921-11.521l-1.2354-12.465 9.7338 3.7631s10.34-7.892 10.516-7.9909c0.17436-0.09803-2.7218 10.766-2.7218 10.766l5.2176 7.2258s-2.9173 3.0246-3.0706 3.5717z" fill-rule="evenodd" fill-opacity=".98823" stroke="#000" stroke-width="1.6531pt" fill="#ffef00"/>
  <path id="path771" d="m264.93 257.9c7.1801 4.7361 50.806 13.878 57.34 14.822 8.2739-0.78312 19.883 0.25686 28.605 3.1476 8.3367 3.6326 16.845 3.4724 22.542-0.87597 7.7373-4.2572 10.552-11.519 14.035-18.003 1.3302-3.4257 1.3904-7.0628-0.0516-10.083-2.5691-6.4145-1.0286-7.9785-1.5705-11.607 9.4102-20.785 11.356-44.993 13.608-62.906-0.28344-10.451 0.81362-18.447 2.0536-21.672 4.9887-7.6787 12.267-10.874 15.94-12.271 13.57-3.5103 27.14-7.0191 40.71-10.529 10.537-3.8455 3.6522-11.01 1.4692-10.377-7.0397-1.0221-6.765-8.6088-39.72-0.70021-7.0596-0.89904-14.12-1.7995-21.18-2.6986 0 0-4.108-3.3095-4.5346-3.0697-11.444-2.1094-13.126 5.3414-12.458 9.815 0.52416 3.2631 1.0469 6.5269 1.571 9.79 0 0-4.1109 14.671-3.8711 15.097-10.473 11.761-26.062 49.529-27.06 56.786-0.47251 6.8198-3.0481 5.5882-2.3575 12.217 0.0259 5.1798-0.5768 1.9458 1.1525 12.618 0.42178 3.2125-3.505 2.9644-5.7579 2.0368-19.198-12.039-37.426-19.891-57.458-30.538-1.0488-0.53304-2.0984-1.0675-3.1472-1.6006-10.262 8.3908-20.526 16.784-30.788 25.175 1.9272 11.088 3.8537 22.178 5.7809 33.266 1.814 0.89554 3.4325 1.4401 5.1484 2.1613z" fill-rule="evenodd" stroke="#000" stroke-width="2.6358" fill="#fff"/>
  <path id="path772" d="m431.67 133.6c-0.39958 0.10897-13.273-15.394-13.273-15.394s7.5378-1.583 7.5873-1.4951l14.84 14.281-9.1542 2.6074z" fill-rule="evenodd" stroke-width="1pt" fill="#ffec00"/>
  <path id="path773" d="m391.93 215.21c-10.733 1.6479-22.949-3.6606-28.379-8.7874" stroke="#000" stroke-width="1.6531pt" fill="none"/>
  <path id="path774" d="m432.18 134.14c-0.94119-0.93869-5.171-5.0787-6.2067-6.3947-1.2255-1.3364-2.4902-2.6413-3.7991-3.853-1.3088-1.5115-2.2312-2.4-3.5513-3.9924-1.3113-1.0909-2.4465-2.26-3.629-3.5504m29.628 14.912c-0.27411-0.0355-1.9764-0.62786-2.9548-1.191-0.87395-0.81909-4.2336-3.4115-5.1827-4.5733-1.1331-1.1721-2.3054-2.3128-3.5253-3.366-1.2067-1.3299-2.0643-2.1032-3.2783-3.5068-1.2278-0.94252-2.2804-1.9646-3.373-3.095" stroke="#000" stroke-width="1.828pt" fill="none"/>
  <path id="path775" d="m367.28 165.51c0.047 0.0836 0.0932 0.16571 0.13935 0.24784-0.43667-0.77667-0.23335-0.26326 1.6595 0.0474 1.2119-0.1921 5.2243 1.7432 6.5724 4.1409 0.77448 1.0874 1.8981 2.7959 2.5495 3.9544 0.18553 0.32998 0.19369 0.92467 0.38003 1.2561" stroke="#000" stroke-width="1.6531pt" fill="none"/>
  <path id="path776" d="m418.53 137.02c-0.0462-0.0821-0.0924-0.16427-0.13934-0.24784 0.18633 0.33142-0.37186-0.6614-0.55739-0.99138-0.72347-1.2868-1.2203-2.7067-1.8448-3.8613-0.69755-1.2407-1.0435-2.679-1.741-3.9197-0.52679-1.3518-1.4327-2.8281-1.9766-4.2272-0.76765-1.48-1.1363-2.807-1.9862-4.3186-0.63928-1.245-0.80554-2.0163-1.5647-3.3665l1.5647 3.3665c-0.63928-1.245-0.80554-2.0163-1.5647-3.3665" stroke="#000" stroke-width="1.6531pt" fill="none"/>
  <path id="path777" d="m453.54 128.44c-0.26762-0.024-1.914-0.51691-2.8519-1.008-0.82696-0.73551-4.0254-3.0412-4.9137-4.0949-1.0675-1.0554-2.175-2.0808-3.3325-3.023-1.1346-1.2017-1.9469-1.8942-3.0855-3.1638-1.1695-0.83878-2.1637-1.7571-3.1931-2.7752" stroke="#000" stroke-width="1.6531pt" fill="none"/>
  <path id="path778" d="m397.35 129.45c2.4321-0.44382 2.4324-1.6407 3.0999-2.511 0.4838-1.133 0.84313-3.533 0.18684-6.6364-0.29819-1.1712-0.47008-2.1044-0.68096-3.5352-0.36625-0.82006-0.38722-1.3127-0.48055-2.015" stroke="#000" stroke-width="1.6531pt" fill="none"/>
  <path id="path779" d="m377.82 269.62c-0.0462-0.0821-0.0932-0.16571-0.13935-0.24785 0.43749 0.77812 0.22543 0.2829-1.551-0.43462-1.3535-0.29915-2.1396-0.7428-3.487-0.97711" stroke="#000" stroke-width="1.6531pt" fill="none"/>
  <path id="path780" d="m386.46 243.62c-0.0932-0.16571-15.305-10.39-17.697-11.049-1.3892-0.63937-2.6743-0.99217-4.3014-1.805-0.91262-0.59442-1.8155-0.88141-2.7442-1.3966-1.3182-0.12174-2.3729-0.65523-3.5076-0.63934-1.252-0.44915-1.8633 0.38954-3.1777 0.1936-1.1254 0.19086-3.0565 0.44972-4.0289 0.72715" stroke="#000" stroke-width="1.6531pt" fill="none"/>
  <path id="path781" d="m351.46 205.48c0.46923-0.36623 2.2217-0.94949 3.4128-1.6476 1.4224-0.73524 6.7395-1.3636 9.2456 0.0815" stroke="#000" stroke-width="1.6531pt" fill="none"/>
  <path id="path782" d="m365.71 231.2c-0.047-0.0836-0.56182-2.6521-1.4859-6.9097-0.88575-5.2521-0.26824-17.558 0.0128-18.904 0.20711-1.3283-0.0719-3.3391 0.43349-4.4539 0.29809-1.4667 0.87557-2.7434 1.3341-4.0158 0.59562-1.5278 1.0966-2.8259 1.7221-3.9058 0.68636-4.0176 12.008-20.152 12.749-20.881 0.58433-0.87661 1.4341-2.0333 2.0316-2.7751 0.32455-0.90691 1.011-1.784 1.6444-2.8836 0.9418-1.2122 1.1773-2.1089 1.7521-3.2722 0.10883-1.1422 0.57023-2.8581 0.55826-4.232 0.32812-1.6561 0.12738-2.9239 0.31186-4.0934-0.16072-1.4496 0.75325-19.172 0.82573-20.011 0.28805-1.7341 2.0172-7.5062 6.2062-6.4914 1.5403 0.56393 3.321 0.85046 4.3686 1.4827 1.4782 0.413 2.6415 1.4904 3.7423 2.3014 5.0526 4.912 6.1154 8.2628 6.7668 9.4214 0.23252 0.41355 0.46503 0.82711 0.69755 1.2407" stroke="#000" stroke-width="1.6531pt" fill="none"/>
  <path id="path783" d="m352.64 275.94c-0.0462-0.0821-0.0932-0.16571-0.13935-0.24784 0.37672 0.67004 0.16805 0.336-0.31035-1.1322-0.12573-1.2625-0.51512-2.9704-0.71182-4.1703-0.25522-1.2466-0.83936-2.6667-0.68096-3.5352-0.44639-1.2662-0.16559-2.3116-0.0459-3.5661 0.35457-1.5686 0.51482-2.7036 0.55826-4.232 0.17237-1.8758 0.0338-3.205 0.14084-4.9777-0.49425-1.4593-0.59504-2.6808-1.3483-4.1386-0.67023-1.3945-1.1829-2.6841-1.9841-4.1092l-1.9533-3.4742 1.9533 3.4742-1.9533-3.4742" stroke="#000" stroke-width="1.6531pt" fill="none"/>
  <path id="path785" d="m369.5 267.6c-2.3397-3.5812-4.7098-10.411-4.7795-10.535-0.00081-0.001-4.7272-8.1178-4.7272-8.1178-2.8333-4.0679-5.02-4.0883-6.5739-4.1401-3.3864-0.21815-4.8832-0.84637-7.441-1.0411-2.6041-1.1473-0.66664-5.8304-0.73631-5.9543 2.6701-10.642 13.871-9.5927 14.328-9.3603 5.137 1.6823 5.7619 2.3114 4.9212 5.5586-1.2953 3.5046-2.0622 4.7513-1.9548 6.9762 0.27037 4.2554 5.4168 10.505 5.4873 10.63 0.0697 0.12392 3.3867 2.8294 3.3867 2.8294 1.5732 1.3476 3.6675 1.5849 5.812 4.2422 1.8813 2.8604 2.1498 4.016 0.58899 6.8526-1.9854 3.7276-6.2647 4.8289-8.3111 2.0595z" fill-rule="evenodd" stroke="#000" stroke-width="1.6531pt" fill="#ffe606"/>
  <g id="g786" transform="matrix(-.76172 1.4671 -1.4671 -.76172 616.55 -10.755)">
   <path id="path787" d="m238.86 224.5c0.121-0.366 0.365-4.14 0.243-4.14s-5.722-6.574-5.6-6.574 7.183 1.583 7.183 1.339c0-0.243 2.8-6.939 2.8-7.061 0-0.121 3.409 8.157 3.409 8.157l6.939 3.044-4.87 4.017s1.096 7.792 1.096 7.914c0 0.121-4.87-4.627-4.87-4.627l-5.357 0.609s-0.73-2.435-0.973-2.678z" fill-rule="evenodd" fill-opacity=".98823" stroke="#000" stroke-width="1pt" fill="#ffef00"/>
   <path id="path788" d="m201.14 122.2c-4.626 2.382-22.38 22.676-24.815 25.841-2.04 4.595-6.03 10.408-10.14 14.15-4.387 3.319-6.825 7.853-6.221 12.146-0.049 5.342 2.946 8.979 5.332 12.738 1.412 1.717 3.312 2.827 5.332 2.962 4.144 0.547 4.512 1.823 6.586 2.613 8.17 11.124 20.358 19.327 29.136 25.825 5.595 2.949 9.486 5.898 10.819 7.508 2.57 4.907 2.097 9.692 1.745 12.043-2.172 8.196-4.345 16.392-6.517 24.588-1.096 6.696 4.723 5.19 5.036 3.851 2.626-3.409 6.545-1.015 12.145-20.737 2.567-3.456 5.135-6.912 7.702-10.368 0 0 2.963-1.185 2.963-1.481 4.505-5.409 1.075-8.505-1.482-9.479-1.876-0.691-3.752-1.383-5.628-2.074 0 0-6.517-6.517-6.813-6.517-3.097-9.009-18.39-28.426-21.921-31.104-3.456-2.271-2.043-3.264-5.743-4.865-2.739-1.522-0.855-0.881-6.995-3.133-1.819-0.73-0.524-2.727 0.633-3.64 12.04-6.554 21.584-13.838 33.137-21.244 0.592-0.395 1.185-0.79 1.777-1.185-1.382-7.899-2.765-15.799-4.147-23.698-6.418-2.271-12.837-4.543-19.255-6.814-1.01 0.691-1.777 1.383-2.666 2.074z" fill-rule="evenodd" stroke="#000" stroke-width="1.5945" fill="#fff"/>
   <path id="path789" d="m217.25 246.97c0.061-0.243 12.052-2.435 12.052-2.435s-1.4 4.444-1.461 4.444l-11.93 3.591 1.339-5.6z" fill-rule="evenodd" stroke-width="1pt" fill="#ffec00"/>
   <path id="path790" d="m186 201.82c2.313-6.148 8.734-11.016 13.047-12.359" stroke="#000" stroke-width="1pt" fill="none"/>
   <path id="path791" d="m216.82 247.07c0.774-0.218 4.211-1.221 5.212-1.377 1.068-0.25 2.131-0.53 3.158-0.861 1.185-0.242 1.927-0.465 3.158-0.689 0.964-0.368 1.917-0.62 2.948-0.861m-16.647 11.202c0.1-0.134 0.917-0.856 1.504-1.205 0.691-0.218 3.054-1.221 3.948-1.377 0.954-0.25 1.903-0.53 2.82-0.861 1.059-0.242 1.721-0.465 2.821-0.689 0.861-0.368 1.712-0.62 2.632-0.861" stroke="#000" stroke-width="1.1058pt" fill="none"/>
   <path id="path792" d="m219.52 203.56h-0.172c0.539 0 0.208-0.045-0.517 0.861-0.258 0.696-2.468 2.238-4.132 2.238-0.803 0.086-2.037 0.172-2.841 0.172-0.229 0-0.545-0.172-0.775-0.172" stroke="#000" stroke-width="1pt" fill="none"/>
   <path id="path793" d="m219.35 239.02h0.172 0.688c0.893 0 1.789 0.159 2.583 0.172 0.861 0 1.722 0.244 2.583 0.244 0.869 0.123 1.916 0.083 2.815 0.211 1.008 0.034 1.817 0.233 2.866 0.233 0.846 0.032 1.302 0.173 2.239 0.173l-2.239-0.173c0.846 0.032 1.302 0.173 2.239 0.173" stroke="#000" stroke-width="1pt" fill="none"/>
   <path id="path794" d="m213.49 260.03c0.092-0.134 0.84-0.856 1.377-1.205 0.633-0.218 2.797-1.221 3.616-1.377 0.873-0.25 1.742-0.53 2.582-0.861 0.97-0.242 1.576-0.465 2.583-0.689 0.789-0.368 1.568-0.62 2.41-0.861" stroke="#000" stroke-width="1pt" fill="none"/>
   <path id="path795" d="m229.62 230.1c-0.487 1.414 0.144 1.769 0.405 2.379 0.454 0.591 1.613 1.492 3.444 2.066 0.706 0.19 1.249 0.376 2.066 0.689 0.541 0.05 0.807 0.185 1.205 0.344" stroke="#000" stroke-width="1pt" fill="none"/>
   <path id="path796" d="m161.5 178.25h0.172c-0.54 0-0.216 0.035 0.689-0.689 0.559-0.625 1.026-0.908 1.549-1.549" stroke="#000" stroke-width="1pt" fill="none"/>
   <path id="path797" d="m172.64 190.51c0.115 0 10.016-4.99 11.073-6.056 0.749-0.543 1.316-1.116 2.227-1.733 0.584-0.305 1.003-0.696 1.55-1.033 0.455-0.659 1.049-1.057 1.377-1.66 0.608-0.527 0.347-1.098 0.84-1.733 0.233-0.65 0.669-1.745 0.811-2.34" stroke="#000" stroke-width="1pt" fill="none"/>
   <path id="path798" d="m203.13 183.36c0.054 0.356-0.158 1.453-0.143 2.288-0.034 0.968-1.279 3.958-2.784 4.851" stroke="#000" stroke-width="1pt" fill="none"/>
   <path id="path799" d="m185.34 183.25c0.058 0 1.565 0.49 4.084 1.265 3.032 1.09 9.338 5.064 9.964 5.611 0.639 0.503 1.782 0.952 2.22 1.549 0.685 0.592 1.187 1.275 1.722 1.894 0.629 0.767 1.165 1.416 1.549 2.066 1.915 1.553 7.066 12.306 7.231 12.913 0.289 0.568 0.647 1.359 0.861 1.894 0.382 0.44 0.641 1.062 1.033 1.722 0.36 0.856 0.763 1.246 1.206 1.894 0.57 0.396 1.338 1.148 2.066 1.549 0.776 0.664 1.504 0.934 2.066 1.378 0.812 0.345 9.886 6.081 10.307 6.368 0.829 0.666 3.36 3.289 1.583 5.197-0.754 0.645-1.433 1.499-2.077 1.864-0.656 0.657-1.569 0.951-2.323 1.291-4.088 1.208-6.17 0.775-6.974 0.775h-0.861" stroke="#000" stroke-width="1pt" fill="none"/>
   <path id="path800" d="m165.63 163.1h0.172c-0.465 0-0.227-0.011 0.689 0.172 0.703 0.308 1.719 0.609 2.41 0.861 0.733 0.235 1.655 0.348 2.066 0.689 0.8 0.14 1.268 0.598 1.894 1.033 0.722 0.652 1.273 1.073 2.066 1.549 0.938 0.647 1.68 0.968 2.583 1.55 0.916 0.172 1.59 0.481 2.582 0.516 0.934 0.06 1.766 0.172 2.755 0.172h2.411-2.411 2.411" stroke="#000" stroke-width="1pt" fill="none"/>
   <path id="path801" d="m221.24 142.95h-0.345c0.637 0 0.458-0.023-0.516 0.172-1.017 0.525-2.371 0.922-3.272 1.377-1.028 0.34-2.133 0.717-3.099 1.206-1.094 0.641-2.102 1.162-3.099 1.893-0.991 0.531-1.965 1.185-2.927 1.722-0.959 0.521-1.751 1.024-2.582 1.722-0.694 0.385-1.637 0.93-2.411 1.549-0.727 0.261-1.252 0.779-1.721 1.206-0.911 0.807-1.469 1.226-2.411 2.066-0.495 0.468-1.153 1.018-1.894 1.721-0.778 0.519-1.62 1.517-2.238 2.066-0.396 0.517-0.976 1.132-1.549 1.55-0.441 0.555-0.952 1.285-1.55 1.722-0.355 0.528-0.976 1.216-1.55 1.894-0.465 0.569-1.105 1.142-1.549 1.721-0.598 0.662-1.056 1.329-1.722 1.894-0.119 0.398-0.369 0.604-0.516 0.861" stroke="#000" stroke-width="1pt" fill="none"/>
   <path id="path802" d="m165.03 174.46c2.582-0.172 6.886 0.603 6.972 0.603 0.001 0 5.682-0.086 5.682-0.086 2.985-0.288 3.644-1.435 4.132-2.239 1.119-1.721 1.894-2.324 2.755-3.615 1.377-1.033 3.272 1.377 3.358 1.377 4.82 4.563 0.946 10.158 0.688 10.33-2.41 2.21-2.927 2.353-4.39 0.947-1.464-1.722-1.894-2.496-3.099-3.099-2.324-1.119-7.145-0.258-7.232-0.258-0.086 0-2.496 0.947-2.496 0.947-1.177 0.43-1.923 1.464-3.96 1.807-2.066 0.144-2.755-0.057-3.788-1.721-1.377-2.152-0.689-4.735 1.378-4.993z" fill-rule="evenodd" stroke="#000" stroke-width="1pt" fill="#ffe606"/>
  </g>
  <path id="path746" d="m221.29 199.65c-1.5661-1.4223 29.458 11.241 33.726 11.385 5.8356-2.1344 29.886-22.484 29.886-22.484 0.23739 1.992 1.0899 7.1623 3.4136 8.2543-9.296 7.5428-17.74 14.799-27.037 22.341 0.66469 11.954-1.5172 24.62 4.5538 37.997 0 0-7.2565 0.14106-7.2565 0-6.404-6.404-8.6822-37.284-8.6822-37.284-10.198-4.5544-20.398-8.9651-30.596-13.519 1.4711-0.94956 2.6567-3.8891 1.9927-6.6896z" fill-rule="evenodd" fill-opacity=".98742" stroke="#000" stroke-width="1.6531pt" fill="#ffef00"/>
  <path id="path920" d="m250.81 231.3c0.49611-0.35986-5.5962 2.8301-7.1609 3.631-28.185 15.035-42.689 36.905-43.593 37.731-0.48716 0.93167-1.3837 2.1744-2.2046 3.3916-0.66056 1.0204-1.6088 2.0766-2.2335 3.1088-0.86354 1.1959-2.6787 3.5574-3.6702 4.606-0.12386 0.6757 0.46996-0.23119 0.27592 0.21813" stroke="#000" stroke-width="1.6531pt" fill="none"/>
  <path id="path923" d="m270.07 213.43c-0.54703-0.27661 5.0767 3.6819 6.5045 4.7065 26.261 18.187 52.344 21.082 53.492 21.507 1.0514 0.007 2.5666 0.23602 4.0239 0.40941 1.2103 0.12042 2.5824 0.48029 3.7865 0.56423 1.458 0.22019 4.3886 0.75414 5.7751 1.1567 0.65644-0.19954-0.42042-0.3117 0.0674-0.34542" stroke="#000" stroke-width="1.6531pt" fill="none"/>
 </g>
</svg>
