<?xml version="1.0" encoding="UTF-8" standalone="no"?>
<!-- Created with Sodipodi ("http://www.sodipodi.com/") -->
<svg id="svg378" xmlns:rdf="http://www.w3.org/1999/02/22-rdf-syntax-ns#" xmlns="http://www.w3.org/2000/svg" height="480" width="640" version="1" y="0" x="0" xmlns:cc="http://creativecommons.org/ns#" xmlns:dc="http://purl.org/dc/elements/1.1/">
 <metadata id="metadata3926">
  <rdf:RDF>
   <cc:Work rdf:about="">
    <dc:format>image/svg+xml</dc:format>
    <dc:type rdf:resource="http://purl.org/dc/dcmitype/StillImage"/>
   </cc:Work>
  </rdf:RDF>
 </metadata>
 <defs id="defs380">
  <clipPath id="clipPath3247" clipPathUnits="userSpaceOnUse">
   <rect id="rect3249" fill-opacity="0.67" height="480" width="640" y="0" x="0"/>
  </clipPath>
 </defs>
 <g id="flag" fill-rule="evenodd" stroke-width="1pt" clip-path="url(#clipPath3247)">
  <rect id="rect171" height="480" width="720" y="-.0000010929" x="-39.999" fill="#fff"/>
  <rect id="rect256" height="160" width="720" y="320" x="-39.999" fill="#329203"/>
  <rect id="rect255" height="160" width="720" y="-.0000010929" x="-39.999" fill="#e77300"/>
  <ellipse id="path200" d="m 667.90271,367.47272 c 0,168.44796 -136.55407,305.00201 -305.00204,305.00201 -168.44798,0 -305.002049,-136.55405 -305.002049,-305.00201 0,-168.44796 136.554069,-305.002017 305.002049,-305.002017 168.44797,0 305.00204,136.554057 305.00204,305.002017 z" rx="305" ry="305" transform="matrix(.40323 0 0 .40323 173.67 91.822)" cy="367.47" cx="362.9" fill="#08399c"/>
  <path id="path175" d="m426.58 212.4c0.67323 2.4564 0.8149 3.7678 1.3041 6.1179-4.8221 1.4924-7.3319 4.7055-6.75 7.922 0.48109 2.8969 2.6244 7.0185 8.6596 6.1414 0.15546 2.3953 0.22636 3.7716 0.23257 6.3188-18.228 0.0443-37.441-1.0073-55.368-2.5968-13.226-1.145-16.373 2.5266-23.25 3.1095-7.9788 0.65296-14.263 0.17803-30.744 0.8269 16.155-3.3304 22.503-5.3474 29.982-6.5559 7.1987-1.1172 9.9715 1.4891 23.369-3.7206 16.921-6.7263 34.985-12.745 52.565-17.563z" fill="#fff"/>
  <path id="path205" d="m293.62 134.15c2.4607-0.6573 3.773-0.79045 6.1262-1.2644 1.4611 4.8317 4.6578 7.3622 7.8781 6.8012 2.8999-0.46229 7.0354-2.5788 6.1975-8.6196 2.3962-0.13991 3.773-0.20189 6.3202-0.19158-0.0739 18.228-1.2501 37.433-2.9558 55.35-1.2307 13.218 2.4204 16.389 2.9587 23.27 0.60121 7.9829 0.0855 14.264 0.62749 30.749-3.2255-16.176-5.2013-22.537-6.3613-30.024-1.0705-7.2058 1.5538-9.9616-3.569-23.393-6.6164-16.965-12.518-35.067-17.222-52.678z" fill="#fff"/>
  <path id="path206" d="m321.63 130.75c2.547-0.006 3.8497 0.20042 6.2458 0.3438 0.17728 5.0446 2.6208 8.3084 5.8775 8.5893 2.9218 0.29446 7.4609-0.6945 8.1952-6.7487 2.3524 0.47735 3.6992 0.7694 6.1591 1.4306-4.7316 17.603-10.779 35.87-17.008 52.755-4.5691 12.464-1.8501 16.464-3.0887 23.253-1.4597 7.8713-3.564 13.812-7.2546 29.888 1.0173-16.464 0.73321-23.118 1.526-30.653 0.80727-7.24 4.0489-9.2334 2.5302-23.528-2.0594-18.092-3.1367-37.102-3.1822-55.33z" fill="#fff"/>
  <path id="path207" d="m349.87 134.7c2.4622 0.65177 3.6673 1.188 5.9451 1.9455-1.1318 4.9192 0.38573 8.7034 3.4593 9.816 2.7465 1.0392 7.3871 1.2563 9.6603-4.4028 2.1492 1.0688 3.3749 1.6988 5.5806 2.973-9.1182 15.784-19.678 31.868-30.058 46.571-7.6338 10.861-6.0401 15.427-8.9904 21.666-3.4434 7.2271-7.0109 12.423-14.729 26.999 5.2355-15.642 6.6799-22.144 9.3922-29.218 2.6501-6.7857 6.2966-7.8741 8.5219-22.076 2.684-18.01 6.5536-36.653 11.218-54.274z" fill="#fff"/>
  <path id="path208" d="m376.13 145.81c2.2102 1.2656 3.236 2.095 5.2408 3.4152-2.3641 4.4599-1.8755 8.5077 0.80634 10.376 2.3849 1.7134 6.8118 3.1218 10.47-1.758 1.8002 1.5877 2.8215 2.513 4.6232 4.3136-12.886 12.893-27.242 25.703-41.068 37.226-10.18 8.5206-9.82 13.343-14.282 18.608-5.1934 6.0924-9.9818 10.19-21.203 22.279 9.0983-13.759 12.173-19.667 16.621-25.801 4.3129-5.8709 8.1168-5.9804 13.935-19.125 7.2451-16.706 15.799-33.716 24.857-49.534z" fill="#fff"/>
  <path id="path209" d="m398.51 163.2c1.8111 1.7908 2.5895 2.8557 4.1881 4.6464-3.4301 3.7033-3.9973 7.7408-1.8852 10.236 1.8649 2.2683 5.7818 4.7664 10.57 0.98945 1.3321 1.9967 2.0816 3.1532 3.3605 5.3562-15.764 9.1515-32.929 17.846-49.25 25.432-12.027 5.6207-12.917 10.374-18.581 14.317-6.5837 4.5545-12.264 7.2851-26.213 16.087 12.326-10.961 16.815-15.881 22.689-20.667 5.6759-4.5665 9.3804-3.6956 18.379-14.906 11.292-14.285 23.927-28.528 36.743-41.49z" fill="#fff"/>
  <path id="path210" d="m416.01 186.35c1.2768 2.2038 1.7479 3.4359 2.8197 5.5837-4.2828 2.6717-5.8911 6.4182-4.509 9.3803 1.2032 2.6787 4.3259 6.1183 9.9385 3.7326 0.76056 2.2766 1.1798 3.5894 1.8347 6.051-17.615 4.6868-36.462 8.5646-54.203 11.595-13.081 2.2624-15.189 6.6147-21.691 8.9303-7.5492 2.6642-13.747 3.806-29.519 8.6324 14.774-7.3363 20.398-10.904 27.323-13.978 6.6765-2.9143 10.022-1.1004 21.65-9.5516 14.649-10.815 30.583-21.237 46.356-30.376z" fill="#fff"/>
  <path id="path211" d="m214.69 267.32c-0.6581-2.4605-0.79169-3.7728-1.2664-6.1258 4.8312-1.4627 7.3607-4.6603 6.7986-7.8803-0.46324-2.8998-2.5812-7.0345-8.6216-6.1946-0.14071-2.3962-0.20313-3.7729-0.19366-6.3201 18.228 0.0679 37.434 1.2378 55.351 2.9377 13.219 1.2264 16.389-2.4257 23.269-2.9663 7.9827-0.60383 14.264-0.0902 30.749-0.63758-16.175 3.2308-22.535 5.2087-30.022 6.3712-7.2054 1.0729-9.9622-1.5505-23.392 3.5767-16.962 6.622-35.063 12.529-52.672 17.239z" fill="#fff"/>
  <path id="path212" d="m430.16 240.36c0.0237 2.5469-0.17426 3.851-0.30136 6.248-5.0433 0.21155-8.2904 2.6772-8.5492 5.9357-0.27461 2.9237 0.74517 7.456 6.8042 8.1491-0.46136 2.3556-0.74426 3.7043-1.3887 6.1687-17.635-4.6119-35.942-10.535-52.869-16.649-12.495-4.4844-16.476-1.7382-23.273-2.9307-7.881-1.4062-13.836-3.4701-29.936-7.0514 16.47 0.90542 23.122 0.57615 30.662 1.3177 7.2453 0.75807 9.2607 3.9861 23.545 2.3703 18.078-2.1823 37.079-3.3887 55.307-3.558z" fill="#fff"/>
  <path id="path213" d="m426.4 268.65c-0.63574 2.4664-1.1642 3.6749-1.9068 5.9576-4.9265-1.0998-8.7007 0.44236-9.7933 3.5231-1.0213 2.7532-1.2082 7.3951 4.4655 9.6315-1.0548 2.1561-1.6768 3.3859-2.9366 5.5998-15.843-9.0153-31.995-19.471-46.766-29.755-10.91-7.563-15.466-5.9396-21.724-8.8493-7.2494-3.3963-12.468-6.9299-27.095-14.553 15.676 5.1336 22.187 6.5357 29.279 9.2018 6.8028 2.6059 7.9149 6.2452 22.131 8.378 18.027 2.5667 36.695 6.315 54.346 10.865z" fill="#fff"/>
  <path id="path214" d="m415.43 295.03c-1.2524 2.2178-2.0756 3.2484-3.3837 5.2611-4.474-2.3373-8.5188-1.8245-10.371 0.8685-1.6991 2.3951-3.081 6.8304 1.8207 10.459-1.5769 1.8097-2.496 2.8365-4.2858 4.649-12.97-12.808-25.866-27.088-37.472-40.844-8.5814-10.129-13.402-9.7399-18.693-14.17-6.1234-5.1568-10.25-9.9206-22.405-21.069 13.813 9.0157 19.739 12.055 25.9 16.466 5.8966 4.2777 6.029 8.0808 19.208 13.82 16.749 7.1448 33.81 15.597 49.682 24.56z" fill="#fff"/>
  <path id="path215" d="m398 317.69c-1.784 1.8178-2.8461 2.6001-4.6308 4.2053-3.716-3.4163-7.7556-3.9684-10.243-1.8471-2.2614 1.8734-4.7448 5.7995-0.95009 10.574-1.9917 1.3396-3.1454 2.0934-5.3436 3.3804-9.2101-15.73-17.968-32.862-25.615-49.155-5.6654-12.006-10.422-12.878-14.386-18.528-4.579-6.5667-7.3307-12.237-16.184-26.153 11.007 12.285 15.944 16.756 20.752 22.612 4.5876 5.6588 3.7305 9.3665 14.974 18.323 14.327 11.239 28.617 23.821 41.627 36.589z" fill="#fff"/>
  <path id="path216" d="m375.1 335.17c-2.1965 1.2893-3.4259 1.7674-5.5676 2.8514-2.696-4.2675-6.4515-5.8546-9.4058-4.4556-2.6718 1.2184-6.0936 4.3606-3.6761 9.9595-2.2723 0.77348-3.5827 1.2001-6.0405 1.869-4.7867-17.588-8.7715-36.412-11.902-54.136-2.3366-13.068-6.7008-15.152-9.0533-21.64-2.707-7.534-3.884-13.725-8.7998-29.47 7.4201 14.732 11.02 20.335 14.133 27.243 2.9522 6.6598 1.1573 10.015 9.6744 21.596 10.898 14.588 21.411 30.462 30.638 46.183z" fill="#fff"/>
  <path id="path217" d="m348.59 346.03c-2.4559 0.67514-3.7672 0.81782-6.1168 1.3089-1.4961-4.821-4.7112-7.3282-7.9273-6.7438-2.8965 0.48332-7.0165 2.6298-6.1347 8.6644-2.3952 0.15731-3.7714 0.22928-6.3186 0.23746-0.0584-18.228 0.97835-37.441 2.554-55.37 1.1347-13.227-2.5393-16.371-3.1275-23.248-0.65914-7.9783-0.18907-14.263-0.85068-30.744 3.3429 16.153 5.3648 22.498 6.5791 29.977 1.1228 7.1978-1.4814 9.9727 3.7387 23.366 6.7394 16.916 12.772 34.975 17.604 52.551z" fill="#fff"/>
  <path id="path218" d="m320.04 349.63c-2.5469 0.0117-3.8501-0.19229-6.2466-0.33061-0.18793-5.0443-2.6384-8.3028-5.8956-8.5769-2.9224-0.2883-7.4594 0.71025-8.1809 6.766-2.3534-0.47238-3.7008-0.7616-6.1621-1.4176 4.6944-17.613 10.703-35.892 16.897-52.791 4.5428-12.474 1.8154-16.467 3.0396-23.259 1.443-7.8744 3.5349-13.819 7.1915-29.903-0.98252 16.466-0.6844 23.119-1.4612 30.656-0.79199 7.2417-4.0294 9.2419-2.4805 23.533 2.0976 18.088 3.2151 37.095 3.299 55.323z" fill="#fff"/>
  <path id="path219" d="m291.8 345.74c-2.4636-0.64638-3.6699-1.18-5.9493-1.9325 1.1211-4.9217-0.40481-8.7025-3.4808-9.8084-2.7488-1.0332-7.3898-1.2401-9.6506 4.4239-2.1516-1.0641-3.3786-1.6914-5.587-2.9608 9.0836-15.804 19.608-31.911 29.956-46.637 7.61-10.878 6.0063-15.44 8.9429-21.685 3.4275-7.2347 6.9837-12.438 14.67-27.032-5.2012 15.653-6.6314 22.158-9.3281 29.239-2.6352 6.7915-6.2793 7.8879-8.4735 22.094-2.6445 18.016-6.4732 36.667-11.099 54.299z" fill="#fff"/>
  <path id="path220" d="m265.43 334.64c-2.2118-1.2629-3.2386-2.0909-5.2451-3.4085 2.3585-4.4629 1.8647-8.51-0.81948-10.375-2.387-1.7104-6.8158-3.1132-10.468 1.7713-1.8022-1.5854-2.8247-2.5094-4.6287-4.3078 12.869-12.909 27.21-25.738 41.021-37.278 10.169-8.5334 9.8031-13.356 14.258-18.626 5.1856-6.099 9.9689-10.203 21.175-22.305-9.0808 13.77-12.148 19.682-16.588 25.822-4.3055 5.8764-8.1092 5.9907-13.911 19.143-7.2239 16.715-15.756 33.736-24.794 49.566z" fill="#fff"/>
  <path id="path221" d="m242.8 317.05c-1.8081-1.7938-2.5847-2.86-4.1803-4.6534 3.4362-3.6976 4.0102-7.7341 1.9023-10.232-1.8612-2.2714-5.7738-4.776-10.568-1.0071-1.3288-1.9989-2.0764-3.1567-3.3516-5.3618 15.78-9.1252 32.959-17.791 49.292-25.35 12.036-5.6006 12.934-10.352 18.605-14.286 6.5912-4.5435 12.276-7.2646 26.24-16.043-12.345 10.94-16.841 15.853-22.723 20.63-5.6835 4.5571-9.3865 3.6799-18.404 14.875-11.316 14.266-23.974 28.488-36.812 41.429z" fill="#fff"/>
  <path id="path222" d="m225.41 293.99c-1.276-2.2043-1.7467-3.4365-2.8177-5.5848 4.2838-2.6701 5.8935-6.416 4.5124-9.3786-1.2022-2.6792-4.3236-6.1199-9.9371-3.7363-0.75972-2.2769-1.1784-3.5899-1.8325-6.0517 17.617-4.6802 36.465-8.551 54.207-11.575 13.082-2.2575 15.192-6.609 21.694-8.9222 7.5502-2.6614 13.749-3.8009 29.522-8.6214-14.776 7.3308-20.402 10.896-27.328 13.968-6.6776 2.9118-10.022 1.0967-21.654 9.5435-14.653 10.81-30.591 21.226-46.367 30.358z" fill="#fff"/>
  <path id="path223" d="m267.34 144.64c2.2099-1.2662 3.4442-1.7314 5.5972-2.7929 2.6511 4.2955 6.3898 5.9218 9.3586 4.5539 2.6845-1.1904 6.139-4.2965 3.7802-9.9205 2.2802-0.74963 3.5951-1.1625 6.0598-1.8057 4.6022 17.638 8.3896 36.502 11.335 54.258 2.1996 13.092 6.5417 15.221 8.8261 21.733 2.6279 7.5619 3.74 13.765 8.4906 29.56-7.2654-14.809-10.806-20.45-13.847-27.389-2.8823-6.6904-1.0524-10.027-9.4476-21.696-10.745-14.701-21.09-30.685-30.153-46.501z" fill="#fff"/>
  <path id="path224" d="m211.28 238.77c0.006-2.547 0.21843-3.8487 0.37301-6.2442 5.0454-0.15367 8.3206-2.582 8.6167-5.8373 0.30813-2.9203-0.65959-7.4641-6.7103-8.2266 0.48834-2.3501 0.7867-3.6956 1.4594-6.1524 17.581 4.8139 35.819 10.946 52.675 17.255 12.443 4.6274 16.455 1.9271 23.238 3.1975 7.8644 1.4965 13.795 3.6286 29.853 7.3944-16.459-1.0943-23.114-0.84134-30.645-1.6693-7.2361-0.84114-9.2143-4.092-23.516-2.6402-18.102 1.9748-37.116 2.9631-55.344 2.9233z" fill="#fff"/>
  <path id="path225" d="m215.3 210.76c0.65824-2.4604 1.1977-3.6642 1.9611-5.9399 4.9162 1.1448 8.7044-0.36287 9.8251-3.4335 1.0464-2.7438 1.2757-7.3838-4.3774-9.6718 1.0744-2.1464 1.7077-3.3704 2.9877-5.5727 15.76 9.1596 31.816 19.762 46.492 30.181 10.841 7.6623 15.411 6.0806 21.642 9.0473 7.2181 3.4624 12.404 7.0435 26.961 14.8-15.628-5.2766-22.126-6.738-29.193-9.4689-6.7788-2.6679-7.8576-6.3172-22.053-8.5798-18.003-2.7312-36.635-6.6498-54.244-11.361z" fill="#fff"/>
  <path id="path226" d="m226.53 184.44c1.2735-2.2057 2.1065-3.2285 3.4338-5.2286 4.4515 2.3799 8.501 1.9057 10.379-0.76946 1.7218-2.3788 3.146-6.8007-1.7208-10.476 1.5941-1.7946 2.523-2.8126 4.33-4.6078 12.847 12.932 25.606 27.334 37.08 41.2 8.4843 10.21 13.308 9.8674 18.557 14.348 6.0739 5.215 10.154 10.018 22.203 21.282-13.726-9.1471-19.623-12.243-25.741-16.712-5.8555-4.3338-5.9515-8.138-19.076-14.003-16.68-7.3044-33.66-15.919-49.446-25.033z" fill="#fff"/>
  <path id="path227" d="m244.6 161.55c1.8108-1.7911 2.8843-2.5576 4.6927-4.1362 3.6649 3.471 7.6959 4.0831 10.214 1.9989 2.2889-1.8396 4.8303-5.7284 1.1069-10.558 2.0114-1.3099 3.1762-2.0464 5.3932-3.3007 8.9757 15.865 17.479 33.126 24.883 49.53 5.4866 12.089 10.23 13.032 14.109 18.739 4.481 6.6339 7.1483 12.344 15.794 26.39-10.823-12.447-15.693-16.991-20.414-22.917-4.5032-5.7263-3.5911-9.4209-14.7-18.543-14.159-11.45-28.261-24.243-41.079-37.202z" fill="#fff"/>
 </g>
</svg>
