<?xml version="1.0" encoding="UTF-8" standalone="no"?>
<!-- Created with Sodipodi ("http://www.sodipodi.com/") -->
<svg id="svg378" xmlns:rdf="http://www.w3.org/1999/02/22-rdf-syntax-ns#" xmlns="http://www.w3.org/2000/svg" height="480" width="640" version="1.1" xmlns:cc="http://creativecommons.org/ns#" xmlns:dc="http://purl.org/dc/elements/1.1/">
 <metadata id="metadata4104">
  <rdf:RDF>
   <cc:Work rdf:about="">
    <dc:format>image/svg+xml</dc:format>
    <dc:type rdf:resource="http://purl.org/dc/dcmitype/StillImage"/>
   </cc:Work>
  </rdf:RDF>
 </metadata>
 <defs id="defs380">
  <clipPath id="clipPath6904" clipPathUnits="userSpaceOnUse">
   <rect id="rect6906" fill-opacity="0.67" height="384" width="512" y="64" x="-8.5301e-7"/>
  </clipPath>
 </defs>
 <g id="flag" clip-path="url(#clipPath6904)" fill-rule="evenodd" transform="matrix(1.25 0 0 1.25 .0000010663 -80)">
  <rect id="rect171" height="512" width="512" y="-2.9648e-9" x="-8.5301e-7" stroke-width="1pt" fill="#fff"/>
  <rect id="rect140" height="170.67" width="512" y="341.33" x="-8.5301e-7"/>
  <rect id="rect403" height="170.67" width="512" y="-2.9648e-9" x="-8.5301e-7" fill="#f30000"/>
  <polygon id="polygon141" d="m 566.56441,405.84249 -35.32801,-25.5508 -35.14661,25.89555 13.38329,-41.49457 -35.48903,-25.42425 43.59935,-0.0942 13.21318,-41.6086 13.56258,41.43631 43.65523,-0.29128 -35.21721,25.70331 z" points="566.56 405.84 531.24 380.29 496.09 406.19 509.47 364.69 473.98 339.27 517.58 339.17 530.8 297.57 544.36 339 588.01 338.71 552.8 364.41" transform="matrix(.59780 0 0 .59780 148.9 41.417)" stroke-width="1pt" fill="#005623"/>
  <path id="path155" d="m193.24 233.17c0.217 24.34 0 39.988 0 44.986-2.6082 3.0422-5.2158 6.302-7.1718 8.9096-0.8692-0.65161-1.0868-0.65161-1.0868-1.956 0-1.3038-0.217-33.25 0-44.986 3.912-1.956 6.5202-7.3894 8.2586-6.9542zm-8.9102-0.43461c1.956-3.2598 4.129-6.5202 5.6504-8.041 1.5214 0.86921 1.3038 3.2598 1.5214 3.9114-1.5214 2.1736-5.2158 5.6504-6.3026 6.7372-0.4346-0.6516 0-0.4346-0.86921-2.6076zm10.866-27.818c-13.257 8.6932-28.253 19.125-33.686 23.689-5.4334 4.5642-7.3888 7.3894-7.3888 15.213 0 7.824 0.217 16.734-0.4346 20.863-0.65221 4.129-2.6082 8.4756-7.3894 4.5636-4.7812-3.9114-8.258-7.8234-10.432-9.5618-2.173-1.739-6.085-4.1296-11.301 0.4346-5.2158 4.5636-29.556 30.208-34.12 33.033-4.5636 2.8252-5.4328 3.4774-8.6926 5.2158 6.7366 0.4346 14.343 0.86921 20.428-0.4346 8.041-5.868 17.386-19.125 20.429-22.385 3.0428-3.2598 6.085-10.214 12.822-2.6076 6.7372 7.6064 6.5196 7.8234 9.7794 10.214 3.2604 2.3906 7.3894 1.956 10.215-2.8252 2.8252-4.7812 3.0422-6.9542 4.129-14.778 1.0868-7.8234 1.7384-17.603 3.4774-21.95 1.7384-4.3466 5.2158-8.6932 11.083-12.171 5.868-3.4768 6.9548-3.6944 8.2586-4.346 2.6076-4.9988 8.9102-16.734 11.518-19.56 1.0868-1.3038 1.3044-1.956 1.3044-2.6082zm-58.895 79.107c-3.2598-2.173-4.3466-3.912-6.085-3.6944s-5.4328 5.2158-7.6064 6.5196c2.8252 2.3906 5.4334 4.5642 7.6064 4.1296 2.1736-0.43519 3.6944-5.2158 6.085-6.9548z" fill="#005623"/>
  <path id="path161" d="m411.65 222.96c-4.5636 1.0868-6.9542 7.1718-10.866 11.301-0.43461 12.171-0.43461 49.985-0.43461 54.983 3.912-4.5636 6.3026-7.1718 9.1278-8.9102 0.6516-20.211 3.0422-48.463 2.173-57.374zm-21.516-0.217c-5.4328 3.4768-6.7366 6.9542-11.301 10.866-0.21699 14.561 0.43461 35.206-0.6516 38.032-1.0868 2.8252-3.4774 8.6932-9.3448 8.041-5.868-0.65161-7.6064-1.7384-7.6064-7.8234s1.3038-44.986 1.3038-51.289c-4.5642 2.1736-8.4756 8.9108-11.735 11.736 0 15.212 0.65161 34.554 0.21701 38.684-0.4346 4.129-2.173 10.866-9.5624 10.649-7.3888-0.217-11.301-3.912-11.301-8.258 0-4.3466-0.21701-32.816 0.21759-37.815-6.5196 4.5636-21.733 13.691-24.775 25.427-3.0422 11.735 1.739 15.213 6.085 13.039 4.3466-2.173 6.3026-4.129 8.6932-5.8674 0.65221 7.3888 0.86921 15.43 8.258 20.211 7.3894 4.7812 16.734 3.0428 20.212 0.4346 3.4768-2.6076 4.7812-4.3466 5.6504-5.6504 6.5196 4.9982 16.082 7.6064 22.385 2.173 6.302-5.4328 9.7795-10.866 10.431-16.951 0.6522-6.085 3.695-37.38 2.8252-45.638zm-68.24 29.556c-6.5196 3.0428-9.3448 7.6064-7.6064 10.432 1.7384 2.8252 5.2158-0.4346 7.6064-1.5214-0.43461-4.346 0-6.7366 0-8.9102zm41.944-46.073c-1.5214 4.9982-2.6076 4.129-4.5636 4.3466-1.956 0.21701-3.2598-1.739-4.7812-3.4774-1.5214 0.21701-1.7384 0.65221-2.8252 1.0868 3.4768 4.9982 6.085 7.1712 10.214 6.085 4.129-1.0868 4.3466-4.7812 4.3466-6.7372-0.6522-0.43461-0.86921-0.6522-2.3906-1.3038zm-3.6944-6.3026c-1.956 0.65219-2.3906 1.0868-3.0428 2.8252 1.0868 2.3906 2.6082 3.6944 4.1296 3.0428 1.5208-0.6522 1.7384-3.2598 0.86921-3.912-0.86921-0.6522-0.4346-1.0868-1.956-1.956z" fill="#005623"/>
  <polygon id="polygon163" d="m 566.56441,405.84249 -35.32801,-25.5508 -35.14661,25.89555 13.38329,-41.49457 -35.48903,-25.42425 43.59935,-0.0942 13.21318,-41.6086 13.56258,41.43631 43.65523,-0.29128 -35.21721,25.70331 z" points="566.56 405.84 531.24 380.29 496.09 406.19 509.47 364.69 473.98 339.27 517.58 339.17 530.8 297.57 544.36 339 588.01 338.71 552.8 364.41" transform="matrix(.59780 0 0 .59780 -276.18 41.417)" stroke-width="1pt" fill="#005623"/>
  <polygon id="polygon164" d="m 566.56441,405.84249 -35.32801,-25.5508 -35.14661,25.89555 13.38329,-41.49457 -35.48903,-25.42425 43.59935,-0.0942 13.21318,-41.6086 13.56258,41.43631 43.65523,-0.29128 -35.21721,25.70331 z" points="566.56 405.84 531.24 380.29 496.09 406.19 509.47 364.69 473.98 339.27 517.58 339.17 530.8 297.57 544.36 339 588.01 338.71 552.8 364.41" transform="matrix(.59780 0 0 .59780 -64.075 41.417)" stroke-width="1pt" fill="#005623"/>
 </g>
</svg>
