<?xml version="1.0" encoding="UTF-8" standalone="no"?>
<svg id="svg2" xmlns:rdf="http://www.w3.org/1999/02/22-rdf-syntax-ns#" xmlns="http://www.w3.org/2000/svg" height="480" width="640" version="1.0" xmlns:cc="http://creativecommons.org/ns#" xmlns:xlink="http://www.w3.org/1999/xlink" viewBox="0,0 30,18" xmlns:dc="http://purl.org/dc/elements/1.1/">
 <metadata id="metadata83">
  <rdf:RDF>
   <cc:Work rdf:about="">
    <dc:format>image/svg+xml</dc:format>
    <dc:type rdf:resource="http://purl.org/dc/dcmitype/StillImage"/>
   </cc:Work>
  </rdf:RDF>
 </metadata>
 <defs id="defs81">
  <clipPath id="clipPath3612" clipPathUnits="userSpaceOnUse">
   <rect id="rect3614" fill-opacity="0.67" height="30" width="40" y="-6" x="-5.2539"/>
  </clipPath>
 </defs>
 <g id="flag" clip-path="url(#clipPath3612)" transform="matrix(0.75 0 0 0.75 3.9404 2.25)">
  <rect id="rect4" height="30" width="50" y="-6" x="-10.254" fill="#fff"/>
  <path id="path6" d="m-10.254-6v1.9271l21.771 13.073-21.771 13.073v1.9271h3.2813l21.719-13.073 21.719 13.073h3.2812v-1.9271l-21.771-13.073 21.771-13.073v-1.9271h-3.2812l-21.719 13.073-21.719-13.073h-3.2813z" fill-rule="evenodd" fill="#df112d"/>
  <g id="Jersey badge" transform="matrix(.20361 0 0 .20361 -9.6489 -6.0385)">
   <path id="shield" d="m132.66 22.233c3.156 12.778 1.425 28.56-12.829 37.316-14.255-8.7563-15.986-24.538-12.829-37.316 3.36-3.0546 18.632-4.9382 25.658 0z" stroke="#000" stroke-width=".125" fill="#e8112d"/>
   <path id="crown" d="m119.81 19.667c5.226 0 10.093 1.3832 12.962 3.1764 0.563-4.4059 2.561-8.8117 4.918-12.142-2.459-0.0513-3.561 1.2551-3.586 2.6127-0.615-1.7418-3.023-1.6394-3.766-0.6916 2.69 1.8187 0.615 5.0462-1.818 4.3803-1.143-0.3127-1.747-1.1097-1.961-2.2668 0.263-0.0176 0.524-0.1139 0.744-0.2925 0.567-0.46 0.654-1.2927 0.194-1.8598s-1.292-0.654-1.86-0.194c-0.567 0.46-0.654 1.2927-0.193 1.8598 0.15 0.1863 0.343 0.3185 0.551 0.3988-0.769 1.2552-2.148 1.632-3.136 1.3554-1.281-0.3586-1.819-1.5113-1.819-2.5359 0-2.664 2.561-3.0738 3.33-2.6127-0.051-1.7931-2.869-3.2276-3.74-1.7419 0.973-1.7418 0.922-4.2009-0.82-5.8403-1.741 1.6394-1.793 4.0985-0.819 5.8403-0.871-1.4857-3.689-0.05118-3.74 1.7419 0.768-0.4611 3.33-0.0513 3.33 2.6127 0 1.0246-0.538 2.1773-1.819 2.5359-0.988 0.2766-2.367-0.1002-3.137-1.3554 0.209-0.0803 0.401-0.2125 0.552-0.3988 0.46-0.5671 0.373-1.3998-0.194-1.8598s-1.4-0.3731-1.86 0.194-0.373 1.3998 0.194 1.8598c0.221 0.1786 0.482 0.2749 0.745 0.2925-0.214 1.1571-0.819 1.9541-1.961 2.2668-2.433 0.6659-4.508-2.5616-1.819-4.3803-0.742-0.9478-3.15-1.0502-3.765 0.6916-0.026-1.3576-1.127-2.664-3.586-2.6127 2.356 3.33 4.354 7.7358 4.918 12.142 2.869-1.7932 7.736-3.1764 12.961-3.1764z" stroke="#000" stroke-width=".125" fill="#f9dd16"/>
   <g id="leopard">
    <g id="g12" stroke-width=".125" stroke="#000" fill="#f9dd16">
     <path id="body" d="m130.65 32.2c-0.315 0.0751-0.315 0.481-0.48 0.481 0.819-0.0226 1.217-0.248 1.465-0.6614-0.18 0.1653-0.023 0.481-0.083 0.5561 0.601-0.2104 0.887-0.7214 0.677-1.0671 0.135 0.1953 0.526 0.3006 0.646 0.3156-0.421-0.3307-0.12-1.0822-0.797-1.4729 0.226-0.0151 0.662 0.2404 0.782 0.5411-0.105-0.6764-0.211-1.1123-0.767-1.488 0.06 0.0676 0.376 0.1277 0.511 0-0.36-0.2255-0.466-0.6012-0.435-0.8417 0.042-0.3365-0.181-0.4059-0.602-0.3006-0.379 0.0947-1.247 0.1503-1.758 0.1503-1.052 0-1.969 0-2.841-0.6012 1.308 0.541 2.976-0.6012 2.976-1.5481 0-1.0522-1.293-1.9089-3.908-1.3377-2.615 0.5711-5.801 0.3306-5.801-0.5411 0-0.8718 2.284-0.992 3.457-0.8116 1.172 0.1803 2.013 0.3006 4.208-0.481-0.541 0.2104-2.285 0.2705-3.667-0.1202-1.383-0.3908-4.78-0.3908-4.81 1.4429-0.03 1.8336 3.617 1.6666 6.764 1.2024 1.833-0.2706 2.795-0.0902 2.795 0.511 0 0.5711-1.683 0.8116-2.976 0.6613-1.292-0.1502-2.615-0.1202-4.148 0.3307-1.28 0.3764-2.164 0-3.577 0.2405-0.685 0.1164-2.345 0-3.164-1.3528-0.504 0.3608-2.022 1.116-2.277 1.8525-0.361 0.6763-0.12 1.349 0.36 2.0103 0.606 0.8323-0.3 0.7064-0.946 0.7365-0.886 0.0412-2.072-0.0941-2.691-0.7966-0.548-0.6225-1.278-1.1214-1.861-0.66-0.3 0.2375-0.012 0.5501 0.225 0.4626 0.235-0.0865 0.513 0.0875 0.764 0.1974-0.401-0.1724-0.842-0.0386-1.014 0.1151-0.237 0.2125 0.051 0.6184 0.338 0.475 0.225-0.1125 0.687-0.1875 0.987 0.0875-0.325-0.0625-0.663-0.0493-0.825 0.125s-0.037 0.4281 0.313 0.4125c0.562-0.025 0.706 0.3688 1.269 0.2879-0.346 0.0451-0.542 0.2254-0.632 0.3607 0.526-0.2405 1.107 0.4078 1.789 0.2555-0.266 0.1095-0.695 0.371-0.691 0.5712 0.405-0.466 3.126 0.3607 3.186-0.6613 0.075 0.2104 0.06 0.526-0.15 0.7966 0.348-0.2105 1.473-0.2856 1.818-1.0973 0.03 0.2405-0.015 0.5562-0.225 0.6313 0.361 0.118 0.836-0.1508 1.322-0.8717 0.193-0.286 0.239-0.4761 0.206-0.6911 0.482 0.0182 0.831-0.1028 1.207-0.4212 0.391-0.3306 0.812 0.2706 1.473-0.1503 0.662-0.4208 1.233-0.0601 1.593-0.2705 0.361-0.2104 0.857 0.0751 1.248-0.1653 0.391-0.2405 0.997 0.1177 1.644-0.3933 1.018 0.3729 2.206 1.0639 5.12 0.5285 1.67-0.3069 2.194 0.2555 2.194 1.0221 0 0.526-0.308 0.5718-0.541 0.5862-0.929 0.0571-1.328-0.3478-1.695-0.218-0.246 0.0876-0.396 0.4876-0.04 0.6251-0.294 0.15-0.256 0.4313-0.106 0.5344s0.537 0.0094 0.8-0.1125c-0.338 0.1531-0.688 0.4281-0.488 0.7156 0.121 0.1745 0.427 0.3224 0.713-0.0499 0.287-0.3751 0.812-0.6876 1.146-0.638z"/>
     <path id="left ear" d="m112.14 24.264c-0.842-0.3456-1.126-0.3551-0.932 0.3307 0.083 0.2931 0.285 0.7064 0.488 0.8943 0.008-0.2855 0.113-1.0746 0.444-1.225z"/>
     <path id="right ear" d="m114.77 24.264c0.842-0.3456 1.126-0.3551 0.932 0.3307-0.083 0.2931-0.286 0.7064-0.489 0.8943-0.007-0.2855-0.112-1.0746-0.443-1.225z"/>
     <path id="head" d="m113.46 23.802c1.593 0 1.792 0.7477 1.784 1.6795-0.007 1.007-0.548 0.6613-0.856 1.9539-0.12 0.5054-0.523 0.5336-0.928 0.5336-0.406 0-0.808-0.0282-0.929-0.5336-0.307-1.2926-0.849-0.9469-0.856-1.9539-0.008-0.9318 0.191-1.6795 1.785-1.6795z"/>
     <path id="arm" d="m109.36 27.495c-0.406-0.2405-0.668-0.0741-0.833-0.0289 0.526 0.1352 0.547 0.8105 1.75 1.1261-0.271-0.0751-0.421 0.0752-0.677-0.0601 0.496 0.3908 1.052 0.8433 2.225 0.8567 0.654 0.0075 0.202 0.3457-0.226 0.1503 0.444 0.4584 1.323 0.0827 1.879 0.9169 0.105-0.6463-1.037-1.6684-0.511-2.4048-1.622-0.0691-1.755-0.9681-2.69-1.6834-0.761-0.5816-0.829-1.1728-1.165-2.2797-0.153-0.5012-0.74-0.8137-1.065-0.695-0.284 0.1038-0.388 0.3501-0.144 0.5344 0.244 0.1844 0.556 0.2094 0.623 0.6766-0.317-0.3797-0.792-0.5172-1.02-0.2797-0.139 0.1446-0.083 0.482 0.216 0.5126 0.487 0.05 0.137 0.525 0.691 0.9897-0.491-0.5522-0.916-0.6022-1.179-0.3022-0.157 0.1797 0 0.5 0.338 0.4657 0.489-0.0498 1.056 1.1907 1.788 1.5048z"/>
     <path id="leg" d="m122.43 32.139c-0.256 0.0451-0.18 0.466-0.526 0.4961 0.827 0 1.247-0.1955 1.638-0.5111-0.18 0.1052-0.255 0.3758-0.27 0.526 0.436-0.3757 1.473-0.4057 2.014-0.3005s0.631-0.1503 0.826-0.496c0.196-0.3457-0.075-0.5411-0.345-0.8116-0.271-0.2706-0.331-0.6463-0.271-1.2776-1.443-1.9238-4.028-0.992-4.058-0.1503 0.932 1.0821 1.052 0.9619 1.834 1.1122 0.781 0.1503 1.26 0.1499 0.736 0.5862-0.18 0.1503-0.932 0.0797-1.518 0.1052-1.311 0.057-1.911-0.9056-2.298-0.4056-0.319 0.4112 0.01 0.5928 0.66 0.5709-0.45 0.0032-1.047-0.0211-0.945 0.398 0.172 0.7062 0.847-0.1313 1.11 0.1593-0.225-0.0531-0.575 0.0844-0.588 0.2969-0.012 0.2126 0.5 0.4875 1.063 0.0406 0.308-0.245 0.701-0.3367 0.938-0.3387z"/>
    </g>
    <g id="g20" stroke-width=".125" stroke="#000" fill="none">
     <path id="path22" d="m123.55 29.206c-0.469-0.1716-0.899-0.2765-1.449-0.1629"/>
     <path id="path24" d="m116.48 28.983c-0.386 0.8294-0.152 1.2388-0.095 1.6236"/>
     <path id="path26" d="m112.37 25.052c0.265 0.1325 0.414-0.242 0.803 0.1556-0.107-0.116-0.24 0.3083-0.538 0.0267"/>
     <path id="path28" d="m114.53 25.052c-0.265 0.1325-0.414-0.242-0.803 0.1556 0.107-0.116 0.24 0.3083 0.538 0.0267"/>
     <path id="path30" d="m113.73 25.207c-0.091 0.0751-0.1-0.0599-0.031 0.2948 0.128 0.6513 0.279 0.956-0.248 0.956-0.538 0-0.375-0.3047-0.248-0.956 0.07-0.3547 0.061-0.2197-0.03-0.2948"/>
    </g>
    <path id="path32" d="m113.46 27.706c0.428 0 0.676-0.0075 0.609-0.6087-0.028-0.2413 0.293-0.3374 0.18-0.729 0.12 0.4809-0.789 0.435-0.789 0.217 0 0.218-0.909 0.2639-0.789-0.217-0.113 0.3916 0.207 0.4877 0.18 0.729-0.067 0.6012 0.181 0.6087 0.609 0.6087z" stroke="#000" stroke-width=".0625" fill="#ff0016"/>
    <g id="g34" stroke-width=".0625" stroke="#000">
     <path id="path36" d="m113.07 26.489-1.028-0.2868"/>
     <path id="path38" d="m113.07 26.543-1.148-0.0096"/>
     <path id="path40" d="m113.08 26.602-0.979 0.2623"/>
     <path id="path42" d="m113.84 26.489 1.028-0.2868"/>
     <path id="path44" d="m113.84 26.543 1.148-0.0096"/>
     <path id="path46" d="m113.83 26.602 0.979 0.2623"/>
    </g>
    <g id="claws and tongue" stroke-width=".013" stroke="#000" fill="#0051ba">
     <path id="path49" d="m108.13 23.414c-0.299-0.3723-1.048-0.0579-1.063 0.404 0.253-0.2994 0.666 0.1319 0.891 0.0412 0.156-0.0628 0.293-0.2937 0.172-0.4452z"/>
     <path id="path51" d="m107.75 24.295c-0.299-0.3723-1.047-0.0579-1.062 0.404 0.252-0.2994 0.665 0.1319 0.891 0.0412 0.156-0.0627 0.293-0.2937 0.171-0.4452z"/>
     <path id="path53" d="m107.55 25.479c-0.339-0.3363-1.047 0.0603-1.01 0.5209 0.218-0.3259 0.676 0.0563 0.89-0.0593 0.148-0.0799 0.258-0.3247 0.12-0.4616z"/>
     <path id="path55" d="m107.91 29.148c-0.376-0.295-1.033 0.1803-0.944 0.6337 0.179-0.3487 0.678-0.0219 0.877-0.1612 0.138-0.0965 0.22-0.3523 0.067-0.4725z"/>
     <path id="path57" d="m107.89 29.951c-0.448-0.1652-0.928 0.4894-0.703 0.8933 0.062-0.3868 0.638-0.2294 0.785-0.4234 0.102-0.1342 0.1-0.4026-0.082-0.4699z"/>
     <path id="path59" d="m108.46 30.551c-0.448-0.1653-0.928 0.4893-0.704 0.8933 0.063-0.3869 0.639-0.2295 0.786-0.4235 0.102-0.1342 0.1-0.4026-0.082-0.4698z"/>
     <path id="path61" d="m120.2 31.714c-0.448-0.1652-0.928 0.4894-0.703 0.8933 0.063-0.3868 0.638-0.2294 0.785-0.4234 0.102-0.1342 0.1-0.4026-0.082-0.4699z"/>
     <path id="path63" d="m120.81 32.258c-0.464-0.1132-0.866 0.5918-0.597 0.9675 0.018-0.3915 0.608-0.3006 0.732-0.5101 0.086-0.1449 0.054-0.4114-0.135-0.4574z"/>
     <path id="path65" d="m120.38 30.942c-0.414-0.239-0.998 0.3245-0.845 0.7607 0.128-0.3705 0.668-0.1175 0.846-0.2836 0.123-0.115 0.167-0.3798-0.001-0.4771z"/>
     <path id="path67" d="m128.73 31.883c-0.464-0.1131-0.866 0.5918-0.597 0.9676 0.019-0.3915 0.609-0.3006 0.732-0.5101 0.086-0.1449 0.054-0.4114-0.135-0.4575z"/>
     <path id="path69" d="m128.75 31.146c-0.421-0.2246-0.985 0.3587-0.818 0.7894 0.115-0.3747 0.664-0.1404 0.836-0.3126 0.119-0.1192 0.154-0.3853-0.018-0.4768z"/>
     <path id="path71" d="m129.07 32.542c-0.468-0.0928-0.839 0.6291-0.554 0.9927 0.002-0.3919 0.595-0.327 0.709-0.5416 0.08-0.1486 0.036-0.4134-0.155-0.4511z"/>
     <path id="path73" d="m113.49 27.345c0.294 0 0.413 0.0858 0.413 0.6169 0 1.1252-0.013 1.609-0.375 1.609-0.363 0-0.338-0.4597-0.338-1.2858 0-0.431 0-0.6465-0.087-0.6106 0-0.2812 0.125-0.3295 0.387-0.3295z"/>
    </g>
   </g>
   <use id="use75" xlink:href="#leopard" transform="matrix(.9 0 0 .9 11.6 13.7)" height="18" width="30" y="0" x="0"/>
   <use id="use77" xlink:href="#leopard" transform="matrix(.67 0 0 .75 39.2 27.5)" height="18" width="30" y="0" x="0"/>
  </g>
 </g>
</svg>
