<?xml version="1.0" encoding="UTF-8" standalone="no"?>
<!-- Created with Sodipodi ("http://www.sodipodi.com/") -->
<!--

<rdf:RDF xmlns="http://web.resource.org/cc/"
    xmlns:dc="http://purl.org/dc/elements/1.1/"
    xmlns:rdf="http://www.w3.org/1999/02/22-rdf-syntax-ns#">
<Work rdf:about="">
   <dc:title>SVG graphic of Kyrgyzstan's Flag</dc:title>
   <dc:rights><Agent>
      <dc:title>Andrew Duhan</dc:title>
   </Agent></dc:rights>
   <license rdf:resource="http://web.resource.org/cc/PublicDomain" />
</Work>

<License rdf:about="http://web.resource.org/cc/PublicDomain">
   <permits rdf:resource="http://web.resource.org/cc/Reproduction" />
   <permits rdf:resource="http://web.resource.org/cc/Distribution" />
   <permits rdf:resource="http://web.resource.org/cc/DerivativeWorks" />
</License>

</rdf:RDF>

-->
<svg id="svg719" xmlns:rdf="http://www.w3.org/1999/02/22-rdf-syntax-ns#" xmlns="http://www.w3.org/2000/svg" height="480" width="640" version="1.1" xmlns:cc="http://creativecommons.org/ns#" xmlns:dc="http://purl.org/dc/elements/1.1/">
 <metadata id="metadata4668">
  <rdf:RDF>
   <cc:Work rdf:about="">
    <dc:format>image/svg+xml</dc:format>
    <dc:type rdf:resource="http://purl.org/dc/dcmitype/StillImage"/>
   </cc:Work>
  </rdf:RDF>
 </metadata>
 <defs id="defs721">
  <clipPath id="clipPath5745" clipPathUnits="userSpaceOnUse">
   <rect id="rect5747" fill-opacity="0.67" height="512" width="682.67" y="0.0000125" x="-84.949"/>
  </clipPath>
 </defs>
 <g id="flag" clip-path="url(#clipPath5745)" fill-rule="evenodd" transform="matrix(.9375 0 0 .9375 79.64 -.000011719)">
  <rect id="rect724" height="512" width="768.77" y="0.0000125" x="-128" stroke-width="1pt" fill="#be0027"/>
  <path id="path733" d="m105.45 261.14c13.658-16.61 41.95-0.39853 65.045-12.359-27.358 1.5043-42.27-13.129-63.884-11.078 22.395-13.757 41.461 4.4994 66.502-2.8389-33.165-2.7897-31.727-17.615-61.884-19.721 26.788-11.425 40.036 11.75 66.276 6.4798-30.927-7.1391-35.045-25.356-58.039-29.212 33.608-5.0726 31.417 14.794 64.364 17.22-33.441-14.345-24.676-26.797-52.645-37.723 31.297-0.73925 29.222 20.951 60.93 26.64-27.144-17.22-23.791-32.935-46.149-45.232 26.524 0.47971 29.114 27.629 56.184 36.041-24.148-19.16-17.797-35.314-38.664-52.424 26.383 6.1883 22.542 29.611 50.019 44.552-20.363-22.615-12.55-38.805-30.314-57.318 25.374 8.1717 15.735 30.432 42.065 51.595-15.094-24.855-5.775-40.707-20.629-61.677 23.559 12.166 12.151 34.872 34.023 57.558-10.295-25.508 0.0148-41.352-10.507-63.941 20.152 15.057 8.1662 39.323 24.422 62.472-5.9263-31.919 7.8414-37.17 3.5572-65.124 15.306 18.79-1.802 37.581 9.9485 65.26-1.4305-31.476 15.294-38.795 12.394-64.067 15.169 22.645-8.5069 42.353 1.3948 66.605 2.5609-29.864 22.185-37.597 22.49-60.836 11.933 21.332-14.111 36.672-9.8833 64.955 8.5696-31.196 29.476-35.051 31.943-56.025 7.235 24.678-21.265 36.15-19.598 63.501 8.4884-27.736 34.62-30.989 39.962-51.476 3.2965 26.107-22.401 30.742-29.635 59.585 13.512-23.54 37.143-25.471 47.783-44.089-0.83519 25.815-29.844 29.2-38.748 53.372 16.725-20.51 37.691-16.95 54.415-35.135-1.7651 23.299-31.293 21.982-47.009 46.104 18.136-16.732 45.435-11.718 59.33-26.125-0.67405 20.608-36.908 19.059-53.996 37.479 21.075-11.545 47.757-4.7639 63.225-15.487-2.8266 18.068-41.076 13.845-59.356 27.946 25.211-6.9853 44.677 3.8094 65.102-3.9951-9.9399 17.587-44.634 6.4552-63.054 17.888 21.879-3.7048 45.126 9.55 65.091 5.2977-6.5622 15.201-44.58-0.91883-65.091 8.5376 24.51-0.21526 40.403 15.434 63.134 14.399-12.363 13.763-45.788-5.1624-65.262-1.9299 23.759 4.9152 41.911 24.602 59.926 25.55-14.784 11.352-42.423-14.497-64.864-11.215 23.105 6.1846 42.516 32.472 55.774 33.048-14.284 9.7615-42.517-22.464-61.861-21.319 23.496 10.62 34.272 37.515 49.698 41.296-19.099 6.128-37.868-29.217-58.391-30.442 23.772 14.993 25.115 37.918 43.418 48.124-19.257 4.7073-32.964-35.167-53.259-38.532 19.489 14.327 22.428 44.931 35.351 54.608-19.607 1.0357-26.692-40.714-46.787-46.678 17.216 14.379 13.094 45.579 26.479 58.863-20.425-4.1895-17.792-40.538-39.117-52.778 15.32 19.32 7.5266 46.846 17.512 62.337-19.871-8.0382-11.24-40.568-30.211-58.991 10.349 20.583-0.77369 44.587 7.3876 64.487-18.153-8.8538-5.9435-47.384-19.856-62.666 6.3949 23.786-5.3998 43.47-0.64577 64.794-18.559-21.526 2.8168-43.189-13.281-65.125 4.2731 25.177-13.336 42.697-10.567 63.771-14.716-17.19 7.9054-44.774-3.5277-66.478 2.4613 24.754-20.276 46.439-18.715 62.029-11.978-19.967 13.298-43.582 6.5302-66.285-1.4256 23.572-24.371 36.382-28.692 57.856-7.7123-23.689 19.564-40.812 17.209-64.091-7.8107 22.145-29.982 31.024-37.793 52.485-6.3949-23.623 25.914-36.167 26.768-61.021-9.9866 23.309-36.522 28.427-45.279 46.265-3.2694-23.5 33.807-34.007 35.187-56.275-11.936 21.382-40.969 22.249-50.991 39.254-1.5191-23.416 37.582-26.316 43.721-50.825-11.883 18.278-43.735 15.907-56.987 30.767 2.0898-21.722 44.388-23.066 51.129-42.6-15.723 15.168-44.963 8.882-61.426 20.913 9.1637-21.335 48.838-16.812 57.808-32.267-17.564 9.1637-48.68 0.28045-63.997 9.4442 13.921-20.206 44.803-8.1354 62.28-22.05-28.428 4.1427-45.506-7.1698-65.182-1.9336z" fill="#ff0"/>
  <path id="path731" d="m380.22 199.25c0 38.559-31.258 69.816-69.816 69.816-38.559 0-69.816-31.258-69.816-69.816 0-38.559 31.258-69.816 69.816-69.816 38.559 0 69.816 31.258 69.816 69.816z" transform="matrix(1.4212 0 0 1.4212 -184.43 -27.063)" fill="#ff0"/>
  <path id="path727" d="m380.22 199.25c0 38.559-31.258 69.816-69.816 69.816-38.559 0-69.816-31.258-69.816-69.816 0-38.559 31.258-69.816 69.816-69.816 38.559 0 69.816 31.258 69.816 69.816z" transform="matrix(1.2356 0 0 1.2356 -126.63 10.114)" fill="#be0027"/>
  <path id="path726" d="m380.22 199.25c0 38.559-31.258 69.816-69.816 69.816-38.559 0-69.816-31.258-69.816-69.816 0-38.559 31.258-69.816 69.816-69.816 38.559 0 69.816 31.258 69.816 69.816z" transform="matrix(1.061 0 0 1.061 -72.257 45.083)" fill="#ff0"/>
  <path id="path729" d="m194.04 207.95c20.501-0.45142 46.033 1.4182 62.859 14.893 17.859-11.154 39.005-16.311 60.54-14.313 3.6753 6.7049 7.3494 13.41 11.025 20.115-15.989-1.6126-31.591 0.64576-50.095 8.1243 23.597 18.696 35.395 42.809 34.622 72.144-2.7073 3.3518-6.9632 7.0911-9.6705 10.443 3.9324-28.496-11.089-60.279-32.881-76.978 17.73 25.596 28.304 48.676 25.339 80.46-3.1587 1.8696-6.8992 4.513-10.058 6.3826 4.6409-28.045-1.9324-60.926-22.629-80.074 11.926 17.537 23.854 48.999 16.439 81.041-3.2239 0.96681-8.1871 3.6753-11.411 4.6421 8.3175-26.239 3.0935-59.056-10.832-78.719-13.796 19.794-18.31 50.029-10.445 77.946-3.8684-0.96681-6.7689-2.128-10.637-3.0948-5.6729-30.043 2.1931-63.957 15.861-81.62-13.926 8.0592-27.079 42.614-23.405 77.946-3.3518-1.5474-5.9312-2.7085-9.283-4.2559-4.513-26.369 7.4134-60.666 24.564-80.461-19.471 12.25-35.266 42.295-32.494 74.659-2.9656-2.6433-5.7381-3.9324-8.7037-6.5757-3.417-28.239 12.894-56.67 32.106-73.691-16.182-7.2215-30.043-8.6397-50.094-8.3175 3.1587-6.5118 6.1256-14.183 9.2843-20.695z" fill="#be0027"/>
 </g>
</svg>
