<?xml version="1.0" encoding="UTF-8" standalone="no"?>
<!-- Created with Sodipodi ("http://www.sodipodi.com/") -->
<svg id="svg548" xmlns:rdf="http://www.w3.org/1999/02/22-rdf-syntax-ns#" xmlns="http://www.w3.org/2000/svg" height="480" width="640" version="1" y="0" x="0" xmlns:cc="http://creativecommons.org/ns#" xmlns:dc="http://purl.org/dc/elements/1.1/">
 <metadata id="metadata4794">
  <rdf:RDF>
   <cc:Work rdf:about="">
    <dc:format>image/svg+xml</dc:format>
    <dc:type rdf:resource="http://purl.org/dc/dcmitype/StillImage"/>
   </cc:Work>
  </rdf:RDF>
 </metadata>
 <defs id="defs550">
  <clipPath id="clipPath5675" clipPathUnits="userSpaceOnUse">
   <rect id="rect5677" fill-opacity="0.67" height="512" width="682.67" y="-.0000039058" x="-85.333"/>
  </clipPath>
 </defs>
 <g id="flag" fill-rule="evenodd" clip-path="url(#clipPath5675)" transform="matrix(.9375 0 0 .9375 80 .0000036617)">
  <rect id="rect815" height="512" width="768" y="-.0000039058" x="-128" stroke-width="1pt" fill="#1b0073"/>
  <rect id="rect837" height="256" width="768" y="128" x="-128" stroke-width="1pt" fill="#e60006"/>
  <g id="g1595" stroke="#e60000" fill="#fff" transform="matrix(1.0321 0 0 1.0321 -128 .00022675)">
   <rect id="rect1035" transform="translate(0 354.33)" height="50.992" width="315.35" y="-113.98" x="214.37" stroke-width="1.1702"/>
   <path id="path632" d="m220 280-5 15h320l-5-15h-310z" transform="matrix(1.0187 0 0 .79988 -9.9654 67.378)" stroke-width="1.25"/>
   <path id="path982" d="m245 280-5 15h60l-5-15h-50z" transform="matrix(1.2359 0 0 .79988 160.47 67.379)" stroke-width="1.1225"/>
   <path id="path983" d="m245 280-5 15h60l-5-15h-50z" transform="matrix(.62245 0 0 .79988 328.64 67.379)" stroke-width="1.5196"/>
   <path id="path984" d="m245 280-5 15h60l-5-15h-50z" transform="matrix(.40229 0 0 .79988 388.1 67.379)" stroke-width="2.0241"/>
   <path id="path636" d="m245 280-5 15h60l-5-15h-50z" transform="matrix(1.2992 0 0 .79988 21.26 67.378)" stroke-width="1.0977"/>
   <rect id="rect976" height="11.998" width="318.9" y="239.58" x="212.6" stroke-width=".94885pt"/>
   <g id="g1527">
    <rect id="rect1001" transform="translate(0 354.33)" height="50.792" width="62.5" y="-113.87" x="462.79" stroke-width=".89340pt"/>
    <rect id="rect637" transform="translate(0 354.33)" height="26.986" width="6.25" y="-90.068" x="507.5" stroke-width=".80466"/>
    <rect id="rect639" transform="translate(0 354.33)" height="26.986" width="6.2501" y="-90.068" x="480" stroke-width=".80467"/>
   </g>
   <g id="g1517">
    <path id="path637" d="m245 280-5 15h60l-5-15h-50z" transform="matrix(.65261 0 0 .79988 195.63 67.378)" stroke-width="1.5543"/>
    <path id="path638" d="m245 280-5 15h60l-5-15h-50z" transform="matrix(.40931 0 0 .79988 261.53 67.378)" stroke-width="1.9557"/>
    <rect id="rect1003" transform="translate(0 354.33)" height="50.992" width="65.854" y="-113.98" x="338.8" stroke-width=".91886pt"/>
    <rect id="rect683" transform="translate(0 354.33)" height="26.986" width="6.2498" y="-90.072" x="391.27" stroke-width="1.0398"/>
    <rect id="rect686" transform="translate(0 354.33)" height="26.986" width="6.2543" y="-90.075" x="347.78" stroke-width="1.0402"/>
    <rect id="rect687" transform="translate(0 354.33)" height="63.32" width="31.89" y="-126.32" x="356.1" stroke-width=".71252pt"/>
    <rect id="rect684" transform="translate(0 354.33)" height="26.986" width="6.2498" y="-90.074" x="380.02" stroke-width="1.0398"/>
    <rect id="rect685" transform="translate(0 354.33)" height="26.986" width="6.2543" y="-90.073" x="359.03" stroke-width="1.0402"/>
    <path id="path759" d="m358.18 217.13 13.471 22.98 14.264-22.98h-27.735z" transform="matrix(1 0 0 .84654 0 54.377)" stroke-width="1pt"/>
   </g>
   <rect id="rect1033" transform="translate(0 354.33)" height="62.99" width="17.717" y="-113.98" x="487.59" stroke-width="1.1785"/>
   <rect id="rect1034" transform="translate(0 354.33)" height="62.99" width="11.799" y="-113.98" x="490.54" stroke-width="1.1779"/>
   <g id="g1508">
    <path id="path635" d="m245 280-5 15h60l-5-15h-50z" transform="matrix(1.236 0 0 .79988 -84.448 67.379)" stroke-width="1.1225"/>
    <path id="path634" d="m245 280-5 15h60l-5-15h-50z" transform="matrix(.58110 0 0 .79988 90.856 67.379)" stroke-width="1.6368"/>
    <path id="path633" d="m245 280-5 15h60l-5-15h-50z" transform="matrix(.37077 0 0 .79988 147.56 67.379)" stroke-width="2.0493"/>
    <rect id="rect1000" transform="translate(0 354.33)" height="50.992" width="62.008" y="-113.98" x="217.91" stroke-width=".89162pt"/>
    <rect id="rect635" transform="translate(0 354.33)" height="26.986" width="6.2499" y="-90.066" x="230" stroke-width=".80467"/>
    <rect id="rect638" transform="translate(0 354.33)" height="26.986" width="6.25" y="-90.065" x="258.75" stroke-width=".80467"/>
    <rect id="rect986" transform="translate(0 354.33)" height="62.99" width="17.717" y="-113.98" x="239.17" stroke-width="1.1785"/>
    <rect id="rect987" transform="translate(0 354.33)" height="62.99" width="11.799" y="-113.98" x="242.11" stroke-width="1.1779"/>
   </g>
   <rect id="rect726" height="11.998" width="325.98" y="228.35" x="209.06" stroke-width=".95933pt"/>
   <g id="g598" transform="matrix(1 0 0 .84654 0 54.377)">
    <g id="g557" transform="matrix(1.0466 0 0 1.0413 -36.796 -6.024)">
     <rect id="rect551" height="17.5" width="406.25" y="328.56" x="187.5" stroke-width="1pt"/>
     <rect id="rect556" height="17.5" width="327.5" y="284.81" x="226.25" stroke-width=".89786pt"/>
     <rect id="rect555" height="17.5" width="337.5" y="288.56" x="221.25" stroke-width=".91146pt"/>
     <rect id="rect552" height="17.5" width="406.25" y="328.56" x="187.5" stroke-width="1pt"/>
     <rect id="rect554" height="17.5" width="356.25" y="298.56" x="212.5" stroke-width=".93644pt"/>
     <rect id="rect553" height="17.5" width="381.25" y="311.06" x="200" stroke-width=".96874pt"/>
    </g>
    <g id="g615" transform="matrix(.94488 0 0 1.0205 -32.48 1.1828)">
     <rect id="rect613" height="62.5" width="18.75" y="283.56" x="287.5" stroke-width="1.0297pt"/>
     <rect id="rect614" height="62.5" width="12.5" y="283.56" x="290.62" stroke-width=".84077pt"/>
    </g>
    <g id="g621" transform="matrix(.94488 0 0 1.0205 215.55 1.1831)">
     <rect id="rect622" height="62.5" width="18.75" y="283.56" x="287.5" stroke-width="1.0297pt"/>
     <rect id="rect623" height="62.5" width="12.5" y="283.56" x="290.62" stroke-width=".84077pt"/>
    </g>
    <rect id="rect993" height="0" width="60.029" y="344.61" x="290.25" stroke-width="1.1959"/>
    <rect id="rect995" height="0" width="60.029" y="344.61" x="290.25" stroke-width="1.1959"/>
    <rect id="rect996" height="0" width="60.029" y="266.91" x="112.96" stroke-width="1.1959"/>
    <rect id="rect997" height="0" width="60.029" y="233.97" x="32.825" stroke-width="1.1959"/>
   </g>
   <rect id="rect626" height="113.98" width="14.239" y="240.35" x="365.5" stroke-width="1.2011"/>
   <g id="g1531">
    <path id="path801" d="m217.92 220.3 0.184-36.915s3.362 7.236 29.512 8.821c24.749-0.937 28.848-5.362 29.969-9.284l-1.025 37.515-58.64-0.137z" transform="matrix(.94365 0 0 .84654 261.19 54.377)" stroke-width="1pt"/>
    <g id="g892" transform="translate(246.55 2.2413)">
     <path id="path893" d="m330.92 208.56-18.42-20.45c6.141-5.303 17.543 3.789 17.543 3.789s6.14-23.485 32.457-33.334c26.316 9.849 32.456 33.334 32.456 33.334s11.403-9.092 17.544-3.789l-18.422 20.455h-63.157z" transform="matrix(.41468 0 0 .29996 99.014 139.48)" stroke-width="3.5278"/>
     <path id="path894" d="m330.92 208.56-18.42-20.45c6.141-5.303 17.543 3.789 17.543 3.789s6.14-23.485 32.457-33.334c26.316 9.849 32.456 33.334 32.456 33.334s11.403-9.092 17.544-3.789l-18.422 20.455h-63.157z" transform="matrix(.53908 0 0 .41994 53.919 130.35)" stroke-width="2.615"/>
    </g>
    <g id="g727" transform="matrix(1.0205 0 0 1.1198 221.61 77.956)">
     <path id="path728" d="m0 280.52c0.79243 0 30.112 52.301 0 53.093-30.112 0.793 0-51.508 0-53.093z" transform="matrix(.38660 0 0 .35309 268.92 -29.035)" stroke-width="3.3833"/>
     <path id="path729" d="m330.92 208.56-18.42-20.45c6.141-5.303 17.543 3.789 17.543 3.789s6.14-23.485 32.457-33.334c26.316 9.849 32.456 33.334 32.456 33.334s11.403-9.092 17.544-3.789l-18.422 20.455h-63.157z" transform="matrix(.3125 0 0 .14062 155.67 64.124)" stroke-width="5.9629"/>
     <path id="path730" d="m330.92 208.56l-0.878-16.666s6.14-23.485 32.457-33.334c26.316 9.849 32.456 33.334 32.456 33.334l-0.878 16.666h-63.157z" transform="matrix(.16047 0 0 .14062 210.78 66.467)" stroke-width="8.3211"/>
     <path id="path731" d="m330.92 208.56l-0.878-16.666s6.14-23.485 32.457-33.334c26.316 9.849 32.456 33.334 32.456 33.334l-0.878 16.666h-63.157z" transform="matrix(.32094 0 0 .1875 152.61 63.722)" stroke-width="5.0956"/>
     <path id="path732" d="m330.92 208.56l-0.878-16.666s6.14-23.485 32.457-33.334c26.316 9.849 32.456 33.334 32.456 33.334l-0.878 16.666h-63.157z" transform="matrix(.32094 0 0 .1875 152.61 68.41)" stroke-width="5.0956"/>
     <path id="path733" d="m330.92 208.56-18.42-20.45c6.141-5.303 17.543 3.789 17.543 3.789s6.14-23.485 32.457-33.334c26.316 9.849 32.456 33.334 32.456 33.334s11.403-9.092 17.544-3.789l-18.422 20.455h-63.157z" transform="matrix(.3125 0 0 .375 155.67 43.367)" stroke-width="3.6515"/>
     <path id="path734" d="m330.92 208.56-18.42-20.45c6.141-5.303 17.543 3.789 17.543 3.789s6.14-23.485 32.457-33.334c26.316 9.849 32.456 33.334 32.456 33.334s11.403-9.092 17.544-3.789l-18.422 20.455h-63.157z" transform="matrix(.3125 0 0 .375 155.67 52.742)" stroke-width="3.6515"/>
     <path id="path735" d="m330.92 208.56l-0.878-16.666s6.14-23.485 32.457-33.334c26.316 9.849 32.456 33.334 32.456 33.334l-0.878 16.666h-63.157z" transform="matrix(.32094 0 0 .46875 152.61 47.251)" stroke-width="3.2227"/>
     <path id="path736" d="m330.92 208.56-18.42-20.45c6.141-5.303 17.543 3.789 17.543 3.789s6.14-23.485 32.457-33.334c26.316 9.849 32.456 33.334 32.456 33.334s11.403-9.092 17.544-3.789l-18.422 20.455h-63.157z" transform="matrix(.3125 0 0 .28125 155.67 86.357)" stroke-width="4.2164"/>
    </g>
   </g>
   <g id="g1546">
    <g id="g889" transform="translate(-1.1207 -.000015259)">
     <path id="path874" d="m330.92 208.56-18.42-20.45c6.141-5.303 17.543 3.789 17.543 3.789s6.14-23.485 32.457-33.334c26.316 9.849 32.456 33.334 32.456 33.334s11.403-9.092 17.544-3.789l-18.422 20.455h-63.157z" transform="matrix(.41468 0 0 .29996 99.014 139.48)" stroke-width="3.5278"/>
     <path id="path879" d="m330.92 208.56-18.42-20.45c6.141-5.303 17.543 3.789 17.543 3.789s6.14-23.485 32.457-33.334c26.316 9.849 32.456 33.334 32.456 33.334s11.403-9.092 17.544-3.789l-18.422 20.455h-63.157z" transform="matrix(.53908 0 0 .41994 53.919 130.35)" stroke-width="2.615"/>
    </g>
    <path id="path800" d="m217.92 220.3 0.184-36.915s3.362 7.236 29.512 8.821c24.749-0.937 28.848-5.362 29.969-9.284l-1.025 37.515-58.64-0.137z" transform="matrix(.94365 0 0 .84654 15.641 54.377)" stroke-width="1pt"/>
    <g id="g603" transform="matrix(1.0205 0 0 1.1198 -26.424 77.956)">
     <path id="path583" d="m0 280.52c0.79243 0 30.112 52.301 0 53.093-30.112 0.793 0-51.508 0-53.093z" transform="matrix(.38660 0 0 .35309 268.92 -29.035)" stroke-width="3.3833"/>
     <path id="path582" d="m330.92 208.56-18.42-20.45c6.141-5.303 17.543 3.789 17.543 3.789s6.14-23.485 32.457-33.334c26.316 9.849 32.456 33.334 32.456 33.334s11.403-9.092 17.544-3.789l-18.422 20.455h-63.157z" transform="matrix(.3125 0 0 .14062 155.67 64.124)" stroke-width="5.9629"/>
     <path id="path581" d="m330.92 208.56l-0.878-16.666s6.14-23.485 32.457-33.334c26.316 9.849 32.456 33.334 32.456 33.334l-0.878 16.666h-63.157z" transform="matrix(.16047 0 0 .14062 210.78 66.467)" stroke-width="8.3211"/>
     <path id="path580" d="m330.92 208.56l-0.878-16.666s6.14-23.485 32.457-33.334c26.316 9.849 32.456 33.334 32.456 33.334l-0.878 16.666h-63.157z" transform="matrix(.32094 0 0 .1875 152.61 63.722)" stroke-width="5.0956"/>
     <path id="path579" d="m330.92 208.56l-0.878-16.666s6.14-23.485 32.457-33.334c26.316 9.849 32.456 33.334 32.456 33.334l-0.878 16.666h-63.157z" transform="matrix(.32094 0 0 .1875 152.61 68.41)" stroke-width="5.0956"/>
     <path id="path576" d="m330.92 208.56-18.42-20.45c6.141-5.303 17.543 3.789 17.543 3.789s6.14-23.485 32.457-33.334c26.316 9.849 32.456 33.334 32.456 33.334s11.403-9.092 17.544-3.789l-18.422 20.455h-63.157z" transform="matrix(.3125 0 0 .375 155.67 43.367)" stroke-width="3.6515"/>
     <path id="path575" d="m330.92 208.56-18.42-20.45c6.141-5.303 17.543 3.789 17.543 3.789s6.14-23.485 32.457-33.334c26.316 9.849 32.456 33.334 32.456 33.334s11.403-9.092 17.544-3.789l-18.422 20.455h-63.157z" transform="matrix(.3125 0 0 .375 155.67 52.742)" stroke-width="3.6515"/>
     <path id="path578" d="m330.92 208.56l-0.878-16.666s6.14-23.485 32.457-33.334c26.316 9.849 32.456 33.334 32.456 33.334l-0.878 16.666h-63.157z" transform="matrix(.32094 0 0 .46875 152.61 47.251)" stroke-width="3.2227"/>
     <path id="path574" d="m330.92 208.56-18.42-20.45c6.141-5.303 17.543 3.789 17.543 3.789s6.14-23.485 32.457-33.334c26.316 9.849 32.456 33.334 32.456 33.334s11.403-9.092 17.544-3.789l-18.422 20.455h-63.157z" transform="matrix(.3125 0 0 .28125 155.67 86.357)" stroke-width="4.2164"/>
    </g>
   </g>
   <g id="g1561">
    <rect id="rect901" ry="6.4488" height="12.898" width="85.039" y="226.28" x="329.53" stroke-width="1.2256"/>
    <path id="path900" d="m353.24-212.6 1.093-56.693s-3.28 13.906-13.123 13.906h-150.92c-9.843 0-13.124-13.906-13.124-13.906l1.093 56.693h174.98z" transform="matrix(0.5 0 0 0.75 239.17 393.31)" stroke-width="1.5789"/>
    <g id="g860" transform="translate(-.000043591 -7.7902)">
     <path id="path807" d="m510.49 70.219 0.41-25.609s23.557-2.9984 20.288-9.3319c-3.27-6.3334-31.604 7.9858-31.604 7.9858h-113.34s-28.335-14.319-31.604-7.9858c-3.269 6.3335 20.288 9.3319 20.288 9.3319l0.408 25.609h135.15z" transform="matrix(0.4 0 0 .57434 194.88 182.02)" stroke-width="2.3995"/>
     <path id="path806" d="m510.49 70.219 0.41-25.609s23.557-2.9984 20.288-9.3319c-3.27-6.3334-31.604 7.9858-31.604 7.9858h-113.34s-28.335-14.319-31.604-7.9858c-3.269 6.3335 20.288 9.3319 20.288 9.3319l0.408 25.609h135.15z" transform="matrix(0.48 0 0 .57434 159.45 194.02)" stroke-width="2.1904"/>
     <path id="path814" d="m510.49 70.219 0.41-25.609s23.557-2.9985 20.288-9.3319c-3.27-6.333-27.29-18.36-61.81-31.08-24.29-5.9047 31.26-26.346-21.07-27.709-48.02 0.757-5.42 23.318-21.07 28.618-38.84 11.81-69.33 23.838-72.6 30.171-3.27 6.334 20.29 9.332 20.29 9.332l0.408 25.609h135.15z" transform="matrix(.12985 0 0 .26106 314.17 141.87)" stroke-width="6.2465"/>
     <path id="path808" d="m510.49 70.219 0.41-25.609s23.557-2.9984 20.288-9.3319c-3.27-6.3334-31.604 7.9858-31.604 7.9858h-113.34s-28.335-14.319-31.604-7.9858c-3.269 6.3335 20.288 9.3319 20.288 9.3319l0.408 25.609h135.15z" transform="matrix(.28332 0 0 .46992 246.55 164.54)" stroke-width="3.152"/>
     <path id="path809" d="m510.49 70.219 0.41-25.609s23.557-2.9984 20.288-9.3319c-3.27-6.3334-31.604 7.9858-31.604 7.9858h-113.34s-28.335-14.319-31.604-7.9858c-3.269 6.3335 20.288 9.3319 20.288 9.3319l0.408 25.609h135.15z" transform="matrix(.34 0 0 .46992 221.46 174.36)" stroke-width="2.8773"/>
     <path id="path810" d="m510.49 70.219 0.41-25.609s23.557-2.9984 20.288-9.3319c-3.27-6.3334-31.604 7.9858-31.604 7.9858h-113.34s-28.335-14.319-31.604-7.9858c-3.269 6.3335 20.288 9.3319 20.288 9.3319l0.408 25.609h135.15z" transform="matrix(.18333 0 0 .31908 290.85 157.28)" stroke-width="4.7552"/>
     <path id="path811" d="m510.49 70.219 0.41-25.609s23.557-2.9984 20.288-9.3319c-3.27-6.3334-31.604 7.9858-31.604 7.9858h-113.34s-28.335-14.319-31.604-7.9858c-3.269 6.3335 20.288 9.3319 20.288 9.3319l0.408 25.609h135.15z" transform="matrix(.22 0 0 .31908 274.61 163.95)" stroke-width="4.3408"/>
     <path id="path812" d="m510.49 70.219 0.41-25.609s23.557-2.9984 20.288-9.3319c-3.27-6.3334-31.604 7.9858-31.604 7.9858h-113.34s-28.335-14.319-31.604-7.9858c-3.269 6.3335 20.288 9.3319 20.288 9.3319l0.408 25.609h135.15z" transform="matrix(.12985 0 0 .26106 314.53 147.57)" stroke-width="6.2465"/>
     <path id="path813" d="m510.49 70.219 0.41-25.609s23.557-2.9984 20.288-9.3319c-3.27-6.3334-31.604 7.9858-31.604 7.9858h-113.34s-28.335-14.319-31.604-7.9858c-3.269 6.3335 20.288 9.3319 20.288 9.3319l0.408 25.609h135.15z" transform="matrix(.15583 0 0 .26106 303.03 153.03)" stroke-width="5.7021"/>
    </g>
    <g id="g789" transform="matrix(1 0 0 .84654 -.000038490 54.377)">
     <path id="path767" d="m330.92 208.56-18.42-20.45c6.141-5.303 17.543 3.789 17.543 3.789s6.14-23.485 32.457-33.334c26.316 9.849 32.456 33.334 32.456 33.334s11.403-9.092 17.544-3.789l-18.422 20.455h-63.157z" transform="matrix(.17717 0 0 .21260 307.82 85.004)" stroke-width="5.4435"/>
     <path id="path766" d="m330.92 208.56-18.42-20.45c6.141-5.303 17.543 3.789 17.543 3.789s6.14-23.485 32.457-33.334c26.316 9.849 32.456 33.334 32.456 33.334s11.403-9.092 17.544-3.789l-18.422 20.455h-63.157z" transform="matrix(.24803 0 0 .21260 282.14 92.09)" stroke-width="5.4435"/>
     <path id="path765" d="m330.92 208.56-18.42-20.45c6.141-5.303 17.543 3.789 17.543 3.789s6.14-23.485 32.457-33.334c26.316 9.849 32.456 33.334 32.456 33.334s11.403-9.092 17.544-3.789l-18.422 20.455h-63.157z" transform="matrix(.28346 0 0 .28346 269.29 89.705)" stroke-width="4.4097"/>
     <path id="path764" d="m330.92 208.56-18.42-20.45c6.141-5.303 17.543 3.789 17.543 3.789s6.14-23.485 32.457-33.334c26.316 9.849 32.456 33.334 32.456 33.334s11.403-9.092 17.544-3.789l-18.422 20.455h-63.157z" transform="matrix(.35433 0 0 .35433 243.6 90.155)" stroke-width="3.5278"/>
     <path id="path762" d="m358.18 217.13 13.471 22.98 14.264-22.98h-27.735z" transform="matrix(.92308 0 0 .79602 28.619 3.7524)" stroke-width="1.4582"/>
     <path id="path763" d="m330.92 208.56-18.42-20.45c6.141-5.303 17.543 3.789 17.543 3.789s6.14-23.485 32.457-33.334c26.316 9.849 32.456 33.334 32.456 33.334s11.403-9.092 17.544-3.789l-18.422 20.455h-63.157z" transform="matrix(.42520 0 0 .39487 217.91 96.262)" stroke-width="3.0506"/>
     <path id="path760" d="m358.18 217.13 13.471 22.98 14.264-22.98h-27.735z" transform="translate(-.00012022 -20.422)" stroke-width="1.25"/>
     <path id="path761" d="m330.92 208.56-18.42-20.45c6.141-5.303 17.543 3.789 17.543 3.789s6.14-23.485 32.457-33.334c26.316 9.849 32.456 33.334 32.456 33.334s11.403-9.092 17.544-3.789l-18.422 20.455h-63.157z" transform="matrix(.46063 0 0 .49606 205.07 95.815)" stroke-width="2.615"/>
     <path id="path746" d="m330.92 208.56-18.42-20.45c6.141-5.303 17.543 3.789 17.543 3.789s6.14-23.485 32.457-33.334c26.316 9.849 32.456 33.334 32.456 33.334s11.403-9.092 17.544-3.789l-18.422 20.455h-63.157z" transform="matrix(.46063 0 0 .49606 205.07 116.22)" stroke-width="2.615"/>
    </g>
   </g>
   <g id="g1584" stroke-width="1.0398">
    <rect id="rect644" transform="translate(0 354.33)" height="26.986" width="6.2498" y="-90.07" x="285.34"/>
    <rect id="rect649" transform="translate(0 354.33)" height="26.986" width="6.2498" y="-90.072" x="306.59"/>
    <rect id="rect650" transform="translate(0 354.33)" height="26.986" width="6.2498" y="-90.073" x="296.59"/>
    <rect id="rect652" transform="translate(0 354.33)" height="26.986" width="6.2498" y="-90.071" x="410.14"/>
    <rect id="rect653" transform="translate(0 354.33)" height="26.986" width="6.2498" y="-90.073" x="452.64"/>
    <rect id="rect654" transform="translate(0 354.33)" height="26.986" width="6.2498" y="-90.074" x="431.39"/>
    <rect id="rect655" transform="translate(0 354.33)" height="26.986" width="6.2498" y="-90.075" x="421.39"/>
    <rect id="rect656" transform="translate(0 354.33)" height="26.986" width="6.2498" y="-90.075" x="441.39"/>
    <rect id="rect648" transform="translate(0 354.33)" height="26.986" width="6.2498" y="-90.071" x="327.84"/>
    <rect id="rect651" transform="translate(0 354.33)" height="26.986" width="6.2498" y="-90.073" x="316.59"/>
   </g>
  </g>
 </g>
</svg>
