<?xml version="1.0" encoding="UTF-8" standalone="no"?>
<!-- Created with Sodipodi ("http://www.sodipodi.com/") -->
<svg id="svg570" xmlns:rdf="http://www.w3.org/1999/02/22-rdf-syntax-ns#" xmlns="http://www.w3.org/2000/svg" height="480" width="640" version="1.1" xmlns:cc="http://creativecommons.org/ns#" xmlns:xlink="http://www.w3.org/1999/xlink" xmlns:dc="http://purl.org/dc/elements/1.1/">
 <metadata id="metadata4835">
  <rdf:RDF>
   <cc:Work rdf:about="">
    <dc:format>image/svg+xml</dc:format>
    <dc:type rdf:resource="http://purl.org/dc/dcmitype/StillImage"/>
   </cc:Work>
  </rdf:RDF>
 </metadata>
 <defs id="defs572">
  <clipPath id="clipPath4927" clipPathUnits="userSpaceOnUse">
   <rect id="rect4929" fill-opacity="0.67" height="512" width="682.67" y="-.000021776" x="-86.325"/>
  </clipPath>
 </defs>
 <g id="flag" clip-path="url(#clipPath4927)" transform="matrix(.93750 0 0 .93750 80.93 .000020415)">
  <rect id="rect574" fill-rule="evenodd" height="306.49" width="835.79" y="-.000022833" x="-164.28" stroke-width="1pt" fill="#e73e2d"/>
  <path id="path605" d="m204.3 282.11c-19.435-15.174-55.633-10.041-61.596-51.286 27.717 21.469 22.686-1.2269 64.082 19.229l-2.4857 32.057z" fill-rule="evenodd" stroke="#d8aa3f" stroke-width="1.6651" fill="#fec74a"/>
  <path id="path564" d="m209.47 263.35c-13.852-20.398-49.882-26.602-42.922-67.69 19.807 28.928 21.971 5.7821 55.109 37.936l-12.187 29.754z" fill-rule="evenodd" stroke="#d8aa3f" stroke-width="1.6651" fill="#fec74a"/>
  <path id="path565" d="m215.77 250.01c-5.0008-24.145-35.922-43.653-13.782-78.958 7.2419 34.303 18.091 13.743 36.418 56.124l-22.637 22.834z" fill-rule="evenodd" stroke="#d8aa3f" stroke-width="1.6651" fill="#fec74a"/>
  <path id="path566" d="m230.32 237.61c2.6527-24.514-20.786-52.572 11.123-79.376-3.6383 34.87 12.998 18.633 17.431 64.594l-28.553 14.782z" fill-rule="evenodd" stroke="#d8aa3f" stroke-width="1.6651" fill="#fec74a"/>
  <path id="path567" d="m243.26 227.67c12.457-21.279 2.56-56.474 42.646-67.864-17.596 30.324 4.2303 22.321-10.543 66.068l-32.103 1.7959z" fill-rule="evenodd" stroke="#d8aa3f" stroke-width="1.6651" fill="#fec74a"/>
  <path id="path568" d="m262.07 230.29c18.559-16.234 20.327-52.751 61.957-50.849-26.3 23.183-3.0624 22.511-30.94 59.321l-31.017-8.4714z" fill-rule="evenodd" stroke="#d8aa3f" stroke-width="1.6651" fill="#fec74a"/>
  <path id="path569" d="m278.57 239.87c22.506-10.072 34.914-44.463 74.152-30.426-31.946 14.444-9.5343 20.621-46.987 47.628l-27.165-17.202z" fill-rule="evenodd" stroke="#d8aa3f" stroke-width="1.6651" fill="#fec74a"/>
  <path id="path570" d="m292.49 254.93c24.431-3.3298 46.018-32.837 79.718-8.3231-34.72 4.8675-14.953 17.104-58.494 32.476l-21.224-24.152z" fill-rule="evenodd" stroke="#d8aa3f" stroke-width="1.6651" fill="#fec74a"/>
  <path id="path598" d="m379.46 259.6-112.06 2.4605 4.7051 30.193 107.36-32.654z" fill-rule="evenodd" stroke="#d8aa3f" stroke-width="1.6651" fill="#fec74a"/>
  <path id="path597" d="m363 218.41-103.84 39.859 17.386 33.373 86.458-73.232z" fill-rule="evenodd" stroke="#d8aa3f" stroke-width="1.6651" fill="#fec74a"/>
  <path id="path596" d="m280.58 280.67 53.722-97.54-82.407 76.705 28.684 20.835z" fill-rule="evenodd" stroke="#d8aa3f" stroke-width="1.6651" fill="#fec74a"/>
  <path id="path595" d="m279.46 272.63 17.268-109.47-53.811 97.285 36.543 12.187z" fill-rule="evenodd" stroke="#d8aa3f" stroke-width="1.6651" fill="#fec74a"/>
  <path id="path594" d="m273.01 263.74-18.035-110.25-19.989 110.73 38.025-0.48221z" fill-rule="evenodd" stroke="#d8aa3f" stroke-width="1.6651" fill="#fec74a"/>
  <path id="path604" d="m263.68 254.29-52.292-92.072 20.095 111.92 32.197-19.845z" fill-rule="evenodd" stroke="#d8aa3f" stroke-width="1.6651" fill="#fec74a"/>
  <path id="path603" d="m255.56 253.6-81.101-68.479 57.667 98.003 23.435-29.524z" fill-rule="evenodd" stroke="#d8aa3f" stroke-width="1.6651" fill="#fec74a"/>
  <path id="path601" d="m145.95 218.89 87.069 71.891 13.387-37.606-100.46-34.285z" fill-rule="evenodd" stroke="#d8aa3f" stroke-width="1.6651" fill="#fec74a"/>
  <path id="path600" d="m232.1 260.85-102.31-1.4379 101.88 34.01 0.42859-32.572z" fill-rule="evenodd" stroke="#d8aa3f" stroke-width="1.6651" fill="#fec74a"/>
  <path id="path575" d="m429.77 602.07c0 24.163-19.588 43.751-43.751 43.751s-43.751-19.588-43.751-43.751 19.588-43.751 43.751-43.751 43.751 19.588 43.751 43.751z" fill-rule="evenodd" transform="matrix(1.4028 0 0 1.4028 -287.76 -565.36)" stroke="#d8aa3f" stroke-width="1.187" fill="#fec74a"/>
  <rect id="rect586" fill-rule="evenodd" height="208.6" width="839.9" y="303.4" x="-165.12" stroke-width="1pt" fill="#005989"/>
  <path id="path573" d="m-165.6 454c15.618 7.2279 37.991 25.319 61.922 25.303 40.042-0.25976 41.108-27.425 81.669-26.133 40.667 1.035 33.311 29.634 88.224 29.491 45.369-0.11855 60.026-34.665 99.134-30.526 28.963-1.4906 40.817 32.714 85.334 33.148 46.172 0.98708 63.126-37.28 92.09-34.112 30.856 0 40.964 30.821 84.253 31.043 55.136 0.27841 64.829-32.078 99.323-30.008 24.55-0.51818 43.91 23.714 79.887 24.317 28.707 0.48887 52.74-21.214 68.975-28.974l0.80274-36.827c-17.015 6.3274-42.386 27.073-67.756 27.301-36.509 1.3361-59.094-23.946-84.464-23.718-30.397 0.27308-42.51 31.284-94.076 31.284-47.109 0-57.918-31.284-88.316-31.284-29.712 0.22778-38.815 34.026-90.253 33.4-41.96-0.50486-58.31-32.262-88.023-32.034-31.499 0-64.072 30.881-98.951 29.39-48.14-2.0341-58.541-29.39-90.041-29.39-23.542 0-48.948 25.635-77.309 26.062-28.206 0.43426-59.892-25.508-62.827-26.062l0.40177 38.33z" fill-rule="evenodd" fill="#fff"/>
  <path id="path578" d="m-165.6 381.07c15.618 7.2279 37.991 25.319 61.922 25.303 40.042-0.25976 41.108-27.425 81.669-26.133 40.667 1.035 33.311 29.634 88.224 29.491 45.369-0.11855 60.026-34.665 99.134-30.526 28.963-1.4906 40.817 32.714 85.334 33.148 46.172 0.98708 63.126-37.28 92.09-34.112 30.856 0 40.964 30.821 84.253 31.043 55.136 0.27841 64.829-32.078 99.323-30.008 24.55-0.51818 43.91 23.714 79.887 24.317 28.707 0.48887 52.74-21.214 68.975-28.974l0.80274-36.827c-17.015 6.3274-42.386 27.073-67.756 27.301-36.509 1.3361-59.094-23.946-84.464-23.718-30.397 0.27308-42.51 31.284-94.076 31.284-47.109 0-57.918-31.284-88.316-31.284-29.712 0.22778-38.815 34.026-90.253 33.4-41.96-0.50486-58.31-32.262-88.023-32.034-31.499 0-64.072 30.881-98.951 29.39-48.14-2.0341-58.541-29.39-90.041-29.39-23.542 0-48.948 25.635-77.309 26.062-28.206 0.43426-59.892-25.508-62.827-26.062l0.40177 38.33z" fill-rule="evenodd" fill="#fff"/>
  <path id="path579" d="m-165.6 308.92c15.603 7.2279 37.955 25.319 61.865 25.303 40.004-0.25976 41.07-27.425 81.593-26.133 40.629 1.035 33.28 29.634 88.141 29.491 45.327-0.11855 59.97-34.665 99.042-30.526 28.936-1.4906 40.779 32.714 85.254 33.148 46.129 0.98708 63.067-37.28 92.004-34.112 30.827 0 40.926 30.821 84.174 31.043 55.085 0.27841 64.769-32.078 99.23-30.008 24.528-0.51818 43.869 23.714 79.813 24.317 28.68 0.48887 52.691-21.214 68.911-28.974l0.80199-36.827c-17 6.3274-42.346 27.073-67.693 27.301-36.475 1.3361-59.038-23.946-84.385-23.718-30.369 0.27308-42.471 31.284-93.988 31.284-47.065 0-57.864-31.284-88.234-31.284-29.684 0.22778-38.779 34.026-90.169 33.4-41.921-0.50486-58.255-32.262-87.941-32.034-31.47 0-64.012 30.881-98.859 29.39-48.095-2.0341-58.486-29.39-89.957-29.39-23.52 0-48.903 25.635-77.237 26.062-28.15 0.44-59.81-25.5-62.74-26.06l0.40139 38.33z" fill-rule="evenodd" fill="#fff"/>
  <path id="path587" d="m136.81 75.956c61.048-4.1801 49.921-9.3939 74.493-13.316 30.964 4.2574 34.505 23.004 51.758 34.505 0 0-6.4846 21.926-27.706 18.822-2.8533-8.7958 10.273-11.515-27.497-34.54-21.958-1.3068-61.25 3.8537-71.048-5.4722z" fill-rule="evenodd" stroke="#d8aa3f" stroke-width="1.3321pt" fill="#ffc84b"/>
  <path id="path591" d="m326.07 109.89-43.979 1.8103v10.866c29.664 0.94845 35.011-3.0185 43.979-12.676z" fill-rule="evenodd" stroke="#d8aa3f" stroke-width="1.3321pt" fill="#ffc84b"/>
  <path id="path590" stroke-linejoin="round" d="m174.84 108.07c7.6648-3.9204 11.477-2.3205 18.118-2.5789 4.5704 8.2776 8.8824 9.0542 18.885 10.089 15.263 21.472 36.735 21.73 39.839 21.73 29.923-0.77661 39.409-21.73 59.501-24.059h21.214c-3.5354-6.0357-6.2955-9.4858-13.97-9.8308-15.781-0.86186-36.217-0.43027-54.067 3.622l-25.094 6.2089c-7.3305-3.5354-25.266-22.334-36.735-21.989-6.7257 1.8103-6.7257 4.1388-10.089 6.7257-6.4673 2.7601-12.936 1.4373-17.601 10.081z" fill-rule="evenodd" stroke="#d8aa3f" stroke-width="1.6651" fill="#ffc84b"/>
  <path id="path589" d="m330.54 451.11c0 1.7161-1.3912 3.1073-3.1072 3.1073-1.7161 0-3.1072-1.3912-3.1072-3.1073s1.3912-3.1073 3.1072-3.1073c1.7161 0 3.1072 1.3912 3.1072 3.1073z" fill-rule="evenodd" transform="matrix(1.0214 0 0 1.0214 -132.51 -361.85)" stroke="#d8aa3f" stroke-width="1.6303" fill="#ffc84b"/>
  <path id="path588" d="m225.56 107.82c44.927-54.154 84.163-47.514 135.3-51.222 1.7251 6.2955 1.1216 15.695-23.282 24.059-33.372 4.9154-93.132 40.097-93.39 40.097-11.126-0.51685-18.886-12.158-18.627-12.935z" fill-rule="evenodd" stroke="#d8aa3f" stroke-width="1.3321pt" fill="#ffc84b"/>
  <path id="path592" d="m317.87 72.536 33.134 1.436" stroke="#d9a43e" stroke-linecap="round" stroke-width="1.3321pt" fill="none"/>
  <path id="path593" d="m314.26 77.942 24.152 1.9702" stroke="#d9a43e" stroke-linecap="round" stroke-width="1.3321pt" fill="none"/>
 </g>
</svg>
