<?xml version="1.0" encoding="UTF-8" standalone="no"?>
<!-- Created with Sodipodi ("http://www.sodipodi.com/") -->
<svg id="svg1" xmlns:rdf="http://www.w3.org/1999/02/22-rdf-syntax-ns#" xmlns="http://www.w3.org/2000/svg" height="480" width="640" version="1" y="0" x="0" xmlns:cc="http://creativecommons.org/ns#" xmlns:dc="http://purl.org/dc/elements/1.1/">
 <metadata id="metadata3868">
  <rdf:RDF>
   <cc:Work rdf:about="">
    <dc:format>image/svg+xml</dc:format>
    <dc:type rdf:resource="http://purl.org/dc/dcmitype/StillImage"/>
   </cc:Work>
  </rdf:RDF>
 </metadata>
 <g id="flag">
  <rect id="rect124" height="480" width="640" y="7.1054e-15" x="0" stroke-width="1pt" fill="#006"/>
  <g id="g3186" transform="matrix(.78125 0 0 .78125 0 -.0000098965)">
   <rect id="rect4050" fill-rule="evenodd" height="256" width="512" y=".000012668" x="0" fill="#006"/>
   <g id="g584" stroke-width="1pt" transform="matrix(8.0321 0 0 10.338 0 .00002048)">
    <path id="path146" fill="#fff" d="m0 0v3.3541l53.292 26.646h6.708v-3.354l-53.292-26.646h-6.708zm60 0v3.354l-53.292 26.646h-6.708v-3.354l53.292-26.646h6.708z"/>
    <path id="path136" fill="#fff" d="m25 0v30h10v-30h-10zm-25 10v10h60v-10h-60z"/>
    <path id="path141" fill="#c00" d="m0 12v6h60v-6h-60zm27-12v30h6v-30h-6z"/>
    <path id="path150" fill="#c00" d="m0 30 20-10h4.472l-20 10h-4.472zm0-30 20 10h-4.472l-15.528-7.7639v-2.2361zm35.528 10 20-10h4.472l-20 10h-4.472zm24.472 20-20-10h4.472l15.528 7.764v2.236z"/>
   </g>
  </g>
  <g id="g4245" transform="matrix(1.024 0 0 1.024 -283.01 45.714)">
   <path id="path852" d="m714.2 130.3c-0.98607 0.59576-2.9579 2.3834-4.9301 1.7876-1.9718-0.59576-6.4087-8.3424-11.339-7.1506-4.9301 1.1915-7.888 2.9795-9.8598 2.9795-1.9721 0-7.3951 1.7876-7.3951 6.5544 0 4.7672 0.49318 8.3428 1.479 8.3428 0.98608 0 2.465-2.9795 2.465-2.9795s0.49289 5.9587 3.944 5.9587 10.846 0.59612 11.339 2.3838c0.49318 1.7876-3.4508 5.9587-2.4647 9.5343 0.98577 3.5753 5.4229 9.534 5.4229 9.534s-6.409 4.7672-6.409 7.7467 0.98607 5.959 0.98607 5.959l-28.594 1.1915s-1.9721 84.617-0.98607 91.173c0.98607 6.5519 3.4508 22.642 3.4508 22.642s-6.409-2.0837-11.832 3.2796c-5.4229 5.3633-24.403 14.597-24.896 18.768-0.49303 4.171-2.2185 7.7478-0.2465 10.727 1.972 2.9788 8.9107 11.074 6.902 10.727-6.6187-1.1415-9.0813-10.545-13.557-14.003-4.3978-3.3955-13.064-2.6816-14.05 0.89146-0.98598 3.5767-0.49301 9.5343 0 10.727 0.49301 1.1922 5.9159 20.261 7.3949 24.432s17.008 10.426 23.91 9.8315c13.064 0.29715 18.98-5.6604 19.473-5.0625 0.49319 0.59431 28.106 29.07 84.795 29.197 44.129 0.0978 77.4-28.603 77.4-28.005 0 0.59431 18.241 5.9576 24.65 4.171 6.409-1.7902 15.776-5.9612 17.748-10.132 1.9721-4.171 7.3951-25.624 7.888-29.197 0.49318-3.5767 0-7.7478-4.4369-8.94s-6.9019-0.89509-9.3669 0.29715-3.2047 4.4718-6.9019 10.429c-1.9718 1.7902-7.1484 6.5555-5.6694 5.3633s4.6833-10.129 5.1765-13.111c0.49289-2.9788 1.9718-8.3421-1.479-11.321-3.4511-2.9788-8.737-4.1964-14.79-8.6392-5.7482-3.9391-10.352-10.429-13.804-10.429-3.4511 0-7.3951-1.7866-6.9019-1.7866 0.49288 0 4.445-8.6574 3.4589-17.594-0.98577-8.94 0.48479-94.434-0.008-94.434-0.49289 0-24.65 1.788-24.65 0.59612s1.9718-9.5343 0-14.897c-1.9718-5.3629-10.353-8.9386-7.888-10.13 2.465-1.1919 13.311-4.1714 12.818-8.9386-0.49319-4.7672-7.3951-4.171-10.353-5.9587-2.9579-1.788-11.832-10.13-12.818-10.13-0.98607 0 25.635-16.089 23.664-16.089-1.9718 0-12.325-2.9792-15.776-1.1915 0-2.9795 14.297-11.918 11.832-13.11-2.465-1.1919-13.804-2.3838-10.846-2.9795 2.9579-0.59576 3.944-7.7467 3.4511-7.7467-0.49319 0-12.818 1.788-12.818 1.788s-2.9579-4.1714-3.944-4.1714c-0.98577 0-5.423 2.3834-5.423 2.3834l-2.4647-6.5548-5.4229 3.5756-2.465-2.9795s-4.4369 1.1919-4.4369 0c0.18649-0.04276-0.51087-2.9922-1.2079-2.9922-0.69735 0-5.5776 3.7923-5.7521 3.5814-0.17419-0.21054-5.5774-7.7949-5.5774-7.5843 0 0.21091-3.8348 14.326-4.009 14.326-0.17419 0-3.8346 0.42145-4.0088 0.632-0.17449 0.21091-19.522-11.166-19.347-10.955 0.17418 0.21091 5.0545 10.955 5.0545 10.955s-4.1832 2.3178-4.1832 2.5284c0 0.21054 0.69736 4.8454 0.69736 4.8454l-12.9-4.425s4.8806 9.9018 4.5319 9.9018c-0.34868 0-9.5864 0.42145-9.4122 0.42145 0.17419 0 4.3574 8.2163 4.3574 8.2163l-1.5686 4.8458s13.884 9.7978 12.898 10.394zm82.33 207.37c1.2325 1.7866 7.8877 10.129 6.9019 10.129-0.98607 0-17.501 11.024-24.157 13.111-6.6555 2.0837-28.347 5.9576-27.115 5.6604 1.2325-0.29716 19.479-10.288 26.874-15.053 7.3951-4.7654 17.495-13.252 17.495-13.847zm-103.04-0.30078c-0.98607 1.1922-5.6694 10.429-5.6694 10.429s13.557 9.5343 23.664 13.111c10.106 3.5731 27.361 4.7654 26.375 4.4682-0.98577-0.29715-21.692-9.5343-27.608-14.3-5.9158-4.769-16.515-13.709-16.762-13.709z" fill-rule="evenodd" stroke-width="1pt" fill="#fff"/>
   <g id="g820" fill-rule="evenodd" transform="matrix(.29981 0 0 .36238 586 193.89)" stroke="#6d6666" fill="#fec500">
    <path id="path793" d="m394.65-212.97s28.777 17.265 35.354 21.376 27.954 22.199 29.598 21.377c1.645-0.822 13.155-9.866 13.155-9.866s-23.843-18.91-38.642-23.021-39.465-8.222-39.465-9.866z" stroke-width="1.403"/>
    <path id="path795" d="m390.54-231.88c2.467 0 47.687 23.022 61.664 34.532s19.732 26.31 21.377 26.31c1.644 0 23.021-3.289 22.198-3.289-0.822 0-9.866-29.598-30.42-38.642-20.555-9.044-73.996-18.911-74.819-18.911z" stroke-width="1.403"/>
    <path id="path803" d="m603.48-296.01c-0.822 0-9.044 24.666-11.511 32.065-2.466 7.4-6.577 23.021-6.577 23.021s-36.176 3.289-34.532-0.822c1.645-4.111 55.086-54.264 52.62-54.264z" transform="translate(0 4.6509)" stroke-width="1.403"/>
    <path id="path796" d="m398.76-261.48s42.754 28.776 57.553 45.22c14.799 16.443 29.598 45.22 30.42 45.22 0.823 0 40.287-8.222 40.287-7.4s-46.042-46.042-68.241-60.019-59.197-21.377-60.019-23.021z" stroke-width="1.403"/>
    <path id="path797" d="m443.16-273.81s21.377 32.887 25.487 44.398c4.111 11.51 16.444 41.109 16.444 41.109h33.709s-16.443-36.998-34.531-55.086-40.287-28.776-41.109-30.421z" transform="translate(0 4.6509)" stroke-width="1.403"/>
    <path id="path798" d="m454.66-291.9c0.823 2.467 31.243 31.243 38.643 50.153 7.399 18.91 13.155 42.754 13.155 42.754l29.598-7.4s-26.31-48.509-42.753-61.664c-16.444-13.154-36.998-22.198-38.643-23.843z" transform="translate(0 4.6509)" stroke-width="1.403"/>
    <path id="path799" d="m700.5-209.68s-61.663 6.578-83.862 12.333-34.532 27.132-34.532 27.132 28.777 10.688 30.421 9.044 18.91-18.91 37.82-25.488c18.91-6.577 51.797-22.199 50.153-23.021z" stroke-width="1.403"/>
    <path id="path800" d="m698.03-249.97c-1.645 0.823-50.975 41.11-66.597 54.264-15.621 13.155-30.421 27.132-32.065 27.954-1.644 0.823-32.065-4.11-30.421-5.755 1.645-1.644 45.22-36.998 73.997-52.619 28.776-15.622 52.619-22.199 55.086-23.844z" stroke-width="1.403"/>
    <path id="path801" d="m685.7-278.75c-4.933 5.755-53.442 45.22-66.597 59.197s-34.531 38.643-34.531 38.643-25.488-11.511-23.843-16.444c1.644-4.933 36.175-33.709 60.841-50.153 24.665-16.444 66.596-29.599 64.13-31.243z" stroke-width="1.403"/>
    <path id="path802" d="m636.37-282.04c-0.822 0.823-29.598 31.243-35.354 39.465-5.755 8.222-23.021 44.398-23.021 44.398s-25.487-22.199-25.487-23.021 32.065-34.532 50.975-47.687 33.709-10.688 32.887-13.155z" stroke-width="1.403"/>
    <path id="path818" d="m565.09-241.77c0 5.7794-4.6852 10.465-10.465 10.465-5.7795 0-10.465-4.6852-10.465-10.465 0-5.7795 4.6852-10.465 10.465-10.465 5.7795 0 10.465 4.6852 10.465 10.465z" transform="translate(0 4.6509)" stroke-width="1.1224pt"/>
    <path id="path819" d="m586.02-227.81c0 5.1373-4.6852 9.3019-10.465 9.3019-5.7795 0-10.465-4.1646-10.465-9.3019s4.6852-9.3019 10.465-9.3019c5.7795 0 10.465 4.1646 10.465 9.3019z" transform="translate(0 4.6509)" stroke-width="1.1224pt"/>
    <path id="path817" d="m539.51-238.28c0 5.1373-5.7263 9.3019-12.79 9.3019-7.0638 0-12.79-4.1646-12.79-9.3019s5.7263-9.3019 12.79-9.3019c7.0638 0 12.79 4.1646 12.79 9.3019z" transform="translate(0 4.6509)" stroke-width="1.1224pt"/>
    <path id="path815" d="m573.23-219.09c0 9.9535-6.5072 18.022-14.534 18.022-8.027 0-14.534-8.0689-14.534-18.022 0-9.9535 6.5072-18.022 14.534-18.022 8.027 0 14.534 8.0689 14.534 18.022z" transform="translate(0 4.6509)" stroke-width="1.1224pt"/>
    <path id="path805" d="m533.7-218.51c0 7.706-6.5072 13.953-14.534 13.953-8.027 0-14.534-6.2469-14.534-13.953 0-7.706 6.5072-13.953 14.534-13.953 8.027 0 14.534 6.2469 14.534 13.953z" transform="translate(0 4.6509)" stroke-width="1.1224pt"/>
    <path id="path810" d="m513.93-207.46c0 6.7427-4.9455 12.209-11.046 12.209-6.1006 0-11.046-5.466-11.046-12.209 0-6.7427 4.9455-12.209 11.046-12.209 6.1006 0 11.046 5.466 11.046 12.209z" transform="translate(0 4.6509)" stroke-width="1.1224pt"/>
    <path id="path813" d="m595.32-208.63c0 8.027-7.5483 14.534-16.86 14.534-9.3113 0-16.86-6.5072-16.86-14.534 0-8.027 7.5483-14.534 16.86-14.534 9.3114 0 16.86 6.5072 16.86 14.534z" transform="translate(0 4.6509)" stroke-width="1.1224pt"/>
    <path id="path806" d="m554.63-229.56c0 4.8162-5.9866 8.7205-13.372 8.7205-7.3849 0-13.372-3.9043-13.372-8.7205s5.9866-8.7205 13.372-8.7205c7.3849 0 13.372 3.9043 13.372 8.7205z" transform="translate(0 4.6509)" stroke-width="1.1224pt"/>
    <path id="path807" d="m556.95-210.37c0 7.0638-8.3292 12.79-18.604 12.79s-18.604-5.7263-18.604-12.79c0-7.0638 8.3292-12.79 18.604-12.79s18.604 5.7263 18.604 12.79z" transform="translate(0 4.6509)" stroke-width="1.1224pt"/>
    <path id="path814" d="m604.62-187.7c0 8.6692-7.8086 15.697-17.441 15.697s-17.441-7.0278-17.441-15.697 7.8086-15.697 17.441-15.697c9.6325 0 17.441 7.0278 17.441 15.697z" transform="translate(0 4.6509)" stroke-width="1.1224pt"/>
    <path id="path809" d="m509.28-191.77c0 5.7795-4.4249 10.465-9.8833 10.465s-9.8833-4.6852-9.8833-10.465c0-5.7794 4.4249-10.465 9.8833-10.465s9.8833 4.6852 9.8833 10.465z" transform="translate(0 4.6509)" stroke-width="1.1224pt"/>
    <path id="path812" d="m579.04-193.51c0 7.3849-6.7675 13.372-15.116 13.372-8.3481 0-15.116-5.9866-15.116-13.372 0-7.3849 6.7675-13.372 15.116-13.372 8.3481 0 15.116 5.9866 15.116 13.372z" transform="translate(0 4.6509)" stroke-width="1.1224pt"/>
    <path id="path808" d="m531.37-194.09c0 6.4216-5.9866 11.627-13.371 11.627-7.3849 0-13.371-5.2058-13.371-11.627 0-6.4216 5.9866-11.627 13.371-11.627 7.3849 0 13.371 5.2058 13.371 11.627z" transform="translate(0 4.6509)" stroke-width="1.1224pt"/>
    <path id="path811" d="m554.63-190.61c0 7.0638-6.2469 12.79-13.953 12.79-7.706 0-13.953-5.7263-13.953-12.79 0-7.0638 6.2469-12.79 13.953-12.79 7.706 0 13.953 5.7263 13.953 12.79z" transform="translate(0 4.6509)" stroke-width="1.1224pt"/>
    <path id="path804" d="m494.16-267.35c3.488 0 27.906 8.139 27.906 8.139s-30.232 11.628-25.581 10.465 33.72-4.651 31.394-4.651c-2.325 0-25.58 22.092-18.604 20.929 6.977-1.162 20.93-15.115 22.092-15.115 1.163 0 15.116 22.092 16.279 20.929 1.162-1.163 0-22.092 1.162-22.092 1.163 0 29.069 13.953 26.743 12.79-2.325-1.163-18.603-17.441-17.441-17.441 1.163 0 38.371 3.488 36.045 2.325-2.325-1.162-24.417-11.627-24.417-11.627s16.278-15.115 12.79-15.115-30.231 15.115-27.906 13.952c2.326-1.162 29.069-31.393 29.069-31.393l-26.743 12.79s4.651-18.604 2.325-17.442c-2.325 1.163-20.929 24.418-22.092 24.418s-5.814-23.255-5.814-23.255 1.163 25.58-5.813 26.743c-6.977 1.163-31.394 5.814-31.394 4.651z" transform="translate(0 4.6509)" stroke-width="1.1224pt"/>
   </g>
   <g id="g775" fill-rule="evenodd" transform="matrix(.29981 0 0 .36238 618.89 139.61)">
    <path id="path772" d="m308.71 75.082c0.581 2.3255 19.185 44.184 47.672 43.021s40.114-8.139 38.952-8.72c-1.163-0.582-13.372-7.558-20.348-22.674-6.977-15.116-8.14-21.511-8.14-21.511l-58.136 9.8833z" fill="#00389b"/>
    <path id="path773" d="m410.45 58.804s20.929 41.277 30.231 47.09c9.302 5.814 30.813 10.465 40.115 9.884 9.302-0.582 20.348 0 20.348 0s-9.302-4.07-16.86-26.743-9.883-30.231-9.883-30.231h-63.951z" fill="#00389b"/>
    <path id="path774" d="m538.35 73.919s-4.069 30.231 0 37.789c4.07 7.558 24.418 21.511 24.418 21.511s24.417-2.907 24.998-21.511c0.582-18.604-8.139-36.045-8.139-36.045l-41.277-1.7441z" fill="#00389b"/>
    <path id="path767" d="m288.94 21.015s1.163 4.6509 0 8.1391-11.046 12.79-11.046 20.348c0 7.5578 11.627 30.812 47.091 31.394 35.463 0.5813 80.229-19.185 79.647-19.767-0.58-0.581-84.88-56.974-86.04-56.393-1.16 0.5817-29.65 17.441-29.65 16.279z" stroke="#000" stroke-width="1.1224pt" fill="#005120"/>
    <path id="path768" d="m523.23 61.129s7.557 20.348 10.464 22.674c2.907 2.3254 4.07 6.9764 4.651 6.9764s48.835 10.464 48.835 10.464 4.651-13.371-2.325-23.836c-6.977-10.465-33.138-37.789-33.138-37.789l-28.49 21.511z" stroke="#000" stroke-width="1.1224pt" fill="#005120"/>
    <path id="path769" d="m556.37 36.13c1.162 0 12.79 9.8832 22.092 4.6509 9.301-5.2323 24.417-19.185 24.417-19.185s-12.79 4.0697-22.092 3.4883c-9.302-0.5815-23.836 11.627-24.417 11.046z" stroke="#000" stroke-width="1.1224pt" fill="#005120"/>
    <path id="path766" d="m287.2 23.34s-3.488-9.8833-12.79-10.465c-9.302-0.5814-26.162 1.1626-31.975-3.4882-5.814-4.6509-7.558-15.697-10.465-15.116-2.907 0.58136-10.465 0-11.046 0s-3.488-9.3019 4.651-13.953c8.139-4.651 15.116-0.5814 19.766-4.0696 4.651-3.4883 11.628-5.8137 20.93-6.3951 9.302-0.5813 24.417 11.628 31.394 14.534 6.976 2.9068 22.092 6.3949 27.905 3.4881 5.814-2.9068 38.371-15.697 49.998-16.278 11.627-0.5813 36.045-1.1627 45.347-0.5813 9.302 0.5813 45.928 5.2323 56.974 10.465 11.046 5.2323 69.764 25.58 77.903 30.231 8.139 4.6509 26.162 11.627 26.162 11.627s-31.976 31.394-47.672 36.626c-15.697 5.2323-65.695 13.372-95.345 11.627-29.65-1.7441-52.904-4.651-75.578-16.278-22.68-11.626-47.1-22.672-48.26-28.486-1.16-5.813-0.58-13.371-0.58-13.371l-27.324 9.8833z" stroke="#000" stroke-width="1.1224pt" fill="#005120"/>
    <path id="path770" d="m251.15-14.449c-1.163 0.5814-6.976 2.9069-5.814 4.0696 1.163 1.1627 3.489 4.6509 10.465 4.0695 6.977-0.58136 14.534-4.6509 14.534-4.6509s-8.72-4.0696-19.185-3.4882z" stroke="#000" stroke-width="1.1224pt" fill="#005120"/>
    <path id="path771" d="m250.57-13.286v6.395s8.139 2.3254 8.139 0.58136c0-1.7441 0.581-5.8137-1.163-5.8137s-6.395-0.5813-6.976-1.1627z" stroke="#000" stroke-width="1.1224pt"/>
    <path id="path757" d="m331.95-8.4527c2.056-3.6998 0-8.6327 11.922-14.388 11.921-5.7553 32.681-4.1109 32.681-4.1109s-5.96 4.5219-6.166 9.2495c-0.205 4.7275 0.411 6.783 0.411 6.783s-11.305-3.6998-19.938-1.4388c-8.633 2.2609-18.704 4.522-18.91 3.9053z" stroke="#000007" stroke-width="1.1224pt" fill="#001707"/>
    <path id="path758" d="m385.4-28.596c-1.233 0.6167-10.277 10.688-9.25 13.772 1.028 3.0832 13.155 10.483 17.061 9.8662 3.905-0.61661 21.787-9.2494 22.815-13.566 1.028-4.3164 1.85-10.072 0.411-11.305-1.439-1.2333-30.832 1.6444-31.037 1.2332z" stroke="#000007" stroke-width="1.1224pt" fill="#001707"/>
    <path id="path760" d="m424.66-30.24c-2.261 2.261-1.439 13.155-0.617 14.388 0.822 1.2333 15.005 15.416 18.088 16.238 3.083 0.82222 25.899-1.4388 27.749-3.9053s7.399-12.949 5.755-15.416c-1.645-2.4666-6.578-5.7553-21.788-9.044s-24.254-2.8776-29.187-2.261z" stroke="#000007" stroke-width="1.1224pt" fill="#001707"/>
    <path id="path761" d="m482.82-16.469c3.7 1.8499 25.282 12.333 38.026 20.76 12.743 8.4274 17.882 18.088 21.582 18.91 3.7 0.8221 18.704-8.2218 19.321-10.688 0.617-2.4666-18.293-15.621-31.037-21.582-12.744-5.9608-47.892-6.783-47.892-7.3996z" stroke="#000007" stroke-width="1.1224pt" fill="#001707"/>
    <path id="path762" d="m478.3-7.6305c-1.85 1.6444 23.021 45.014 27.748 46.453 4.728 1.4389 33.093-8.4273 32.682-11.716-0.41-3.288-7.81-9.866-25.28-19.526-17.47-9.6608-31.65-16.033-35.15-15.21z" stroke="#000007" stroke-width="1.1224pt" fill="#001707"/>
    <path id="path763" d="m447.47 8.1964c-3.905 2.261-10.071 41.109-6.166 42.959 3.905 1.8499 52.003-4.7275 53.853-9.0439 1.849-4.3165-19.733-38.642-26.105-38.642-6.371 0-17.882 1.6444-21.582 4.7275z" stroke="#000007" stroke-width="1.1224pt" fill="#001707"/>
    <path id="path764" d="m397.73-0.02536c-5.14 4.7276-4.11 40.903-1.85 43.164 2.261 2.261 30.831 9.6605 33.914 6.9885 3.084-2.6721 7.195-43.37 4.317-46.453-2.878-3.0832-10.894-10.483-17.06-11.099-6.167-0.6166-16.444 5.9607-19.321 7.3996z" stroke="#000007" stroke-width="1.1224pt" fill="#001707"/>
    <path id="path765" d="m333.19-0.64197c-4.728 3.6998-4.933 13.36 0.205 15.005 5.139 1.6443 17.882 7.1941 29.804 12.333 11.922 5.1386 18.705 11.305 22.199 11.099 3.494-0.2056 6.783-36.381 3.083-38.437-3.7-2.0554-14.594-3.6998-24.871-3.2887-10.277 0.41107-25.282 1.4388-30.42 3.2887z" stroke="#000007" stroke-width="1.1224pt" fill="#001707"/>
   </g>
   <path id="path643" d="m655.26 306.14c2.5282-2.4618 6.4611-8.4792 11.798-8.752 5.3373-0.27412 10.956 4.6495 10.956 4.6495s5.6181 22.976 5.3373 22.976c-0.28085 0-9.27 6.5644-9.551 6.5644-0.28085 0-3.9327-9.0261-7.3036-8.2064-3.3709 0.82104-3.09 13.129-3.6519 12.309-0.56184-0.82105-14.888-17.779-14.326-18.326 0.56184-0.54691 7.0228-10.393 6.7418-11.214z" fill-rule="evenodd" fill-opacity=".99608" stroke-width="1pt" fill="#d40f0f"/>
   <path id="path642" d="m803.59 303.13c1.6851-0.27279 9.2702-6.0174 14.607-5.7433 5.3382 0.2728 8.4283 2.7346 11.237 5.1964 2.8085 2.4618 6.1801 8.752 6.1801 8.752s-6.7418 18.599-7.3035 18.599-3.3716 1.6421-3.9333 0.27413-2.2468-5.7446-5.6184-6.2916c-3.3702-0.54692-4.2135 6.0174-4.2135 6.0174l-10.955-26.804z" fill-rule="evenodd" fill-opacity=".99608" stroke-width="1pt" fill="#d40f0f"/>
   <path id="path640" d="m807.24 308.88c0 1.6421 10.394 27.353 27.249 32.275 16.854 4.9236 22.192-4.6495 24.157-7.931 1.9666-3.2828 8.99-3.0087 8.99-3.0087s-1.6851 24.07-4.495 27.078c-2.8085 3.0087-5.0567 9.5731-20.787 9.8458-15.73 0.27413-30.057-14.769-34.832-19.146-4.7765-4.3767-10.957-15.863-13.485-21.061-2.527-5.1964 13.484-17.504 13.203-18.052z" fill-rule="evenodd" fill-opacity=".99608" stroke-width="1pt" fill="#fddc59"/>
   <path id="path641" d="m624.08 360.02c0.28099 0 7.5846 7.9323 18.259 7.1113 10.675-0.81971 28.934-7.1113 37.361-18.052 8.4273-10.94 12.641-22.702 12.641-22.702s-12.36-21.881-12.641-21.881c-0.28085 0-1.4045 7.1113-3.6518 11.761-2.2474 4.6495-8.4273 17.778-18.821 21.882-10.394 4.1026-10.394 5.7433-14.607 5.1964-4.2137-0.54691-15.169-7.1113-15.169-7.3854 0-0.27279-5.3373 12.856-5.3373 12.856s-1.1237 8.4792 1.9664 11.214z" fill-rule="evenodd" fill-opacity=".99608" stroke-width="1pt" fill="#fddc59"/>
   <path id="path637" d="m655.07 305.38c-0.79458 0-20.658 10.831-19.863 15.473 0.79445 4.6415 34.165 70.399 105.67 71.172 71.507 0.77446 115.21-59.569 112.03-69.626-3.1775-10.056-25.424-21.661-25.424-21.661s5.561 4.6415 4.767 10.831c-0.79541 6.1891-25.426 59.569-87.399 58.023-61.974-1.5476-91.372-48.738-91.372-54.154 0-5.4146 3.1782-8.5098 1.5892-10.057z" fill-rule="evenodd" fill-opacity=".99608" stroke-width="1pt" fill="#fddc59"/>
   <path id="path639" d="m848.81 353.19c1.6865-1.368 12.08-29.814 17.979-28.993 5.8999 0.82104 3.9333 9.2989 3.3716 11.488-0.5617 2.1877-6.4616 21.881-6.4616 21.881s0.28154-4.6495-3.6518-5.7433c-3.9319-1.0938-10.394 1.9149-11.237 1.368z" fill-rule="evenodd" fill-opacity=".99608" stroke-width="1pt" fill="#d40f0f"/>
   <path id="path638" d="m624.08 360.31c0-1.5463-4.7672-6.9622 0.79445-8.5098 5.5618-1.5463 12.713 1.5476 12.713 1.5476s-3.9728-11.605-8.7399-20.888c-4.7672-9.283-6.3564-7.7354-10.329-6.1891-3.9726 1.5476-3.8762 5.6422-1.4925 11.831 2.3836 6.1891 7.0544 23.756 7.0544 22.208z" fill-rule="evenodd" fill-opacity=".99608" stroke-width="1pt" fill="#d40f0f"/>
   <g id="g1773">
    <polygon id="polygon744" fill="#fdc400" fill-rule="evenodd" transform="matrix(.38319 0 0 .38944 593.86 42.315)" d="m 249.94155,680.31494 17.99644,-59.98052 -49.9885,-37.71849 62.60607,-1.41936 20.42512,-59.19755 20.69623,59.10331 62.61192,1.13239 -49.8151,37.94722 18.27118,59.8974 -51.48366,-35.65064 z" stroke-width="1pt" points="249.94 680.32 267.94 620.33 217.95 582.62 280.56 581.2 300.98 522 321.68 581.1 384.29 582.24 334.47 620.18 352.74 680.08 301.26 644.43"/>
    <path id="path740" d="m673.23 325.98-0.001 256.89c0.59 125.55-148.82 235.49-248.03 256.89-99.22-21.4-248.62-131.34-248.03-256.88v-256.89h496.06z" fill-rule="evenodd" transform="matrix(.29981 0 0 .34989 617.15 71.606)" stroke-width="1pt" fill="#fff"/>
    <path id="path556" d="m177.16 325.98 0.421 160.73s2.386-3.288 35.012-1.284c32.627 2.004 35.433 35.433 70.867 35.433 35.433 0 35.433-35.433 70.866-35.433s35.433 35.433 70.866 35.433 35.433-35.433 70.866-35.433 35.433 35.433 72.87 37.459c33.429-2.026 33.429-37.459 69.062-39.463l35.233 2.004v-159.45h-496.06z" fill-rule="evenodd" fill-opacity=".99608" transform="matrix(.29981 0 0 .34989 617.15 71.606)" stroke="#000" stroke-width="1.1224pt" fill="#d40f0f"/>
    <path id="path557" d="m177.16 432.28v53.15h35.433c32.627 2.004 35.432 35.433 70.866 35.433 35.433 0 35.433-35.433 70.866-35.433s35.433 35.433 70.866 35.433 35.434-35.433 70.867-35.433 33.429 33.407 70.866 35.433c33.429-2.026 35.233-33.429 70.866-35.433h35.433v-53.15h-35.433c-35.433 0-35.433 35.433-70.866 35.434-35.433-0.001-35.433-35.434-70.866-35.434s-35.433 35.433-70.867 35.433c-35.433 0-35.433-35.433-70.866-35.433s-35.433 35.433-70.866 35.433-35.433-35.433-70.866-35.433h-35.433z" fill-rule="evenodd" fill-opacity=".99608" transform="matrix(.29981 0 0 .34989 617.15 108.8)" stroke-width="1pt" fill="#0062bb"/>
    <path id="path558" d="m187.85 432.28 24.745 53.15c32.627 2.004 35.432 35.433 70.866 35.433 35.433 0 35.433-35.433 70.866-35.433s35.433 35.433 70.866 35.433 35.434-35.433 70.867-35.433 33.429 33.407 70.866 35.433c33.429-2.026 34.411-33.429 70.044-35.433l25.567-53.972-24.745 0.822c-35.433 0-35.433 35.433-70.866 35.434-35.433-0.001-35.433-35.434-70.866-35.434s-35.433 35.433-70.867 35.433c-35.433 0-35.433-35.433-70.866-35.433s-35.433 35.433-70.866 35.433-35.433-35.433-70.866-35.433h-24.745z" fill-rule="evenodd" fill-opacity=".99608" transform="matrix(.29981 0 0 .34989 617.15 145.99)" stroke-width="1pt" fill="#0062bb"/>
    <path id="path559" d="m425.2 520.87c35.434 0 116.62-53.15 115.79-53.15 0.823 0-9.494-35.433-44.927-35.433s-35.433 35.433-70.867 35.433c-35.433 0-35.433-35.433-70.866-35.433s-44.477 35.433-44.556 35.433c-1.645 0 79.989 53.15 115.42 53.15z" fill-rule="evenodd" fill-opacity=".99608" transform="matrix(.29981 0 0 .34989 617.15 183.18)" stroke-width="1pt" fill="#0062bb"/>
    <g id="g611" transform="matrix(1.4653 0 0 1.2748 556.79 30.774)">
     <path id="path577" d="m90.849 117.57c0.8221 0 8.2215 1.233 13.565 0.822 5.344-0.411 7.4-2.467 7.4-2.878v-1.233h6.988s1.233 5.755 0.411 6.166-2.878 2.056-3.289 2.056 0-2.878-0.822-2.056-1.233 2.056-1.233 2.056-0.822-1.234-1.233-1.234-1.233 1.234-1.233 1.234 0-1.234-0.412-1.234c-0.411 0-2.466 2.056-2.466 2.056l-2.055-1.645s-1.234 2.056-1.645 2.056-2.877-1.644-2.877-1.644l-4.1111 2.466s0-3.7-0.8222-3.289c-0.8221 0.411-5.344 0.411-5.344 0.411s-1.2332 2.467-1.6443 2.467-2.0554-2.055-1.6443-2.055 1.2332-1.234 0.8221-1.645c-0.411-0.411-2.4664 0-2.4664-0.411s-0.8222-2.878-0.4111-2.878 2.0554 0.412 2.0554 0.412v-2.467h2.0554l0.4111 2.467z" fill-rule="evenodd" fill-opacity=".99608" transform="translate(-.13899 37.594)" stroke="#000" stroke-width=".70149" fill="#fdc400"/>
     <path id="path578" d="m98.248 94.136c-0.4111 0-3.2886 3.2887-2.8776 6.9879 0.4111 3.7 7.3996 9.044 7.3996 9.044s3.7-1.644 4.933 0 1.233 6.577 0.822 6.577-5.344 1.234-5.344 0.411c0-0.822 0-1.644-0.411-1.644s-4.9331 0.411-4.9331 0.411l0.4111-1.644-4.1108-0.822 1.6443-1.645s-6.5773-2.877-6.1662-2.877 2.8776-1.644 2.8776-1.644l-4.933-3.289h2.8776s-4.1108-3.289-3.6997-3.289c0.411 0 2.4664 0.411 2.4664 0.411l-1.2332-3.2882h1.2332l-1.2332-2.4665 2.0554-0.8221 1.2332 2.0553-0.411-4.9329 2.8775 0.4111v4.1108s1.2332-2.4665 1.2332-2.8776c0-0.411 3.6998 1.6443 3.2887 0.8222z" fill-rule="evenodd" fill-opacity=".99608" transform="translate(-.13899 37.594)" stroke="#000" stroke-width=".70149" fill="#fdc400"/>
     <path id="path580" d="m161.97 119.62c-0.514 0.514-2.056 1.644-2.056 1.644s3.495-0.308 3.392-0.308-1.233-1.028-1.336-1.336z" fill-rule="evenodd" fill-opacity=".99608" transform="translate(-.13899 37.594)"/>
     <path id="path581" d="m164.95 121.57c-0.205 0.308-0.822 3.494-0.411 3.288 0.411-0.205 2.055-2.569 2.055-2.569l-1.644-0.719z" fill-rule="evenodd" fill-opacity=".99608" transform="translate(-.13899 37.594)"/>
     <path id="path582" d="m169.67 121.98c0.513 0.514 2.877 2.877 2.569 2.363-0.308-0.513-0.617-2.672-0.822-2.774-0.206-0.103-1.542 0.616-1.747 0.411z" fill-rule="evenodd" fill-opacity=".99608" transform="translate(-.13899 37.594)"/>
     <path id="path583" d="m128.26 118.59c-0.308 0.103-2.877 2.056-2.877 2.056s4.316-0.823 4.11-0.823c-0.205 0-1.336-0.924-1.233-1.233z" fill-rule="evenodd" fill-opacity=".99608" transform="translate(-.13899 37.594)"/>
     <path id="path584" d="m130.93 121.06c-0.411 0.411-1.747 3.288-1.233 3.186 0.514-0.103 2.775-1.953 2.775-1.953l-1.542-1.233z" fill-rule="evenodd" fill-opacity=".99608" transform="translate(-.13899 37.594)"/>
     <path id="path585" d="m129.28 117.05c-0.308-0.103-2.467-1.131-2.364-1.131s2.878-0.719 2.878-0.719l-0.514 1.85z" fill-rule="evenodd" fill-opacity=".99608" transform="translate(-.13899 37.594)"/>
     <path id="path586" d="m88.588 115.72-3.0831-2.467 3.9053 1.233-0.8222 1.234z" fill-rule="evenodd" fill-opacity=".99608" transform="translate(-.13899 37.594)"/>
     <path id="path587" d="m85.916 117.36c-0.4111 0-4.3164 2.466-4.2136 2.466s5.4468 0.103 5.344 0c-0.1027-0.102-0.9249-2.26-1.1304-2.466z" fill-rule="evenodd" fill-opacity=".99608" transform="translate(-.13899 37.594)"/>
     <path id="path588" d="m88.382 120.96c-0.4111 0.206-3.4942 2.569-3.2887 2.569 0.2056 0 4.6247 0.103 4.6247 0s-1.2333-2.466-1.336-2.569z" fill-rule="evenodd" fill-opacity=".99608" transform="translate(-.13899 37.594)"/>
     <path id="path589" d="m87.971 95.366s-1.1305-2.8776-1.0277-2.8776c0.1027 0 2.8775 2.261 2.8775 2.261l-1.8498 0.6166z" fill-rule="evenodd" fill-opacity=".99608" transform="translate(-.13899 37.594)"/>
     <path id="path590" d="m91.054 91.769c0-0.1027 0.3083-1.8498 0.3083-1.8498s2.7748 2.1581 2.672 2.1581c-0.1027 0-2.7748 0-2.9803-0.3083z" fill-rule="evenodd" fill-opacity=".99608" transform="translate(-.13899 37.594)"/>
     <path id="path591" d="m95.371 93.105c0-0.1028 0.3083-2.672 0.3083-2.672s2.5693 3.4942 2.3638 3.597c-0.2056 0.1028-2.4665-0.5138-2.6721-0.925z" fill-rule="evenodd" fill-opacity=".99608" transform="translate(-.13899 37.594)"/>
     <path id="path599" d="m137.26 110.86c0 0.206 4.316 3.7 4.419 4.522 0.102 0.822-7.811 1.028-7.811 1.028s-2.261-1.747-2.98-1.645c-0.72 0.103-1.028 1.85-1.028 1.85l1.85 1.028-3.494 0.205 1.028 1.953 2.672-0.206-0.617 1.85s1.644 1.234 1.953 1.028c0.308-0.205 1.336-2.055 2.158-2.364 0.822-0.308 2.569-0.308 2.569-0.308s-1.336 2.261-0.719 2.261c0.616 0 3.391-2.364 3.391-2.364s0.617 2.158 0.719 2.158c0.103 0 2.056-2.466 2.056-2.466s0 1.953 0.308 1.953 3.186-2.467 3.186-2.467 2.261 2.878 2.569 2.672c0.309-0.205 0.617-3.083 0.925-3.083s2.261-0.308 2.261-0.411-1.233-1.131-1.439-2.569c-0.205-1.439 0.206-4.83 0.103-4.83s-13.874 0.513-14.079 0.205z" fill-rule="evenodd" fill-opacity=".99608" transform="translate(-.82217 37.82)" stroke="#000" stroke-width=".70149" fill="#fdc400"/>
     <path id="path598" d="m115.37 104.6h40.286c4.111 0 7.81-1.644 7.81-4.111 0-2.4659-6.577-2.877-9.043-2.0548-2.467 0.8221-13.155 5.7548-17.677 5.3438s-8.632-3.289-9.043-6.166c-0.412-2.8776 2.055-5.3441 6.577-5.3441s10.277 1.6444 11.51 1.2333 4.111-3.6997 5.344-4.1108c1.233-0.411 4.933-0.8221 4.933-0.8221l-1.644 1.2332 5.344-1.2332s-4.111 4.5218-8.222 5.7551c-4.111 1.2332-12.743 0.8221-16.032 0.8221s-4.933-0.411-4.522 2.0554c0.411 2.4665 2.878 4.1111 4.933 3.6991 2.056-0.411 8.222-2.4658 8.222-2.4658l-1.645-1.2333 7.4-0.411s-0.411-1.2333 0-1.2333 4.111 0.4111 4.111 0.4111-2.467-1.2333-2.056-1.2333 2.056 0 5.344 0.4111c3.289 0.4111 10.277 1.6443 9.866 4.9325-0.411 3.289-2.877 6.166-5.755 6.166s-5.344-0.822-5.344 0.412c0 1.233 3.289 2.055 5.344 2.055s4.522-1.644 4.933-1.644 1.233 2.466 1.644 2.466 2.878-0.822 2.878-0.822l-1.644 4.522 2.877 0.822s-1.644 1.644-1.233 1.644 2.877 0 2.877 0.411-3.288 2.878-3.288 3.289 2.466 1.644 2.466 1.644-1.644 2.467-2.055 2.056-2.056-2.467-2.056-2.467-0.411 1.645-1.233 1.645-2.466-0.411-2.466-0.411 1.233-2.467 0.822-2.467-2.467 1.644-2.467 1.233l-1.232-1.236s3.288-1.336 3.288-3.289c0-1.952-1.336-3.905-7.296-4.213-5.961-0.309-6.064 1.438-10.483 1.233-4.419-0.206-4.419-1.953-7.708-1.953-3.288 0-13.463 4.111-18.19 4.008-4.727-0.102-10.688-0.411-10.483-0.616 0.206-0.206 3.906-9.661 4.008-9.966z" fill-rule="evenodd" fill-opacity=".99608" transform="translate(-.82217 37.82)" stroke="#000" stroke-width=".70149" fill="#fdc400"/>
     <path id="path592" d="m106.88 102.46c-0.411 0.206-4.008 0.72-4.214 4.522-0.205 3.803 0.309 3.803 0.72 3.597 0.411-0.205 1.233-3.494 1.233-3.494s-1.233 4.522 0.103 5.55c1.336 1.027 2.775 1.438 2.775 1.438l0.513-3.597s-1.027 3.495 1.439 4.728c2.467 1.233 3.392 0.308 3.186-0.617-0.205-0.925-0.925-3.288-0.925-3.288s1.953 2.158 2.056 2.363c0.102 0.206 1.027 1.85 3.494 1.131 2.466-0.72 0.719-2.364 0.719-2.364l-2.98-2.46s3.083 3.185 4.419 2.055-1.028-3.597-0.925-3.494 1.953 3.494 2.672 1.336-1.13-2.775-1.747-4.83c-0.617-2.056-1.131-2.261-0.514-3.495 0.617-1.233 0.72-3.5965 0.72-3.5965s2.569 0.6165 2.363-1.5416c-0.205-2.1582-2.775-2.672-3.288-2.7748-0.514-0.1027-0.412-2.2609-0.617-2.1582-0.206 0.1028-1.85 1.336-1.85 1.336s-1.439-3.3915-1.747-3.1859-1.953 1.9527-3.186 2.0555c-1.233 0.1027-1.953 1.8499-1.953 1.8499s-4.316-2.0555-4.213 1.3359c0.103 3.3915 2.569 2.5693 2.569 2.6721s-0.411 4.7276-0.822 4.9326z" fill-rule="evenodd" fill-opacity=".99608" transform="translate(-.13899 37.594)" stroke="#000" stroke-width=".70149" fill="#fdc400"/>
     <path id="path600" d="m109.25 96.386c0.514-0.1027 1.336-0.7193 2.158-0.5138s2.055 1.1305 1.336 1.4388c-0.72 0.3083-1.233 0.411-1.953 0.1027-0.719-0.3083-1.233-0.8221-1.541-1.0277z" fill-rule="evenodd" fill-opacity=".99608" transform="matrix(.99010 -.14036 .14036 .99010 -12.577 54.751)"/>
     <path id="path601" d="m109.25 96.386c0.514-0.1027 1.336-0.7193 2.158-0.5138s2.055 1.1305 1.336 1.4388c-0.72 0.3083-1.233 0.411-1.953 0.1027-0.719-0.3083-1.233-0.8221-1.541-1.0277z" fill-rule="evenodd" fill-opacity=".99608" transform="matrix(-.99010 -.14036 -.14036 .99010 239.2 54.648)"/>
     <path id="path602" d="m110.99 103.17c0.103 0.514 0.411 4.831 0.616 4.522 0.206-0.308 1.748-4.419 1.645-4.419s-2.158 0.103-2.261-0.103z" fill-rule="evenodd" fill-opacity=".99608" transform="translate(-5.9605e-7 37.643)" stroke="#000" stroke-width=".42089" fill="#000039"/>
     <path id="path603" d="m109.96 103.17c0.049-1.215 0.822-1.13 2.467-0.925 1.644 0.206 2.466 1.028 2.363 1.234-0.102 0.205-1.438 0.719-2.569 0.616-1.336-0.411-2.298 0.089-2.261-0.925z" transform="translate(-5.9605e-7 37.789)" stroke="#000" stroke-width=".84179" fill="none"/>
     <path id="path607" d="m112.43 100.08-0.206 1.953" transform="translate(-5.9605e-7 37.789)" stroke="#000" stroke-width="1.1224pt" fill="none"/>
     <path id="path608" d="m119.32 94.844s1.336 0.6167 1.131 1.2333c-0.206 0.6166-1.131 0.925-1.131 0.925" transform="translate(-5.9605e-7 37.789)" stroke="#000" stroke-width="1.1224pt" fill="none"/>
     <path id="path609" d="m108.12 94.33c-0.308 0.1028-0.719 0.3084-0.925 1.1305-0.205 0.8222 0.925 1.336 0.925 1.336" transform="translate(-5.9605e-7 37.789)" stroke="#000" stroke-width="1.1224pt" fill="none"/>
     <path id="path610" d="m111.19 136.13s-1.454 1.454 1.017 1.454 0.727-1.308 0.727-1.308" transform="translate(.14534 .29065)" stroke="#000" stroke-width="1.1224pt" fill="none"/>
    </g>
    <polygon id="polygon749" fill="#fdc400" fill-rule="evenodd" transform="matrix(.34772 0 0 .34286 640.98 116.4)" d="m 249.94155,680.31494 17.99644,-59.98052 -49.9885,-37.71849 62.60607,-1.41936 20.42512,-59.19755 20.69623,59.10331 62.61192,1.13239 -49.8151,37.94722 18.27118,59.8974 -51.48366,-35.65064 z" stroke-width="1pt" points="249.94 680.32 267.94 620.33 217.95 582.62 280.56 581.2 300.98 522 321.68 581.1 384.29 582.24 334.47 620.18 352.74 680.08 301.26 644.43"/>
    <polygon id="polygon750" fill="#003017" fill-rule="evenodd" fill-opacity=".99608" transform="matrix(.28976 0 0 .27236 658.43 158.85)" d="m 249.94155,680.31494 17.99644,-59.98052 -49.9885,-37.71849 62.60607,-1.41936 20.42512,-59.19755 20.69623,59.10331 62.61192,1.13239 -49.8151,37.94722 18.27118,59.8974 -51.48366,-35.65064 z" stroke-width="1pt" points="249.94 680.32 267.94 620.33 217.95 582.62 280.56 581.2 300.98 522 321.68 581.1 384.29 582.24 334.47 620.18 352.74 680.08 301.26 644.43"/>
    <polygon id="polygon751" fill="#fdc400" fill-rule="evenodd" transform="matrix(.34397 0 0 .32423 606.09 87.419)" d="m 249.94155,680.31494 17.99644,-59.98052 -49.9885,-37.71849 62.60607,-1.41936 20.42512,-59.19755 20.69623,59.10331 62.61192,1.13239 -49.8151,37.94722 18.27118,59.8974 -51.48366,-35.65064 z" stroke-width="1pt" points="249.94 680.32 267.94 620.33 217.95 582.62 280.56 581.2 300.98 522 321.68 581.1 384.29 582.24 334.47 620.18 352.74 680.08 301.26 644.43"/>
    <polygon id="polygon752" fill="#003017" fill-rule="evenodd" fill-opacity=".99608" transform="matrix(.28664 0 0 .25756 623.36 127.56)" d="m 249.94155,680.31494 17.99644,-59.98052 -49.9885,-37.71849 62.60607,-1.41936 20.42512,-59.19755 20.69623,59.10331 62.61192,1.13239 -49.8151,37.94722 18.27118,59.8974 -51.48366,-35.65064 z" stroke-width="1pt" points="249.94 680.32 267.94 620.33 217.95 582.62 280.56 581.2 300.98 522 321.68 581.1 384.29 582.24 334.47 620.18 352.74 680.08 301.26 644.43"/>
    <polygon id="polygon753" fill="#fdc400" fill-rule="evenodd" transform="matrix(.34840 0 0 .32423 677.16 87.419)" d="m 249.94155,680.31494 17.99644,-59.98052 -49.9885,-37.71849 62.60607,-1.41936 20.42512,-59.19755 20.69623,59.10331 62.61192,1.13239 -49.8151,37.94722 18.27118,59.8974 -51.48366,-35.65064 z" stroke-width="1pt" points="249.94 680.32 267.94 620.33 217.95 582.62 280.56 581.2 300.98 522 321.68 581.1 384.29 582.24 334.47 620.18 352.74 680.08 301.26 644.43"/>
    <polygon id="polygon754" fill="#003017" fill-rule="evenodd" fill-opacity=".99608" transform="matrix(.29033 0 0 .25756 694.65 127.56)" d="m 249.94155,680.31494 17.99644,-59.98052 -49.9885,-37.71849 62.60607,-1.41936 20.42512,-59.19755 20.69623,59.10331 62.61192,1.13239 -49.8151,37.94722 18.27118,59.8974 -51.48366,-35.65064 z" stroke-width="1pt" points="249.94 680.32 267.94 620.33 217.95 582.62 280.56 581.2 300.98 522 321.68 581.1 384.29 582.24 334.47 620.18 352.74 680.08 301.26 644.43"/>
   </g>
   <path id="path3870" d="m640.9 319.18c7.8383 33.733 40.92 58.77 85.477 64.69 57.231 7.6042 111.83-21.392 121.87-64.724" fill="none"/>
   <path id="text3872" d="m644.94 331.5 10.359-5.2672 0.97477 1.917-4.0628 2.0658 1.3442 2.6435 4.0628-2.0658 0.97477 1.917-10.359 5.2672-0.97477-1.917 4.695-2.3873-1.3442-2.6435-4.695 2.3873-0.97476-1.917m4.3364 8.1568 9.6712-6.4431 3.3094 4.9675-1.6077 1.071-2.117-3.1777-2.2357 1.4894 1.9706 2.9579-1.5323 1.0208-1.9706-2.9579-2.6627 1.7739 2.1672 3.253-1.6328 1.0878-3.3596-5.0428m6.739 9.3562 8.5313-7.8906 1.4603 1.5788-3.346 3.0948 2.0136 2.1772 3.346-3.0948 1.4603 1.5788-8.5313 7.8906-1.4603-1.5788 3.8668-3.5764-2.0136-2.1772-3.8668 3.5764-1.4603-1.5788m11.141 4.6726 1.3843 1.214 2.5163-4.277-3.9006 3.063m-5.4123 1.4564 9.6308-7.0107 2.1843 1.9155-5.6764 10.479-1.7531-1.5374 1.4943-2.5738-1.8722-1.6419-2.3453 1.8275-1.6623-1.4578m8.4034 7.0262 5.739-7.8253-2.0081-1.4727 1.1335-1.5456 5.7625 4.2262-1.1335 1.5456-2.0081-1.4727-5.739 7.8253-1.7464-1.2808m4.713 3.3909 6.0539-9.9194 1.8357 1.1204-2.3744 3.8905 2.5314 1.5449 2.3744-3.8905 1.8357 1.1204-6.0539 9.9194-1.8357-1.1204 2.7439-4.496-2.5314-1.5449-2.7439 4.496-1.8357-1.1204m11.38 6.481 4.8847-10.544 5.5119 2.5534-0.79932 1.7254-3.5468-1.643-1.1546 2.4923 3.3482 1.551-0.78028 1.6844-3.3482-1.551-2.1505 4.6423-1.9651-0.91033m10.779-1.6014c-0.67836 1.7873-1.0024 2.953-0.97222 3.4972 0.0367 0.54126 0.33725 0.91899 0.90165 1.1332 0.55499 0.21065 1.0193 0.1286 1.3929-0.24616 0.3801-0.37767 0.91291-1.4695 1.5984-3.2756s1.0122-2.9788 0.98025-3.5183c-0.032-0.53947-0.32786-0.91542-0.88754-1.1279-0.5597-0.21243-1.0305-0.12746-1.4124 0.25491-0.3819 0.38239-0.91559 1.4766-1.6011 3.2827m-2.0671-0.78457c0.43736-1.1523 0.84045-2.0513 1.2093-2.6969 0.37059-0.65031 0.73717-1.1058 1.0997-1.3663 0.50255-0.37424 1.0127-0.58417 1.5304-0.62981 0.51773-0.0456 1.134 0.0672 1.849 0.33857 0.7149 0.27136 1.2509 0.59586 1.608 0.97352 0.35707 0.37768 0.60179 0.87413 0.73419 1.4894 0.0948 0.44493 0.0636 1.0304-0.0936 1.7563-0.15247 0.72775-0.44648 1.6654-0.88205 2.813-0.4338 1.1429-0.836 2.0395-1.2066 2.6898-0.36882 0.64562-0.73394 1.1043-1.0954 1.3761-0.50728 0.37246-1.0198 0.5815-1.5375 0.62713-0.51775 0.0456-1.1341-0.0672-1.849-0.33857-0.7149-0.27135-1.2509-0.59585-1.608-0.97352-0.35708-0.37767-0.59946-0.87323-0.72714-1.4867-0.0984-0.43552-0.0713-1.0172 0.0811-1.7449 0.15424-0.73244 0.45004-1.6748 0.88741-2.8271m9.9954-2.4684 2.0756 0.61806-2.2353 7.507c-0.25555 0.85823-0.32561 1.4725-0.21016 1.8428 0.12169 0.36693 0.45013 0.63007 0.98532 0.78943 0.53036 0.15792 0.94273 0.11275 1.2371-0.13553 0.2992-0.24684 0.57874-0.80661 0.8386-1.6793l2.2267-7.4781 2.0467 0.60944-2.2892 7.6879c-0.22254 0.74733-0.42888 1.2816-0.61903 1.603-0.1839 0.31792-0.41346 0.57763-0.68866 0.77913-0.41523 0.30153-0.89816 0.47791-1.4488 0.52916-0.54922 0.0464-1.1613-0.0309-1.8363-0.23186-1.2729-0.37902-2.0902-0.9216-2.4521-1.6277-0.35562-0.70952-0.32885-1.7513 0.0803-3.1255l2.2892-7.6879m5.5582 13.703 2.5377-11.34 2.1724 0.48613 1.1782 8.5917 1.7159-7.9441 1.9956 0.44657-2.5377 11.34-2.1576-0.48283-1.197-8.6114-1.7192 7.9588-1.9883-0.44493m11.36 0.57799 0.94681 0.14828c0.48209 0.0755 0.82551 0.0936 1.0302 0.0544 0.20472-0.0392 0.37748-0.13438 0.51826-0.28546 0.2455-0.26707 0.45097-0.65244 0.61642-1.1561 0.16622-0.50863 0.33884-1.3345 0.51787-2.4776 0.17435-1.1133 0.25152-1.9312 0.23152-2.4537-0.02-0.52251-0.12907-0.93167-0.32715-1.2275-0.10402-0.14867-0.25154-0.26343-0.44256-0.34428-0.18527-0.085-0.48666-0.16022-0.90414-0.22561l-0.91698-0.14361-1.2703 8.1112m-2.3599 1.3642 1.798-11.481 3.4368 0.53824c0.70078 0.10976 1.2481 0.25658 1.6419 0.44046 0.3988 0.18468 0.71138 0.43222 0.93775 0.74262 0.34107 0.4557 0.54653 0.99708 0.61638 1.6241 0.0756 0.62288 0.0145 1.5655-0.18319 2.8279-0.25532 1.6302-0.49305 2.7743-0.71322 3.4323-0.2194 0.65307-0.50274 1.1943-0.85004 1.6236-0.33736 0.43091-0.75691 0.70382-1.2586 0.81874-0.496 0.11073-1.323 0.0754-2.481-0.10594l-2.9448-0.46119m8.9886 1.33 1.1172-11.567 5.9413 0.57381-0.18571 1.9228-3.8006-0.36707-0.25826 2.674 3.5377 0.34168-0.17701 1.8327-3.5377-0.34168-0.30758 3.1847 3.8907 0.37577-0.18861 1.9529-6.0314-0.58252m9.8168-0.93633 0.95773 0.0345c0.48765 0.0176 0.83079-0.005 1.0294-0.0687 0.19859-0.0633 0.35879-0.17836 0.48058-0.34513 0.21196-0.29441 0.37008-0.7015 0.47438-1.2213 0.10447-0.5248 0.17753-1.3654 0.21917-2.5217 0.0406-1.1261 0.0198-1.9474-0.0623-2.4638-0.0821-0.51641-0.23908-0.90968-0.47098-1.1798-0.12098-0.13523-0.28112-0.23161-0.4804-0.28914-0.19408-0.0623-0.50227-0.10113-0.92457-0.11635l-0.92757-0.0334-0.29545 8.2048m-2.1807 1.6355 0.4182-11.613 3.4765 0.12519c0.70887 0.0255 1.2698 0.10614 1.6827 0.24181 0.41796 0.13588 0.75779 0.34444 1.0195 0.62569 0.39291 0.41184 0.66137 0.9249 0.80538 1.5392 0.1492 0.60945 0.20081 1.5527 0.15484 2.8296-0.0594 1.649-0.15921 2.8133-0.29945 3.4928-0.14008 0.67454-0.35697 1.2456-0.65067 1.7133-0.28366 0.46802-0.66773 0.78894-1.1522 0.96279-0.47928 0.16899-1.3046 0.2324-2.476 0.19022l-2.9788-0.10727m12.945 0.15187-0.46134-11.612 2.164-0.086 0.46133 11.612-2.164 0.086m5.7797-0.30591-0.7941-9.6717-2.4818 0.20377-0.15684-1.9103 7.1221-0.58477 0.15684 1.9103-2.4818 0.20377 0.7941 9.6717-2.1584 0.17722m7.624-12.46 2.1337-0.3709 1.3414 7.7171c0.15335 0.88223 0.36415 1.4634 0.63242 1.7436 0.27235 0.27435 0.68361 0.3637 1.2338 0.26807 0.5452-0.0948 0.89431-0.31885 1.0474-0.67224 0.15798-0.35425 0.159-0.97993 0.003-1.877l-1.3362-7.6873 2.104-0.36573 1.3737 7.9029c0.13353 0.76824 0.1867 1.3385 0.15953 1.7109-0.0231 0.36655-0.11299 0.70131-0.26967 1.0043-0.23752 0.45488-0.59139 0.82787-1.0616 1.119-0.47109 0.28613-1.0536 0.4895-1.7475 0.61012-1.3085 0.22744-2.282 0.10561-2.9204-0.36551-0.63437-0.47694-1.0743-1.4217-1.3199-2.8343l-1.3737-7.9029m11.562 2.9468 0.8798-0.21428c0.65496-0.15952 1.0835-0.3985 1.2855-0.71696 0.20084-0.32333 0.22567-0.79538 0.0745-1.4161-0.15239-0.62563-0.37994-1.0284-0.68266-1.2084-0.29903-0.18604-0.78824-0.19634-1.4676-0.0309l-0.90913 0.22142 0.81964 3.3653m-0.48448 6.8439-2.75-11.291 3.6512-0.88927c1.1144-0.27142 1.9767-0.21737 2.5869 0.16212 0.6102 0.37953 1.0534 1.1363 1.3296 2.2702 0.27142 1.1144 0.2123 2.009-0.17735 2.6838-0.38598 0.66874-1.1142 1.1335-2.1846 1.3942l-1.5323 0.37321 1.1661 4.7876-2.0895 0.50892m8.2989-8.1816c0.57794 1.8222 1.0477 2.9372 1.4093 3.345 0.36483 0.4015 0.83496 0.511 1.4104 0.32849 0.56584-0.17947 0.87886-0.53207 0.93905-1.0578 0.0635-0.53206-0.19682-1.7188-0.78085-3.5602s-1.0561-2.9636-1.4161-3.3666c-0.36004-0.403-0.82538-0.51402-1.396-0.33304-0.57064 0.181-0.88693 0.53992-0.94887 1.0768-0.062 0.53686 0.1991 1.726 0.78313 3.5674m-2.1075 0.66844c-0.37262-1.1748-0.61481-2.1298-0.72658-2.8649-0.11328-0.73988-0.10871-1.3245 0.0137-1.7539 0.16159-0.6054 0.43115-1.0867 0.80867-1.444 0.37752-0.35722 0.93072-0.65142 1.6596-0.88261 0.72888-0.23117 1.3505-0.30959 1.8649-0.23526 0.5144 0.0744 1.0145 0.31157 1.5003 0.71164 0.35056 0.28993 0.68961 0.76821 1.0172 1.4348 0.33234 0.66514 0.68406 1.5827 1.0552 2.7528 0.36957 1.1653 0.61101 2.1178 0.72429 2.8577 0.11176 0.7351 0.11035 1.3214-0.004 1.7588-0.16639 0.60693-0.43834 1.089-0.81586 1.4462-0.37752 0.35723-0.93072 0.65143-1.6596 0.88261-0.72889 0.23118-1.3505 0.3096-1.8649 0.23525-0.5144-0.0743-1.0121-0.31231-1.4931-0.71392-0.34752-0.28032-0.68745-0.75305-1.0198-1.4182-0.33386-0.66992-0.68711-1.5923-1.0597-2.7672m10.622 2.6563-4.3239-10.787 2.0662-0.82827 5.8326 6.4177-3.0799-7.5211 1.8982-0.76089 4.3239 10.787-2.0522 0.82266-5.8592-6.4233 3.0856 7.5351-1.8911 0.75808m13.459-5.95-4.5338-8.58-2.2017 1.1634-0.89547-1.6946 6.3182-3.3386 0.89547 1.6947-2.2017 1.1634 4.5338 8.58-1.9148 1.0118m5.1156-2.7449-6.2055-9.8254 1.8183-1.1484 2.4338 3.8536 2.5074-1.5836-2.4338-3.8536 1.8183-1.1484 6.2055 9.8254-1.8183 1.1484-2.8126-4.4533-2.5074 1.5836 2.8126 4.4533-1.8183 1.1484m7.7517-5.0247-7.0036-9.2733 4.7631-3.5973 1.1642 1.5415-3.047 2.3012 1.619 2.1437 2.8362-2.142 1.1097 1.4693-2.8362 2.142 1.9283 2.5532 3.1192-2.3558 1.1824 1.5656-4.8354 3.6519m5.978-9.9715 1.5448-1.5179 0.5236 0.53286c0.50068 0.50953 0.90549 0.79589 1.2144 0.85907 0.309 0.0561 0.61959-0.0693 0.93177-0.37603 0.32653-0.32086 0.49303-0.64668 0.49948-0.97746 0.01-0.3343-0.1436-0.66292-0.46093-0.98587-0.24329-0.24759-0.51053-0.40112-0.80171-0.46059-0.29471-0.0631-0.77693-0.0406-1.4467 0.0674l-1.3413 0.2177c-1.1472 0.19628-1.9657 0.2318-2.4555 0.10655-0.48623-0.12876-0.95853-0.42639-1.4169-0.89287-0.68402-0.69611-1.0136-1.4443-0.98885-2.2445 0.0248-0.80018 0.39962-1.5564 1.1244-2.2686 0.7679-0.75453 1.5626-1.1229 2.3842-1.105s1.6185 0.41973 2.3907 1.2056c0.0776 0.0789 0.13572 0.14172 0.17444 0.18829 0.0423 0.0431 0.0775 0.0825 0.10568 0.11832l-1.464 1.4386-0.21685-0.22068c-0.44073-0.44852-0.82986-0.69739-1.1674-0.7466-0.33751-0.0492-0.67492 0.0919-1.0122 0.42335-0.24759 0.2433-0.37087 0.50902-0.36984 0.79717 0.001 0.28105 0.12858 0.55075 0.38244 0.80909 0.34202 0.34807 1.0386 0.42177 2.0898 0.22108 0.0107-0.003 0.0196-0.005 0.0267-0.005l1.4163-0.25973c1.0013-0.19399 1.7859-0.21735 2.3538-0.0701 0.56436 0.1437 1.118 0.49183 1.661 1.0444 0.74044 0.75354 1.0964 1.5464 1.0677 2.3786-0.0286 0.83217-0.44305 1.6414-1.2432 2.4277-0.83248 0.81802-1.6648 1.2127-2.497 1.1841-0.82859-0.0322-1.6766-0.4896-2.544-1.3723-0.0917-0.0933-0.23611-0.25464-0.43332-0.48404l-0.0317-0.0323m8.9927-3.2638-8.9072-7.4638 3.8337-4.575 1.4807 1.2407-2.4524 2.9266 2.0591 1.7254 2.2827-2.7242 1.4113 1.1826-2.2828 2.7242 2.4524 2.055 2.5105-2.996 1.5038 1.2601-3.8918 4.6444m2.2617-10.404 1.0287-1.5271-4.5615-1.9537 3.5328 3.4808m2.1308 5.184-8.1751-8.6643 1.6231-2.4095 11.114 4.3021-1.3027 1.9339-2.7424-1.1559-1.3913 2.0653 2.11 2.0947-1.2353 1.8337m1.3794-9.4497 0.98922-1.9266 0.66458 0.34123c0.63548 0.3263 1.1098 0.47087 1.4229 0.43372 0.31096-0.0439 0.56639-0.26055 0.76631-0.6499 0.2091-0.40724 0.26472-0.76888 0.16686-1.0849-0.0956-0.3205-0.34474-0.58416-0.74751-0.79097-0.30879-0.15855-0.61075-0.22028-0.90586-0.18519-0.29959 0.0328-0.7503 0.20571-1.3521 0.51875l-1.2048 0.62833c-1.0273 0.54699-1.7932 0.83803-2.2975 0.87313-0.50205 0.0306-1.044-0.10342-1.6258-0.40214-0.86819-0.44578-1.4163-1.0524-1.6443-1.8198-0.22801-0.7674-0.10995-1.6031 0.35421-2.5071 0.49174-0.95769 1.1304-1.5572 1.9159-1.7986 0.78556-0.24132 1.6684-0.11038 2.6484 0.39284 0.0985 0.0506 0.17339 0.0919 0.22479 0.1239 0.0537 0.0276 0.0995 0.0539 0.13752 0.0791l-0.93751 1.8259-0.27523-0.14132c-0.5594-0.28722-1.007-0.40113-1.3429-0.34174-0.33587 0.0594-0.6118 0.29945-0.82781 0.72011-0.15854 0.3088-0.19203 0.59981-0.10046 0.87302 0.0894 0.26646 0.2952 0.4824 0.61741 0.64784 0.43411 0.2229 1.1186 0.0739 2.0534-0.44713 0.009-0.007 0.017-0.0111 0.0238-0.0132l1.2629-0.69183c0.88956-0.49895 1.627-0.7678 2.2124-0.80654 0.58092-0.041 1.216 0.1154 1.9052 0.46926 0.9398 0.48255 1.5269 1.1233 1.7614 1.9223 0.23444 0.79898 0.0955 1.6975-0.41696 2.6954-0.5331 1.0383-1.1991 1.6746-1.9981 1.909-0.79669 0.22997-1.7455 0.0623-2.8464-0.50295-0.11635-0.0597-0.30419-0.1675-0.56352-0.32327l-0.0403-0.0207" transform="matrix(1.0376 0 0 1.1529 -28.43 -57.787)"/>
  </g>
 </g>
</svg>
