<?xml version="1.0" encoding="UTF-8" standalone="no"?>
<!-- Created with Sodipodi ("http://www.sodipodi.com/") -->
<svg id="svg732" xmlns:rdf="http://www.w3.org/1999/02/22-rdf-syntax-ns#" xmlns="http://www.w3.org/2000/svg" height="480" width="640" version="1.1" xmlns:cc="http://creativecommons.org/ns#" xmlns:xlink="http://www.w3.org/1999/xlink" xmlns:dc="http://purl.org/dc/elements/1.1/">
 <metadata id="metadata3081">
  <rdf:RDF>
   <cc:Work rdf:about="">
    <dc:format>image/svg+xml</dc:format>
    <dc:type rdf:resource="http://purl.org/dc/dcmitype/StillImage"/>
   </cc:Work>
  </rdf:RDF>
 </metadata>
 <g id="flag" fill-rule="evenodd">
  <rect id="rect851" height="480" width="640" y="0" x="0" stroke-width="1pt" fill="#6fdcff"/>
  <g id="g766" transform="matrix(13.723 0 0 10.439 -5258.8 -2576.6)" fill="#ffe400">
   <path id="path760" d="m387.6 291.56c0.237 0.305 0.159 0.818 0.818 0.752 1.006 0 1.035-0.809 1.035-1.374 0-0.564-1.499-1.353-1.568-2.183-0.07-0.831 0.346-1.063 0.694-1.063 0.346 0 0.589 0.266 0.589 0.498s-0.173 0.299-0.416 0.299 0.104-0.166-0.104-0.299-0.347 0.199-0.347 0.399c0 0.199 0.52 0.265 0.867 0.116 0.07 0.448 0.104 0.482-0.382 1.245 0.348-0.299 0.381-0.365 0.764-0.199-0.382-0.432-0.096-1.312-0.083-1.536s-0.073-0.49-0.229-0.623c-0.278-0.332-0.885-0.347-1.249-0.133-0.53 0.311-0.556 1.228-0.417 1.528l1.469 1.98c0.104 0.233 0.14 0.88-0.484 0.913-0.659 0.066-0.885-1.115-1.002-1.508-0.157 0.429-0.332 1.613-0.991 1.547-0.625-0.033-0.745-0.68-0.641-0.913l1.509-2.019c0.138-0.3 0.112-1.217-0.418-1.528-0.364-0.214-0.97-0.199-1.248 0.133-0.156 0.133-0.243 0.399-0.23 0.623s0.299 1.104-0.083 1.536c0.383-0.166 0.417-0.1 0.764 0.199-0.486-0.763-0.451-0.797-0.382-1.245 0.347 0.149 0.868 0.083 0.868-0.116 0-0.2-0.14-0.532-0.348-0.399-0.207 0.133 0.139 0.299-0.103 0.299-0.244 0-0.417-0.067-0.417-0.299s0.243-0.498 0.59-0.498 0.763 0.232 0.693 1.063c-0.069 0.83-1.607 1.736-1.607 2.3 0 0.565 0.107 1.257 1.113 1.257 0.659 0.066 0.737-0.447 0.976-0.752z"/>
   <path id="path761" d="m387.52 294.92c0.237 0.305 0.432 1.209 1.091 1.143 1.006 0 1.387-0.731 1.387-1.296 0-0.564-2.046-5.181-2.115-6.011-0.07-0.831 0.346-1.063 0.694-1.063 0.346 0 0.589 0.266 0.589 0.498s-0.173 0.299-0.416 0.299 0.104-0.166-0.104-0.299-0.347 0.199-0.347 0.399c0 0.199 0.52 0.265 0.867 0.116 0.07 0.448 0.104 0.482-0.382 1.245 0.348-0.299 0.381-0.365 0.764-0.199-0.382-0.432-0.096-1.312-0.083-1.536s-0.073-0.49-0.229-0.623c-0.278-0.332-0.885-0.347-1.249-0.133-0.53 0.311-0.556 1.228-0.417 1.528l1.977 5.613c0.104 0.233-0.173 0.997-0.797 1.03-0.659 0.066-0.885-0.842-1.002-1.235l0.898 0.086s0.035-0.182 0-0.3c-0.464-0.04-0.898-0.151-0.898-0.151l-0.034-0.598h0.443l-0.035-0.265s-0.374 0.033-0.408 0c-0.035-0.033-0.07-0.599-0.07-0.599s-0.069-0.033-0.144-0.033c-0.076 0-0.145 0.033-0.145 0.033s-0.035 0.566-0.069 0.599c-0.035 0.033-0.409 0-0.409 0l-0.034 0.265h0.443l-0.035 0.598s-0.434 0.111-0.898 0.151c-0.034 0.118 0 0.3 0 0.3l0.898-0.086c-0.117 0.393-0.343 1.301-1.001 1.235-0.625-0.033-0.902-0.797-0.798-1.03l1.978-5.613c0.138-0.3 0.112-1.217-0.418-1.528-0.364-0.214-0.97-0.199-1.248 0.133-0.156 0.133-0.243 0.399-0.23 0.623s0.299 1.104-0.083 1.536c0.383-0.166 0.417-0.1 0.764 0.199-0.486-0.763-0.451-0.797-0.382-1.245 0.347 0.149 0.868 0.083 0.868-0.116 0-0.2-0.14-0.532-0.348-0.399-0.207 0.133 0.139 0.299-0.103 0.299-0.244 0-0.417-0.067-0.417-0.299s0.243-0.498 0.59-0.498 0.763 0.232 0.693 1.063c-0.069 0.83-2.115 5.447-2.115 6.011 0 0.565 0.381 1.296 1.387 1.296 0.659 0.066 0.893-0.838 1.132-1.143z" transform="matrix(1 0 0 -1 .0000095367 574.63)"/>
   <path id="path762" d="m387.52 294.92c0.237 0.305 0.432 1.209 1.091 1.143 1.006 0 1.387-0.731 1.387-1.296 0-0.564-2.046-5.181-2.115-6.011-0.07-0.831 0.346-1.063 0.694-1.063 0.346 0 0.589 0.266 0.589 0.498s-0.173 0.299-0.416 0.299 0.104-0.166-0.104-0.299-0.347 0.199-0.347 0.399c0 0.199 0.52 0.265 0.867 0.116 0.07 0.448 0.104 0.482-0.382 1.245 0.348-0.299 0.381-0.365 0.764-0.199-0.382-0.432-0.096-1.312-0.083-1.536s-0.073-0.49-0.229-0.623c-0.278-0.332-0.885-0.347-1.249-0.133-0.53 0.311-0.556 1.228-0.417 1.528l1.977 5.613c0.104 0.233-0.173 0.997-0.797 1.03-0.659 0.066-0.885-0.842-1.002-1.235l0.898 0.086s0.035-0.182 0-0.3c-0.464-0.04-0.898-0.151-0.898-0.151l-0.034-0.598h0.443l-0.035-0.265s-0.374 0.033-0.408 0c-0.035-0.033-0.07-0.599-0.07-0.599s-0.069-0.033-0.144-0.033c-0.076 0-0.145 0.033-0.145 0.033s-0.035 0.566-0.069 0.599c-0.035 0.033-0.409 0-0.409 0l-0.034 0.265h0.443l-0.035 0.598s-0.434 0.111-0.898 0.151c-0.034 0.118 0 0.3 0 0.3l0.898-0.086c-0.117 0.393-0.343 1.301-1.001 1.235-0.625-0.033-0.902-0.797-0.798-1.03l1.978-5.613c0.138-0.3 0.112-1.217-0.418-1.528-0.364-0.214-0.97-0.199-1.248 0.133-0.156 0.133-0.243 0.399-0.23 0.623s0.299 1.104-0.083 1.536c0.383-0.166 0.417-0.1 0.764 0.199-0.486-0.763-0.451-0.797-0.382-1.245 0.347 0.149 0.868 0.083 0.868-0.116 0-0.2-0.14-0.532-0.348-0.399-0.207 0.133 0.139 0.299-0.103 0.299-0.244 0-0.417-0.067-0.417-0.299s0.243-0.498 0.59-0.498 0.763 0.232 0.693 1.063c-0.069 0.83-2.115 5.447-2.115 6.011 0 0.565 0.381 1.296 1.387 1.296 0.659 0.066 0.893-0.838 1.132-1.143z" transform="translate(0 -17.498)"/>
   <path id="path763" d="m387.52 294.92c0.237 0.305 0.432 1.209 1.091 1.143 1.006 0 1.387-0.731 1.387-1.296 0-0.564-2.046-5.181-2.115-6.011-0.07-0.831 0.346-1.063 0.694-1.063 0.346 0 0.589 0.266 0.589 0.498s-0.173 0.299-0.416 0.299 0.104-0.166-0.104-0.299-0.347 0.199-0.347 0.399c0 0.199 0.52 0.265 0.867 0.116 0.07 0.448 0.104 0.482-0.382 1.245 0.348-0.299 0.381-0.365 0.764-0.199-0.382-0.432-0.096-1.312-0.083-1.536s-0.073-0.49-0.229-0.623c-0.278-0.332-0.885-0.347-1.249-0.133-0.53 0.311-0.556 1.228-0.417 1.528l1.977 5.613c0.104 0.233-0.173 0.997-0.797 1.03-0.659 0.066-0.885-0.842-1.002-1.235l0.898 0.086s0.035-0.182 0-0.3c-0.464-0.04-0.898-0.151-0.898-0.151l-0.034-0.598h0.443l-0.035-0.265s-0.374 0.033-0.408 0c-0.035-0.033-0.07-0.599-0.07-0.599s-0.069-0.033-0.144-0.033c-0.076 0-0.145 0.033-0.145 0.033s-0.035 0.566-0.069 0.599c-0.035 0.033-0.409 0-0.409 0l-0.034 0.265h0.443l-0.035 0.598s-0.434 0.111-0.898 0.151c-0.034 0.118 0 0.3 0 0.3l0.898-0.086c-0.117 0.393-0.343 1.301-1.001 1.235-0.625-0.033-0.902-0.797-0.798-1.03l1.978-5.613c0.138-0.3 0.112-1.217-0.418-1.528-0.364-0.214-0.97-0.199-1.248 0.133-0.156 0.133-0.243 0.399-0.23 0.623s0.299 1.104-0.083 1.536c0.383-0.166 0.417-0.1 0.764 0.199-0.486-0.763-0.451-0.797-0.382-1.245 0.347 0.149 0.868 0.083 0.868-0.116 0-0.2-0.14-0.532-0.348-0.399-0.207 0.133 0.139 0.299-0.103 0.299-0.244 0-0.417-0.067-0.417-0.299s0.243-0.498 0.59-0.498 0.763 0.232 0.693 1.063c-0.069 0.83-2.115 5.447-2.115 6.011 0 0.565 0.381 1.296 1.387 1.296 0.659 0.066 0.893-0.838 1.132-1.143z" transform="matrix(1 0 0 -1 .0000095367 557.13)"/>
   <path id="path764" d="m387.52 294.92c0.237 0.305 0.432 1.209 1.091 1.143 1.006 0 1.387-0.731 1.387-1.296 0-0.564-2.046-5.181-2.115-6.011-0.07-0.831 0.346-1.063 0.694-1.063 0.346 0 0.589 0.266 0.589 0.498s-0.173 0.299-0.416 0.299 0.104-0.166-0.104-0.299-0.347 0.199-0.347 0.399c0 0.199 0.52 0.265 0.867 0.116 0.07 0.448 0.104 0.482-0.382 1.245 0.348-0.299 0.381-0.365 0.764-0.199-0.382-0.432-0.096-1.312-0.083-1.536s-0.073-0.49-0.229-0.623c-0.278-0.332-0.885-0.347-1.249-0.133-0.53 0.311-0.556 1.228-0.417 1.528l1.977 5.613c0.104 0.233-0.173 0.997-0.797 1.03-0.659 0.066-0.885-0.842-1.002-1.235l0.898 0.086s0.035-0.182 0-0.3c-0.464-0.04-0.898-0.151-0.898-0.151l-0.034-0.598h0.443l-0.035-0.265s-0.374 0.033-0.408 0c-0.035-0.033-0.07-0.599-0.07-0.599s-0.069-0.033-0.144-0.033c-0.076 0-0.145 0.033-0.145 0.033s-0.035 0.566-0.069 0.599c-0.035 0.033-0.409 0-0.409 0l-0.034 0.265h0.443l-0.035 0.598s-0.434 0.111-0.898 0.151c-0.034 0.118 0 0.3 0 0.3l0.898-0.086c-0.117 0.393-0.343 1.301-1.001 1.235-0.625-0.033-0.902-0.797-0.798-1.03l1.978-5.613c0.138-0.3 0.112-1.217-0.418-1.528-0.364-0.214-0.97-0.199-1.248 0.133-0.156 0.133-0.243 0.399-0.23 0.623s0.299 1.104-0.083 1.536c0.383-0.166 0.417-0.1 0.764 0.199-0.486-0.763-0.451-0.797-0.382-1.245 0.347 0.149 0.868 0.083 0.868-0.116 0-0.2-0.14-0.532-0.348-0.399-0.207 0.133 0.139 0.299-0.103 0.299-0.244 0-0.417-0.067-0.417-0.299s0.243-0.498 0.59-0.498 0.763 0.232 0.693 1.063c-0.069 0.83-2.115 5.447-2.115 6.011 0 0.565 0.381 1.296 1.387 1.296 0.659 0.066 0.893-0.838 1.132-1.143z" transform="translate(0 -34.998)"/>
   <path id="path765" d="m387.6 291.56c0.237 0.305 0.159 0.818 0.818 0.752 1.006 0 1.035-0.809 1.035-1.374 0-0.564-1.499-1.353-1.568-2.183-0.07-0.831 0.346-1.063 0.694-1.063 0.346 0 0.589 0.266 0.589 0.498s-0.173 0.299-0.416 0.299 0.104-0.166-0.104-0.299-0.347 0.199-0.347 0.399c0 0.199 0.52 0.265 0.867 0.116 0.07 0.448 0.104 0.482-0.382 1.245 0.348-0.299 0.381-0.365 0.764-0.199-0.382-0.432-0.096-1.312-0.083-1.536s-0.073-0.49-0.229-0.623c-0.278-0.332-0.885-0.347-1.249-0.133-0.53 0.311-0.556 1.228-0.417 1.528l1.469 1.98c0.104 0.233 0.14 0.88-0.484 0.913-0.659 0.066-0.885-1.115-1.002-1.508-0.157 0.429-0.332 1.613-0.991 1.547-0.625-0.033-0.745-0.68-0.641-0.913l1.509-2.019c0.138-0.3 0.112-1.217-0.418-1.528-0.364-0.214-0.97-0.199-1.248 0.133-0.156 0.133-0.243 0.399-0.23 0.623s0.299 1.104-0.083 1.536c0.383-0.166 0.417-0.1 0.764 0.199-0.486-0.763-0.451-0.797-0.382-1.245 0.347 0.149 0.868 0.083 0.868-0.116 0-0.2-0.14-0.532-0.348-0.399-0.207 0.133 0.139 0.299-0.103 0.299-0.244 0-0.417-0.067-0.417-0.299s0.243-0.498 0.59-0.498 0.763 0.232 0.693 1.063c-0.069 0.83-1.607 1.736-1.607 2.3 0 0.565 0.107 1.257 1.113 1.257 0.659 0.066 0.737-0.447 0.976-0.752z" transform="matrix(1 0 0 -1 -.000028610 539.63)"/>
  </g>
  <g id="g9043" fill="#ffe400" transform="matrix(1.0673 0 0 1.0673 -194.73 8.2851)">
   <rect id="rect773" rx="85.12" ry="80.648" height="161.3" width="170.24" y="104.45" x="425.9" stroke-width="1pt"/>
   <path id="path778" d="m506.94 56.355c-0.70816-0.0066-4.5339 26.842-6.0133 32.876-1.325 13.43 18.07 12.94 14.897-0.53156l-8.88-32.344z" stroke-width=".25"/>
   <path id="path779" d="m513.77 316.21c0.70597 0.0532 6.4902-26.479 8.4083-32.401 2.3061-13.31-17.078-14.098-14.9-0.44983l6.4913 32.85z" stroke-width=".25"/>
   <path id="path780" d="m378.17 184.61c-0.0596 0.66861 27.915 6.2768 34.156 8.1226 14.037 2.249 14.962-16.113 0.54655-14.115l-34.703 5.992z" stroke-width=".25"/>
   <path id="path781" d="m649.89 187.8c0.0299-0.67033-28.166-5.2743-34.483-6.8957-14.123-1.7455-14.234 16.638 0.0789 14.125l34.404-7.2295z" stroke-width=".25"/>
   <path id="path782" d="m406.79 99.641c-0.482 0.49161 17.893 21.249 21.605 26.348 9.5875 9.9707 22.265-3.9453 9.6155-10.793l-31.22-15.559z" stroke-width=".25"/>
   <path id="path783" d="m617.95 270.64c0.43514-0.52939-19.772-19.698-23.937-24.472-10.465-9.1446-21.819 5.7614-8.5904 11.543l32.528 12.929z" stroke-width=".25"/>
   <path id="path784" d="m448.97 70.619c-0.64369 0.27981 7.9658 26.114 9.3401 32.171 4.8391 12.685 22.167 4.4144 13.239-6.4931l-22.58-25.678z" stroke-width=".25"/>
   <path id="path785" d="m571.98 302.96c0.66263-0.23678-6.0325-26.575-6.9597-32.708-3.8977-12.973-21.79-5.8622-13.682 5.6064l20.642 27.101z" stroke-width=".25"/>
   <path id="path786" d="m602.16 88.602c-0.51107-0.4645-22.711 16.61-28.152 20.045-10.676 8.9228 3.8066 21.156 11.236 9.2822l16.916-29.327z" stroke-width=".25"/>
   <path id="path787" d="m419.24 282.33c0.4758 0.49701 23.874-15.076 29.553-18.145 11.304-8.1989-2.2469-21.355-10.528-9.999l-19.025 28.144z" stroke-width=".25"/>
   <path id="path788" d="m384.15 138.16c-0.29083 0.6118 24.124 14.715 29.362 18.422 12.449 6.5435 19.765-10.482 5.4692-13.139l-34.831-5.2826z" stroke-width=".25"/>
   <path id="path789" d="m638.07 236.6c0.33497-0.59119-22.987-16.266-27.941-20.309-11.939-7.3468-20.486 9.1564-6.419 12.748l34.36 7.5615z" stroke-width=".25"/>
   <path id="path790" d="m557.37 63.719c-0.65664-0.25132-14.571 23.416-18.275 28.521-6.4123 12.042 11.831 18.301 14.072 4.6621l4.2038-33.183z" stroke-width=".25"/>
   <path id="path791" d="m463.52 307.97c0.63664 0.29392 16.252-22.401 20.322-27.25 7.2794-11.591-10.461-19.035-13.696-5.5767l-6.6257 32.826z" stroke-width=".25"/>
   <path id="path792" d="m386.04 238.68c0.25665 0.62539 27.986-5.9856 34.449-6.9264 13.652-3.8247 5.9653-20.703-6.0561-12.906l-28.392 19.832z" stroke-width=".25"/>
   <path id="path793" d="m638.13 136.11c-0.21019-0.64076-28.357 4.1299-34.873 4.6432-13.899 2.9172-7.4683 20.261 5.0956 13.273l29.777-17.916z" stroke-width=".25"/>
   <path id="path794" d="m534.62 58.119c-0.69228-0.14145-10.14 25.429-12.87 31.058-4.149 12.903 14.954 16.119 14.705 2.3183l-1.8352-33.376z" stroke-width=".25"/>
   <path id="path795" d="m486.15 313.97c0.68024 0.18666 11.979-24.7 15.115-30.136 5.0846-12.599-13.736-17.064-14.5-3.2802l-0.61542 33.416z" stroke-width=".25"/>
   <path id="path796" d="m476.38 60.639c-0.69178 0.14362 1.9179 27.122 1.9005 33.317 1.8791 13.37 20.667 8.7826 14.394-3.6751l-16.29-29.642z" stroke-width=".25"/>
   <path id="path797" d="m544.39 312.46c0.70064-0.0978 0.0746-27.183 0.54592-33.362-0.89466-13.462-19.974-10.121-14.628 2.7193l14.082 30.642z" stroke-width=".25"/>
   <path id="path798" d="m428.16 83.092c-0.58051 0.38433 12.765 24.345 15.26 30.07 7.1545 11.661 22.642 0.58881 11.8-8.6308l-27.06-21.44z" stroke-width=".25"/>
   <path id="path799" d="m593.02 290.86c0.60728-0.34521-10.95-25.126-13.019-31.002-6.2826-12.104-22.545-2.0771-12.404 7.8336l25.423 23.168z" stroke-width=".25"/>
   <path id="path800" d="m393 116.64c-0.3965 0.55598 21.128 18.39 25.624 22.888 11.091 8.4556 21.36-7.1417 7.7498-12.065l-33.374-10.823z" stroke-width=".25"/>
   <path id="path801" d="m627.19 256.26c0.43629-0.52854-19.729-19.736-23.885-24.519-10.445-9.1649-21.832 5.7191-8.6154 11.526l32.5 12.992z" stroke-width=".25"/>
   <path id="path802" d="m377.57 158.53c-0.18146 0.64859 26.336 10.784 32.143 13.63 13.409 4.5292 17.693-13.4 3.1307-13.809l-35.274 0.17858z" stroke-width=".25"/>
   <path id="path803" d="m645.04 216.35c0.22855-0.63509-25.482-12.49-31.067-15.712-13.045-5.4005-18.632 12.204-4.1352 13.57l35.202 2.1426z" stroke-width=".25"/>
   <path id="path804" d="m376.7 209.96c0.0982 0.66451 28.689 0.26212 35.207 0.75221 14.214-0.75282 10.823-18.853-2.7669-13.879l-32.44 13.126z" stroke-width=".25"/>
   <path id="path805" d="m646.91 164.97c-0.0493-0.66936-28.601-2.149-35.067-3.0668-14.235-0.18418-12.178 18.095 1.7431 14.027l33.324-10.96z" stroke-width=".25"/>
   <path id="path806" d="m401.18 263.43c0.39482 0.55705 25.926-11.641 32.015-13.899 12.438-6.5616 1.0407-21.438-8.8892-11.338l-23.126 25.237z" stroke-width=".25"/>
   <path id="path807" d="m623.48 111.1c-0.35304-0.58167-26.717 9.9073-32.956 11.759-12.889 5.7274-2.6094 21.318 8.0368 11.896l24.92-23.654z" stroke-width=".25"/>
   <path id="path808" d="m442.83 298.77c0.59659 0.36157 18.872-20.474 23.505-24.846 8.6426-10.718-8.0724-20.052-12.925-7.0369l-10.58 31.883z" stroke-width=".25"/>
   <path id="path809" d="m582.54 75.063c-0.56865-0.39994-20.327 19.183-25.269 23.239-9.4073 10.124 6.5833 20.535 12.378 7.8703l12.891-31.11z" stroke-width=".25"/>
   <g id="g852" transform="matrix(2.1824 0 0 2.0629 -405.01 -272.56)">
    <path id="path844" d="m349.53 159.5c0.625 2.5 0.781 16.562 14.844 30 14.062 13.437 37.969 16.406 37.969 16.406s0.156 1.875-1.563 2.031c-1.719 0.157-9.844-1.562-13.906-2.812-4.063-1.25-7.656-3.438-8.125-3.281-0.469 0.156-1.25 1.562-2.5 1.406s-7.031-6.25-9.531-7.813c-2.5-1.562-10.938-10.781-13.75-15.312-2.813-4.531-3.438-7.5-4.375-7.5-0.938 0-4.219 2.187-4.219 2.187s-2.969-4.531-5.625-11.719c-2.656-7.187-2.344-11.406-1.719-11.718 0.625-0.313 0.625 5.312 2.656 10.468 2.032 5.157 4.844 6.719 4.844 6.719s-1.875-2.656-3.281-9.375-1.875-13.125-0.938-15.156c0.938-2.031 1.875-2.656 2.032-2.5 0.156 0.156-1.719 3.125-0.469 10.781s4.844 14.219 5.625 13.906c0.781-0.312-0.469-1.875-1.094-6.406s0.625-7.344 1.719-7.656c0.469-0.469 1.25 5 1.406 7.344z" transform="translate(10.607 88.389)"/>
    <path id="path845" d="m339.06 174.81c-2.656-2.5-6.875-11.25-7.812-10.781-0.938 0.469 6.875 12.969 7.031 14.063 0.156 1.093 1.875 4.531 0.625 4.062s-10.625-10.312-9.531-8.437 8.125 10.468 7.656 10.937-5.781-4.688-5.937-4.062c-0.157 0.625 5.312 5.781 5.156 6.406s-3.438-3.281-3.438-2.5 3.438 4.687 3.438 5.312-2.969-2.812-2.031-0.937c0.937 1.875 3.593 3.594 3.437 4.219s-2.187-0.782-2.187-0.469c0 0.312 3.906 1.719 4.843 2.812 0.938 1.094 7.344 8.438 12.188 12.188s18.594 10.156 19.531 10.156c0.938 0 2.344-2.031 2.031-2.812-0.312-0.782-13.75-5.313-17.5-8.75-3.75-3.438-12.968-11.563-13.75-12.032-0.781-0.468-2.812-0.312-2.812-0.781s2.656 0.313 2.5 0c-0.156-0.312-3.75-1.875-3.594-2.187 0.156-0.313 2.5 0.625 2.5 0.312 0-0.312-4.219-2.656-4.062-3.125 0.156-0.469 3.125 1.406 3.125 1.094 0-0.313-4.063-3.125-3.907-3.594 0.157-0.469 3.125 2.188 2.969 1.563s-2.344-3.907-2.344-4.375c0-0.469 3.594 3.437 3.907 2.656 0.312-0.781-1.25-7.188-1.094-7.344s2.645 1.422 3.114 0.484c0.468-0.937-1.837-2.241-4.052-4.078z" transform="translate(11.232 85.889)"/>
    <path id="path846" d="m385.18 222.67c-2.478 0.327-3.595-0.519-2.188-2.55 1.948-0.146 7.132-1.817 8.964-2.584s3.788-1.866 5.416-3.339c1.622-1.609 2.49 1.031 1.678 2.397-0.674 0.962-3.715 2.694-5.95 3.61-3.244 1.087-6.033 2.593-7.92 2.466z" transform="matrix(.76398 0 0 .75875 102.13 140.95)"/>
    <path id="path847" d="m398.28 216.38c-1.25-1.407-0.156-2.344 1.719-3.438 2.812-1.562 2.032-3.593 5.625-5.312 1.563-0.938 23.906-10 31.25-14.844s27.813-20.313 33.281-30.938c5.469-10.625 2.813-11.406 3.594-11.875 0.781-0.468 1.563 1.563 1.406 3.907-0.156 2.343-1.875 9.375-1.406 10s8.281-5.469 11.406-12.969 5.625-15.313 7.188-15.313c1.562 0-2.656 12.813-5.313 17.813-2.656 5-5.781 7.5-5 8.594 0.782 1.093 8.594-5.469 11.25-10.313 2.657-4.844 5.157-9.219 5.625-8.281 0.469 0.937-2.5 11.25-6.718 16.094-4.219 4.843-9.219 8.281-8.438 9.062 0.781 0.782 6.406 1.563 12.344-2.5 5.937-4.062 6.562-10 7.344-9.687 0.781 0.312-0.782 8.437-6.407 13.437s-13.281 5.469-12.968 6.563c0.312 1.094 16.25-4.531 15.937-3.281-0.312 1.25-20.625 9.218-20.782 10 0.001 0.625 3.439 0.781 8.907-0.469 5.469-1.25 10.626-5.468 11.407-4.531 0.155 1.406-3.907 4.844-10.157 6.406-6.25 1.563-9.375 3.75-9.531 4.219-0.156 0.468 11.094-1.407 11.094-0.782s-14.688 3.438-14.844 4.22c-0.156 0.781 14.062-2.813 13.75-2.032-0.313 0.781-19.219 6.406-19.063 6.719 0.157 0.312 15.782-3.438 15.469-2.813-0.312 0.625-26.406 7.969-26.562 8.438-0.157 0.468 22.968-5.157 22.812-4.688s-12.031 3.437-12.031 3.75c0 0.312 9.531-1.562 9.375-1.094-0.156 0.469-24.063 6.563-24.532 7.5-0.468 0.938 12.344-2.5 12.188-0.781s-27.656 11.094-27.813 9.375c-0.156-1.719 16.719-6.094 16.563-6.562-0.156-0.469-9.687 1.093-9.844 0.156-0.156-0.938 6.25-2.969 5.782-3.438-0.469-0.468-5.313 1.406-4.844 0.313 0.469-1.094 9.531-5.313 9.375-5.625-0.156-0.313-3.281 1.093-2.969 0 0.313-1.094 19.687-6.719 19.375-7.344-0.313-0.625-8.906 1.406-9.687 1.562-0.313-0.624 12.031-5.156 11.718-5.937-0.312-0.781-6.562 2.656-6.874 1.719-0.313-0.938 10.781-5.313 10.156-5.938s-5.781 1.719-6.406 1.094 10.468-8.437 8.749-8.594c-1.718-0.156-3.75 2.345-4.062 0.782 0.313-2.032 8.75-5.313 6.875-6.875-2.969-0.938-13.125 0.625-17.344 3.125s-18.125 16.406-21.563 18.593c-3.437 2.188-15 7.032-17.187 7.969-3.438 1.25-4.063 3.125-7.5 4.844-6.251 1.719-6.25 3.594-9.219 4.687-1.093 0.313-12.343 5.781-12.5 5.313z" transform="translate(10.607 88.389)"/>
    <path id="path848" d="m380 224.19c-1.875 0.938-3.593 3.438-2.501 4.375 0.626 1.25 2.501-2.656 4.063-2.5 1.563 0.156 3.75 0.157 7.969 0.47 4.219 0.312 6.406-0.938 8.75-0.782s7.657-1.25 10.157-1.25 2.968 0.312 3.281-0.782c0.312-1.093-7.813-0.312-11.407-0.468-3.593-0.156-8.125 0.781-10.781 0.781-2.5-0.156-6.875-0.938-9.531 0.156z" transform="translate(13.107 87.607)"/>
    <rect id="rect849" rx="1.7188" ry="1.4844" height="2.9688" width="3.4375" y="309.14" x="401.7" stroke-width="1pt"/>
    <path id="path850" d="m432.17 225.28c1.566-0.313 5.749 1.25 8.639 2.031 5.313 2.188 15.134 1.094 15.134 2.188s-0.611 2.5-2.955 2.656-7.983-0.937-7.827-0.937 4.532 2.187 3.282 2.812-5.001-1.25-5.626-0.781 3.438 1.406 2.813 1.719c-0.625 0.312-3.447-0.469-4.385-0.312-0.937 0.155 0.791 1.249-0.303 1.718-1.093 0.469-2.932-0.624-3.713-0.313-0.781 0.314 1.682 2.032 0.588 2.188-1.093 0.156-3.727-0.781-5.134-0.937-1.406-0.156 1.384 1.562 0.447 1.718-0.938 0.156-3.488-1.249-4.113-1.249s0.05 1.874-0.887 1.874c-0.938 0-2.041-1.562-2.51-1.562s0.01 1.875-0.928 1.875c-0.937 0-1.273-2.031-2.054-1.875-0.924 0.157 0.023 2.656-1.227 2.5-1.25-0.157-1.416-2.656-2.353-2.5-0.938 0.156 0.166 2.5-0.772 2.5-0.937 0-1.089-2.344-2.027-2.5-0.937-0.156-0.473 2.187-1.098 2.187s-1.089-2.187-1.402-2.187c-0.312 0-0.004 2.187-1.098 2.031s-1.089-2.5-1.402-2.344c-0.312 0.157-0.317 1.719-1.098 1.719s-0.777-1.562-1.089-1.406c-0.313 0.156-1.411 2.187-2.192 1.875-0.781-0.313 0.188-1.875-0.124-1.875-0.313 0-1.282 1.093-1.907 0.937s0.032-1.406-0.125-1.406c-0.156 0-1.594 0.781-2.219 0.781s-2.344 1.094-2.813 0.156c-0.468-0.937 1.223-0.937 1.535-1.875 0.313-0.937-0.91-3.593 0.34-4.531 1.25-0.937 5.157 1.25 10.938-0.312 10.624-3.125 18.824-6.718 19.665-6.563z" transform="matrix(1.0971 0 0 1 -29.114 82.451)"/>
   </g>
  </g>
 </g>
</svg>
