<?xml version="1.0" encoding="UTF-8" standalone="no"?>
<!-- Created with Sodipodi ("http://www.sodipodi.com/") -->
<svg id="svg1641" xmlns:rdf="http://www.w3.org/1999/02/22-rdf-syntax-ns#" xmlns="http://www.w3.org/2000/svg" height="480" width="640" version="1.1" xmlns:cc="http://creativecommons.org/ns#" xmlns:xlink="http://www.w3.org/1999/xlink" xmlns:dc="http://purl.org/dc/elements/1.1/">
 <metadata id="metadata3289">
  <rdf:RDF>
   <cc:Work rdf:about="">
    <dc:format>image/svg+xml</dc:format>
    <dc:type rdf:resource="http://purl.org/dc/dcmitype/StillImage"/>
   </cc:Work>
  </rdf:RDF>
 </metadata>
 <defs id="defs1643">
  <clipPath id="clipPath4748" clipPathUnits="userSpaceOnUse">
   <rect id="rect4750" fill-opacity="0.67" height="480" width="640" y="0" x="0"/>
  </clipPath>
 </defs>
 <g id="flag" clip-path="url(#clipPath4748)">
  <g id="g4244">
   <g id="g4230">
    <g id="g4217">
     <g id="g4205">
      <g id="g4194">
       <g id="g4184">
        <g id="g4175">
         <g id="g4167">
          <g id="g4160">
           <g id="g4154">
            <g id="g4149">
             <g id="g1277" fill-rule="evenodd" stroke-width="1pt" transform="matrix(.96831 0 0 .96831 0 -.34305)">
              <rect id="rect1644" height="248.03" width="744.09" y="248.03" x="0" fill="#e4104d"/>
              <rect id="rect1645" height="247.68" width="744.09" y=".35428" x="0" fill="#8a85ff"/>
             </g>
            </g>
           </g>
          </g>
         </g>
        </g>
       </g>
      </g>
     </g>
    </g>
   </g>
  </g>
  <g id="g2039" fill-rule="evenodd" transform="matrix(1.6953 0 0 1.6953 -124.21 288.5)">
   <g id="g1683" transform="matrix(.33390 0 0 .35510 103.07 -209.73)">
    <path id="path1677" d="m175.25 443.36 145.49-0.447s53.728-52.248 25.283-86.48c-28.444-34.232-139.96-1.082-140.41-1.082-0.451 0-0.903-18.376-28.444-18.737-27.541 0.361-27.992 18.737-28.443 18.737-0.452 0-111.97-33.15-140.41 1.082-28.444 34.232 25.284 86.48 25.284 86.48l141.66 0.447z" transform="matrix(1 0 0 1.1618 -.000041749 -125.32)" fill="#f3ef7d"/>
    <path id="path1682" d="m175.25 443.36 145.49-0.447s53.728-52.248 25.283-86.48c-28.444-34.232-139.96-1.082-140.41-1.082-0.451 0-0.903-18.376-28.444-18.737-27.541 0.361-27.992 18.737-28.443 18.737-0.452 0-111.97-33.15-140.41 1.082-28.444 34.232 25.284 86.48 25.284 86.48l141.66 0.447z" transform="matrix(0.96 0 0 1.1286 7.0866 -110.61)"/>
   </g>
   <g id="g2020" stroke-width="1pt" fill="#f3ef7d" transform="matrix(-1 0 0 1 455.54 -20.882)">
    <rect id="rect2021" height="6.6302" width=".55263" y="-79.738" x="239.71"/>
    <rect id="rect2022" height="13.634" width=".55263" y="-83.336" x="241.72"/>
    <rect id="rect2023" height="17.935" width=".64857" y="-85.201" x="243.64"/>
    <rect id="rect2024" height="21.451" width=".70277" y="-86.512" x="246.1"/>
    <rect id="rect2025" height="24.041" width=".70277" y="-87.28" x="248.89"/>
    <rect id="rect2026" height="26.196" width=".69654" y="-88.211" x="251.74"/>
    <rect id="rect2027" height="27.301" width=".70278" y="-88.414" x="254.16"/>
    <rect id="rect2028" height="28.069" width=".70278" y="-88.414" x="256.59"/>
    <rect id="rect2029" height="29.277" width=".64856" y="-88.354" x="259.63"/>
    <rect id="rect2030" height="29.293" width=".79872" y="-88.072" x="262.48"/>
    <rect id="rect2031" height="28.861" width=".79872" y="-87.353" x="265.6"/>
    <rect id="rect2032" height="27.946" width=".75074" y="-86.233" x="268.65"/>
    <rect id="rect2033" height="26.46" width=".70277" y="-84.952" x="271.84"/>
    <rect id="rect2034" height="24.686" width=".70277" y="-84.089" x="274.48"/>
    <rect id="rect2035" height="22.263" width=".60058" y="-82.42" x="277.29"/>
    <rect id="rect2036" height="19.025" width=".50465" y="-80.26" x="279.75"/>
    <rect id="rect2037" height="15.475" width=".60059" y="-78.149" x="281.96"/>
    <rect id="rect2038" height="9.8789" width=".54017" y="-74.915" x="284.12"/>
   </g>
   <g id="g2001" stroke-width="1pt" fill="#f3ef7d" transform="translate(-131.37 -21.545)">
    <rect id="rect1388" height="6.6302" width=".55263" y="-79.738" x="239.71"/>
    <rect id="rect1464" height="13.634" width=".55263" y="-83.336" x="241.72"/>
    <rect id="rect1452" height="17.935" width=".64857" y="-85.201" x="243.64"/>
    <rect id="rect1390" height="21.451" width=".70277" y="-86.512" x="246.1"/>
    <rect id="rect1466" height="24.041" width=".70277" y="-87.28" x="248.89"/>
    <rect id="rect1454" height="26.196" width=".69654" y="-88.211" x="251.74"/>
    <rect id="rect1392" height="27.301" width=".70278" y="-88.414" x="254.16"/>
    <rect id="rect1468" height="28.069" width=".70278" y="-88.414" x="256.59"/>
    <rect id="rect1456" height="29.277" width=".64856" y="-88.354" x="259.63"/>
    <rect id="rect1394" height="29.293" width=".79872" y="-88.072" x="262.48"/>
    <rect id="rect1470" height="28.861" width=".79872" y="-87.353" x="265.6"/>
    <rect id="rect1458" height="27.946" width=".75074" y="-86.233" x="268.65"/>
    <rect id="rect1396" height="26.46" width=".70277" y="-84.952" x="271.84"/>
    <rect id="rect1472" height="24.686" width=".70277" y="-84.089" x="274.48"/>
    <rect id="rect1460" height="22.263" width=".60058" y="-82.42" x="277.29"/>
    <rect id="rect1398" height="19.025" width=".50465" y="-80.26" x="279.75"/>
    <rect id="rect1474" height="15.475" width=".60059" y="-78.149" x="281.96"/>
    <rect id="rect1462" height="9.8789" width=".54017" y="-74.915" x="284.12"/>
   </g>
   <path id="path1651" d="m205.64 168.03-0.833-12.489c0-2.498-18.317-16.652-18.316-52.452 0-35.8 15.818-49.954 24.144-49.954s26.642 11.656 27.475 49.121c0.832 37.466-18.317 51.62-18.317 51.62l-1.665 14.986s13.321 0.832 14.154 0.832c0.832 0 18.316-14.986 63.275-13.321s47.456 19.982 48.289 25.81c0.832 5.828-6.661 23.311-51.619 23.311-44.959 0-58.28-20.813-59.113-20.813-0.832 0-14.153-0.833-14.153-0.833v10.823s17.483 13.321 16.651 57.447c-0.833 44.126-18.317 46.624-23.312 46.624-6.66 0-20.814-2.497-21.647-45.791 1.666-44.126 13.322-56.615 13.322-57.447v-10.823h-12.489s-13.321 10.823-59.112 11.656c-45.791 0.832-48.289-12.489-49.122-19.982-0.8326-7.493 8.3257-20.814 48.288-21.647 39.963-0.832 59.112 13.321 59.112 13.321l14.987 0.001z" transform="matrix(.076916 0 0 0.0803 145.58 -144.87)" stroke-width="1pt" fill="#f3ef7d"/>
   <g id="g1715" transform="matrix(.33390 0 0 .35510 86.116 -150.31)" stroke-width="1pt" fill="#f3ef7d">
    <rect id="rect1696" rx="5.828" ry="5.828" height="11.656" width="11.656" y="105.59" x="188.99"/>
    <rect id="rect1697" rx="5.828" ry="5.828" height="11.656" width="11.656" y="103.23" x="177.22"/>
    <rect id="rect1698" rx="5.828" ry="5.828" height="11.656" width="11.656" y="99.703" x="164.86"/>
    <rect id="rect1699" rx="5.828" ry="5.828" height="11.656" width="11.656" y="96.759" x="152.49"/>
    <rect id="rect1700" rx="5.828" ry="5.828" height="11.656" width="11.656" y="94.404" x="139.54"/>
    <rect id="rect1701" rx="5.828" ry="5.828" height="11.656" width="11.656" y="92.638" x="126.59"/>
    <rect id="rect1702" rx="5.828" ry="5.828" height="11.656" width="11.656" y="91.461" x="114.23"/>
    <rect id="rect1703" rx="5.828" ry="5.828" height="11.656" width="11.656" y="90.872" x="101.27"/>
    <rect id="rect1704" rx="5.828" ry="5.828" height="11.656" width="11.656" y="92.638" x="88.911"/>
    <rect id="rect1705" rx="5.828" ry="5.828" height="11.656" width="11.656" y="94.404" x="75.96"/>
    <rect id="rect1706" rx="5.828" ry="5.828" height="11.656" width="11.656" y="98.525" x="64.185"/>
    <rect id="rect1707" rx="5.828" ry="5.828" height="11.656" width="11.656" y="106.18" x="53"/>
    <rect id="rect1708" rx="5.828" ry="5.828" height="11.656" width="11.656" y="116.78" x="45.346"/>
    <rect id="rect1709" rx="5.828" ry="5.828" height="11.656" width="11.656" y="127.96" x="40.637"/>
    <rect id="rect1710" rx="5.828" ry="5.828" height="11.656" width="11.656" y="140.32" x="38.871"/>
    <rect id="rect1711" rx="5.828" ry="5.828" height="11.656" width="11.656" y="153.28" x="39.459"/>
    <rect id="rect1712" rx="5.828" ry="5.828" height="11.656" width="11.656" y="165.64" x="42.403"/>
    <rect id="rect1713" rx="5.828" ry="5.828" height="11.656" width="11.656" y="178" x="47.113"/>
    <rect id="rect1714" rx="5.828" ry="5.828" height="11.656" width="11.656" y="188.6" x="52.411"/>
   </g>
   <g id="g1735" transform="matrix(-.33390 0 0 .35510 238.43 -150.31)" stroke-width="1pt" fill="#f3ef7d">
    <rect id="rect1736" rx="5.828" ry="5.828" height="11.656" width="11.656" y="105.59" x="188.99"/>
    <rect id="rect1737" rx="5.828" ry="5.828" height="11.656" width="11.656" y="103.23" x="177.22"/>
    <rect id="rect1738" rx="5.828" ry="5.828" height="11.656" width="11.656" y="99.703" x="164.86"/>
    <rect id="rect1739" rx="5.828" ry="5.828" height="11.656" width="11.656" y="96.759" x="152.49"/>
    <rect id="rect1740" rx="5.828" ry="5.828" height="11.656" width="11.656" y="94.404" x="139.54"/>
    <rect id="rect1741" rx="5.828" ry="5.828" height="11.656" width="11.656" y="92.638" x="126.59"/>
    <rect id="rect1742" rx="5.828" ry="5.828" height="11.656" width="11.656" y="91.461" x="114.23"/>
    <rect id="rect1743" rx="5.828" ry="5.828" height="11.656" width="11.656" y="90.872" x="101.27"/>
    <rect id="rect1744" rx="5.828" ry="5.828" height="11.656" width="11.656" y="92.638" x="88.911"/>
    <rect id="rect1745" rx="5.828" ry="5.828" height="11.656" width="11.656" y="94.404" x="75.96"/>
    <rect id="rect1746" rx="5.828" ry="5.828" height="11.656" width="11.656" y="98.525" x="64.185"/>
    <rect id="rect1747" rx="5.828" ry="5.828" height="11.656" width="11.656" y="106.18" x="53"/>
    <rect id="rect1748" rx="5.828" ry="5.828" height="11.656" width="11.656" y="116.78" x="45.346"/>
    <rect id="rect1749" rx="5.828" ry="5.828" height="11.656" width="11.656" y="127.96" x="40.637"/>
    <rect id="rect1750" rx="5.828" ry="5.828" height="11.656" width="11.656" y="140.32" x="38.871"/>
    <rect id="rect1751" rx="5.828" ry="5.828" height="11.656" width="11.656" y="153.28" x="39.459"/>
    <rect id="rect1752" rx="5.828" ry="5.828" height="11.656" width="11.656" y="165.64" x="42.403"/>
    <rect id="rect1753" rx="5.828" ry="5.828" height="11.656" width="11.656" y="178" x="47.113"/>
    <rect id="rect1754" rx="5.828" ry="5.828" height="11.656" width="11.656" y="188.6" x="52.411"/>
   </g>
   <g id="g1945" stroke-width="1pt">
    <path id="path1694" d="m318.9 338.4-24.17 56.927s-39.963-13.321-114.89-13.321c-74.931 0-109.07 11.655-109.07 11.655l-35.153-55.94c31.27-4.635 40.802 16.61 40.802 16.61s2.1286-24.81 26.689-29.213c20.747-2.866 39.079 18.591 39.079 18.591s4.321-24.147 34.979-24.81c30.659 0.663 34.98 24.81 34.98 24.81s18.332-21.456 39.079-18.59c24.56 4.402 26.688 29.213 26.688 29.213s9.532-21.246 40.986-15.935z" transform="matrix(.45941 0 0 .57623 80.534 -274.38)" fill="#f3ef7d"/>
    <rect id="rect1695" transform="translate(13.258 -218.32)" rx="51.429" ry="8.1303" height="16.261" width="102.86" y="162.27" x="100.1"/>
    <g id="g1808" transform="matrix(.33390 0 0 .35510 86.116 -150.31)">
     <rect id="rect1800" rx="3.4339" ry="4.6505" height="9.3011" width="6.8678" y="175.06" x="228.46"/>
     <rect id="rect1801" rx="3.4339" ry="4.6505" height="9.3011" width="6.8678" y="177.41" x="237.82"/>
     <rect id="rect1802" rx="3.4339" ry="4.6505" height="9.3011" width="6.8678" y="175.06" x="219.87"/>
     <rect id="rect1803" rx="3.4339" ry="4.6505" height="9.3011" width="6.8678" y="182.12" x="203.48"/>
     <rect id="rect1804" rx="3.4339" ry="4.6505" height="9.3011" width="6.8678" y="177.41" x="211.28"/>
     <rect id="rect1805" rx="3.4339" ry="4.6505" height="9.3011" width="6.8678" y="189.19" x="197.23"/>
     <rect id="rect1806" rx="3.4339" ry="4.6505" height="9.3011" width="6.8678" y="182.71" x="245.63"/>
     <rect id="rect1807" rx="3.4339" ry="4.6505" height="9.3011" width="6.8678" y="189.19" x="252.65"/>
    </g>
    <g id="g1818" transform="matrix(.32984 .055208 -.051912 .35078 129.39 -157.7)">
     <rect id="rect1819" rx="3.4339" ry="4.6505" height="9.3011" width="6.8678" y="175.06" x="228.46"/>
     <rect id="rect1820" rx="3.4339" ry="4.6505" height="9.3011" width="6.8678" y="177.41" x="237.82"/>
     <rect id="rect1821" rx="3.4339" ry="4.6505" height="9.3011" width="6.8678" y="175.06" x="219.87"/>
     <rect id="rect1822" rx="3.4339" ry="4.6505" height="9.3011" width="6.8678" y="182.12" x="203.48"/>
     <rect id="rect1823" rx="3.4339" ry="4.6505" height="9.3011" width="6.8678" y="177.41" x="211.28"/>
     <rect id="rect1824" rx="3.4339" ry="4.6505" height="9.3011" width="6.8678" y="189.19" x="197.23"/>
     <rect id="rect1825" rx="3.4339" ry="4.6505" height="9.3011" width="6.8678" y="182.71" x="245.63"/>
     <rect id="rect1826" rx="3.4339" ry="4.6505" height="9.3011" width="6.8678" y="189.19" x="252.65"/>
    </g>
    <g id="g1827" transform="matrix(.32842 -.064062 .060237 .34928 42.896 -131.04)">
     <rect id="rect1828" rx="3.4339" ry="4.6505" height="9.3011" width="6.8678" y="175.06" x="228.46"/>
     <rect id="rect1829" rx="3.4339" ry="4.6505" height="9.3011" width="6.8678" y="177.41" x="237.82"/>
     <rect id="rect1830" rx="3.4339" ry="4.6505" height="9.3011" width="6.8678" y="175.06" x="219.87"/>
     <rect id="rect1831" rx="3.4339" ry="4.6505" height="9.3011" width="6.8678" y="182.12" x="203.48"/>
     <rect id="rect1832" rx="3.4339" ry="4.6505" height="9.3011" width="6.8678" y="177.41" x="211.28"/>
     <rect id="rect1833" rx="3.4339" ry="4.6505" height="9.3011" width="6.8678" y="189.19" x="197.23"/>
     <rect id="rect1834" rx="3.4339" ry="4.6505" height="9.3011" width="6.8678" y="182.71" x="245.63"/>
     <rect id="rect1835" rx="3.4339" ry="4.6505" height="9.3011" width="6.8678" y="189.19" x="252.65"/>
    </g>
    <rect id="rect1837" transform="matrix(.97649 -.21555 .19155 .98148 13.258 -218.32)" rx="1.1497" ry="1.6475" height="3.2949" width="2.2994" y="155.25" x="57.043"/>
    <rect id="rect1838" transform="matrix(.97649 -.21555 .19155 .98148 13.258 -218.32)" rx="1.1497" ry="1.6475" height="3.2949" width="2.2994" y="156.09" x="60.179"/>
    <rect id="rect1843" transform="matrix(.97649 -.21555 .19155 .98148 13.258 -218.32)" rx="1.1497" ry="1.6475" height="3.2949" width="2.2994" y="157.96" x="62.792"/>
    <rect id="rect1844" transform="matrix(.97649 -.21555 .19155 .98148 13.258 -218.32)" rx="1.1497" ry="1.6475" height="3.2949" width="2.2994" y="160.26" x="65.144"/>
    <g id="g1853" transform="matrix(.27699 .19830 -.18646 .29458 148.87 -220.32)">
     <rect id="rect1839" transform="rotate(-11.726)" rx="3.4339" ry="4.6505" height="9.3011" width="6.8678" y="285.4" x="359.08"/>
     <rect id="rect1840" transform="rotate(-11.726)" rx="3.4339" ry="4.6505" height="9.3011" width="6.8678" y="292.46" x="342.69"/>
     <rect id="rect1841" transform="rotate(-11.726)" rx="3.4339" ry="4.6505" height="9.3011" width="6.8678" y="287.75" x="350.49"/>
     <rect id="rect1842" transform="rotate(-11.726)" rx="3.4339" ry="4.6505" height="9.3011" width="6.8678" y="299.53" x="336.44"/>
    </g>
    <path id="path1858" d="m299.66 8.6089c32.967 24.137 33.556 69.468 33.556 69.468s-5.299-47.686 30.025-67.113c-18.25 5.2986-17.662 4.1211-27.67 3.5325l-2.355-15.307s-1.766 7.6533-5.298 14.718c-7.654 2.3548-9.42 2.3548-28.258-5.2984z" transform="matrix(.24424 0 0 0.265 80.941 -78.676)"/>
    <path id="path1859" d="m299.66 8.6089c32.967 24.137 33.556 69.468 33.556 69.468s-5.299-47.686 30.025-67.113c-18.25 5.2986-17.662 4.1211-27.67 3.5325l-2.355-15.307s-1.766 7.6533-5.298 14.718c-7.654 2.3548-9.42 2.3548-28.258-5.2984z" transform="matrix(.23738 -.061133 .058645 .25756 50.678 -55.618)"/>
    <path id="path1860" d="m299.66 8.6089c32.967 24.137 33.556 69.468 33.556 69.468s-5.299-47.686 30.025-67.113c-18.25 5.2986-17.662 4.1211-27.67 3.5325l-2.355-15.307s-1.766 7.6533-5.298 14.718c-7.654 2.3548-9.42 2.3548-28.258-5.2984z" transform="matrix(.23657 .064582 -.061953 .25668 117.33 -97.042)"/>
    <path id="path1861" d="m299.66 8.6089c32.967 24.137 33.556 69.468 33.556 69.468s-5.299-47.686 30.025-67.113c-18.25 5.2986-17.662 4.1211-27.67 3.5325l-2.355-15.307s-1.766 7.6533-5.298 14.718c-7.654 2.3548-9.42 2.3548-28.258-5.2984z" transform="matrix(.15393 -.060695 .077565 .22478 58.125 -49.509)"/>
    <path id="path1862" d="m299.66 8.6089c32.967 24.137 33.556 69.468 33.556 69.468s-5.299-47.686 30.025-67.113c-18.25 5.2986-17.662 4.1211-27.67 3.5325l-2.355-15.307s-1.766 7.6533-5.298 14.718c-7.654 2.3548-9.42 2.3548-28.258-5.2984z" transform="matrix(.13481 .099650 -.12911 .19615 172.37 -101.78)"/>
   </g>
   <g id="g1989" stroke-width="1pt">
    <rect id="rect1652" transform="translate(13.258 -218.32)" rx="3.362" ry="3.5099" height="7.0197" width="6.724" y="97.304" x="145.26" fill="#f3ef7d"/>
    <rect id="rect1653" transform="translate(13.258 -218.32)" height="7.0197" width=".70441" y="97.304" x="148.4"/>
    <rect id="rect1794" transform="translate(13.258 -218.32)" rx="1.5528" ry="1.7559" height="3.5119" width="3.1056" y="119.51" x="147.36" fill="#f3ef7d"/>
    <rect id="rect1795" transform="translate(13.258 -218.32)" rx="1.4545" ry="1.6514" height="3.3028" width="2.909" y="115.96" x="147.36" fill="#f3ef7d"/>
    <rect id="rect1796" transform="translate(13.258 -218.32)" rx="1.4545" ry="1.5469" height="3.0938" width="2.909" y="112.61" x="147.36" fill="#f3ef7d"/>
    <rect id="rect1797" transform="translate(13.258 -218.32)" rx="1.258" ry="1.2333" height="2.4666" width="2.5159" y="109.9" x="147.56" fill="#f3ef7d"/>
    <rect id="rect1798" transform="translate(13.258 -218.32)" rx="1.2579" ry="1.4424" height="2.8847" width="2.5159" y="106.76" x="147.56" fill="#f3ef7d"/>
    <rect id="rect1799" transform="translate(13.258 -218.32)" rx="1.0614" ry="1.0243" height="2.0485" width="2.1228" y="104.46" x="147.76" fill="#f3ef7d"/>
    <rect id="rect1654" transform="matrix(.0055558 .99998 -.99998 .0060553 13.258 -218.32)" height="6.724" width=".73540" y="-151.55" x="101.34"/>
    <rect id="rect1756" transform="translate(13.258 -218.32)" rx="1.9459" ry="2.0695" height="4.139" width="3.8919" y="123.07" x="146.97" fill="#f3ef7d"/>
   </g>
  </g>
 </g>
</svg>
