<?xml version="1.0" encoding="UTF-8" standalone="no"?>
<svg
   xmlns:dc="http://purl.org/dc/elements/1.1/"
   xmlns:cc="http://creativecommons.org/ns#"
   xmlns:rdf="http://www.w3.org/1999/02/22-rdf-syntax-ns#"
   xmlns:svg="http://www.w3.org/2000/svg"
   xmlns="http://www.w3.org/2000/svg"
   xmlns:xlink="http://www.w3.org/1999/xlink"
   xmlns:sodipodi="http://sodipodi.sourceforge.net/DTD/sodipodi-0.dtd"
   xmlns:inkscape="http://www.inkscape.org/namespaces/inkscape"
   width="640"
   height="480"
   id="svg2"
   version="1.1"
   inkscape:version="0.91 r13725"
   sodipodi:docname="lk.svg">
  <metadata
     id="metadata62">
    <rdf:RDF>
      <cc:Work
         rdf:about="">
        <dc:format>image/svg+xml</dc:format>
        <dc:type
           rdf:resource="http://purl.org/dc/dcmitype/StillImage" />
        <dc:title></dc:title>
      </cc:Work>
    </rdf:RDF>
  </metadata>
  <defs
     id="defs60" />
  <sodipodi:namedview
     pagecolor="#ffffff"
     bordercolor="#666666"
     borderopacity="1"
     objecttolerance="10"
     gridtolerance="10"
     guidetolerance="10"
     inkscape:pageopacity="0"
     inkscape:pageshadow="2"
     inkscape:window-width="640"
     inkscape:window-height="480"
     id="namedview58"
     showgrid="false"
     inkscape:zoom="0.33705423"
     inkscape:cx="310.2334"
     inkscape:cy="358.93095"
     inkscape:window-x="674"
     inkscape:window-y="113"
     inkscape:window-maximized="0"
     inkscape:current-layer="svg2" />
  <g
     id="g3390"
     transform="matrix(0.53761314,0,0,0.80920089,0,95.779372)">
    <rect
       style="fill:#ffbe29"
       y="-120"
       x="0"
       id="rect4"
       height="600"
       width="1200" />
    <path
       style="fill:#eb7400"
       inkscape:connector-curvature="0"
       id="path6"
       d="m 50,180 165,-250 165,0 0,500 -165,0 z" />
    <rect
       style="fill:#00534e"
       id="rect8"
       y="-70"
       x="50"
       height="500"
       width="165" />
    <rect
       style="fill:#8d153a"
       id="rect10"
       y="-70"
       x="430"
       height="500"
       width="725" />
    <path
       style="fill:#ffbe29;stroke:#000000;stroke-width:2.12575722"
       inkscape:connector-curvature="0"
       d="m 1086.1,346.06 c 0,0 6.7982,13.841 14.309,19.48 11.128,8.3556 33.945,7.752 43.629,17.5 11.604,11.495 -0.9004,26.682 -0.7959,28 l 0.6363,8.0206 c 0,0 -7.8245,0.0943 -11.119,0.60793 -4.9538,0.7724 -6.886,4.8032 -16.109,4.2045 -23.189,-1.5052 -22.254,-22.397 -23.566,-40.25 -1.1646,-6.7983 -3.8594,-15.662 -5.3908,-22.458 -1.313,-5.8277 -1.5933,-15.105 -1.5933,-15.105 z"
       id="leaf" />
    <use
       height="100%"
       width="100%"
       y="0"
       x="0"
       id="use13"
       transform="matrix(-1,0,0,1,1585,0)"
       xlink:href="#leaf" />
    <use
       height="100%"
       width="100%"
       y="0"
       x="0"
       id="use15"
       transform="matrix(1,0,0,-1,0,360)"
       xlink:href="#leaf" />
    <use
       height="100%"
       width="100%"
       y="0"
       x="0"
       id="use17"
       transform="matrix(-1,0,0,-1,1585,360)"
       xlink:href="#leaf" />
    <use
       height="100%"
       width="100%"
       y="0"
       x="0"
       style="stroke:#000000;stroke-width:5.55980015"
       id="use19"
       xlink:href="#lion" />
    <g
       transform="translate(0,-120)"
       style="fill:#ffbe29"
       id="lion">
      <path
         inkscape:connector-curvature="0"
         id="path22"
         d="m 681.54,479.56 4.3593,-2.517 1.8649,2.5215 c 2.4846,3.3595 9.3595,3.3215 13.921,-0.0773 l 3.4882,-2.5985 2.9208,2.5985 c 3.8402,3.4168 11.012,3.4213 15.591,0.0122 3.206,-2.3882 3.653,-2.4362 5.7728,-0.61944 1.2637,1.0831 4.9702,2.3162 8.2366,2.7402 5.8828,0.76367 5.9719,0.72173 9.4138,-4.442 2.8826,-4.3245 3.3335,-6.0748 2.6456,-10.269 -0.45593,-2.7807 -0.9471,-7.2562 -1.0915,-9.9454 -0.26119,-4.8694 -0.23309,-4.8997 6.8598,-7.3695 3.9171,-1.364 8.4514,-3.1933 10.076,-4.0653 2.8328,-1.5202 10.643,-10.699 10.643,-12.508 0,-0.47938 -3.0511,-1.2137 -6.7801,-1.632 -14.833,-1.6637 -17.345,-9.6288 -7.7022,-24.423 15.725,-24.128 25.215,-47.625 25.278,-62.593 0.0285,-6.6906 0.40945,-8.937 1.2692,-7.482 3.5135,5.9459 -2.7808,30.877 -12.316,48.78 l -3.8392,7.2089 3.6635,-0.84337 c 2.0149,-0.46382 13.861,-5.4619 26.325,-11.107 34.115,-15.451 45.833,-18.479 67.911,-17.549 18.497,0.77911 26.374,4.3927 39.434,18.09 6.9185,7.2565 13.583,12.449 25.775,20.08 25.975,16.259 27.058,17.667 28.293,36.788 1.2515,19.373 0.62869,20.424 -14.024,23.661 -12.524,2.7669 -20.375,8.6054 -22.481,16.717 -1.1245,4.3318 1.242,4.4565 7.5561,0.39845 l 4.6275,-2.9741 2.0576,2.9741 c 2.7051,3.91 8.455,3.9256 13.23,0.0356 l 3.6067,-2.9381 3.6869,2.9381 c 5.7286,4.565 13.347,3.458 15.497,-2.252 0.41335,-1.0975 1.5164,-0.74587 3.75,1.1953 4.1852,3.6374 14.914,5.1976 16.072,2.3376 0.44221,-1.0912 -0.3978,-3.7862 -1.8666,-5.9887 -6.2419,-9.3596 -8.1945,-13.823 -8.2758,-18.918 -0.11266,-7.0863 2.0014,-10.505 10.061,-16.268 9.7908,-7.0008 12.816,-16.033 5.3706,-16.033 -4.5972,0 -9.2317,-4.0634 -12.187,-10.686 -6.0079,-13.461 -4.8304,-28.552 4.1866,-53.657 9.1588,-25.5 10.175,-30.202 10.211,-47.256 0.03,-13.789 -0.3175,-16.174 -3.4548,-23.734 -1.9182,-4.6223 -5.8102,-11.505 -8.6489,-15.294 l -5.1614,-6.8903 6.6267,-5.49 c 20.234,-16.763 16.095,-44.198 -8.263,-54.769 -7.4516,-3.2338 -9.3134,-3.5194 -22.372,-3.4316 -7.8342,0.0527 -19.78,1.0836 -26.546,2.2911 -6.8986,1.2311 -18.575,2.2205 -26.585,2.2526 -12.725,0.0512 -14.885,-0.26249 -19.789,-2.8727 -5.1132,-2.7217 -5.9899,-4.0139 -6.991,-10.305 -0.20575,-1.2931 -1.1099,-2.5831 -2.0089,-2.8666 -1.7392,-0.54841 -9.771,6.4223 -10.958,9.51 -0.58543,1.5235 -1.0633,1.4182 -2.7808,-0.61319 -1.1407,-1.349 -2.7333,-4.4487 -3.5393,-6.8883 -2.0267,-6.1353 0.46204,-10.735 7.6738,-14.181 l 5.5952,-2.6741 -3.2993,-2.0474 c -6.8083,-4.2248 -18.385,-1.3347 -22.572,5.635 -1.1843,1.9715 -2.4761,3.5881 -2.8706,3.5924 -0.39444,0.003 -2.6455,-1.8765 -5.0025,-4.1795 -8.7904,-8.5893 -5.7666,-21.297 5.9908,-25.177 6.2696,-2.0689 11.818,-0.49068 12.972,3.69 1.7624,6.3826 7.2409,-2.0071 6.2584,-9.584 -0.6533,-5.0374 -0.55514,-5.212 2.9305,-5.212 4.8473,0 15.165,6.3619 18.356,11.319 3.7064,5.7573 3.4367,14.823 -0.64203,21.58 l -3.2027,5.3055 4.1894,-0.83896 c 6.1434,-1.2302 12.112,-5.0453 15.131,-9.6721 3.192,-4.8914 3.5352,-14.416 0.70469,-19.555 -2.7429,-4.981 -2.4284,-5.7717 1.6267,-4.0885 6.8969,2.8628 10.584,6.0201 13.35,11.431 2.4908,4.8729 2.6298,6.0838 1.2814,11.156 -0.83198,3.1291 -2.6831,7.246 -4.1137,9.1486 -2.2274,2.9626 -2.3034,3.4593 -0.52871,3.4593 3.3052,0 10.206,-3.1281 12.658,-5.7373 1.2383,-1.3182 3.0437,-4.564 4.012,-7.2129 l 1.7607,-4.8162 2.023,3.6712 c 2.8609,5.1912 8.4225,9.8627 15.204,12.77 7.293,3.1265 10.33,3.3027 6.5164,0.37792 -2.5718,-1.9723 -7.3109,-15.878 -5.8747,-17.238 0.84508,-0.80031 10.747,6.8186 22.053,16.968 10.695,9.6009 17.415,12.746 27.23805,12.746 12.548,8e-5 19.854,-10.923 14.214,-21.251 -3.288,-6.0216 -10.613,-6.8581 -14.896,-1.7011 -1.9696,2.3714 -2.5103,4.2577 -1.9334,6.745 0.7066,3.047 0.4309,3.453 -2.34515,3.453 -3.6473,0 -10.837,-4.6664 -23.606,-15.321 -19.471,-16.248 -43.13,-30.02 -60.214,-35.05 -10.963,-3.2285 -34.383,-4.4883 -45.528,-2.4492 -12.062,2.207 -26.329,9.1099 -34.101,16.499 -13.772,13.094 -13.991,30.518 -0.58141,46.385 l 3.8411,4.5452 -2.6005,4.0394 c -3.7831,5.8765 -3.4591,13.785 0.80339,19.61 1.8774,2.5656 3.7712,4.6637 4.2085,4.6623 0.43728,-0.001 0.91679,-1.6508 1.0654,-3.6654 0.37644,-5.0966 2.5638,-8.5113 6.3183,-9.8632 3.3816,-1.2176 5.5676,-0.64252 21.051,5.5376 16.289,6.5015 43.077,6.9484 71.561,1.1938 13.964,-2.8211 30.43,-2.6552 37.674,0.37962 13.279,5.5631 16.357,20.036 6.5955,31.022 -4.2256,4.7559 -8.3008,6.6927 -21.983,10.448 -10.412,2.8575 -12.878,3.0472 -36.543,2.8109 -20.218,-0.20184 -27.484,0.18642 -35.737,1.9096 -8.9598,1.8707 -14.471,2.0594 -40.79,1.3961 l -30.431,-0.76685 3.3746,2.7943 c 1.856,1.5368 4.4782,3.4277 5.8271,4.202 2.2952,1.3174 2.2187,1.4944 -1.1927,2.7593 -2.0049,0.7434 -6.4548,1.3516 -9.8886,1.3516 l -6.2432,0 -0.84015,5.3057 c -0.46215,2.9182 -0.42705,6.3252 0.0776,7.5711 0.74459,1.8377 0.46708,2.1016 -1.4696,1.3977 -1.313,-0.47719 -4.97,-1.4158 -8.1265,-2.0857 -3.1565,-0.66995 -7.4054,-2.0342 -9.442,-3.0316 -3.4248,-1.6773 -3.8054,-1.6322 -5.0669,0.60016 -1.1264,1.9935 -11.702,9.8644 -13.254,9.8644 -0.25046,0 -0.57378,-1.5176 -0.71843,-3.3725 -0.14464,-1.8549 -1.6703,-6.6837 -3.3904,-10.731 -1.7202,-4.047 -3.5162,-8.4619 -3.9913,-9.8109 -0.71672,-2.035 -1.0412,-2.1394 -1.9056,-0.61319 -0.573,1.0118 -1.4096,3.7711 -1.8591,6.1318 -0.44947,2.3607 -2.043,6.1958 -3.5412,8.5224 l -2.724,4.2301 -1.7374,-3.617 c -1.8651,-3.8828 -4.9615,-7.9092 -6.0825,-7.9092 -0.37837,0 -1.0228,1.2417 -1.432,2.7593 -0.85453,3.1692 -8.197,11.957 -9.9903,11.957 -0.66041,0 -1.2007,-2.4834 -1.2007,-5.5186 0,-3.0352 -0.5827,-5.5186 -1.2949,-5.5186 -0.7122,0 -1.2949,0.78545 -1.2949,1.7454 0,2.3335 -6.2706,9.2918 -8.3736,9.2918 -0.91771,0 -2.394,0.82779 -3.2807,1.8395 -2.3118,2.638 -4.2029,2.2678 -3.231,-0.63242 0.45568,-1.3596 0.15939,-4.5328 -0.65846,-7.0516 -0.81788,-2.5188 -1.6875,-5.1996 -1.9325,-5.9573 -0.30871,-0.95429 -2.5558,-0.70116 -7.3116,0.82362 -7.6852,2.4639 -10.261,2.028 -6.3087,-1.0676 1.4449,-1.1316 3.6425,-5.0514 4.8838,-8.7107 1.2412,-3.6592 3.0726,-6.9061 4.0698,-7.2151 1.3963,-0.43282 1.322,0.10204 -0.32373,2.3272 -1.1753,1.5891 -2.1404,3.7321 -2.1448,4.7624 0,1.0303 -0.88884,3.473 -1.9656,5.4282 -1.0766,1.9552 -1.7534,3.7483 -1.5039,3.9845 0.24941,0.23626 3.1735,-0.87452 6.4978,-2.4684 l 6.0442,-2.8979 0.0246,2.5925 c 0.0142,1.4259 0.74212,5.1875 1.6186,8.3592 l 1.5937,5.7666 4.1143,-1.891 c 4.2049,-1.9326 8.1874,-8.8222 8.1874,-14.164 0,-2.6406 1.5126,-2.2353 2.132,0.57128 0.18181,0.8236 1.1312,3.9147 2.1099,6.8692 l 1.7795,5.3717 2.817,-3.3916 c 1.5494,-1.8654 3.4917,-5.5244 4.3163,-8.131 1.4315,-4.5251 3.6793,-6.4706 3.6793,-3.1845 0,2.368 6.4622,10.861 7.7088,10.131 0.60253,-0.35262 1.8023,-3.5401 2.6661,-7.0833 1.7967,-7.3686 4.6952,-12.38 6.537,-11.302 0.69252,0.40535 0.96225,1.192 0.59929,1.7482 -0.36297,0.55613 1.1254,5.3468 3.3075,10.646 2.1821,5.2991 4.3732,10.634 4.8693,11.856 0.797,1.9632 1.5174,1.678 6.1947,-2.4527 2.911,-2.5708 5.5531,-5.4487 5.8713,-6.3953 0.48094,-1.431 1.1303,-1.3786 3.8524,0.31056 3.8067,2.3622 16.605,6.1683 17.593,5.2321 0.37021,-0.35059 0.74975,-3.7118 0.8435,-7.4694 l 0.17042,-6.8319 3.6804,0.76323 c 2.0242,0.41978 6.2805,0.39398 9.4584,-0.0575 l 5.7779,-0.82057 -5.1492,-3.5327 c -2.8322,-1.943 -5.6958,-4.4574 -6.3636,-5.5875 -0.71142,-1.204 -3.232,-2.2263 -6.0873,-2.469 -7.7147,-0.65558 -21.388,-8.3244 -21.388,-11.996 0,-0.68925 1.8938,0.48271 4.2085,2.6043 5.1349,4.7067 12.269,7.6609 18.499,7.6609 l 4.6621,0 -2.884,-3.8358 c -1.6567,-2.2034 -3.1425,-6.3832 -3.4914,-9.8218 -0.55604,-5.481 -1.1346,-6.3525 -6.8578,-10.331 -3.4376,-2.3899 -7.6957,-5.972 -9.4622,-7.9603 l -3.2119,-3.615 -1.6387,4.2921 c -0.90139,2.3607 -2.003,4.2921 -2.4479,4.2921 -0.44494,0 -2.1777,-1.3797 -3.8503,-3.0659 -1.6728,-1.6862 -3.3768,-3.0596 -3.7867,-3.0518 -0.4101,0.007 -1.8919,2.2791 -3.2929,5.0474 l -2.5474,5.0333 -1.9684,-2.9012 c -1.0827,-1.5957 -3.64,-4.4189 -5.6829,-6.2738 -2.0429,-1.8549 -3.1174,-3.3725 -2.3877,-3.3725 0.72956,0 3.251,1.9323 5.6033,4.294 l 4.2765,4.294 1.7405,-3.146 c 1.0328,-1.8669 1.4199,-4.7346 0.95201,-7.0533 -0.68203,-3.3797 -0.5862,-3.5761 0.70963,-1.4546 0.82408,1.349 3.3259,3.9353 5.5597,5.7473 l 4.0616,3.2946 2.8028,-5.1341 c 2.7895,-5.1094 2.8091,-5.1194 4.0782,-2.0682 1.6972,4.0805 13.98,14.149 24.437,20.032 1.6118,0.9067 0.9322,-2.2112 -2.0444,-9.3809 -0.78834,-1.8988 -1.4333,-5.3219 -1.4333,-7.607 0,-3.39 -0.97793,-4.8988 -5.3136,-8.1981 -6.2592,-4.7632 -8.2835,-8.1504 -9.463,-15.835 -0.47783,-3.1128 -1.5732,-6.5749 -2.4343,-7.6935 -1.2773,-1.6596 -1.4884,-0.73081 -1.1466,5.0465 0.23036,3.8942 -0.27608,8.7359 -1.1256,10.759 l -1.5443,3.6791 -1.1938,-3.0659 c -0.65653,-1.6862 -3.5605,-4.6187 -6.4535,-6.5166 -2.8929,-1.8979 -4.9233,-3.7694 -4.5119,-4.1589 0.41126,-0.38953 3.3874,1.3402 6.6134,3.8437 4.9147,3.814 5.9973,4.227 6.678,2.5471 0.79975,-1.9739 -0.001,-10.562 -1.5461,-16.563 -0.77113,-2.9968 -0.70366,-2.9807 2.9932,0.71559 2.7266,2.7261 4.2342,5.9776 5.4023,11.65 1.4838,7.2068 2.2324,8.4066 8.8962,14.258 4.0018,3.5138 7.4844,6.1913 7.7391,5.9502 0.25458,-0.24116 0.75961,-9.3307 1.1222,-20.199 0.69536,-20.841 -0.0906,-25.8 -5.1098,-32.239 l -2.5788,-3.3085 4.054,-4.3729 c 5.2886,-5.7045 7.7168,-10.277 8.7701,-16.515 l 0.85683,-5.0748 -4.5751,4.3329 c -3.7462,3.5479 -5.5352,4.3329 -9.8743,4.3329 -4.2965,0 -5.9749,-0.72001 -8.8702,-3.8052 -3.4739,-3.7017 -9.6295,-7.2634 -15.549,-8.9969 -2.1867,-0.64031 -2.9136,-0.3614 -2.9136,1.1179 0,1.0841 -1.2079,4.2133 -2.6842,6.9538 l -2.6841,4.9828 -5.6238,-5.5587 c -3.4497,-3.4096 -7.5436,-6.0635 -10.589,-6.8644 -7.7808,-2.0462 -8.2022,-1.843 -8.2022,3.954 0,8.7932 -3.7543,10.431 -10.511,4.5868 -5.1508,-4.4554 -9.4235,-5.4241 -19.191,-4.3505 l -7.5435,0.82916 1.3573,3.4054 c 1.1337,2.8446 0.8782,4.0425 -1.5508,7.2732 -3.9398,5.2399 -9.0624,7.5098 -16.948,7.5098 -3.6319,0 -8.1768,0.75156 -10.1,1.6701 -1.9232,0.91856 -6.7016,1.9768 -10.619,2.3517 -3.9171,0.37491 -8.0922,1.044 -9.2778,1.4869 -1.8554,0.69306 -2.059,0.12189 -1.4614,-4.098 0.91472,-6.4581 -3.5965,-11.222 -10.627,-11.222 -9.1217,0 -13.329,8.1592 -9.7568,18.922 0.68749,2.0714 1.5871,5.3381 1.999,7.2593 0.42746,1.9932 4.5362,7.2825 9.5688,12.318 4.8509,4.8537 9.4354,9.9041 10.188,11.223 0.75262,1.3191 3.2407,3.4359 5.529,4.704 l 4.1608,2.3058 -0.5488,-4.4519 c -0.60318,-4.8928 0.46295,-5.6604 3.0662,-2.2077 0.93053,1.2343 3.2945,3.2293 5.2531,4.4333 3.0853,1.8967 3.561,1.9353 3.561,0.28842 0,-1.0454 0.62895,-3.4543 1.3976,-5.3531 l 1.3977,-3.4523 2.4251,4.6972 c 1.3338,2.5835 5.6714,8.455 9.639,13.048 7.6986,8.9118 12.389,18.871 9.9683,21.163 -0.98194,0.92988 -3.6363,0.85791 -9.1376,-0.24774 -4.2646,-0.85709 -9.5394,-1.3101 -11.722,-1.0068 -4.4571,0.61953 -4.8082,0.0441 -2.067,-3.3881 2.8931,-3.6226 2.4329,-4.2201 -3.2508,-4.2201 -6.5757,0 -22.901,-3.1522 -29.168,-5.6319 -6.0934,-2.4112 -7.4993,-1.8108 -9.2928,3.9686 -0.80725,2.601 -2.2853,7.3142 -3.2844,10.474 l -1.8166,5.7444 6.5927,-0.6349 c 3.626,-0.3492 8.2897,-1.1431 10.364,-1.7642 2.0741,-0.62112 3.9591,-0.95122 4.1889,-0.73356 0.22985,0.21769 -0.6946,2.4623 -2.0543,4.988 l -2.4721,4.5922 4.1103,-0.8379 c 2.2608,-0.46085 5.662,-1.5885 7.5584,-2.5059 3.2998,-1.5963 3.5648,-1.4804 6.1676,2.6973 3.2006,5.1376 5.7611,4.9265 6.3292,-0.52181 0.58738,-5.6325 2.4401,-4.7994 5.9255,2.6645 3.3515,7.1772 6.8385,9.7112 7.5085,5.4565 0.22232,-1.4126 2.0278,-3.7122 4.012,-5.1101 4.0136,-2.8276 7.0382,-1.9792 8.7723,2.4603 1.795,4.5955 -2.2084,9.3323 -13.853,16.391 -23.327,14.14 -36.886,33.479 -40.757,58.128 -3.4915,22.233 7.4134,45.207 29.29,61.708 10.469,7.8966 27.1,16.231 26.043,13.051 -4.4882,-13.505 -4.3404,-39.274 0.2503,-43.621 0.68891,-0.65244 0.45194,2.0364 -0.52663,5.9752 -3.645,14.672 -2.0615,26.363 7.282,53.763 8.4506,24.782 7.2809,35.373 -4.6794,42.374 -3.8414,2.2484 -6.3146,2.6189 -16.643,2.4936 -11.207,-0.13613 -12.428,0.0895 -16.026,2.9564 -3.4881,2.7798 -8.0108,11.906 -8.0108,16.165 0,2.3072 2.562,2.0018 7.5966,-0.90506 z" />
      <path
         inkscape:connector-curvature="0"
         id="path24"
         d="m 863.45,479.06 4.7011,-3.0213 3.1903,3.0213 c 4.1796,3.9583 9.0759,3.8698 13.094,-0.23669 1.7536,-1.792 3.3283,-3.0336 3.4993,-2.7593 0.17093,0.27434 0.95293,1.6025 1.7376,2.9515 0.99334,1.7076 3.0357,2.5662 6.7222,2.8263 4.4417,0.31334 5.6344,-0.1165 7.3993,-2.6674 l 2.1038,-3.041 4.6277,2.9741 c 12.669,8.1426 19.42,-0.40017 13.758,-17.411 -2.879,-8.6495 -1.296,-13.512 7.983,-24.521 3.9128,-4.6423 7.1176,-9.5973 7.1215,-11.011 0,-2.2539 -0.72386,-2.5559 -5.9314,-2.4527 -4.9834,0.0994 -6.4413,-0.43585 -9.0644,-3.3233 -4.2665,-4.6965 -4.013,-10.075 0.75623,-16.044 l 3.81,-4.7681 -6.7596,-4.5873 c -3.7178,-2.5231 -10.422,-8.4924 -14.899,-13.265 -10.054,-10.719 -19.939,-15.802 -32.975,-16.955 l -8.7404,-0.77298 0.0129,6.6158 c 0.0168,8.5168 4.0137,16.71 14.924,30.588 12.405,15.779 13.271,18.222 13.774,38.846 l 0.42473,17.442 -3.5896,3.4057 c -3.2436,3.0773 -4.7062,3.47 -15.173,4.0736 -9.9645,0.57467 -12.058,1.0888 -14.982,3.6791 -3.8836,3.4404 -5.0449,5.3118 -6.244,10.063 -0.69887,2.7688 -0.41568,3.3725 1.5825,3.3725 1.3386,0 4.5493,-1.3597 7.1349,-3.0214 z" />
      <path
         inkscape:connector-curvature="0"
         id="path26"
         d="m 596.82,433.98 c 1.1086,-1.4991 2.0158,-3.9198 2.0158,-5.3794 0,-2.2052 0.98543,-2.7937 5.8314,-3.4819 l 5.8314,-0.82816 -3.889,-3.0993 c -4.6204,-3.6819 -5.0478,-6.5584 -0.97546,-6.5647 4.056,0 10.925,-4.2118 11.969,-7.3279 0.48536,-1.4483 0.18013,-3.3834 -0.69044,-4.3769 -2.2738,-2.5946 -6.5486,-2.2034 -7.3427,0.67204 -0.85348,3.091 -2.2824,3.0992 -5.5219,0.0306 -4.8732,-4.6153 -4.9826,-14.169 -0.22595,-19.732 2.2418,-2.6218 2.2218,-2.7938 -0.6362,-5.5005 -3.0745,-2.9118 -5.2702,-8.6748 -3.826,-10.043 0.45957,-0.43524 2.8886,-0.0884 5.3979,0.77114 3.5656,1.2211 4.9732,1.2396 6.4421,0.0846 4.4496,-3.4973 -0.37114,-7.9944 -7.5068,-7.0025 -2.8718,0.3992 -4.0582,0 -4.4706,-1.4897 -0.31195,-1.1298 -2.8238,-2.605 -5.6539,-3.3204 -5.0569,-1.2784 -5.0926,-1.2628 -5.0926,2.2213 0,3.8179 -2.1794,4.5382 -6.3206,2.0889 -3.365,-1.9903 -6.6286,-0.44518 -6.6286,3.1383 0,3.3434 3.3623,4.9923 9.3882,4.604 4.6219,-0.29789 4.7939,3.1391 0.40427,8.0796 l -3.1567,3.5529 2.5008,3.5928 c 3.7037,5.321 3.3919,14.158 -0.65433,18.547 l -3.1721,3.4409 -2.081,-2.7593 c -2.8919,-3.8346 -6.8476,-3.5776 -7.9323,0.51543 -0.71028,2.6802 -0.12315,3.905 3.2331,6.745 2.2555,1.9086 5.5485,3.4702 7.3178,3.4702 4.3784,0 4.2072,3.4433 -0.34417,6.9217 l -3.561,2.7216 5.5034,0.85366 c 3.0269,0.46958 5.5034,1.3529 5.5034,1.9628 0,2.339 3.8141,9.6148 5.0401,9.6148 0.70818,0 2.1948,-1.2265 3.3034,-2.7256 z" />
      <path
         inkscape:connector-curvature="0"
         id="path28"
         d="m 668.48,402.92 c 5.0001,-1.9709 15.821,-11.134 15.821,-13.398 0,-0.71202 -2.9869,-3.997 -6.6374,-7.3001 -7.6824,-6.9509 -16.039,-18.657 -18.204,-25.501 -1.1289,-3.5687 -6.5843,-9.6779 -21.951,-24.581 l -20.448,-19.832 -5.8934,1.4927 c -3.2414,0.82104 -7.1962,1.5127 -8.7885,1.537 -2.7441,0.0417 -2.6943,0.19928 0.95383,3.0226 l 3.8489,2.9786 5.3959,-2.9948 c 5.2303,-2.9029 5.4165,-2.9208 6.0615,-0.58461 0.37773,1.3676 -0.43704,3.7378 -1.8831,5.479 -1.4019,1.6877 -2.2004,3.6023 -1.7748,4.2546 0.42564,0.65216 -0.92107,2.016 -2.9927,3.0306 -3.8397,1.8805 -6.5048,8.0707 -3.4747,8.0707 2.7261,0 8.7373,-7.4169 8.0447,-9.9256 -0.35481,-1.2846 -0.18323,-2.6059 0.38121,-2.9363 2.3412,-1.3703 2.1949,4.4528 -0.18374,7.3168 -1.4019,1.6877 -2.2004,3.6023 -1.7748,4.2546 0.42564,0.65218 -0.92107,2.016 -2.9927,3.0306 -3.8148,1.8683 -6.5067,8.0707 -3.5029,8.0707 2.944,0 8.8566,-7.0875 8.1244,-9.7388 -0.38303,-1.3874 -0.23476,-2.7927 0.32968,-3.1231 1.5768,-0.92296 2.4275,3.6741 1.0964,5.9264 -0.71298,1.2066 -0.70651,2.8536 0.0168,4.1598 1.3096,2.3663 -0.0182,6.9107 -2.4316,8.3233 -1.0345,0.60546 -0.33394,1.7936 2.1753,3.6885 3.631,2.7423 3.7014,3.0302 3.7014,15.13 0,10.112 0.40827,12.722 2.2661,14.482 2.0848,1.9754 2.2661,1.9825 2.2661,0.0884 0,-2.069 3.6318,-4.5981 6.6028,-4.5981 0.8764,0 6.3518,4.6402 12.167,10.312 5.8509,5.7058 11.973,10.561 13.707,10.87 1.7232,0.30733 3.5888,0.63391 4.1458,0.72575 0.55695,0.092 3.1792,-0.68688 5.8271,-1.7306 z" />
      <path
         inkscape:connector-curvature="0"
         id="path30"
         d="m 605.96,354 c 0,-3.2598 -6.7241,-6.7394 -14.767,-7.6415 -6.4933,-0.72835 -6.5996,-0.68714 -6.5996,2.5565 0,2.685 1.0211,3.7413 5.5034,5.6928 7.2024,3.1357 15.863,2.804 15.863,-0.60778 z" />
      <path
         inkscape:connector-curvature="0"
         id="path32"
         d="m 613.33,353.7 c 3.2799,-2.976 4.8339,-6.5156 2.8606,-6.5156 -2.2695,0 -8.293,5.4052 -8.293,7.4417 0,3.1786 1.1188,2.9878 5.4324,-0.92616 z" />
      <path
         inkscape:connector-curvature="0"
         id="path34"
         d="m 606.34,344.06 c 0.27788,-1.8392 -0.8597,-3.0666 -4.2697,-4.6066 -7.3558,-3.3221 -16.15,-4.8607 -18.268,-3.196 -3.901,3.0662 -1.3018,7.1829 5.0028,7.9235 2.5382,0.29812 5.98,1.0722 7.6482,1.7202 4.8456,1.882 9.4537,1.0239 9.8867,-1.8411 z" />
      <path
         inkscape:connector-curvature="0"
         id="path36"
         d="m 606.34,334.21 c 0.39598,-2.6237 -1.2816,-3.5626 -14.978,-8.3834 -10.225,-3.5989 -14.752,-1.9018 -11.484,4.3058 1.1384,2.1624 3.049,3.1503 7.3339,3.7919 3.187,0.4773 7.5427,1.4104 9.6793,2.0738 5.7081,1.772 9.0058,1.148 9.4489,-1.788 z" />
      <path
         inkscape:connector-curvature="0"
         id="path38"
         d="m 613.2,324.98 c 2.0666,-2.0947 3.7572,-4.567 3.7572,-5.4936 0,-3.0061 -8.1614,2.3121 -9.2017,5.9959 -1.2478,4.4187 0.77501,4.2322 5.4449,-0.50233 z" />
      <path
         inkscape:connector-curvature="0"
         id="path40"
         d="m 606.34,324.36 c 0.45051,-2.9886 -4.5198,-5.6876 -14.294,-7.7622 -7.1711,-1.522 -10.334,-0.6588 -9.7971,2.6736 0.29315,1.8191 2.6814,3.1481 9.4566,5.2626 10.843,3.3836 14.104,3.3449 14.634,-0.17403 z" />
      <path
         inkscape:connector-curvature="0"
         id="path42"
         d="m 615.9,310.45 c 12.525,-5.5755 13.608,-19.635 1.7976,-23.326 -4.9037,-1.5327 -8.0341,-0.70686 -9.9112,2.6147 -1.4372,2.5434 -0.476,7.1676 1.4899,7.1676 0.66417,0 1.2076,0.85596 1.2076,1.9021 0,4.8819 -19.123,7.0939 -26.965,3.119 -2.7551,-1.3964 -3.9546,-5.0211 -1.6616,-5.0211 1.7134,0 2.8981,-3.6935 2.0226,-6.3059 -1.1928,-3.5592 -4.7799,-4.7922 -9.9831,-3.4317 -11.74,3.0699 -11.41,16.865 0.54277,22.719 9.8013,4.8001 31.287,5.0919 41.46,0.56291 z" />
      <path
         inkscape:connector-curvature="0"
         id="path44"
         d="m 608.11,299.64 c 0.72529,-0.68694 0.41011,-1.7425 -0.80582,-2.6982 -2.6627,-2.0928 -2.5207,-5.2056 0.4,-8.7689 2.1933,-2.6759 2.4673,-6.6804 3.2223,-47.074 1.3008,-69.611 6.4773,-121.97 13.3,-134.53 2.7163,-5.0009 2.3354,-5.0208 -4.6839,-0.24499 -9.0418,6.1522 -15.926,14.163 -22.026,25.631 -11.516,21.651 -15.518,50.78 -15.518,112.96 0,35.305 0.24051,39.924 2.2515,43.243 1.9103,3.1523 2.0118,4.3165 0.66998,7.6833 -0.86981,2.1824 -1.2645,4.2682 -0.87709,4.6351 2.5711,2.435 21.302,1.789 24.067,-0.82993 z" />
      <path
         inkscape:connector-curvature="0"
         id="path46"
         d="m 713.34,233.26 c 0.39236,-0.6012 -0.47458,-3.6364 -1.9264,-6.745 -2.2635,-4.8468 -3.1753,-5.6519 -6.4,-5.6519 -10.102,0 -26.341,-4.5144 -43.083,-11.976 -9.6677,-4.3091 -13.007,-5.2994 -14.166,-4.2013 -2.958,2.8014 1.9582,9.4508 9.5715,12.946 6.754,3.1007 25.635,6.9107 34.248,6.9107 4.9966,0 5.1147,0.22548 2.2713,4.3354 l -2.0914,3.0228 5.6524,0.14508 c 3.1087,0.0799 7.4004,0.56638 9.5371,1.0813 5.5493,1.3373 5.6012,1.3384 6.3876,0.13328 z" />
      <path
         style="fill:#000000"
         inkscape:connector-curvature="0"
         id="path48"
         d="m 772.35,264.63 c 0,-1.7992 -5.2837,-6.6752 -10.638,-9.817 -4.2046,-2.4674 -4.8992,-2.5424 -4.9086,-0.52996 -0.0143,3.0552 -2.7311,10.731 -3.798,10.731 -0.60162,0 -1.4912,-1.4999 -1.9771,-3.3332 -0.48587,-1.8332 -2.5241,-5.4462 -4.5295,-8.0287 l -3.6462,-4.6956 -2.8391,4.3506 c -2.6467,4.0557 -7.2315,8.0278 -9.2662,8.0278 -0.48599,0 -0.58103,-2.1359 -0.21134,-4.7465 0.40169,-2.8364 0.092,-5.0863 -0.77073,-5.591 -0.79353,-0.4645 -1.4428,-0.30245 -1.4428,0.3601 0,1.5283 -6.367,8.751 -7.7142,8.751 -0.55513,0 -1.3322,-2.0695 -1.727,-4.5989 -0.39469,-2.5294 -1.0656,-6.5304 -1.4908,-8.8911 -0.42526,-2.3608 0.48144,-0.75983 2.015,3.5576 l 2.7884,7.8498 3.0577,-4.7839 c 1.6817,-2.6312 3.0607,-5.5063 3.0643,-6.3893 0,-0.88294 0.57248,-1.2741 1.2641,-0.86936 0.69149,0.40477 1.654,3.5676 2.1387,7.0284 l 0.88145,6.2925 3.3646,-3.689 c 1.8506,-2.0289 4.019,-4.7452 4.8188,-6.0363 1.427,-2.3036 1.5078,-2.3017 4.3463,0.10554 1.5907,1.349 4.0363,4.5757 5.4345,7.1704 1.3984,2.5947 2.7296,4.5262 2.9584,4.2923 0.22868,-0.23399 0.74108,-2.9088 1.1388,-5.9441 0.39754,-3.0352 0.75248,-5.6312 0.7886,-5.7688 0.19786,-0.7521 10.135,5.7072 13.812,8.9778 2.3631,2.1022 4.6074,3.5278 4.9873,3.1681 0.37993,-0.35979 0.69071,-3.4612 0.69071,-6.8921 0,-5.3167 -0.56355,-6.7417 -3.8155,-9.6485 -3.7391,-3.3422 -3.8437,-3.3606 -5.2252,-0.91579 -1.7931,3.173 -3.9084,3.2188 -3.9084,0.0846 0,-2.2875 -7.0659,-11.08 -8.9041,-11.08 -0.47653,0 -1.9646,1.9315 -3.3071,4.2923 -1.3424,2.3607 -2.786,4.29 -3.208,4.2874 -1.8125,-0.0111 -11.774,-11.117 -11.769,-13.122 0,-1.5945 0.67129,-1.1868 2.4176,1.4761 1.3269,2.0235 3.9777,5.0443 5.8904,6.7129 3.8731,3.3787 5.2811,2.5571 6.7757,-3.9536 0.42577,-1.8549 1.1658,-3.3725 1.6444,-3.3725 1.6558,0 10.327,9.2097 11.547,12.264 l 1.2244,3.0659 0.92741,-3.3725 c 1.134,-4.124 2.3852,-4.2774 4.1958,-0.51425 0.75626,1.572 4.4918,4.8404 8.3011,7.263 l 6.926,4.4047 1.39,-4.4303 c 0.76451,-2.4366 1.7773,-3.8368 2.2506,-3.1116 0.70585,1.0815 -1.0945,8.4227 -2.4528,10.002 -0.20356,0.23674 -2.4479,-1.0705 -4.9875,-2.9049 l -4.6172,-3.3353 -0.0182,5.9708 c -0.0129,3.2839 -0.36905,7.2125 -0.79856,8.7301 -0.83976,2.9674 -3.0686,3.8021 -3.0686,1.1492 z" />
      <path
         style="fill:#000000"
         inkscape:connector-curvature="0"
         id="path50"
         d="m 737.82,217.03 c -8.2314,-6.8725 -9.481,-8.4451 -9.2987,-11.702 l 0.19399,-3.4668 0.537,3.3485 c 0.31363,1.9552 2.5058,4.8853 5.2686,7.0422 l 4.7318,3.6937 2.9076,-3.3631 c 1.5993,-1.8497 2.9287,-4.0529 2.9544,-4.896 0.0673,-2.1985 0.46176,-2.0139 6.0347,2.8216 4.9515,4.2963 5.0287,4.3168 5.7651,1.533 0.41049,-1.5519 0.26481,-4.4736 -0.32372,-6.4926 -1.6179,-5.5499 -1.3009,-6.3875 1.1507,-3.0403 1.2214,1.6677 3.1854,4.0253 4.3644,5.239 2.0523,2.1129 2.1775,2.0868 2.9412,-0.6132 0.43872,-1.551 0.80557,-4.3898 0.81528,-6.3085 l 0.0182,-3.4885 4.4645,5.0607 c 4.1702,4.7272 4.5544,4.9018 5.8272,2.6494 0.7495,-1.3262 1.3716,-4.5171 1.3824,-7.0908 0.0142,-3.3248 0.36439,-4.1637 1.21,-2.8977 1.4121,2.114 0.43172,7.87 -2.1758,12.775 l -1.8712,3.5199 -2.4571,-3.8264 c -3.1417,-4.8928 -4.1876,-4.8142 -6.2036,0.46582 -1.9052,4.9898 -3.1441,5.3696 -5.0005,1.533 -1.2013,-2.4829 -1.43,-2.1787 -2.2827,3.0374 l -0.94776,5.7967 -5.6785,-4.4068 -5.6786,-4.4068 -2.5528,2.9023 c -1.4041,1.5963 -2.5722,3.5922 -2.5959,4.4353 -0.0517,1.8274 -1.4176,1.8844 -3.4995,0.14622 z" />
      <path
         style="fill:#000000"
         inkscape:connector-curvature="0"
         id="path52"
         d="m 811.04,191.43 c -2.9962,-2.6993 -5.0602,-5.2746 -4.5867,-5.723 0.47342,-0.44838 1.0065,-0.57681 1.1846,-0.28542 0.17806,0.29139 2.6271,2.8668 5.4424,5.723 6.4822,6.5765 5.1496,6.7629 -2.0403,0.28543 z" />
      <path
         style="fill:#000000"
         inkscape:connector-curvature="0"
         id="path54"
         d="m 713.51,181.35 c -2.7255,-3.6852 -2.5373,-6.1267 0.7803,-10.121 2.3974,-2.8864 3.4925,-3.2781 7.6788,-2.7463 2.6854,0.34111 8.4638,2.7138 12.841,5.2725 5.0555,2.9552 10.285,4.9349 14.335,5.427 3.5069,0.42609 6.3763,0.58673 6.3763,0.35699 0,-0.22973 -1.4568,-2.6032 -3.2373,-5.2744 -4.2283,-6.3433 -4.0835,-7.0241 0.68552,-3.2237 4.8954,3.9012 10.751,5.0421 23.836,4.6444 l 6.393,-0.19431 -3.7088,-3.6663 c -5.1869,-5.1273 -3.5906,-5.587 2.1375,-0.61554 5.3722,4.6626 5.0358,4.991 -6.2715,6.1196 -4.8048,0.47958 -9.9719,0.1317 -14.267,-0.96048 -6.4256,-1.6342 -6.675,-1.6093 -5.4578,0.54471 0.70158,1.2414 1.8378,2.2571 2.5248,2.2571 0.68721,0 1.2495,0.62908 1.2495,1.3979 0,2.3644 -13.879,0.28524 -20.511,-3.0727 -15.151,-7.6712 -17.058,-8.3355 -20.664,-7.1991 -2.0067,0.63235 -4.0153,2.4833 -4.7074,4.3381 -2.3091,6.1873 6.4658,10.997 10.085,5.5273 1.049,-1.5853 0.804,-2.6696 -1.0397,-4.5988 -2.5248,-2.6423 -2.288,-3.0188 1.1205,-1.7801 2.4199,0.87945 2.7455,6.6892 0.49439,8.8212 -2.5757,2.4393 -8.4536,1.7488 -10.674,-1.254 z" />
      <path
         style="fill:#000000"
         inkscape:connector-curvature="0"
         id="path56"
         d="m 773.19,166.07 c -1.8946,-1.7944 -0.40932,-2.2338 8.0847,-2.3922 10.508,-0.19593 16.89,-1.947 24.42,-6.7006 6.0333,-3.8088 7.669,-3.0593 1.9424,0.88996 -5.2242,3.6027 -13.372,6.3723 -21.239,7.2191 -3.8093,0.41006 -8.1505,0.9781 -9.6473,1.2623 -1.4967,0.28421 -3.0991,0.15887 -3.561,-0.27852 z" />
    </g>
  </g>
</svg>
