<?xml version="1.0" encoding="UTF-8" standalone="no"?>
<!-- Created with Sodipodi ("http://www.sodipodi.com/") -->
<svg id="svg548" xmlns:rdf="http://www.w3.org/1999/02/22-rdf-syntax-ns#" xmlns="http://www.w3.org/2000/svg" height="480" width="640" version="1.1" xmlns:cc="http://creativecommons.org/ns#" xmlns:dc="http://purl.org/dc/elements/1.1/">
 <metadata id="metadata3477">
  <rdf:RDF>
   <cc:Work rdf:about="">
    <dc:format>image/svg+xml</dc:format>
    <dc:type rdf:resource="http://purl.org/dc/dcmitype/StillImage"/>
   </cc:Work>
  </rdf:RDF>
 </metadata>
 <g id="flag">
  <g id="g11439" fill-rule="evenodd" stroke-width="1pt" transform="matrix(1.25,0,0,0.9375,0,-5.625e-6)">
   <rect id="rect551" height="512" width="170.67" y="0.000006" x="0" fill="#00319c"/>
   <rect id="rect552" height="512" width="170.67" y="0.000006" x="170.67" fill="#ffde00"/>
   <rect id="rect553" height="512" width="170.67" y="0.000006" x="341.33" fill="#de2110"/>
  </g>
  <g id="g11201" transform="matrix(1.2303 0 0 1.2303 4.0689 -75.14)">
   <path id="path905" d="m289.61 321.48s18.628 26.877 19.724 28.458c1.096 1.5813 2.1917 3.1622 0.53732 4.2092-1.6549 1.0473-1.1175 5.2565-0.0218 6.8373 2.1917 3.1622 4.9418 3.696 6.5966 2.6487 1.6544-1.047 13.236-8.3766 14.89-9.4236 1.6548-1.0473 2.2135-3.6752 0.0218-6.8373-1.2578-1.5938-4.9418-3.696-6.5966-2.6487-1.6544 1.047-2.7501-0.53386-3.8461-2.1152-1.0957-1.5809-17.533-25.296-19.724-28.458" fill-rule="evenodd" stroke="#000" stroke-width="0.445pt" fill="#ff1900"/>
   <path id="path907" d="m177.17 696.26c0 24.461-9.5184 44.291-21.26 44.291-11.741 0-21.26-19.83-21.26-44.291s9.5184-44.291 21.26-44.291c11.741 0 21.26 19.83 21.26 44.291z" fill-rule="evenodd" transform="matrix(.42858 -.34452 .36055 .40954 -29.658 77.264)" stroke="#000" stroke-width="2.5401" fill="#a77b3b"/>
   <path id="path898" d="m209.61 309.91l-17.413 29.803c-0.9676 1.656-1.9349 3.3116-3.6675 2.3873-1.7331-0.92459-5.4006 1.4627-6.3679 3.1183-1.9349 3.3116-1.1696 5.8915 0.56342 6.8161 1.7326 0.92433 13.862 7.3952 15.594 8.3195 1.7331 0.92459 4.433 0.19334 6.3679-3.1183 0.90497-1.7992 1.1697-5.8915-0.56341-6.8161-1.7326-0.92433-0.76527-2.5799 0.20233-4.236 0.96732-1.6556 15.478-26.492 17.413-29.803" fill-rule="evenodd" stroke="#000" stroke-width="0.445pt" fill="#ff1900"/>
   <path id="path895" d="m265.87 289.13h-15.876c-0.52478 0.50199-5.0395 28.935-9.9222 39.822-5.9535 13.274-23.783 24.987-23.783 24.987s10.682 3.2352 13.861 5.3534c0.79026-0.2221 17.83-3.7923 19.814-24.652 1.9849 20.86-11.876 30.341-11.876 30.341s19.845 5.6889 19.845 18.963c0-13.274 19.845-18.963 19.845-18.963s-9.9536-9.4812-11.938-30.341c3.9686 20.86 19.085 24.43 19.876 24.652 3.1784-2.1182 13.861-5.3534 13.861-5.3534s-17.83-11.713-23.783-24.987c-4.8827-10.887-9.3974-39.32-9.9222-39.822z" fill-rule="evenodd" stroke="#000" stroke-width="1.3906" fill="#a77b3b"/>
   <path id="path728" d="m198.37 194.3 29.768 9.4812c9.9222 0 19.845-9.471 19.845-18.953 0.32988-21.093-7.9384-28.454-9.9228-28.454l3.9692-3.7928-5.9535-5.6889s1.9905-9.8376 21.829-9.4716c19.838 0.36659 19.845 9.4817 19.845 18.963 0 9.4817-9.9222 9.4817-9.9222 28.445 0 9.4817 9.9222 18.963 19.845 18.963l29.768-9.4812v94.815h-119.07v-94.825z" fill-rule="evenodd" stroke="#000" stroke-width="1.3906" fill="#a77b3b"/>
   <g id="g853" stroke="#000" fill="none" transform="matrix(.56007 0 0 .53518 9.8408 -55.998)">
    <path id="path732" d="m302.16 292.24 14.645 14.964 14.644-14.964 14.645 14.964 29.29-14.964 14.261 15.809 15.028-15.809 21.605 15.809 22.329-15.809 14.645 14.964 14.645-14.964" transform="matrix(.24195 0 0 .71037 345 267.2)" stroke-width=".49015"/>
    <path id="path827" d="m432.28 435.83-7.086 38.976" transform="translate(-.00015259 .00012207)" stroke-width=".20320"/>
    <path id="path828" d="m435.83 435.83v38.976" transform="translate(-.00022888 .00012207)" stroke-width=".20320"/>
    <path id="path829" d="m442.91 435.83v38.976" stroke-width=".20320"/>
    <path id="path830" d="m450 435.83 3.543 38.976" transform="translate(0 .00012207)" stroke-width=".20320"/>
    <path id="path831" d="m457.09 435.83 3.543 38.976" stroke-width=".20320"/>
   </g>
   <g id="g712" transform="matrix(.56007 0 0 .53518 9.8408 -55.998)" stroke="#000" stroke-width="2.5401">
    <path id="path691" d="m318.9 361.42c35.433 17.717 35.433 53.149 35.433 70.866-1.251 16.117 0 354.33 0 354.33s-2.306-20.022-17.717-35.433l-17.716-17.716-17.717-17.717c-12.951-11.774-17.716-35.433-17.716-53.15v-248.03s0-17.717 35.433-53.15z" fill-rule="evenodd" transform="matrix(-1 0 0 1 620.08 .00027466)" fill="#a77b3b"/>
    <path id="path692" d="m283.46 574.02c0.417 0 17.716-17.717 17.716-17.717l17.717 17.717s17.716-17.717 17.716-17.717l17.717 17.717" transform="matrix(-1 0 0 1 620.08 -141.73)" fill="none"/>
    <path id="path693" d="m283.46 574.02c0.417 0 17.716-17.717 17.716-17.717l17.717 17.717s17.716-17.717 17.716-17.717l17.717 17.717" transform="matrix(-1 0 0 -1 620.08 1024)" fill="none"/>
    <path id="path694" d="m283.46 574.02c0.417 0 17.716-17.717 17.716-17.717l17.717 17.717s17.716-17.717 17.716-17.717l17.717 17.717" transform="matrix(-1 0 0 1 620.08 -70.866)" fill="none"/>
    <path id="path695" d="m301.39 556.99-0.208 158.76" transform="matrix(-1 0 0 1.8971 620.08 -642.07)" fill="none"/>
    <path id="path696" d="m301.39 539.27-0.208 176.48" transform="matrix(-1 0 0 1.7027 602.57 -485.94)" fill="none"/>
    <path id="path697" d="m301.39 539.27-0.208 176.48" transform="matrix(-1 0 0 1.9074 584.85 -614.03)" fill="none"/>
   </g>
   <g id="g720" transform="matrix(.56007 0 0 .53518 9.8408 -55.998)" stroke="#000" stroke-width="2.5401">
    <path id="path675" d="m318.9 361.42c35.433 17.717 35.433 53.149 35.433 70.866-1.251 16.117 0 354.33 0 354.33s-2.306-20.022-17.717-35.433l-17.716-17.716-17.717-17.717c-12.951-11.774-17.716-35.433-17.716-53.15v-248.03s0-17.717 35.433-53.15z" fill-rule="evenodd" transform="translate(265.75 .00027466)" fill="#a77b3b"/>
    <path id="path676" d="m283.46 574.02c0.417 0 17.716-17.717 17.716-17.717l17.717 17.717s17.716-17.717 17.716-17.717l17.717 17.717" transform="translate(265.75 -141.73)" fill="none"/>
    <path id="path677" d="m283.46 574.02c0.417 0 17.716-17.717 17.716-17.717l17.717 17.717s17.716-17.717 17.716-17.717l17.717 17.717" transform="matrix(1 0 0 -1 265.75 1024)" fill="none"/>
    <path id="path678" d="m283.46 574.02c0.417 0 17.716-17.717 17.716-17.717l17.717 17.717s17.716-17.717 17.716-17.717l17.717 17.717" transform="translate(265.75 -70.866)" fill="none"/>
    <path id="path679" d="m301.39 556.99-0.208 158.76" transform="matrix(1 0 0 1.8971 265.75 -642.07)" fill="none"/>
    <path id="path680" d="m301.39 539.27-0.208 176.48" transform="matrix(1 0 0 1.7027 283.26 -485.94)" fill="none"/>
    <path id="path681" d="m301.39 539.27-0.208 176.48" transform="matrix(1 0 0 1.9074 300.97 -614.03)" fill="none"/>
   </g>
   <path id="path903" d="m177.17 696.26c0 24.461-9.5184 44.291-21.26 44.291-11.741 0-21.26-19.83-21.26-44.291s9.5184-44.291 21.26-44.291c11.741 0 21.26 19.83 21.26 44.291z" fill-rule="evenodd" transform="matrix(.51699 .20583 -.21541 .49401 290.24 -73.211)" stroke="#000" stroke-width="2.5401" fill="#a77b3b"/>
   <g id="g860" transform="matrix(.56007 0 0 .53518 9.8408 -55.998)">
    <rect id="rect741" fill-rule="evenodd" transform="translate(.00015259 -.00018311)" height="106.3" width="212.6" y="485.43" x="336.61" stroke-width="1pt" fill="#f00"/>
    <path id="path742" d="m336.61 591.73h212.6v53.15c0 35.433-53.15 35.433-106.3 70.866-53.15-35.433-106.3-35.433-106.3-70.866v-53.15z" fill-rule="evenodd" transform="translate(.00086148 .00070190)" stroke-width="2.5" fill="#564dff"/>
    <path id="path740" d="m336.61 485.43h212.6v159.45c0 35.433-53.15 35.433-106.3 70.866-53.149-35.433-106.3-35.433-106.3-70.866v-159.45z" transform="translate(.0015814 .00032043)" stroke="#ff0" stroke-width="2.0321" fill="none"/>
    <path id="path744" d="m385.59 129.9s-50.618 55.447-50.618 108.6c0 53.149 53.149 70.866 53.149 70.866s-17.717 0-17.717 70.866c0 35.433 53.15 17.717 53.15 35.433 0 17.717-0.751 60.578 0 88.583 0 17.716-35.433 0-35.433 17.716 0 8.859 26.575 53.15 53.15 53.15 26.574 0 53.149-44.291 53.149-53.15 0-17.716-35.433 0-35.433-17.716v-88.583c0-17.716 53.15 0 53.15-35.433 0-70.866-17.717-70.866-17.717-70.866s53.15-17.717 53.15-70.866-50.619-108.6-50.619-108.6c0-0.001 28.473 73.163 28.473 108.6 0 17.717-13.287 53.149-48.72 53.149 0 0-8.961-17.716-17.717 0 0 0-10.189-17.716-17.716 0-2.598 6.115-7.207-17.716-17.717 0-4.465 4.697-7.984-17.716-17.717 0-17.716 0-53.148-17.716-53.149-53.149 0-35.433 32.902-108.6 32.902-108.6z" fill-rule="evenodd" transform="matrix(0.7 0 0 .46956 134.02 431.52)" stroke="#000" stroke-width="2.4476" fill="#ff0"/>
    <path id="path746" d="m382.68 248.03c-3.543 3.543 4.581 61.274 7.087 63.779 3.543 3.543 24.803 3.543 28.346 0 2.525-2.525 0-56.693-3.543-60.236-3.543-3.544-29.384-6.049-31.89-3.543z" fill-rule="evenodd" transform="matrix(0.7 0 0 .46956 136.69 524.92)" stroke="#000" stroke-width="2.4476" fill="#ff0"/>
    <path id="path747" d="m382.68 248.03c-3.543 3.543 4.581 61.274 7.087 63.779 3.543 3.543 24.803 3.543 28.346 0 2.525-2.525 0-56.693-3.543-60.236-3.543-3.544-29.384-6.049-31.89-3.543z" fill-rule="evenodd" transform="matrix(-0.7 0 0 .46956 749.14 524.92)" stroke="#000" stroke-width="2.4476" fill="#ff0"/>
    <path id="path748" d="m414.57 228.54c0 8.8061-7.1388 15.945-15.945 15.945-8.8061 0-15.945-7.1388-15.945-15.945 0-8.8061 7.1388-15.945 15.945-15.945 8.8061 0 15.945 7.1388 15.945 15.945z" fill-rule="evenodd" transform="matrix(.80459 0 0 .58536 96.528 497.79)" stroke="#000" stroke-width="2.4476" fill="#ff0"/>
    <path id="path749" d="m414.57 228.54c0 8.8061-7.1388 15.945-15.945 15.945-8.8061 0-15.945-7.1388-15.945-15.945 0-8.8061 7.1388-15.945 15.945-15.945 8.8061 0 15.945 7.1388 15.945 15.945z" fill-rule="evenodd" transform="matrix(.80460 0 0 .58537 147.84 497.79)" stroke="#000" stroke-width="2.4476" fill="#ff0"/>
    <path id="path750" d="m414.57 228.54c0 8.8061-7.1388 15.945-15.945 15.945-8.8061 0-15.945-7.1388-15.945-15.945 0-8.8061 7.1388-15.945 15.945-15.945 8.8061 0 15.945 7.1388 15.945 15.945z" fill-rule="evenodd" transform="matrix(.38889 0 0 .26087 304.02 626.15)" stroke-width="1pt"/>
    <path id="path751" d="m414.57 228.54c0 8.8061-7.1388 15.945-15.945 15.945-8.8061 0-15.945-7.1388-15.945-15.945 0-8.8061 7.1388-15.945 15.945-15.945 8.8061 0 15.945 7.1388 15.945 15.945z" fill-rule="evenodd" transform="matrix(.38889 0 0 .26087 271.77 626.15)" stroke-width="1pt"/>
    <polygon id="polygon785" d="m 439.37008,549.92126 -7.78323,-10.26471 -12.76183,1.75467 1.75467,-12.76183 -10.26472,-7.78324 10.26472,-7.78324 -1.75467,-12.76183 12.76183,1.75467 7.78324,-10.26471 7.78323,10.26471 12.76184,-1.75467 -1.75467,12.76183 10.26471,7.78324 -10.26471,7.78324 1.75466,12.76183 -12.76183,-1.75467 z" fill-rule="evenodd" transform="matrix(.97561 0 0 .97561 14.26 16.248)" stroke="#000" points="439.37 549.92 431.59 539.66 418.82 541.41 420.58 528.65 410.32 520.87 420.58 513.08 418.82 500.32 431.59 502.08 439.37 491.81 447.15 502.08 459.92 500.32 458.16 513.08 468.42 520.87 458.16 528.65 459.92 541.41 447.15 539.66" stroke-width=".81282pt" fill="#ff0"/>
    <path id="path786" d="m496.06 591.73l21.26 10.63 21.26-10.63-21.26-10.63-21.26 10.63z" fill-rule="evenodd" transform="translate(.00015259 -.00018311)" stroke="#000" stroke-width=".81282pt" fill="#ff0"/>
    <path id="path788" d="m496.06 591.73l21.26 10.63 21.26-10.63-21.26-10.63-21.26 10.63z" fill-rule="evenodd" transform="translate(-152.36 .00016785)" stroke="#000" stroke-width=".81282pt" fill="#ff0"/>
    <path id="path790" d="m535.04 659.06c-3.543-7.086-14.173-10.63-21.259-10.63-7.087 0-14.174 0-21.26 10.63 0-14.173 10.502-21.26 21.26-21.26 10.756 0 21.259 10.503 21.259 21.26z" fill-rule="evenodd" transform="matrix(.86717 -.49801 .49801 .86717 -263.15 350.11)" stroke="#000" stroke-width=".81282pt" fill="#ff0"/>
    <path id="path792" d="m386.22 651.97c0 3.9138-3.1728 7.0866-7.0866 7.0866s-7.0866-3.1728-7.0866-7.0866 3.1728-7.0866 7.0866-7.0866 7.0866 3.1728 7.0866 7.0866z" fill-rule="evenodd" transform="translate(-3.5432 -17.717)" stroke="#000" stroke-width=".81282pt" fill="#ff0"/>
    <path id="path793" d="m386.22 651.97c0 3.9138-3.1728 7.0866-7.0866 7.0866s-7.0866-3.1728-7.0866-7.0866 3.1728-7.0866 7.0866-7.0866 7.0866 3.1728 7.0866 7.0866z" fill-rule="evenodd" transform="translate(-10.63 7.0864)" stroke="#000" stroke-width=".81282pt" fill="#ff0"/>
    <path id="path795" d="m386.22 651.97c0 3.9138-3.1728 7.0866-7.0866 7.0866s-7.0866-3.1728-7.0866-7.0866 3.1728-7.0866 7.0866-7.0866 7.0866 3.1728 7.0866 7.0866z" fill-rule="evenodd" transform="translate(-14.173 -7.0869)" stroke="#000" stroke-width=".81282pt" fill="#ff0"/>
    <path id="path796" d="m386.22 651.97c0 3.9138-3.1728 7.0866-7.0866 7.0866s-7.0866-3.1728-7.0866-7.0866 3.1728-7.0866 7.0866-7.0866 7.0866 3.1728 7.0866 7.0866z" fill-rule="evenodd" transform="translate(3.5435 7.0864)" stroke="#000" stroke-width=".81282pt" fill="#ff0"/>
    <path id="path797" d="m386.22 651.97c0 3.9138-3.1728 7.0866-7.0866 7.0866s-7.0866-3.1728-7.0866-7.0866 3.1728-7.0866 7.0866-7.0866 7.0866 3.1728 7.0866 7.0866z" fill-rule="evenodd" transform="translate(7.0868 -7.0869)" stroke="#000" stroke-width=".81282pt" fill="#ff0"/>
    <path id="path791" d="m386.22 651.97c0 3.9138-3.1728 7.0866-7.0866 7.0866s-7.0866-3.1728-7.0866-7.0866 3.1728-7.0866 7.0866-7.0866 7.0866 3.1728 7.0866 7.0866z" fill-rule="evenodd" transform="translate(-3.5431 -3.5435)" stroke="#000" stroke-width=".81282pt" fill="#ff0"/>
   </g>
   <g id="g881" fill-rule="evenodd" transform="matrix(.56007 0 0 .53518 9.8408 -55.998)">
    <path id="path822" d="m389.76 386.22c-15.647 0-17.716 1.772-24.803 3.544 0-4.89 17.424-10.63 33.071-10.63 0 3.543-4.134 7.087-8.268 7.086z" transform="matrix(1.1429 0 0 1.6667 -36.784 -242.13)" stroke-width="1pt" fill="#da4500"/>
    <path id="path823" d="m428.74 386.22c0 3.9138-3.1728 7.0866-7.0866 7.0866s-7.0866-3.1728-7.0866-7.0866 3.1728-7.0866 7.0866-7.0866 7.0866 3.1728 7.0866 7.0866z" transform="translate(7.0866 -3.5433)" fill="#cac9c7"/>
    <path id="path825" d="m361.42 357.87v10.63h17.717v53.15h10.63v-53.15h17.716v-10.63h-17.716v-14.173h-10.63v14.173h-17.717z" stroke="#000" stroke-width=".81282pt" fill="#ff0"/>
    <path id="path821" d="m396.85 387.11c-15.647 0-24.803 0.885-31.89 2.657 0-4.89 9.156-10.63 24.803-10.63 3.543 0 7.087 5.315 7.087 7.973z" transform="matrix(1.3333 0 0 2.2222 -111.03 -470.46)" stroke-width="1pt" fill="#da4500"/>
   </g>
   <g id="g920" fill-rule="evenodd" transform="matrix(.56007 0 0 .53518 9.8408 -55.998)">
    <path id="path908" d="m67.323 612.99c-14.173-14.17-16.634-21.36 3.543-10.1l283.75 247.5-3.366 6.968-283.93-244.37z" transform="matrix(.56340 .45036 -.20424 .35982 321.13 327.02)" stroke="#000" stroke-width=".71122" fill="#008500"/>
    <path id="path912" d="m106.3 825.59c61.099-21.171 49.646-102.47 42.618-103.04-7.028-0.572-33.42 18.668-36.963 36.385-7.086-28.346-23.102-54.578-32.342-51.546-13.861 3.032 2.4664 47.491-4.6203 54.578-7.0866 3.543-39.117-21.736-46.203-18.193-7.0866 3.544 18.481 100.06 77.511 81.813z" transform="matrix(.13171 -.18019 .3274 .23930 23.692 542.15)" fill="#008f00"/>
    <path id="path913" d="m106.3 825.59c61.099-21.171 49.646-102.47 42.618-103.04-7.028-0.572-33.42 18.668-36.963 36.385-7.086-28.346-23.102-54.578-32.342-51.546-13.861 3.032 2.4664 47.491-4.6203 54.578-7.0866 3.543-39.117-21.736-46.203-18.193-7.0866 3.544 18.481 100.06 77.511 81.813z" transform="matrix(.13171 -.18019 .3274 .23930 -4.4099 495.32)" fill="#008f00"/>
    <path id="path914" d="m106.3 825.59c61.099-21.171 49.646-102.47 42.618-103.04-7.028-0.572-33.42 18.668-36.963 36.385-7.086-28.346-23.102-54.578-32.342-51.546-13.861 3.032 2.4664 47.491-4.6203 54.578-7.0866 3.543-39.117-21.736-46.203-18.193-7.0866 3.544 18.481 100.06 77.511 81.813z" transform="matrix(.13171 -.18019 .3274 .23930 -25.914 452.8)" fill="#008f00"/>
    <path id="path915" d="m106.3 825.59c61.099-21.171 49.646-102.47 42.618-103.04-7.028-0.572-33.42 18.668-36.963 36.385-7.086-28.346-23.102-54.578-32.342-51.546-13.861 3.032 2.4664 47.491-4.6203 54.578-7.0866 3.543-39.117-21.736-46.203-18.193-7.0866 3.544 18.481 100.06 77.511 81.813z" transform="matrix(.13171 -.18019 .3274 .23930 -47.174 406.73)" fill="#008f00"/>
    <path id="path916" d="m106.3 825.59c61.099-21.171 49.646-102.47 42.618-103.04-7.028-0.572-33.42 18.668-36.963 36.385-7.086-28.346-23.102-54.578-32.342-51.546-13.861 3.032 2.4664 47.491-4.6203 54.578-7.0866 3.543-39.117-21.736-46.203-18.193-7.0866 3.544 18.481 100.06 77.511 81.813z" transform="matrix(.22320 -.00073722 .0013390 .40553 219.6 248.33)" fill="#008f00"/>
    <path id="path917" d="m106.3 825.59c61.099-21.171 49.646-102.47 42.618-103.04-7.028-0.572-33.42 18.668-36.963 36.385-7.086-28.346-23.102-54.578-32.342-51.546-13.861 3.032 2.4664 47.491-4.6203 54.578-7.0866 3.543-39.117-21.736-46.203-18.193-7.0866 3.544 18.481 100.06 77.511 81.813z" transform="matrix(.21063 .073823 -.13413 .38271 352.49 299.69)" fill="#008f00"/>
    <path id="path918" d="m106.3 825.59c61.099-21.171 49.646-102.47 42.618-103.04-7.028-0.572-33.42 18.668-36.963 36.385-7.086-28.346-23.102-54.578-32.342-51.546-13.861 3.032 2.4664 47.491-4.6203 54.578-7.0866 3.543-39.117-21.736-46.203-18.193-7.0866 3.544 18.481 100.06 77.511 81.813z" transform="matrix(.22236 .019264 -.035001 .40402 292.95 329.27)" fill="#008f00"/>
    <path id="path919" d="m106.3 825.59c61.099-21.171 49.646-102.47 42.618-103.04-7.028-0.572-33.42 18.668-36.963 36.385-7.086-28.346-23.102-54.578-32.342-51.546-13.861 3.032 2.4664 47.491-4.6203 54.578-7.0866 3.543-39.117-21.736-46.203-18.193-7.0866 3.544 18.481 100.06 77.511 81.813z" transform="matrix(.21927 .041660 -.075693 .39841 352.36 385.54)" fill="#008f00"/>
   </g>
   <path id="path899" d="m209.06 775.98c0 7.8277-10.312 14.173-23.031 14.173-12.72 0-23.031-6.3456-23.031-14.173 0-7.8277 10.312-14.173 23.031-14.173 12.72 0 23.031 6.3456 23.031 14.173z" fill-rule="evenodd" transform="matrix(.48902 .26089 -.27302 .46728 313.35 -58.253)" stroke="#000" stroke-width=".81282pt" fill="#ff1900"/>
   <g id="g935" stroke="#000" fill-rule="evenodd" fill="#ff0" transform="matrix(.40549 .12769 -.14842 .38307 363.63 58.046)">
    <path id="path934" d="m155.91 414.57v-7.087h7.086v-7.086h7.087v7.086h7.086v7.087h-7.086v17.716h-7.087v-17.716h-7.086z" transform="translate(0 -.000030518)" stroke-width=".50801"/>
    <rect id="rect930" height="205.51" width="7.0866" y="474.8" x="162.99" stroke-width=".51245"/>
    <rect id="rect931" height="56.693" width="14.173" y="676.77" x="159.45" stroke-width=".50801"/>
    <path id="path932" d="m155.91 439.37h21.259c14.174 0-3.543 38.976-3.543 38.976h-14.173s-17.717-38.976-3.543-38.976z" stroke-width=".50801"/>
    <path id="path933" d="m173.62 434.06c0 2.9354-3.1728 5.315-7.0866 5.315s-7.0866-2.3796-7.0866-5.315 3.1728-5.315 7.0866-5.315 7.0866 2.3796 7.0866 5.315z" stroke-width=".50801"/>
   </g>
   <path id="path906" d="m209.06 775.98c0 7.8277-10.312 14.173-23.031 14.173-12.72 0-23.031-6.3456-23.031-14.173 0-7.8277 10.312-14.173 23.031-14.173 12.72 0 23.031 6.3456 23.031 14.173z" fill-rule="evenodd" transform="matrix(.46695 -.29551 .30926 .44619 -5.143 64.498)" stroke="#000" stroke-width=".81282pt" fill="#ff1900"/>
  </g>
 </g>
</svg>
