<?xml version="1.0" encoding="UTF-8" standalone="no"?>
<!-- Created with Inkscape (http://www.inkscape.org/) -->
<svg id="svg2" xmlns:rdf="http://www.w3.org/1999/02/22-rdf-syntax-ns#" xmlns="http://www.w3.org/2000/svg" height="480" width="640" version="1.0" xmlns:cc="http://creativecommons.org/ns#" xmlns:dc="http://purl.org/dc/elements/1.1/">
 <metadata id="metadata95">
  <rdf:RDF>
   <cc:Work rdf:about="">
    <dc:format>image/svg+xml</dc:format>
    <dc:type rdf:resource="http://purl.org/dc/dcmitype/StillImage"/>
   </cc:Work>
  </rdf:RDF>
 </metadata>
 <defs id="defs4">
  <clipPath id="clipPath9823" clipPathUnits="userSpaceOnUse">
   <rect id="rect9825" fill-opacity="0.67" height="512" width="682.67" y="-.000010461" x="0"/>
  </clipPath>
 </defs>
 <g id="flag" clip-path="url(#clipPath9823)" transform="matrix(.93750 0 0 .93750 0 .0000098075)">
  <path id="path2160" d="m0-0.00001h768v256h-426.67l-341.33-256z" fill-rule="evenodd" fill="#ed2939"/>
  <path id="path3134" d="m0 512h768v-256h-426.67l-341.33 256z" fill-rule="evenodd" fill="#002395"/>
  <path id="path3136" d="m0-0.00001 341.33 256l-341.33 256v-512z" fill-rule="evenodd" fill="#fff"/>
  <g id="g2425" transform="matrix(1.1464 0 0 1.1461 -260.07 -773.12)">
   <path id="path182" fill="#ff0" d="m377.17 843.11 0.0913-3.4582s-1.8566-2.9578 0.29828-6.136c0 0-4.5777-2.4222-3.5124-6.2152 0 0-4.1394-1.0586-3.835-5.6125 0 0-4.4681-0.30984-4.9308-4.1144 0 0-4.4681 0.73596-6.4343-2.9712 0 0-4.3585 0.85223-5.5882-2.2036 0 0-4.2368 1.4677-6.7509-2.1245 0 0-4.4742 1.8079-6.3491-1.5827-1.8506 3.3791-6.3248 1.5827-6.3248 1.5827-2.4836 3.5794-6.7509 2.094-6.7509 2.094-1.187 3.068-5.5334 2.1975-5.5334 2.1975-1.9601 3.7078-6.4221 2.9706-6.4221 2.9706-0.43829 3.793-4.9003 4.1029-4.9003 4.1029 0.35307 4.5655-3.7802 5.601-3.7802 5.601 1.0896 3.7924-3.482 6.2085-3.482 6.2085 2.2097 3.1965 0.37133 6.1306 0.37133 6.1306l-0.10348 3.1892 73.949 0.3415"/>
   <path id="path184" d="m377.17 843.11 0.0913-3.4582s-1.8566-2.9578 0.29828-6.136c0 0-4.5777-2.4222-3.5124-6.2152 0 0-4.1394-1.0586-3.835-5.6125 0 0-4.4681-0.30984-4.9308-4.1144 0 0-4.4681 0.73596-6.4343-2.9712 0 0-4.3585 0.85223-5.5882-2.2036 0 0-4.2368 1.4677-6.7509-2.1245 0 0-4.4742 1.8079-6.3491-1.5827-1.8506 3.3791-6.3248 1.5827-6.3248 1.5827-2.4836 3.5794-6.7509 2.094-6.7509 2.094-1.187 3.068-5.5334 2.1975-5.5334 2.1975-1.9601 3.7078-6.4221 2.9706-6.4221 2.9706-0.43829 3.793-4.9003 4.1029-4.9003 4.1029 0.35307 4.5655-3.7802 5.601-3.7802 5.601 1.0896 3.7924-3.482 6.2085-3.482 6.2085 2.2097 3.1965 0.37133 6.1306 0.37133 6.1306l-0.10348 3.1892 73.949 0.3415h-0.0122z" stroke="#000" stroke-width=".27124" fill="none"/>
   <path id="path186" fill="#f00" d="m375.45 838.79c-11.615-1.1627-24.989-3.9202-35.313 1.8938-6.9213-4.0791-16.558-3.8296-24.763-3.0315-4.4559 0.79744-9.6971 0.79744-14.354 1.5584l-0.73049 0.10287c-8.4492 0.56065-16.113-1.9358-23.455-5.2168 2.3315 13.234 4.9186 26.797 6.1908 40.652 2.7698 20.52-9.7093 37.748-4.5899 58.019 3.0558 9.727 13.751 15.382 23.54 16.503 9.478 0.55943 19.285 2.1123 28.057 4.017 1.6679 0.34698 3.6463 1.1207 4.7968 1.6192 2.4167 1.0105 4.1881 2.4964 5.7404 4.0852 5.296-5.5157 13.057-7.0498 20.715-7.8594 13.8-1.6132 30.814-0.73596 39.263-13.239v-0.70675c4.5899-6.9152 3.9811-17.464 1.9906-25.299-0.13392-2.7332-0.8644-5.1438-1.2601-7.7486-8.431-22.268-1.2114-47.311 2.4167-69.756-4.4316 2.4228-9.3745 3.5672-14.305 4.7792-3.9324 0.52351-8.3153 0.2861-12.296 0.0724l-1.6497-0.44438"/>
   <path id="path188" fill="#80cfe1" d="m392.79 902.7c-0.0548 1.4664 0.73657 2.6176 1.0227 3.9744 1.6132 9.7337 3.1715 22.627-6.8483 28.666-11.085 7.0485-25.622 4.0298-38.448 7.7608-2.5628 0.71222-6.0934 3.0686-7.8953 4.736-1.1566-0.76092-2.3193-1.9297-3.8107-2.617-10.555-5.6125-24.276-3.7322-36.189-6.7637-5.9839-1.8926-12.223-6.5555-13.739-12.68-3.8959-16.07 5.436-29.767 4.3342-45.709-0.71222-12.175-2.7576-23.862-5.5699-35.276 9.3136 4.3397 20.094 5.0641 30.565 2.9828 7.7553-1.0842 16.783-1.1079 24.051 2.1732 4.0055-1.7233 8.6927-2.4964 13.009-2.9712 8.2058 0.79805 17.026 2.2828 25.476 2.2225 5.643-0.2928 10.769-1.9242 15.675-4.0974-2.9098 18.865-8.4979 38.625-1.6375 57.599"/>
   <path id="path190" fill="#fff" d="m376.04 906.46-0.0913-17.739h2.1854l-27.113-17.513-0.0487-9.1006h2.6176l-13.557-9.7087-13.49 9.7032h2.6115l0.0487 9.0939-26.967 17.49 2.1549 0.0116 0.0913 17.727 71.551 0.0487"/>
   <path id="path192" d="m376.04 906.46-0.0913-17.739h2.1854l-27.113-17.513-0.0487-9.1006h2.6176l-13.557-9.7087-13.49 9.7032h2.6115l0.0487 9.0939-26.967 17.49 2.1549 0.0116 0.0913 17.727 71.551 0.0487 0.006-0.0128z" stroke="#000" stroke-width="1.1642" fill="none"/>
   <path id="path198" fill="#fff" d="m384.38 929.76 0.006 5.551-87.347-0.0974-0.0365-5.5273 87.384 0.0737"/>
   <path id="path200" d="m384.38 929.76 0.006 5.551-87.347-0.0974-0.0365-5.5273 87.384 0.0737h-0.006z" stroke="#000" stroke-width="1.1642" fill="none"/>
   <path id="path202" fill="#fff" d="m302.84 929.43-0.0731-18.786 3.5365-0.007-0.19457 19.005 0.21297-18.852-5.095-0.14605v-4.0304l78.064 0.0858 0.0365 3.9933h-4.8151l0.0913 19.023-0.17044-19.023h3.5854l0.0791 18.809"/>
   <path id="path204" d="m302.84 929.43-0.0731-18.786 3.5365-0.007-0.19457 19.005 0.21297-18.852-5.095-0.14605v-4.0304l78.064 0.0858 0.0365 3.9933h-4.8151l0.0913 19.023-0.17044-19.023h3.5854l0.0791 18.809" stroke="#000" stroke-width="1.1642" fill="none"/>
   <path id="path206" d="m319.62 924.8-0.0548-13.1h-10.482l0.0609 13.087 10.476 0.0128" stroke="#000" stroke-width="1.1642" fill="none"/>
   <path id="path208" d="m311.94 914.43 0.0304 7.6092h4.7968l-0.0243-7.6092h-4.8029" stroke="#000" stroke-width="1.1642" fill="none"/>
   <path id="path210" d="m370.86 924.84-0.0609-13.087-10.446-0.0122 0.0487 13.099h10.458" stroke="#000" stroke-width="1.1642" fill="none"/>
   <path id="path212" d="m363.18 914.48 0.0548 7.5848h4.7907l-0.0426-7.5848h-4.8029" stroke="#000" stroke-width="1.1642" fill="none"/>
   <path id="path214" d="m370.78 903.51-0.0609-13.101h-10.458l0.0365 13.101h10.488-0.006z" stroke="#000" stroke-width="1.1642" fill="none"/>
   <path id="path216" d="m363.1 893.16 0.0304 7.597h4.7907l-0.006-7.597h-4.8151" stroke="#000" stroke-width="1.1642" fill="none"/>
   <path id="path218" d="m319.53 903.46-0.073-13.076-10.464-0.0128 0.0487 13.082h10.488v0.007z" stroke="#000" stroke-width="1.1642" fill="none"/>
   <path id="path220" d="m311.85 893.11 0.0243 7.5854 4.8029 0.0116-0.0365-7.597h-4.7907" stroke="#000" stroke-width="1.1642" fill="none"/>
   <path id="path222" d="m338.5 903.48-0.0487-13.076-10.47-0.0116 0.0426 13.087h10.476" stroke="#000" stroke-width="1.1642" fill="none"/>
   <path id="path224" d="m330.83 893.13 0.0243 7.5848 4.7968 0.0244-0.0304-7.6092h-4.7908" stroke="#000" stroke-width="1.1642" fill="none"/>
   <path id="path226" d="m353.12 903.51-0.0731-13.101-10.464-0.0116 0.0487 13.087 10.488 0.025" stroke="#000" stroke-width="1.1642" fill="none"/>
   <path id="path228" d="m345.44 893.14 0.0365 7.6092h4.7968l-0.0243-7.6092h-4.809" stroke="#000" stroke-width="1.1642" fill="none"/>
   <path id="path230" fill="#fff" d="m355.72 899.49 0.11566 30.199-30.333-0.0487-0.10957-30.174 30.321 0.0237"/>
   <path id="path232" d="m355.72 899.49 0.11566 30.199-30.333-0.0487-0.10957-30.174 30.321 0.0237h0.006z" stroke="#000" stroke-width="1.1642" fill="none"/>
   <path id="path234" d="m325.21 908.11 30.54 0.0244" stroke="#000" stroke-width="1.1642" fill="none"/>
   <path id="path236" d="m329.02 929.68-0.10348-21.342" stroke="#000" stroke-width="1.1642" fill="none"/>
   <path id="path238" d="m352.14 929.69-0.10349-21.329" stroke="#000" stroke-width="1.1642" fill="none"/>
   <path id="path240" d="m366.79 886.63-17.081-12.474-19.193-0.0243-16.947 12.449 53.222 0.0487" stroke="#000" stroke-width="1.1642" fill="none"/>
   <path id="path242" d="m331.99 863.8 0.0304 7.6092 16.144 0.0122-0.0304-7.6092-16.144-0.0122" stroke="#000" stroke-width="1.1642" fill="none"/>
   <path id="path244" d="m336.37 865.69 0.0244 3.7918h7.4144l-0.0243-3.7918h-7.4144" stroke="#000" stroke-width="1.1642" fill="none"/>
   <path id="path246" d="m340.04 855.14 8.9788 6.3485-17.891-0.0237 8.9119-6.3248" stroke="#000" stroke-width="1.1642" fill="none"/>
   <path id="path248" fill="#fff" d="m376.34 850.84c2.5506-0.0609 3.208 10.507 3.2141 15.742 2.1914 0.61482 7.0491 3.6713 9.198 6.4343l-24.642-0.0365c2.1184-2.7265 6.9396-5.7952 9.1128-6.4094 0-5.2418 0.53569-15.803 3.1167-15.742"/>
   <path id="path250" d="m376.34 850.84c2.5506-0.0609 3.208 10.507 3.2141 15.742 2.1914 0.61482 7.0491 3.6713 9.198 6.4343l-24.642-0.0365c2.1184-2.7265 6.9396-5.7952 9.1128-6.4094 0-5.2418 0.53569-15.803 3.1167-15.742" stroke="#000" stroke-width="1.1642" fill="none"/>
   <path id="path252" d="m326.81 900.33h2.2097l-0.64526 1.1864s1.0653 1.3703 0.0183 2.9402l0.57829 1.0902h-2.1306l0.5783-1.0355s-1.0896-1.8195 0.0487-2.995l-0.65744-1.1864" stroke="#000" stroke-width="1.1642" fill="none"/>
   <path id="path254" d="m331.31 900.33h2.2097l-0.63917 1.1864s1.0653 1.3337 0.006 2.9402l0.57221 1.0902h-2.1245l0.57221-1.0355s-1.0653-1.8195 0.0548-2.995l-0.65135-1.1864" stroke="#000" stroke-width="1.1642" fill="none"/>
   <path id="path256" d="m336.23 900.33h2.2036l-0.65743 1.1864s1.0775 1.3703 0.0183 2.9402l0.5783 1.114-2.1123-0.0237 0.56612-1.0355s-1.0775-1.8079 0.0426-2.995l-0.64526-1.1864h0.006z" stroke="#000" stroke-width="1.1642" fill="none"/>
   <path id="path258" d="m341.77 900.35h2.2219l-0.65135 1.1992s1.0653 1.3459 0.006 2.9219l0.59656 1.1079h-2.1428l0.57221-1.0348s-1.0653-1.8323 0.0731-2.995l-0.66961-1.1992h-0.006z" stroke="#000" stroke-width="1.1642" fill="none"/>
   <path id="path260" d="m346.7 900.35h2.2036l-0.65135 1.1992s1.0714 1.3459 0.0122 2.9158l0.58438 1.114h-2.1245l0.55395-1.0348s-1.0714-1.8201 0.0852-2.995l-0.66352-1.1992" stroke="#000" stroke-width="1.1642" fill="none"/>
   <path id="path262" d="m351.6 900.36 2.2036-0.0122-0.65134 1.1992s1.0896 1.3459 0.0304 2.9219l0.55395 1.1079h-2.1306l0.57221-1.0348s-1.0653-1.8201 0.073-2.995l-0.65135-1.187" stroke="#000" stroke-width="1.1642" fill="none"/>
   <path id="path264" fill="#ff0" d="m340.7 968.4c11.359 0.0365 25.329-2.2828 31.873-5.6667l14.372-1.2729 0.2861 17.538c-12.175 6.7137-40.286 8.1564-46.471 8.1077-6.1908 0.0487-34.649-1.4177-46.879-8.1564l0.15827-17.55 14.403 1.2966c6.5439 3.3669 20.94 5.7038 32.287 5.7038h-0.0304"/>
   <path id="path266" d="m340.7 968.4c11.359 0.0365 25.329-2.2828 31.873-5.6667l14.372-1.2729 0.2861 17.538c-12.175 6.7137-40.286 8.1564-46.471 8.1077-6.1908 0.0487-34.649-1.4177-46.879-8.1564l0.15827-17.55 14.403 1.2966c6.5439 3.3669 20.94 5.7038 32.287 5.7038h-0.0304" stroke="#000" stroke-width=".27124" fill="none"/>
   <path id="path268" fill="#ff0" d="m256.88 893.59 12.662 4.0298-3.829 20.503-11.986 1.8621s-2.021-10.781 3.1532-26.407"/>
   <path id="path270" d="m256.88 893.59 12.662 4.0298-3.829 20.503-11.986 1.8621s-2.021-10.781 3.1532-26.407v0.0122z" stroke="#000" stroke-width=".27124" fill="none"/>
   <path id="path272" fill="#7e7e7e" d="m265.71 917.9-11.98 2.088 7.5788-10.781 4.4012 8.6927"/>
   <path id="path274" d="m265.71 917.9-11.98 2.088 7.5788-10.781 4.4012 8.6927" stroke="#000" stroke-width=".27124" fill="none"/>
   <path id="path276" fill="#ff0" d="m249.31 908.36 12.205 0.88206c0.27394 10.343 1.5279 49.813 48.656 51.956l-1.467 14.36c-57.367 0.59595-61.726-48.413-59.394-67.198"/>
   <path id="path278" d="m249.31 908.36 12.205 0.88206c0.27394 10.343 1.5279 49.813 48.656 51.956l-1.467 14.36c-57.367 0.59595-61.726-48.413-59.394-67.198z" stroke="#000" stroke-width=".27124" fill="none"/>
   <path id="path280" d="m294.11 978.5 14.384-3.1411" stroke="#000" stroke-width=".27124" fill="none"/>
   <path id="path282" fill="#ff0" d="m423.52 893.74-12.613 3.9933 3.9994 20.472 12.01 1.9291s1.9297-10.774-3.3967-26.406"/>
   <path id="path284" d="m423.52 893.74-12.613 3.9933 3.9994 20.472 12.01 1.9291s1.9297-10.774-3.3967-26.406v0.0116z" stroke="#000" stroke-width=".27124" fill="none"/>
   <path id="path286" fill="#7e7e7e" d="m414.9 917.99 12.01 2.1549-7.6822-10.786-4.3281 8.6312"/>
   <path id="path288" d="m414.9 917.99 12.01 2.1549-7.6822-10.786-4.3281 8.6312" stroke="#000" stroke-width=".27124" fill="none"/>
   <path id="path290" fill="#ff0" d="m431.23 908.52-12.223 0.83458c-0.17654 10.33-1.0775 49.818-48.206 51.912l1.601 14.348c57.355 0.66291 61.3-48.322 58.828-67.101"/>
   <path id="path292" d="m431.23 908.52-12.223 0.83458c-0.17654 10.33-1.0775 49.818-48.206 51.912l1.601 14.348c57.355 0.66291 61.3-48.322 58.828-67.101v0.005z" stroke="#000" stroke-width=".27124" fill="none"/>
   <path id="path294" d="m387.04 978.57-14.42-3.15" stroke="#000" stroke-width=".27124" fill="none"/>
   <path id="path296" fill="#009fc5" d="m333.07 977.04c-0.32263 0.20697-0.76092 0.26237-1.2662 0.23741l-2.2767-0.11566 0.19479-2.8422 2.2584 0.12113c0.44438 0.0304 0.79744 0.11627 1.0166 0.24959 0.45655 0.2374 0.65743 0.6763 0.61482 1.2844-0.0304 0.52351-0.21306 0.86501-0.54786 1.0653m-3.8229 4.4748 0.22524-3.4643 2.6541 0.18323c0.85832 0.067 1.4975-0.15827 1.9297-0.59717 0.45046-0.42611 0.68178-0.98554 0.71222-1.6186 0.0548-0.73718-0.13392-1.3398-0.57221-1.7842-0.42003-0.42611-1.0166-0.65134-1.7653-0.72378l-3.7924-0.23741-0.52351 8.1564 1.1262 0.0737"/>
   <path id="path298" fill="#009fc5" d="m337.5 974.69 2.7758 0.0304c0.40176 0.0365 0.71831 0.0852 0.94962 0.1948 0.42612 0.20088 0.627 0.60265 0.627 1.187 0 0.54847-0.15827 0.91371-0.46872 1.1329-0.29828 0.20027-0.73049 0.29158-1.2479 0.29158l-2.6663-0.0304 0.0243-2.8063m-0.0426 7.2257 0.0243-3.482 2.6054 0.0371c0.46264 0 0.80353 0.0359 1.0409 0.15157 0.3835 0.17654 0.57221 0.54847 0.59047 1.0592l0.067 1.3696c0.0183 0.32872 0.0244 0.53021 0.0426 0.66353 0.0365 0.0974 0.0548 0.20088 0.10349 0.27453h1.4001l-0.0243-0.17714c-0.15827-0.0852-0.28611-0.24897-0.34089-0.49916-0.0487-0.15827-0.0731-0.39568-0.0852-0.69396l-0.0243-1.0896c-0.0183-0.49308-0.10349-0.83336-0.2922-1.0227-0.16435-0.21914-0.38959-0.40785-0.73657-0.52351 0.3896-0.20636 0.68179-0.44377 0.89484-0.73657 0.20089-0.32263 0.30437-0.73048 0.30437-1.229 0-0.93746-0.3835-1.5772-1.1627-1.9236-0.42003-0.1887-0.95571-0.28671-1.5888-0.29828l-3.9142-0.0371-0.0304 8.1814h1.1262"/>
   <path id="path300" fill="#009fc5" d="m346.14 980.21c-0.49916-0.60812-0.767-1.369-0.82787-2.27-0.0548-1.1328 0.16435-1.9966 0.68178-2.5816 0.52351-0.63309 1.1992-0.93685 2.0819-0.98554 0.88875-0.0487 1.6192 0.2374 2.161 0.79683 0.55395 0.54847 0.87049 1.3094 0.92528 2.259 0.0304 0.9125-0.12784 1.7221-0.54786 2.4343-0.41394 0.72501-1.1018 1.1329-2.1184 1.1566-1.0592 0.0554-1.8506-0.19419-2.3558-0.80962m-1.3392-5.1499c-0.52351 0.80961-0.73657 1.7471-0.68179 2.8799 0.0791 1.223 0.45656 2.2341 1.1688 2.995 0.79135 0.76091 1.8384 1.1438 3.1289 1.0708 1.3818-0.0609 2.4228-0.58438 3.1289-1.5456 0.57221-0.87049 0.84614-1.8816 0.78527-3.1295-0.0791-1.114-0.40177-2.021-1.0044-2.6967-0.76091-0.90701-1.8749-1.3082-3.3846-1.2473-1.4244 0.0907-2.4715 0.61422-3.1472 1.6734"/>
   <path id="path302" fill="#009fc5" d="m383.24 963.29c0.78527-0.13392 1.467-0.0968 2.088 0.11566 0.9131 0.28611 1.5279 0.96241 1.9114 1.9966l-1.1262 0.15827c-0.2435-0.55942-0.59047-0.94293-1.0592-1.1566-0.45655-0.20028-1.0288-0.24958-1.6862-0.15158-0.767 0.11566-1.3818 0.49856-1.814 1.114-0.42612 0.65682-0.55395 1.534-0.36525 2.6535 0.15828 0.92589 0.49917 1.7106 1.0592 2.2341 0.51743 0.53569 1.2784 0.72439 2.2706 0.58438 0.74266-0.12174 1.3392-0.41941 1.7592-0.93136 0.43829-0.48638 0.56612-1.2236 0.42002-2.1732l-2.6236 0.40237-0.13392-0.90093 3.6524-0.56064 0.71222 4.3281-0.72439 0.10958-0.45046-0.99833c-0.30437 0.45107-0.60874 0.79805-0.87658 0.99833-0.45047 0.35367-1.0592 0.5789-1.8201 0.68847-0.98615 0.15158-1.8871-0.025-2.7028-0.54847-0.89484-0.66352-1.4731-1.6497-1.6923-3.0187-0.23741-1.3453-0.0244-2.4964 0.59656-3.4034 0.59047-0.87597 1.4488-1.3873 2.6054-1.5523"/>
   <path id="path304" fill="#009fc5" d="m391.5 962.66 2.6176-0.94963c0.35915-0.13331 0.66961-0.17653 0.93745-0.14548 0.4809 0.0359 0.83397 0.32202 1.0348 0.89423 0.18871 0.48698 0.18871 0.9131-0.0243 1.212-0.22523 0.30984-0.5783 0.53568-1.0896 0.72378l-2.4593 0.88267-1.0166-2.6176m2.6176 6.7636-1.2783-3.2811 2.4349-0.87719c0.45655-0.14609 0.77309-0.22523 1.0105-0.20027 0.4322 0.0542 0.76092 0.31654 0.98006 0.8151l0.55395 1.2485c0.12175 0.30985 0.21914 0.49855 0.29828 0.58439 0.0365 0.10957 0.11566 0.17653 0.17653 0.24897l1.321-0.48638-0.0731-0.17653c-0.1948 0-0.3835-0.10958-0.52351-0.32324-0.10349-0.15158-0.20089-0.37072-0.34089-0.62639l-0.43221-1.0233c-0.19479-0.44438-0.39567-0.7177-0.62699-0.88267-0.23132-0.12783-0.52352-0.21306-0.87049-0.2368 0.26784-0.31106 0.46263-0.62151 0.53568-0.98676 0.0791-0.37071 0.0426-0.78465-0.13392-1.2473-0.3348-0.87049-0.94963-1.3453-1.814-1.4062-0.45655-0.0365-0.98006 0.0609-1.5827 0.27332l-3.6768 1.3094 2.9706 7.6938 1.0775-0.39568"/>
   <path id="path306" fill="#009fc5" d="m403.69 965.37-4.669-6.8124 5.1256-3.2689 0.56612 0.8224-4.2003 2.6839 1.4366 2.0819 3.8776-2.4958 0.5296 0.79745-3.8776 2.4964 1.5827 2.2949 4.2733-2.7338 0.56612 0.80414-5.2169 3.3298"/>
   <path id="path308" fill="#009fc5" d="m407.78 953.32 1.3392-1.4731c0.62091-0.65744 1.2783-0.95572 1.9966-0.87049 0.7183 0.0609 1.4488 0.43828 2.228 1.1201 0.21305 0.16436 0.40176 0.37741 0.59656 0.61482 0.34089 0.44438 0.54177 0.83458 0.6696 1.2236 0.10958 0.48759 0.0852 0.93197-0.0852 1.3581-0.10348 0.21245-0.2861 0.46203-0.56003 0.76092l-1.3453 1.461-4.8394-4.2064m7.0735 3.2074c0.94963-1.0464 1.1566-2.1726 0.60265-3.4448-0.32263-0.68848-0.81571-1.3581-1.4975-1.9425-0.85832-0.76092-1.7532-1.1505-2.6967-1.223-1.047-0.0797-1.9358 0.29828-2.7089 1.1438l-2.2828 2.4471 6.2943 5.4914 2.2828-2.4593"/>
   <path id="path310" fill="#009fc5" d="m419.73 950.17-7.2439-4.2551 0.59047-0.93684 7.2561 4.2307-0.59656 0.97336"/>
   <path id="path312" fill="#009fc5" d="m422.57 945.23-7.8222-3.1295 2.3071-5.503 0.94962 0.36524-1.881 4.5351 2.3558 0.92588 1.7592-4.1765 0.90093 0.37194-1.741 4.1698 2.6358 1.0708 1.9297-4.5892 0.94962 0.35854-2.3497 5.601"/>
   <path id="path314" fill="#009fc5" d="m426.16 935.62-8.2301-1.8201 0.27393-1.2723 7.6031-2.5689-6.6778-1.4731 0.2435-0.99832 8.2301 1.7708-0.26175 1.2357-7.6153 2.6243 6.6778 1.4427-0.23741 1.0592"/>
   <path id="path316" fill="#009fc5" d="m425.51 925.17 0.10348-1.0348c0.47481 0.0128 0.87658-0.0609 1.181-0.22462 0.59656-0.32324 0.94353-0.93745 1.0348-1.8451 0.0365-0.4255 0.0183-0.79744-0.0791-1.1505-0.17653-0.68117-0.56004-1.0592-1.1749-1.1201-0.45655-0.0487-0.78527 0.0609-1.0227 0.31107-0.21306 0.2861-0.43829 0.69943-0.60874 1.2844l-0.37741 1.0775c-0.2435 0.70552-0.46873 1.1925-0.71222 1.4664-0.38959 0.51194-0.93746 0.68848-1.6375 0.63978-0.74874-0.0791-1.3575-0.37742-1.7897-0.94963-0.44438-0.52351-0.627-1.2722-0.51743-2.1981 0.073-0.84553 0.35307-1.5578 0.85223-2.13 0.46264-0.52351 1.181-0.7737 2.1001-0.67631l-0.0852 1.0348c-0.45047 0-0.80962 0.0791-1.0714 0.26176-0.47481 0.26175-0.73657 0.8157-0.8157 1.6253-0.067 0.67022 0.0243 1.1201 0.28002 1.4616 0.25566 0.28611 0.57829 0.46812 0.95571 0.49856 0.40176 0.0365 0.71831-0.0913 0.93745-0.40116 0.15827-0.21367 0.34698-0.6763 0.60265-1.425l0.37133-1.1322c0.18262-0.52352 0.40176-0.92528 0.65743-1.2114 0.45655-0.47481 1.0531-0.67569 1.8019-0.6203 0.9131 0.0968 1.5644 0.47482 1.8992 1.1688 0.32871 0.70005 0.45655 1.4731 0.37741 2.3497-0.10348 0.99163-0.42611 1.7714-1.0227 2.2949-0.59656 0.53508-1.3392 0.7177-2.2401 0.64465"/>
   <path id="path318" fill="#009fc5" d="m254.9 924.67 0.1887 1.0221c-0.45655 0.0913-0.82179 0.27454-1.0896 0.51195-0.48091 0.44985-0.64526 1.1262-0.48091 2.0454 0.073 0.38898 0.21306 0.77248 0.38959 1.0775 0.36525 0.62091 0.84006 0.86988 1.4427 0.77248 0.44438-0.0791 0.73657-0.24897 0.87658-0.56551 0.13392-0.31107 0.23132-0.78588 0.26176-1.394l0.0548-1.1511c0.0365-0.71222 0.11566-1.2716 0.27393-1.5827 0.24958-0.56004 0.71831-0.90702 1.4184-1.0221 0.74875-0.13453 1.4062 0.0359 1.9723 0.46203 0.57222 0.39568 0.94963 1.0836 1.0896 1.9966 0.17653 0.83458 0.0974 1.5833-0.23132 2.2584-0.31654 0.65804-0.92528 1.0592-1.8566 1.2296l-0.18262-1.0342c0.4322-0.15827 0.75483-0.31106 0.96789-0.52351 0.36524-0.40846 0.47481-0.99833 0.3348-1.8079-0.10957-0.65805-0.3348-1.0842-0.67569-1.2966-0.33481-0.25019-0.66961-0.34759-1.0348-0.2861-0.40786 0.0609-0.6757 0.2861-0.80353 0.65134-0.0791 0.24289-0.14001 0.74814-0.1948 1.5218l-0.0548 1.1925c-0.0304 0.56004-0.11566 1.0233-0.30437 1.3398-0.29828 0.58377-0.80353 0.94293-1.5401 1.0586-0.93137 0.15827-1.6497-0.0548-2.161-0.65135-0.52352-0.58439-0.84614-1.2844-1.0105-2.1549-0.18262-1.0348-0.0487-1.8384 0.36524-2.483 0.42002-0.66352 1.0836-1.047 1.9845-1.1749"/>
   <path id="path320" fill="#009fc5" d="m254.38 935.46 8.0475-2.4228 1.8749 5.6667-0.98006 0.31046-1.534-4.6568-2.4471 0.73717 1.4184 4.3032-0.93745 0.29828-1.4062-4.3153-2.7271 0.81509 1.5584 4.7603-0.9618 0.27454-1.9053-5.7708"/>
   <path id="path322" fill="#009fc5" d="m257.95 945.29 7.4022-3.9257 0.79136 1.3812-5.089 5.3812 7.4326-1.2723 0.767 1.3703-7.384 3.902-0.52351-0.90763 4.3585-2.2943c0.15827-0.0919 0.40176-0.22584 0.75483-0.41394 0.34698-0.15827 0.73657-0.37194 1.1262-0.57282l-7.4022 1.2601-0.54178-0.9618 5.0525-5.363-0.24349 0.12235c-0.15827 0.0907-0.43221 0.22524-0.80353 0.43768-0.36524 0.22584-0.63918 0.36524-0.81571 0.43829l-4.3464 2.3315-0.53569-0.92467"/>
   <path id="path324" fill="#009fc5" d="m271.74 956.19c-0.37133-0.0846-0.73657-0.29828-1.0957-0.66961l-1.5644-1.6132 2.1062-1.9297 1.5766 1.6077c0.30437 0.29828 0.49917 0.58986 0.60265 0.84005 0.1461 0.48029 0 0.91919-0.44438 1.3325-0.40176 0.37133-0.80353 0.52352-1.1809 0.43221m-5.9473 0.74874 2.581-2.368 1.8323 1.8566c0.59047 0.60265 1.1931 0.87658 1.8262 0.86501 0.64526-0.0371 1.1992-0.27454 1.6862-0.73717 0.54786-0.48699 0.80961-1.0592 0.80961-1.6734-0.006-0.59716-0.28001-1.1566-0.78526-1.6801l-2.6297-2.6851-6.1239 5.6247 0.79136 0.79744"/>
   <path id="path326" fill="#009fc5" d="m273.18 963.51 4.4377-6.9578 5.2473 3.1898-0.54786 0.82848-4.3098-2.581-1.3331 2.1062 3.9629 2.4039-0.51133 0.79805-3.969-2.3923-1.5097 2.3552 4.3646 2.6243-0.52351 0.82179-5.3082-3.1965"/>
   <path id="path328" fill="#009fc5" d="m286.31 962.17 2.6663 0.84675c0.37741 0.11505 0.65134 0.26115 0.83397 0.42612 0.34089 0.32263 0.4322 0.78465 0.23131 1.3447-0.16435 0.48699-0.41394 0.80353-0.80353 0.93806-0.34697 0.0603-0.78526 0.0603-1.2966-0.098l-2.5141-0.80292 0.88267-2.6547m-2.301 6.8361 1.1079-3.3176 2.4836 0.80962c0.44437 0.11626 0.767 0.27453 0.92527 0.43828 0.30437 0.27394 0.39568 0.68179 0.2435 1.1876l-0.37133 1.3203c-0.0852 0.32263-0.12783 0.53569-0.16436 0.63309 0 0.10409 0 0.21366 0.0183 0.2861l1.3088 0.42612 0.0791-0.18871c-0.14001-0.10957-0.21914-0.30985-0.21306-0.55943 0.0304-0.15279 0.073-0.39568 0.15827-0.6763l0.31655-1.0592c0.12783-0.46264 0.17653-0.80962 0.0609-1.0586-0.0974-0.26237-0.26176-0.49977-0.53569-0.7244 0.41394-0.0737 0.7731-0.20149 1.0775-0.42672 0.28611-0.24958 0.5296-0.59656 0.6757-1.0829 0.29828-0.88327 0.13392-1.6198-0.52351-2.1799-0.32872-0.29158-0.79745-0.54177-1.4123-0.77309l-3.7255-1.1499-2.6054 7.7608 1.0896 0.3348"/>
   <path id="path330" fill="#bc715f" d="m295.32 827.76c0.9618-2.3199 9.8737-8.6446 39.117-5.8749 0 0 4.9429 3.0193 7.8466 2.6303 1.6558-0.21367-0.97397 0.10288-3.135-1.6929-2.2036-1.7952-2.6724-5.478 2.3619-5.3806 5.0099 0.12784 23.765 1.187 24.118 2.8726 0.32872 1.7045-9.9163 2.4167-13.727 2.3193-3.8289-0.10288-3.3846 1.8329 0.42612 1.6868 11.907-0.42611 24.903-4.6209 38.63 5.089 1.6375 1.1803-4.1394 1.369-8.6075-0.53021 0 0-12.108 0.6276-17.343-0.23071 0 0-4.0237 3.2744-9.2649 2.9524 0.68178 1.6978-1.9358 8.0353-18.414 3.2683-2.721 0.83458-12.637 2.4958-11.554-0.44986-2.6115 0-7.1892 0.84006-7.8709-0.64586-0.65743-1.4604 8.0596-3.6707 9.5876-5.2528 0 0-18.439 0.17654-21.933-1.0963 0 0-10.878 2.441-10.239 0.32324"/>
   <path id="path332" fill="#008737" d="m301.23 853.58c0.39568-0.53508 0.55395-1.4975 1.394-1.4725 1.8262 0.48638 3.068 3.8283 5.3142 1.6612 0.79744-0.17654 1.1018 0.90762 1.7592 1.0354 0.42003 1.8566 1.9114-0.37741 3.0254-0.25019 2.3802-1.0592 5.3264-1.3088 8.1449-0.78526 0.0852 1.8201-1.3392 3.8289-3.1289 4.8638 0.0365 1.8329 1.6984 3.0078 1.6679 4.8516-0.2861 0.68848-0.0487 1.7714-1.0896 1.9966-1.321-0.2374-2.6236-0.37741-3.7194-1.114-0.13392-0.13392-0.24349-0.39568-0.52351-0.31046-0.13392 0.61483 0.82788 1.2242 1.2053 1.8506-0.66352 1.1322-1.7653 0.0974-2.6906 0.10957-0.27393 0.65135-0.0122 1.4731-0.68178 1.8932-1.1688-0.0365-1.4062-1.3082-2.1245-1.9419-0.73657 0.79744 0.51742 1.2723 0.69395 1.9053-0.45046 2.3984-0.38959 4.742-2.788 6.3126l-1.6071 0.79805c-0.43829-1.2053-0.16436-3.0321-0.45655-4.2922-0.94963 1.5462-1.6923 2.8982-3.0863 4.2064-1.6314-0.53569-2.581-2.4593-2.9402-4.0542-0.68178-1.8566-0.29219-4.0785 1.1749-5.4238-0.49916-0.97398-2.2097-0.74874-2.4532-2.136-2.5628-1.6685-3.9811 2.9219-5.6369 0.53508-0.53569-2.2274 0.10348-4.9977 1.7166-6.6596-0.35916-0.9125-1.5523-0.67509-2.2584-1.1986-1.6131-1.3703-3.9385-2.8184-3.8228-5.2905 4.4133-1.6673 9.6911-0.44377 12.899 2.9098"/>
   <path id="path334" fill="#ff0" d="m303.52 853.33c-0.10349 2.0204 1.3636 0.54726 2.4532 1.7708-0.85223-0.3348-1.4731 1.4731-2.3071 0.43829l-0.52351 0.49977c0.30437 0.69335 0.89484 0.78466 0.28002 1.5456-0.9131 0.34698-1.0957-0.79683-1.5218-1.2479-0.0731-0.20028 0.14001-0.5783-0.19479-0.71222-0.51743 0.43829-1.0592 0.59656-1.7714 0.52412-0.1948-0.3902-0.57221-0.90093-0.18871-1.1992 0.70004-0.94415 1.7836 0.34028 2.3132-0.32263 0.0852-0.58439-0.42611-1.2966 0.23741-1.699 0.45655 0.0791 1.0409-0.16984 1.2296 0.40237"/>
   <path id="path336" fill="#ff0" d="m308.98 854.99c0.0548 0.3902-0.20089 0.93746 0.31045 1.212 0.66352-0.35977 1.3696-0.0858 1.7532 0.57221-0.006 0.35245 0.10348 0.81509-0.35916 0.98554l-1.0348-0.19419c0.073-0.20149-0.25567-0.32871-0.38351-0.52351-0.45655-0.14001-0.72439 0.23071-1.0653 0.45594 0.25566 0.38959 0.84614 0.60265 0.70613 1.1024-0.60874 0.60813-0.90702-0.52351-1.5766-0.23801-0.45656-0.17593 0.16435-1.1256-0.55395-1.4117-0.85223 0-0.28611 1.3995-1.3757 0.85223-0.38959-0.4389-0.7731-1.0288-0.35307-1.5218 0.45655-0.30497 1.2296-0.22584 1.6192 0.16984 0.66353-0.73596 0.73049-3.5788 2.3193-1.461"/>
   <path id="path338" fill="#ff0" d="m302.18 857.92c0.44438 0.63978-0.0974 1.5097 0.46872 2.2219 0.88876-1.6612 1.7471 0.35915 2.8063 0.20088 0.32263 0.39568 0.10957 0.94415 0.17045 1.394-1.3088 0.34698-2.8854 0.76092-4.042-0.2861l-0.32263 0.37133c0.68787 0.63978 1.3392 1.3636 0.79135 2.4349-0.98006 0.21305-2.4958 0.2374-2.9889-0.7731-0.25567-0.83336 0.59656-1.436-0.30437-2.1062-0.65135 0.80962-0.62091 1.8938-1.9784 1.1566-0.84005-0.46264-1.0896-1.4178-0.66961-2.2219 0.87658-1.3818 2.4106 0.0432 3.3602-0.63308 0.13392-1.187-0.30437-2.2219 0.78527-2.8787 0.93136-0.16496 1.3636 0.53508 1.9297 1.1195"/>
   <path id="path340" fill="#fff" d="m305.89 858.65c-0.43829 2.021-1.9601-0.10348-2.6723-0.18871 0.94962-1.6856 1.5462 0.54847 2.6723 0.18871"/>
   <path id="path342" fill="#fff" d="m310.63 860.85c-1.0592 0.29767-0.89484-1.0233-1.4184-1.5407l0.40786-0.37132c0.3835 0.46263 0.67569 1.2972 1.0105 1.912"/>
   <path id="path344" fill="#ff0" d="m309.2 860.44c0.30437 0.70004-0.68787 1.2607 0.15827 1.7714 0.26785-0.22463 0.59656-0.53569 0.73657-0.66352 0.7244 0.21366 1.5644 0.3415 2.0697 1.0592 0.54177 1.4859-0.9618 1.4488-1.814 1.8627l-0.84614-0.0365c0.20088-0.41394-0.36524-0.59047-0.50525-0.87597-0.38959-0.0974-0.71222 0.0237-0.93137 0.35246 0.18871 0.94414 1.3392 1.6801 0.15219 2.5202-1.0044-0.0663-2.5628 0.32263-2.4715-1.0653-0.37742-0.78526 1.0227-1.9966-0.47482-2.0447-0.49307 1.0592-1.0348 2.0813-2.3193 1.0775l0.15827-1.5097c1.2296 0.0359 2.6845 0.24897 3.2385-1.1262 0.35307-0.99832-0.61482-1.9175 0.24958-2.7089 1.254-0.2861 1.9601 0.55395 2.5993 1.3873"/>
   <path id="path346" d="m308.3 862.71c0.31655 0.74935-0.53568 0.79805-0.93745 1.1688-0.54177 0.0432-0.91919-0.17045-1.2479-0.53569-0.2435-0.90701 0.4322-0.99832 0.94962-1.3569 0.60265-0.25019 0.85223 0.44986 1.2357 0.72379"/>
   <path id="path348" fill="#fff" d="m307.56 863.2c-0.13392 0.17653-0.32262 0.12235-0.52351 0.17044l-0.1887-0.9064c0.40176 0.0359 0.92527 0.16375 0.71221 0.73596"/>
  </g>
 </g>
</svg>
