<?xml version="1.0" encoding="UTF-8" standalone="no"?>
<!-- Created with Sodipodi ("http://www.sodipodi.com/") -->
<svg id="svg378" xmlns:rdf="http://www.w3.org/1999/02/22-rdf-syntax-ns#" xmlns="http://www.w3.org/2000/svg" height="480" width="640" version="1.1" xmlns:cc="http://creativecommons.org/ns#" xmlns:dc="http://purl.org/dc/elements/1.1/">
 <metadata id="metadata3619">
  <rdf:RDF>
   <cc:Work rdf:about="">
    <dc:format>image/svg+xml</dc:format>
    <dc:type rdf:resource="http://purl.org/dc/dcmitype/StillImage"/>
   </cc:Work>
  </rdf:RDF>
 </metadata>
 <g id="flag" fill-rule="evenodd">
  <rect id="rect171" height="480" width="640" y="-.0000012424" x="0" stroke-width="1pt" fill="#d61517"/>
  <rect id="rect403" height="480" width="213.33" y=".0000085924" x="213.33" stroke-width="1pt" fill="#018edf"/>
  <path id="path226" d="m102.54 244.2c9.9123 0.28641 11.437-3.1522 11.437-6.5908v-11.748c0-1.4326 3.8122-2.8652 3.8122-5.4446 0-2.5788-1.9061-5.444-2.6682-7.1636-1.144 4.2984-3.05 8.5967-6.4819 10.029-1.525-3.4386-1.9061-4.5848-1.1432-6.3044 0.76213-1.719 0-4.2978-1.525-6.8766-1.144 5.444-4.5751 6.8772-4.9561 8.5962-0.38181 1.719-1.525 6.5908-3.8129 4.0114-2.2872-2.5788-3.8122-5.7304-4.9561-9.169-2.2879 6.8766-1.144 8.3098-0.38107 9.456 0.76214 1.1462 1.525 4.5848 1.525 6.0174s-1.525 7.1636-0.76289 8.8831c0.76289 1.719 1.144 6.8766 9.913 6.3038z" fill-opacity=".86667" stroke-width="1pt" fill="#ffd700"/>
  <path id="path227" d="m221.01 236.08a39.212 39.212 0 1 1 -78.424 0 39.212 39.212 0 1 1 78.424 0z" fill-opacity=".86667" transform="matrix(.63753 0 0 .47916 -10.775 155.89)" stroke-width="1pt" fill="#ffd700"/>
  <path id="path232" d="m140 276.43c-13.198 18.438-38.615 23.562-57.462 11.202-4.968-3.2571-8.6015-6.9044-12.058-11.575 3.1169 13.254 12.565 22.638 25.64 25.988 19.245 4.9294 38.903-6.5459 43.879-25.615z" fill-opacity=".86667" stroke-width="1pt" fill="#ffd700"/>
  <rect id="rect233" fill-opacity=".86667" height="15.473" width="74.379" y="421.71" x="66.874" stroke-width="1pt" fill="#ffd700"/>
  <path id="path235" d="m70.513 312.35 33.169 20.127 33.55-20.127h-66.719z" fill-opacity=".86667" stroke-width="1pt" fill="#ffd700"/>
  <rect id="rect249" fill-opacity=".86667" height="15.474" width="67.1" y="334.14" x="70.513" stroke-width="1pt" fill="#ffd700"/>
  <path id="path250" d="m70.513 447.09 33.169 15.76 33.55-15.76h-66.719z" fill-opacity=".86667" stroke-width="1pt" fill="#ffd700"/>
  <rect id="rect251" fill-opacity=".86667" height="149.61" width="32.377" y="312.58" x="20.316" stroke-width="1pt" fill="#ffd700"/>
  <rect id="rect612" fill-opacity=".86667" height="149.61" width="32.377" y="312.58" x="153.51" stroke-width="1pt" fill="#ffd700"/>
  <path id="path633" d="m81.153 365.13c9.8998-7.3268 24.689-12.815 30.008-6.8765 5.346 6.1435 6.616 11.632 5.4449 16.569-1.582 4.285-8.6891 9.4025-13.942 6.6861-6.0348-2.8469-15.663 7.0236-16.769 12.474-1.4424 5.8147-1.584 12.728 0.07625 19.142-15.812-18.435-16.887-39.764-4.8174-47.994zm26.885 9.1098c-2.7273 1.6039-6.6948-0.0261-8.8557-3.6374-2.1617-3.6117-0.50256-4.9558 2.2238-6.56 2.728-1.6026 5.496-2.861 7.6573 0.75008 2.1612 3.612 1.7017 7.8444-1.0255 9.4474zm15.275 32.746c-9.7756 7.5071-25.881 10.406-31.252 4.5319-5.4022-6.0801-0.92924-13.755 0.17751-18.728 1.5238-4.324 8.5612-8.1102 13.828-5.4675 6.0479 2.7616 15.759-8.0726 14.611-15.015 1.3668-5.8562-0.5086-6.8526-3.359-15.444 15.98 18.248 17.921 41.674 5.9942 50.123zm-21.785-11.558c2.6979-1.6518 5.9434-0.80686 8.1411 2.7828 2.1977 3.5896 2.0478 6.4106-0.6498 8.063-2.6983 1.6511-6.9279 1.5114-9.1256-2.0782s-1.0636-7.1158 1.6343-8.7676z" fill-opacity=".86667" stroke-width=".625" fill="#ffd700"/>
 </g>
</svg>
