<?xml version="1.0" encoding="UTF-8" standalone="no"?>
<!-- Created with Sodipodi ("http://www.sodipodi.com/") -->
<svg id="svg672" xmlns:rdf="http://www.w3.org/1999/02/22-rdf-syntax-ns#" xmlns="http://www.w3.org/2000/svg" height="480" width="640" version="1.1" xmlns:cc="http://creativecommons.org/ns#" xmlns:dc="http://purl.org/dc/elements/1.1/">
 <metadata id="metadata3636">
  <rdf:RDF>
   <cc:Work rdf:about="">
    <dc:format>image/svg+xml</dc:format>
    <dc:type rdf:resource="http://purl.org/dc/dcmitype/StillImage"/>
   </cc:Work>
  </rdf:RDF>
 </metadata>
 <defs id="defs674">
  <clipPath id="clipPath8657" clipPathUnits="userSpaceOnUse">
   <rect id="rect8659" fill-opacity="0.67" height="480" width="640" y="32" x="-88"/>
  </clipPath>
 </defs>
 <g id="flag" fill-rule="evenodd" clip-path="url(#clipPath8657)" transform="translate(88 -32)">
  <rect id="rect681" height="480" width="720" y="32" x="-128" fill="#199d00"/>
  <path id="path678" stroke-linejoin="round" d="m230.79 300.78c-11.285 7.8571-23.091 14.804-34.377 22.661-14.142 1.0005-27.856 1.1428-42.426 0.42866 0 0-30.427-5.1419-38.141-18.427-0.42866-1.286 9.8562-6.0002 9.8562-6.0002 15.571 11 32.856 20.714 65.14 19.286-39.855-3.5715-66.854-25.57-74.996-45.855 21.57-15.142 57.283-14.857 86.567 5.9992-9.1421-11.428-39.712-24.141-62.568-20.57-3.286-3.4292-6.1424-7.7148-9.4285-11.143 26.284-5.857 62.855 11 76.282 24.856-14.142-22.713-24.428-48.426-7.7139-79.711 3.2851 3.1428 6.9998 6.2856 10.285 9.4285-12.57 22.998-7.9993 49.855 2.1433 68.567-17.571-36.284-3.4292-72.139 19.712-89.567 26.999 16.285 34.713 59.569 18.857 90.425 8.9989-5.1429 16.285-43.713 3.8569-69.426 2.8574-3.4283 5.7138-6.8566 8.5712-10.285 18.714 25.284 7.4284 65.996-8.1425 81.424 11.856-10.286 42.568-30.427 78.425-25.713-2.8574 3.4283-7.4284 6.4279-10.286 9.8562-29.427-1.1428-53.282 11.428-63.853 22.284 25.856-17.141 61.568-25.714 87.852-6.4279-12.142 32.427-46.57 42.141-74.996 44.997 24.141 1.8568 46.57-5.2851 64.711-17.999 3.4283 1.8569 6.8566 3.7147 10.285 5.5716-7.7139 7.2852-18.856 14.57-34.712 16.713-15.285 2.0001-29.713 1.4292-44.997 1.7146-11.856-7.7139-24.05-15.376-35.906-23.089z" stroke-width="1pt" fill="#feffff"/>
  <path id="path683" d="m230.79 308.36-29.394 22.121-78.787-0.30286c0.96762 3.1748 3.9798 7.232 5.7573 9.0908l78.182 0.30384 24.243-18.788 23.333 18.484h79.091c2.2729-2.4239 4.6968-5.7573 6.8178-8.636l-80.152 0.15192-29.09-22.425z" stroke-width="1pt" fill="#fff"/>
  <path id="path687" stroke-linejoin="round" d="m185.64 384.34c22.627 11.168 70.708 10.252 92.425-0.27384l-92.425 0.27384z" stroke-width=".95194pt" fill="#fff"/>
  <path id="path688" stroke-linejoin="round" d="m133.6 346.85c0.90956 0 194.31-0.15192 194.31-0.15192-3.3838 3.8386-7.3742 7.98-11.516 11.515l-172.84-0.75668c-3.2444-2.2497-7.56-7.499-9.9471-10.606z" stroke-width="1pt" fill="#fff"/>
  <path id="path689" stroke-linejoin="round" d="m146.95 360.79 166.87 0.45575c-3.1312 2.4239-5.6557 5.3026-9.2417 7.1207l-148.33-0.12579c-3.4244-1.8404-6.9369-4.9668-9.2901-7.4507z" stroke-width="1pt" fill="#fff"/>
  <path id="path690" stroke-linejoin="round" d="m162.15 373.21 136.36-0.33286c-3.6363 2.3349-7.7274 4.8216-12.272 7.0056h-111.82c-3.7882-1.315-8.1822-4.1453-12.272-6.6727z" stroke-width="1.0493pt" fill="#fff"/>
  <polygon id="polygon564" transform="matrix(.67029 .26243 -.26243 .67029 199.1 40.067)" d="m 205.58449,128.73621 -10.01635,-6.84893 -9.90282,7.01206 3.41849,-11.64254 -9.72901,-7.2513 12.12909,-0.34657 3.88997,-11.493607 4.0777,11.428357 12.13314,0.14786 -9.60893,7.40967 z" points="205.58 128.74 195.57 121.89 185.66 128.9 189.08 117.26 179.36 110.01 191.48 109.66 195.37 98.165 199.45 109.59 211.58 109.74 201.98 117.15" stroke-width="1pt" fill="#feb700"/>
  <polygon id="polygon714" transform="matrix(.97279 0 0 .97279 41.481 44.793)" d="m 205.58449,128.73621 -10.01635,-6.84893 -9.90282,7.01206 3.41849,-11.64254 -9.72901,-7.2513 12.12909,-0.34657 3.88997,-11.493607 4.0777,11.428357 12.13314,0.14786 -9.60893,7.40967 z" points="205.58 128.74 195.57 121.89 185.66 128.9 189.08 117.26 179.36 110.01 191.48 109.66 195.37 98.165 199.45 109.59 211.58 109.74 201.98 117.15" stroke-width="1pt" fill="#feb700"/>
  <polygon id="polygon715" transform="matrix(.70551 -.14287 .14287 .70551 180.56 166.7)" d="m 205.58449,128.73621 -10.01635,-6.84893 -9.90282,7.01206 3.41849,-11.64254 -9.72901,-7.2513 12.12909,-0.34657 3.88997,-11.493607 4.0777,11.428357 12.13314,0.14786 -9.60893,7.40967 z" points="205.58 128.74 195.57 121.89 185.66 128.9 189.08 117.26 179.36 110.01 191.48 109.66 195.37 98.165 199.45 109.59 211.58 109.74 201.98 117.15" stroke-width="1pt" fill="#feb700"/>
  <polygon id="polygon716" transform="matrix(-.67029 .26243 .26243 .67029 262.73 39.932)" d="m 205.58449,128.73621 -10.01635,-6.84893 -9.90282,7.01206 3.41849,-11.64254 -9.72901,-7.2513 12.12909,-0.34657 3.88997,-11.493607 4.0777,11.428357 12.13314,0.14786 -9.60893,7.40967 z" points="205.58 128.74 195.57 121.89 185.66 128.9 189.08 117.26 179.36 110.01 191.48 109.66 195.37 98.165 199.45 109.59 211.58 109.74 201.98 117.15" stroke-width="1pt" fill="#feb700"/>
  <polygon id="polygon717" transform="matrix(-.70551 -.14287 -.14287 .70551 279.36 166.39)" d="m 205.58449,128.73621 -10.01635,-6.84893 -9.90282,7.01206 3.41849,-11.64254 -9.72901,-7.2513 12.12909,-0.34657 3.88997,-11.493607 4.0777,11.428357 12.13314,0.14786 -9.60893,7.40967 z" points="205.58 128.74 195.57 121.89 185.66 128.9 189.08 117.26 179.36 110.01 191.48 109.66 195.37 98.165 199.45 109.59 211.58 109.74 201.98 117.15" stroke-width="1pt" fill="#feb700"/>
 </g>
</svg>
