<?xml version="1.0" encoding="UTF-8" standalone="no"?>
<!-- Created with Inkscape (http://www.inkscape.org/) -->
<svg id="svg559" xmlns:rdf="http://www.w3.org/1999/02/22-rdf-syntax-ns#" xmlns="http://www.w3.org/2000/svg" height="480" width="640" version="1.0" y="0" x="0" xmlns:cc="http://creativecommons.org/ns#" xmlns:dc="http://purl.org/dc/elements/1.1/">
 <metadata id="metadata3">
  <rdf:RDF>
   <cc:Work rdf:about="">
    <dc:title/>
    <dc:description/>
    <dc:subject>
     <rdf:Bag>
      <rdf:li>micronesia</rdf:li>
      <rdf:li/>
      <rdf:li>oceania</rdf:li>
      <rdf:li>flag</rdf:li>
      <rdf:li>sign</rdf:li>
     </rdf:Bag>
    </dc:subject>
    <dc:publisher>
     <cc:Agent rdf:about="http://www.openclipart.org">
      <dc:title/>
     </cc:Agent>
    </dc:publisher>
    <dc:creator>
     <cc:Agent>
      <dc:title/>
     </cc:Agent>
    </dc:creator>
    <dc:rights>
     <cc:Agent>
      <dc:title/>
     </cc:Agent>
    </dc:rights>
    <dc:date/>
    <dc:format>image/svg+xml</dc:format>
    <dc:type rdf:resource="http://purl.org/dc/dcmitype/StillImage"/>
    <cc:license rdf:resource=""/>
    <dc:language>en</dc:language>
   </cc:Work>
  </rdf:RDF>
 </metadata>
 <defs id="defs561">
  <clipPath id="clipPath4082" clipPathUnits="userSpaceOnUse">
   <rect id="rect4084" fill-opacity="0.67" height="480" width="640" y="0" x="0"/>
  </clipPath>
 </defs>
 <g id="flag" clip-path="url(#clipPath4082)">
  <rect id="rect828" fill-rule="evenodd" height="480" width="960" y="3.7061e-7" x="-160" fill="#0071bc"/>
  <g id="g3950" transform="matrix(.87024 0 0 .87024 -111.69 24.153)">
   <path id="path588" d="m553.43 392.43s17.493-18.502 34.313-14.97c5.0462-19.511 24.053-21.025 24.053-21.025s-1.8502-21.53 22.539-26.239c0.67284-14.634 15.475-26.744 15.475-26.744s-3.0277-22.707 12.447-27.921c-9.4193-17.998 3.1958-31.118 3.0277-31.454-0.16816-0.33632-15.979-28.426-1.8503-36.5-14.97-12.615-10.092-26.912-10.092-26.912s-16.316-4.2052-10.429-23.717c-13.456-2.3547-16.147-24.053-16.147-24.053s-20.689 4.2049-23.212-13.793c-13.624 2.1868-15.138-11.269-15.306-11.269-0.16816 0-27.081 7.2326-32.463-13.12-10.428 5.3826-14.97-4.2051-14.97-4.2051s-14.97 7.4009-23.885-6.8962c-17.829 11.101-27.753-0.50469-27.753-0.50469s-23.38 15.475-31.117 3.5323c-13.793 13.961-26.071 7.9056-26.071 7.9056s-10.429 18.502-27.249 13.792c-3.8687 17.157-23.212 17.493-23.212 17.493s2.0184 15.138-21.193 19.175c-3.0276 17.829-15.138 20.857-15.138 20.857s1.1774 17.325-9.7557 22.875c3.8687 9.7559-6.2235 21.698-6.2235 21.698s10.765 13.456-3.8686 28.594c14.129 3.7003 3.8686 28.09 3.8686 28.09s19.511 8.7465 7.2327 24.894c13.961 4.5415 9.5875 15.643 9.7557 22.203 8.9147 4.0366 16.82 2.0183 12.952 20.016 27.417 3.0277 14.465 18.166 14.465 18.166s12.783 0.50467 7.7373 10.597c23.38-0.50449 26.744 17.493 26.744 17.493s21.698-5.719 24.558 2.6912c2.8594 8.4102-9.4193 65.094-9.4193 65.094s-18.334 0-31.958-14.633c-31.958-0.841-24.894-21.866-25.399-21.866-0.5046 0-10.597 3.8687-15.811-13.624-21.362 4.3733-20.689-13.624-20.857-13.792-0.16819-0.16817-9.5875-4.3733-6.0553-13.288-22.034 2.0181-20.352-19.511-20.352-19.511-4.8218-1.9624-6.616-6.4477-5.8871-10.933-2.8594-1.0094-22.371-1.3457-12.279-27.08-18.67-11.27-7.0645-24.221-7.0645-24.221s-25.735-13.288-5.8871-28.594c-14.802-21.866 1.1774-32.799 1.1774-32.799s-20.521-20.857 0.33642-35.659c-3.364-31.622 15.475-39.191 15.475-39.191s-9.9239-25.735 16.988-36.5c1.682-26.071 20.521-26.744 20.521-26.744s0.5046-20.689 30.108-18.67c5.7188-18.502 25.903-14.802 25.903-14.802s6.2235-22.371 33.64-11.606c13.961-27.249 34.65-13.288 34.65-13.288s13.12-8.5784 19.68-5.8872c8.3297-14.315 26.063-0.55493 37.529 2.2153 4.1555-1.616 18.987-12.812 30.425 1.317 15.138-9.924 28.09 7.9055 28.09 7.9055s20.857-10.596 30.613 13.624c44.237-4.037 37.845 24.894 37.845 24.894s34.818-7.9055 27.249 26.744c31.622 2.1866 28.426 23.044 28.426 23.044s20.016 15.138 11.269 28.762c17.829 0.84111 11.269 17.998 11.269 17.998s13.624 5.2143 2.3548 26.408c26.071 20.857 5.0462 41.546 4.878 41.378-0.16835-0.16816 13.961 16.82 1.1773 36.332 3.8687 30.949-11.774 38.855-11.774 38.855s4.0368 20.016-13.456 25.735c-0.33632 23.548-22.539 26.408-22.539 26.408s5.8872 10.229-16.147 20.994c-0.86903 15.757-23.885 17.02-23.885 17.02s-2.1865 28.931-31.454 21.193c-7.1033 23.212-41.378 16.316-42.05 15.979-0.67283-0.33651-6.5598-49.788-6.5598-49.956z" fill-rule="evenodd" stroke="#000" stroke-width="2.1344" fill="#fff"/>
   <path id="path711" stroke-linejoin="round" d="m340.86 114.83c0.0856 0 7.4178 6.3592 6.0485 15.944-1.3691 9.5845-6.9043 22.908-5.7919 32.834 0.68009 3.9794 0.42257 11.11 0.42257 11.11s-6.647-9.4449-6.7326-19.543 7.1978-19.686 7.1978-27.131-1.3156-13.385-1.1444-13.214z" fill-rule="evenodd" stroke="#000" stroke-width="2.1344" fill="#217900"/>
   <path id="path712" stroke-linejoin="round" d="m337.22 117.69s-9.6217 9.1851-10.861 18.112c-0.9149 4.6011-1.27 26.041-1.3782 35.556-0.21625 2.9195-1.4263 14.444-1.6831 18.637-0.25665 4.1931 7.0778-7.1578 7.497-16.4-0.22952-9.5666-0.23009-29.717 0.74307-32.745 0.86505-3.8928 0.67662-8.1937 2.0148-12.098 1.7705-5.4178 3.7528-10.976 3.6672-11.062z" fill-rule="evenodd" stroke="#000" stroke-width="2.1344" fill="#217900"/>
   <g id="g771" fill-rule="evenodd" stroke="#ef8a10" fill="#ffd200" transform="matrix(1.9196 0 0 1.9196 249.65 5.1721)">
    <path id="path747" d="m155.88 42.98s6.4988-2.9978 8.3564-8.5807-5.6242-5.6367-6.6127-3.8621c-0.9884 1.7746 0.8431 6.1929 0.3714 7.361-0.4718 1.168-3.1156 3.9879-2.1151 5.0818z" stroke-width="1.1119"/>
    <path id="path748" d="m98.281 45.017s4.2188-5.7813 3.125-11.563c-1.0938-5.7812-7.6563-2.1876-7.6563-0.15625 0 2.0313 3.75 5.0001 3.9063 6.2501 0.1562 1.25-0.7813 5 0.625 5.4688z" stroke-width="1.1119pt"/>
    <path id="path749" d="m86.875 48.455s4.2188-5.7813 3.125-11.563c-1.0938-5.7812-7.6563-2.1876-7.6563-0.15625 0 2.0313 3.75 5.0001 3.9063 6.2501 0.1562 1.25-0.7813 5 0.625 5.4688z" stroke-width="1.1119pt"/>
    <path id="path750" d="m74.219 52.361s4.2188-5.7813 3.125-11.563c-1.0938-5.7812-7.6563-2.1876-7.6563-0.15625 0 2.0313 3.75 5.0001 3.9063 6.2501 0.1562 1.25-0.7813 5 0.625 5.4688z" stroke-width="1.1119pt"/>
    <path id="path751" d="m65.313 61.267s4.2188-5.7813 3.125-11.563c-1.0938-5.7812-7.6563-2.1876-7.6563-0.15625 0 2.0313 3.75 5.0001 3.9063 6.2501 0.1562 1.25-0.7813 5 0.625 5.4688z" stroke-width="1.1119pt"/>
    <path id="path753" d="m55.938 69.861s4.2188-5.7813 3.125-11.563c-1.0938-5.7812-7.6563-2.1876-7.6563-0.15625 0 2.0313 3.75 5.0001 3.9063 6.2501 0.1562 1.25-0.7813 5 0.625 5.4688z" stroke-width="1.1119pt"/>
    <path id="path755" d="m77.493 19.798s-5.6182 4.4338-6.1194 10.296c-0.50122 5.8624 6.786 4.166 7.3322 2.2095 0.54628-1.9565-2.2672-5.8244-2.0816-7.0703 0.18571-1.246 2.0972-4.6057 0.86872-5.4354z" stroke-width="1.1119"/>
    <path id="path756" d="m96.243 14.016s-5.6182 4.4338-6.1194 10.296c-0.50122 5.8624 6.786 4.166 7.3322 2.2095 0.54628-1.9565-2.2672-5.8244-2.0816-7.0703 0.18571-1.246 2.0972-4.6057 0.86872-5.4354z" stroke-width="1.1119"/>
    <path id="path757" d="m26.37 64.632s1.1868 7.0579 6.0863 10.316c4.8995 3.2579 6.9154-3.9474 5.4625-5.367s-6.1971-0.81214-7.2004-1.5739c-1.0032-0.76186-3.0303-4.0531-4.3484-3.3749z" stroke-width="1.1119"/>
    <path id="path758" d="m17.006 88.597s0.05808 7.1567 4.382 11.147c4.324 3.9903 7.4517-2.8067 6.241-4.4378s-5.9913-1.7799-6.8618-2.6905c-0.87044-0.91064-2.3527-4.4806-3.7613-4.0188z" stroke-width="1.1119"/>
    <path id="path759" d="m38.61 115.37s-2.5544-6.6857-7.9998-8.9142c-5.4455-2.2285-6.0019 5.2328-4.2977 6.3383 1.7042 1.1054 6.2356-0.4251 7.3694 0.1241 1.1337 0.5492 3.7696 3.3764 4.9282 2.4518z" stroke-width="1.1119"/>
    <path id="path760" d="m34.122 103.8s4.3306-5.6981 3.3496-11.5c-0.98108-5.8014-7.6123-2.3362-7.6519-0.30525-0.0395 2.0309 3.652 5.0721 3.7839 6.3249 0.13184 1.2528-0.87842 4.9837 0.5184 5.4798z" stroke-width="1.1119"/>
    <path id="path761" d="m169.16 48.761s6.4988-2.9978 8.3564-8.5807-5.6242-5.6367-6.6127-3.8621c-0.9884 1.7746 0.8431 6.1929 0.3714 7.361-0.4718 1.168-3.1156 3.9879-2.1151 5.0818z" stroke-width="1.1119"/>
    <path id="path762" d="m188.81 58.563s3.8227-6.0505 2.3447-11.746c-1.478-5.6952-7.7854-1.6707-7.6496 0.35612 0.1359 2.0268 4.076 4.7381 4.3156 5.9748 0.2394 1.2368-0.4452 5.0411 0.9893 5.4147z" stroke-width="1.1119"/>
    <path id="path763" d="m242.45 114.25s-2.5635-6.682-8.012-8.903c-5.4486-2.2211-5.9948 5.2409-4.2891 6.3441 1.7058 1.103 6.235-0.4336 7.3696 0.1139 1.1345 0.5477 3.7741 3.3714 4.9315 2.445z" stroke-width="1.1119"/>
    <path id="path765" d="m216.22 118.4s0.1487-7.1553 4.5228-11.091c4.3742-3.9354 7.4155 2.9005 6.1843 4.5163-1.2313 1.6156-6.0131 1.7039-6.8953 2.6034-0.8819 0.8996-2.409 4.4505-3.8118 3.9709z" stroke-width="1.1119"/>
    <path id="path766" d="m212 42.52s-6.6904-2.5414-11.977 0.04102c-5.287 2.5825-0.0872 7.9621 1.8721 7.4255 1.9591-0.53675 3.8315-4.9376 4.9959-5.4188 1.1644-0.48092 5.0288-0.56733 5.1093-2.0477z" stroke-width="1.1119"/>
    <path id="path767" d="m196.69 29.707s-6.6904-2.5414-11.977 0.04102c-5.287 2.5825-0.0872 7.9621 1.8721 7.4255 1.9591-0.53675 3.8315-4.9376 4.9959-5.4188 1.1644-0.48092 5.0288-0.56733 5.1093-2.0477z" stroke-width="1.1119"/>
    <path id="path768" d="m173.86 17.489s-5.672 4.3645-6.2451 10.22c-0.573 5.856 6.7342 4.249 7.3045 2.2992 0.5702-1.9496-2.1955-5.8515-1.9947-7.0953 0.201-1.2437 2.1536-4.5796 0.9353-5.4243z" stroke-width="1.1119"/>
    <path id="path769" d="m158.99 13.912s-2.5866 6.6731-0.0399 11.977c2.5467 5.3043 7.9613 0.14106 7.4379-1.8218-0.5234-1.9627-4.9116-3.8648-5.3848-5.0325-0.4731-1.1676-0.5334-5.0325-2.0132-5.123z" stroke-width="1.1119"/>
    <path id="path770" d="m116.82 39.627s4.6265-5.4604 3.9542-11.306c-0.6722-5.8455-7.4775-2.7366-7.6247-0.71046-0.1472 2.026 3.3778 5.2584 3.4432 6.5166 0.0653 1.2581-1.1415 4.9302 0.2273 5.4996z" stroke-width="1.1119"/>
   </g>
   <path id="path564" d="m522.23 103.74s21.288 1.3398 22.33 13.547-5.0615 19.651-5.0615 19.651 2.6796 26.35-18.162 34.091c-22.33 2.6797-57.314 0.59551-57.314 0.59551s-10.272 2.5309-14.44-18.757c-4.1683-21.288-5.3593-36.324-5.3593-36.324s2.0842-11.91 17.12-12.654c15.036-0.74428 60.738 0.14895 60.887-0.14879z" fill-rule="evenodd" stroke="#000" stroke-width="2.1344" fill="#8c8a8c"/>
   <path id="path565" d="m539.35 136.79s-11.463 14.291-10.272 20.097" stroke="#000" stroke-linecap="round" stroke-width="2.1344" fill="none"/>
   <path id="path566" d="m524.02 170.28c2.8286 2.3818 5.508 5.0614 6.1035 13.845 0.59547 8.7833 1.1909 17.567 1.1909 17.567l14.887 133.98 13.1 96.914 0.89321 15.036s-3.1261 11.016-11.909 11.909c-6.4012 13.398-41.088 17.269-44.512 17.12-3.1262-0.14878-14.143-4.7638-20.842-4.1683-6.6992 0.59528-18.311 5.0613-23.521 4.3171-5.2103-0.74425-16.971-4.7638-19.055-13.249-14.589-4.615-16.971-15.78-16.971-15.78l15.78-112.1 15.333-141.72s1.7864-18.906 9.3786-21.735c7.8901-0.7443 48.68 0.74429 60.143-1.9353z" fill-rule="evenodd" stroke="#000" stroke-width="2.1344" fill="#8c8a8c"/>
   <path id="path567" d="m443.63 364.26-3.1262 99.147" stroke="#000" stroke-width="2.1344" fill="none"/>
   <path id="path568" d="m539.95 377.36 8.7833 81.729" stroke="#000" stroke-width="2.1344" fill="none"/>
   <path id="path571" d="m285.28 312.74-0.32653 1.1437" stroke="#000" stroke-width="1.1119" fill="none"/>
   <path id="path579" d="m697.12 309.15 0.32653 1.1437" stroke="#000" stroke-width="1.1119" fill="none"/>
   <path id="path583" stroke-linejoin="round" d="m274.24 178.89s6.5222 9.0307 7.6928 14.215c1.1707 5.1843 3.3447 15.386 6.1877 19.566 2.843 4.1808 19.065 27.427 19.901 37.126 0.16722 6.3548-6.6894 17.225-16.891 17.392-6.355-0.16701-22.744-4.3478-23.413-18.396-0.66895-14.048 5.017-14.382 5.686-22.911 0.66894-8.529 0.83618-46.826 0.83618-46.993z" stroke="#6b18b5" stroke-width="2.1344" fill="none"/>
   <path id="path584" stroke-linejoin="round" d="m386.28 55.917s-6.7526 0.48154-11.951 3.2998c-4.028 2.4838-10.851 6.0573-15.619 12.668-12.127 9.4538-30.371 13.865-36.125 21.719-3.4442 5.343-3.2327 18.194 5.3973 23.636 5.5169 3.1588 21.693 8.1006 29.562-3.5553 7.8695-11.656 3.1848-14.896 7.044-22.531 6.3678-17.502 21.605-35.094 21.692-35.237z" stroke="#6b18b5" stroke-width="1.1119" fill="none"/>
   <path id="path585" stroke-linejoin="round" d="m550.08 38.857s-5.0431-4.516-10.684-6.2902c-4.5862-1.166-12.224-0.65878-20.128-1.4344-15.227-2.1356-30.926-13.148-40.57-11.818-6.2344 1.2424-15.319 10.334-13.226 20.319 1.5684 6.1606 8.4583 18.62 22.306 16.166 13.848-2.4546 13.728-5.4753 21.898-8.0141 19.926-11.173 40.241-8.891 40.404-8.9282z" stroke="#6b18b5" stroke-width="1.1119" fill="none"/>
   <path id="path586" stroke-linejoin="round" d="m712.52 196.74c1.1368-2.5984-0.95695-7.4825-2.4443-13.206-1.4438-4.5066-3.599-11.501-8.8713-17.718-6.2648-14.042-5.1911-33.299-11.433-40.771-4.3595-4.6266-16.885-7.5072-24.24-0.43687-4.3914 4.5969-13.073 19.112-3.6485 29.551 9.4247 10.438 13.532 6.5064 20.017 12.086 15.461 10.385 23.032 28.589 30.62 30.494z" stroke="#6b18b5" stroke-width="1.1119" fill="none"/>
   <path id="path587" stroke-linejoin="round" d="m706.98 319.41c2.1112-2.9232 5.8916-8.557 5.442-13.249-0.3559-3.7162 1.7031-14.982 1.9281-19.897 1.3973-15.313 10.982-27.742 8.3758-41.046-1.542-6.167-10.575-14.964-20.447-12.391-6.0778 1.8642-19.61 9.3103-16.489 23.023 3.1212 13.713 7.5519 13.486 10.482 21.523 8.413 16.616 3.03 36.354 10.708 42.036z" stroke="#6b18b5" stroke-width="1.1119" fill="none"/>
   <path id="path589" d="m594.29 416.76s-2.5958 4.9918 7.7874 9.3848" stroke="#000" stroke-width="2.1344" fill="none"/>
   <path id="path590" d="m615.06 404.98s11.581-2.7954 19.368 0" stroke="#000" stroke-width="2.1344" fill="none"/>
   <path id="path591" d="m649.6 375.82c0 0.19984-1.5973 5.1917 7.5878 12.38" stroke="#000" stroke-width="2.1344" fill="none"/>
   <path id="path592" d="m656.19 362.85s6.7888 4.9918 18.17 4.7922" stroke="#000" stroke-width="2.1344" fill="none"/>
   <path id="path593" d="m587.7 377.42s0.39929 13.178-6.3895 19.368" stroke="#000" stroke-width="2.1344" fill="none"/>
   <path id="path594" d="m610.46 357.05s11.182 2.7954 20.367-1.797" stroke="#000" stroke-width="2.1344" fill="none"/>
   <path id="path595" d="m682.15 337.69s2.3961 3.3945 14.776 2.7956" stroke="#000" stroke-width="2.1344" fill="none"/>
   <path id="path596" d="m633.83 329.9c0.39929 0.19964 14.576 4.7922 23.562 0.59912" stroke="#000" stroke-width="2.1344" fill="none"/>
   <path id="path597" d="m662.18 275.59s0.59893-0.79876 4.9918 14.576" stroke="#000" stroke-width="2.1344" fill="none"/>
   <path id="path598" d="m673.16 232.26s-0.59912 8.1865-7.1883 11.781" stroke="#000" stroke-width="2.1344" fill="none"/>
   <path id="path599" d="m715.29 198.71s-9.5844 7.7872-7.7872 10.982" stroke="#000" stroke-width="2.1344" fill="none"/>
   <path id="path600" d="m667.57 193.12s4.9918 8.3862-3.1947 14.177" stroke="#000" stroke-width="2.1344" fill="none"/>
   <path id="path601" d="m643.41 157.18s8.586-0.39953 12.38 6.9885" stroke="#000" stroke-width="2.1344" fill="none"/>
   <path id="path602" d="m627.24 132.82 6.5894-0.00015" stroke="#000" stroke-width="2.1344" fill="none"/>
   <path id="path603" d="m661.38 102.87c0 0.19961 1.797 1.7969-1.5973 5.1915" stroke="#000" stroke-width="2.1344" fill="none"/>
   <path id="path604" d="m600.08 103.67s4.5926 7.1883 3.7938 15.974" stroke="#000" stroke-width="2.1344" fill="none"/>
   <path id="path605" d="m626.64 79.308c1.9966-0.1996 8.7856-3.1948 8.7856-3.1948" stroke="#000" stroke-width="2.1344" fill="none"/>
   <path id="path606" d="m597.09 50.754c-0.19965 0-2.5958 8.9853 1.7972 12.18" stroke="#000" stroke-width="2.1344" fill="none"/>
   <path id="path607" d="m586.1 91.688c0 9.5844 7.5878 7.1881 2.3963 16.373" stroke="#000" stroke-width="2.1344" fill="none"/>
   <path id="path608" d="m567.53 83.7c-0.19965 0-11.98 9.1851-11.98 10.782" stroke="#000" stroke-width="2.1344" fill="none"/>
   <path id="path609" d="m536.78 78.709s4.9918 4.9917 3.7938 11.781" stroke="#000" stroke-width="2.1344" fill="none"/>
   <path id="path610" d="m522.21 74.715s-2.5957 7.5875-5.9901 9.5843" stroke="#000" stroke-width="2.1344" fill="none"/>
   <path id="path611" d="m495.65 72.718c-0.19965 0.3994-4.1933 8.9853-6.9887 10.583" stroke="#000" stroke-width="2.1344" fill="none"/>
   <path id="path612" d="m459.31 72.918c0.19964 0 3.9934 7.9871-0.99841 13.778" stroke="#000" stroke-width="2.1344" fill="none"/>
   <path id="path613" d="m450.92 31.585c0.19964 0.1996 0.79877 6.1897-2.995 11.381" stroke="#000" stroke-width="2.1344" fill="none"/>
   <path id="path614" d="m414.98 45.163c0 0.19976 1.5974 6.7892-8.9853 8.9854" stroke="#000" stroke-width="2.1344" fill="none"/>
   <path id="path615" d="m394.62 106.06c0.19968 0.39925 10.183 1.9967 10.183 1.9967" stroke="#000" stroke-width="2.1344" fill="none"/>
   <path id="path616" d="m369.66 129.23c0.19968-0.19978 12.18-3.7938 12.18-3.7938" stroke="#000" stroke-width="2.1344" fill="none"/>
   <path id="path617" d="m350.29 144.2c0.39936 0 8.3863 1.3978 10.383 0.39938" stroke="#000" stroke-width="2.1344" fill="none"/>
   <path id="path618" d="m344.7 151.59s2.5958 1.3978 0.39935 14.776" stroke="#000" stroke-width="2.1344" fill="none"/>
   <path id="path619" d="m305.76 116.45 4.7922 7.1883" stroke="#000" stroke-width="2.1344" fill="none"/>
   <path id="path620" d="m289.39 153.39c0-0.19976 4.7922 7.1881 11.182 8.5859" stroke="#000" stroke-width="2.1344" fill="none"/>
   <path id="path621" d="m327.13 190.93c0.19968 0 7.7873-1.5976 8.9854-2.3962" stroke="#000" stroke-width="2.1344" fill="none"/>
   <path id="path622" d="m323.73 218.08c0.19968 0-0.19967-4.9918 5.9902-8.3864" stroke="#000" stroke-width="2.1344" fill="none"/>
   <path id="path623" d="m315.54 230.46c0 0.19965 5.7906 7.388 9.784 8.3864" stroke="#000" stroke-width="2.1344" fill="none"/>
   <path id="path624" d="m312.15 244.24c0.59902-0.19984 6.7889-5.5912 13.977-5.1917" stroke="#000" stroke-width="2.1344" fill="none"/>
   <path id="path625" d="m310.15 262.81s0.19966 6.1901 18.57 4.5928" stroke="#000" stroke-width="2.1344" fill="none"/>
   <path id="path626" d="m311.95 284.57c0-0.19964 5.3912-12.38 16.373-16.972" stroke="#000" stroke-width="2.1344" fill="none"/>
   <path id="path627" d="m326.73 300.15s1.5974-5.1917 10.782-8.7856" stroke="#000" stroke-width="2.1344" fill="none"/>
   <path id="path628" d="m336.91 320.71s6.5893-5.3911 8.9854-6.1897" stroke="#000" stroke-width="2.1344" fill="none"/>
   <path id="path629" d="m345.1 336.69s3.9935 4.1931 13.977-2.9952" stroke="#000" stroke-width="2.1344" fill="none"/>
   <path id="path630" d="m296.97 340.08c1.1981-0.19965 15.774-3.594 20.766 3.9936" stroke="#000" stroke-width="2.1344" fill="none"/>
   <path id="path631" d="m302.77 352.06s15.375-1.9968 17.372-0.39929" stroke="#000" stroke-width="2.1344" fill="none"/>
   <path id="path632" d="m357.68 355.26s-1.9968 4.1933 16.972-2.7954" stroke="#000" stroke-width="2.1344" fill="none"/>
   <path id="path633" d="m381.24 362.85c-3.3945 5.7904 0.79869 10.383-3.5942 12.979" stroke="#000" stroke-width="2.1344" fill="none"/>
   <path id="path634" d="m323.53 370.83c0.59903-0.39909 6.9886-2.5956 5.9902-11.781" stroke="#000" stroke-width="2.1344" fill="none"/>
   <path id="path635" d="m329.32 384.61c0.79871-0.19964 11.381-4.7922 13.578-2.3961" stroke="#000" stroke-width="2.1344" fill="none"/>
   <path id="path636" d="m350.09 397.99s1.3977-9.3848 4.3928-10.383" stroke="#000" stroke-width="2.1344" fill="none"/>
   <path id="path637" d="m366.06 412.16s8.7857-0.19964 12.58-2.995" stroke="#000" stroke-width="2.1344" fill="none"/>
   <path id="path638" d="m383.03 380.42c0.19968 0.19964 8.1867 4.3927 25.159 0.19964" stroke="#000" stroke-width="2.1344" fill="none"/>
   <path id="path639" d="m389.42 418.55s2.3961 12.18 2.1964 14.976" stroke="#000" stroke-width="2.1344" fill="none"/>
   <g id="g915" fill-rule="evenodd" transform="matrix(1.9196 0 0 1.9196 249.65 3.7381)" stroke="#000" stroke-width="1.1119pt" fill="#de2010">
    <path id="path647" d="m232.84 119.03c0.002-2.1088-0.79407-4.0584-2.0874-5.1136-1.2933-1.0551-2.8872-1.0551-4.1805 0s-2.0892 3.0048-2.0874 5.1136c-0.002 2.1088 0.79407 4.0584 2.0874 5.1136 1.2933 1.0551 2.8872 1.0551 4.1805 0s2.0892-3.0048 2.0874-5.1136z" transform="matrix(.96309 -.12038 .12403 .99228 -6.4475 28.447)"/>
    <path id="path648" d="m232.84 119.03c0.002-2.1088-0.79407-4.0584-2.0874-5.1136-1.2933-1.0551-2.8872-1.0551-4.1805 0s-2.0892 3.0048-2.0874 5.1136c-0.002 2.1088 0.79407 4.0584 2.0874 5.1136 1.2933 1.0551 2.8872 1.0551 4.1805 0s2.0892-3.0048 2.0874-5.1136z" transform="matrix(.96309 -.12038 .12403 .99228 -7.3076 17.88)"/>
    <path id="path649" d="m232.84 119.03c0.002-2.1088-0.79407-4.0584-2.0874-5.1136-1.2933-1.0551-2.8872-1.0551-4.1805 0s-2.0892 3.0048-2.0874 5.1136c-0.002 2.1088 0.79407 4.0584 2.0874 5.1136 1.2933 1.0551 2.8872 1.0551 4.1805 0s2.0892-3.0048 2.0874-5.1136z" transform="matrix(.94879 -.20455 .21075 .97754 -16.448 27.945)"/>
    <path id="path650" d="m232.84 119.03c0.002-2.1088-0.79407-4.0584-2.0874-5.1136-1.2933-1.0551-2.8872-1.0551-4.1805 0s-2.0892 3.0048-2.0874 5.1136c-0.002 2.1088 0.79407 4.0584 2.0874 5.1136 1.2933 1.0551 2.8872 1.0551 4.1805 0s2.0892-3.0048 2.0874-5.1136z" transform="matrix(.86530 -.43966 .45298 .89152 -29.753 81.132)"/>
    <path id="path651" d="m232.84 119.03c0.002-2.1088-0.79407-4.0584-2.0874-5.1136-1.2933-1.0551-2.8872-1.0551-4.1805 0s-2.0892 3.0048-2.0874 5.1136c-0.002 2.1088 0.79407 4.0584 2.0874 5.1136 1.2933 1.0551 2.8872 1.0551 4.1805 0s2.0892-3.0048 2.0874-5.1136z" transform="matrix(.86530 -.43966 .45298 .89152 -33.93 71.671)"/>
    <path id="path652" d="m232.84 119.03c0.002-2.1088-0.79407-4.0584-2.0874-5.1136-1.2933-1.0551-2.8872-1.0551-4.1805 0s-2.0892 3.0048-2.0874 5.1136c-0.002 2.1088 0.79407 4.0584 2.0874 5.1136 1.2933 1.0551 2.8872 1.0551 4.1805 0s2.0892-3.0048 2.0874-5.1136z" transform="matrix(.82496 -.51136 .52685 .84996 -39.274 83.797)"/>
    <path id="path653" d="m232.84 119.03c0.002-2.1088-0.79407-4.0584-2.0874-5.1136-1.2933-1.0551-2.8872-1.0551-4.1805 0s-2.0892 3.0048-2.0874 5.1136c-0.002 2.1088 0.79407 4.0584 2.0874 5.1136 1.2933 1.0551 2.8872 1.0551 4.1805 0s2.0892-3.0048 2.0874-5.1136z" transform="matrix(.77166 -.58872 .60656 .79504 -42.963 99.176)"/>
    <path id="path654" d="m232.84 119.03c0.002-2.1088-0.79407-4.0584-2.0874-5.1136-1.2933-1.0551-2.8872-1.0551-4.1805 0s-2.0892 3.0048-2.0874 5.1136c-0.002 2.1088 0.79407 4.0584 2.0874 5.1136 1.2933 1.0551 2.8872 1.0551 4.1805 0s2.0892-3.0048 2.0874-5.1136z" transform="matrix(.67817 -.69436 .71540 .69872 -42.035 126.69)"/>
    <path id="path655" d="m232.84 119.03c0.002-2.1088-0.79407-4.0584-2.0874-5.1136-1.2933-1.0551-2.8872-1.0551-4.1805 0s-2.0892 3.0048-2.0874 5.1136c-0.002 2.1088 0.79407 4.0584 2.0874 5.1136 1.2933 1.0551 2.8872 1.0551 4.1805 0s2.0892-3.0048 2.0874-5.1136z" transform="matrix(.61142 -.75379 .77664 .62995 -42.664 140.85)"/>
    <path id="path656" d="m232.84 119.03c0.002-2.1088-0.79407-4.0584-2.0874-5.1136-1.2933-1.0551-2.8872-1.0551-4.1805 0s-2.0892 3.0048-2.0874 5.1136c-0.002 2.1088 0.79407 4.0584 2.0874 5.1136 1.2933 1.0551 2.8872 1.0551 4.1805 0s2.0892-3.0048 2.0874-5.1136z" transform="matrix(.47780 -.84484 .87044 .49228 -32.121 172.16)"/>
    <path id="path657" d="m232.84 119.03c0.002-2.1088-0.79407-4.0584-2.0874-5.1136-1.2933-1.0551-2.8872-1.0551-4.1805 0s-2.0892 3.0048-2.0874 5.1136c-0.002 2.1088 0.79407 4.0584 2.0874 5.1136 1.2933 1.0551 2.8872 1.0551 4.1805 0s2.0892-3.0048 2.0874-5.1136z" transform="matrix(.39893 -.88482 .91163 .41101 -29.187 185.56)"/>
    <path id="path658" d="m232.84 119.03c0.002-2.1088-0.79407-4.0584-2.0874-5.1136-1.2933-1.0551-2.8872-1.0551-4.1805 0s-2.0892 3.0048-2.0874 5.1136c-0.002 2.1088 0.79407 4.0584 2.0874 5.1136 1.2933 1.0551 2.8872 1.0551 4.1805 0s2.0892-3.0048 2.0874-5.1136z" transform="matrix(.33871 -.90957 .93714 .34897 -28.529 194.55)"/>
    <path id="path659" d="m232.84 119.03c0.002-2.1088-0.79407-4.0584-2.0874-5.1136-1.2933-1.0551-2.8872-1.0551-4.1805 0s-2.0892 3.0048-2.0874 5.1136c-0.002 2.1088 0.79407 4.0584 2.0874 5.1136 1.2933 1.0551 2.8872 1.0551 4.1805 0s2.0892-3.0048 2.0874-5.1136z" transform="matrix(.26830 -.93277 .96104 .27643 -25.473 205.3)"/>
    <path id="path660" d="m232.84 119.03c0.002-2.1088-0.79407-4.0584-2.0874-5.1136-1.2933-1.0551-2.8872-1.0551-4.1805 0s-2.0892 3.0048-2.0874 5.1136c-0.002 2.1088 0.79407 4.0584 2.0874 5.1136 1.2933 1.0551 2.8872 1.0551 4.1805 0s2.0892-3.0048 2.0874-5.1136z" transform="matrix(.12145 -.96296 .99214 .12513 -6.5303 228.37)"/>
    <path id="path663" d="m232.84 119.03c0.002-2.1088-0.79407-4.0584-2.0874-5.1136-1.2933-1.0551-2.8872-1.0551-4.1805 0s-2.0892 3.0048-2.0874 5.1136c-0.002 2.1088 0.79407 4.0584 2.0874 5.1136 1.2933 1.0551 2.8872 1.0551 4.1805 0s2.0892-3.0048 2.0874-5.1136z" transform="matrix(.038945 -.96981 .99920 .040124 .43684 239.44)"/>
    <path id="path664" d="m232.84 119.03c0.002-2.1088-0.79407-4.0584-2.0874-5.1136-1.2933-1.0551-2.8872-1.0551-4.1805 0s-2.0892 3.0048-2.0874 5.1136c-0.002 2.1088 0.79407 4.0584 2.0874 5.1136 1.2933 1.0551 2.8872 1.0551 4.1805 0s2.0892-3.0048 2.0874-5.1136z" transform="matrix(.038945 -.96981 .99920 .040124 -10.007 239.81)"/>
    <path id="path665" d="m232.84 119.03c0.002-2.1088-0.79407-4.0584-2.0874-5.1136-1.2933-1.0551-2.8872-1.0551-4.1805 0s-2.0892 3.0048-2.0874 5.1136c-0.002 2.1088 0.79407 4.0584 2.0874 5.1136 1.2933 1.0551 2.8872 1.0551 4.1805 0s2.0892-3.0048 2.0874-5.1136z" transform="matrix(-.21629 -.94618 .97486 -.22284 40.071 267.06)"/>
    <path id="path667" d="m232.84 119.03c0.002-2.1088-0.79407-4.0584-2.0874-5.1136-1.2933-1.0551-2.8872-1.0551-4.1805 0s-2.0892 3.0048-2.0874 5.1136c-0.002 2.1088 0.79407 4.0584 2.0874 5.1136 1.2933 1.0551 2.8872 1.0551 4.1805 0s2.0892-3.0048 2.0874-5.1136z" transform="matrix(-.29359 -.92512 .95316 -.30249 49.518 274.42)"/>
    <path id="path669" d="m232.84 119.03c0.002-2.1088-0.79407-4.0584-2.0874-5.1136-1.2933-1.0551-2.8872-1.0551-4.1805 0s-2.0892 3.0048-2.0874 5.1136c-0.002 2.1088 0.79407 4.0584 2.0874 5.1136 1.2933 1.0551 2.8872 1.0551 4.1805 0s2.0892-3.0048 2.0874-5.1136z" transform="matrix(-.40169 -.88356 .91034 -.41387 69.626 282.36)"/>
    <path id="path670" d="m232.84 119.03c0.002-2.1088-0.79407-4.0584-2.0874-5.1136-1.2933-1.0551-2.8872-1.0551-4.1805 0s-2.0892 3.0048-2.0874 5.1136c-0.002 2.1088 0.79407 4.0584 2.0874 5.1136 1.2933 1.0551 2.8872 1.0551 4.1805 0s2.0892-3.0048 2.0874-5.1136z" transform="matrix(-.47560 -.84607 .87171 -.49002 81.296 287.89)"/>
    <path id="path672" d="m232.84 119.03c0.002-2.1088-0.79407-4.0584-2.0874-5.1136-1.2933-1.0551-2.8872-1.0551-4.1805 0s-2.0892 3.0048-2.0874 5.1136c-0.002 2.1088 0.79407 4.0584 2.0874 5.1136 1.2933 1.0551 2.8872 1.0551 4.1805 0s2.0892-3.0048 2.0874-5.1136z" transform="matrix(-.56473 -.78938 .81330 -.58184 99.413 292.12)"/>
    <path id="path673" d="m232.84 119.03c0.002-2.1088-0.79407-4.0584-2.0874-5.1136-1.2933-1.0551-2.8872-1.0551-4.1805 0s-2.0892 3.0048-2.0874 5.1136c-0.002 2.1088 0.79407 4.0584 2.0874 5.1136 1.2933 1.0551 2.8872 1.0551 4.1805 0s2.0892-3.0048 2.0874-5.1136z" transform="matrix(-.62950 -.73876 .76115 -.64857 111.83 295)"/>
    <path id="path674" d="m232.84 119.03c0.002-2.1088-0.79407-4.0584-2.0874-5.1136-1.2933-1.0551-2.8872-1.0551-4.1805 0s-2.0892 3.0048-2.0874 5.1136c-0.002 2.1088 0.79407 4.0584 2.0874 5.1136 1.2933 1.0551 2.8872 1.0551 4.1805 0s2.0892-3.0048 2.0874-5.1136z" transform="matrix(-.68085 -.69172 .71269 -.70148 121.72 298.53)"/>
    <path id="path675" d="m232.84 119.03c0.002-2.1088-0.79407-4.0584-2.0874-5.1136-1.2933-1.0551-2.8872-1.0551-4.1805 0s-2.0892 3.0048-2.0874 5.1136c-0.002 2.1088 0.79407 4.0584 2.0874 5.1136 1.2933 1.0551 2.8872 1.0551 4.1805 0s2.0892-3.0048 2.0874-5.1136z" transform="matrix(-.73636 -.63231 .65147 -.75868 135.19 300.6)"/>
    <path id="path676" d="m232.84 119.03c0.002-2.1088-0.79407-4.0584-2.0874-5.1136-1.2933-1.0551-2.8872-1.0551-4.1805 0s-2.0892 3.0048-2.0874 5.1136c-0.002 2.1088 0.79407 4.0584 2.0874 5.1136 1.2933 1.0551 2.8872 1.0551 4.1805 0s2.0892-3.0048 2.0874-5.1136z" transform="matrix(-.79959 -.55018 .56685 -.82382 153.82 298.54)"/>
    <path id="path677" d="m232.84 119.03c0.002-2.1088-0.79407-4.0584-2.0874-5.1136-1.2933-1.0551-2.8872-1.0551-4.1805 0s-2.0892 3.0048-2.0874 5.1136c-0.002 2.1088 0.79407 4.0584 2.0874 5.1136 1.2933 1.0551 2.8872 1.0551 4.1805 0s2.0892-3.0048 2.0874-5.1136z" transform="matrix(-.88221 -.40465 .41691 -.90895 185.77 285.35)"/>
    <path id="path678" d="m232.84 119.03c0.002-2.1088-0.79407-4.0584-2.0874-5.1136-1.2933-1.0551-2.8872-1.0551-4.1805 0s-2.0892 3.0048-2.0874 5.1136c-0.002 2.1088 0.79407 4.0584 2.0874 5.1136 1.2933 1.0551 2.8872 1.0551 4.1805 0s2.0892-3.0048 2.0874-5.1136z" transform="matrix(-.91526 -0.323 .33279 -0.943 199.41 281.42)"/>
    <path id="path680" d="m232.84 119.03c0.002-2.1088-0.79407-4.0584-2.0874-5.1136-1.2933-1.0551-2.8872-1.0551-4.1805 0s-2.0892 3.0048-2.0874 5.1136c-0.002 2.1088 0.79407 4.0584 2.0874 5.1136 1.2933 1.0551 2.8872 1.0551 4.1805 0s2.0892-3.0048 2.0874-5.1136z" transform="matrix(-.96644 -.071865 .092361 -.79822 236.41 226.61)"/>
    <path id="path679" d="m232.84 119.03c0.002-2.1088-0.79407-4.0584-2.0874-5.1136-1.2933-1.0551-2.8872-1.0551-4.1805 0s-2.0892 3.0048-2.0874 5.1136c-0.002 2.1088 0.79407 4.0584 2.0874 5.1136 1.2933 1.0551 2.8872 1.0551 4.1805 0s2.0892-3.0048 2.0874-5.1136z" transform="matrix(-.94631 -.21571 .22224 -.97499 217.21 271.39)"/>
   </g>
   <path id="path666" d="m679.93 195.92c2.4658-2.6398 4.76-3.3862 7.663-2.4235-1.0238-6.9639-3.2273-9.3266-5.9118-8.4881-2.6844 0.83854-3.8994 4.4185-1.7513 10.912z" fill-rule="evenodd" fill="#ffe300"/>
   <path id="path668" d="m683.7 216.93c2.6578-2.4464 5.0018-3.0177 7.8241-1.839-0.49604-7.0213-2.5155-9.5433-5.2554-8.9095-2.7399 0.63387-4.2211 4.1121-2.5687 10.748z" fill-rule="evenodd" fill="#ffe300"/>
   <path id="path671" d="m674.78 176.73c1.7146-3.1794 3.7441-4.484 6.7963-4.2902-2.7587-6.4756-5.49-8.2012-7.8736-6.7084-2.3834 1.4928-2.6493 5.2639 1.0773 10.999z" fill-rule="evenodd" fill="#ffe300"/>
   <path id="path681" d="m665.43 157.61c1.7146-3.1794 3.7441-4.484 6.7963-4.2902-2.7587-6.4756-5.49-8.2012-7.8736-6.7084-2.3834 1.4928-2.6493 5.2639 1.0773 10.999z" fill-rule="evenodd" fill="#ffe300"/>
   <path id="path682" d="m643 122.57c1.1814-3.4137 2.9749-5.0275 6.0185-5.3268-3.7637-5.948-6.7368-7.2122-8.8494-5.3557s-1.769 5.6213 2.8309 10.682z" fill-rule="evenodd" fill="#ffe300"/>
   <path id="path683" d="m628.34 107.3c1.0516-3.4559 2.7827-5.1363 5.8129-5.5504-3.9858-5.8015-7.0046-6.9524-9.0454-5.0174-2.041 1.935-1.5553 5.6842 3.2325 10.568z" fill-rule="evenodd" fill="#ffe300"/>
   <path id="path684" d="m597.51 81.29c-0.0639-3.6118 1.0656-5.7437 3.8209-7.0709-5.5789-4.2919-8.8054-4.4571-10.151-1.9877-1.3459 2.4695 0.27087 5.8868 6.33 9.0586z" fill-rule="evenodd" fill="#ffe300"/>
   <path id="path685" d="m613.55 93.316c0.56245-3.5683 2.044-5.4724 4.9874-6.3025-4.7513-5.1931-7.9005-5.9145-9.6533-3.7154-1.7532 2.1992-0.7525 5.8448 4.6659 10.018z" fill-rule="evenodd" fill="#ffe300"/>
   <path id="path686" d="m579.21 71.191c-0.43614-3.5859 0.46725-5.823 3.0709-7.4274-5.9918-3.6934-9.2183-3.5248-10.302-0.92968-1.0838 2.5952 0.8769 5.8275 7.2309 8.3571z" fill-rule="evenodd" fill="#ffe300"/>
   <path id="path687" d="m560.51 63.027c-0.94485-3.4866-0.37088-5.8299 1.9763-7.7904-6.4586-2.798-9.6278-2.1694-10.329 0.55407-0.70144 2.7236 1.7018 5.642 8.3524 7.2363z" fill-rule="evenodd" fill="#ffe300"/>
   <path id="path688" d="m540.36 56.784c-1.2366-3.3941-0.86307-5.7776 1.3096-7.9297-6.6723-2.2412-9.7768-1.3465-10.245 1.4265-0.4684 2.7732 2.1732 5.4777 8.935 6.5033z" fill-rule="evenodd" fill="#ffe300"/>
   <path id="path689" d="m520.57 52.952c-1.4789-3.2958-1.2787-5.7001 0.73273-8.0037-6.817-1.7528-9.8486-0.63596-10.115 2.1636-0.26664 2.7998 2.5637 5.3062 9.3819 5.8401z" fill-rule="evenodd" fill="#ffe300"/>
   <path id="path690" d="m499.61 51.346c-1.8127-3.1246-1.8628-5.5368-0.10116-8.0365-6.962-1.0365-9.8614 0.38865-9.8357 3.2007 0.0251 2.8124 3.1 5.0118 9.9368 4.8358z" fill-rule="evenodd" fill="#ffe300"/>
   <path id="path691" d="m458.57 54.437c-2.5124-2.5954-3.1425-4.9244-2.0356-7.775-7.0065 0.67255-9.4767 2.7547-8.7739 5.4776 0.7024 2.7234 4.2169 4.1165 10.81 2.2975z" fill-rule="evenodd" fill="#ffe300"/>
   <path id="path692" d="m478.77 51.778c-2.1381-2.9116-2.4472-5.3044-0.96463-7.979-7.033-0.28198-9.7624 1.4466-9.4345 4.2396 0.3273 2.7934 3.6208 4.6494 10.399 3.7394z" fill-rule="evenodd" fill="#ffe300"/>
   <path id="path693" d="m438.75 58.719c-2.8586-2.2084-3.816-4.4229-3.1293-7.4029-6.8377 1.6701-8.9839 4.0849-7.898 6.6789 1.0856 2.5945 4.7635 3.4694 11.027 0.72396z" fill-rule="evenodd" fill="#ffe300"/>
   <path id="path694" d="m400.8 76.168c-3.2265-1.6243-4.5877-3.6163-4.4804-6.6724-6.3952 2.9403-8.0428 5.7193-6.4832 8.0594 1.5593 2.3406 5.3365 2.4999 10.964-1.387z" fill-rule="evenodd" fill="#ffe300"/>
   <path id="path695" d="m419.1 66.82c-3.0053-2.0041-4.1146-4.1467-3.6368-7.1672-6.7049 2.1419-8.6778 4.7002-7.414 7.2123 1.2635 2.5127 4.9934 3.1295 11.051-0.04519z" fill-rule="evenodd" fill="#ffe300"/>
   <path id="path696" d="m366.76 99.867c-3.4941-0.91625-5.2406-2.5808-5.7725-5.5922-5.642 4.2086-6.6743 7.2699-4.6613 9.2336 2.0128 1.9643 5.7403 1.3328 10.434-3.6414z" fill-rule="evenodd" fill="#ffe300"/>
   <path id="path697" d="m383 86.576c-3.4117-1.187-5.0225-2.9831-5.317-6.0269-5.9541 3.754-7.2229 6.7251-5.3698 8.8403 1.8529 2.1158 5.6183 1.7781 10.687-2.8134z" fill-rule="evenodd" fill="#ffe300"/>
   <path id="path698" d="m352.33 114.08c-3.563-0.59482-5.4535-2.0937-6.257-5.0443-5.236 4.704-5.9858 7.8465-3.8026 9.619 2.1831 1.7732 5.8377 0.80551 10.06-4.5748z" fill-rule="evenodd" fill="#ffe300"/>
   <path id="path699" d="m339.4 130.86c-3.6023-0.26897-5.621-1.5901-6.689-4.4555-4.7874 5.1598-5.2488 8.3574-2.9138 9.9245 2.335 1.5677 5.8867 0.27228 9.6028-5.469z" fill-rule="evenodd" fill="#ffe300"/>
   <path id="path700" d="m328.58 148.02c-3.601 0.28584-5.7982-0.71054-7.2924-3.3786-3.9408 5.8321-3.9071 9.0626-1.3596 10.254 2.5475 1.1916 5.859-0.63239 8.652-6.875z" fill-rule="evenodd" fill="#ffe300"/>
   <path id="path701" d="m319.08 166.35c-3.5334 0.7507-5.8414 0.0479-7.6692-2.4038-3.1507 6.2942-2.6981 9.493-0.0176 10.343 2.6806 0.85098 5.7274-1.3873 7.6868-7.9396z" fill-rule="evenodd" fill="#ffe300"/>
   <path id="path702" d="m311.48 185.16c-3.3698 1.301-5.76 0.97275-7.9532-1.1584-2.1137 6.7138-1.16 9.8006 1.6214 10.216 2.7816 0.41553 5.4352-2.2772 6.3318-9.0572z" fill-rule="evenodd" fill="#ffe300"/>
   <path id="path703" d="m306.39 206.11c-3.2752 1.5238-5.682 1.356-8.0128-0.62331-1.6595 6.8403-0.50133 9.8562 2.3016 10.084 2.8031 0.22825 5.2706-2.6361 5.7112-9.4608z" fill-rule="evenodd" fill="#ffe300"/>
   <path id="path704" d="m304.32 223.56c-3.0834 1.633-5.4861 1.826-8.0061 0.59145-0.91718 5.5746 0.55108 7.778 3.3527 7.579 2.8019-0.19887 4.9424-2.772 4.6534-8.1704z" fill-rule="evenodd" fill="#ffe300"/>
   <path id="path705" d="m657.08 140.57c1.233-3.3953 3.0507-4.9817 6.0985-5.2347-3.6729-6.0045-6.6264-7.3137-8.767-5.4895-2.1404 1.8241-1.854 5.5938 2.6685 10.724z" fill-rule="evenodd" fill="#ffe300"/>
   <path id="path706" d="m686 238.23c2.6578-2.4464 5.0018-3.0177 7.8241-1.839-0.49603-7.0213-2.5155-9.5433-5.2554-8.9095-2.7399 0.63387-4.2211 4.1121-2.5687 10.748z" fill-rule="evenodd" fill="#ffe300"/>
   <path id="path709" stroke-linejoin="round" d="m658.45 123.94c-0.0856 0-7.9585 7.873-6.5892 17.457 1.3691 9.5845 7.445 21.394 6.3325 31.321-1.1126 9.9267-2.9096 16.516-2.9096 16.516s9.2421-10.526 9.3278-20.624c0.0856-10.098-6.3327-23.362-6.3327-30.807s0.34247-14.034 0.17123-13.863z" fill-rule="evenodd" stroke="#000" stroke-width="2.1344" fill="#217900"/>
   <path id="path710" stroke-linejoin="round" d="m673.08 156.11s-6.1615 4.5355-5.5624 14.976c0.59893 10.44 11.381 29.609 11.381 29.609s7.873 16.174 7.6162 20.367c-0.25665 4.1931 1.4549-4.0218 0.68474-13.264-0.77016-9.2421-12.665-29.609-12.665-29.609s-2.5673-4.1931-2.3105-11.125c0.25665-6.9317 0.94139-10.868 0.85578-10.954z" fill-rule="evenodd" stroke="#000" stroke-width="2.1344" fill="#217900"/>
   <path id="path713" d="m487.93 26.748c0.00081-2.1606-2.4297-3.9125-5.4281-3.9125s-5.429 1.7518-5.4281 3.9125c-0.00081 2.1606 2.4297 3.9125 5.4281 3.9125s5.4289-1.7518 5.4281-3.9125z" fill-rule="evenodd" fill="#6b18b5"/>
   <path id="path714" d="m490.25 35.848c0-2.0721-2.5017-3.7518-5.5878-3.7518-3.086 0-5.5878 1.6797-5.5878 3.7518s2.5017 3.7518 5.5878 3.7518c3.086 0 5.5878-1.6797 5.5878-3.7518z" fill-rule="evenodd" fill="#6b18b5"/>
   <path id="path715" d="m497.19 25.072s-6.3861 4.7896-3.7518 6.7054c2.6341 1.9158 9.8983-4.1509 9.8983-4.1509l-6.1465-2.5545z" fill-rule="evenodd" fill="#6b18b5"/>
   <path id="path716" d="m684.88 134.73c0.002-1.3615-0.63635-2.6205-1.6737-3.3019-1.0373-0.68136-2.3159-0.68136-3.3532 0-1.0373 0.68137-1.6755 1.9404-1.6737 3.3019-0.002 1.3615 0.63635 2.6205 1.6737 3.3019 1.0373 0.68136 2.3159 0.68136 3.3532 0 1.0373-0.68137 1.6755-1.9404 1.6737-3.3019z" fill-rule="evenodd" fill="#6b18b5"/>
   <path id="path717" d="m682.44 125.6c0-2.2708-1.5681-4.1116-3.5025-4.1116s-3.5025 1.8408-3.5025 4.1116 1.5681 4.1116 3.5025 4.1116 3.5025-1.8408 3.5025-4.1116z" fill-rule="evenodd" fill="#6b18b5"/>
   <path id="path718" d="m684.12 144.17c0-1.1775-0.61361-2.132-1.3706-2.132-0.75693 0-1.3706 0.95452-1.3706 2.132s0.61362 2.132 1.3706 2.132c0.75694 0 1.3706-0.95453 1.3706-2.132z" fill-rule="evenodd" fill="#6b18b5"/>
   <path id="path719" d="m689.75 127.57c0-1.3457-0.61362-2.4366-1.3706-2.4366-0.75694 0-1.3706 1.0909-1.3706 2.4366s0.61361 2.4366 1.3706 2.4366c0.75693 0 1.3706-1.0909 1.3706-2.4366z" fill-rule="evenodd" fill="#6b18b5"/>
   <path id="path720" d="m674.37 129.25c0-1.0933-0.61362-1.9797-1.3706-1.9797-0.75694 0-1.3706 0.88633-1.3706 1.9797 0 1.0933 0.61361 1.9797 1.3706 1.9797 0.75693 0 1.3706-0.88632 1.3706-1.9797z" fill-rule="evenodd" fill="#6b18b5"/>
   <path id="path721" d="m676.81 142.35c0.00057-1.7667-1.295-3.1992-2.8934-3.1992s-2.8939 1.4325-2.8934 3.1992c-0.00057 1.7667 1.295 3.1992 2.8934 3.1992s2.8939-1.4325 2.8934-3.1992z" fill-rule="evenodd" fill="#6b18b5"/>
   <path id="path722" d="m669.19 136.56c0-1.5139-1.0909-2.7411-2.4366-2.7411-1.3456 0-2.4365 1.2272-2.4365 2.7411s1.0909 2.7411 2.4365 2.7411c1.3457 0 2.4366-1.2272 2.4366-2.7411z" fill-rule="evenodd" fill="#6b18b5"/>
   <path id="path723" d="m667.98 128.79c0.001-0.81683-0.40511-1.5721-1.0652-1.9808-0.66007-0.40873-1.4736-0.40873-2.1336 0-0.66005 0.40874-1.0662 1.164-1.0652 1.9808-0.001 0.81683 0.4051 1.5721 1.0652 1.9808 0.66007 0.40873 1.4736 0.40873 2.1336 0 0.66005-0.40873 1.0662-1.164 1.0652-1.9808z" fill-rule="evenodd" fill="#6b18b5"/>
   <path id="path724" d="m702.69 168.28c-3.1455-4.1513-8.1812-5.9006-11.248-3.9071-3.0664 1.9936-3.0023 6.975 0.14324 11.126 3.1455 4.1514 8.1812 5.9006 11.248 3.907 3.0664-1.9935 3.0022-6.975-0.14326-11.126z" fill-rule="evenodd" fill="#6b18b5"/>
   <path id="path725" d="m711.63 244.87c0.60954-5.094-1.875-9.58-5.5494-10.02-3.6744-0.43966-7.1472 3.3334-7.7567 8.4275-0.60954 5.094 1.875 9.58 5.5494 10.02 3.6744 0.43967 7.1472-3.3334 7.7567-8.4275z" fill-rule="evenodd" fill="#6b18b5"/>
   <path id="path726" d="m713.52 289.45c1.0471-5.0224-1.0408-9.7061-4.6635-10.461-3.6227-0.75531-7.4083 2.7038-8.4555 7.7262-1.0471 5.0224 1.0408 9.7061 4.6634 10.461 3.6227 0.75532 7.4084-2.7038 8.4555-7.7262z" fill-rule="evenodd" fill="#6b18b5"/>
   <path id="path727" d="m722.11 247.72c0-2.0185-1.3636-3.6548-3.0457-3.6548s-3.0457 1.6364-3.0457 3.6548c0 2.0185 1.3636 3.6549 3.0457 3.6549s3.0457-1.6364 3.0457-3.6549z" fill-rule="evenodd" fill="#6b18b5"/>
   <path id="path728" d="m714.65 256.1-6.2436 7.0812s-5.8628 0.15223-5.5583 2.0558c0.30464 1.9035 8.0712 7.6143 7.9949 9.8985-0.0762 2.2844 5.1777-0.53289 5.1777-0.53289s4.1877-12.716 4.1877-12.792c0-0.0762-0.22843-8.8327-2.5126-8.6802-2.2844 0.15223-2.9033 2.8081-3.0457 2.9697z" fill-rule="evenodd" fill="#6b18b5"/>
   <path id="path729" d="m303.97 253.3c0-1.6411-1.3304-2.9715-2.9716-2.9715-1.6411 0-2.9716 1.3304-2.9716 2.9715s1.3304 2.9715 2.9716 2.9715 2.9716-1.3304 2.9716-2.9715z" fill-rule="evenodd" fill="#6b18b5"/>
   <path id="path730" d="m306.77 244.22c0-1.7324-1.3304-3.1367-2.9716-3.1367s-2.9716 1.4043-2.9716 3.1367c0 1.7323 1.3304 3.1367 2.9716 3.1367 1.6411 0 2.9716-1.4043 2.9716-3.1367z" fill-rule="evenodd" fill="#6b18b5"/>
   <path id="path731" d="m282.37 201.04c-1.1145-2.4979-3.4354-3.8904-5.1839-3.1103-1.7485 0.78013-2.2625 3.4375-1.1481 5.9354 1.1145 2.4979 3.4354 3.8904 5.1839 3.1103 1.7485-0.78013 2.2625-3.4375 1.1481-5.9354z" fill-rule="evenodd" fill="#6b18b5"/>
   <path id="path732" d="m289.74 227.94c-1.531-3.2375-4.7192-5.0423-7.1212-4.0312s-3.1081 4.4553-1.5771 7.6928 4.7192 5.0423 7.1212 4.0312 3.1081-4.4553 1.5771-7.6928z" fill-rule="evenodd" fill="#6b18b5"/>
   <path id="path733" d="m297.63 247.67c0.49601-4.0437-1.1796-7.7583-3.7425-8.2968-2.563-0.53851-5.0427 2.303-5.5388 6.3467-0.49602 4.0437 1.1796 7.7583 3.7425 8.2968 2.563 0.5385 5.0427-2.303 5.5388-6.3468z" fill-rule="evenodd" fill="#6b18b5"/>
   <path id="path734" d="m284.97 250.55c1.5852-3.753 0.9917-7.7846-1.3256-9.0048s-5.4808 0.83295-7.066 4.5859-0.9917 7.7846 1.3256 9.0048 5.4808-0.83295 7.066-4.5859z" fill-rule="evenodd" fill="#6b18b5"/>
   <path id="path735" d="m279.2 242.07c0-1.9147-1.4782-3.4669-3.3017-3.4669s-3.3017 1.5522-3.3017 3.4669 1.4782 3.4669 3.3017 3.4669 3.3017-1.5522 3.3017-3.4669z" fill-rule="evenodd" fill="#6b18b5"/>
   <path id="path736" d="m276.56 233.49c0-1.7324-1.3304-3.1367-2.9716-3.1367-1.6411 0-2.9716 1.4043-2.9716 3.1367 0 1.7323 1.3304 3.1367 2.9716 3.1367s2.9716-1.4043 2.9716-3.1367z" fill-rule="evenodd" fill="#6b18b5"/>
   <path id="path737" d="m279.37 216.98c0-2.9176-1.2935-5.2829-2.889-5.2829-1.5956 0-2.889 2.3652-2.889 5.2829 0 2.9176 1.2934 5.2829 2.889 5.2829s2.889-2.3652 2.889-5.2829z" fill-rule="evenodd" fill="#6b18b5"/>
   <path id="path738" d="m288.26 215.71c0.38495-2.8921-0.58515-5.4073-2.1668-5.6178-1.5816-0.21051-3.1758 1.9634-3.5608 4.8555-0.38494 2.8922 0.58515 5.4073 2.1668 5.6178 1.5816 0.21051 3.1758-1.9634 3.5608-4.8555z" fill-rule="evenodd" fill="#6b18b5"/>
   <path id="path739" d="m351.6 89.333c1.1775-4.0958-0.0369-8.2123-2.7124-9.1943-2.6755-0.98204-5.799 1.5422-6.9764 5.638-1.1775 4.0958 0.0369 8.2123 2.7124 9.1943 2.6755 0.98204 5.799-1.5422 6.9764-5.638z" fill-rule="evenodd" fill="#6b18b5"/>
   <path id="path740" d="m339.57 107.56c3.5285-3.0031 5.0359-7.1556 3.3668-9.275-1.6691-2.1193-5.8826-1.4029-9.4111 1.6002s-5.0359 7.1556-3.3668 9.275c1.6691 2.1193 5.8826 1.4029 9.4111-1.6002z" fill-rule="evenodd" fill="#6b18b5"/>
   <path id="path741" d="m332.55 97.443c3.4894-2.5781 4.98-6.1429 3.3294-7.9623s-5.8172-1.2043-9.3066 1.3737c-3.4894 2.5781-4.98 6.1429-3.3294 7.9623s5.8172 1.2043 9.3066-1.3737z" fill-rule="evenodd" fill="#6b18b5"/>
   <path id="path742" d="m359.61 79.649c2.3531-1.7988 3.3583-4.2862 2.2452-5.5556-1.1131-1.2695-3.9229-0.84032-6.276 0.95851s-3.3583 4.2862-2.2452 5.5556c1.1131 1.2695 3.9229 0.84032 6.276-0.95851z" fill-rule="evenodd" fill="#6b18b5"/>
   <path id="path743" d="m345.5 96.89c1.6091-2.4867 1.7172-5.1673 0.24142-5.9873-1.4758-0.82004-3.9766 0.53102-5.5857 3.0177s-1.7172 5.1673-0.24142 5.9873c1.4758 0.82005 3.9766-0.53102 5.5857-3.0177z" fill-rule="evenodd" fill="#6b18b5"/>
   <path id="path744" d="m365.86 86.235c2.5305-2.1326 3.5165-4.9576 2.2022-6.3097-1.3143-1.3522-4.4312-0.71947-6.9617 1.4131s-3.5165 4.9576-2.2022 6.3097c1.3143 1.3522 4.4312 0.71947 6.9617-1.4131z" fill-rule="evenodd" fill="#6b18b5"/>
   <path id="path745" d="m329.07 111.09c2.3656-0.11805 4.1512-1.2964 3.9884-2.632-0.16282-1.3355-2.2125-2.3225-4.578-2.2044-2.3655 0.11805-4.1512 1.2964-3.9884 2.632 0.16282 1.3355 2.2125 2.3225 4.578 2.2045z" fill-rule="evenodd" fill="#6b18b5"/>
   <path id="path746" d="m373.61 73.026c1.6091-2.4867 1.7172-5.1673 0.24142-5.9873-1.4758-0.82004-3.9766 0.53102-5.5857 3.0177s-1.7172 5.1673-0.24142 5.9873c1.4758 0.82004 3.9766-0.53102 5.5857-3.0177z" fill-rule="evenodd" fill="#6b18b5"/>
   <path id="path764" d="m641.8 148.49s7.3382-11.615 4.501-22.547c-2.8372-10.933-14.945-3.2071-14.685 0.68363 0.26088 3.8906 7.8245 9.0954 8.2844 11.47 0.45956 2.3742-0.85463 9.6771 1.8991 10.394z" fill-rule="evenodd" stroke="#ef8a10" stroke-width="1.1119" fill="#ffd200"/>
   <path id="path708" stroke-linejoin="round" d="m501.67 51.882s26.443 1.0271 26.614 18.142c-0.0856 2.6529-0.00019 5.8189-0.94139 13.435 5.2201-2.8238 8.7288-10.697 8.0441-15.746 0.0856-17.372-23.619-29.267-33.717-15.832z" fill-rule="evenodd" stroke="#000" stroke-width="2.6681" fill="#217900"/>
   <path id="path707" stroke-linejoin="round" d="m484.9 51.112s21.308-4.45 21.479 12.665c0.17123 17.115-6.7604 19.853-6.7604 19.853s16.345-3.5087 16.43-20.88c0.0856-17.372-21.051-25.073-31.149-11.638z" fill-rule="evenodd" stroke="#000" stroke-width="2.6681" fill="#217900"/>
   <g id="g802" transform="matrix(1.9196 0 0 1.9196 249.65 5.767)">
    <path id="path640" stroke-linejoin="round" d="m160.26 215.97s51.958-14.677 67.647-78.444c-9.1096 65.454-65.96 86.204-65.96 86.204l-1.6869-7.76z" fill-rule="evenodd" stroke="#000" stroke-width="1.1119pt" fill="#f7df73"/>
    <path id="path793" d="m165.59 219.94c1.606 0 5.5788-4.3955 7.861-4.9026 2.2823-0.5071 2.5358-2.7895-0.0845-2.8739-2.6203-0.0845-4.9025 2.9584-4.9025 2.9584s-2.2823 1.9442-4.649 2.1978c-2.3668 0.2536-0.8453 3.2119 1.775 2.6203z" fill-rule="evenodd" fill="#8c1800"/>
    <path id="path794" d="m195.51 197.62s-5.4097 3.1274-4.649 3.8882c0.7608 0.7608 5.5788-2.9584 5.6633-3.0429 0.0845-0.0846 2.0287-2.4513-1.0143-0.8453z" fill-rule="evenodd" stroke="#8c1800" stroke-width="1.1119pt" fill="#8c1800"/>
    <path id="path795" d="m176.66 211.83s-1.6061-0.5917 2.5358-2.1977c4.1418-1.606 3.8882-3.4656 5.2407-4.2264 1.3524-0.7607 4.2263-2.7894 4.818-1.606s-3.043 3.5502-3.8882 3.8038c-0.8453 0.2536-4.9872 4.0573-6.1705 4.3954-1.1834 0.3381-2.0287 0.1691-2.5358-0.1691z" fill-rule="evenodd" fill="#8c1800"/>
    <path id="path796" d="m203.54 189.68c-3.5501 3.9728-3.5501 3.8883-3.5501 3.8883" stroke="#8c1800" stroke-linecap="round" stroke-width="1.8068" fill="none"/>
    <path id="path797" d="m208.87 183.17-3.3811 4.1419" stroke="#8c1800" stroke-linecap="round" stroke-width="1.6678" fill="none"/>
    <path id="path798" d="m214.19 174.72-3.8038 6.086" stroke="#8c1800" stroke-linecap="round" stroke-width="1.5289" fill="none"/>
    <path id="path799" d="m218.67 166.1-3.1275 6.255" stroke="#8c1800" stroke-linecap="round" stroke-width="1.3899" fill="none"/>
    <path id="path800" d="m220.7 161.53-1.0143 2.1977" stroke="#8c1800" stroke-linecap="round" stroke-width="1.3899" fill="none"/>
    <path id="path801" d="m222.98 155.53-0.8453 2.6203" stroke="#8c1800" stroke-linecap="round" stroke-width=".83392" fill="none"/>
   </g>
   <g id="g813" transform="matrix(-1.9021 0 0 1.9542 731.39 -4.3332)">
    <path id="path814" stroke-linejoin="round" d="m160.26 215.97s51.958-14.677 67.647-78.444c-9.1096 65.454-65.96 86.204-65.96 86.204l-1.6869-7.76z" fill-rule="evenodd" stroke="#000" stroke-width="1.1119pt" fill="#f7df73"/>
    <path id="path815" d="m165.59 219.94c1.606 0 5.5788-4.3955 7.861-4.9026 2.2823-0.5071 2.5358-2.7895-0.0845-2.8739-2.6203-0.0845-4.9025 2.9584-4.9025 2.9584s-2.2823 1.9442-4.649 2.1978c-2.3668 0.2536-0.8453 3.2119 1.775 2.6203z" fill-rule="evenodd" fill="#8c1800"/>
    <path id="path816" d="m195.51 197.62s-5.4097 3.1274-4.649 3.8882c0.7608 0.7608 5.5788-2.9584 5.6633-3.0429 0.0845-0.0846 2.0287-2.4513-1.0143-0.8453z" fill-rule="evenodd" stroke="#8c1800" stroke-width="1.1119pt" fill="#8c1800"/>
    <path id="path817" d="m176.66 211.83s-1.6061-0.5917 2.5358-2.1977c4.1418-1.606 3.8882-3.4656 5.2407-4.2264 1.3524-0.7607 4.2263-2.7894 4.818-1.606s-3.043 3.5502-3.8882 3.8038c-0.8453 0.2536-4.9872 4.0573-6.1705 4.3954-1.1834 0.3381-2.0287 0.1691-2.5358-0.1691z" fill-rule="evenodd" fill="#8c1800"/>
    <path id="path818" d="m203.54 189.68c-3.5501 3.9728-3.5501 3.8883-3.5501 3.8883" stroke="#8c1800" stroke-linecap="round" stroke-width="1.8068" fill="none"/>
    <path id="path819" d="m208.87 183.17-3.3811 4.1419" stroke="#8c1800" stroke-linecap="round" stroke-width="1.6678" fill="none"/>
    <path id="path820" d="m214.19 174.72-3.8038 6.086" stroke="#8c1800" stroke-linecap="round" stroke-width="1.5289" fill="none"/>
    <path id="path821" d="m218.67 166.1-3.1275 6.255" stroke="#8c1800" stroke-linecap="round" stroke-width="1.3899" fill="none"/>
    <path id="path822" d="m220.7 161.53-1.0143 2.1977" stroke="#8c1800" stroke-linecap="round" stroke-width="1.3899" fill="none"/>
    <path id="path823" d="m222.98 155.53-0.8453 2.6203" stroke="#8c1800" stroke-linecap="round" stroke-width=".83392" fill="none"/>
   </g>
   <path id="path578" stroke-linejoin="round" d="m691.89 247.23c0.49008 7.6784 8.0051 15.029 5.0646 28.426-3.7575 15.193-16.99 51.298-14.703 57.669-3.9209-5.3913-3.2674-10.456-3.5942-17.971-0.32672-7.5148 10.946-35.451 11.926-44.926-0.00019-8.495 0.81662-20.094 1.3067-23.198z" fill-rule="evenodd" stroke="#000" stroke-width="2.6681" fill="#217900"/>
   <path id="path577" stroke-linejoin="round" d="m691.89 247.39s12.253 15.52 11.599 27.773c-0.65344 12.253-7.515 26.629-5.2278 33-3.9209-5.3913-4.901-8.8221-5.2278-16.337-0.32672-7.5148 6.0446-15.847 4.7377-24.015-1.3071-8.1685-6.0448-20.421-5.8814-20.421z" fill-rule="evenodd" stroke="#000" stroke-width="2.6681" fill="#217900"/>
   <path id="path570" stroke-linejoin="round" d="m290.51 250.82c-0.49008 7.6784-6.2081 14.539-3.2676 27.936 3.7575 15.193 17.154 34.471 15.03 56.526 3.9209-5.3915 5.0646-11.436 5.3913-18.951 0.32672-7.5148-14.867-32.837-15.847-42.312 0.00019-8.495-0.81662-20.094-1.3067-23.198z" fill-rule="evenodd" stroke="#000" stroke-width="2.6681" fill="#217900"/>
   <path id="path569" stroke-linejoin="round" d="m290.51 250.99s-11.926 15.03-11.273 27.283c0.16336 8.1683 15.193 42.312 12.906 48.684 3.9209-5.3911 5.0644-4.7379 4.9009-12.906-4.411-20.911-12.253-34.308-10.946-42.476 1.3071-8.1685 4.5745-20.584 4.4112-20.584z" fill-rule="evenodd" stroke="#000" stroke-width="2.6681" fill="#217900"/>
   <path id="path2860" stroke-linejoin="round" fill="#fff" stroke-dashoffset="1" transform="matrix(1.3389 0 0 1.3391 360.43 -54.894)" stroke="#000" stroke-linecap="square" stroke-width="1.6608" d="m99.959 125.78 22.172 68.231 71.743 0.003-58.04 42.172 22.167 68.233l-58.041-42.15-58.044 42.16 22.168-68.23-58.04-42.17h71.743z"/>
  </g>
 </g>
</svg>
