<?xml version="1.0" encoding="UTF-8" standalone="no"?>
<!-- Created with Sodipodi ("http://www.sodipodi.com/") -->
<svg id="svg548" xmlns:rdf="http://www.w3.org/1999/02/22-rdf-syntax-ns#" xmlns="http://www.w3.org/2000/svg" height="480" width="640" version="1.1" xmlns:cc="http://creativecommons.org/ns#" xmlns:dc="http://purl.org/dc/elements/1.1/">
 <metadata id="metadata3784">
  <rdf:RDF>
   <cc:Work rdf:about="">
    <dc:format>image/svg+xml</dc:format>
    <dc:type rdf:resource="http://purl.org/dc/dcmitype/StillImage"/>
   </cc:Work>
  </rdf:RDF>
 </metadata>
 <g id="flag">
  <g id="g6866" fill-rule="evenodd" stroke-width="1pt" transform="matrix(1.25 0 0 .93750 0 -.000012618)">
   <rect id="rect706" height="512" width="256" y=".000027592" x="256" fill="#ce0000"/>
   <rect id="rect708" height="512" width="256" y=".000012110" x="0" fill="#fff"/>
  </g>
  <g id="g6673" transform="matrix(1.5986 0 0 1.5986 -12.38 -30.751)">
   <path id="path606" d="m209.06 63.779c0 7.8276-7.932 14.173-17.717 14.173-9.7846 0-17.717-6.3456-17.717-14.173 0-7.8276 7.932-14.173 17.717-14.173 9.7846 0 17.717 6.3456 17.717 14.173z" fill-rule="evenodd" transform="matrix(.11563 0 0 .10345 80.65 101.47)" fill="#f1eeee"/>
   <path id="path552" d="m40.727 100.98v37.209h37.211c0 6.1998 6.2021 12.402 12.404 12.402v37.207h37.208v-37.207c6.2021 0 12.404-6.2019 12.404-12.402h37.211v-37.209h-37.211c0-6.1998-6.2021-12.402-12.404-12.402v-37.207h-37.208v37.207c-6.2021 0-12.404 6.2019-12.404 12.402h-37.211z" fill-rule="evenodd" stroke-width="1pt" fill="#c00"/>
   <path id="path553" d="m41.969 102.22v34.727h37.211c0 6.1998 6.2 12.404 12.402 12.404v37.207h34.73v-37.207c6.2021 0 12.402-6.204 12.402-12.404h37.211v-34.727h-37.211c0-6.1998-6.2-12.404-12.402-12.404v-37.207h-34.73v37.207c-6.2021 0-12.402 6.204-12.402 12.404h-37.211z" fill-rule="evenodd" stroke-width="1pt" fill="#ffe600"/>
   <path id="path554" d="m43.209 103.46v32.249h37.208c0 6.1998 6.2021 12.402 12.404 12.402v37.207h32.248v-37.207c6.2021 0 12.404-6.2019 12.404-12.402h37.208v-32.249h-37.208c0-6.1998-6.2021-12.402-12.404-12.402v-37.207h-32.248v37.207c-6.2021 0-12.404 6.2019-12.404 12.402h-37.208z" fill-rule="evenodd" stroke-width="1pt" fill="#707070"/>
   <path id="path555" d="m44.45 104.7v29.766h37.208c0 6.1998 6.2021 12.404 12.404 12.404v37.207h29.767v-37.207c6.2021 0 12.404-6.204 12.404-12.404h37.208v-29.766h-37.208c0-6.1998-6.2021-12.402-12.404-12.402v-37.207h-29.767v37.207c-6.2021 0-12.404 6.2019-12.404 12.402h-37.208z" fill-rule="evenodd" stroke-width="1pt" fill="#a0a0a0"/>
   <g id="g562" fill-rule="evenodd" transform="matrix(.24752 -.24751 .24752 .24751 -65.69 101.06)">
    <path id="path556" d="m333.07 295.87c0 8.8061-11.105 15.945-24.803 15.945s-24.803-7.1388-24.803-15.945c0-8.8061 11.105-15.945 24.803-15.945s24.803 7.1388 24.803 15.945z" transform="matrix(1.2857 0 0 1 -80.99 3.5432)" fill="#d0d0d0"/>
    <path id="path557" d="m333.07 295.87c0 8.8061-11.105 15.945-24.803 15.945s-24.803-7.1388-24.803-15.945c0-8.8061 11.105-15.945 24.803-15.945s24.803 7.1388 24.803 15.945z" transform="matrix(.85715 0 0 1 51.124 3.5432)" fill="#808080"/>
    <path id="path560" d="m281.34 223.23h4.96l4.961 14.174 4.96-14.174h4.961l-9.921 28.347-9.921-28.347z" transform="matrix(.71429 0 0 .74998 100.22 123.13)" fill="#d0d0d0"/>
    <rect id="rect561" height="21.26" width="3.5433" y="290.55" x="322.44" stroke-width="1pt" fill="#d0d0d0"/>
   </g>
   <g id="g567" fill-rule="evenodd" transform="matrix(.24752 .24751 -.24752 .24751 127.47 -55.044)">
    <path id="path568" d="m333.07 295.87c0 8.8061-11.105 15.945-24.803 15.945s-24.803-7.1388-24.803-15.945c0-8.8061 11.105-15.945 24.803-15.945s24.803 7.1388 24.803 15.945z" transform="matrix(1.2857 0 0 1 -80.99 3.5432)" fill="#d0d0d0"/>
    <path id="path569" d="m333.07 295.87c0 8.8061-11.105 15.945-24.803 15.945s-24.803-7.1388-24.803-15.945c0-8.8061 11.105-15.945 24.803-15.945s24.803 7.1388 24.803 15.945z" transform="matrix(.85715 0 0 1 51.124 3.5432)" fill="#808080"/>
    <path id="path570" d="m281.34 223.23h4.96l4.961 14.174 4.96-14.174h4.961l-9.921 28.347-9.921-28.347z" transform="matrix(.71429 0 0 .74998 100.22 123.13)" fill="#d0d0d0"/>
    <rect id="rect571" height="21.26" width="3.5433" y="290.55" x="322.44" stroke-width="1pt" fill="#d0d0d0"/>
   </g>
   <g id="g572" fill-rule="evenodd" transform="matrix(-.24752 .24751 -.24752 -.24751 283.58 138.11)">
    <path id="path573" d="m333.07 295.87c0 8.8061-11.105 15.945-24.803 15.945s-24.803-7.1388-24.803-15.945c0-8.8061 11.105-15.945 24.803-15.945s24.803 7.1388 24.803 15.945z" transform="matrix(1.2857 0 0 1 -80.99 3.5432)" fill="#d0d0d0"/>
    <path id="path574" d="m333.07 295.87c0 8.8061-11.105 15.945-24.803 15.945s-24.803-7.1388-24.803-15.945c0-8.8061 11.105-15.945 24.803-15.945s24.803 7.1388 24.803 15.945z" transform="matrix(.85715 0 0 1 51.124 3.5432)" fill="#808080"/>
    <path id="path575" d="m281.34 223.23h4.96l4.961 14.174 4.96-14.174h4.961l-9.921 28.347-9.921-28.347z" transform="matrix(.71429 0 0 .74998 100.22 123.13)" fill="#d0d0d0"/>
    <rect id="rect576" height="21.26" width="3.5433" y="290.55" x="322.44" stroke-width="1pt" fill="#d0d0d0"/>
   </g>
   <g id="g577" fill-rule="evenodd" transform="matrix(-.24752 -.24751 .24752 -.24751 90.423 294.21)">
    <path id="path578" d="m333.07 295.87c0 8.8061-11.105 15.945-24.803 15.945s-24.803-7.1388-24.803-15.945c0-8.8061 11.105-15.945 24.803-15.945s24.803 7.1388 24.803 15.945z" transform="matrix(1.2857 0 0 1 -80.99 3.5432)" fill="#d0d0d0"/>
    <path id="path579" d="m333.07 295.87c0 8.8061-11.105 15.945-24.803 15.945s-24.803-7.1388-24.803-15.945c0-8.8061 11.105-15.945 24.803-15.945s24.803 7.1388 24.803 15.945z" transform="matrix(.85715 0 0 1 51.124 3.5432)" fill="#808080"/>
    <path id="path580" d="m281.34 223.23h4.96l4.961 14.174 4.96-14.174h4.961l-9.921 28.347-9.921-28.347z" transform="matrix(.71429 0 0 .74998 100.22 123.13)" fill="#d0d0d0"/>
    <rect id="rect581" height="21.26" width="3.5433" y="290.55" x="322.44" stroke-width="1pt" fill="#d0d0d0"/>
   </g>
   <path id="path582" d="m269.29 414.57c0 41.095-34.107 74.409-76.181 74.409s-76.181-33.314-76.181-74.409 34.107-74.409 76.181-74.409 76.181 33.314 76.181 74.409z" transform="matrix(.34191 0 0 .35003 42.921 -25.527)" stroke="#707070" stroke-width="1pt" fill="none"/>
   <path id="path583" d="m269.29 414.57c0 41.095-34.107 74.409-76.181 74.409s-76.181-33.314-76.181-74.409 34.107-74.409 76.181-74.409 76.181 33.314 76.181 74.409z" transform="matrix(.26050 0 0 .26669 58.641 9.0234)" stroke="#707070" stroke-width="1pt" fill="none"/>
   <path id="path584" d="m170.08 474.8c0 1.9569-1.5864 3.5433-3.5433 3.5433s-3.5433-1.5864-3.5433-3.5433 1.5864-3.5433 3.5433-3.5433 3.5433 1.5864 3.5433 3.5433z" fill-rule="evenodd" transform="matrix(.35005 0 0 .35003 40.728 -25.527)" fill="#d0d0d0"/>
   <path id="path585" d="m170.08 474.8c0 1.9569-1.5864 3.5433-3.5433 3.5433s-3.5433-1.5864-3.5433-3.5433 1.5864-3.5433 3.5433-3.5433 3.5433 1.5864 3.5433 3.5433z" fill-rule="evenodd" transform="matrix(.35005 0 0 .35003 60.574 -25.527)" fill="#d0d0d0"/>
   <path id="path586" d="m108.12 140.67v1.2932h-1.6539c-1.6539 0-1.6539 1.2932 0 1.2932h1.6539v1.2931c0.006 1.3407 1.4434 1.5022 1.5486 0.10456l0.10501-1.3976h1.6539c1.6536 0 1.6536-1.2932 0-1.2932h-1.6539v-1.2932c0-1.2931-1.6536-1.2931-1.6536 0z" fill-rule="evenodd" fill="#d0d0d0"/>
   <path id="path590" d="m102.77 122.35v0.73318s-0.38874 0.56103-2.868 0.73308c-2.4792 0.17204-2.868 0-2.868 0 0.06464 0.63945 0.54716 1.8514 0.40968 3.2992 0.09655 1.6854-0.47443 3.2114-0.47443 3.2114 0.06475 0.0877-0.23334 0.13232-0.75471 0.0877 0.40967-0.36664 0.36238-1.4272 0.40967-2.9326 0.04729-1.5056-1.5641-3.7715-1.2291-4.3988 0.33498-0.62724 7.3748-0.73318 7.3748-0.73318z" fill-rule="evenodd" stroke="#707070" stroke-width=".10937pt" fill="#d0d0d0"/>
   <path id="path591" d="m112.61 119.69c2.4118-0.11142 6.4589-0.0872 6.4589-0.0872s0.95429 1.9141 0.91463 2.9715c-0.0397 1.0574-0.36782 1.9572-0.81831 1.5073-0.45049-0.44993 0.20871-0.3653 0.28884-1.5073 0.08-1.142-0.7702-2.3256-0.7702-2.3256s-1.73 0.75542-4.3322 0.60293c-2.602-0.15249-1.4501-1.1164-1.7417-1.1617z" fill-rule="evenodd" stroke="#707070" stroke-width=".10937pt" fill="#d0d0d0"/>
   <path id="path588" d="m113.43 121.58c2.4118-0.11142 3.9951 0.25843 3.9951 0.25843s0.95429 1.9141 0.91463 2.9715c-0.0397 1.0574-0.36782 1.9572-0.81831 1.5073-0.45049-0.44993 0.20871-0.3653 0.28884-1.5073 0.08-1.142-0.77021-2.3256-0.77021-2.3256s-1.73 0.75542-4.3322 0.60293c-2.602-0.15249-1.8598-0.30778-2.1514-0.35309-0.29162-0.0453-0.36204 0.71984-4.2986 0.82681-3.9365 0.10687-5.9442-0.82681-5.9442-0.82681s-0.38874 0.56103-2.8679 0.73308c-2.4792 0.17204-2.868 0-2.868 0 0.06464 0.63945 0.54716 1.8514 0.40967 3.2992 0.09655 1.6854-0.47443 3.2114-0.47443 3.2114 0.06475 0.0877-0.23334 0.13232-0.75471 0.0877 0.40968-0.36664 0.36238-1.4272 0.40968-2.9326 0.04729-1.5056-1.5641-3.7715-1.2291-4.3988 0.33498-0.62724 2.1198-0.0409 2.4583-0.36664 0.33833-0.32578-1.5898-2.6208-1.2291-4.7654 0.36076-2.1447 2.4042-1.54 4.9166-1.4662 2.5123 0.0737 8.0784 0.72449 9.4233 0 1.345-0.72449 0.76292-3.4066 2.0486-5.132 0.81935-1.0997 2.0485-1.4662 3.2776-1.4662 0.81946 0 2.0486 2.9325 2.0486 3.6657l-0.40979 0.36654h-0.40968v0.36654c-0.9352 0.0938-1.0656-0.79991-1.6388-1.4663-0.24629 1.0329 0.81935 4.3989 0.81935 6.5983 0 1.8328-0.7657 2.6407-0.8138 2.5114z" fill-rule="evenodd" stroke="#707070" stroke-width=".10937pt" fill="#d0d0d0"/>
   <path id="path592" d="m105.54 118.4c0.034 0.7306-3.1664 2.3686-3.4269 3.0171-0.26051 0.64856 0.81357 1.0081 0.48137 1.3781-0.33209 0.37016-0.6059 0.23287-0.67389 0.30146-0.068 0.0687-1.2034-2.5408-1.2034-2.5408s3.0018-1.3536 2.8881-1.938c-0.11378-0.58442-2.2167-0.93988-2.5992-2.4117-0.38262-1.4718-0.17044-4.315-0.48136-4.9096-0.31093-0.59453-3.9952-1.1618-3.9983-2.0608-0.0031-0.89905 3.7869-3.3665 4.1965-3.7331 0.40968-0.36657 0.81947 0.36657 0.40968 0.73314-0.40968 0.36657-3.3771 2.6334-3.3771 3 0 0.36657 2.4583 0.73314 3.2777 0.73314 0.81935 0 1.2291-0.36657 1.2291-0.73314 0.005-0.31713-0.81946-0.36656-0.81946-1.0997s0.40967-1.0997 1.2291-1.0997c0.40967 0 1.1974 0.46939 1.2291 1.0997s-0.72905 0.6837-0.81947 1.0997c-0.0903 0.41602 0.81947 0.73314 1.6388 0.73314 0.81947 0 3.6171 2.132 4.0268 2.4986 0.40979 0.36658 0.81947 0.36657 0.40979 0.73315-0.40967 0.36657-0.16974 0.80054-0.57953 0.43397-0.34885-0.35412-0.40968-0.73315-0.40968-0.73315-0.0354-0.33309-3.0376-1.8328-3.4474-1.4663-0.40967 0.36657 0 4.7655 0 5.132 0 0.73307 0.85346 0.73059 0.81947 1.8328z" fill-rule="evenodd" stroke="#707070" stroke-width=".10937pt" fill="#d0d0d0"/>
   <rect id="rect604" fill-rule="evenodd" height="5.132" width="4.9165" y="109.9" x="100.32" stroke-width="1pt" fill="#a7a7a7"/>
   <rect id="rect593" transform="matrix(.55442 .83223 -.88237 .47055 0 0)" fill-rule="evenodd" rx=".44451" ry=".19943" height=".39886" width="30.647" y="-25.672" x="138.6" stroke-width="1pt" fill="#808080"/>
   <path id="path594" d="m180.71 42.52c0 3.9138-3.1728 7.0866-7.0866 7.0866s-7.0866-3.1728-7.0866-7.0866 3.1728-7.0866 7.0866-7.0866 7.0866 3.1728 7.0866 7.0866z" fill-rule="evenodd" transform="matrix(.11563 0 0 .10345 80.65 101.47)" stroke="#707070" stroke-width="1pt" fill="#d0d0d0"/>
   <path id="path596" d="m115.88 112.54c0 0.30373-1.9021 0.66027-4.0972 0.66027-2.195 0-4.0971-0.35654-4.0971-0.66027 0-0.30372 1.902 0.44018 4.0971 0.44018 2.195 0 4.0972-0.7439 4.0972-0.44018z" fill-rule="evenodd" stroke-width="1pt" fill="#808080"/>
   <rect id="rect603" fill-rule="evenodd" height="1.4663" width="4.0971" y="115.03" x="100.73" stroke-width="1pt" fill="#a7a7a7"/>
   <path id="path597" d="m279.92 58.465c0 6.8492-0.7932 12.402-1.7717 12.402-0.97847 0-1.7717-5.5524-1.7717-12.402 0-6.8492 0.7932-12.402 1.7717-12.402 0.97846 0 1.7717 5.5524 1.7717 12.402z" fill-rule="evenodd" transform="matrix(.069192 .091056 -.057997 .10863 98.071 79.578)" fill="#808080"/>
   <path id="path598" d="m279.92 58.465c0 6.8492-0.7932 12.402-1.7717 12.402-0.97847 0-1.7717-5.5524-1.7717-12.402 0-6.8492 0.7932-12.402 1.7717-12.402 0.97846 0 1.7717 5.5524 1.7717 12.402z" fill-rule="evenodd" transform="matrix(.012985 .081708 -.066047 .057943 115.31 87.084)" fill="#808080"/>
   <path id="path599" d="m279.92 58.465c0 6.8492-0.7932 12.402-1.7717 12.402-0.97847 0-1.7717-5.5524-1.7717-12.402 0-6.8492 0.7932-12.402 1.7717-12.402 0.97846 0 1.7717 5.5524 1.7717 12.402z" fill-rule="evenodd" transform="matrix(.063770 -.027207 .048703 .088588 93.866 114.85)" fill="#808080"/>
   <path id="path600" d="m290.55 136.42c0 0.97846-10.312 1.7717-23.032 1.7717s-23.031-0.7932-23.031-1.7717c0-0.97846 10.312-1.7717 23.031-1.7717 12.72 0 23.032 0.7932 23.032 1.7717z" fill-rule="evenodd" transform="matrix(.12452 0 0 .10345 78.065 101.47)" fill="#808080"/>
   <path id="path601" d="m209.06 132.87c0 0.97846-7.932 1.7717-17.717 1.7717-9.7846 0-17.717-0.7932-17.717-1.7717 0-0.97846 7.932-1.7717 17.717-1.7717 9.7846 0 17.717 0.7932 17.717 1.7717z" fill-rule="evenodd" transform="matrix(.11563 0 0 .10345 80.65 101.47)" fill="#808080"/>
   <path id="path609" d="m95.813 127.96s0.67574 1.6428 3.5564 1.6656c2.8806 0.0227 3.872-0.49276 2.7066-1.3627-1.1654-0.86995-3.3329-0.59933-3.0528 0.1514 0.28011 0.75074-0.81288 1.0011-1.0701 0.47317-0.25712-0.52791-1.2887-2.091 0.56649-2.1955 1.8552-0.10453 5.7845-0.67368 6.7665 0.41642 0.98215 1.09-1.1095 2.0781 0.47206 2.309 1.5816 0.23093 1.8064-0.26411 4.5283-0.41347 2.722-0.1494 3.7606 0.50477 4.6931 0.41347 0.93249-0.0913 0.80064-1.694 0.0629-2.1008-0.73773-0.40692-2.1547-0.48131-2.5178-0.92742-0.36305-0.44611-1.351-0.083-1.2589-0.58674 0.0922-0.50377 1.4009 0.34668 1.4163 0.0894 0.00045-0.008 0.21607-0.17869 0.25962-0.22179-0.16466-0.0376-0.25864 0.0233-0.38225 0.0886 0.1342-0.1073 0.12588-0.15677 0.17087-0.24452-0.0234-0.0331-0.18606 0.12431-0.21358 0.0914-0.0275-0.0329 0.18938-0.25607 0.0912-0.17514-0.034 0.0233-0.29273 0.15136-0.2956 0.0632 0.004-0.0358 0.13525-0.12789 0.089-0.17786-0.0373-0.0416-0.23384 0.0484-0.25917 0.0587 0.11243-0.15045 0.10449-0.14863-0.004-0.26011-0.0944-0.11148-0.1633-0.10889-0.31753 0.017 0.0642-0.18091 0.0816-0.21919-0.0733-0.28775-0.12739-0.0692-0.13306-0.1344-0.29152 0.18923 0.0603-0.34636-0.10154-0.36146-0.0343-0.5257 0.04-0.15057 0.25123-0.21411 0.59931-0.18085 0.67627 0.006 1.0379 0.8163 1.2589 0.81385 0.22107-0.002 0.46844-0.85851 1.4163-0.51102 0.94783 0.34748 1.0649 0.41836 1.5422 0.62459 0.47728 0.20619-0.3353 0.52091-0.063 0.92742 0.27232 0.40647 2.1342 1.7643 1.6051 3.1797-0.52915 1.4154-1.892 1.6393-2.0142 2.2523-0.12225 0.61302 4.3144 0.3615 5.4447 0.56783 1.1302 0.20627 1.8428 1.0507 1.8883 1.1923 0.0455 0.14163-1.9828 0.13249-1.9828 0.13249s-1.0415-0.53818-3.5249-0.58669c-2.4833-0.0486-3.429-1.0507-4.3586-1.1763-0.92961-0.12557-2.9108 0.21051-4.0182 0.16109-1.1075-0.0494-2.2294-0.22474-2.9467-0.32217-0.71739-0.0974-4.2862 1.611-4.2738 2.0089-0.74393-0.0282-2.4956-0.12316-2.4234-0.0757 0.0722 0.0474 0.3139-0.77465 1.6794-0.91914 1.3655-0.14454 2.6949-0.79898 2.6508-1.2287-0.0441-0.42971 0.26363-1.9039 0.37764-2.5362 0.11401-0.63225 0.62524-0.93733 0.50359-1.2681-0.12165-0.33072-1.6817-0.6719-3.1787-0.66245-1.497 0.01-3.1579 0.0935-3.399 0.45426-0.24102 0.36073-0.05905 1.4078 0.25183 1.287 0.3108-0.1208-0.07515-0.80529 0.25176-0.94638 0.32691-0.14103 1.1647-0.26565 1.9512-0.28389 0.78664-0.0182 2.1542 0.66968 2.1402 0.88955-0.0141 0.21992 0.44008 0.95179-0.18886 1.2303-0.62887 0.27843-1.9152 0.40292-3.1472 0.34068-1.2321-0.0622-2.4787-0.48531-2.927-0.75706-0.44817-0.27175-0.72382-1.0978-0.72382-1.1546z" fill-rule="evenodd" stroke="#808080" stroke-width=".058629pt" fill="#d0d0d0"/>
   <path id="path610" d="m205.51 434.06c0 0.97847-0.7932 1.7717-1.7716 1.7717-0.97846 0-1.7716-0.7932-1.7716-1.7717 0-0.97846 0.79319-1.7717 1.7716-1.7717 0.97845 0 1.7716 0.7932 1.7716 1.7717z" fill-rule="evenodd" transform="matrix(.18555 0 0 .18554 75.921 44.995)"/>
   <path id="path615" d="m129.51 120.77 1.5954 0.34396 2.6647-1.8236-0.20645 0.95748-1.3882 0.92729c-0.25877 0.17025-0.51485 0.32588-0.76735 0.46705 0.15834 0.22106 0.33361 0.48489 0.52507 0.79279l0.85907 1.3908-0.19763 0.91663-1.6589-2.8412-1.5954-0.34395 0.16973-0.78717z" stroke-width="1pt" fill="#d0d0d0"/>
   <path id="path618" d="m126.79 109.04 3.0862-1.4214-0.83851-1.8205 0.41307-0.19024 2.0172 4.3794-0.41307 0.19024-0.84178-1.8276-3.0862 1.4214-0.33689-0.7314z" stroke-width="1pt" fill="#d0d0d0"/>
   <path id="path619" d="m122.01 103.23 2.8413-2.6017 0.55772 0.60903-0.073 4.3988 2.2307-2.0426 0.52137 0.56933-2.8413 2.6017-0.55772-0.60903 0.0746-4.4011-2.2327 2.0444-0.52089-0.56881z" stroke-width="1pt" fill="#d0d0d0"/>
   <path id="path622" d="m109.59 98.214 0.46587-3.8241 0.79868 0.09729-0.41087 3.3727 2.9747 0.36234-0.055 0.45142-3.7734-0.45963z" stroke-width="1pt" fill="#d0d0d0"/>
   <path id="path623" d="m103.48 98.762-0.68951-3.7902 0.7923-0.14412 0.60811 3.3428 2.9476-0.53617 0.0814 0.44741-3.7399 0.68029z" stroke-width="1pt" fill="#d0d0d0"/>
   <path id="path626" d="m92.198 104.33-0.28257-0.35288 2.0102-1.613 0.89367 1.1161c-0.18431 0.40323-0.40858 0.77583-0.6728 1.1178-0.26618 0.34066-0.57203 0.64989-0.91758 0.92655-0.46607 0.37316-0.94114 0.65011-1.4238 0.83031-0.48241 0.17712-0.91596 0.22377-1.3023 0.14013-0.38552-0.0837-0.69699-0.27329-0.93358-0.56876-0.23435-0.29267-0.35652-0.64241-0.36735-1.0491-0.0089-0.40997 0.11865-0.82177 0.38266-1.2354 0.26429-0.41327 0.63293-0.80953 1.1062-1.1884 0.34333-0.27489 0.68126-0.48742 1.0146-0.63769 0.33471-0.15308 0.63131-0.23026 0.88951-0.23074 0.25848-0.00013 0.50965 0.0677 0.75378 0.20484l-0.48792 0.5521c-0.1941-0.0962-0.37871-0.14549-0.55494-0.14802-0.17568-0.003-0.38323 0.0483-0.62099 0.15364-0.23888 0.10393-0.47885 0.25182-0.7188 0.44394-0.28694 0.22974-0.51248 0.45685-0.67716 0.68063-0.16581 0.22238-0.27751 0.43074-0.33456 0.62465-0.05539 0.19257-0.07502 0.37088-0.06 0.53581 0.02805 0.28319 0.12926 0.53309 0.30334 0.75049 0.21473 0.26816 0.46601 0.43467 0.75551 0.49933 0.29143 0.0625 0.61165 0.0262 0.95983-0.10893 0.34873-0.13558 0.68011-0.32909 0.99304-0.57963 0.27201-0.21779 0.5116-0.46362 0.71792-0.73625 0.20576-0.27447 0.34539-0.50348 0.4192-0.68552l-0.44852-0.56013-1.3966 1.1182z" stroke-width="1pt" fill="#d0d0d0"/>
   <path id="path631" d="m92.068 132.03-3.1412 2.2305-2.3763-3.3462 0.3708-0.2633 1.9102 2.6899 0.9727-0.6907-1.6531-2.3278 0.3708-0.2633 1.6531 2.3278 1.4269-1.0132 0.46613 0.65638z" stroke-width="1pt" fill="#d0d0d0"/>
   <path id="path634" d="m87.441 127.02c0.44673-0.12608 0.74613-0.41429 0.89696-0.86551 0.14893-0.45316 0.14259-0.96589-0.01904-1.5385-0.16446-0.58265-0.42962-1.0251-0.79506-1.3275-0.36658-0.30487-0.78809-0.38992-1.2655-0.25517-0.30172 0.0852-0.54212 0.24062-0.7203 0.46613-0.18098 0.22383-0.28891 0.50846-0.32404 0.85458-0.03743 0.3446-0.0021 0.70921 0.10705 1.0957 0.15467 0.54796 0.40818 0.98722 0.75928 1.3163 0.34898 0.32687 0.8026 0.41152 1.3607 0.25401zm0.2181 0.80063c-0.61554 0.17373-1.1708 0.049-1.6652-0.37515-0.4964-0.42303-0.86106-1.0479-1.0938-1.8726-0.15257-0.5405-0.20861-1.051-0.16756-1.5313s0.17635-0.8745 0.40592-1.1839c0.22718-0.31116 0.5263-0.51942 0.89705-0.62406 0.37596-0.10611 0.74611-0.0809 1.1106 0.0744 0.36431 0.15629 0.68546 0.4322 0.96252 0.82766 0.27606 0.39698 0.48576 0.84923 0.62926 1.3576 0.15564 0.5514 0.21016 1.0682 0.16413 1.549-0.04612 0.48203-0.18332 0.87616-0.41204 1.1819-0.22864 0.30601-0.50576 0.50465-0.83078 0.59639z" stroke-width="1pt" fill="#d0d0d0"/>
   <path id="path637" d="m87.981 120-3.8516-0.0869 0.06087-2.6969c0.01224-0.54242 0.05652-0.95357 0.13329-1.2338 0.07447-0.28114 0.20106-0.50359 0.38023-0.66792 0.1791-0.16464 0.3743-0.24517 0.58638-0.24038 0.27302 0.006 0.50038 0.15136 0.68151 0.43469 0.18112 0.28392 0.29066 0.71792 0.32816 1.3023 0.06934-0.21093 0.13712-0.37152 0.20279-0.4806 0.14163-0.23194 0.31755-0.45118 0.52715-0.65685l1.0722-1.0341-0.02285 1.0124-0.81945 0.78705c-0.23669 0.22979-0.41771 0.41912-0.54396 0.56856-0.12588 0.14944-0.21456 0.28423-0.26667 0.40464-0.05155 0.11805-0.08835 0.23911-0.11046 0.36318-0.01464 0.0912-0.02379 0.24026-0.02846 0.44698l-0.02108 0.9341 1.7101 0.0386-0.01817 0.80483zm-2.1336-0.85338 0.03906-1.7306c0.0083-0.36757-0.0086-0.65553-0.05138-0.86392-0.04425-0.20871-0.11782-0.36832-0.22071-0.47823-0.10432-0.11083-0.21876-0.16706-0.34295-0.16986-0.18208-0.004-0.33417 0.098-0.45645 0.3056-0.12214 0.20466-0.18825 0.53188-0.19843 0.98285l-0.04346 1.9254 1.2743 0.0288z" stroke-width="1pt" fill="#d0d0d0"/>
   <path id="path640" d="m96.55 102.2 0.0263-4.5055 0.74448-0.44558 4.1151 2.0268-0.78692 0.47098-1.2081-0.63642-2.1828 1.3064 0.02591 1.344-0.734 0.4393zm0.69396-2.2588 1.7697-1.0592-1.0923-0.5897c-0.33323-0.17847-0.59329-0.33332-0.78095-0.46351 0.06048 0.2513 0.09265 0.51794 0.09627 0.79956l0.0073 1.3128z" stroke-width="1pt" fill="#d0d0d0"/>
   <path id="path643" d="m115.85 98.734 4.1571-1.7378 0.70054 0.51037-0.25588 4.58-0.74123-0.54002 0.11329-1.3607-2.0561-1.4979-1.2268 0.54944-0.69091-0.50335zm2.3506-0.24454 1.6669 1.2144 0.11488-1.2364c0.0347-0.37595 0.0752-0.67602 0.12167-0.89964-0.20836 0.15341-0.44096 0.28747-0.69827 0.4013l-1.2052 0.52028z" stroke-width="1pt" fill="#d0d0d0"/>
   <path id="path646" d="m128.5 112.83 3.7468-0.89652 0.62779 2.6235c0.12613 0.52708 0.18799 0.93596 0.1853 1.2273-0.00064 0.28996-0.0664 0.53731-0.19763 0.74271-0.13128 0.20481-0.29969 0.3318-0.506 0.38116-0.26559 0.0636-0.52235-0.0187-0.7698-0.24715-0.24723-0.22758-0.4638-0.61997-0.64893-1.1758-0.0132 0.2222-0.0378 0.39505-0.0735 0.51725-0.0779 0.26036-0.19242 0.51629-0.34274 0.76855l-0.77353 1.2732-0.23555-0.98432 0.59205-0.96973c0.17038-0.28248 0.2971-0.51224 0.38128-0.68831 0.0837-0.17657 0.13498-0.33007 0.15464-0.46008 0.02-0.12641 0.0248-0.25284 0.0146-0.37846-0.009-0.0919-0.0382-0.23869-0.0865-0.44036l-0.21724-0.90782-1.6636 0.39805-0.18743-0.78322zm2.2806 0.28237 0.40265 1.6826c0.0857 0.35814 0.17533 0.63233 0.26986 0.82324 0.0959 0.19028 0.2075 0.32532 0.3352 0.40628 0.12889 0.0798 0.25395 0.10528 0.37475 0.0764 0.17713-0.0424 0.29835-0.17922 0.36374-0.41115 0.0659-0.22931 0.0464-0.56315-0.0586-1.0018l-0.448-1.8722-1.2396 0.29662z" stroke-width="1pt" fill="#d0d0d0"/>
  </g>
 </g>
</svg>
