<?xml version="1.0" encoding="UTF-8" standalone="no"?>
<!-- Created with Sodipodi ("http://www.sodipodi.com/") -->
<svg id="svg378" xmlns:rdf="http://www.w3.org/1999/02/22-rdf-syntax-ns#" xmlns="http://www.w3.org/2000/svg" height="480" width="640" version="1" y="0" x="0" xmlns:cc="http://creativecommons.org/ns#" xmlns:dc="http://purl.org/dc/elements/1.1/">
 <metadata id="metadata3847">
  <rdf:RDF>
   <cc:Work rdf:about="">
    <dc:format>image/svg+xml</dc:format>
    <dc:type rdf:resource="http://purl.org/dc/dcmitype/StillImage"/>
   </cc:Work>
  </rdf:RDF>
 </metadata>
 <g id="flag" stroke-width="1pt" fill-rule="evenodd">
  <g id="g6497" transform="matrix(.83333 0 0 .9375 108.2 .0000021859)">
   <rect id="rect171" height="512" width="768" y="-.0000023316" x="-129.84" fill="#f41408"/>
   <rect id="rect256" height="170.67" width="768" y="341.33" x="-129.84" fill="#21873b"/>
   <rect id="rect255" height="170.67" width="768" y="-.0000023316" x="-129.84"/>
  </g>
  <g id="g6372" transform="matrix(1 0 0 .90680 60.299 .83219)">
   <path id="path386" d="m160.18 154.64c22.308-54.325 84.502-80.311 138.83-58.003 27.36 11.235 46.74 30.607 57.987 57.963l-196.81 0.0407z" fill="#f31509"/>
   <path id="path353" d="m134.21 161.66c-23.45-1.74-48.376-7.12-52.443-8.6-4.0665-1.4808-4.2229-3.954-3.722-5.8475 0.50108-1.8942 3.0964-4.0446 6.1266-3.243 5.6819 1.503 28.788 7.6146 50.034 17.693z" fill="#f31509"/>
   <path id="path354" d="m258.84 66.919c-4.2082-23.136-5.2705-48.609-4.8599-52.917 0.41062-4.3082 2.765-5.0815 4.7237-5.0728 1.9594 0.00865 4.6933 1.9799 4.6794 5.1143-0.026 5.8772-0.13081 29.778-4.5432 52.876z" fill="#f31509"/>
   <path id="path355" d="m270.38 67.456c-2.2104-23.412-1.0862-48.882-0.30789-53.139 0.77825-4.2571 3.1903-4.8259 5.141-4.6494 1.9514 0.17651 4.5064 2.3747 4.224 5.4964-0.52945 5.8534-2.6818 29.657-9.0571 52.292z" fill="#f31509"/>
   <path id="path356" d="m280.84 68.873c-0.27645-23.514 2.9398-48.805 4.0657-52.984 1.1259-4.1787 3.5765-4.547 5.5061-4.2106 1.9303 0.33648 4.2957 2.7375 3.7574 5.8253-1.0093 5.79-5.113 29.336-13.329 51.369z" fill="#f31509"/>
   <path id="path357" d="m291.85 71.335c1.7933-23.447 7.2221-48.357 8.7113-52.421 1.4892-4.0634 3.9627-4.2147 5.8552-3.7099 1.8932 0.505 4.0382 3.1048 3.2303 6.1333-1.5148 5.6788-7.674 28.772-17.797 49.998z" fill="#f31509"/>
   <path id="path358" d="m302.7 74.791c3.8675-23.195 11.486-47.526 13.33-51.441 1.844-3.9152 4.3212-3.8463 6.1614-3.1755 1.8409 0.67105 3.7466 3.451 2.6732 6.3958-2.01 5.521-10.2 27.977-22.16 48.22z" fill="#f31509"/>
   <path id="path359" d="m312.81 79.016c5.8364-22.78 15.507-46.369 17.679-50.113 2.172-3.7432 4.6342-3.4628 6.4103-2.6371 1.7768 0.82598 3.4379 3.7586 2.1166 6.601-2.4776 5.3296-12.552 27.003-26.206 46.149z" fill="#f31509"/>
   <path id="path360" d="m322.76 84.225c7.8085-22.181 19.507-44.834 21.999-48.372 2.4913-3.5387 4.9196-3.0437 6.6166-2.0657 1.6976 0.97838 3.0956 4.0452 1.5305 6.7609-2.9347 5.0922-14.868 25.8-30.146 43.677z" fill="#f31509"/>
   <path id="path361" d="m332.17 90.255c9.712-21.416 23.341-42.963 26.131-46.271 2.7903-3.3081 5.1661-2.6034 6.7715-1.4812 1.6059 1.1226 2.7313 4.2996 0.93541 6.8686-3.3673 4.817-17.06 24.406-33.838 40.884z" fill="#f31509"/>
   <path id="path362" d="m341.03 97.092c11.544-20.487 27.001-40.762 30.07-43.814 3.0684-3.0519 5.3736-2.1426 6.8749-0.88453 1.5018 1.2585 2.3456 4.5216 0.33236 6.924-3.7749 4.5047-19.126 22.824-37.277 37.774z" fill="#f31509"/>
   <path id="path363" d="m349.28 104.69c13.292-19.399 30.464-38.244 33.787-41.015 3.3236-2.7718 5.5405-1.6643 6.9259-0.27975 1.386 1.385 1.941 4.7094-0.2746 6.9266-4.1545 4.1573-21.049 21.064-40.439 34.369z" fill="#f31509"/>
   <path id="path364" d="m356.86 113.01c14.943-18.158 33.701-35.424 37.255-37.893 3.5539-2.4695 5.6651-1.1718 6.9238 0.32891 1.2591 1.5013 1.5204 4.8616-0.88118 6.8758-4.5032 3.7768-22.815 19.136-43.298 30.689z" fill="#f31509"/>
   <path id="path365" d="m363.38 121.54c16.41-16.843 36.549-32.478 40.297-34.641 3.7482-2.1633 5.7433-0.69342 6.8719 0.90742 1.129 1.6014 1.1081 4.9718-1.4537 6.7779-4.8036 3.3865-24.338 17.159-45.715 26.956z" fill="#f31509"/>
   <path id="path366" d="m369.28 130.79c17.791-15.377 39.193-29.232 43.113-31.067 3.9195-1.8347 5.7816-0.19951 6.7691 1.492 0.98785 1.6921 0.67865 5.0484-2.0283 6.6286-5.0757 2.9631-25.716 15.014-47.854 22.946z" fill="#f31509"/>
   <path id="path367" d="m374.75 141.33c19.138-13.664 41.731-25.478 45.804-26.942 4.0726-1.464 5.7752 0.33664 6.6019 2.1123 0.82694 1.7763 0.20834 5.0895-2.6333 6.4124-5.3282 2.4805-26.996 12.568-49.773 18.417z" fill="#f31509"/>
   <path id="path368" d="m378.93 151.51c20.24-11.972 43.763-21.804 47.946-22.914 4.1831-1.1092 5.7251 0.83075 6.3964 2.6708 0.67153 1.8407-0.22897 5.0886-3.1736 6.1629-5.5214 2.0143-27.974 10.206-51.169 14.08z" fill="#f31509"/>
   <path id="path369" d="m382.29 162.3c21.216-10.142 45.514-17.863 49.779-18.6 4.2646-0.73632 5.6296 1.332 6.1361 3.224 0.50672 1.8927-0.67648 5.0486-3.7043 5.8592-5.6774 1.5199-28.765 7.7016-52.21 9.5162z" fill="#f31509"/>
   <path id="path370" d="m247.55 67.357c-6.3301-22.648-9.7438-47.913-9.7334-52.241 0.0104-4.3277 2.2832-5.3154 4.2342-5.488 1.9518-0.17261 4.8563 1.5373 5.1324 4.6595 0.51775 5.8545 2.624 29.662 0.36681 53.069z" fill="#f31509"/>
   <path id="path371" d="m236.45 68.792c-8.2828-22.009-13.889-46.88-14.256-51.192-0.36741-4.3121 1.8105-5.4944 3.739-5.8366 1.9292-0.34232 4.9719 1.1075 5.5195 4.1937 1.0268 5.7869 5.2032 29.32 4.9978 52.835z" fill="#f31509"/>
   <path id="path372" d="m225.42 71.218c-10.19-21.193-17.97-45.473-18.72-49.737-0.74591-4.2629 1.3194-5.6326 3.2102-6.1434 1.8916-0.51097 5.0502 0.66513 5.8676 3.6911 1.5327 5.6739 7.7663 28.748 9.6336 52.189z" fill="#f31509"/>
   <path id="path373" d="m215.02 74.467c-11.95-20.252-21.76-43.784-22.86-47.968-1.1052-4.1842 0.83633-5.7243 2.677-6.3938 1.8414-0.66974 5.0884 0.23393 6.1598 3.1796 2.0089 5.5233 10.179 27.984 14.03 51.182z" fill="#f31509"/>
   <path id="path374" d="m204.86 78.627c-13.65-19.154-25.44-41.759-26.9-45.834-1.4595-4.0742 0.34295-5.7749 2.1195-6.5996 1.7772-0.825 5.0897-0.20277 6.4095 2.6403 2.4746 5.3309 12.539 27.01 18.362 49.793z" fill="#f31509"/>
   <path id="path375" d="m194.59 83.924c-15.313-17.847-29.09-39.299-30.91-43.225-1.8205-3.9261-0.1786-5.7823 1.5165-6.7636 1.6957-0.98172 5.0508-0.66039 6.6212 2.0522 2.9447 5.0864 14.921 25.77 22.773 47.936z" fill="#f31509"/>
   <path id="path376" d="m185.24 89.848c-16.8-16.458-32.37-36.641-34.53-40.395-2.1526-3.7543-0.67706-5.7453 0.92699-6.8693 1.6046-1.1244 4.9749-1.0939 6.7737 1.473 3.3728 4.8132 17.089 24.386 26.826 45.792z" fill="#f31509"/>
   <path id="path377" d="m176.48 96.438c-18.139-14.965-35.382-33.745-37.847-37.302-2.4652-3.5569-1.1648-5.6666 0.33745-6.9233 1.5028-1.2573 4.8634-1.5144 6.8747 0.88966 3.7712 4.5078 19.108 22.839 30.635 43.336z" fill="#f31509"/>
   <path id="path378" d="m167.97 104.1c-19.4-13.292-38.25-30.46-41.02-33.783-2.7725-3.323-1.6654-5.5401-0.2812-6.9259 1.3848-1.3862 4.709-1.942 6.9266 0.27315 4.1581 4.1536 21.068 21.044 34.377 40.431z" fill="#f31509"/>
   <path id="path379" d="m160.62 111.96c-20.447-11.615-40.668-27.143-43.709-30.222-3.0412-3.0789-2.1239-5.381-0.86066-6.8779 1.2637-1.4974 4.5297-2.3299 6.9251-0.30832 4.4916 3.7905 22.758 19.205 37.645 37.408z" fill="#f31509"/>
   <path id="path380" d="m153.58 120.94c-21.398-9.7515-42.92-23.42-46.223-26.216-3.3029-2.7964-2.5939-5.1709-1.4687-6.7742 1.1256-1.6038 4.3046-2.7233 6.8703-0.92275 4.8108 3.3762 24.375 17.105 40.821 33.913z" fill="#f31509"/>
   <path id="path381" d="m147.27 130.67c-22.191-7.7804-44.858-19.451-48.4-21.937-3.5418-2.4868-3.05-4.9157-2.0741-6.614 0.97622-1.6989 4.0413-3.1007 6.759-1.5391 5.0959 2.9282 25.819 14.836 43.716 30.091z" fill="#f31509"/>
   <path id="path382" d="m142.03 140.56c-22.785-5.8169-46.383-15.467-50.128-17.636-3.7451-2.1687-3.4668-4.6312-2.6426-6.4081 0.82446-1.7775 3.7557-3.4411 6.5992-2.1222 5.3317 2.473 27.014 12.529 46.171 26.166z" fill="#f31509"/>
   <path id="path383" d="m137.83 150.47c-23.192-3.8867-47.516-11.525-51.43-13.373-3.9137-1.8472-3.8427-4.3244-3.1704-6.164 0.67257-1.8403 3.454-3.7438 6.398-2.6679 5.5202 2.0174 27.969 10.221 48.202 22.204z" fill="#f31509"/>
   <path id="path384" d="m134.21 161.66c-23.45-1.74-48.376-7.12-52.443-8.6-4.0665-1.4808-4.2229-3.954-3.722-5.8475 0.50108-1.8942 3.0964-4.0446 6.1266-3.243 5.6819 1.503 28.788 7.6146 50.034 17.693z" fill="#f31509"/>
   <rect id="rect385" height="13.853" width="381.23" y="155.15" x="69.087"/>
  </g>
 </g>
</svg>
