<?xml version="1.0" encoding="UTF-8" standalone="no"?>
<!-- Created with Sodipodi ("http://www.sodipodi.com/") -->
<svg id="svg3337" xmlns:rdf="http://www.w3.org/1999/02/22-rdf-syntax-ns#" xmlns="http://www.w3.org/2000/svg" height="480" width="640" version="1.1" xmlns:cc="http://creativecommons.org/ns#" xmlns:xlink="http://www.w3.org/1999/xlink" xmlns:dc="http://purl.org/dc/elements/1.1/">
 <metadata id="metadata4182">
  <rdf:RDF>
   <cc:Work rdf:about="">
    <dc:format>image/svg+xml</dc:format>
    <dc:type rdf:resource="http://purl.org/dc/dcmitype/StillImage"/>
   </cc:Work>
  </rdf:RDF>
 </metadata>
 <g id="flag">
  <g id="g6001" fill-rule="evenodd" stroke-width="1pt" transform="matrix(1.3333 0 0 1 0 -32)">
   <rect id="rect880" height="480" width="480" y="32" x="0" fill="#fff"/>
   <rect id="rect1200" height="480" width="160.73" y="32" x="0" fill="#0b7226"/>
   <rect id="rect1201" height="480" width="159.81" y="32" x="320.19" fill="#bc0000"/>
  </g>
  <g id="g5008" transform="matrix(.93750 0 0 .93750 78.8 -2.9842)">
   <path id="path723" d="m143.28 279.14c0.0819-0.10639 3.6992-6.4398 3.2703-5.4192 1.6664 1.2767 4.7091 0.0667 2.5015-2.8052 0.53702-1.1614 1.2151-2.0468 1.7529-3.209 1.2138-2.2735-1.386-3.2534-2.4145-1.6812-0.62864 1.2041-1.2358 1.9201-1.8648 3.1246-3.2753-1.5549-3.4907 2.1021-1.9235 2.7408-0.69535 0.98455-1.8796 2.6068-2.5745 3.5913 0.41712 1.2193 0.83509 2.4386 1.2526 3.6578z" fill-rule="evenodd" fill="#9c4314"/>
   <path id="path724" d="m142.85 277.73c-0.10766-0.0798-6.4916-3.6072-5.4652-3.193 1.2535-1.6843 0-4.7093-2.8396-2.4611-1.1695-0.5214-2.0649-1.1872-3.234-1.7078-2.2904-1.1809-3.2331 1.4321-1.647 2.4377 1.2134 0.61234 1.9374 1.2085 3.1512 1.8206-1.5085 3.2969 2.1515 3.4607 2.7674 1.8846 0.99468 0.68142 4.8467 2.9144 5.841 3.5958 1.2134-0.43444 0.21279-1.9425 1.4262-2.3769z" fill-rule="evenodd" fill="#9c4314"/>
   <path id="path721" d="m165.94 316.43c0.0211-0.13257 0.18534-7.4242 0.29426-6.3227 2.0734 0.32889 4.1725-2.1844 0.86338-3.6578-0.0806-1.2771 0.0937-2.3786 0.0131-3.6566-0.0156-2.577-2.7683-2.2004-2.9236-0.32846 0.0207 1.3586-0.17226 2.2773-0.15157 3.6359-3.6207 0.19294-2.0683 3.5109-0.38588 3.326-0.1427 1.1969-0.41121 3.1871-0.55349 4.384 0.94739 0.87308 1.896 1.7466 2.8439 2.6197z" fill-rule="evenodd" fill="#9c4314"/>
   <path id="path722" d="m164.89 315.39c-0.13257-0.019-7.4259-0.0798-6.3261-0.20476 0.29976-2.078-2.2431-4.1408-3.6692-0.81102-1.2763 0.0984-2.3807-0.0604-3.657 0.0384-2.5762 0.0523-2.1608 2.7991-0.28709 2.9279 1.3586-0.0397 2.2794 0.13974 3.638 0.10005 0.24403 3.6173 3.5401 2.0181 3.3311 0.3386 1.199 0.12581 4.9409 0.51676 6.1399 0.64257 0.86-0.96006-0.0291-2.0717 0.83045-3.0317z" fill-rule="evenodd" fill="#9c4314"/>
   <path id="path691" d="m240.35 340.38s2.5015 3.3767 3.627 3.5016c3.5016 0.24993 31.266 0 31.266 0 0-0.0418 1.0006-0.58347 1.0006-0.62527 0.91699-1.1674 0.83382-1.8344 1.7508-3.0018 1.4591-1.4591 3.5434-1.9176 5.0025-3.3767 6.2535-1.5009 11.881-3.0013 18.135-4.0019-0.50029-3.7102-4.2519-2.9182-6.253-4.3772-0.62526-0.58389-0.50072-1.1674-0.12539-1.7512 4.6276-2.1262 9.2548-4.2519 13.882-6.378v-1.5009c-9.8387 1.1673-18.927 3.0845-29.516 3.5016-12.048 4.9611-24.096 9.9219-36.144 14.883-0.8752 1.0424-1.7508 2.0844-2.626 3.1267z" fill-rule="evenodd" stroke="#000" stroke-width="1.0555" fill="#42b2f3"/>
   <path id="path610" d="m140.42 273.97h-0.12539c0.62737 0 0.12877 0.0418 0-1.501" stroke="#000" stroke-width=".42219pt" fill="none"/>
   <path id="path611" d="m140.96 275.64c-1.8758-6.6285-4.9075-12.437-11.982-14.154-1.3265-0.30187-2.2688-4.0906-0.0583-3.9137 1.251 0.50029 0.0253-0.23769 1.2758 0.2626 1.2383 0.44245 3.166-0.53407 2.3702-2.6416 0-0.24994-2.3613-4.4414-2.3613-4.5664-0.44203-0.47876 0.37913-3.166 2.5015-1.7508 1.0006 0.65651 2.0012 2.1979 3.4438 2.501 0.53069-0.0887 0.88153-1.7356 0.7933-3.0106 0-0.12497 0.12496-4.3228 0.12496-4.3228-0.50282-2.5293 1.7356-3.8204 3.532-1.9277 0.12539 0.62526-0.0148 0.63159 0.11019 1.2573 0.41163 0.8372 0.91192 0.96765 1.5005 0.12496l2.3765-2.3765c1.411-0.52436 2.2916-1.0487 2.3761 1.8762 0 0-1.9467 2.4402-2.8675 3.3247-0.47876 0.70716-1.5186 1.6689 0.28666 2.1996 0.12497 0 2.5808 0.35379 2.5808 0.35379 1.6803 0.6983 1.8572 2.5466 0.61936 2.7147 0 0-1.3101 1.5283-3.6093 2.8029-0.70758 0.56784-1.2898 1.2509-0.67085 2.0316 1.3265 0.51549 0.90432 0.0215 3.1668 0.0215 1.9091-0.44203 1.7322 4.2329-1.7166 3.9162-1.0322 0.24656-2.3942 0.14439-2.9536 1.7939-0.24993 1.2847-0.31157 3.7511-0.31157 4.3768-0.21405 2.9768 0.22333 7.1056 0.22333 7.2306 0.24994 2.1261-0.50029 1.3755-0.75065 1.8758z" fill-rule="evenodd" stroke="#286726" stroke-width="1.9526" fill="#008d00"/>
   <path id="path612" d="m161.43 313.78c-0.24403-0.31116-6.5114-7.1789-13.751-6.4072-1.3506 0.16381-3.5164-3.0845-1.3759-3.6646 1.3464 0.049 0.29806-0.14354 1.644-0.0946 1.1378-0.79836-0.91995-3.2542-1.8492-2.4014-0.084-0.23516-2.4816 0.51338-3.4982 0.30693-3.1457-0.30144-4.52-3.8166-2.2216-5.1494 1.4291 0.54589 4.1311 0.59655 5.5915 0.39474 1.4439-0.43949 0.77514-1.7538-0.62358-1.9501-1.9906-0.29468-10.021-2.2515-9.3118-3.2255-1.3274-2.2114-0.01-3.9166 2.3199-2.7417 1.9231 1.1661 2.1472 0.51127 1.679-0.35886-0.56995-1.6533-1.1175-1.2569-1.2016-2.6919-0.14185-0.92459 0.15874-1.7605 1.5228-1.1792 0.57544-0.48467 1.5224 2.9777 5.0975 1.6651 0.66157 0.55265 1.2244-3.7461 3.706-3.0921 1.8597 0.57544 0.58895 2.5095 0.95246 5.2398 0.29764 1.7985 2.0945 1.3856 2.3414 0.45174-0.38925-4.132 3.6498-4.2042 4.1117-2.8084 0.38377 1.0204 0.7287 3.8001 0.24023 6.413-0.26598 1.3282-0.0553 3.9644 0.79118 4.49 1.4224 0.0376 0.50409-0.28497 1.4827-1.7572 1.6478-1.0605 4.2105 2.7801 1.2113 4.7087-3.163 0.68184 1.7926 12.734 2.2102 13.407-0.45807 0.49311-1.0023-0.10977-1.0694 0.44541z" fill-rule="evenodd" stroke="#286726" stroke-width="1.9526" fill="#008d00"/>
   <path id="path702" d="m200.28 346.01c0-0.13426-0.9799-7.3613-0.69956-6.2906 2.0991 0 3.7786-2.8109 0.27948-3.7478-0.27948-1.2488-0.27991-2.3643-0.55982-3.6135-0.41923-2.5428-3.079-1.7398-2.9388 0.13342 0.23304 1.3388 0.1866 2.276 0.41965 3.6148-3.5455 0.75783-1.4929 3.7917 0.14017 3.3454 0.0464 1.2045 0.0929 3.212 0.13974 4.4165 1.0728 0.71392 2.1464 1.4278 3.2192 2.1418z" fill-rule="evenodd" fill="#9c4314"/>
   <path id="path720" d="m200.15 345.16c-0.13383 0.002-7.3465 1.0842-6.2801 0.78865-0.0296-2.0991-2.8641-3.7385-3.7512-0.22629-1.245 0.29722-2.3604 0.31326-3.6055 0.6109-2.5365 0.45512-1.6959 3.1031 0.17479 2.9368 1.3358-0.25205 2.2735-0.21912 3.6089-0.47116 0.80764 3.5346 3.8124 1.4388 3.3429-0.18745 1.2041-0.0633 4.9611-0.26345 6.1648-0.3272 0.69914-1.0829-0.35337-2.0413 0.34535-3.1242z" fill-rule="evenodd" fill="#9c4314"/>
   <path id="path637" d="m197.69 305.64c17.653 10.42 22.189 8.9074 21.452 4.2907 0.84606 0 1.0289 0.73672 3.535-1.1099-0.34915 6.8268 7.0843 10.751 11.616 9.9278 4.0893 0.26387 3.5616 5.6721 3.5616 5.6721 0.24867 5.5336-1.6128 7.77-1.3641 13.304-0.0621 0-0.12455-0.65946-0.18661-0.65946-5.0308-1.1965-14.942-1.3375-18.654-2.1384 17.015-11.608-13.086-11.926-15.778-12.321-2.0333-0.26387-0.5822-2.2422 0.60457-2.77 9.3654-1.8466-8.8031-10.716-8.3302-11.771-1.1095-0.65946 0.0777-1.1872 0.0777-1.1872 1.2433-0.80849 2.2232-0.42936 3.4666-1.2379z" fill-rule="evenodd" stroke="#000" stroke-width="1.1082" fill="#33b1e9"/>
   <path id="path643" d="m241.77 314.47c-3.0693 0-5.54 2.4706-5.54 5.54-0.92332 4.221-0.7916 10.157 0 15.828 0 3.0689 2.4706 5.54 5.54 5.54 12.223 1.3189 25.369 0.92333 36.669 0 3.0693 0 5.54-2.4711 5.54-5.54 1.4511-5.0122 1.055-10.288 0-15.828 0-3.0693-2.4706-5.54-5.54-5.54-12.223-0.52773-24.71-1.1872-36.669 0z" fill-rule="evenodd" stroke="#000" stroke-width="1.5832" fill="#983d25"/>
   <path id="path1138" stroke-linejoin="round" d="m200.49 163.79c-2.789 2.4154-5.5775 4.8307-8.3665 7.246-3.4362 1.519-7.1717 3.4113-4.4824 11.504-1.5688 10.384 6.7981 12.027 14.119 9.8606 1.2201-2.6893 1.6077-4.5457 2.8278-7.235-3.2373-0.49777-4.9692 0.63623-7.9076 0.43696-2.0172-0.3234-2.1662-1.8424-1.4194-2.8384 3.1622-1.5689 6.0259-3.0626 9.1881-4.6314-0.0747-0.47327-0.14945-0.12454-0.22418-0.59781-2.6146 1.3447-4.4815 1.793-7.2456 2.9135-2.1916 0.77218-2.8139-2.0421-1.9425-3.2872 0 0 5.6772-8.1423 5.6772-8.2171 0.47538-1.7124 0.14607-4.5955-0.22376-5.1545z" fill-rule="evenodd" stroke="#000003" stroke-linecap="round" stroke-width="1.0555" fill="#268728"/>
   <path id="path614" d="m275.88 473.6c0 5.7342-4.6485 10.383-10.383 10.383-5.7342 0-10.383-4.6485-10.383-10.383 0-5.7342 4.6485-10.383 10.383-10.383 5.7342 0 10.383 4.6485 10.383 10.383z" fill-rule="evenodd" transform="matrix(.42219 0 0 .42219 107.4 106.2)" stroke="#000" stroke-width="2.5" fill="#fff"/>
   <path id="path615" d="m275.88 473.6c0 5.7342-4.6485 10.383-10.383 10.383-5.7342 0-10.383-4.6485-10.383-10.383 0-5.7342 4.6485-10.383 10.383-10.383 5.7342 0 10.383 4.6485 10.383 10.383z" fill-rule="evenodd" transform="matrix(.39806 0 0 .39806 93.268 134.16)" stroke="#000" stroke-width="2.6515" fill="#fff"/>
   <path id="path616" d="m275.88 473.6c0 5.7342-4.6485 10.383-10.383 10.383-5.7342 0-10.383-4.6485-10.383-10.383 0-5.7342 4.6485-10.383 10.383-10.383 5.7342 0 10.383 4.6485 10.383 10.383z" fill-rule="evenodd" transform="matrix(.39806 0 0 .39806 195.97 143.42)" stroke="#000" stroke-width="2.625" fill="#fff"/>
   <path id="path1143" stroke-linejoin="round" d="m200.88 169.32c0.0992 2.485 0.16634 5.6058 0.16634 6.5566-0.10555-2.3242-0.91953-4.1852-1.221-5.1 0.36224-0.59655 0.94908-1.4566 1.0546-1.4566z" fill-rule="evenodd" stroke="#000" stroke-width=".42219pt" fill="#ba4600"/>
   <path id="path617" d="m275.88 473.6c0 5.7342-4.6485 10.383-10.383 10.383-5.7342 0-10.383-4.6485-10.383-10.383 0-5.7342 4.6485-10.383 10.383-10.383 5.7342 0 10.383 4.6485 10.383 10.383z" fill-rule="evenodd" transform="matrix(.39806 0 0 .39806 131.59 148.43)" stroke="#000" stroke-width="3.8182" fill="#973100"/>
   <path id="path618" d="m275.88 473.6c0 5.7342-4.6485 10.383-10.383 10.383-5.7342 0-10.383-4.6485-10.383-10.383 0-5.7342 4.6485-10.383 10.383-10.383 5.7342 0 10.383 4.6485 10.383 10.383z" fill-rule="evenodd" transform="matrix(.39806 0 0 .39806 175.18 148.43)" stroke="#000" stroke-width="3.8182" fill="#973100"/>
   <path id="path619" d="m275.88 473.6c0 5.7342-4.6485 10.383-10.383 10.383-5.7342 0-10.383-4.6485-10.383-10.383 0-5.7342 4.6485-10.383 10.383-10.383 5.7342 0 10.383 4.6485 10.383 10.383z" fill-rule="evenodd" transform="matrix(.39806 0 0 .39806 175.18 128.39)" stroke="#000" stroke-width="3.8182" fill="#973100"/>
   <path id="path620" d="m275.88 473.6c0 5.7342-4.6485 10.383-10.383 10.383-5.7342 0-10.383-4.6485-10.383-10.383 0-5.7342 4.6485-10.383 10.383-10.383 5.7342 0 10.383 4.6485 10.383 10.383z" fill-rule="evenodd" transform="matrix(.39806 0 0 .39806 131.84 128.39)" stroke="#000" stroke-width="3.8182" fill="#973100"/>
   <path id="path621" d="m200.9 348.26c-0.24403-0.31116-2.1-5.5725-12.591-5.8013-1.4756-0.0865-2.4115 0.33775-5.4006 0.13088-1.7318 0.14228-1.0534-1.9218-0.36688-2.6644 1.1378-0.79836-4.0534-0.4091-5.8376-0.19759-1.7994-0.10343-3.0098-0.40994-4.026-0.61639-3.1462-0.30145-4.9869-2.5108-2.6885-3.8436 0.96302-0.94655 4.8776 0.13003 6.3379-0.0718 1.4439-0.4395 1.2417-2.873-0.15747-3.0693-1.9906-0.29469-10.673-0.94571-9.9645-1.9197-1.3274-2.2114-0.94233-3.3568 2.5065-2.9283 1.9231 1.1661 1.8673-0.32804 1.3991-1.1982-0.56996-1.6533-3.7292-1.9096-3.8132-3.3446-0.51465-3.4429 1.7445-3.9061 3.1086-3.3247 0.57545-0.48467-2.5817-3.1778 0.99341-4.4904 0.88829-0.27864 2.7164-0.0616 3.3328 3.2036 1.8597 0.57544 0.5746-2.1426 3.0976-3.2475 2.1629-0.90644-0.14397 9.6867 2.4348 9.5921 2.2224 0.90433 1.7846-5.7899 3.6452-4.4874 4.0214-1.0314 2.0751 12.848 3.825 12.01 2.9051 2.5407 3.2091-2.2849 4.0556-1.7593 1.4224 0.0376 2.3693 0.0882 1.576 3.2796-0.59064 2.4837 0.293 3.0596 0.74474 4.0555 2.7172 5.9879 6.7947 5.9322 8.1558 8.6878 0.43823 4.0745-0.30017 1.4494-0.3673 2.0046z" fill-rule="evenodd" stroke="#286726" stroke-width="1.9526" fill="#008d00"/>
   <path id="path622" d="m251.14 357.47c-5.016 4.1208-10.227 6.7895-12.135 11.079 2.2862-0.30778 3.1694-0.68943 4.875-0.47454 1.8471-4.1328 7.656-6.34 11.085-9.6816-1.275-0.30778-2.5504-0.61555-3.8255-0.92316z" fill-rule="evenodd" stroke="#000" stroke-width="1.0555" fill="#009400"/>
   <path id="path629" d="m264.55 357.91c4.5356 4.1898 10.158 6.584 12.135 11.011-2.2862-0.30777-3.2394-0.62019-4.6023-0.26851-1.8471-4.1328-7.9287-6.546-11.358-9.8877 1.275-0.30778 2.5504-0.54716 3.8254-0.85493z" fill-rule="evenodd" stroke="#000" stroke-width="1.0555" fill="#009400"/>
   <path id="path630" d="m261.13 358.76c5.496 3.2977 7.6893 5.6713 11.075 9.8923-1.6267 0.098-3.9086 0.83552-4.7437 1.3193-4.0893-5.32-7.2549-7.2106-10.684-10.552 1.275-0.30778 3.0782-0.35169 4.3532-0.65946z" fill-rule="evenodd" stroke="#000" stroke-width="1.0555" fill="#fff"/>
   <path id="path827" d="m209.24 180.19c-2.2013 0.60542-3.1516 2.4618-3.3518 4.1932-8.1111 5.6814-2.2156 16.865 5.3061 14.542-5.5653-8.3344 0-13.042 6.1906-10.121 1.8758 1.3759 3.1837 4.2451 3.3606 4.0682 1.1775-2.553 5.8368-4.7758 5.8368-4.7758s3.7532 0.5041 4.4304-1.9239c0.42725-1.5528 3.8824-7.9806 3.8824-7.9806-4.0091-0.82538-8.0182-1.6508-12.027-2.4761-2.7708-0.0591-5.5416-0.11779-8.3129-0.1769-1.4739 0.64848-2.9477 1.297-4.4216 1.9454-0.58938 0.94317-0.30355 1.7618-0.89335 2.705z" stroke-opacity=".77245" fill-rule="evenodd" stroke="#000" stroke-width="1.0555" fill="#ffba00"/>
   <path id="path631" d="m256.64 359.03c5.496 3.2977 8.0165 6.3852 11.402 10.606-1.4899 0.4395-1.9932 2.8916-2.8282 3.3754-2.6387-5.32-7.0016-9.8539-11.618-14.383 1.275-0.30778 1.7694 0.70885 3.0444 0.40108z" fill-rule="evenodd" stroke="#000" stroke-width="1.0555" fill="#d40000"/>
   <path id="path627" d="m254.57 358.39c-5.496 3.2977-7.4145 5.3973-10.8 9.6183 1.6267 0.0984 3.6338 1.1095 4.4689 1.5933 4.0893-5.32 7.2549-7.2106 10.684-10.552-1.275-0.30778-3.0782-0.35169-4.3532-0.65946z" fill-rule="evenodd" stroke="#000" stroke-width="1.0555" fill="#fff"/>
   <path id="path628" d="m259.05 358.65c-5.496 3.2977-7.8101 6.5895-11.196 10.811 2.7244 1.9509 2.0611 2.07 2.6218 3.1711 2.6387-5.32 8.4421-9.7167 13.059-14.245-1.275-0.30778-3.2099 0.57164-4.4849 0.26386z" fill-rule="evenodd" stroke="#000" stroke-width="1.0555" fill="#d40000"/>
   <path id="path635" d="m203.69 472.45c0 5.0024-7.2204 9.0577-16.127 9.0577-8.9068 0-16.127-4.0553-16.127-9.0577s7.2203-9.0577 16.127-9.0577c8.9068 0 16.127 4.0553 16.127 9.0577z" fill-rule="evenodd" transform="matrix(.43855 .14328 -.13174 .47697 170.31 53.137)" stroke="#000" stroke-width="2.2433" fill="#973000"/>
   <path id="path761" d="m250.12 351.73c-3.9618 2.8468-9.5643 6.6502-13.526 9.497-0.81356 0.69451 2.7463 1.4232 4.0513 0.78485 4.1822-2.8713 6.3818-4.7516 10.564-7.6229 0.79709-0.44499 1.5946-0.89039 2.3917-1.3354-1.7069-0.12244-1.774-1.2011-3.481-1.3236z" fill-rule="evenodd" stroke="#005e00" stroke-width="1.0555" fill="#008d2b"/>
   <path id="path636" d="m203.69 472.45c0 5.0024-7.2204 9.0577-16.127 9.0577-8.9068 0-16.127-4.0553-16.127-9.0577s7.2203-9.0577 16.127-9.0577c8.9068 0 16.127 4.0553 16.127 9.0577z" fill-rule="evenodd" transform="matrix(.37238 -.14619 .17511 .39171 62.95 178.21)" stroke="#000" stroke-width="2.5489" fill="#973000"/>
   <path id="path756" d="m290.53 307.86c0.20687-10.871 9.7386-1.3531 13.481-5.8317 8.7946-10.365 9.5482-11.154 17.318-10.03 20.824 8.1829-0.91192 27.106-22.195 18.489-2.3356-1.2847-6.2682-1.3434-8.6042-2.6281z" fill-rule="evenodd" stroke="#000" stroke-width="1.1093" fill="#008d00"/>
   <g id="g660" fill-rule="evenodd" transform="matrix(.42219 0 0 .42219 108.15 107.5)" fill="#6d390b">
    <path id="path657" d="m619.32 390.34c0 3.9954-3.239 7.2344-7.2344 7.2344s-7.2344-3.239-7.2344-7.2344 3.239-7.2344 7.2344-7.2344 7.2344 3.239 7.2344 7.2344z" transform="matrix(0.874 .24840 -.16470 .72013 140.99 -45.21)"/>
    <rect id="rect659" transform="matrix(.75535 .65532 -.65532 .75535 0 0)" height="4.8229" width="15.887" y="-110.5" x="720.08" stroke-width="1pt"/>
   </g>
   <path id="path1192" d="m337.62 287.58 1.1061 1.5499 3.8221-3.3302-1.1057-1.5494-3.8225 3.3298z" fill-rule="evenodd" stroke-width="1pt" fill="#6d390b"/>
   <path id="path638" d="m241.77 314.33c6.4633 1.9788 11.212 25.458 17.543 27.568" stroke="#000" stroke-linecap="round" stroke-width="1.5832" fill="none"/>
   <path id="path639" d="m247.97 314.2c6.4633 1.9788 11.08 25.458 17.411 27.568" stroke="#000" stroke-linecap="round" stroke-width="1.5832" fill="none"/>
   <path id="path640" d="m254.04 313.94c6.4633 1.9788 11.212 25.589 17.543 27.699" stroke="#000" stroke-linecap="round" stroke-width="1.5832" fill="none"/>
   <path id="path645" d="m203.69 472.45c0 5.0024-7.2204 9.0577-16.127 9.0577-8.9068 0-16.127-4.0553-16.127-9.0577s7.2203-9.0577 16.127-9.0577c8.9068 0 16.127 4.0553 16.127 9.0577z" fill-rule="evenodd" transform="matrix(.37238 -.14619 .17511 .39171 157.39 161.86)" stroke="#000" stroke-width="2.2433" fill="#973000"/>
   <path id="path650" d="m340.66 292.97c0.32382 1.2535-0.23769 2.8793-2.4432 3.4489-2.2055 0.56995-4.2759-0.2892-4.5998-1.5431-0.32382-1.2539 0.9533-3.0562 3.1592-3.6262 2.2051-0.56953 3.5595 0.46652 3.8837 1.7204z" fill-rule="evenodd" stroke="#000" stroke-width="1.008" fill="#dc0000"/>
   <path id="path719" d="m243.6 353.06c-3.2703 0.66326-10.724 2.2786-13.974 8.7932-0.58937 1.226-5.4935 2.1764-4.829 0.0604 0.76627-1.1078 1.0398-1.2041 1.8065-2.3115-0.06-1.3886-3.2373-0.97821-3.0191 0.26386-0.2436-0.0553-1.7804 0.2415-2.5019 0.98666-1.9488 2.488-5.2752 2.3773-5.16-0.27696 1.2298-0.90981 1.8526-1.7833 2.4694-3.1219 0.40741-1.4532-2.4356-1.9737-3.3547-0.90053-1.9459 1.0177-3.1673 2.4764-5.4825 3.6057-2.5783 0.92755-5.0557-0.72574-2.8109-2.0556 2.0185-0.99156 0.33649-3.284-0.6489-3.3584-1.6997-0.41079-8.6646 0.76459-9.9185 0.0625-0.98075-0.12877-2.7738-2.7083-0.67339-3.169 1.9028-0.62104 5.0798 0.69661 5.9001-3.0224 0.822-6.2628 10.76 3.2036 9.1463 0.5898-3.641-5.3842 2.5564-6.6486 4.4275-2.9824 0.76247 1.6554 4.5466 4.1096 5.6438 3.6486 2.0628 0.22798-3.8271-5.2149 0.84944-6.1027 1.0664 0.22672 2.9688 0.30778 4.2818 2.127 0.97568 0.93979 1.1838 4.8083 4.8341 5.1288 0.79794-1.1779 0.0317-0.57798-0.68141-2.1958-0.006-1.9594 3.2348-1.7994 4.6196 1.5165 1.3717 2.5319 8.6122 0.81229 15.237 0.9647 2.1232-0.34704 5.5383 1.519-6.1618 1.7496z" fill-rule="evenodd" stroke="#286026" stroke-width="1.9526" fill="#008d00"/>
   <path id="path648" d="m333.32 292.73c1.1657 1.7905 1.1412 4.628-2.0088 6.6786s-6.8386 1.7947-8.0043 0.004c-1.1657-1.7909-0.11526-5.2812 3.0347-7.3317 3.1495-2.0502 5.8123-1.142 6.9784 0.6489z" fill-rule="evenodd" stroke="#000" stroke-width="1.0555" fill="#dc0000"/>
   <path id="path651" d="m335.58 285.31c1.0914 0.69619 1.7888 2.2684 0.5632 4.1885-1.2252 1.9205-3.3256 2.7033-4.4174 2.0067-1.0914-0.69661-1.3856-2.8861-0.16044-4.8066 1.2252-1.9197 2.9224-2.0852 4.0146-1.3886z" fill-rule="evenodd" stroke="#000" stroke-width="1.008" fill="#dc0000"/>
   <path id="path649" d="m338.9 288.57c0.70632 1.085 0.69154 2.805-1.2176 4.0475-1.9091 1.2429-4.145 1.088-4.8514 0.003-0.70633-1.0854-0.0701-3.2006 1.8395-4.4435 1.9087-1.2425 3.5228-0.69196 4.2295 0.39348z" fill-rule="evenodd" stroke="#000" stroke-width="1.008" fill="#dc0000"/>
   <path id="path653" d="m346 282.14c0.53153 0.81609 0.52013 2.1105-0.91615 3.0452-1.4363 0.93515-3.1187 0.81863-3.6502 0.002-0.53153-0.81651-0.0528-2.4082 1.3839-3.3433 1.4363-0.93473 2.6505-0.52056 3.1825 0.29637z" fill-rule="evenodd" stroke="#000" stroke-width=".75840" fill="#d90000"/>
   <path id="path633" d="m255.24 348.07c-2.8097 0.32931-4.4093 0.50283-4.9493 2.5357-0.29975 1.3806-0.0599 3.1842 0.17985 4.7336 0 1.7791 2.2452 2.9577 4.8598 3.4652h4.4993c1.8944 0 5.3994-1.8549 5.3994-3.634 0.27991-1.0056 0.26978-2.629 0.26978-3.7284 0-2.992-2.1122-3.1765-4.753-3.4565l-5.5058 0.0844z" fill-rule="evenodd" stroke="#000" stroke-width="1.0555" fill="#fff"/>
   <path id="path654" d="m355.13 312.72c-0.31073-10.384-3.0465-25.432 9.7002-30.593 1.6444-0.42895 2.2384 0.49776 1.6786 1.8656-3.7929 9.5757-7.5859 19.151-11.379 28.727z" fill-rule="evenodd" stroke="#286326" stroke-width="1.7415" fill="#008f00"/>
   <path id="path656" d="m371.6 291.58c2.2693-4.2683 7.8768-5.3432 9.8556-5.2111-3.9133 4.0011-7.8265 13.806-10.025 17.015-3.1656 5.4522-12.399 9.3211-17.938 12.531 6.1994-8.4421 11.908-15.894 18.108-24.335z" fill-rule="evenodd" stroke="#286326" stroke-width="1.7415" fill="#008c00"/>
   <path id="path692" d="m255.48 348.01s-2.8143 0.5003-2.8768 0.5003-2.1886 1.3755-2.1886 1.3755-0.43781 2.6889-0.43781 2.7514 0.50029 3.0642 0.50029 3.0642l1.3134 1.8133 3.4392 1.1879 0.25036-10.693z" fill-rule="evenodd" stroke="#000" stroke-width=".42219pt" fill="#009400"/>
   <path id="path655" d="m353.45 315.9c0.3728-0.37321 7.2958-33.014 18.841-36.88 1.8652 2.425 0.96555 7.6961 0.21954 10.494-3.5443 12.187-12.158 20.541-19.06 26.386z" fill-rule="evenodd" stroke="#286326" stroke-width="1.7415" fill="#008d00"/>
   <g id="g663" fill-rule="evenodd" transform="matrix(-.33958 -.25086 -.25086 .33958 686.56 298.42)" fill="#6d390b">
    <path id="path664" d="m619.32 390.34c0 3.9954-3.239 7.2344-7.2344 7.2344s-7.2344-3.239-7.2344-7.2344 3.239-7.2344 7.2344-7.2344 7.2344 3.239 7.2344 7.2344z" transform="matrix(0.874 .24840 -.16470 .72013 140.99 -45.21)"/>
    <rect id="rect665" transform="matrix(.75535 .65532 -.65532 .75535 0 0)" height="4.8229" width="15.887" y="-110.5" x="720.08" stroke-width="1pt"/>
   </g>
   <g id="g666" fill-rule="evenodd" transform="matrix(.42377 .15708 -.15237 .43687 148.27 41.811)" fill="#6d390b">
    <path id="path667" d="m619.32 390.34c0 3.9954-3.239 7.2344-7.2344 7.2344s-7.2344-3.239-7.2344-7.2344 3.239-7.2344 7.2344-7.2344 7.2344 3.239 7.2344 7.2344z" transform="matrix(0.874 .24840 -.16470 .72013 140.99 -45.21)"/>
    <rect id="rect668" transform="matrix(.75535 .65532 -.65532 .75535 0 0)" height="4.8229" width="15.887" y="-110.5" x="720.08" stroke-width="1pt"/>
   </g>
   <g id="g669" fill-rule="evenodd" transform="matrix(-.35221 .28319 -.29686 -.35489 692.41 281.45)" fill="#6d390b">
    <path id="path670" d="m619.32 390.34c0 3.9954-3.239 7.2344-7.2344 7.2344s-7.2344-3.239-7.2344-7.2344 3.239-7.2344 7.2344-7.2344 7.2344 3.239 7.2344 7.2344z" transform="matrix(0.874 .24840 -.16470 .72013 140.99 -45.21)"/>
    <rect id="rect671" transform="matrix(.75535 .65532 -.65532 .75535 0 0)" height="4.8229" width="15.887" y="-110.5" x="720.08" stroke-width="1pt"/>
   </g>
   <path id="path682" d="m348.43 325.62c7.0932-3.8436 2.6488 1.549 2.2076 4.5014-2.0958 7.2857-4.0547 7.3322-6.5194 8.5738-3.6756 3.3526-15.453 1.7263-20.925 3.1082 6.8593-4.981 18.378-11.203 25.237-16.183z" fill-rule="evenodd" stroke="#286326" stroke-width="1.4168" fill="#008c00"/>
   <path id="path673" d="m337.81 323.93c2.9616-2.3503 3.448-7.5398 3.2504-9.338-2.6843 3.8339-9.5546 8.0465-11.756 10.263-3.7697 3.2454-6.0842 11.928-8.1136 17.195 5.7696-6.2108 10.85-11.909 16.619-18.12z" fill-rule="evenodd" stroke="#286326" stroke-width="1.4168" fill="#008c00"/>
   <path id="path675" d="m300.93 353.74c4.639-1.3611 12.545 2.0666 13.835 3.5738-5.597-0.001-14.666 3.8852-18.498 4.5569-6.1116 1.5477-23.062-8.0151-29.13-9.3809 10.13-0.51043 23.423 2.7185 33.793 1.2501z" fill-rule="evenodd" stroke="#286326" stroke-width="1.7415" fill="#008c00"/>
   <path id="path759" d="m265.62 352.76c3.9618 2.8468 9.5643 6.6502 13.526 9.497 0.81356 0.6945-2.7463 1.4232-4.0513 0.78485-4.1822-2.8713-6.3818-4.7517-10.564-7.6229-0.79709-0.44499-1.5946-0.8904-2.3917-1.3354 1.7069-0.12243 1.774-1.2011 3.4809-1.3236z" fill-rule="evenodd" stroke="#004500" stroke-width="1.0555" fill="#00602b"/>
   <path id="path674" d="m320.61 341.81c0.47581-0.17986 19.363-25.678 31.104-24.624 0.70548 2.7983-2.151 6.999-3.9052 9.1269-7.9021 9.1556-18.799 13.082-27.199 15.497z" fill-rule="evenodd" stroke="#286326" stroke-width="1.6632" fill="#008c00"/>
   <g id="g676" fill-rule="evenodd" transform="matrix(.29974 .33824 -.34026 .31352 265.66 6.8508)" fill="#6d390b">
    <path id="path677" d="m619.32 390.34c0 3.9954-3.239 7.2344-7.2344 7.2344s-7.2344-3.239-7.2344-7.2344 3.239-7.2344 7.2344-7.2344 7.2344 3.239 7.2344 7.2344z" transform="matrix(0.874 .24840 -.16470 .72013 140.99 -45.21)"/>
    <rect id="rect678" transform="matrix(.75535 .65532 -.65532 .75535 0 0)" height="4.8229" width="15.887" y="-110.5" x="720.08" stroke-width="1pt"/>
   </g>
   <g id="g679" fill-rule="evenodd" transform="matrix(-.44732 .064498 -.074898 -.45658 628.85 486.61)" fill="#6d390b">
    <path id="path680" d="m619.32 390.34c0 3.9954-3.239 7.2344-7.2344 7.2344s-7.2344-3.239-7.2344-7.2344 3.239-7.2344 7.2344-7.2344 7.2344 3.239 7.2344 7.2344z" transform="matrix(0.874 .24840 -.16470 .72013 140.99 -45.21)"/>
    <rect id="rect681" transform="matrix(.75535 .65532 -.65532 .75535 0 0)" height="4.8229" width="15.887" y="-110.5" x="720.08" stroke-width="1pt"/>
   </g>
   <path id="path660" d="m163 255.92c0.55307-0.82538 1.8285-1.3683 3.4172-0.47792 1.5887 0.88955 2.2608 2.4491 1.7073 3.2753-0.55349 0.8258-2.3398 1.0753-3.9289 0.18534-1.5887-0.88955-1.7491-2.1565-1.1956-2.9828z" fill-rule="evenodd" stroke="#000" stroke-width=".78839" fill="#dc0000"/>
   <path id="path684" d="m297.7 350.34c7.7995-2.0624 7.3351-5.8182 10.979-9.1028-8.4358-1.2345-15.165 1.7512-18.769 3.7338-5.6928 3.6709-7.1654 7.6564-12.098 10.401 8.4087-1.0736 12.197-2.2811 19.887-5.0321z" fill-rule="evenodd" stroke="#286326" stroke-width="1.4168" fill="#008c00"/>
   <path id="path685" d="m272.26 352.62c22.308 1.6828 18.753-7.3735 43.201-7.1502-0.36097 2.8633-5.0291 6.4553-7.4373 7.7995-10.691 5.6534-28.259 8.3018-35.764-0.64933z" fill-rule="evenodd" stroke="#286326" stroke-width="1.6632" fill="#008c00"/>
   <path id="path693" d="m260.92 347.95 0.0625 10.505 2.8764-1.1254s1.188-1.8762 1.188-2.0012c0-0.12496 0.50029-2.564 0.50029-2.6264 0-0.0625-0.24993-3.0013-0.24993-3.0013l-2.1886-1.4384-2.1886-0.31242z" fill-rule="evenodd" stroke="#000" stroke-width=".42219pt" fill="#d40000"/>
   <rect id="rect656" fill-rule="evenodd" transform="matrix(-.67306 -.73958 .76307 -.64632 0 0)" height="1.5913" width="5.3039" y="-44.279" x="-299.88" stroke-width="1pt" fill="#6d390b"/>
   <path id="path663" d="m163.56 252.82c0.60542-1.0534 2.0016-1.7466 3.7406-0.61006 1.7394 1.1357 2.4749 3.1263 1.869 4.1805-0.60584 1.0542-2.5614 1.373-4.3008 0.23685-1.739-1.1357-1.9146-2.7527-1.3088-3.8073z" fill-rule="evenodd" stroke="#000" stroke-width=".93190" fill="#dc0000"/>
   <path id="path658" d="m173.39 248.42c1.0166 0.0418 2.1198 0.94106 2.0624 2.9866-0.057 2.0447-1.1623 3.6076-2.1802 3.5658s-2.0957-1.6022-2.0388-3.6477c0.057-2.0447 1.1382-2.9456 2.1565-2.9047z" fill-rule="evenodd" stroke="#000" stroke-width=".84713" fill="#dc0000"/>
   <path id="path661" d="m168.38 249.24c1.1526-0.30271 2.6547 0.20898 3.1956 2.2376 0.54167 2.0282-0.23432 3.9373-1.3873 4.2396-1.153 0.30229-2.8232-0.86675-3.3648-2.8958-0.54125-2.0282 0.40361-3.2791 1.5566-3.5814z" fill-rule="evenodd" stroke="#000" stroke-width=".92835" fill="#dc0000"/>
   <path id="path665" stroke-linejoin="round" d="m197.12 281.77c-3.4784-8.8433-12.97-23.524-22.639-16.449-10.73 9.2562 4.8936 23.818 18.218 22.993 1.4739-2.1814 2.9477-4.3629 4.4216-6.5444z" fill-rule="evenodd" stroke="#000" stroke-linecap="round" stroke-width="1.0555" fill="#008d00"/>
   <path id="path659" d="m169.51 255.85c1.858-1.2497 4.8383-1.2784 7.0522 1.9678 2.2135 3.2466 2.0151 7.0983 0.15748 8.3479-1.8585 1.2501-5.5438 0.22081-7.7577-3.0254-2.2135-3.2458-1.3105-6.0398 0.548-7.2904z" fill-rule="evenodd" stroke="#000" stroke-width="1.1048" fill="#dc0000"/>
   <path id="path662" d="m162.64 241.08c0.84691-0.56995 2.2064-0.58262 3.2158 0.89758 1.009 1.4802 0.9191 3.2373 0.0713 3.8073-0.84691 0.56953-2.5276 0.10048-3.5375-1.3801-1.009-1.4798-0.5974-2.7544 0.25036-3.3247z" fill-rule="evenodd" stroke="#000" stroke-width=".79383" fill="#dc0000"/>
   <path id="path666" d="m226.66 292.29c-4.3701-7.775-16.296-17.498-28.445-11.278-14.366 10.083 5.795 25.186 26.427 17.739 1.8513-1.918 0.16592-4.5432 2.0176-6.4612z" fill-rule="evenodd" stroke="#000" stroke-width="1.1093" fill="#008d00"/>
   <path id="path668" d="m267.16 296.89c-4.3701-7.775-27.793-16.614-37.996-9.1556-12.774 14.328 5.9719 24.301 31.203 17.208 1.8513-1.918 4.9413-6.1348 6.793-8.0528z" fill-rule="evenodd" stroke="#000" stroke-width="1.1093" fill="#008d00"/>
   <path id="path669" stroke-linejoin="round" d="m176.19 267.85c0.12497 0 2.6264 3.1263 2.6264 3.1263l-0.12539-4.3773" stroke="#000" stroke-linecap="round" stroke-width="1.0555" fill="none"/>
   <path id="path671" stroke-linejoin="round" d="m180.57 273.97 2.6264 2.6264" stroke="#000" stroke-linecap="round" stroke-width="1.0555" fill="none"/>
   <path id="path672" stroke-linejoin="round" d="m189.82 272.22 0.25036 3.0015 1.6254-0.12497" stroke="#000" stroke-linecap="round" stroke-width="1.0555" fill="none"/>
   <path id="path676" stroke-linejoin="round" d="m189.82 282.23c-0.62526-0.3749-2.7514-2.1261-2.7514-2.1261" stroke="#000" stroke-linecap="round" stroke-width="1.0555" fill="none"/>
   <path id="path678" stroke-linejoin="round" d="m183.69 282.48-3.502-1.1256" stroke="#000" stroke-linecap="round" stroke-width="1.0555" fill="none"/>
   <path id="path679" d="m177.06 275.85-3.3767-1.1256" stroke="#000" stroke-width="1.0555" fill="none"/>
   <path id="path681" stroke-linejoin="round" d="m170.69 273.85h-2.8768" stroke="#000" stroke-linecap="round" stroke-width="1.0555" fill="none"/>
   <path id="path683" stroke-linejoin="round" d="m184.19 264.34v-3.752" stroke="#000" stroke-linecap="round" stroke-width=".42219pt" fill="none"/>
   <path id="path686" stroke-linejoin="round" d="m179.19 284.61c-0.3749 0-5.2524-0.25036-5.2524-0.25036" stroke="#000" stroke-linecap="round" stroke-width="1.0555" fill="none"/>
   <path id="path687" stroke-linejoin="round" d="m187.95 287.98-3.752 1.2505" stroke="#000" stroke-linecap="round" stroke-width="1.0555" fill="none"/>
   <path id="path688" stroke-linejoin="round" d="m193.57 274.6c0.12497-0.12497 3.1267-1.626 3.1267-1.626" stroke="#000" stroke-linecap="round" stroke-width="1.0555" fill="none"/>
   <path id="path689" stroke-linejoin="round" d="m185.07 270.35c0-0.12496-1.0006-4.1269-1.0006-4.1269" stroke="#000" stroke-linecap="round" stroke-width="1.0555" fill="none"/>
   <path id="path694" d="m255.18 348c-2.8097 0.32931-4.4093 0.50283-4.9493 2.5357-0.29976 1.3806-0.0599 3.1842 0.17985 4.7336 0.50029 2.5921 2.2452 2.9577 4.8598 3.4652h4.4993c1.8944 0 4.9616-1.2297 5.4619-3.5716 0.34239-1.1931 0.20729-2.6914 0.20729-3.7908-0.24993-2.7421-2.1122-3.1766-4.753-3.4565l-5.5058 0.0844z" stroke="#000" stroke-width="1.0555" fill="none"/>
   <path id="path695" d="m255.49 348.01-0.0887 10.435" stroke="#000" stroke-width="1.0555" fill="none"/>
   <path id="path696" d="m260.97 348.01-0.0887 10.435" stroke="#000" stroke-width="1.0555" fill="none"/>
   <path id="path699" d="m373.82 258.77c1.6495-5.4247-4.0615-6.7073-5.3327-9.7534-2.6079 5.1034-1.6942 10.3-1.2324 13.033 1.069 4.4372 5.0025 7.5044 5.6548 11.253 1.1526-5.5954 0.96723-9.0257 0.91024-14.533z" fill-rule="evenodd" stroke="#286326" stroke-width=".94840" fill="#008c00"/>
   <path id="path700" d="m381.38 253.73c0.11104-2.9684 3.9829-5.0941 5.5433-5.5628-0.96724 5.7726 0.77049 8.4839 0.31115 10.851-0.34535 3.8647-7.4246 9.7699-10.434 13.051 1.5258-6.3396 3.0528-12 4.5791-18.339z" fill-rule="evenodd" stroke="#286326" stroke-width="1.2603" fill="#008c00"/>
   <path id="path698" d="m373.22 276.87c0.18914-0.35506-2.946-27.591 4.9079-33.242 2.0578 1.2087 2.7316 5.1068 2.8836 7.2448 0.43444 9.3878 0.74221 14.158-7.7915 25.998z" fill-rule="evenodd" stroke="#286326" stroke-width="1.3489" fill="#008c00"/>
   <path id="path712" d="m215.69 276.22c2.2469 0.71307 4.2265 3.1639 3.0115 7.1472-1.2155 3.9834-3.0968 6.5452-6.05 5.6556-3.8394-0.88955-4.5276-4.4482-3.3133-8.4315 1.2151-3.9829 4.1041-5.0836 6.3518-4.3713z" fill-rule="evenodd" stroke="#000" stroke-width="1.1669" fill="#dc0000"/>
   <path id="path717" d="m219.49 272.15c0.71392 0.50071 1.1408 1.553 0.26978 2.7427-0.87056 1.1897-2.2988 1.6009-3.0123 1.0998-0.71434-0.50156-0.85493-1.9345 0.0152-3.1252 0.87055-1.1893 2.013-1.2193 2.7273-0.71729z" fill-rule="evenodd" stroke="#000" stroke-width="1.3374" fill="#dc0000"/>
   <path id="path718" d="m213.58 270.93c0.85282-0.18112 1.9138 0.22333 2.1907 1.6714 0.2778 1.4478-0.39475 2.7735-1.2476 2.9542-0.85366 0.18112-1.9982-0.69239-2.2769-2.1405-0.27696-1.4479 0.4796-2.3045 1.3337-2.4852z" fill-rule="evenodd" stroke="#000" stroke-width="1.3374" fill="#dc0000"/>
   <path id="path713" d="m216.07 274.09c0.83551 0.25078 1.5718 1.115 1.1196 2.5184-0.45174 1.4034-1.6778 2.2431-2.5129 1.9923-0.83594-0.2512-1.4207-1.5672-0.96935-2.9709 0.45174-1.4029 1.5266-1.7909 2.3626-1.5397z" fill-rule="evenodd" stroke="#000" stroke-width="1.3374" fill="#dc0000"/>
   <path id="path714" d="m217.28 269.07c0.69703 0.18956 1.3117 0.84353 0.9343 1.9053-0.37702 1.0622-1.4 1.6976-2.097 1.5076-0.69746-0.18998-1.1851-1.1859-0.80849-2.2482 0.37659-1.0614 1.2737-1.3548 1.9712-1.1648z" fill-rule="evenodd" stroke="#000" stroke-width="1.0627" fill="#dc0000"/>
   <path id="path715" d="m220.94 275.46c0.76289 0.52436 1.1897 1.5228 0.18871 2.523-1.001 1.0006-2.5821 1.2391-3.3446 0.71477-0.76331-0.52478-0.86126-1.8433 0.13933-2.8443 0.99974-1.0002 2.2532-0.91826 3.0165-0.39348z" fill-rule="evenodd" stroke="#000" stroke-width="1.3385" fill="#dc0000"/>
   <path id="path716" d="m211.34 273.27c0.7764-0.0933 1.6896 0.36773 1.8167 1.7183 0.12792 1.351-0.58178 2.5078-1.3582 2.6011-0.77725 0.0933-1.7259-0.8047-1.8543-2.1553-0.1275-1.3502 0.61851-2.0708 1.3958-2.1641z" fill-rule="evenodd" stroke="#000" stroke-width="1.2147" fill="#dc0000"/>
   <path id="path701" d="m199.7 343.51v-0.12497 0.12497 0z" stroke="#000" stroke-width=".42219pt" fill="none"/>
   <path id="path750" d="m300.57 291.21c4.3772 2.3347 2.8764 7.7957-0.25036 9.2548-0.16676-3.5852-2.4592-4.669-5.8777-5.5024 1.7926-1.0006 3.7102-4.2527 6.1281-3.7524z" fill-rule="evenodd" stroke="#000" stroke-width="1.0555" fill="#fff"/>
   <path id="path751" d="m258.77 313.05c1.6102-23.735 19.644-26.614 31.597-22.505 17.503 12.701-0.2474 23.253-26.447 23.937-2.3356-1.2847-2.8135-0.14734-5.1494-1.4321z" fill-rule="evenodd" stroke="#000" stroke-width="1.1093" fill="#008d00"/>
   <path id="path740" d="m264.01 286.38c-5.5982-0.22587-7.2878 5.2364-5.0916 8.087 2.2287-2.9984 5.0802-2.7607 8.8816-1.7327-1.1644-1.7753-1.1526-5.5509-3.79-6.3544z" fill-rule="evenodd" stroke="#000" stroke-width="1.1218" fill="#fff"/>
   <path id="path739" d="m266.93 293.48c-4.3773 2.3347-3.4451 7.7957-0.31833 9.2548 0.16676-3.5852 2.4592-4.669 5.8777-5.5024-1.7926-1.0006-3.1415-4.2527-5.5594-3.7524z" fill-rule="evenodd" stroke="#000" stroke-width="1.0555" fill="#fff"/>
   <path id="path738" stroke-linejoin="round" d="m301.15 291.66c0.0507-1.953-1.4903-3.6414-3.2973-3.9141-2.1776-0.26514-4.2675 1.2383-6.4456-0.35338-0.26514-0.17689-5.3234-4.5428-6.7749-6.5768-1.4515-0.79583-4.4934-2.2878-4.4934-2.2878-1.7926 2.3347-3.0545 5.0228-5.643 6.5616-1.2872 0.5155-1.7787 1.1192-4.1273 0.92755-2.428-1.1348-5.1-1.7179-6.4882-0.48551 1.1813 2.3393 0.85915 5.2985 0.36012 7.5496 0.87562 0.50029 1.8395-0.0988 2.8916 0.13636 3.2432 0.0861 2.4183 3.57 3.627 5.0709 3.4159 0.92882 5.152-0.70716 5.6493-3.4928 0.90348-1.4211 3.6638-1.6052 5.6278-2.1418 2.1262-0.41037 4.783-1.0863 6.7322 0.007 1.6094 0.85493 2.6885 1.8872 3.5016 3.6266 0 0 2.5631 0.22882 5.1279-0.24994 0.0882-1.5397-0.22756-4.3409 3.752-4.3772z" fill-rule="evenodd" stroke="#000" stroke-linecap="round" stroke-width="1.0555" fill="#f6aa00"/>
   <path id="path741" d="m278.49 280.98c0.0418 1.8762 0.0832 3.752 0.12497 5.6282 0.66706 2.0426 5.2111 1.834 5.7527 0.49988-0.0418-2.1262-0.0832-4.2519-0.12496-6.378" stroke="#000" stroke-width="1.0555" fill="none"/>
   <path id="path742" d="m279.99 292.98c0.98117-0.33226 1.3447-3.0604 1.3447-3.0604" stroke="#000" stroke-linecap="round" stroke-width="1.0555" fill="none"/>
   <path id="path743" d="m284 292.23 0.24994-2.2511" stroke="#000" stroke-linecap="round" stroke-width="1.0555" fill="none"/>
   <path id="path744" d="m288.12 292.23-0.37-2.37" stroke="#000" stroke-linecap="round" stroke-width="1.0555" fill="none"/>
   <path id="path745" d="m277.24 290.48c-0.15157 0.0844-2.1257-2.3761-1.5005-2.1261" stroke="#000" stroke-linecap="round" stroke-width="1.0555" fill="none"/>
   <path id="path746" d="m273.62 294.11c0.25035 0-3.2669-3.6422-2.6416-3.3923" stroke="#000" stroke-linecap="round" stroke-width="1.0555" fill="none"/>
   <path id="path747" d="m270.36 287.36c-0.0912-0.27906-0.24994-1.6258 0.37532-1.3759" stroke="#000" stroke-linecap="round" stroke-width="1.0555" fill="none"/>
   <path id="path748" d="m278.2 286.52c-5.3428 4.612-10.374 2.6712-11.1 6.5494" stroke="#000" stroke-linecap="round" stroke-width="1.0555" fill="none"/>
   <path id="path749" d="m291.43 289.13c0.18703-0.22587 0.83002-1.4198 0.15705-1.4173" stroke="#000" stroke-linecap="round" stroke-width="1.0555" fill="none"/>
   <path id="path752" stroke-linejoin="round" d="m205.62 291.41c0.0697-0.10343 4.0602-0.43316 4.0602-0.43316l-3.7013-2.3402" stroke="#000" stroke-linecap="round" stroke-width="1.0555" fill="none"/>
   <path id="path753" stroke-linejoin="round" d="m229.94 295.39c0.0697-0.10343 4.0602-0.43316 4.0602-0.43316l-3.1698-3.6688" stroke="#000" stroke-linecap="round" stroke-width="1.0555" fill="none"/>
   <path id="path754" stroke-linejoin="round" d="m239.77 296.06c-0.1959-0.63498 4.1932 0.0984 4.0602-0.43317l-2.7712-3.0043" stroke="#000" stroke-linecap="round" stroke-width="1.0555" fill="none"/>
   <path id="path755" stroke-linejoin="round" d="m234.52 282.06c0.12497 0 2.6264 3.1263 2.6264 3.1263l-0.12539-4.3772" stroke="#000" stroke-linecap="round" stroke-width="1.0555" fill="none"/>
   <path id="path757" stroke-linejoin="round" d="m309.84 302.93c0.095 0.0811-0.0236 4.4592-0.0236 4.4592l2.8726-3.1153" stroke="#000" stroke-linecap="round" stroke-width="1.0555" fill="none"/>
   <path id="path758" stroke-linejoin="round" d="m277.78 301.81c0.0853 0.0912-0.48298 4.0547-0.48298 4.0547l4.2831-2.2722" stroke="#000" stroke-linecap="round" stroke-width="1.0555" fill="none"/>
   <path id="path763" stroke-linejoin="round" d="m202.71 281.49 2.6264 2.6264" stroke="#000" stroke-linecap="round" stroke-width="1.0555" fill="none"/>
   <path id="path764" stroke-linejoin="round" d="m197.93 285.87 2.6264 2.6264" stroke="#000" stroke-linecap="round" stroke-width="1.0555" fill="none"/>
   <path id="path765" stroke-linejoin="round" d="m215.84 292.68 3.6996-0.33015" stroke="#000" stroke-linecap="round" stroke-width="1.0555" fill="none"/>
   <path id="path766" stroke-linejoin="round" d="m209.96 296.33 3.7047-0.26302" stroke="#000" stroke-linecap="round" stroke-width="1.0555" fill="none"/>
   <path id="path767" stroke-linejoin="round" d="m236.75 287.92 2.6264 2.6264" stroke="#000" stroke-linecap="round" stroke-width="1.0555" fill="none"/>
   <path id="path768" stroke-linejoin="round" d="m247.68 289.28 2.6264 2.6264" stroke="#000" stroke-linecap="round" stroke-width="1.0555" fill="none"/>
   <path id="path769" stroke-linejoin="round" d="m227.31 284.5 2.6264 2.6264" stroke="#000" stroke-linecap="round" stroke-width="1.0555" fill="none"/>
   <path id="path770" stroke-linejoin="round" d="m199.7 276.16 2.6264 2.6264" stroke="#000" stroke-linecap="round" stroke-width="1.0555" fill="none"/>
   <path id="path771" stroke-linejoin="round" d="m229.05 308.13 2.4297-2.8097" stroke="#000" stroke-linecap="round" stroke-width="1.0555" fill="none"/>
   <path id="path772" stroke-linejoin="round" d="m241.36 310.46 2.4297-2.8097" stroke="#000" stroke-linecap="round" stroke-width="1.0555" fill="none"/>
   <path id="path773" stroke-linejoin="round" d="m194.11 296.09 3.6996-0.33015" stroke="#000" stroke-linecap="round" stroke-width="1.0555" fill="none"/>
   <path id="path774" stroke-linejoin="round" d="m201.11 293.46c-0.60416 0.0334 1.8732-0.15958 2.5568 0.11399l-3.6532-2.6138" stroke="#000" stroke-linecap="round" stroke-width="1.1243" fill="none"/>
   <path id="path775" stroke-linejoin="round" d="m205.73 301.29 3.6996-0.33015" stroke="#000" stroke-linecap="round" stroke-width="1.0555" fill="none"/>
   <path id="path776" stroke-linejoin="round" d="m249.6 297.7 3.7047-0.26302" stroke="#000" stroke-linecap="round" stroke-width="1.0555" fill="none"/>
   <path id="path777" stroke-linejoin="round" d="m243.32 302.89 3.7047-0.26303" stroke="#000" stroke-linecap="round" stroke-width="1.0555" fill="none"/>
   <path id="path778" stroke-linejoin="round" d="m247.78 283.84c0.12497 0 2.6264 3.1263 2.6264 3.1263l-0.12539-4.3773" stroke="#000" stroke-linecap="round" stroke-width="1.0555" fill="none"/>
   <path id="path780" stroke-linejoin="round" d="m283.83 295.03-2.6264 2.6264" stroke="#000" stroke-linecap="round" stroke-width="1.0555" fill="none"/>
   <path id="path781" stroke-linejoin="round" d="m292.44 297.9-2.6264 2.6264" stroke="#000" stroke-linecap="round" stroke-width="1.0555" fill="none"/>
   <path id="path782" stroke-linejoin="round" d="m288.61 305.28-2.6264 2.6264" stroke="#000" stroke-linecap="round" stroke-width="1.0555" fill="none"/>
   <path id="path783" stroke-linejoin="round" d="m319.5 305.96-2.6264 2.6264" stroke="#000" stroke-linecap="round" stroke-width="1.0555" fill="none"/>
   <path id="path784" stroke-linejoin="round" d="m303.24 304.05-2.6264 2.6264" stroke="#000" stroke-linecap="round" stroke-width="1.0555" fill="none"/>
   <path id="path785" stroke-linejoin="round" d="m319.23 288.33-2.6264 2.6264" stroke="#000" stroke-linecap="round" stroke-width="1.0555" fill="none"/>
   <path id="path786" stroke-linejoin="round" d="m331.66 306.08-3.698-0.35252" stroke="#000" stroke-linecap="round" stroke-width="1.0555" fill="none"/>
   <path id="path787" stroke-linejoin="round" d="m300.6 314.32 0.17943-3.7106" stroke="#000" stroke-linecap="round" stroke-width="1.0555" fill="none"/>
   <path id="path788" stroke-linejoin="round" d="m312.32 297.53 1.8901-3.1981" stroke="#000" stroke-linecap="round" stroke-width="1.0555" fill="none"/>
   <path id="path789" stroke-linejoin="round" d="m318.2 301.08 1.8901-3.1981" stroke="#000" stroke-linecap="round" stroke-width="1.0555" fill="none"/>
   <path id="path790" stroke-linejoin="round" d="m323.1 311.25c-0.0815 0.095-4.0834-0.0312-4.0834-0.0312l2.8688 2.0915" stroke="#000" stroke-linecap="round" stroke-width="1.0555" fill="none"/>
   <path id="path791" stroke-linejoin="round" d="m267.53 310.14c0.0853 0.0912-0.48298 4.0547-0.48298 4.0547l4.2831-2.2722" stroke="#000" stroke-linecap="round" stroke-width="1.0555" fill="none"/>
   <path id="path792" stroke-linejoin="round" d="m234.58 302.89c0.48762-0.36181 2.9629-1.1319 2.8299-1.6634l-2.6345-0.95415" stroke="#000" stroke-linecap="round" stroke-width="1.0555" fill="none"/>
   <path id="path828" stroke-linejoin="round" d="m346.11 277.88c1.7352 1.3468 4.6618-13.979 4.2134-18.775 0-0.31665-0.54462-10.487 1.5849-17.752 1.3447-2.4462 1.3932-20.773-0.624-25.591 1.6068-0.13553 3.554-0.65566 3.7938-2.6197-7.4221 2.7476-9.1847-15.687-16.326-26.274-6.9733-10.617-15.628-16.806-24.619-23.249 0.70125-1.8023 1.7386-3.4928 3.1124-5.1832-11.04 5.5298-28.243-14.492-53.627-12.996-5.7219 0.56995-8.4176 0.91573-9.8809 4.3992-4.7192 0.40023-9.5512 1.4726-9.5634 7.7003 0.009 1.492 1.3637 4.2168 4.3988 4.2519 4.1594 1.1973 7.534 0.26556 10.349 6.058 0.21109 1.5849 0.53449 4.4026 0.74558 5.9875 0 0-3.7233-4.7163-5.7595-5.5007 0.5404-0.78442-0.32045-1.3227 1.2484-2.5357-1.9049-1.1019-5.3149-0.20519-5.3149-0.20519s-7.3735-3.4708-13.313-2.5361c0-0.6337-1.1365-4.8087-1.1365-4.8087-1.0504 2.941-3.3708 2.7822-3.711 5.5742-0.63371-2.0075-1.492-4.4634-2.1257-6.4709-2.0844 2.8464-1.4794 5.917-2.219 8.8753-0.82622 0.67254-2.474 0.71012-2.8895-1.1952-0.21109-2.3246-0.49733-2.5572-0.48425-5.3297-1.5047 2.6222-3.3083 3.8993-3.9166 8.4269-0.63413-1.6904-0.96892-3.3066-1.603-4.9966 0.0802 5.8883-4.9983 9.4216-9.8083 13.555-1.351 2.5006 0.21151 2.5357 0.31706 3.8035 0.84522 0.42261 1.6904 0.84564 2.5357 1.2682 1.4794-0.10554 3.0706-0.21151 4.5495-0.31706 0.73968 0.95077 0.13468 1.0078 2.1072 1.6225 5.2828 1.4794 11.895-4.8729 17.082 5.1076-2.3888 1.9881-4.7775 6.6664-4.0281 7.534 0.95077 0-1.9087 1.3447 1.956 0.11188-4.0344 3.9226-6.7681 9.0804-6.7681 9.3975-0.44837 1.1011 1.6258-0.14903 1.1923 1.8521 0.567-1.5009 0.95921-0.12497 0.95921-0.12497-9.2075 9.9599-0.30778 20.64-1.2999 26.394 1.5309 2.4656 1.7217-0.0464 3.6355-0.3196 1.6199 7.0569 6.2526 11.337 9.1053 16.938-1.473-0.45174-4.4-0.61217-5.9849 0.0591 0.13467 2.6556 2.5357 5.1803 4.4376 7.5023-1.3734 0.42218-2.6416 0.84437-4.015 1.2708-2.8527 1.4777-4.7488 3.0313-6.7567 5.2478-1.3388 3.234 6.3902 4.0192 10.095 4.5639-0.33606 1.161-0.80933 2.6218-0.13679 3.8968 5.8275 0.56151 12.561-1.161 12.561-1.4777 0-0.32086 1.4599-1.1395 1.4599-1.1395 0.78443 1.5705 2.5103 2.0345 3.2753 1.8108 1.1015 0 2.8114-4.3865 2.0269-7.7472 2.1131 2.5331 4.1016 6.5693 6.2146 9.1066 0.64004 0.67145 1.4667 0.17749 1.9948-0.27442 1.7964 2.8542 4.2759 5.7082 6.0724 8.5579 0.95076 1.0892 0.746 0.68817 2.0328 0.76839 1.175-0.37997 2.1755-0.53618 2.7902-2.816 0 0 0.38968 0.35379 0.94401 1.6106 1.4186 1.009 2.4204-1.4169 3.2048-2.2021 0.44836-1.0808 2.1975 0.21152 2.1975-0.42176 0.63413 0.42218 1.05 2.2798 1.6841 2.702 0.97019-0.35886 1.9336-2.4909 2.0075-4.7538 0.96386 1.9843 1.2615 1.8196 2.0012 2.3516 0.63412-0.53196 0.83297-2.6007 1.4671-3.1284-0.13679-1.0935 7.6133 7.4727 7.9304 7.4727 0.765 0.55729 5.1452 1.8998 6.0415 0.33353 2.1869 1.4608 8.0718 2.3643 9.026 0.0169 4.8442 2.0687 10.545-0.24909 10.304-2.5627 4.4178 1.7648 11.305 0.58684 11.305 0.2702 0.78443-0.0929 2.914-2.1616 0.89673-3.7279-14.687-10.251-36.546-27.223-44.957-31.309 0-3.0258-2.2891-13.941-4.7547-16.947-0.44837-1.5498 0.56108-3.4653 2.0181-3.3534 5.7152 5.3441 7.7928 4.8349 10.818 5.6962 3.2753 2.5838 4.4511 6.5283 7.7265 10.121 1.5435 0.49311 3.3678 2.0565 2.8937 0.53238-2.0442-5.13-4.5153-10.096-10.635-16.766 3.1698 1.5849 8.3619 5.7831 11.868 8.825 2.3372 3.8516 2.9937 6.9192 5.1068 11.779 1.5317 0.97146 3.0963 4.5529 2.8722 1.5849-0.33606-5.5834-4.2519-14.449-4.2519-15.084 6.2248 4.9662 6.1602 12.663 8.0364 17.372 1.6254 2.3896 2.4432 5.5644 3.1158 4.8214 0.78443-1.085-1.8479-14.528-1.8479-14.528-0.42261-1.6904-0.63412-3.6055-1.0567-5.2959 4.6331 2.6665 6.253 12.843 8.421 25.034 0.006 1.9421 0.79709 4.0699 0.69155 5.3365 0.99425 1.2286 2.1392 4.6188 2.0877 2.5965 0 0 0.003-19.833-1.3417-24.389-0.33607-2.4272 0.5957-6.3974 0.5957-6.3974 1.6904 8.2416 3.4932 17.154 5.1836 25.395v6.0246c0.84522 0.84437 1.6904 1.6888 2.5357 2.5374 0.52816-4.9692 1.0567-9.9341 1.5849-14.899 0 0-1.902-17.435-1.902-17.751v-5.0718c-0.0384-1.7867 1.6039-1.4443 2.6864 0.57967 0.21151 4.3321 0.19843 7.7674 0.40994 12.1 0.73968 4.9637 1.2548 8.586 1.6584 14.898 0.19843 5.1718 0.39728 17.403 1.4924 17.192z" stroke-opacity=".77245" fill-rule="evenodd" stroke="#000" stroke-width="1.0555" fill="#9c4314"/>
   <path id="path793" stroke-linejoin="round" d="m264 306.55c-0.23811-0.55855-0.40952-3.1453-0.95752-3.1398l-1.5423 2.3393" stroke="#000" stroke-linecap="round" stroke-width="1.0555" fill="none"/>
   <path id="path794" stroke-linejoin="round" d="m310.35 292.43-0.31538 2.6163" stroke="#000" stroke-linecap="round" stroke-width="1.0555" fill="none"/>
   <path id="path795" stroke-linejoin="round" d="m287.3 311.73c-0.60289 0.0739-3.1352-0.48003-3.2821 0.0477l1.8188 2.1316" stroke="#000" stroke-linecap="round" stroke-width="1.0555" fill="none"/>
   <path id="path823" d="m248.54 253.1v0.27358-0.27358 0.27358-0.27358 2.7341 2.0502c0.13974 0.67804 0.13679 1.4333 0.13679 2.1869 0.0857 0.57924 0.28835 1.275 0.54673 1.9138 0.0376 0.81061 0.26345 1.3426 0.54674 2.0506 0.0583 0.69873 0.29679 1.2966 0.54673 1.9138 0.0591 0.70167 0.28624 1.0698 0.40995 1.6402 0.198 0.6565 0.43823 1.0842 0.68352 1.5034 0.17816 0.17817 0.24614 0.35549 0.40994 0.40995" stroke="#000" stroke-width=".42219pt" fill="none"/>
   <path id="path825" d="m237.87 269.91c0-0.22165-0.0346-0.89293 0.27358-1.367 0.48383-0.68775 0.87224-1.1142 1.5034-1.777 0.74642-0.47497 1.2792-1.0382 1.9138-1.6402 0.68057-0.43443 1.0225-0.8182 1.6402-1.2303 0.37913-0.38672 0.81694-0.57839 1.2303-0.82031 0.47032-0.23094 0.81271-0.57249 1.5034-0.6831 0.41713-0.20856 1.2818-0.13679 1.9138-0.13679 0.65229 0 0.88027-0.12539 1.5038-0.13679" stroke="#000" stroke-width=".42219pt" fill="none"/>
   <path id="path829" d="m337.24 222.43c2.1126 1.5317 4.438 4.8611 5.3888 10.883" stroke-opacity=".77245" stroke="#000" stroke-linecap="round" stroke-width="1.0555" fill="none"/>
   <path id="path830" d="m325.36 224.48c3.0638 2.7472 4.7931 5.7346 7.0793 12.468" stroke-opacity=".77245" stroke="#000" stroke-linecap="round" stroke-width="1.0555" fill="none"/>
   <path id="path831" d="m317.96 227.76c1.8665 2.1308 2.9937 4.3671 4.0154 7.0261" stroke-opacity=".77245" fill-rule="evenodd" stroke="#000" stroke-linecap="round" stroke-width="1.0555" fill="#00c600"/>
   <path id="path832" d="m305.28 220.79c2.4301 2.8 6.3392 7.0793 8.3471 11.411" stroke-opacity=".77245" fill-rule="evenodd" stroke="#000" stroke-linecap="round" stroke-width="1.0555" fill="#00c600"/>
   <path id="path833" d="m253.67 149.29c0.17732 12.179 18.004 9.2088 19.505 20.652 3.4117 12.488 1.9894 20.556-3.0009 24.521-2.8337 2.9173-0.66663 7.4529 0.1769 9.7821 4.6331 11.743 11.63 13.633 14.638 23.77" stroke-opacity=".77245" stroke="#000" stroke-width="1.0555" fill="none"/>
   <path id="path834" d="m247 157.6c0-0.2339 0.41839-0.64215 0.83213-0.83172 1.7745-0.57839 2.8654-0.61217 4.6804-0.72785 1.56 0 3.0157 0.0688 4.5757 0.312" stroke-opacity=".77245" stroke="#000" stroke-linecap="round" stroke-width="1.0555" fill="none"/>
   <path id="path835" d="m270.09 269.4 6.1977 10.082" stroke-opacity=".77245" stroke="#000" stroke-width="1.0555" fill="none"/>
   <path id="path836" d="m289.84 254.4 33.183 25.412" stroke-opacity=".77245" stroke="#000" stroke-width="1.0555" fill="none"/>
   <path id="path837" d="m288.95 261.37 24.249 21.287" stroke-opacity=".77245" stroke="#000" stroke-width="1.0555" fill="none"/>
   <path id="path838" d="m243.33 234.96c3.1934 6.3404 12.218 14.762 17.633 16.105 0.18492-4.0724-0.046-5.6455-0.69408-8.4687" stroke-opacity=".77245" stroke="#000" stroke-width="1.0555" fill="none"/>
   <path id="path839" d="m253.6 231.35c3.1934 6.3404 6.1091 13.097 14.579 16.939 0.87942-6.1555-1.0179-14.532-5.6924-23.048" stroke-opacity=".77245" stroke="#000" stroke-width="1.0555" fill="none"/>
   <path id="path840" d="m255.1 222.85c2.9156 1.7588 5.5535 2.545 7.4976 2.7767 0.87942-6.1555 1.6495-12.669-3.3724-21.482" stroke-opacity=".77245" stroke="#000" stroke-width="1.0555" fill="none"/>
   <path id="path841" d="m243.88 226.49c4.3042 4.6745 7.775 4.9054 9.7192 5.1372 1.4346-4.2118 2.0366-13.144 0.2778-22.771" stroke-opacity=".77245" stroke="#000" stroke-width="1.0555" fill="none"/>
   <path id="path842" d="m232.73 230.24c4.2852 5.5463 14.165 16.073 19.481 19.899 0.18492-0.88238 0.45935-1.2927 0.38884-4.1151" stroke-opacity=".77245" stroke="#000" stroke-width="1.0555" fill="none"/>
   <path id="path843" d="m305.92 169.33c4.5909 5.2926 22.306 23.103 25.813 31.439 6.0538 13.625 17.217 16.216 19.999 14.69" stroke-opacity=".77245" stroke="#000" stroke-width="1.0555" fill="none"/>
   <path id="path844" d="m275.57 242.96c1.5942 6.519 4.4891 18.378 8.6604 20.253 0.71814-0.70083 1.3252-1.997 1.2547-4.8214" stroke-opacity=".77245" stroke="#000" stroke-width="1.0555" fill="none"/>
   <path id="path845" d="m251.49 206.01c1.8732 1.9074 2.2976 3.6443 4.2417 3.8761 2.368-1.937 6.5389-12.734 5.0405-20.704" stroke-opacity=".77245" stroke="#000" stroke-width="1.0555" fill="none"/>
   <path id="path846" d="m241.67 205.71c0.88068 4.2894 1.7018 7.9122 4.7378 7.9456 5.0481-4.2198 6.5389-13.666 5.0405-21.635" stroke-opacity=".77245" stroke="#000" stroke-width="1.0555" fill="none"/>
   <path id="path847" d="m239.71 228.41-2.2731-4.9953" stroke-opacity=".77245" stroke="#000" stroke-width="1.0555" fill="none"/>
   <path id="path848" d="m288.76 268.83 15.217 13.823" stroke-opacity=".77245" stroke="#000" stroke-width="1.0555" fill="none"/>
   <path id="path849" d="m281.51 263.27 4.6956 13.219" stroke-opacity=".77245" stroke="#000" stroke-width="1.0555" fill="none"/>
   <path id="path850" d="m260.82 251.17c3.1934 6.3413 9.9966 15.494 15.412 16.837 0.18492-0.87815 0.0819-1.6423 0.0114-4.4625" stroke-opacity=".77245" stroke="#000" stroke-width="1.0555" fill="none"/>
   <path id="path851" d="m252.58 249.9c3.1934 6.337 12.577 16.668 17.992 19.695 0.18492-0.87815 0.97483-1.047 0.90433-3.8672" stroke-opacity=".77245" stroke="#000" stroke-width="1.0555" fill="none"/>
   <path id="path852" d="m275.95 267.74 6.7799 11.243" stroke-opacity=".77245" stroke="#000" stroke-width="1.0555" fill="none"/>
   <path id="path853" d="m267.84 239.52c2.9156 1.7588 5.9761 3.2327 7.9203 3.4645 0.29722-6.8542-2.0924-17.909-6.9982-26.373" stroke-opacity=".77245" stroke="#000" stroke-width="1.0555" fill="none"/>
   <path id="path854" d="m234.1 203.58c-0.86633 3.2416-0.746 6.785 2.29 6.8183 8.4252-3.6372 3.3948-7.2608 10.63-19.539" stroke-opacity=".77245" stroke="#000" stroke-width="1.0555" fill="none"/>
   <path id="path855" d="m245.22 181.28c3.1934 6.3404 4.1294 10.651 9.1054 12.28 0.99594-0.44921 3.4733-11.656-4.9274-20.754" stroke-opacity=".77245" stroke="#000" stroke-width="1.0555" fill="none"/>
   <path id="path856" d="m255.45 186.56c1.6406 1.9074 4.0446 2.3634 5.9888 2.246 1.902-3.8001-2.165-14.565-7.5196-20.132" stroke-opacity=".77245" stroke="#000" stroke-width="1.0555" fill="none"/>
   <path id="path857" d="m302.51 177.78c4.0087 5.6417 21.597 25.336 29.135 31.622 1.6942-0.21617 4.2004 1.8876 1.8551-5.2305" stroke-opacity=".77245" stroke="#000" stroke-width="1.0555" fill="none"/>
   <path id="path858" d="m300.53 190.24c4.0087 5.6417 11.349 15.193 18.887 21.48 1.8948 0.70717 3.7284 0.48003 4.3308-0.0127 0.64594-0.62273 0.0578-5.0941 0.2246-9.6428" stroke-opacity=".77245" stroke="#000" stroke-width="1.0555" fill="none"/>
   <path id="path859" d="m295.76 197.35c4.5909 5.0595 10.651 10.884 18.072 17.637 1.8948 0.70716 3.5325 0.73503 3.7486-0.0127 0.18027-0.73925 0.52393-0.55264 0.10808-5.1013" stroke-opacity=".77245" stroke="#000" stroke-width="1.0555" fill="none"/>
   <path id="path860" d="m289.35 206.43c4.5909 5.0595 8.7874 8.7883 12.949 9.7179 2.0113 0.2415 3.0668 0.26936 3.2829-0.47834 0.18028-0.73925 0.0578-4.2789-0.008-8.3619" stroke-opacity=".77245" stroke="#000" stroke-width="1.0555" fill="none"/>
   <path id="path861" d="m282.83 213.18c4.5909 5.0595 4.5951 7.1578 8.7562 8.0874 2.0113 0.24149 3.5008-0.0232 3.8651-0.71097 0.64637-1.438 0.87309-2.998 0.8068-7.081" stroke-opacity=".77245" stroke="#000" stroke-width="1.0555" fill="none"/>
   <path id="path862" d="m280.97 180.11c4.6242 0.84142 5.0072-3.1563 4.6322-6.0166-0.45512-3.5856-2.9908-5.1549-5.9938-4.4013" stroke-opacity=".77245" stroke="#000" stroke-linecap="round" stroke-width="1.0555" fill="none"/>
   <path id="path863" d="m278.4 195.95c2.1789 0.84142 4.9168 0.7878 5.9132-1.7078 0.80469-1.8986 0.50283-6.5524-2.4998-5.7988" stroke-opacity=".77245" stroke="#000" stroke-linecap="round" stroke-width="1.0555" fill="none"/>
   <path id="path864" d="m281.67 188.38c4.1586 0.25923 4.5474-1.6394 4.3992-4.037-0.16466-2.7945-2.059-4.9219-5.062-4.1683" stroke-opacity=".77245" stroke="#000" stroke-linecap="round" stroke-width="1.0555" fill="none"/>
   <path id="path869" d="m285.71 177.52c6.0723-3.6553 23.566 11.003 10.261 15.67" stroke-opacity=".77245" stroke="#000" stroke-width="1.0555" fill="none"/>
   <path id="path870" d="m284.42 187.9c6.0724-3.6553 19.446 8.3032 5.8862 12.961" stroke-opacity=".77245" stroke="#000" stroke-width="1.0555" fill="none"/>
   <path id="path871" d="m282.15 196.15c6.7799 0.23558 14.582 11.118 1.289 12.448" stroke-opacity=".77245" stroke="#000" stroke-width="1.0555" fill="none"/>
   <path id="path872" d="m274.16 201.96c2.1789 0.84143 3.4379 1.3869 5.3825-0.29257 0.76712-0.70421 1.78-3.9335-1.0846-5.7253" stroke-opacity=".77245" stroke="#000" stroke-linecap="round" stroke-width="1.0555" fill="none"/>
   <path id="path873" d="m217.39 188.81c2.2929-2.9595 7.8979-4.8463 9.8155-0.92755" stroke-opacity=".77245" stroke="#000" stroke-width="1.0555" fill="none"/>
   <path id="path874" d="m278.25 202.49c3.95 1.2974 10.234 12.285-0.3196 13.406" stroke-opacity=".77245" stroke="#000" stroke-width="1.0555" fill="none"/>
   <path id="path875" d="m273.21 152.79c4.555 0.86127 6.8546 8.2209 10.485 8.7883 6.6389 0.99004-0.85747-7.6834-2.2946-8.6591" stroke-opacity=".77245" stroke="#000" stroke-linecap="round" stroke-width="1.0555" fill="none"/>
   <path id="path876" d="m206.05 184.25c2.043 0.0832 3.9606-0.29216 5.2529-2.71" stroke-opacity=".77245" stroke="#000" stroke-width="1.0555" fill="none"/>
   <path id="path883" d="m226.3 205.34c1.1348 2.116 4.0517 1.2704 6.4624-0.19716 3.2977-1.8859 0.51845-8.5113 8.3792-14.161" stroke-opacity=".77245" stroke="#000" stroke-width="1.0555" fill="none"/>
   <path id="path884" d="m230.48 233.24c4.2852 5.5459 12.414 13.821 17.48 18.269 0.18492-0.87815 1.0069-1.3257 0.93641-4.1501" stroke-opacity=".77245" stroke="#000" stroke-width="1.0555" fill="none"/>
   <path id="path885" d="m247.8 251.14 9.7454 13.54" stroke-opacity=".77245" stroke="#000" stroke-width="1.0555" fill="none"/>
   <path id="path886" d="m268.12 247.87c1.5942 6.5169 7.9329 16.839 12.104 18.714 0.71814-0.70505 1.2003-3.4999 1.1298-6.3244" stroke-opacity=".77245" stroke="#000" stroke-width="1.0555" fill="none"/>
   <path id="path887" d="m265.85 266.54-0.59529 6.0415" stroke-opacity=".77245" stroke="#000" stroke-width="1.0555" fill="none"/>
   <path id="path888" d="m280.44 236.33c1.5942 6.5182 3.9888 22.381 7.6598 25.256 0.71814-0.70083 2.2009-13.879 2.1304-16.702" stroke-opacity=".77245" stroke="#000" stroke-width="1.0555" fill="none"/>
   <path id="path889" d="m275.52 235.88c2.1654 0.25838 3.4273 0.2512 5.1216 0.23263 0.29722-6.8542-2.672-14.911-7.5779-23.375" stroke-opacity=".77245" stroke="#000" stroke-width="1.0555" fill="none"/>
   <path id="path890" d="m287.59 218.95-0.33818 6.9306" stroke-opacity=".77245" fill-rule="evenodd" stroke="#000" stroke-linecap="round" stroke-width="1.0555" fill="#00c600"/>
   <path id="path891" d="m263.12 215.99c2.2904 0.88364 3.9276 1.1695 5.7468 1.0259 1.88-9.2822-2.8527-9.292-8.7503-15.854" stroke-opacity=".77245" stroke="#000" stroke-width="1.0555" fill="none"/>
   <path id="path892" d="m289.47 154.29c4.555 0.86127 1.6668 7.6741 7.859 9.7889 5.198 1.7327 2.2693-5.4319 0.83214-6.4076" stroke-opacity=".77245" stroke="#000" stroke-linecap="round" stroke-width="1.0555" fill="none"/>
   <path id="path893" d="m282.7 169.59c3.2863-2.3904 15.035 0.91868 19.011 4.2582 1.1386 1.0618 2.8772 5.3006-2.5243 9.1978" stroke-opacity=".77245" stroke="#000" stroke-width="1.0555" fill="none"/>
   <path id="path902" d="m220.45 175.2c9.4317-9.2037 13.806-8.1558 24.604-1.367 1.5494 0.36435 3.2352 0.0456 4.2375-0.54674 0.54673-1.3214 0.0257-2.6678-0.68353-3.6904-4.8298-3.4628-8.429-4.4655-12.986-3.8276" stroke-opacity=".77245" stroke="#000" stroke-width="1.0555" fill="none"/>
   <path id="path903" d="m234.03 209.36c-2.1206 3.1259-3.855 9.9244-0.27315 17.496 0.14228 0.8714 1.0572 1.7428 0.13636 2.3237-1.7647 0.88913-2.5627 2.3583-3.554 3.8276" stroke-opacity=".77245" stroke="#000" stroke-width="1.0555" fill="none"/>
   <path id="path904" d="m288.99 257.7c0.0646-11.469-1.6111-20.618-6.1859-28.899" stroke-opacity=".77245" stroke="#000" stroke-width="1.0555" fill="none"/>
   <path id="path905" d="m269.18 213.04c1.5144-0.16085 3.4151 0.25796 4.3494-0.19294 0.45132-1.6752-0.83762-3.7376-1.3531-5.3162 0.86971-0.0967 1.9332-0.0967 2.6096-0.29004 0.38672-1.4498 0-3.4797 0-5.2195" stroke-opacity=".77245" stroke="#000" stroke-width="1.0555" fill="none"/>
   <path id="path906" d="m212.53 180.4c0.36435-2.5517 2.6425-5.3766 5.1942-6.8344 1.2302-0.68352 2.0506 0.13679 2.5973 0.40953 0.68353 1.0939 0.27316 3.144 0 3.9644-0.68352 1.367-2.0502 2.4605-4.5107 3.4172-1.2759-0.54673-2.005-0.40994-3.2808-0.95668z" stroke-opacity=".77245" fill-rule="evenodd" stroke="#000" stroke-width="1.0555" fill="#fff"/>
   <path id="path907" d="m234.4 229.06c0.54674 0.27315 6.0141 6.2876 6.0141 6.2876h3.2808l0.27316-9.1581" stroke-opacity=".77245" stroke="#000" stroke-width="1.0555" fill="none"/>
   <path id="path908" stroke-linejoin="round" d="m243.28 211.43c-1.0935 3.5996-0.68353 7.1992 0 10.799" stroke-opacity=".77245" stroke="#000" stroke-linecap="round" stroke-width="1.0555" fill="none"/>
   <path id="path909" d="m236.16 228.41 1.2809-4.9953" stroke-opacity=".77245" stroke="#000" stroke-width="1.0555" fill="none"/>
   <path id="path910" d="m238.5 209.51c-1.6406 3.0072-2.1071 7.9477-1.2539 11.535" stroke-opacity=".77245" stroke="#000" stroke-width="1.0555" fill="none"/>
   <path id="path911" d="m283.18 229.5-3.093 0.0621" stroke-opacity=".77245" stroke="#000" stroke-width="1.0555" fill="none"/>
   <path id="path1170" d="m172.37 217.88c0.43443 1.3392-1.0268 0.62019-1.3404 0.99679-1.5355 0.54209-3.9707-1.3396-5.5083-5.8895 0.75023-1.2737 5.1613-4.0125 6.5769-3.4231 0 0 2.7755 1.0576 3.1082 2.2169-0.53238 1.6913-2.9304 6.2872-2.8363 6.0989z" fill-rule="evenodd" stroke="#000" stroke-width="1.0555" fill="#9f3000"/>
   <path id="path912" d="m283.18 229.5 0.0511-6.0892" stroke-opacity=".77245" stroke="#000" stroke-width="1.0555" fill="none"/>
   <path id="path913" d="m288.21 261.49 0.86844 14.857" stroke-opacity=".77245" stroke="#000" stroke-width="1.0555" fill="none"/>
   <path id="path1153" d="m172.27 218.4c2.9971 2.8185 7.7062 0.92797 8.4556 7.8139 0.32128 3.8533-5.1376 11.56 0 18.517 1.8196 2.6763 6.5296 5.5661 6.5296 5.5661 2.4622 2.7472 3.2107 7.6353 4.8163 11.453 3.3893 5.0667 8.0634 6.1724 11.774 4.924 0 0 12.202-5.4589 12.202-5.5661 0-0.10681-6.2079-8.3488-6.2079-8.2415 0 0.10681-6.9577 5.887-7.0645 5.887-0.74938-0.10724-4.8163 0.32086-6.3151-4.8168-0.10681-6.565-3.353-10.2-8.5628-12.844-2.64-1.9986-4.745-5.1731-2.4618-9.6331 1.3198-4.0678 2.6404-10.918-2.0337-15.52-2.9971-1.9982-5.138-3.5679-8.3492-4.1746-4.2455 1.6056-4.2096 1.1775-2.7826 6.6364z" fill-rule="evenodd" stroke="#000" stroke-width="1.0555" fill="#238700"/>
   <path id="path914" d="m232.61 161.1c-1.6406 3.0068-1.4908 4.8096-1.2176 7.8168" stroke-opacity=".77245" stroke="#000" stroke-width="1.0555" fill="none"/>
   <path id="path915" d="m224.28 175.89h0.13679 0.54674 3.1436c1.0179-0.027 1.4532-0.41333 2.1874-0.95668 0.49312-0.27865 1.0166-0.6983 1.5034-1.0935 0.40488-0.29005 0.89208-0.63033 1.367-0.82031 0.77513 0 1.3814 0.057 2.0501 0.27357 0.61851 0.25965 1.1272 0.63075 1.6402 0.95668 0.51169 0.20477 0.97441 0.27358 1.777 0.27358 0.83425 0 1.709-0.0388 2.4605 0.13679 0.72278 0.0481 1.5313 0.20687 2.0506 0.40995 0.66157 0.41712 1.0601 0.91488 1.5034 1.367 0.0262 0.72575 0.26471 1.1699 0.27358 1.9134 0 0.6354 0.0718 1.4967-0.13679 1.9138 0 0.78653-0.12539 1.3455-0.27358 1.9138-0.5024 0.472-0.68394 0.83678-1.3666 0.95668-0.53703 0.42176-1.3417 0.40994-2.1874 0.40994h-2.1869c-0.47496-0.39559-1.0504-0.80722-1.6402-1.3666-0.31749-0.73503-0.5269-0.97441-1.2303-1.2303-0.59107-0.0925-1.294-0.13679-2.0502-0.13679-0.6679 0-1.2239 0.0464-1.6406-0.27316-0.37786-0.3597-0.92121-0.54842-1.5034-0.68352-0.61977-0.17563-1.3502-0.13679-2.0506-0.13679h-1.0935" stroke-opacity=".77245" stroke="#000" stroke-width="1.0555" fill="none"/>
   <path id="path916" d="m227.83 177.12c0.0456 0.0456 0.0912 0.0912 0.13679 0.13678-0.31031-0.30988-0.19674-0.16085 0.54673 0.13679 0.90517 0.20899 1.8783 0.38124 2.8705 0.40995 0.94064 0 1.796 0.11526 2.7337 0.13679 0.65398 0 1.3421 0.0536 1.9138-0.13679" stroke-opacity=".77245" stroke="#000" stroke-width="1.0555" fill="none"/>
   <path id="path917" d="m236.58 174.93h-0.13679c0.42852 0 0.16508-0.0355-0.40994 0.68352-0.0557 0.78063-0.22292 1.2113 0.13679 1.9138 0.44541 0.14819 1.1994 0.47919 1.5034 0.81989 0.43992 0.31453 0.40995 0.59698 0.40995 1.367-0.26303 0.42726-0.49903 0.77092-0.8199 1.367-0.17183 0.42936-0.39559 1.0061-0.54673 1.5034-0.15621 0.62442-0.26513 1.2184-0.27358 1.9138v1.3666" stroke-opacity=".77245" stroke="#000" stroke-width="1.0555" fill="none"/>
   <path id="path918" d="m286.07 159.01c0.15241 0.29173 2.7725 5.5243 6.0284 2.2055 0.48256-0.56574 0.65102-0.97653 0.65102-1.9412 0-0.50325-0.0688-1.0884-0.19337-1.5034" stroke-opacity=".77245" stroke="#000" stroke-width="1.0555" fill="none"/>
   <path id="path1183" d="m207.18 264.25c1.5765 2.1971 4.4418 1.0656 5.0164-0.69282-1.9619 0.1275-2.7117-1.0314-3.4041-2.8067-0.41923 1.0175-2.0539 2.2384-1.6123 3.4995z" fill-rule="evenodd" stroke="#000" stroke-width=".57302" fill="#fff"/>
   <path id="path919" d="m299.9 163.9c0 0.10133 2.7763 2.6547 6.9767 2.6547 1.0132 0 5.8292-1.2163 7.3638-3.356" stroke-opacity=".77245" stroke="#000" stroke-width="1.0555" fill="none"/>
   <path id="path920" d="m305.71 166.36c0.0621 0.40995 0.19336 1.9058 0.19336 2.8996-0.0127 1.0534 0.2398 1.934-0.15748 2.8122-0.43147 1.1192-0.9115 1.5667-1.9691 1.9509-0.86085 0.38968-1.0437 0.0165-2.0024 0.0519" stroke-opacity=".77245" stroke="#000" stroke-width="1.0555" fill="none"/>
   <path id="path921" d="m282.6 161.07c0 0.0646 2.9621 7.1004 3.9356 7.8143" stroke-opacity=".77245" stroke="#000" stroke-width="1.0555" fill="none"/>
   <path id="path1184" d="m209.11 262.97c1.5764 2.1971 4.4418 1.0656 5.0164-0.69282-1.9619 0.1275-2.7117-1.0314-3.4041-2.8067-0.41924 1.0175-2.054 2.2384-1.6123 3.4995z" fill-rule="evenodd" stroke="#000" stroke-width=".57302" fill="#fff"/>
   <path id="path1185" d="m212.1 261.69c1.5764 2.1971 4.4418 1.0656 5.0164-0.69282-1.9619 0.12751-2.7117-1.0314-3.4041-2.8067-0.41923 1.0175-2.0539 2.2384-1.6123 3.4995z" fill-rule="evenodd" stroke="#000" stroke-width=".57302" fill="#fff"/>
   <path id="path922" d="m265.7 157.47h0.19337 0.77302c3.0714-0.51802 13.391 1.3856 15.184 3.2851" stroke-opacity=".77245" stroke="#000" stroke-width="1.0555" fill="none"/>
   <path id="path923" d="m267.63 207.34c-0.0646-0.0646 0.14396 1.183 0.0798 1.1184 0.38082 0.38124-0.0578-1.0297-0.27316-1.8918-0.32213-0.7688-0.38672-1.2754-0.38672-2.3195v-0.77345" stroke-opacity=".77245" stroke="#000" stroke-width="1.0555" fill="none"/>
   <path id="path924" d="m248.34 252.84v0.27442-0.27442 0.27442-1.1188 3.5802 2.0476c0.13974 0.67973 0.13679 1.4354 0.13679 2.1869 0.0857 0.58262 0.28835 1.275 0.54673 1.9167 0.0376 0.8106 0.26345 1.3426 0.54673 2.0476 0.0583 0.70083 0.2968 1.3003 0.54674 1.9167 0.0591 0.70084 0.28624 1.0681 0.40994 1.6381 0.19801 0.65862 0.43824 1.085 0.68353 1.503 0.17816 0.18154 0.35168 1.0977 0.51549 1.1484" stroke-opacity=".77245" stroke="#000" stroke-width="1.0555" fill="none"/>
   <path id="path925" d="m240 244.78v0.13679 0.54674 3.0072c0.17816 0.90644 0.2094 1.8648 0.40994 2.7345 0.0743 0.78105 0.2626 1.4481 0.41037 2.1869 0.065 0.73039 0.94021 3.3226 1.2303 3.9644 0.32339 0.60373 0.80131 1.2328 1.0935 1.6381 0.54631 0.16887 0.99172 0.36308 1.6402 0.40952h1.9138c0.76754-0.14777 1.031-0.22798 1.3666-0.81905 0.18449-0.3673 0.17352-0.62484 0.41037-0.81904" stroke-opacity=".77245" stroke="#000" stroke-width="1.0555" fill="none"/>
   <path id="path926" d="m237.68 269.66c0-0.22376-0.0346-0.89504 0.27358-1.3679 0.48383-0.68816 0.87224-1.1146 1.5034-1.7774 0.74643-0.47707 2.6041-3.0313 8.2014-4.509 0.65228 0 0.88027-0.12665 1.5038-0.13932" stroke-opacity=".77245" stroke="#000" stroke-width="1.0555" fill="none"/>
   <path id="path927" d="m238.34 257.26c0.0456 0.0464 3.0592 1.6212 4.6225 1.6888" stroke-opacity=".77245" stroke="#000" stroke-width="1.0555" fill="none"/>
   <path id="path1104" d="m246.95 262.55h-0.14945 0.14945c-0.0498 0-0.0996 0 0 0z" stroke="#000" stroke-width=".42219pt" fill="none"/>
   <path id="path1106" d="m245.6 262.4c-0.44794-0.29849-14.94-4.482-14.642-4.482 0.29891 0-5.304 3.8098-5.304 3.8098l13.82 4.7061 5.5281-4.034h0.59739z" fill-rule="evenodd" stroke="#000" stroke-width="1.0555" fill="#ffbc00"/>
   <path id="path1107" d="m231.76 257.8c0.91573-2.3242 0.66917-5.388-2.3242-7.2895-6.8314-4.1906-18.312-3.8385-20.495 1.0563-2.3596-0.31706-3.5569 1.5849-3.909 3.4864-6.0922 1.655-0.45639 8.6941 1.0563 8.9783 2.0468 0.69999 2.6062 0.18619 2.9583-0.48298 1.1395 0.28076 2.702-0.9381 3.0946-1.7778 1.4468 0.26683 2.5462 0.24023 2.5737-1.2108 4.1459 3.8854 9.8602 6.5756 10.495 1.5714 2.1831-1.4439 4.3667-2.8874 6.5498-4.3312z" fill-rule="evenodd" stroke="#000" stroke-width="1.0555" fill="#f7b200"/>
   <path id="path1109" d="m205.04 254.95c-0.38757 2.7117 1.4338 5.6345 4.3215 8.4518" stroke="#000" stroke-width="1.0555" fill="none"/>
   <path id="path1110" d="m208.83 251.57c-0.38757 2.7117 0.38715 7.3246 3.2749 10.142" stroke="#000" stroke-width="1.0555" fill="none"/>
   <path id="path1111" d="m213.12 248.66c-2.6518 2.227-1.2066 9.1176 1.6812 11.935" stroke="#000" stroke-width="1.0555" fill="none"/>
   <path id="path1108" stroke-linejoin="round" d="m220.21 192.33c6.1192 8.1039-2.4373 17.058-9.9147 22.217-8.8149 6.9328-13.575 20.447 1.9708 21.277 5.613-0.10343 11.709-0.60035 15.14 3.7955 3.4303 4.3958 3.5561 12.516-5.0844 17.721-0.84649-0.74727-2.105-2.976-3.0423-3.6553-0.93768-0.6793-1.5545 0.19167-2.401-0.5556-0.29891-2.789 4.259-6.9391-0.0511-7.9426-5.578 0.94613-25.104 1.0276-24.855-17.598 0.42852-4.151 2.6475-8.8102 6.2083-13.551 3.5612-4.7408 13.323-10.619 14.26-13.193 1.5034-2.2224-1.2454-6.5477-3.4366-7.1456-1.7926-4.7813 6.1255-9.886 11.205-1.3704z" fill-rule="evenodd" stroke="#000100" stroke-width="1.0555" fill="#288800"/>
   <path id="path1117" d="m206.61 206.67 0.2111 10.881" stroke="#000" stroke-width="1.0555" fill="none"/>
   <path id="path1118" d="m200.91 211 11.621 1.6904" stroke="#000" stroke-width="1.0555" fill="none"/>
   <path id="path1119" d="m209.47 204.24 9.8248 2.0071" stroke="#000" stroke-width="1.0555" fill="none"/>
   <path id="path1120" d="m199.12 212.9 8.1816 4.8455" stroke-opacity=".64151" stroke="#000" stroke-width="1.0555" fill="none"/>
   <path id="path1121" d="m193.29 223.13 6.3886 6.7875" stroke-opacity=".64151" stroke="#000" stroke-width="1.0555" fill="none"/>
   <path id="path1122" d="m199.2 213.35 1.0846 16.05" stroke-opacity=".64151" stroke="#000" stroke-width="1.0555" fill="none"/>
   <path id="path1123" d="m194.79 220.07 10.497 0.21363" stroke-opacity=".64151" stroke="#000" stroke-width="1.0555" fill="none"/>
   <path id="path1125" d="m183.81 247.19c1.625-1.5397 3.3218-3.7499 4.3718-5.9119" stroke="#000" stroke-width="1.0555" fill="none"/>
   <path id="path1126" d="m187.09 249.95c2.1958-1.359 5.0139-2.4301 7.8084-2.9988" stroke="#000" stroke-width="1.0555" fill="none"/>
   <path id="path1127" d="m191.13 259.29c1.9036-1.5866 3.9513-3.2686 5.3517-5.4779" stroke="#000" stroke-width="1.0555" fill="none"/>
   <path id="path1128" d="m191.2 259.65c3.3496-0.0815 6.7474-0.42599 10.049-1.0339" stroke="#000" stroke-width="1.0555" fill="none"/>
   <path id="path1129" d="m197.18 266.24c2.4918-0.9381 4.7682-2.3794 6.6132-3.8204" stroke="#000" stroke-width="1.0555" fill="none"/>
   <path id="path1130" d="m179.85 243.82c1.9315-1.5596 3.8634-3.3344 5.4357-5.1815" stroke="#000" stroke-width="1.0555" fill="none"/>
   <path id="path1131" d="m178.43 238.82c2.1-0.56362 4.1518-1.6305 5.9406-2.6252" stroke="#000" stroke-width="1.0555" fill="none"/>
   <path id="path1132" d="m179.16 233.61c1.6985-0.65862 3.6844-0.93346 5.5265-1.0411" stroke="#000" stroke-width="1.0555" fill="none"/>
   <path id="path1133" d="m180.74 228.81c2.0548-0.20222 3.4392-0.0773 5.4944 0.56574" stroke="#000" stroke-width="1.0555" fill="none"/>
   <path id="path1134" d="m181.09 225.76c1.7002-0.91235 3.6114-1.5072 5.5231-1.2573" stroke="#000" stroke-width="1.0555" fill="none"/>
   <path id="path1135" d="m180.24 223.5 5.9204-4.0425" stroke="#000" stroke-width="1.0555" fill="none"/>
   <path id="path1136" d="m179.2 221.83 5.0422-4.9983" stroke="#000" stroke-width="1.0555" fill="none"/>
   <path id="path1137" d="m177.77 221.14 3.6946-6.31" stroke="#000" stroke-width="1.0555" fill="none"/>
   <path id="path1140" d="m192.5 183.84-0.046 8.9926" stroke="#000" stroke-width="1.0555" fill="none"/>
   <path id="path1141" d="m201.6 185.27c-1.3261 2.5906-3.182 5.6552-5.5678 7.9431" stroke="#000" stroke-width="1.0555" fill="none"/>
   <path id="path1142" d="m194.89 183.54c-2.6412-0.21109-5.1368 1.2193-7.1443 2.9097" stroke="#000" stroke-width="1.0555" fill="none"/>
   <path id="path1145" stroke-linejoin="round" d="m208.97 190.4c4.3899 1.6149 10.218 3.8352 9.612 16.727 3.6329-3.9356 5.298-9.4604 0.681-16.424-3.1031-3.3556-7.6442-4.0623-10.293-0.30313z" fill-rule="evenodd" fill-opacity=".99371" stroke="#000" stroke-linecap="round" stroke-width=".42219pt" fill="#9d4600"/>
   <path id="path1146" d="m210.95 194.7c0.17648-2.4977 3.6705-5.5877 5.5121-6.2687" stroke="#000" stroke-width="1.0555" fill="none"/>
   <path id="path1147" d="m212.29 196.96c0.92037-3.1918 4.8999-5.7266 6.7415-6.4076" stroke="#000" stroke-width="1.0555" fill="none"/>
   <path id="path1148" d="m212.38 201.48c1.6997 0.0262 8.133-3.5413 9.6048-5.6658" stroke="#000" stroke-width="1.0555" fill="none"/>
   <path id="path1149" d="m212.9 199.1c2.0683-1.438 5.9537-4.6926 7.7953-5.3736" stroke="#000" stroke-width="1.0555" fill="none"/>
   <path id="path1150" d="m218.58 201.71c1.5486-0.88195 2.078-0.66537 3.7013-2.3356" stroke="#000" stroke-width="1.0555" fill="none"/>
   <path id="path1151" d="m208.97 190.47c4.4148 1.438 9.8134 4.6926 9.4604 16.651" stroke="#000" stroke-width="1.0555" fill="none"/>
   <path id="path1154" d="m194.27 236.68 6.0082-7.2836" stroke-opacity=".64151" stroke="#000" stroke-width="1.0555" fill="none"/>
   <path id="path1155" d="m195.02 238.18 5.366-0.005" stroke-opacity=".64151" stroke="#000" stroke-width="1.0555" fill="none"/>
   <path id="path1156" d="m192.02 230.9 7.5069 4.2764" stroke-opacity=".64151" stroke="#000" stroke-width="1.0555" fill="none"/>
   <path id="path1157" d="m202.13 230.17c-1.4371-0.13299-2.2621-0.40699-3.5109-0.86928 0.58853 9.6744 1.5532 10.171 3.0828 13.82 4.5744 2.9 12.49 2.2228 15.841 1.4988 0.36013 0.5062 2.3406 2.9642 1.1226 3.6785-1.313 0.82369-1.8462 2.42-1.8935 5.0008 0.77556 0.87351 1.5841 0.11484 2.3731 0.67677 0.78907 0.56194 1.7187 2.5509 2.4495 4.2624 0 0 9.7281-6.6862 8.1504-12.976-1.0356-5.909-5.0308-7.9207-5.0308-7.9207-5.648-2.824-13.587-0.95119-16.484-2.0337-3.603-0.80005-5.8701-3.9141-6.101-5.1376z" fill-rule="evenodd" stroke="#000" stroke-width=".42219pt" fill="#9d4600"/>
   <path id="path1158" d="m218.16 247.24c4.8725-2.2241 10.024-2.406 11.423-2.2013" stroke="#000" stroke-width="1.0555" fill="none"/>
   <path id="path1159" d="m199.1 234.32c1.0576-0.61935 2.6142-1.9408 4.4072-1.9129" stroke="#000" stroke-width="1.0555" fill="none"/>
   <path id="path1160" d="m208.06 244.98c0.86549-5.1254 3.0621-8.5865 4.1936-9.452" stroke="#000" stroke-width="1.0555" fill="none"/>
   <path id="path1161" d="m210.99 245.38c0.86548-5.1254 3.2614-8.7862 4.3929-9.6517" stroke="#000" stroke-width="1.0555" fill="none"/>
   <path id="path1162" d="m214.25 245.04c0.86548-5.1254 3.0621-8.4531 4.1936-9.3186" stroke="#000" stroke-width="1.0555" fill="none"/>
   <path id="path1163" d="m216.72 244.64c0.86548-5.1254 3.7275-7.6543 4.859-8.5198" stroke="#000" stroke-width="1.0555" fill="none"/>
   <path id="path1164" d="m218.35 246.1c0.86548-5.1254 5.2187-7.973 6.3501-8.8385" stroke="#000" stroke-width="1.0555" fill="none"/>
   <path id="path1165" d="m218.49 246.89c2.9671-4.2675 7.8438-6.3408 9.2362-6.6414" stroke="#000" stroke-width="1.0555" fill="none"/>
   <path id="path1167" d="m205 244.31c0.86549-5.1254 3.1284-7.9207 4.2599-8.7862" stroke="#000" stroke-width="1.0555" fill="none"/>
   <path id="path1168" d="m202.07 243.38c0.86548-5.1254 3.5282-7.721 4.6597-8.5865" stroke="#000" stroke-width="1.0555" fill="none"/>
   <path id="path1113" d="m217.28 253.91c2.2997-1.8095 3.8634 4.0344 3.9774 4.7429 0.11399 0.70843 0.54377 1.43 1.6888 2.0915" stroke="#000" stroke-width="1.0555" fill="none"/>
   <path id="path1169" d="m200.28 239.85c0.93219-2.596 2.9958-5.4576 4.1273-6.3231" stroke="#000" stroke-width="1.0555" fill="none"/>
   <path id="path1112" d="m212.89 248.89c-2.9853 4.7416 0.46018 8.928 4.3253 7.249-0.44372-3.277-1.2818-5.3584 1.7069-8.5105-2.1194 0.12539-4.0218-0.62484-6.0322 1.2615z" fill-rule="evenodd" stroke="#000" stroke-width="1.1218" fill="#fff"/>
   <path id="path1171" d="m201.63 214.03 1.4122 6.9657" stroke="#000" stroke-width="1.0555" fill="none"/>
   <path id="path1172" d="m203.04 220.43-2.5416 8.5658" stroke="#000" stroke-width="1.0555" fill="none"/>
   <path id="path1173" d="m218.05 247.69c5.2571-1.0251 10.309 0.00042 11.621 0.52605" stroke="#000" stroke-width="1.0555" fill="none"/>
   <path id="path1174" d="m217.43 248.53c5.3884-0.0781 10.088 2.1228 11.246 2.9878" stroke="#000" stroke-width="1.1352" fill="none"/>
   <path id="path1175" d="m217.49 249.53c5.1841 1.1792 7.5074 3.8077 8.4138 4.9181" stroke="#000" stroke-width="1.1275" fill="none"/>
   <path id="path1176" d="m217.13 250.72c4.6508 2.5754 5.6974 4.6884 6.259 6.0073" stroke="#000" stroke-width="1.1275" fill="none"/>
   <rect id="rect1177" fill-rule="evenodd" transform="rotate(-13.197)" height="11.864" width="2.5653" y="300.37" x="73.552" stroke-width="1pt" fill="#296526"/>
   <path id="path1179" d="m160.95 314.67 5.2436 5.972 1.9585-1.6567-4.9227-6.1858-2.2794 1.8705z" fill-rule="evenodd" stroke-width="1pt" fill="#296526"/>
   <path id="path1180" d="m321.02 340.19-6.4966 4.5774 1.4384 2.1236 6.6752-4.2354-1.617-2.4656z" fill-rule="evenodd" stroke-width="1pt" fill="#296526"/>
   <path id="path1181" d="m355.29 311.61-5.7954 5.4382 1.72 1.9024 6.02-5.1241-1.9446-2.2165z" fill-rule="evenodd" stroke-width="1pt" fill="#296526"/>
   <path id="path1182" d="m373.67 273.25-2.108 5.2035 1.1522 1.492 2.268-4.951-1.3122-1.7445z" fill-rule="evenodd" stroke-width="1pt" fill="#296526"/>
   <path id="path1186" d="m202 243.66c-2.8147-4.6318-3.1711-9.4773-3.3133-14.216 1.4962 0.71266 2.672 1.1044 3.527 0.85493" stroke="#000" stroke-width="1.0555" fill="none"/>
   <path id="path1187" d="m192.2 183.57c-2.3178-5.7945 0.35802-8.9339 3.2483-11.685" stroke="#000" stroke-width="1.0555" fill="none"/>
   <path id="path1188" d="m209.1 154.93c0 1.6808-2.0038 3.0433-4.4755 3.0433-2.4718 0-4.4755-1.3626-4.4755-3.0433 0-1.6808 2.0038-3.0433 4.4755-3.0433 2.4718 0 4.4755 1.3626 4.4755 3.0433z" fill-rule="evenodd" transform="matrix(.34540 -.30875 .29017 .36751 78.794 177.89)"/>
   <path id="path1189" d="m180.97 214.38c-0.48468 0-8.8799-1.1302-8.8799-1.1302" stroke="#000" stroke-width="1.3721" fill="none"/>
   <path id="path1190" d="m177.42 220.52c0-0.32298-5.4893-7.1038-5.4893-7.1038" stroke="#000" stroke-width="1.3721" fill="none"/>
  </g>
 </g>
</svg>
