<?xml version="1.0" encoding="UTF-8" standalone="no"?>
<!-- Created with Sodipodi ("http://www.sodipodi.com/") -->
<svg id="svg912" xmlns:rdf="http://www.w3.org/1999/02/22-rdf-syntax-ns#" xmlns="http://www.w3.org/2000/svg" height="480" width="640" version="1.1" xmlns:cc="http://creativecommons.org/ns#" xmlns:dc="http://purl.org/dc/elements/1.1/">
 <metadata id="metadata4218">
  <rdf:RDF>
   <cc:Work rdf:about="">
    <dc:format>image/svg+xml</dc:format>
    <dc:type rdf:resource="http://purl.org/dc/dcmitype/StillImage"/>
   </cc:Work>
  </rdf:RDF>
 </metadata>
 <defs id="defs914">
  <clipPath id="clipPath4584" clipPathUnits="userSpaceOnUse">
   <rect id="rect4586" fill-opacity="0.67" height="512" width="682.67" y=".0000049640" x="0"/>
  </clipPath>
 </defs>
 <g id="flag" clip-path="url(#clipPath4584)" transform="matrix(.93750 0 0 .93750 0 -.0000046537)">
  <rect id="rect937" fill-rule="evenodd" height="160" width="768" y=".000052248" x="0" stroke-width="1pt" fill="#009a00"/>
  <rect id="rect935" fill-rule="evenodd" height="16.018" width="768" y="159.96" x="0" stroke-width="1pt" fill="#fff"/>
  <rect id="rect934" fill-rule="evenodd" height="160" width="768" y="175.98" x="0" stroke-width="1pt"/>
  <rect id="rect933" fill-rule="evenodd" height="16.018" width="768" y="335.98" x="0" stroke-width="1pt" fill="#fff"/>
  <rect id="rect931" fill-rule="evenodd" height="160" width="768" y="352" x="0" stroke-width="1pt" fill="#ffca00"/>
  <path id="path932" d="m0 0.0000044666v512l336.02-256-336.02-256z" fill-rule="evenodd" stroke-width="1pt" fill="#f00"/>
  <g id="g938" transform="matrix(.88217 0 0 .88217 34.811 142.78)">
   <polygon id="polygon916" fill="#ffca00" fill-rule="evenodd" transform="matrix(.96989 .020185 -.020185 .96989 6.077 3.6535)" d="m 189.54603,214.56867 -60.76034,-42.57244 -58.855159,45.07437 21.71282,-70.94213 -61.055514,-42.04584 74.179603,-1.2722 21.12078,-71.060124 24.13269,70.155864 74.10887,-1.87174 -59.26477,44.63092 z" stroke-width="1pt" points="189.55 214.57 128.79 172 69.93 217.07 91.643 146.13 30.588 104.08 104.77 102.81 125.89 31.75 150.02 101.91 224.13 100.03 164.86 144.66"/>
   <path id="path919" stroke-linejoin="round" d="m77.112 167.91h41.834c3.366 3.776 10.876 5.316 18.029-0.045 13.112-7.18 38.479 0.045 38.479 0.045l4.995-5.307-12.176-39.961-4.371-4.683s-9.365-5.619-27.161-3.746c-17.795 1.873-24.039-0.624-24.039-0.624s-15.609 1.873-19.98 4.058c-0.4805 0.389-4.9951 4.995-4.9951 4.995l-10.615 45.268z" fill-rule="evenodd" stroke="#000" stroke-linecap="round" stroke-width="1.25" fill="#fff"/>
   <path id="path918" stroke-linejoin="round" d="m85.542 157.61s39.96-4.995 51.512 10.302c-6.524 4.464-12.268 4.832-18.42 0.313 0.98-1.633 14.361-15.61 48.39-10.927" stroke="#000" stroke-linecap="round" stroke-width="1.25" fill="none"/>
   <path id="path920" d="m128.31 117.65-0.31 44.02" stroke="#000" stroke-width="1pt" fill="none"/>
   <path id="path921" d="m163.9 118.27 7.493 34.966" stroke="#000" stroke-width="1pt" fill="none"/>
   <path id="path922" stroke-linejoin="round" d="m93.134 117.72-4.1583 18.032" stroke="#000" stroke-linecap="round" stroke-width="1.25" fill="none"/>
   <path id="path917" stroke-linejoin="round" d="m49.942 172.71 9.8382 11.535c1.1553 0.689 2.1815 0.645 3.2077 0l14.58-17.496 6.1238-7.582c0.9482-1.123 1.2509-2.376 1.1664-3.499l11.707-10.403c0.9577 0.066 1.5281 0.174 2.4858 0.239-1.1315-0.293-1.9617-0.844-1.0708-2.084l2.6243-2.041 2.041 2.624s-2.9156 3.791-3.2072 3.791h-3.2077l-6.1238 5.541 2.677 2.366 4.03 11.048 4.9577-3.5-3.2081-11.372 6.9991-7.582-2.625-4.083 1.75-2.333s24.222 15.25 33.554 11.168c0.252 0.091 0.564-10.876 0.564-10.876s-25.078-2.624-25.662-7.582c-0.583-4.957 5.541-5.54 5.541-5.54l-2.625-3.791 0.584-2.042 4.374 5.541 9.915-8.457 58.321 66.487c3.184-1.291 3.864-2.07 4.083-5.249-0.082-0.08-57.155-65.612-57.155-65.612l4.374-4.665c0.862-0.972 1.165-1.385 1.166-2.917l6.707-5.8318c2.017 0.6929 3.303 1.9018 4.374 3.4988l18.439-15.627c0.486 0.486 1.962 0.972 2.964 0.4254l30.48-29.264-33.22 23.468-1.17-0.875c0-0.9721 1.205-1.2125 0-2.9161-1.291-1.5491-3.208 1.4581-3.499 1.4581-0.292 0-4.809-1.5964-5.799-3.6188l-0.325 5.3684-8.457 7.8735-6.415-0.2916-9.332 9.0398-1.166 3.4989 1.458 2.917s-4.958 4.374-4.958 4.082c0-0.291-1.002-1.289-1.045-1.418l4.253-3.831 0.583-2.6243-1.419-2.2158c-0.43 0.3125-5.871 6.0071-6.163 5.4231-0.49-0.54-15.75-17.786-15.75-17.786l0.874-3.2077-9.914-10.79c-3.6145-1.2479-9.3318-1.458-10.498 6.4154-0.9083 1.8493-8.4567 0.2916-8.4567 0.2916l-4.0825 0.8749-23.037 32.66 12.831 15.455 26.245-33.243 0.7791-9.4176 5.5068 6.1573c1.836 0.2359 3.585 0.2566 5.249-0.5832l15.549 17.356-2.589 2.526c0.875 0.972 1.477 1.593 2.352 2.565 0.875-0.583 1.71-1.283 2.585-1.867 0.292 0.39 0.778 1.129 1.07 1.518-1.303 0.709-2.217 1.653-3.52 2.362-2.085-1.359-4.098-3.051-3.945-5.744l-8.748 7.29-0.292 1.458-25.953 21.579-2.3329 0.292-0.5832 6.707 16.913-13.997v-2.042l1.7497 1.458 13.122-10.497s0.875 1.166 0.584 1.166c-0.292 0-11.665 10.498-11.665 10.498l-0.291 1.166-2.0416 1.75-1.1665-0.875-15.747 13.997h-2.3328l-8.7483 8.749c-2.2564 0.196-4.2116 0.435-6.1238 1.749l-15.67 13.835z" fill-rule="evenodd" stroke="#000" stroke-linecap="round" stroke-width="1.25"/>
  </g>
 </g>
</svg>
