<?xml version="1.0" encoding="UTF-8" standalone="no"?>
<!-- Created with Sodipodi ("http://www.sodipodi.com/") -->
<svg id="svg548" xmlns:rdf="http://www.w3.org/1999/02/22-rdf-syntax-ns#" xmlns="http://www.w3.org/2000/svg" height="480" width="640" version="1" y="0" x="0" xmlns:cc="http://creativecommons.org/ns#" xmlns:dc="http://purl.org/dc/elements/1.1/">
 <metadata id="metadata3142">
  <rdf:RDF>
   <cc:Work rdf:about="">
    <dc:format>image/svg+xml</dc:format>
    <dc:type rdf:resource="http://purl.org/dc/dcmitype/StillImage"/>
   </cc:Work>
  </rdf:RDF>
 </metadata>
 <defs id="defs550">
  <clipPath id="clipPath4786" clipPathUnits="userSpaceOnUse">
   <rect id="rect4788" fill-opacity="0.67" height="480" width="640" y="0" x="0"/>
  </clipPath>
 </defs>
 <g id="flag" clip-path="url(#clipPath4786)">
  <rect id="rect1062" fill-rule="evenodd" height="161.14" width="798.86" y="318.86" x="-79.429" stroke-width="1pt" fill="#5387f4"/>
  <rect id="rect1063" fill-rule="evenodd" height="161.14" width="798.86" y="-.0000011560" x="-79.429" stroke-width="1pt" fill="#5387f4"/>
  <rect id="rect1064" fill-rule="evenodd" height="157.71" width="798.86" y="161.14" x="-79.429" stroke-width="1pt" fill="#fff"/>
  <g id="g968" transform="matrix(.45385 0 0 .45413 121.08 -34.817)">
   <g id="g784" transform="translate(-23.549 -.000030518)">
    <path id="path580" d="m496.06 627.16 17.717-17.716 17.716 17.716h-35.433z" fill-rule="evenodd" transform="matrix(11.097 0 0 19.115 -5241.2 -11263)" stroke-width="1pt" fill="#ffd200"/>
    <path id="path562" d="m496.06 627.16 17.717-17.716 17.716 17.716h-35.433z" fill-rule="evenodd" transform="matrix(10 0 0 17.321 -4677.2 -10147)" stroke-width="1pt" fill="#0ff"/>
    <g id="g619" stroke="#ffd200" stroke-width=".55067pt" fill="none">
     <path id="path604" d="m462.73 556.66-1.18-108.32"/>
     <path id="path606" d="m468.62 563.73 38.855-54.162"/>
     <path id="path607" d="m474.51 569.61 62.4-25.9"/>
     <path id="path609" d="m479.22 577.86 73.001 2.355"/>
     <path id="path611" d="m474.51 587.28 42.388 37.677" transform="translate(0 -.000030518)"/>
     <path id="path612" d="m462.73 583.74v34.146"/>
     <path id="path613" d="m449.78 575.5-55.339 48.275"/>
     <path id="path614" d="m455.67 579.03-24.726 45.92"/>
     <path id="path615" d="m446.25 569.61-91.84 31.791"/>
     <path id="path616" d="m445.07 564.9-64.76-2.355"/>
     <path id="path617" d="m393.26 537.82 56.517 18.839"/>
     <path id="path618" d="m420.34 489.55 34.146 65.936"/>
    </g>
    <g id="g572" fill-rule="evenodd" transform="translate(0 318.54)">
     <path id="path565" d="m460.63 219.69c-35.433 0-61.25 6.505-83.044 14.145l5.54-9.579 5.53-9.595 5.54-9.596 5.54-9.578 5.53-9.595 5.54-9.579 6.13-9.769c8.26-7.257 25.98-10.652 43.69-10.652 17.72 0 35.44 3.586 44.3 10.826l5.54 9.595 5.53 9.579 5.54 9.595 5.54 9.578 5.53 9.596 5.54 9.595 5.53 9.579c-22.972-7.64-47.613-14.145-83.046-14.145z" transform="translate(.00055313 -.0036163)" stroke-width="1pt" fill="#c453d7"/>
     <path id="path566" d="m460.63 212.93c-35.548-0.05-75.281 10.597-77.504 11.329l5.53-9.595 5.54-9.596 5.54-9.578 5.53-9.595 5.54-9.579 6.13-9.769c8.26-7.257 25.98-10.652 43.69-10.652 17.72 0 35.44 3.586 44.3 10.826l5.54 9.595 5.53 9.579 5.54 9.595 5.54 9.578 5.53 9.596 5.54 9.595s-42.083-11.329-77.516-11.329z" transform="translate(.012903 .00088501)" stroke-width="1pt" fill="#5000c1"/>
     <path id="path567" d="m460.63 205.27c-26.248-0.109-68.686 7.141-71.68 8.504l5.246-8.713 5.54-9.578 5.53-9.595 5.54-9.579 6.13-9.769c8.26-7.257 25.98-10.652 43.69-10.652 17.72 0 35.44 3.586 44.3 10.826l5.54 9.595 5.53 9.579 5.54 9.595 5.54 9.578 5.53 9.596s-36.543-9.387-71.976-9.387z" transform="translate(-.00020024 -.0065155)" stroke-width="1pt" fill="#0053d7"/>
     <path id="path568" d="m460.63 197.32c-34.802-0.07-63.717 6.631-66.434 7.739l5.54-9.578 5.53-9.595 5.54-9.579 6.13-9.769c8.26-7.257 25.98-10.652 43.69-10.652 17.72 0 35.44 3.586 44.3 10.826l5.54 9.595 5.53 9.579 5.54 9.595 5.54 9.578s-31.013-7.739-66.446-7.739z" transform="translate(-.015031 -.0081177)" stroke-width="1.25" fill="#009f9f"/>
     <path id="path569" d="m460.63 190.56c-35.605-0.123-57.963 4.465-60.894 4.931l5.53-9.595 5.54-9.579 6.13-9.769c8.26-7.257 25.98-10.652 43.69-10.652 17.72 0 35.44 3.586 44.3 10.826l5.54 9.595 5.53 9.579 5.54 9.595s-25.473-4.931-60.906-4.931z" transform="translate(-.00020024 -.012848)" stroke-width="1pt" fill="#ff0"/>
     <path id="path570" d="m460.34 181.72c-31.014-0.671-53.786 4.25-55.07 4.167l5.54-9.579 6.13-9.769c8.26-7.257 25.98-10.652 43.69-10.652 17.72 0 35.44 3.586 44.3 10.826l5.54 9.595 5.53 9.579s-20.227-4.167-55.66-4.167z" transform="translate(-.014536 -.012848)" stroke-width="1pt" fill="#f50"/>
     <path id="path571" d="m461.51 171.42c-31.129 0.257-47.247 4.34-50.707 4.891l6.13-9.769c8.26-7.257 25.98-10.652 43.69-10.652 17.72 0 35.44 3.586 44.3 10.826l5.54 9.595s-13.52-4.891-48.953-4.891z" transform="translate(-.029404 .0029450)" stroke-width="1pt" fill="#ff0b00"/>
    </g>
    <path id="path581" d="m496.06 627.16 4.983-4.983h25.467l4.983 4.983h-35.433z" fill-rule="evenodd" transform="matrix(10 0 0 17.321 -4677.2 -10147)" stroke-width="1pt" fill="#4363ff"/>
    <g id="g592" fill-rule="evenodd" transform="matrix(.96712 0 0 1 -10.643 -6.6606)">
     <path id="path590" d="m334.69 674.38s28.307-4.996 46.624-19.982c18.316-14.986 18.317-39.964 26.642-39.964 8.326 0 9.991 28.308 29.973 38.299 19.981 9.991 51.62 23.312 51.62 23.312l-154.86-1.665z" transform="translate(149.03 .83256)" stroke="#000" stroke-width=".55067pt" fill="#6da700"/>
     <path id="path591" d="m447.92 662.72c-44.959-19.982-18.317-9.991-31.638-18.317-6.661-16.651-16.651-29.973-8.326-29.973 8.326 0 9.991 28.308 29.973 38.299 19.981 9.991 28.308 12.489 28.308 12.489l-18.317-2.498z" transform="translate(149.03 .83256)" stroke-width="1pt" fill="#ffbd00"/>
     <path id="path588" d="m334.69 674.38s28.307-4.996 46.624-19.982c18.316-14.986 18.317-39.964 26.642-39.964 8.326 0 9.991 28.308 29.973 38.299 19.981 9.991 51.62 23.312 51.62 23.312l-154.86-1.665z" transform="translate(111.56 .83256)" stroke="#000" stroke-width=".55067pt" fill="#6da700"/>
     <path id="path589" d="m447.92 662.72c-44.959-19.982-18.317-9.991-31.638-18.317-6.661-16.651-16.651-29.973-8.326-29.973 8.326 0 9.991 28.308 29.973 38.299 19.981 9.991 28.308 12.489 28.308 12.489l-18.317-2.498z" transform="translate(111.56 .83256)" stroke-width="1pt" fill="#ffbd00"/>
     <path id="path586" d="m334.69 674.38s28.307-4.996 46.624-19.982c18.316-14.986 18.317-39.964 26.642-39.964 8.326 0 9.991 28.308 29.973 38.299 19.981 9.991 51.62 23.312 51.62 23.312l-154.86-1.665z" transform="translate(74.099 .83249)" stroke="#000" stroke-width=".55067pt" fill="#6da700"/>
     <path id="path587" d="m447.92 662.72c-44.959-19.982-18.317-9.991-31.638-18.317-6.661-16.651-16.651-29.973-8.326-29.973 8.326 0 9.991 28.308 29.973 38.299 19.981 9.991 28.308 12.489 28.308 12.489l-18.317-2.498z" transform="translate(74.099 .83249)" stroke-width="1pt" fill="#ffbd00"/>
     <path id="path584" d="m334.69 674.38s28.307-4.996 46.624-19.982c18.316-14.986 18.317-39.964 26.642-39.964 8.326 0 9.991 28.308 29.973 38.299 19.981 9.991 51.62 23.312 51.62 23.312l-154.86-1.665z" transform="translate(31.638 -.000030518)" stroke="#000" stroke-width=".55067pt" fill="#6da700"/>
     <path id="path585" d="m447.92 662.72c-44.959-19.982-18.317-9.991-31.638-18.317-6.661-16.651-16.651-29.973-8.326-29.973 8.326 0 9.991 28.308 29.973 38.299 19.981 9.991 28.308 12.489 28.308 12.489l-18.317-2.498z" transform="translate(31.638 -.000030518)" stroke-width="1pt" fill="#ffbd00"/>
     <path id="path582" d="m334.69 674.38s28.307-4.996 46.624-19.982c18.316-14.986 18.317-39.964 26.642-39.964 8.326 0 9.991 28.308 29.973 38.299 19.981 9.991 51.62 23.312 51.62 23.312l-154.86-1.665z" stroke="#000" stroke-width=".55067pt" fill="#6da700"/>
     <path id="path583" d="m447.92 662.72c-44.959-19.982-18.317-9.991-31.638-18.317-6.661-16.651-16.651-29.973-8.326-29.973 8.326 0 9.991 28.308 29.973 38.299 19.981 9.991 28.308 12.489 28.308 12.489l-18.317-2.498z" stroke-width="1pt" fill="#ffbd00"/>
    </g>
    <path id="path603" d="m438.01 565.49c0.409 0 0.727-1.87 1.766-3.532 2.222-1.61 4.568-2.871 7.653-3.533 1.665-0.832 5.08-0.588 7.653-0.588 3.611 0.324 3.837 1.865 5.888 4.121 0.902 1.837 3.038 4.389 4.121 7.064 1.172 1.42 2.107 3.626 2.943 5.299 0.855 1.804 1.765 4.526 2.944 7.064 0.605 2.824 1.177 5.028 1.177 8.242 0 3.352-0.554 4.78-1.177 7.065-1.794 0.598-5.29 0.888-7.065 0-1.9-1.7-5.162-0.617-6.475-2.355-3.386-0.474-4.208-4.459-5.888-6.475-1.175-1.729-1.156-3.032-2.355-4.71-1.857-1.327-2.108-2.945-2.943-5.299 0.736-2.517 2.015-3.068 4.121-4.121 1.127-1.644 1.766-2.304 1.766-5.298-0.424-3.334-1.625-2.982-4.71-3.533-3.814 0-5.77 0.393-9.419 0.589z" fill-rule="evenodd" transform="matrix(.67241 0 0 .52247 155.85 268.72)" stroke="#000" stroke-width=".55067pt" fill="#f00"/>
    <g id="g651" stroke="#0ff" stroke-width=".55067pt" fill="none" transform="matrix(1.0073 0 0 1.4304 -11.671 -306.49)">
     <path id="path632" d="m314.38 690.89h1.177c-3.178 0-1.561-0.077 4.71 1.177 5.434 0.647 10.545 1.178 16.484 1.178"/>
     <path id="path633" d="m308.49 708.55v-1.177c0 3.69-0.307 1.422 5.887-3.532 5.262-0.916 7.744 0.94 14.129 1.177 3.388 1.694 9.526 1.142 12.952 0 1.753-0.751 1.78-1.604 3.532-2.355"/>
     <path id="path634" d="m321.44 710.91v-1.177c0.784 0.313 5.255 0 8.242 0 6.162 0 10.917-0.299 14.129 2.355h2.355"/>
     <path id="path635" d="m366.18 686.18h1.178 4.709c3.749-1.25 9.204-1.249 12.952 0 1.484 4.877 3.389 5.78 9.42 5.887 1.974-1.481 6.046-2.526 8.242-3.532"/>
     <path id="path636" d="m369.71 694.42h1.178 4.71 10.597"/>
     <path id="path637" d="m380.31 705.02v-1.177c0 3.69-0.306 1.422 5.888-3.533 4.69-2.304 7.16-3.599 14.129-2.355 5.013 2.679 6.789 4.236 12.952 4.71 5.601 0 8.065-0.901 12.951-1.177"/>
     <path id="path638" d="m395.62 710.91h1.177c-3.291 0-1.541 0.146 4.71-2.355 5.854 1.464 9.805 3.453 16.484 3.533 3.824-0.192 6.575-1.178 10.597-1.178"/>
     <path id="path639" d="m438.01 686.18h1.177 4.71c5.761 0 11.38-0.098 16.484 1.177h16.484c1.57 0 1.177 0.393 1.177-1.177"/>
     <path id="path640" d="m433.3 695.6h1.177c-3.291 0-1.541 0.146 4.71-2.354 4.946 0.38 10.524 1.085 14.129 3.532 5.172 2.267 7.214 4.216 14.13 4.71 3.945-0.208 4.215-1.751 8.242-2.355"/>
     <path id="path641" d="m450.96 707.37c1.847-0.923 8.039-3.283 12.952-1.178 5.104 1.276 10.723 1.178 16.484 1.178 3.665-1.571 9.865-2.905 12.952-4.71h3.532"/>
     <path id="path642" d="m500.41 692.07c2.368 0 12.454-0.558 17.661 1.178 6.371-0.768 8.617-3.877 12.952-7.065 4.347 0 8.014 0.103 11.774 1.177"/>
     <path id="path643" d="m522.78 706.2c0.095-0.012 4.706-0.924 8.242-1.177 5.307-3.98 6.228 0.084 11.774 1.177 6.151-1.391 9.251-4.42 11.775-8.242"/>
     <path id="path644" d="m535.73 697.95h1.177c-3.466 0-1.513 0.202 4.71-3.532 4.142-2.071 4.632-4.167 10.597-4.71 3.294-2.47 5.733-0.305 8.242 1.178"/>
     <path id="path645" d="m560.46 707.37c0.197-0.935 2.335-6.019 3.532-8.242 5.249-2.1 7.759-3.058 11.775 2.355 4.27 1.164 8.279 3.491 12.951 4.709 1.733 0 0.9 0.278 2.355-1.177"/>
     <path id="path646" d="m576.94 690.89v-1.178c0 3.691-0.245 1.485 4.71-4.709 5.457 0.999 6.892 4.302 9.419 8.242 5.85 0 9.697-0.142 12.952-2.355"/>
     <path id="path647" d="m605.2 703.84c0.715-1.044 5.415-8.715 9.42-4.71 5.226 1.425 6.044 3.803 11.774 5.887 1.002-1.753 2.103-2.094 4.71-2.355"/>
     <path id="path648" d="m501.59 708.55h1.178c-3.291 0-1.542 0.146 4.709-2.355 4.895-2.826 7.322-3.976 10.597-8.242 5.468 0.196 9.662 1.178 15.307 1.178 0-1.57-0.393-1.178 1.177-1.178"/>
     <path id="path649" d="m350.88 694.42c0-0.815 3.214-2.088 7.064-3.532 2.806-2.105 5.133-0.126 9.42 0"/>
     <path id="path650" d="m356.76 705.02h1.177c-3.291 0-1.541 0.146 4.71-2.355 4.516 0.632 6.547 2.879 11.774 3.532"/>
    </g>
   </g>
   <path id="path862" d="m749.42 355.13c0 11.712 4.736 17.088 16.384 17.088 2.688 0 6.144-0.704 8.192-1.664 7.232-3.456 7.872-9.088 7.872-16.32v-20.16c0-1.856 0.96-3.904 6.016-3.904v-1.216h-14.848v1.216c5.056 0 6.016 2.048 6.016 3.904v20.16c0 6.08-0.064 15.104-12.032 15.104-8 0-11.072-3.776-11.072-13.76v-21.504c0-1.856 0.96-3.904 5.632-3.904v-1.216h-17.792v1.216c4.672 0 5.632 2.048 5.632 3.904v21.056z" transform="matrix(-.015647 .99988 -.99988 -.015647 1071.5 -162.39)" stroke="#000" stroke-width=".55067pt" fill="#ffd200"/>
   <path id="path863" d="m735.98 328.05h-1.344c-1.6 4.736-6.592 0-14.4 0-12.736 0-21.952 9.472-21.952 22.208 0 15.04 11.84 21.952 22.72 21.952 5.248 0 12.416-2.432 16.128-4.544v-12.16c0-3.648 0.32-5.696 4.48-5.76v-1.216h-16.32v1.216c5.312 0 5.632 2.112 5.632 5.76v9.536c0 1.856 0 2.24-1.856 3.136-2.176 1.024-4.864 1.408-7.232 1.408-10.752 0-16.192-8.96-16.192-18.816 0-11.2 4.608-20.16 15.232-20.16 7.552 0 11.776 4.224 14.208 11.008h1.472l-0.576-13.568z" transform="matrix(.15771 .98748 -.98748 .15771 935.34 -214.65)" stroke="#000" stroke-width=".55067pt" fill="#ffd200"/>
   <path id="path870" d="m558.19 328.12h-1.344c-2.112 5.184-5.312-0.064-14.08-0.064-12.864 0-21.888 9.408-21.888 22.144 0 14.016 9.536 22.016 22.016 22.016 6.144 0 12.736-3.2 16.64-8l-1.088-1.28c-4.416 4.352-8.704 6.4-14.976 6.4-10.496 0-15.168-9.664-15.168-18.624 0-11.52 4.544-20.032 15.104-20.032 7.296 0 11.968 4.8 13.824 11.84h1.536l-0.576-14.4z" transform="matrix(.76764 .64088 -.64088 .76764 411.98 -224.79)" stroke="#000" stroke-width=".55067pt" fill="#ffd200"/>
   <path id="path871" d="m511.41 334.07c0-1.856 0.96-3.904 6.272-3.904v-1.216h-19.072v1.216c5.312 0 6.272 2.048 6.272 3.904v32.128c0 1.856-0.96 3.904-6.272 3.904v1.216h19.072v-1.216c-5.312 0-6.272-2.048-6.272-3.904v-32.128z" transform="matrix(.87269 .53240 -.48758 .84843 302.18 -196.24)" stroke="#000" stroke-width=".55067pt" fill="#ffd200"/>
   <path id="path872" d="m490.42 334.07c0-1.856 0.96-3.904 6.208-3.904v-1.216h-15.232v1.216c5.248 0 6.208 2.048 6.208 3.904v25.664l-24.64-30.784h-10.944v1.216c3.136 0.064 3.712 0.64 5.696 2.88l0.512 0.64v32.512c0 1.856-0.96 3.904-6.208 3.904v1.216h15.232v-1.216c-5.248 0-6.208-2.048-6.208-3.904v-29.248l28.416 35.264h0.96v-38.144z" transform="matrix(.92166 .38801 -.38801 .92166 242.32 -151.83)" stroke="#000" stroke-width=".55067pt" fill="#ffd200"/>
   <path id="path873" d="m431.47 371.32 2.88-10.816h-1.792c-3.392 8.128-8.256 8.192-13.376 8.192h-8.448c-1.28 0-1.664-1.344-1.664-2.496v-15.744h9.024c4.288 0 7.936 1.216 7.936 6.208h1.344v-14.976h-1.344c0 4.992-3.648 6.144-7.936 6.144h-9.024v-13.76c0-1.6 1.216-2.496 2.816-2.496h10.304c4.48 0 6.592 3.072 7.296 6.528h1.408v-9.152h-33.984v1.216c4.672 0 5.632 2.048 5.632 3.904v32.128c0 1.856-0.96 3.904-5.632 3.904v1.216h34.56z" transform="matrix(.99769 .067952 -.067952 .99769 69.593 -42.496)" stroke="#000" stroke-width=".55067pt" fill="#ffd200"/>
   <path id="path878" d="m284.46 328.12h-1.344c-2.112 5.184-5.312-0.064-14.08-0.064-12.864 0-21.888 9.408-21.888 22.144 0 14.016 9.536 22.016 22.016 22.016 6.144 0 12.736-3.2 16.64-8l-1.088-1.28c-4.416 4.352-8.704 6.4-14.976 6.4-10.496 0-15.168-9.664-15.168-18.624 0-11.52 4.544-20.032 15.104-20.032 7.296 0 11.968 4.8 13.824 11.84h1.536l-0.576-14.4z" transform="matrix(.85522 -.51827 .51827 .85522 -113.64 211.06)" stroke="#000" stroke-width=".55067pt" fill="#ffd200"/>
   <path id="path879" d="m237.68 334.07c0-1.856 0.96-3.904 6.272-3.904v-1.216h-19.072v1.216c5.312 0 6.272 2.048 6.272 3.904v32.128c0 1.856-0.96 3.904-6.272 3.904v1.216h19.072v-1.216c-5.312 0-6.272-2.048-6.272-3.904v-32.128z" transform="matrix(.77259 -.63491 .63491 .77259 -134.85 270.84)" stroke="#000" stroke-width=".55067pt" fill="#ffd200"/>
   <path id="path880" d="m219.82 371.32 3.072-11.136h-1.6c-3.52 8.768-9.216 8.512-17.344 8.512-3.968 0-6.4-0.704-6.4-2.496v-32.128c0-1.856 0.96-3.904 5.632-3.904v-1.216h-17.792v1.216c4.672 0 5.632 2.048 5.632 3.904v32.128c0 1.856-0.96 3.904-5.632 3.904v1.216h34.432z" transform="matrix(.68725 -.72642 .72642 .68725 -149.29 322.56)" stroke="#000" stroke-width=".55067pt" fill="#ffd200"/>
   <path id="path884" d="m102.38 355.13c0 11.712 4.736 17.088 16.384 17.088 2.688 0 6.144-0.704 8.192-1.664 7.232-3.456 7.872-9.088 7.872-16.32v-20.16c0-1.856 0.96-3.904 6.016-3.904v-1.216h-14.848v1.216c5.056 0 6.016 2.048 6.016 3.904v20.16c0 6.08-0.064 15.104-12.032 15.104-8 0-11.072-3.776-11.072-13.76v-21.504c0-1.856 0.96-3.904 5.632-3.904v-1.216h-17.792v1.216c4.672 0 5.632 2.048 5.632 3.904v21.056z" transform="matrix(.47347 -.88081 .88081 .47347 -169.71 425.81)" stroke="#000" stroke-width=".55067pt" fill="#ffd200"/>
   <path id="path887" d="m56.369 371.32 2.88-10.816h-1.792c-3.392 8.128-8.256 8.192-13.376 8.192h-8.448c-1.28 0-1.664-1.344-1.664-2.496v-15.744h9.024c4.288 0 7.936 1.216 7.936 6.208h1.344v-14.976h-1.344c0 4.992-3.648 6.144-7.936 6.144h-9.024v-13.76c0-1.6 1.216-2.496 2.816-2.496h10.304c4.48 0 6.592 3.072 7.296 6.528h1.408v-9.152h-33.984v1.216c4.672 0 5.632 2.048 5.632 3.904v32.128c0 1.856-0.96 3.904-5.632 3.904v1.216h34.56z" transform="matrix(.19479 -.98084 .98084 .19479 -181.27 537.16)" stroke="#000" stroke-width=".55067pt" fill="#ffd200"/>
   <path id="path892" d="m-15.439 366.2c0 1.856-0.96 3.904-5.44 3.904v1.216h17.6v-1.216c-4.672 0-5.632-2.048-5.632-3.904v-14.464l3.584-0.128 15.232 19.712h10.304v-1.216c-2.88-0.192-4.352-1.472-6.08-3.584l-12.672-15.62c6.016-0.832 11.584-3.968 11.584-10.752 0-7.488-6.4-11.2-17.024-11.2h-16.896v1.216c4.48 0 5.44 2.048 5.44 3.904v32.128zm6.528-31.808c0-3.008 0.576-3.008 4.736-3.008 5.76 0 10.24 2.496 10.24 8.832 0 6.912-5.696 8.832-14.976 9.152v-14.976z" transform="matrix(.010619 -.99994 .99994 .010619 -182.07 608.65)" stroke="#000" stroke-width=".55067pt" fill="#ffd200"/>
   <path id="path895" d="m66.481 366.2c0 1.856-0.96 3.904-5.632 3.904v1.216h17.792v-1.216c-4.672 0-5.632-2.048-5.632-3.904v-13.696c1.856 0.192 3.712 0.32 5.568 0.32 8.192 0 16.256-3.264 16.256-12.736 0-7.552-7.68-11.136-17.536-11.136h-16.128v1.216c4.352 0 5.312 2.048 5.312 3.904v32.128zm6.528-31.936c0-2.624 0.128-2.944 2.816-2.944 6.144 0 12.032 2.048 12.032 9.28 0 7.424-4.8 9.728-11.712 9.728-1.024 0-2.112-0.128-3.136-0.192v-15.872z" transform="matrix(.24519 -.96948 .96948 .24519 -179.51 515.06)" stroke="#000" stroke-width=".55067pt" fill="#ffd200"/>
   <path id="path899" d="m149.36 366.2c0 1.856-0.96 3.904-6.144 3.904v1.216h20.16c10.048 0 16.704-3.968 16.704-11.648 0-6.144-5.184-9.536-10.688-10.624 4.928-1.152 8.512-3.904 8.512-9.28 0-8.192-7.68-10.816-17.536-10.816h-17.152v1.216c5.184 0 6.144 2.048 6.144 3.904v32.128zm6.528-15.744h3.2c6.016 0 13.632 1.408 13.632 9.024 0 7.488-4.928 9.472-11.584 9.472-4.672 0-5.248-1.152-5.248-3.392v-15.104zm0-2.56v-14.528c0-2.24 2.048-2.112 7.936-1.728 4.48 0.832 7.552 3.456 7.552 8.32 0 5.184-3.776 7.936-10.24 7.936h-5.248z" transform="matrix(.57567 -.81768 .81768 .57567 -162.29 378.54)" stroke="#000" stroke-width=".55067pt" fill="#ffd200"/>
   <path id="path902" d="m368.24 371.32c17.152 0 25.792-8.064 25.792-21.056 0-14.4-9.92-21.312-26.304-21.312h-16.512v1.216c4.672 0 5.632 2.048 5.632 3.904v32.128c0 1.856-0.96 3.904-5.632 3.904v1.216h17.024zm-4.864-36.736c0-3.072 0.576-3.264 3.648-3.264 11.84 0 20.032 6.464 20.032 19.008 0 11.904-7.552 18.944-20.608 18.368-1.408-0.064-3.072-0.768-3.072-3.136v-30.976z" transform="matrix(.99696 -.077916 .077916 .99696 22.208 13.662)" stroke="#000" stroke-width=".55067pt" fill="#ffd200"/>
   <path id="path905" d="m613.87 366.2c0 1.856-0.96 3.904-5.44 3.904v1.216h17.6v-1.216c-4.672 0-5.632-2.048-5.632-3.904v-14.464l3.584-0.128 15.232 19.712h10.304v-1.216c-2.88-0.192-4.352-1.472-6.08-3.584l-12.672-15.616c6.016-0.832 11.584-3.968 11.584-10.752 0-7.488-6.4-11.2-17.024-11.2h-16.896v1.216c4.48 0 5.44 2.048 5.44 3.904v32.128zm6.528-31.808c0-3.008 0.576-3.008 4.736-3.008 5.76 0 10.24 2.496 10.24 8.832 0 6.912-5.696 8.832-14.976 9.152v-14.976z" transform="matrix(.50910 .86071 -.86071 .50910 646.29 -258.77)" stroke="#000" stroke-width=".55067pt" fill="#ffd200"/>
   <path id="path908" d="m584.94 328.05h-1.28l-12.992 30.848c-2.624 6.208-4.288 10.88-8.256 11.2v1.216h12.672v-1.216c-2.176 0-4.352-0.576-4.352-2.688 0-2.368 2.624-7.488 3.456-9.92h16.768l2.304 5.44c2.432 5.696 2.496 6.912-2.944 7.168v1.216h16.32v-1.216c-3.584 0.192-4.928-3.648-6.08-6.272l-15.616-35.776zm-2.304 9.216 7.424 17.6h-14.784l7.36-17.6z" transform="matrix(.67256 .74004 -.74004 .67256 502.4 -247.73)" stroke="#000" stroke-width=".55067pt" fill="#ffd200"/>
   <path id="path911" d="m673.84 328.05h-1.28l-12.992 30.848c-2.624 6.208-4.288 10.88-8.256 11.2v1.216h12.672v-1.216c-2.176 0-4.352-0.576-4.352-2.688 0-2.368 2.624-7.488 3.456-9.92h16.768l2.304 5.44c2.432 5.696 2.496 6.912-2.944 7.168v1.216h16.32v-1.216c-3.584 0.192-4.928-3.648-6.08-6.272l-15.616-35.776zm-2.304 9.216 7.424 17.6h-14.784l7.36-17.6z" transform="matrix(.40179 .91573 -.91573 .40179 739.21 -252.03)" stroke="#000" stroke-width=".55067pt" fill="#ffd200"/>
   <path id="path914" d="m812.46 328.05h-1.28l-12.992 30.848c-2.624 6.208-4.288 10.88-8.256 11.2v1.216h12.672v-1.216c-2.176 0-4.352-0.576-4.352-2.688 0-2.368 2.624-7.488 3.456-9.92h16.768l2.304 5.44c2.432 5.696 2.496 6.912-2.944 7.168v1.216h16.32v-1.216c-3.584 0.192-4.928-3.648-6.08-6.272l-15.616-35.776zm-2.304 9.216 7.424 17.6h-14.784l7.36-17.6z" transform="matrix(-.11764 .99306 -.99306 -.11764 1148.5 -122.34)" stroke="#000" stroke-width=".55067pt" fill="#ffd200"/>
   <path id="path918" d="m311.22 328.05h-1.28l-12.992 30.848c-2.624 6.208-4.288 10.88-8.256 11.2v1.216h12.672v-1.216c-2.176 0-4.352-0.576-4.352-2.688 0-2.368 2.624-7.488 3.456-9.92h16.768l2.304 5.44c2.432 5.696 2.496 6.912-2.944 7.168v1.216h16.32v-1.216c-3.584 0.192-4.928-3.648-6.08-6.272l-15.616-35.776zm-2.304 9.216 7.424 17.6h-14.784l7.36-17.6z" transform="matrix(.92940 -.36908 .36908 .92940 -77.682 140.58)" stroke="#000" stroke-width=".55067pt" fill="#ffd200"/>
   <path id="path932" d="m728.93 940.02 4.372-10.693-1.589-0.19c-4.535 8.288-10.161 7.359-18.231 6.395-3.94-0.471-6.272-1.458-6.059-3.238l3.81-31.901c0.22-1.843 1.416-3.762 6.056-3.208l0.144-1.208-17.667-2.11-0.144 1.207c4.639 0.555 5.349 2.702 5.129 4.545l-3.81 31.901c-0.22 1.843-1.416 3.763-6.055 3.209l-0.145 1.207 34.189 4.084z" transform="matrix(.41659 -.90910 .90910 .41659 -458.69 1006.7)" stroke="#000" stroke-width=".55067pt" fill="#ffd200"/>
   <path id="path937" d="m594.21 883.96 4.575 0.546c4.448 0.531 7.649 0.72 8.052 9.212l1.525 0.182 0.91-10.849-35.842-4.281-1.671 10.758 1.525 0.182c0.68-1.917 1.256-4.039 2.788-5.532 2.161-2.449 7.08-1.539 11.656-0.993l-4.099 34.316c-0.22 1.843-1.416 3.763-6.055 3.209l-0.145 1.207 17.667 2.11 0.144-1.207c-4.639-0.554-5.349-2.702-5.129-4.544l4.099-34.316z" transform="matrix(.73379 -.67937 .67937 .73379 -457.69 566.21)" stroke="#000" stroke-width=".55067pt" fill="#ffd200"/>
   <path id="path938" d="m564.31 882.84c0.22-1.843 1.416-3.762 6.627-3.14l0.144-1.207-15.124-1.807-0.145 1.208c5.211 0.622 5.922 2.769 5.701 4.612l-3.043 25.483-20.815-33.489-10.867-1.298-0.144 1.208c3.106 0.435 3.61 1.075 5.314 3.535l0.432 0.696-3.856 32.283c-0.22 1.842-1.416 3.762-6.627 3.14l-0.144 1.207 15.125 1.807 0.144-1.208c-5.211-0.622-5.922-2.77-5.701-4.612l3.468-29.042 24.034 38.385 0.953 0.114 4.524-37.875z" transform="matrix(.86944 -.49404 .49404 .86944 -371.79 341.97)" stroke="#000" stroke-width=".55067pt" fill="#ffd200"/>
   <path id="path939" d="m517.25 914.73 4.143-10.398-1.78-0.212c-4.332 7.668-9.169 7.155-14.253 6.547l-8.388-1.002c-1.271-0.151-1.493-1.531-1.357-2.675l1.868-15.633 8.96 1.07c4.258 0.509 7.736 2.149 7.144 7.105l1.334 0.16 1.776-14.87-1.334-0.16c-0.592 4.957-4.351 5.668-8.609 5.16l-8.96-1.071 1.632-13.662c0.19-1.589 1.503-2.335 3.092-2.145l10.231 1.222c4.449 0.531 6.181 3.832 6.471 7.347l1.398 0.167 1.085-9.087-33.744-4.031-0.144 1.208c4.639 0.554 5.349 2.701 5.129 4.544l-3.81 31.902c-0.221 1.842-1.417 3.762-6.056 3.208l-0.144 1.207 34.316 4.099z" transform="matrix(.93823 -.34602 .34602 .93823 -276.66 203.91)" stroke="#000" stroke-width=".55067pt" fill="#ffd200"/>
   <path id="path940" d="m484.06 867.26-1.335-0.159c-2.711 4.897-5.266-0.694-13.973-1.734-12.773-1.525-22.849 6.746-24.359 19.392-1.663 13.917 6.857 22.992 19.249 24.472 6.101 0.729 13.026-1.667 17.472-5.97l-0.929-1.4c-4.901 3.797-9.402 5.322-15.629 4.578-10.422-1.244-13.915-11.394-12.852-20.291 1.366-11.439 6.887-19.352 17.373-18.099 7.244 0.865 11.314 6.185 12.322 13.396l1.525 0.182 1.136-14.367z" transform="matrix(.98636 -.16458 .16458 .98636 -142.32 76.797)" stroke="#000" stroke-width=".55067pt" fill="#ffd200"/>
   <path id="path943" d="m379.9 854.82-1.334-0.16c-2.712 4.897-5.267-0.693-13.973-1.733-12.773-1.526-22.849 6.745-24.36 19.392-1.662 13.917 6.858 22.991 19.25 24.471 6.1 0.729 13.025-1.667 17.471-5.97l-0.929-1.4c-4.901 3.798-9.401 5.323-15.629 4.579-10.422-1.245-13.915-11.395-12.852-20.292 1.366-11.438 6.888-19.351 17.373-18.099 7.245 0.865 11.314 6.186 12.322 13.396l1.525 0.182 1.136-14.366z" transform="matrix(.98504 .17233 -.17233 .98504 161.14 -58.103)" stroke="#000" stroke-width=".55067pt" fill="#ffd200"/>
   <path id="path944" d="m332.74 855.18c0.22-1.843 1.416-3.763 6.69-3.133l0.145-1.207-18.938-2.262-0.144 1.208c5.275 0.63 5.985 2.777 5.765 4.62l-3.811 31.901c-0.22 1.843-1.416 3.763-6.69 3.133l-0.145 1.207 18.938 2.262 0.144-1.207c-5.274-0.63-5.985-2.778-5.765-4.621l3.811-31.901z" transform="matrix(.96020 .27931 -.27931 .96020 264.57 -72.664)" stroke="#000" stroke-width=".55067pt" fill="#ffd200"/>
   <path id="path947" d="m268.33 885 4.143-10.398-1.779-0.213c-4.332 7.669-9.17 7.155-14.254 6.548l-8.388-1.002c-1.271-0.152-1.493-1.532-1.356-2.676l1.867-15.632 8.96 1.07c4.258 0.508 7.736 2.148 7.144 7.105l1.335 0.16 1.776-14.871-1.335-0.159c-0.592 4.957-4.351 5.668-8.608 5.159l-8.961-1.07 1.632-13.663c0.19-1.589 1.504-2.334 3.092-2.144l10.232 1.222c4.448 0.531 6.181 3.832 6.47 7.347l1.398 0.167 1.085-9.087-33.744-4.031-0.144 1.208c4.639 0.554 5.349 2.701 5.129 4.544l-3.81 31.901c-0.22 1.843-1.416 3.763-6.055 3.209l-0.145 1.207 34.316 4.099z" transform="matrix(.84216 .53922 -.53922 .84216 521.41 -47.221)" stroke="#000" stroke-width=".55067pt" fill="#ffd200"/>
   <path id="path948" d="m230.87 843.01c0.22-1.843 1.416-3.763 6.055-3.209l0.144-1.207-12.646-1.511-17.877 30.415-10.847-33.845-12.582-1.503-0.144 1.207c5.083 0.607 5.794 2.755 5.574 4.598l-3.811 31.901c-0.22 1.843-1.416 3.762-6.627 3.14l-0.144 1.207 15.124 1.807 0.145-1.207c-5.211-0.623-5.922-2.77-5.702-4.613l3.537-29.614 11.807 36.603 0.889 0.106 20.588-34.216-3.712 31.075c-0.22 1.843-1.416 3.763-6.055 3.209l-0.144 1.207 17.666 2.11 0.144-1.207c-4.639-0.554-5.349-2.702-5.129-4.544l3.747-31.909z" transform="matrix(.75139 .65985 -.65985 .75139 643.34 -.61954)" stroke="#000" stroke-width=".55067pt" fill="#ffd200"/>
   <path id="path953" d="m278.85 881.1c-0.22 1.843-1.416 3.763-5.864 3.231l-0.145 1.208 17.476 2.087 0.144-1.207c-4.639-0.554-5.349-2.702-5.129-4.545l1.716-14.362 3.573 0.298 12.787 21.38 10.231 1.222 0.145-1.208c-2.837-0.532-4.147-1.977-5.612-4.279l-10.731-17.009c6.072-0.113 11.973-2.566 12.778-9.302 0.888-7.435-5.027-11.88-15.576-13.14l-16.777-2.004-0.144 1.207c4.448 0.532 5.159 2.679 4.939 4.522l-3.811 31.901zm10.255-30.809c0.356-2.987 0.928-2.919 5.059-2.425 5.719 0.683 9.872 3.693 9.12 9.984-0.82 6.863-6.703 8.094-15.956 7.311l1.777-14.87z" transform="matrix(.93272 .36060 -.36060 .93272 344.85 -74.044)" stroke="#000" stroke-width=".55067pt" fill="#ffd200"/>
   <path id="path956" d="m406.47 857.93-1.271-0.152-16.559 29.089c-3.341 5.853-5.548 10.295-9.526 10.142l-0.144 1.208 12.583 1.503 0.144-1.208c-2.161-0.258-4.253-1.088-4.003-3.185 0.281-2.351 3.494-7.124 4.608-9.44l16.65 1.989 1.643 5.674c1.739 5.945 1.658 7.16-3.774 6.769l-0.144 1.207 16.205 1.936 0.144-1.208c-3.581-0.234-4.46-4.207-5.293-6.949l-11.26-37.36zm-3.381 8.878 5.285 18.356-14.68-1.754 9.395-16.602z" transform="translate(0 -5.828)" stroke="#000" stroke-width=".55067pt" fill="#ffd200"/>
   <path id="path959" d="m159.33 828.41-1.271-0.152-16.559 29.09c-3.342 5.853-5.548 10.294-9.526 10.141l-0.144 1.208 12.582 1.503 0.145-1.208c-2.161-0.258-4.253-1.088-4.003-3.185 0.281-2.351 3.494-7.124 4.608-9.44l16.65 1.989 1.642 5.675c1.74 5.944 1.659 7.159-3.773 6.768l-0.144 1.207 16.205 1.936 0.144-1.208c-3.582-0.234-4.461-4.206-5.293-6.948l-11.26-37.36zm-3.381 8.878 5.284 18.356-14.679-1.753 9.395-16.603z" transform="matrix(.56328 .82627 -.82627 .56328 819.55 133)" stroke="#000" stroke-width=".55067pt" fill="#ffd200"/>
   <path id="path962" d="m612.48 920.95c-0.22 1.843-1.416 3.763-5.865 3.232l-0.144 1.207 17.476 2.087 0.144-1.207c-4.639-0.554-5.349-2.702-5.129-4.544l1.715-14.362 3.574 0.298 12.787 21.379 10.231 1.222 0.144-1.207c-2.837-0.533-4.147-1.978-5.612-4.28l-10.73-17.009c6.072-0.112 11.972-2.566 12.777-9.302 0.888-7.435-5.027-11.88-15.576-13.14l-16.776-2.004-0.144 1.208c4.448 0.531 5.158 2.678 4.938 4.521l-3.81 31.901zm10.254-30.809c0.357-2.987 0.929-2.918 5.059-2.425 5.72 0.683 9.872 3.693 9.121 9.984-0.82 6.863-6.704 8.094-15.956 7.311l1.776-14.87z" transform="matrix(.6625 -.74906 .74906 .6625 -474.31 673.26)" stroke="#000" stroke-width=".55067pt" fill="#ffd200"/>
   <path id="path965" d="m676.55 890.19-1.271-0.152-16.558 29.089c-3.342 5.853-5.549 10.295-9.527 10.142l-0.144 1.208 12.583 1.502 0.144-1.207c-2.161-0.258-4.253-1.088-4.002-3.185 0.28-2.351 3.493-7.124 4.608-9.44l16.649 1.988 1.643 5.675c1.739 5.945 1.659 7.16-3.773 6.769l-0.145 1.207 16.205 1.936 0.144-1.208c-3.581-0.234-4.46-4.207-5.293-6.949l-11.26-37.36zm-3.38 8.877 5.284 18.357-14.68-1.754 9.396-16.603z" transform="matrix(.48593 -0.874 0.874 .48593 -475.12 919.05)" stroke="#000" stroke-width=".55067pt" fill="#ffd200"/>
   <ellipse id="path966" d="m 186.49635,676.03918 c 0,5.05801 -4.2867,9.15833 -9.5746,9.15833 -5.2879,0 -9.57459,-4.10032 -9.57459,-9.15833 0,-5.058 4.28669,-9.15832 9.57459,-9.15832 5.2879,0 9.5746,4.10032 9.5746,9.15832 z" fill-rule="evenodd" rx="9.5746" ry="9.1583" stroke="#000" transform="translate(2.4977 8.3258)" cy="676.04" cx="176.92" stroke-width=".55067pt" fill="#ffd200"/>
   <ellipse id="path967" d="m 186.49635,676.03918 c 0,5.05801 -4.2867,9.15833 -9.5746,9.15833 -5.2879,0 -9.57459,-4.10032 -9.57459,-9.15833 0,-5.058 4.28669,-9.15832 9.57459,-9.15832 5.2879,0 9.5746,4.10032 9.5746,9.15832 z" fill-rule="evenodd" rx="9.5746" ry="9.1583" stroke="#000" transform="translate(514.53 19.982)" cy="676.04" cx="176.92" stroke-width=".55067pt" fill="#ffd200"/>
  </g>
 </g>
</svg>
