<?xml version="1.0" encoding="UTF-8" standalone="no"?>
<!-- Created with Sodipodi ("http://www.sodipodi.com/") -->
<!-- /Creative Commons Public Domain -->
<!--
<rdf:RDF xmlns="http://web.resource.org/cc/"
    xmlns:dc="http://purl.org/dc/elements/1.1/"
    xmlns:rdf="http://www.w3.org/1999/02/22-rdf-syntax-ns#">
<Work rdf:about="">
   <dc:title>Nepal SVG Flag</dc:title>
   <dc:rights><Agent>
      <dc:title>Tobias Jakobs</dc:title>
   </Agent></dc:rights>
   <license rdf:resource="http://web.resource.org/cc/PublicDomain" />
</Work>

<License rdf:about="http://web.resource.org/cc/PublicDomain">
   <permits rdf:resource="http://web.resource.org/cc/Reproduction" />
   <permits rdf:resource="http://web.resource.org/cc/Distribution" />
   <permits rdf:resource="http://web.resource.org/cc/DerivativeWorks" />
</License>
</rdf:RDF>
-->
<svg id="svg548" xmlns:rdf="http://www.w3.org/1999/02/22-rdf-syntax-ns#" xmlns="http://www.w3.org/2000/svg" height="480" width="640" version="1.1" xmlns:cc="http://creativecommons.org/ns#" xmlns:dc="http://purl.org/dc/elements/1.1/">
 <metadata id="metadata3171">
  <rdf:RDF>
   <cc:Work rdf:about="">
    <dc:format>image/svg+xml</dc:format>
    <dc:type rdf:resource="http://purl.org/dc/dcmitype/StillImage"/>
   </cc:Work>
  </rdf:RDF>
 </metadata>
 <defs id="defs550">
  <clipPath id="clipPath8578" clipPathUnits="userSpaceOnUse">
   <rect id="rect8580" fill-opacity="0.67" height="512" width="512" y="-15.957" x="0"/>
  </clipPath>
 </defs>
 <g id="flag">
  <rect id="rect8734" height="480" width="640" y="0" x="0" fill="#fff"/>
  <g id="g8553" clip-path="url(#clipPath8578)" transform="matrix(.9375 0 0 .9375 0 14.96)">
   <g id="g8531" fill-rule="evenodd" transform="matrix(1.0432 0 0 1.0432 -.0024051 -21.45)">
    <path id="path552" d="m6.2712 489.83 363.1-0.01-237.66-241.01 246.61 0.29-372.03-237.62-0.0188 478.35z" stroke="#000063" stroke-width="13.26" fill="#ce0000"/>
    <polygon id="polygon555" fill="#fff" d="m 296.97868,523.24292 -21.02922,7.1358 16.4532,15.86944 -22.15922,-1.45491 9.1278,20.95781 -19.91568,-9.82413 0.41278,22.85555 -14.64016,-16.69771 -8.36508,21.27374 -7.1358,-21.02923 -15.86944,16.4532 1.45491,-22.15922 -20.95781,9.1278 9.82413,-19.91568 -22.85555,0.41278 16.69771,-14.64016 -21.27374,-8.36508 21.02922,-7.1358 -16.45319,-15.86944 22.15922,1.45491 -9.1278,-20.95781 19.91568,9.82413 -0.41278,-22.85555 14.64016,16.69771 8.36508,-21.27374 7.1358,21.02923 15.86944,-16.4532 -1.45492,22.15922 20.95782,-9.1278 -9.82413,19.91568 22.85555,-0.41278 -16.69772,14.64016 z" transform="matrix(1.2301 0 0 1.1997 -192.06 -266.1)" stroke-width="1pt" points="296.98 523.24 275.95 530.38 292.4 546.25 270.24 544.79 279.37 565.75 259.46 555.93 259.87 578.78 245.23 562.08 236.86 583.36 229.73 562.33 213.86 578.78 215.31 556.62 194.36 565.75 204.18 545.84 181.32 546.25 198.02 531.61 176.75 523.24 197.78 516.11 181.32 500.24 203.48 501.69 194.36 480.74 214.27 490.56 213.86 467.7 228.5 484.4 236.86 463.13 244 484.16 259.87 467.7 258.41 489.86 279.37 480.74 269.55 500.65 292.4 500.24 275.7 514.88"/>
    <path id="path563" d="m142.18 184.6-10.861 8.04 5.353 4.423c13-10.048 22.25-19.231 29.48-34.471 1.695 20.342-16.951 66.004-65.884 66.508-52.371-0.044-70.543-48.492-68.522-67.366 9.621 17.455 15.492 25.966 30.594 35.054l4.6206-4.241-10.229-8.523 13.168-3.424-7.0846-11.924 13.796 1.005-1.7336-13.885 12.094 7.077 3.784-12.926 8.6895 10.411 8.1403-9.87 4.432 13.411 11.301-7.864-1.449 13.639 13.548-1.59-6.351 12.608 13.115 3.908z" stroke-width="1pt" fill="#fff"/>
   </g>
  </g>
 </g>
</svg>
