<?xml version="1.0" encoding="UTF-8" standalone="no"?>
<!-- Created with Sodipodi ("http://www.sodipodi.com/") -->
<svg id="svg548" xmlns:rdf="http://www.w3.org/1999/02/22-rdf-syntax-ns#" xmlns="http://www.w3.org/2000/svg" height="480" width="640" version="1" y="0" x="0" xmlns:cc="http://creativecommons.org/ns#" xmlns:dc="http://purl.org/dc/elements/1.1/">
 <metadata id="metadata3554">
  <rdf:RDF>
   <cc:Work rdf:about="">
    <dc:format>image/svg+xml</dc:format>
    <dc:type rdf:resource="http://purl.org/dc/dcmitype/StillImage"/>
   </cc:Work>
  </rdf:RDF>
 </metadata>
 <defs id="defs550">
  <clipPath id="clipPath14935" clipPathUnits="userSpaceOnUse">
   <rect id="rect14937" fill-opacity="0.67" height="480" width="640" y="0" x="0"/>
  </clipPath>
 </defs>
 <g id="flag" clip-path="url(#clipPath14935)">
  <rect id="rect1526" fill-rule="evenodd" height="553.02" width="702.27" y="-21.609" x="-3.2985" stroke-width="1pt" fill="#ef2d29"/>
  <rect id="rect1527" fill-rule="evenodd" height="207.56" width="535.76" y="317.33" x="174.57" stroke-width="1pt" fill="#009025"/>
  <rect id="rect1528" fill-rule="evenodd" height="190.08" width="564.88" y="-35.415" x="174.57" stroke-width="1pt" fill="#fff"/>
  <g id="g1212" stroke-width=".98327" transform="matrix(.19848 0 0 .17744 19.131 -14.073)" stroke="#ef2d28">
   <g id="g1137" fill-rule="evenodd" transform="translate(464.17 3.5432)" fill="#fff">
    <rect id="rect1138" rx="11.298" ry="11.851" height="85.039" width="138.19" y="467.72" x="17.717" stroke-width="1.0544pt"/>
    <rect id="rect1139" rx="10.719" ry="10.864" height="77.953" width="131.1" y="471.26" x="21.26" stroke-width=".98327pt"/>
    <path id="path1140" d="m64.966 396.07 9.723 0.443 0.4419 5.745 7.955 5.303 6.1873-6.629 7.5131 5.303-7.0711 5.746 1.7678 7.955 8.8385-0.442v10.607l-7.0707-0.442-3.5356 6.629 7.9551 7.513-6.1873 6.187-6.6292-6.629-9.723 2.652 0.442 9.723-10.607 0.884-1.3258-9.281-8.839-4.862-4.8614 6.629-7.5132-4.861 4.4195-7.513-5.3034-4.862h-7.5132l-0.4419-13.7 7.5131 0.884 5.3034-7.955-6.1872-6.187 7.9551-7.071 5.7453 5.745 9.7229-1.768 1.3258-5.746z" transform="matrix(.68108 0 0 .58520 37.972 260.74)" stroke-width=".98327pt"/>
    <ellipse id="path1141" transform="matrix(.65819 0 0 .70224 38.845 209.62)" cx="68.944" rx="11.049" cy="426.78" ry="9.9439" stroke-width=".98327pt" d="m 79.992815,426.78302 c 0,5.49184 -4.946685,9.94386 -11.048731,9.94386 -6.102045,0 -11.048731,-4.45202 -11.048731,-9.94386 0,-5.49184 4.946686,-9.94386 11.048731,-9.94386 6.102046,0 11.048731,4.45202 11.048731,9.94386 z"/>
    <g id="g1142" stroke-width=".98327pt">
     <path id="path1143" d="m38.976 474.8-10.63 10.63"/>
     <path id="path1144" d="m38.976 474.8-10.63 10.63" transform="translate(7.0866 .000045776)"/>
     <path id="path1145" d="m38.976 474.8-10.63 10.63" transform="translate(14.173 .00012207)"/>
     <path id="path1146" d="m38.976 474.8-10.63 10.63" transform="translate(21.26 .00012207)"/>
     <path id="path1147" d="m38.976 474.8-10.63 10.63" transform="translate(28.346 .000045776)"/>
     <path id="path1148" d="m38.976 474.8-10.63 10.63" transform="translate(35.433 .00027466)"/>
     <path id="path1149" d="m38.976 474.8-10.63 10.63" transform="translate(42.52 .00012207)"/>
     <path id="path1150" d="m38.976 474.8-10.63 10.63" transform="translate(49.606 .00019836)"/>
     <path id="path1151" d="m38.976 474.8-10.63 10.63" transform="translate(56.693 .00012207)"/>
     <path id="path1152" d="m38.976 474.8-10.63 10.63" transform="translate(63.779 .00027466)"/>
     <path id="path1153" d="m38.976 474.8-10.63 10.63" transform="translate(70.866 .00035095)"/>
     <path id="path1154" d="m38.976 474.8-10.63 10.63" transform="translate(77.953 .00042725)"/>
     <path id="path1155" d="m38.976 474.8-10.63 10.63" transform="translate(49.606 .00019836)"/>
     <path id="path1156" d="m38.976 474.8-10.63 10.63" transform="translate(85.039 .00012207)"/>
     <path id="path1157" d="m38.976 474.8-10.63 10.63" transform="translate(92.126 .00019836)"/>
     <path id="path1158" d="m38.976 474.8-10.63 10.63" transform="translate(99.213 .00027466)"/>
     <path id="path1159" d="m38.976 474.8-10.63 10.63" transform="translate(106.3 .000045776)"/>
     <path id="path1160" d="m38.976 474.8-10.63 10.63" transform="matrix(-1 0 0 1 173.62 -.000030518)"/>
     <path id="path1161" d="m38.976 474.8-10.63 10.63" transform="matrix(-1 0 0 1 166.54 .000045776)"/>
     <path id="path1162" d="m38.976 474.8-10.63 10.63" transform="matrix(-1 0 0 1 159.45 .00012207)"/>
     <path id="path1163" d="m38.976 474.8-10.63 10.63" transform="matrix(-1 0 0 1 152.36 .00012207)"/>
     <path id="path1164" d="m38.976 474.8-10.63 10.63" transform="matrix(-1 0 0 1 145.28 .000045776)"/>
     <path id="path1165" d="m38.976 474.8-10.63 10.63" transform="matrix(-1 0 0 1 138.19 .00027466)"/>
     <path id="path1166" d="m38.976 474.8-10.63 10.63" transform="matrix(-1 0 0 1 131.1 .00012207)"/>
     <path id="path1167" d="m38.976 474.8-10.63 10.63" transform="matrix(-1 0 0 1 124.02 .00019836)"/>
     <path id="path1168" d="m38.976 474.8-10.63 10.63" transform="matrix(-1 0 0 1 116.93 .00012207)"/>
     <path id="path1169" d="m38.976 474.8-10.63 10.63" transform="matrix(-1 0 0 1 109.84 .00027466)"/>
     <path id="path1170" d="m38.976 474.8-10.63 10.63" transform="matrix(-1 0 0 1 102.76 .00035095)"/>
     <path id="path1171" d="m38.976 474.8-10.63 10.63" transform="matrix(-1 0 0 1 95.669 .00042725)"/>
     <path id="path1172" d="m38.976 474.8-10.63 10.63" transform="matrix(-1 0 0 1 124.02 .00019836)"/>
     <path id="path1173" d="m38.976 474.8-10.63 10.63" transform="matrix(-1 0 0 1 88.583 .00012207)"/>
     <path id="path1174" d="m38.976 474.8-10.63 10.63" transform="matrix(-1 0 0 1 81.496 .00019836)"/>
     <path id="path1175" d="m38.976 474.8-10.63 10.63" transform="matrix(-1 0 0 1 74.41 .00027466)"/>
     <path id="path1176" d="m38.976 474.8-10.63 10.63" transform="matrix(-1 0 0 1 67.323 .000045776)"/>
    </g>
    <g id="g1177" transform="translate(-.000035763 60.236)" stroke-width=".98327pt">
     <path id="path1178" d="m38.976 474.8-10.63 10.63"/>
     <path id="path1179" d="m38.976 474.8-10.63 10.63" transform="translate(7.0866 .000045776)"/>
     <path id="path1180" d="m38.976 474.8-10.63 10.63" transform="translate(14.173 .00012207)"/>
     <path id="path1181" d="m38.976 474.8-10.63 10.63" transform="translate(21.26 .00012207)"/>
     <path id="path1182" d="m38.976 474.8-10.63 10.63" transform="translate(28.346 .000045776)"/>
     <path id="path1183" d="m38.976 474.8-10.63 10.63" transform="translate(35.433 .00027466)"/>
     <path id="path1184" d="m38.976 474.8-10.63 10.63" transform="translate(42.52 .00012207)"/>
     <path id="path1185" d="m38.976 474.8-10.63 10.63" transform="translate(49.606 .00019836)"/>
     <path id="path1186" d="m38.976 474.8-10.63 10.63" transform="translate(56.693 .00012207)"/>
     <path id="path1187" d="m38.976 474.8-10.63 10.63" transform="translate(63.779 .00027466)"/>
     <path id="path1188" d="m38.976 474.8-10.63 10.63" transform="translate(70.866 .00035095)"/>
     <path id="path1189" d="m38.976 474.8-10.63 10.63" transform="translate(77.953 .00042725)"/>
     <path id="path1190" d="m38.976 474.8-10.63 10.63" transform="translate(49.606 .00019836)"/>
     <path id="path1191" d="m38.976 474.8-10.63 10.63" transform="translate(85.039 .00012207)"/>
     <path id="path1192" d="m38.976 474.8-10.63 10.63" transform="translate(92.126 .00019836)"/>
     <path id="path1193" d="m38.976 474.8-10.63 10.63" transform="translate(99.213 .00027466)"/>
     <path id="path1194" d="m38.976 474.8-10.63 10.63" transform="translate(106.3 .000045776)"/>
     <path id="path1195" d="m38.976 474.8-10.63 10.63" transform="matrix(-1 0 0 1 173.62 -.000030518)"/>
     <path id="path1196" d="m38.976 474.8-10.63 10.63" transform="matrix(-1 0 0 1 166.54 .000045776)"/>
     <path id="path1197" d="m38.976 474.8-10.63 10.63" transform="matrix(-1 0 0 1 159.45 .00012207)"/>
     <path id="path1198" d="m38.976 474.8-10.63 10.63" transform="matrix(-1 0 0 1 152.36 .00012207)"/>
     <path id="path1199" d="m38.976 474.8-10.63 10.63" transform="matrix(-1 0 0 1 145.28 .000045776)"/>
     <path id="path1200" d="m38.976 474.8-10.63 10.63" transform="matrix(-1 0 0 1 138.19 .00027466)"/>
     <path id="path1201" d="m38.976 474.8-10.63 10.63" transform="matrix(-1 0 0 1 131.1 .00012207)"/>
     <path id="path1202" d="m38.976 474.8-10.63 10.63" transform="matrix(-1 0 0 1 124.02 .00019836)"/>
     <path id="path1203" d="m38.976 474.8-10.63 10.63" transform="matrix(-1 0 0 1 116.93 .00012207)"/>
     <path id="path1204" d="m38.976 474.8-10.63 10.63" transform="matrix(-1 0 0 1 109.84 .00027466)"/>
     <path id="path1205" d="m38.976 474.8-10.63 10.63" transform="matrix(-1 0 0 1 102.76 .00035095)"/>
     <path id="path1206" d="m38.976 474.8-10.63 10.63" transform="matrix(-1 0 0 1 95.669 .00042725)"/>
     <path id="path1207" d="m38.976 474.8-10.63 10.63" transform="matrix(-1 0 0 1 124.02 .00019836)"/>
     <path id="path1208" d="m38.976 474.8-10.63 10.63" transform="matrix(-1 0 0 1 88.583 .00012207)"/>
     <path id="path1209" d="m38.976 474.8-10.63 10.63" transform="matrix(-1 0 0 1 81.496 .00019836)"/>
     <path id="path1210" d="m38.976 474.8-10.63 10.63" transform="matrix(-1 0 0 1 74.41 .00027466)"/>
     <path id="path1211" d="m38.976 474.8-10.63 10.63" transform="matrix(-1 0 0 1 67.323 .000045776)"/>
    </g>
   </g>
   <g id="g1062" fill-rule="evenodd" fill="#fff">
    <rect id="rect1061" rx="11.298" ry="11.851" height="85.039" width="138.19" y="467.72" x="17.717" stroke-width="1.0544pt"/>
    <rect id="rect936" rx="10.719" ry="10.864" height="77.953" width="131.1" y="471.26" x="21.26" stroke-width=".98327pt"/>
    <path id="path934" d="m64.966 396.07 9.723 0.443 0.4419 5.745 7.955 5.303 6.1873-6.629 7.5131 5.303-7.0711 5.746 1.7678 7.955 8.8385-0.442v10.607l-7.0707-0.442-3.5356 6.629 7.9551 7.513-6.1873 6.187-6.6292-6.629-9.723 2.652 0.442 9.723-10.607 0.884-1.3258-9.281-8.839-4.862-4.8614 6.629-7.5132-4.861 4.4195-7.513-5.3034-4.862h-7.5132l-0.4419-13.7 7.5131 0.884 5.3034-7.955-6.1872-6.187 7.9551-7.071 5.7453 5.745 9.7229-1.768 1.3258-5.746z" transform="matrix(.68108 0 0 .58520 37.972 260.74)" stroke-width=".98327pt"/>
    <ellipse id="path935" transform="matrix(.65819 0 0 .70224 38.845 209.62)" cx="68.944" rx="11.049" cy="426.78" ry="9.9439" stroke-width=".98327pt" d="m 79.992815,426.78302 c 0,5.49184 -4.946685,9.94386 -11.048731,9.94386 -6.102045,0 -11.048731,-4.45202 -11.048731,-9.94386 0,-5.49184 4.946686,-9.94386 11.048731,-9.94386 6.102046,0 11.048731,4.45202 11.048731,9.94386 z"/>
    <g id="g991" stroke-width=".98327pt">
     <path id="path938" d="m38.976 474.8-10.63 10.63"/>
     <path id="path939" d="m38.976 474.8-10.63 10.63" transform="translate(7.0866 .000045776)"/>
     <path id="path940" d="m38.976 474.8-10.63 10.63" transform="translate(14.173 .00012207)"/>
     <path id="path941" d="m38.976 474.8-10.63 10.63" transform="translate(21.26 .00012207)"/>
     <path id="path942" d="m38.976 474.8-10.63 10.63" transform="translate(28.346 .000045776)"/>
     <path id="path943" d="m38.976 474.8-10.63 10.63" transform="translate(35.433 .00027466)"/>
     <path id="path950" d="m38.976 474.8-10.63 10.63" transform="translate(42.52 .00012207)"/>
     <path id="path951" d="m38.976 474.8-10.63 10.63" transform="translate(49.606 .00019836)"/>
     <path id="path952" d="m38.976 474.8-10.63 10.63" transform="translate(56.693 .00012207)"/>
     <path id="path953" d="m38.976 474.8-10.63 10.63" transform="translate(63.779 .00027466)"/>
     <path id="path954" d="m38.976 474.8-10.63 10.63" transform="translate(70.866 .00035095)"/>
     <path id="path955" d="m38.976 474.8-10.63 10.63" transform="translate(77.953 .00042725)"/>
     <path id="path957" d="m38.976 474.8-10.63 10.63" transform="translate(49.606 .00019836)"/>
     <path id="path962" d="m38.976 474.8-10.63 10.63" transform="translate(85.039 .00012207)"/>
     <path id="path963" d="m38.976 474.8-10.63 10.63" transform="translate(92.126 .00019836)"/>
     <path id="path964" d="m38.976 474.8-10.63 10.63" transform="translate(99.213 .00027466)"/>
     <path id="path965" d="m38.976 474.8-10.63 10.63" transform="translate(106.3 .000045776)"/>
     <path id="path974" d="m38.976 474.8-10.63 10.63" transform="matrix(-1 0 0 1 173.62 -.000030518)"/>
     <path id="path975" d="m38.976 474.8-10.63 10.63" transform="matrix(-1 0 0 1 166.54 .000045776)"/>
     <path id="path976" d="m38.976 474.8-10.63 10.63" transform="matrix(-1 0 0 1 159.45 .00012207)"/>
     <path id="path977" d="m38.976 474.8-10.63 10.63" transform="matrix(-1 0 0 1 152.36 .00012207)"/>
     <path id="path978" d="m38.976 474.8-10.63 10.63" transform="matrix(-1 0 0 1 145.28 .000045776)"/>
     <path id="path979" d="m38.976 474.8-10.63 10.63" transform="matrix(-1 0 0 1 138.19 .00027466)"/>
     <path id="path980" d="m38.976 474.8-10.63 10.63" transform="matrix(-1 0 0 1 131.1 .00012207)"/>
     <path id="path981" d="m38.976 474.8-10.63 10.63" transform="matrix(-1 0 0 1 124.02 .00019836)"/>
     <path id="path982" d="m38.976 474.8-10.63 10.63" transform="matrix(-1 0 0 1 116.93 .00012207)"/>
     <path id="path983" d="m38.976 474.8-10.63 10.63" transform="matrix(-1 0 0 1 109.84 .00027466)"/>
     <path id="path984" d="m38.976 474.8-10.63 10.63" transform="matrix(-1 0 0 1 102.76 .00035095)"/>
     <path id="path985" d="m38.976 474.8-10.63 10.63" transform="matrix(-1 0 0 1 95.669 .00042725)"/>
     <path id="path986" d="m38.976 474.8-10.63 10.63" transform="matrix(-1 0 0 1 124.02 .00019836)"/>
     <path id="path987" d="m38.976 474.8-10.63 10.63" transform="matrix(-1 0 0 1 88.583 .00012207)"/>
     <path id="path988" d="m38.976 474.8-10.63 10.63" transform="matrix(-1 0 0 1 81.496 .00019836)"/>
     <path id="path989" d="m38.976 474.8-10.63 10.63" transform="matrix(-1 0 0 1 74.41 .00027466)"/>
     <path id="path990" d="m38.976 474.8-10.63 10.63" transform="matrix(-1 0 0 1 67.323 .000045776)"/>
    </g>
    <g id="g1026" transform="translate(-.000035763 60.236)" stroke-width=".98327pt">
     <path id="path1027" d="m38.976 474.8-10.63 10.63"/>
     <path id="path1028" d="m38.976 474.8-10.63 10.63" transform="translate(7.0866 .000045776)"/>
     <path id="path1029" d="m38.976 474.8-10.63 10.63" transform="translate(14.173 .00012207)"/>
     <path id="path1030" d="m38.976 474.8-10.63 10.63" transform="translate(21.26 .00012207)"/>
     <path id="path1031" d="m38.976 474.8-10.63 10.63" transform="translate(28.346 .000045776)"/>
     <path id="path1032" d="m38.976 474.8-10.63 10.63" transform="translate(35.433 .00027466)"/>
     <path id="path1033" d="m38.976 474.8-10.63 10.63" transform="translate(42.52 .00012207)"/>
     <path id="path1034" d="m38.976 474.8-10.63 10.63" transform="translate(49.606 .00019836)"/>
     <path id="path1035" d="m38.976 474.8-10.63 10.63" transform="translate(56.693 .00012207)"/>
     <path id="path1036" d="m38.976 474.8-10.63 10.63" transform="translate(63.779 .00027466)"/>
     <path id="path1037" d="m38.976 474.8-10.63 10.63" transform="translate(70.866 .00035095)"/>
     <path id="path1038" d="m38.976 474.8-10.63 10.63" transform="translate(77.953 .00042725)"/>
     <path id="path1039" d="m38.976 474.8-10.63 10.63" transform="translate(49.606 .00019836)"/>
     <path id="path1040" d="m38.976 474.8-10.63 10.63" transform="translate(85.039 .00012207)"/>
     <path id="path1041" d="m38.976 474.8-10.63 10.63" transform="translate(92.126 .00019836)"/>
     <path id="path1042" d="m38.976 474.8-10.63 10.63" transform="translate(99.213 .00027466)"/>
     <path id="path1043" d="m38.976 474.8-10.63 10.63" transform="translate(106.3 .000045776)"/>
     <path id="path1044" d="m38.976 474.8-10.63 10.63" transform="matrix(-1 0 0 1 173.62 -.000030518)"/>
     <path id="path1045" d="m38.976 474.8-10.63 10.63" transform="matrix(-1 0 0 1 166.54 .000045776)"/>
     <path id="path1046" d="m38.976 474.8-10.63 10.63" transform="matrix(-1 0 0 1 159.45 .00012207)"/>
     <path id="path1047" d="m38.976 474.8-10.63 10.63" transform="matrix(-1 0 0 1 152.36 .00012207)"/>
     <path id="path1048" d="m38.976 474.8-10.63 10.63" transform="matrix(-1 0 0 1 145.28 .000045776)"/>
     <path id="path1049" d="m38.976 474.8-10.63 10.63" transform="matrix(-1 0 0 1 138.19 .00027466)"/>
     <path id="path1050" d="m38.976 474.8-10.63 10.63" transform="matrix(-1 0 0 1 131.1 .00012207)"/>
     <path id="path1051" d="m38.976 474.8-10.63 10.63" transform="matrix(-1 0 0 1 124.02 .00019836)"/>
     <path id="path1052" d="m38.976 474.8-10.63 10.63" transform="matrix(-1 0 0 1 116.93 .00012207)"/>
     <path id="path1053" d="m38.976 474.8-10.63 10.63" transform="matrix(-1 0 0 1 109.84 .00027466)"/>
     <path id="path1054" d="m38.976 474.8-10.63 10.63" transform="matrix(-1 0 0 1 102.76 .00035095)"/>
     <path id="path1055" d="m38.976 474.8-10.63 10.63" transform="matrix(-1 0 0 1 95.669 .00042725)"/>
     <path id="path1056" d="m38.976 474.8-10.63 10.63" transform="matrix(-1 0 0 1 124.02 .00019836)"/>
     <path id="path1057" d="m38.976 474.8-10.63 10.63" transform="matrix(-1 0 0 1 88.583 .00012207)"/>
     <path id="path1058" d="m38.976 474.8-10.63 10.63" transform="matrix(-1 0 0 1 81.496 .00019836)"/>
     <path id="path1059" d="m38.976 474.8-10.63 10.63" transform="matrix(-1 0 0 1 74.41 .00027466)"/>
     <path id="path1060" d="m38.976 474.8-10.63 10.63" transform="matrix(-1 0 0 1 67.323 .000045776)"/>
    </g>
   </g>
   <g id="g910" transform="matrix(-1 0 0 1 635.41 3.5356)">
    <path id="path911" d="m538.58 531.5c1.717 166.56 24.803 201.97 3.543 201.97s-31.89-92.07-31.89-205.51 14.173-205.51 35.433-205.51-8.913 31.909-7.086 209.06z" fill-rule="evenodd" transform="matrix(1.6191 -.71484 1.0156 1.1396 -1010.9 421.76)" stroke-width=".98327pt" fill="#fff"/>
    <path id="path912" d="m545.67 779.53-60.236 17.716c56.693 60.236 120.47 85.039 138.19 74.409 17.717-10.629-31.89-35.433-77.953-92.125z" fill-rule="evenodd" stroke-width="1.2291" fill="#fff"/>
    <path id="path913" d="m547.27 786.9-50.926 14.74c56.693 60.236 112.77 77.385 127.28 70.015 14.591-7.37-30.287-28.063-76.35-84.755z" fill-rule="evenodd" transform="matrix(.97408 0 0 .96154 12.584 29.978)" stroke-width="1.27" fill="#fff"/>
    <path id="path914" d="m353.13 634.23c0.187 1.273 0.748 7.068 1.25 9.375 0 3.186 0.288 5.632 0.625 8.125 0.796 2.177 0.661 4.198 3.125 5.001 1.694 2.631 2.76 3.313 5 4.375 1.527 1.323 3.84 2.642 6.25 3.75 2.499 1.071 4.771 1.218 7.5 0.625 2.19-1.526 3.804-3.1 5.625-4.375 0.429-1.973 0.822-4.903 1.25-6.875-0.674 2.024-1.147 5.265-1.25 8.125 0.24 3.12 1.265 4.481 2.5 6.875" transform="matrix(.70423 0 0 .69959 111.95 190.53)" stroke-width="1.7511" fill="none"/>
    <path id="path915" d="m389.38 681.73c0.208-0.208 0.416-0.417 0.625-0.625-1.484 1.484-0.878 0.776 2.5-1.25 2.426-1.246 5.015-1.908 8.125-2.5h8.75c3.405 0 5.696 0.511 8.125 1.25 1.762 1.762 4.393 2.763 6.25 4.375 1.905 1.295 2.722 2.829 3.75 5 1.701 1.701 2.803 4.326 4.375 5.625 0.704 2.871 2.141 2.773 3.125 5-2.948 0.227-5.311 0.631-6.875 2.5-2.597 1.344 2.179-1.317 3.125-2.5 2.046-0.618 2.576-1.25 5.625-1.25 2.85-0.904 4.579 0.737 7.5 1.25 1.705 0.987 2.178 1.25 4.376 1.25" transform="matrix(.70423 0 0 .69959 102.7 186.59)" stroke-width="1.7511" fill="none"/>
    <path id="path916" d="m438.13 724.86c1.273 0.075 7.083 1.146 9.376 0 2.552-0.696 4.068-2.04 5.625-4.375 0.767-1.689 0 2.998 0 5 0.283 3.68 1.366 3.714 3.125 6.25 1.814 1.163 3.725 2.8 5.625 3.75 1.576 1.366 3.513 2.28 5.625 3.125 1.896 0.898 4.111 1.813 5.625 3.125 2.09 1.493 1.888 3.278 3.125 5.625-0.235 3.057-0.733 4.79-2.5 6.25-0.738 2.113-2.395 4.205-3.75 5.625-1.545 2.87-3.256 4.224 0.625 5 2.132 0.914 3.327 0.197 5.625 0" transform="matrix(.70423 0 0 .69959 92.14 178.29)" stroke-width="1.7511" fill="none"/>
    <path id="path917" d="m480.63 771.73c1.536-0.391 6.983-2.213 9.375-3.125h8.75c3.391 0.261 4.037 1.256 6.876 2.5 1.832 1.871 3.089 3.162 5.625 4.376 1.341 1.733 3.953 4.677 5 6.875 0.745 2.133 1.25 5.018 1.25 8.125-0.044 3.648-1.002 4.271-1.25 7.5-0.701 2.684-1.839 5.143-3.75 7.5-0.265 0.793-0.457 0.986-1.25 1.25" transform="matrix(.70423 0 0 .69959 89.94 176.1)" stroke-width="1.7511" fill="none"/>
    <path id="path918" d="m538.13 817.98c0.374 0 1.201 2.018 2.5 3.75 2.828 2.906 3.192 3.125 7.5 3.125 3.884-0.143 3.522-1.532 6.25-2.5 1.289-2.008 2.896-3.6 4.375-6.25 1.006-1.634 1.89-4.129 3.125-5.625 1.141-1.854 2.563-3.254 3.75-5 1.172-0.502 1.618-0.984 3.126-1.25-3.6 0.578-3.915 1.867-6.251 3.75-1.094 1.779-2.181 3.633-3.125 5.625-0.361 2.673-1.21 4.779-1.25 8.125 0 3.457 0.017 5.872 1.25 8.75 1.473 1.545 2.563 3.143 4.375 4.376 1.439 1.405 3.244 3.336 4.376 5 1.96 1.206 3.385 2.189 5.625 3.75 1.884 1.102 3.915 2.234 6.875 2.5 3.67-0.262 4.755-1.297 7.5-2.5 2.329-1.713 4.163-2.838 6.25-4.375 1.629-1.141 3.288-3.403 4.375-5 3.382-0.846 5.529-0.508 7.5 1.25 1.718 1.167 3.207 2.657 4.375 4.375 1.02 0.51 2.73 1.99 3.75 2.5" transform="matrix(0.5 0 0 .55224 180.32 294.48)" stroke-width="2.339" fill="none"/>
    <path id="path919" d="m503.76 836.11c-0.802 0.334-3.717 2.367-5 3.125-0.8 2.631-2.077 4.069-2.5 6.875-0.677 2.709-0.625 5.692-0.625 8.75 0.685 3.194 2.015 5.557 3.125 8.125 1.974 1.342 2.967 2.33 5.625 3.75 2.494 0.337 4.94 0.625 8.126 0.625 1.904 0.635 5.615 0.942 7.5 0 2.783-0.376 4.854-1.507 6.875-2.5 2.306-1.307 3.728-2.542 6.25-3.75 1.225-1.801 3.13-3.46 5-5.625 1.556-2.105 2.7-3.286 3.75-5.625-0.924 2.669-2.327 4.999-3.125 7.5-1.422 2.661-2.248 3.604-2.5 6.875-0.871 2.613-0.625 5.76-0.625 8.75 0.274 2.031 0.418 5.837 1.25 7.5v1.875" transform="matrix(.62163 0 0 .68918 170.66 184.25)" stroke-width="1.8778" fill="none"/>
    <path id="path920" d="m541.26 799.23v0.625c0-1.687 0.041-0.83-0.625 2.5-1.179 1.462-3.944 1.868-6.25 1.25-2.022-1.67-1.96-2.935-5.625-3.75-3.542 0.253-4.892 1.279-6.875 2.5-2.354 1.177-3.438 1.771-5 4.375-0.776 2.12-1.209 3.555 1.25 4.375 1.954 1.386 4.277 2.149 6.875 2.5 2.887 0 4.968-0.339 6.25 1.25 1.983 2.055 1.875 3.277 1.875 6.875 0.667 1.112 0.799 4.394 1.25 5.625 1.736 0.823 2.755 1.25 5.625 1.25 0.674-1.931 1.423-5.419 1.875-7.5 0.489-2.248 0.64-5.379 1.875-6.875 1.168-1.717 2.658-3.207 4.375-4.375 0.766-1.073 2.223-1.965 3.75-2.5-2.452 1.251-2.801 2.603-3.125 5.625 2.155 1.078 2.731 1.833 6.25 1.875 3.459-0.291 4.295-1.169 5.625-3.125 0.242 3.136 1.243 4.186 1.875 6.875 1.286 1.891 1.832 3.828 3.125 6.25-0.551 3.012-1.737 3.163-1.875 6.875-0.811 2.435-0.723 4.783-2.5 6.251-0.792 0.968-1.384 1.158-3.125 1.25 3.618 0 5.727-0.391 8.125-1.875 1.854-1.141 3.255-2.563 5.001-3.75 2.212-1.603 4.947-3.085 7.5-3.751 2.887 0 4.968-0.339 6.25 1.25 1.77 1.265 2.959 3.447 3.75 6.251 0.579 3.244 0.8 5.404-0.625 7.5-1.057 2.408-1.297 3.346 0 6.25 1.452 2.033 3.617 2.272 6.875 3.125 2.379-0.128 4.668-0.671 6.25-1.25" stroke-width="1.2291" fill="none"/>
   </g>
   <g id="g921" fill-rule="evenodd" stroke-width=".98327pt" transform="matrix(-1 0 0 1 635.41 3.5356)">
    <path id="path922" d="m531.5 359.64c0-165.27 7.937-299.41 17.717-299.41 9.779 0 17.716 134.13 17.716 299.41h-35.433z" transform="matrix(1.4216 -.73423 .46161 .89375 -716.84 541.07)" fill="#fff"/>
    <path id="path923" d="m531.5 359.64c0-165.27 7.937-299.41 17.717-299.41 9.779 0 17.716 134.13 17.716 299.41" transform="matrix(1.1373 -.58739 .44532 .86221 -554.83 471.77)" fill="#fff"/>
    <path id="path924" d="m563.39 301.18c0.189 18.908 0 40.188 0 60.236h-28.347c0-20.048-0.189-41.328 0-60.236h28.347z" transform="matrix(1.4216 -.73423 .45889 .88849 -716.67 541.39)" fill="#fff"/>
    <path id="path925" d="m559.84 304.72c0.189 18.908 0 33.102 0 53.15h-21.26c0-20.048-0.189-34.242 0-53.15h21.26z" transform="matrix(1.4216 -.73423 .45889 .88849 -716.67 541.39)" fill="#fff"/>
    <rect id="rect926" transform="matrix(1.4216 -.73423 .45889 .88849 -716.67 541.39)" height="38.976" width="14.173" y="311.81" x="542.13" fill="#fff"/>
    <path id="path927" d="m542.13 311.81 14.173 38.976" transform="matrix(1.4216 -.73423 .45889 .88849 -716.67 541.39)" fill="#fff"/>
    <path id="path928" d="m542.13 350.79 14.173-38.976" transform="matrix(1.4216 -.73423 .45889 .88849 -716.67 541.39)" fill="#fff"/>
    <path id="path929" d="m542.13 113.39h14.173" transform="matrix(1.4216 -.73423 .45889 .88849 -716.67 541.39)" fill="#fff"/>
    <ellipse id="path930" fill="#ef0000" transform="matrix(1.6046 .45375 -.36215 1.5787 -734.9 -170.85)" cx="545.67" rx="3.5433" cy="92.126" ry="3.5433" d="m 549.21262,92.125977 c 0,1.956921 -1.5864,3.54332 -3.54331,3.54332 -1.95691,0 -3.5433,-1.586399 -3.5433,-3.54332 0,-1.956922 1.58639,-3.54332 3.5433,-3.54332 1.95691,0 3.54331,1.586398 3.54331,3.54332 z"/>
   </g>
   <g id="g899">
    <path id="path835" d="m538.58 531.5c1.717 166.56 24.803 201.97 3.543 201.97s-31.89-92.07-31.89-205.51 14.173-205.51 35.433-205.51-8.913 31.909-7.086 209.06z" fill-rule="evenodd" transform="matrix(1.6191 -.71484 1.0156 1.1396 -1010.9 421.76)" stroke-width=".98327pt" fill="#fff"/>
    <path id="path842" d="m545.67 779.53-60.236 17.716c56.693 60.236 120.47 85.039 138.19 74.409 17.717-10.629-31.89-35.433-77.953-92.125z" fill-rule="evenodd" stroke-width="1.2291" fill="#fff"/>
    <path id="path843" d="m547.27 786.9-50.926 14.74c56.693 60.236 112.77 77.385 127.28 70.015 14.591-7.37-30.287-28.063-76.35-84.755z" fill-rule="evenodd" transform="matrix(.97408 0 0 .96154 12.584 29.978)" stroke-width="1.27" fill="#fff"/>
    <path id="path871" d="m353.13 634.23c0.187 1.273 0.748 7.068 1.25 9.375 0 3.186 0.288 5.632 0.625 8.125 0.796 2.177 0.661 4.198 3.125 5.001 1.694 2.631 2.76 3.313 5 4.375 1.527 1.323 3.84 2.642 6.25 3.75 2.499 1.071 4.771 1.218 7.5 0.625 2.19-1.526 3.804-3.1 5.625-4.375 0.429-1.973 0.822-4.903 1.25-6.875-0.674 2.024-1.147 5.265-1.25 8.125 0.24 3.12 1.265 4.481 2.5 6.875" transform="matrix(.70423 0 0 .69959 111.95 190.53)" stroke-width="1.7511" fill="none"/>
    <path id="path872" d="m389.38 681.73c0.208-0.208 0.416-0.417 0.625-0.625-1.484 1.484-0.878 0.776 2.5-1.25 2.426-1.246 5.015-1.908 8.125-2.5h8.75c3.405 0 5.696 0.511 8.125 1.25 1.762 1.762 4.393 2.763 6.25 4.375 1.905 1.295 2.722 2.829 3.75 5 1.701 1.701 2.803 4.326 4.375 5.625 0.704 2.871 2.141 2.773 3.125 5-2.948 0.227-5.311 0.631-6.875 2.5-2.597 1.344 2.179-1.317 3.125-2.5 2.046-0.618 2.576-1.25 5.625-1.25 2.85-0.904 4.579 0.737 7.5 1.25 1.705 0.987 2.178 1.25 4.376 1.25" transform="matrix(.70423 0 0 .69959 102.7 186.59)" stroke-width="1.7511" fill="none"/>
    <path id="path873" d="m438.13 724.86c1.273 0.075 7.083 1.146 9.376 0 2.552-0.696 4.068-2.04 5.625-4.375 0.767-1.689 0 2.998 0 5 0.283 3.68 1.366 3.714 3.125 6.25 1.814 1.163 3.725 2.8 5.625 3.75 1.576 1.366 3.513 2.28 5.625 3.125 1.896 0.898 4.111 1.813 5.625 3.125 2.09 1.493 1.888 3.278 3.125 5.625-0.235 3.057-0.733 4.79-2.5 6.25-0.738 2.113-2.395 4.205-3.75 5.625-1.545 2.87-3.256 4.224 0.625 5 2.132 0.914 3.327 0.197 5.625 0" transform="matrix(.70423 0 0 .69959 92.14 178.29)" stroke-width="1.7511" fill="none"/>
    <path id="path874" d="m480.63 771.73c1.536-0.391 6.983-2.213 9.375-3.125h8.75c3.391 0.261 4.037 1.256 6.876 2.5 1.832 1.871 3.089 3.162 5.625 4.376 1.341 1.733 3.953 4.677 5 6.875 0.745 2.133 1.25 5.018 1.25 8.125-0.044 3.648-1.002 4.271-1.25 7.5-0.701 2.684-1.839 5.143-3.75 7.5-0.265 0.793-0.457 0.986-1.25 1.25" transform="matrix(.70423 0 0 .69959 89.94 176.1)" stroke-width="1.7511" fill="none"/>
    <path id="path877" d="m538.13 817.98c0.374 0 1.201 2.018 2.5 3.75 2.828 2.906 3.192 3.125 7.5 3.125 3.884-0.143 3.522-1.532 6.25-2.5 1.289-2.008 2.896-3.6 4.375-6.25 1.006-1.634 1.89-4.129 3.125-5.625 1.141-1.854 2.563-3.254 3.75-5 1.172-0.502 1.618-0.984 3.126-1.25-3.6 0.578-3.915 1.867-6.251 3.75-1.094 1.779-2.181 3.633-3.125 5.625-0.361 2.673-1.21 4.779-1.25 8.125 0 3.457 0.017 5.872 1.25 8.75 1.473 1.545 2.563 3.143 4.375 4.376 1.439 1.405 3.244 3.336 4.376 5 1.96 1.206 3.385 2.189 5.625 3.75 1.884 1.102 3.915 2.234 6.875 2.5 3.67-0.262 4.755-1.297 7.5-2.5 2.329-1.713 4.163-2.838 6.25-4.375 1.629-1.141 3.288-3.403 4.375-5 3.382-0.846 5.529-0.508 7.5 1.25 1.718 1.167 3.207 2.657 4.375 4.375 1.02 0.51 2.73 1.99 3.75 2.5" transform="matrix(0.5 0 0 .55224 180.32 294.48)" stroke-width="2.339" fill="none"/>
    <path id="path878" d="m503.76 836.11c-0.802 0.334-3.717 2.367-5 3.125-0.8 2.631-2.077 4.069-2.5 6.875-0.677 2.709-0.625 5.692-0.625 8.75 0.685 3.194 2.015 5.557 3.125 8.125 1.974 1.342 2.967 2.33 5.625 3.75 2.494 0.337 4.94 0.625 8.126 0.625 1.904 0.635 5.615 0.942 7.5 0 2.783-0.376 4.854-1.507 6.875-2.5 2.306-1.307 3.728-2.542 6.25-3.75 1.225-1.801 3.13-3.46 5-5.625 1.556-2.105 2.7-3.286 3.75-5.625-0.924 2.669-2.327 4.999-3.125 7.5-1.422 2.661-2.248 3.604-2.5 6.875-0.871 2.613-0.625 5.76-0.625 8.75 0.274 2.031 0.418 5.837 1.25 7.5v1.875" transform="matrix(.62163 0 0 .68918 170.66 184.25)" stroke-width="1.8778" fill="none"/>
    <path id="path879" d="m541.26 799.23v0.625c0-1.687 0.041-0.83-0.625 2.5-1.179 1.462-3.944 1.868-6.25 1.25-2.022-1.67-1.96-2.935-5.625-3.75-3.542 0.253-4.892 1.279-6.875 2.5-2.354 1.177-3.438 1.771-5 4.375-0.776 2.12-1.209 3.555 1.25 4.375 1.954 1.386 4.277 2.149 6.875 2.5 2.887 0 4.968-0.339 6.25 1.25 1.983 2.055 1.875 3.277 1.875 6.875 0.667 1.112 0.799 4.394 1.25 5.625 1.736 0.823 2.755 1.25 5.625 1.25 0.674-1.931 1.423-5.419 1.875-7.5 0.489-2.248 0.64-5.379 1.875-6.875 1.168-1.717 2.658-3.207 4.375-4.375 0.766-1.073 2.223-1.965 3.75-2.5-2.452 1.251-2.801 2.603-3.125 5.625 2.155 1.078 2.731 1.833 6.25 1.875 3.459-0.291 4.295-1.169 5.625-3.125 0.242 3.136 1.243 4.186 1.875 6.875 1.286 1.891 1.832 3.828 3.125 6.25-0.551 3.012-1.737 3.163-1.875 6.875-0.811 2.435-0.723 4.783-2.5 6.251-0.792 0.968-1.384 1.158-3.125 1.25 3.618 0 5.727-0.391 8.125-1.875 1.854-1.141 3.255-2.563 5.001-3.75 2.212-1.603 4.947-3.085 7.5-3.751 2.887 0 4.968-0.339 6.25 1.25 1.77 1.265 2.959 3.447 3.75 6.251 0.579 3.244 0.8 5.404-0.625 7.5-1.057 2.408-1.297 3.346 0 6.25 1.452 2.033 3.617 2.272 6.875 3.125 2.379-0.128 4.668-0.671 6.25-1.25" stroke-width="1.2291" fill="none"/>
   </g>
   <g id="g889" stroke-width=".98327pt" fill-rule="evenodd">
    <path id="path847" d="m531.5 359.64c0-165.27 7.937-299.41 17.717-299.41 9.779 0 17.716 134.13 17.716 299.41h-35.433z" transform="matrix(1.4216 -.73423 .46161 .89375 -716.84 541.07)" fill="#fff"/>
    <path id="path856" d="m531.5 359.64c0-165.27 7.937-299.41 17.717-299.41 9.779 0 17.716 134.13 17.716 299.41" transform="matrix(1.1373 -.58739 .44532 .86221 -554.83 471.77)" fill="#fff"/>
    <path id="path850" d="m563.39 301.18c0.189 18.908 0 40.188 0 60.236h-28.347c0-20.048-0.189-41.328 0-60.236h28.347z" transform="matrix(1.4216 -.73423 .45889 .88849 -716.67 541.39)" fill="#fff"/>
    <path id="path852" d="m559.84 304.72c0.189 18.908 0 33.102 0 53.15h-21.26c0-20.048-0.189-34.242 0-53.15h21.26z" transform="matrix(1.4216 -.73423 .45889 .88849 -716.67 541.39)" fill="#fff"/>
    <rect id="rect853" transform="matrix(1.4216 -.73423 .45889 .88849 -716.67 541.39)" height="38.976" width="14.173" y="311.81" x="542.13" fill="#fff"/>
    <path id="path854" d="m542.13 311.81 14.173 38.976" transform="matrix(1.4216 -.73423 .45889 .88849 -716.67 541.39)" fill="#fff"/>
    <path id="path855" d="m542.13 350.79 14.173-38.976" transform="matrix(1.4216 -.73423 .45889 .88849 -716.67 541.39)" fill="#fff"/>
    <path id="path857" d="m542.13 113.39h14.173" transform="matrix(1.4216 -.73423 .45889 .88849 -716.67 541.39)" fill="#fff"/>
    <ellipse id="path858" fill="#ef0000" transform="matrix(1.6046 .45375 -.36215 1.5787 -734.9 -170.85)" cx="545.67" rx="3.5433" cy="92.126" ry="3.5433" d="m 549.21262,92.125977 c 0,1.956921 -1.5864,3.54332 -3.54331,3.54332 -1.95691,0 -3.5433,-1.586399 -3.5433,-3.54332 0,-1.956922 1.58639,-3.54332 3.5433,-3.54332 1.95691,0 3.54331,1.586398 3.54331,3.54332 z"/>
   </g>
   <g id="g694" fill-rule="evenodd" fill="#fff">
    <path id="path552" d="m305.61 396.85c0 124.02 0.491 170.76-5.62 177.17-5.79 6.857-167.12 0-167.12 35.433s132.87 70.867 172.74 70.866c53.149 0 79.723-35.433 79.723-106.3v-177.17h-79.723z" transform="matrix(1.3333 0 0 1 -141.74 .00042725)" stroke-width=".98327pt"/>
    <path id="path564" d="m265.75 396.85v17.717c35.433 5.906 70.866 5.906 106.3 0v-17.717c-35.433 5.906-70.866 5.906-106.3 0z" transform="matrix(1 0 0 .99999 .000023842 35.437)" stroke-width=".98327pt"/>
    <path id="path562" d="m265.75 396.85v17.717c35.433 5.906 70.866 5.906 106.3 0v-17.717c-35.433 5.906-70.866 5.906-106.3 0z" transform="matrix(1 0 0 .99999 .00020981 .0040894)" stroke-width=".98327pt"/>
    <path id="path563" d="m265.75 396.85v17.717c35.433 5.906 70.866 5.906 106.3 0v-17.717c-35.433 5.906-70.866 5.906-106.3 0z" transform="matrix(1 0 0 .99999 .00020981 17.721)" stroke-width=".98327pt"/>
    <path id="path565" d="m265.75 396.85v17.717c35.433 5.906 70.866 5.906 106.3 0v-17.717c-35.433 5.906-70.866 5.906-106.3 0z" transform="matrix(1 0 0 .99999 .000019073 53.154)" stroke-width=".98327pt"/>
    <ellipse id="path570" transform="matrix(.54545 0 0 .14383 130.46 394.32)" cx="256.89" rx="8.8583" cy="210.83" ry="26.575" stroke-width="4.3882" d="m 265.74803,210.82677 c 0,14.67684 -3.96598,26.57478 -8.85826,26.57478 -4.89228,0 -8.85826,-11.89794 -8.85826,-26.57478 0,-14.67685 3.96598,-26.57479 8.85826,-26.57479 4.89228,0 8.85826,11.89794 8.85826,26.57479 z"/>
    <ellipse id="path571" transform="matrix(.54545 0 0 .14383 130.46 391.13)" cx="292.32" rx="8.8583" cy="246.26" ry="26.575" stroke-width="4.3882" d="m 301.18108,246.25981 c 0,14.67685 -3.96598,26.57478 -8.85827,26.57478 -4.89228,0 -8.85826,-11.89793 -8.85826,-26.57478 0,-14.67685 3.96598,-26.57478 8.85826,-26.57478 4.89229,0 8.85827,11.89793 8.85827,26.57478 z"/>
    <ellipse id="path572" transform="matrix(.54545 0 0 .14383 130.46 390.49)" cx="327.76" rx="8.8583" cy="263.98" ry="26.575" stroke-width="4.3882" d="m 336.6142,263.97638 c 0,14.67687 -3.96599,26.57483 -8.85828,26.57483 -4.89229,0 -8.85828,-11.89796 -8.85828,-26.57483 0,-14.67687 3.96599,-26.57483 8.85828,-26.57483 4.89229,0 8.85828,11.89796 8.85828,26.57483 z"/>
    <ellipse id="path573" transform="matrix(.54545 0 0 .14383 130.46 390.49)" cx="363.19" rx="8.8583" cy="263.98" ry="26.575" stroke-width="4.3882" d="m 372.04723,263.97638 c 0,14.67687 -3.96598,26.57483 -8.85827,26.57483 -4.89228,0 -8.85826,-11.89796 -8.85826,-26.57483 0,-14.67687 3.96598,-26.57483 8.85826,-26.57483 4.89229,0 8.85827,11.89796 8.85827,26.57483 z"/>
    <ellipse id="path574" transform="matrix(.54545 0 0 .14383 130.46 391.13)" cx="398.62" rx="8.8583" cy="246.26" ry="26.575" stroke-width="4.3882" d="m 407.48033,246.25981 c 0,14.67685 -3.96598,26.57478 -8.85826,26.57478 -4.89228,0 -8.85826,-11.89793 -8.85826,-26.57478 0,-14.67685 3.96598,-26.57478 8.85826,-26.57478 4.89228,0 8.85826,11.89793 8.85826,26.57478 z"/>
    <ellipse id="path575" transform="matrix(.54545 0 0 .14383 130.46 394.32)" cx="434.06" rx="8.8583" cy="210.83" ry="26.575" stroke-width="4.3882" d="m 442.91339,210.82677 c 0,14.67684 -3.96598,26.57478 -8.85828,26.57478 -4.89229,0 -8.85827,-11.89794 -8.85827,-26.57478 0,-14.67685 3.96598,-26.57479 8.85827,-26.57479 4.8923,0 8.85828,11.89794 8.85828,26.57479 z"/>
    <path id="path582" d="m265.75 485.43 106.3 95.669" stroke-width=".98327pt"/>
    <path id="path583" d="m276.38 485.43 95.669 85.039" stroke-width=".98327pt"/>
    <path id="path586" d="m290.55 488.98 81.496 70.866" stroke-width=".98327pt"/>
    <path id="path587" d="m301.18 488.98 70.866 60.237" stroke-width=".98327pt"/>
    <path id="path588" d="m311.81 488.98 60.236 49.607" stroke-width=".98327pt"/>
    <path id="path589" d="m322.44 488.98 49.606 38.977" stroke-width=".98327pt"/>
    <path id="path590" d="m333.07 488.98 38.976 28.347" stroke-width=".98327pt"/>
    <path id="path591" d="m343.7 488.98 28.346 21.26" stroke-width=".98327pt"/>
    <path id="path592" d="m354.33 488.98 17.716 14.174" stroke-width=".98327pt"/>
    <path id="path593" d="m364.96 488.98 7.086 7.087" stroke-width=".98327pt"/>
    <path id="path594" d="m265.75 485.43 106.3 95.669" transform="translate(.00022888 10.63)" stroke-width=".98327pt"/>
    <path id="path595" d="m265.75 485.43 116.93 106.3" transform="matrix(-1 0 0 1 637.8 -.000030518)" stroke-width=".98327pt"/>
    <path id="path596" d="m276.38 485.43 102.76 92.126" transform="matrix(-1 0 0 1 637.8 -.000030518)" stroke-width=".98327pt"/>
    <path id="path597" d="m290.55 488.98 81.496 70.866" transform="matrix(-1 0 0 1 637.8 -.000030518)" stroke-width=".98327pt"/>
    <path id="path598" d="m301.18 488.98 70.866 60.237" transform="matrix(-1 0 0 1 637.8 -.000030518)" stroke-width=".98327pt"/>
    <path id="path599" d="m311.81 488.98 60.236 49.607" transform="matrix(-1 0 0 1 637.8 -.000030518)" stroke-width=".98327pt"/>
    <path id="path600" d="m322.44 488.98 49.606 38.977" transform="matrix(-1 0 0 1 637.8 -.000030518)" stroke-width=".98327pt"/>
    <path id="path601" d="m333.07 488.98 38.976 28.347" transform="matrix(-1 0 0 1 637.8 -.000030518)" stroke-width=".98327pt"/>
    <path id="path602" d="m343.7 488.98 28.346 21.26" transform="matrix(-1 0 0 1 637.8 -.000030518)" stroke-width=".98327pt"/>
    <path id="path603" d="m354.33 488.98 17.716 14.174" transform="matrix(-1 0 0 1 637.8 -.000030518)" stroke-width=".98327pt"/>
    <path id="path604" d="m364.96 488.98 7.086 7.087" transform="matrix(-1 0 0 1 637.8 -.000030518)" stroke-width=".98327pt"/>
    <path id="path605" d="m265.75 485.43 116.93 106.3" transform="matrix(-1 0 0 1 637.8 10.63)" stroke-width=".98327pt"/>
    <path id="path606" d="m265.75 485.43 116.93 106.3" transform="matrix(-1 0 0 1 637.8 21.26)" stroke-width=".98327pt"/>
    <path id="path607" d="m265.75 485.43 116.93 106.3" transform="matrix(-1 0 0 1 637.8 31.89)" stroke-width=".98327pt"/>
    <path id="path608" d="m265.75 485.43 116.93 106.3" transform="matrix(-1 0 0 1 637.8 42.52)" stroke-width=".98327pt"/>
    <path id="path609" d="m265.75 485.43 116.93 106.3" transform="matrix(-1 0 0 1 637.8 53.15)" stroke-width=".98327pt"/>
    <path id="path610" d="m265.75 485.43 116.93 106.3" transform="matrix(-1 0 0 1 637.8 63.78)" stroke-width=".98327pt"/>
    <path id="path611" d="m265.75 485.43 116.93 106.3" transform="matrix(-1 0 0 1 637.8 74.41)" stroke-width=".98327pt"/>
    <path id="path612" d="m265.75 485.43 116.93 106.3" transform="matrix(-1 0 0 1 637.8 85.04)" stroke-width=".98327pt"/>
    <path id="path613" d="m265.75 485.43 109.84 99.21" transform="matrix(-1 0 0 1 637.8 95.67)" stroke-width=".98327pt"/>
    <path id="path614" d="m265.75 485.43 99.212 88.583" transform="matrix(-1 0 0 1 637.8 106.3)" stroke-width=".98327pt"/>
    <path id="path615" d="m265.75 485.43 77.953 70.866" transform="matrix(-1 0 0 1 634.25 120.47)" stroke-width=".98327pt"/>
    <path id="path616" d="m265.75 485.43 63.779 56.693" transform="matrix(-1 0 0 1 630.71 134.65)" stroke-width=".98327pt"/>
    <path id="path617" d="m265.75 485.43 31.89 28.346" transform="matrix(-1 0 0 1 623.62 152.36)" stroke-width=".98327pt"/>
    <path id="path618" d="m265.75 485.43 102.76 92.126" transform="translate(.00022888 21.26)" stroke-width=".98327pt"/>
    <path id="path619" d="m269.29 488.98 102.76 92.126" transform="translate(-3.5433 28.347)" stroke-width=".98327pt"/>
    <path id="path620" d="m269.29 488.98 99.213 88.583" transform="translate(-3.5431 38.977)" stroke-width=".98327pt"/>
    <path id="path621" d="m269.29 488.98 99.213 88.583" transform="translate(-3.5431 49.607)" stroke-width=".98327pt"/>
    <path id="path622" d="m272.84 492.52 95.669 85.039" transform="translate(-7.0866 56.693)" stroke-width=".98327pt"/>
    <path id="path623" d="m269.29 488.98 95.669 85.04" transform="translate(-7.0864 67.323)" stroke-width=".98327pt"/>
    <path id="path624" d="m269.29 488.98 88.583 77.953" transform="translate(-7.0864 77.953)" stroke-width=".98327pt"/>
    <path id="path625" d="m265.75 485.43 88.583 77.953" transform="translate(-7.0866 88.583)" stroke-width=".98327pt"/>
    <path id="path626" d="m262.2 481.89 85.04 74.409" transform="translate(-7.0864 99.213)" stroke-width=".98327pt"/>
    <path id="path627" d="m262.2 481.89 81.496 70.865" transform="translate(-7.0866 109.84)" stroke-width=".98327pt"/>
    <path id="path628" d="m262.2 481.89 70.866 63.779" transform="translate(-7.0866 120.47)" stroke-width=".98327pt"/>
    <path id="path636" d="m265.75 396.85v17.717c35.433 5.906 70.866 5.906 106.3 0v-17.717c-35.433 5.906-70.866 5.906-106.3 0z" transform="matrix(1 0 0 .99999 .00021458 70.87)" stroke-width=".98327pt"/>
    <path id="path629" d="m262.2 481.89 63.78 56.692" transform="translate(-7.0864 131.1)" stroke-width=".98327pt"/>
    <path id="path630" d="m262.2 481.89 56.693 49.606" transform="translate(-7.0864 141.73)" stroke-width=".98327pt"/>
    <path id="path631" d="m262.2 481.89 49.606 42.519" transform="translate(-7.0866 152.36)" stroke-width=".98327pt"/>
    <path id="path632" d="m262.2 481.89 35.434 31.889" transform="translate(-7.0864 162.99)" stroke-width=".98327pt"/>
    <path id="path633" d="m262.2 481.89 28.347 24.804" transform="translate(-7.0864 173.62)" stroke-width=".98327pt"/>
    <path id="path634" d="m262.2 481.89 17.716 14.173" transform="translate(-7.0866 184.25)" stroke-width=".98327pt"/>
    <ellipse id="path576" transform="matrix(.54545 0 0 .14383 130.46 447.47)" cx="256.89" rx="8.8583" cy="210.83" ry="26.575" stroke-width="4.3882" d="m 265.74803,210.82677 c 0,14.67684 -3.96598,26.57478 -8.85826,26.57478 -4.89228,0 -8.85826,-11.89794 -8.85826,-26.57478 0,-14.67685 3.96598,-26.57479 8.85826,-26.57479 4.89228,0 8.85826,11.89794 8.85826,26.57479 z"/>
    <ellipse id="path577" transform="matrix(.54545 0 0 .14383 130.46 444.28)" cx="292.32" rx="8.8583" cy="246.26" ry="26.575" stroke-width="4.3882" d="m 301.18108,246.25981 c 0,14.67685 -3.96598,26.57478 -8.85827,26.57478 -4.89228,0 -8.85826,-11.89793 -8.85826,-26.57478 0,-14.67685 3.96598,-26.57478 8.85826,-26.57478 4.89229,0 8.85827,11.89793 8.85827,26.57478 z"/>
    <ellipse id="path578" transform="matrix(.54545 0 0 .14383 130.46 443.64)" cx="327.76" rx="8.8583" cy="263.98" ry="26.575" stroke-width="4.3882" d="m 336.6142,263.97638 c 0,14.67687 -3.96599,26.57483 -8.85828,26.57483 -4.89229,0 -8.85828,-11.89796 -8.85828,-26.57483 0,-14.67687 3.96599,-26.57483 8.85828,-26.57483 4.89229,0 8.85828,11.89796 8.85828,26.57483 z"/>
    <ellipse id="path579" transform="matrix(.54545 0 0 .14383 130.46 443.64)" cx="363.19" rx="8.8583" cy="263.98" ry="26.575" stroke-width="4.3882" d="m 372.04723,263.97638 c 0,14.67687 -3.96598,26.57483 -8.85827,26.57483 -4.89228,0 -8.85826,-11.89796 -8.85826,-26.57483 0,-14.67687 3.96598,-26.57483 8.85826,-26.57483 4.89229,0 8.85827,11.89796 8.85827,26.57483 z"/>
    <ellipse id="path580" transform="matrix(.54545 0 0 .14383 130.46 444.28)" cx="398.62" rx="8.8583" cy="246.26" ry="26.575" stroke-width="4.3882" d="m 407.48033,246.25981 c 0,14.67685 -3.96598,26.57478 -8.85826,26.57478 -4.89228,0 -8.85826,-11.89793 -8.85826,-26.57478 0,-14.67685 3.96598,-26.57478 8.85826,-26.57478 4.89228,0 8.85826,11.89793 8.85826,26.57478 z"/>
    <ellipse id="path581" transform="matrix(.54545 0 0 .14383 130.46 447.47)" cx="434.06" rx="8.8583" cy="210.83" ry="26.575" stroke-width="4.3882" d="m 442.91339,210.82677 c 0,14.67684 -3.96598,26.57478 -8.85828,26.57478 -4.89229,0 -8.85827,-11.89794 -8.85827,-26.57478 0,-14.67685 3.96598,-26.57479 8.85827,-26.57479 4.8923,0 8.85828,11.89794 8.85828,26.57479 z"/>
    <path id="path638" d="m113.39 651.97 127.55-74.41" stroke-width=".98327pt"/>
    <path id="path639" d="m113.39 651.97 120.47-70.87" transform="translate(-7.0868 -3.5433)" stroke-width=".98327pt"/>
    <path id="path640" d="m113.39 651.97 109.84-63.78" transform="translate(-10.63 -10.629)" stroke-width=".98327pt"/>
    <path id="path641" d="m113.39 651.97 95.669-56.693" transform="translate(-14.173 -17.716)" stroke-width=".98327pt"/>
    <path id="path642" d="m116.93 648.42 88.583-49.606" transform="translate(-24.803 -21.26)" stroke-width=".98327pt"/>
    <path id="path643" d="m131.1 641.34 60.236-35.433" transform="translate(-35.433 -24.803)" stroke-width=".98327pt"/>
    <path id="path644" d="m138.19 637.8 46.063-28.346" transform="translate(-46.063 -28.346)" stroke-width=".98327pt"/>
    <path id="path645" d="m141.73 634.25 31.89-17.717" transform="translate(-49.606 -35.433)" stroke-width=".98327pt"/>
    <path id="path654" d="m120.47 648.42 120.47-70.86" transform="translate(3.5431 7.0871)" stroke-width=".98327pt"/>
    <path id="path655" d="m127.56 644.88 113.38-67.32" transform="translate(7.0865 14.174)" stroke-width=".98327pt"/>
    <path id="path656" d="m134.65 641.34 106.3-63.78" transform="translate(10.63 21.26)" stroke-width=".98327pt"/>
    <path id="path657" d="m134.65 641.34 88.583-53.15" transform="translate(21.26 24.804)" stroke-width=".98327pt"/>
    <path id="path658" d="m155.91 627.16 77.952-46.063" transform="translate(14.173 38.976)" stroke-width=".98327pt"/>
    <path id="path659" d="m155.91 627.16 67.323-38.976" transform="translate(24.803 42.52)" stroke-width=".98327pt"/>
    <path id="path660" d="m162.99 623.62 53.15-31.89" transform="translate(28.346 49.607)" stroke-width=".98327pt"/>
    <path id="path661" d="m173.62 616.54 42.52-24.803" transform="translate(31.89 56.693)" stroke-width=".98327pt"/>
    <path id="path662" d="m177.16 616.54 28.347-17.717" transform="translate(42.52 60.237)" stroke-width=".98327pt"/>
    <path id="path663" d="m187.8 609.45 17.717-10.63" transform="translate(46.063 67.323)" stroke-width=".98327pt"/>
    <path id="path635" d="m265.75 396.85v17.717c35.433 5.906 70.866 5.906 106.3 0v-17.717c-35.433 5.906-70.866 5.906-106.3 0z" transform="matrix(0 1 -.99999 0 655.51 308.27)" stroke-width=".98327pt"/>
    <path id="path664" d="m166.54 630.71 42.52-35.433" transform="translate(-116.93 -7.0861)" stroke-width=".98327pt"/>
    <path id="path665" d="m166.54 637.8 42.52-42.52" transform="matrix(1 0 0 -1 -116.93 1236.6)" stroke-width=".98327pt"/>
    <path id="path637" d="m260.15 387.99 5.595 26.575c35.433 5.906 65.271 5.906 100.7 0l11.19-26.575c-35.433 5.906-82.056 5.906-117.49 0z" transform="matrix(0 .63333 -0.8 0 423.78 416.34)" stroke-width=".98327pt"/>
    <path id="path674" d="m258.66 350.79v-17.865c-10.63 0.149-17.716-10.481-17.717-21.26l-35.432 0.149c0 10.63-7.087 21.26-17.717 21.26v17.716h70.866z" transform="matrix(1.4983 0 0 1 -15.633 53.149)" stroke-width=".98327pt"/>
    <rect id="rect675" height="21.26" width="45.506" y="343.7" x="296.09" stroke-width="1.0172pt"/>
    <rect id="rect676" height="21.26" width="37.922" y="322.44" x="299.88" stroke-width="1.0172pt"/>
    <rect id="rect677" height="21.26" width="37.922" y="301.18" x="299.88" stroke-width="1.0172pt"/>
    <rect id="rect679" height="28.346" width="30.337" y="272.83" x="303.67" stroke-width="1.0172pt"/>
    <rect id="rect680" height="24.803" width="32.953" y="248.03" x="302.36" stroke-width="1.0601pt"/>
    <ellipse id="path681" transform="matrix(1.0333 0 0 1 75.354 63.779)" cx="237.4" rx="42.52" cy="161.22" ry="33.661" stroke-width=".98327pt" d="m 279.92126,161.22044 c 0,18.59069 -19.03671,33.66143 -42.51968,33.66143 -23.48297,0 -42.51968,-15.07074 -42.51968,-33.66143 0,-18.59069 19.03671,-33.66142 42.51968,-33.66142 23.48297,0 42.51968,15.07073 42.51968,33.66142 z"/>
    <path id="path683" d="m258.66 159.45c0 9.291 10.63 24.803 10.63 24.803-7.696 6.093-20.154 10.63-31.889 10.63s-26.349-2.528-31.89-10.63c0 0 10.63-15.512 10.63-24.803s-10.63-21.26-10.63-21.26c7.696-6.093 20.154-10.63 31.89-10.63 11.735 0 24.193 4.537 31.889 10.63 0 0-10.63 11.969-10.63 21.26z" transform="matrix(1.0333 0 0 1 75.354 63.779)" stroke-width=".98327pt"/>
    <path id="path685" d="m251.58 159.45c0 9.291 10.63 28.346 10.63 28.346-7.696 6.093-13.068 7.087-24.803 7.087s-19.262 1.015-24.803-7.087c0 0 10.63-19.055 10.63-28.346s-10.63-24.803-10.63-24.803c7.696-6.093 13.067-7.087 24.803-7.087 11.735 0 17.107 0.994 24.803 7.087 0 0-10.63 15.512-10.63 24.803z" transform="matrix(1.0333 0 0 1 75.354 63.779)" stroke-width=".98327pt"/>
    <ellipse id="path686" transform="matrix(1.0333 0 0 1 75.354 60.236)" cx="194.88" rx="10.63" cy="166.54" ry="10.63" stroke-width=".98327pt" d="m 205.51181,166.53543 c 0,5.87074 -4.75917,10.62992 -10.62991,10.62992 -5.87074,0 -10.62992,-4.75918 -10.62992,-10.62992 0,-5.87074 4.75918,-10.62992 10.62992,-10.62992 5.87074,0 10.62991,4.75918 10.62991,10.62992 z"/>
    <ellipse id="path687" transform="matrix(1.0333 0 0 1 163.23 60.236)" cx="194.88" rx="10.63" cy="166.54" ry="10.63" stroke-width=".98327pt" d="m 205.51181,166.53543 c 0,5.87074 -4.75917,10.62992 -10.62991,10.62992 -5.87074,0 -10.62992,-4.75918 -10.62992,-10.62992 0,-5.87074 4.75918,-10.62992 10.62992,-10.62992 5.87074,0 10.62991,4.75918 10.62991,10.62992 z"/>
    <ellipse id="path688" transform="matrix(1.0333 0 0 1 119.29 60.236)" cx="194.88" rx="10.63" cy="166.54" ry="10.63" stroke-width=".98327pt" d="m 205.51181,166.53543 c 0,5.87074 -4.75917,10.62992 -10.62991,10.62992 -5.87074,0 -10.62992,-4.75918 -10.62992,-10.62992 0,-5.87074 4.75918,-10.62992 10.62992,-10.62992 5.87074,0 10.62991,4.75918 10.62991,10.62992 z"/>
    <ellipse id="path689" transform="matrix(1.0333 0 0 1 119.29 24.803)" cx="194.88" rx="10.63" cy="166.54" ry="10.63" stroke-width=".98327pt" d="m 205.51181,166.53543 c 0,5.87074 -4.75917,10.62992 -10.62991,10.62992 -5.87074,0 -10.62992,-4.75918 -10.62992,-10.62992 0,-5.87074 4.75918,-10.62992 10.62992,-10.62992 5.87074,0 10.62991,4.75918 10.62991,10.62992 z"/>
    <ellipse id="path690" transform="matrix(1.0702 0 0 1 79.931 226.77)" cx="194.88" rx="10.63" cy="166.54" ry="10.63" stroke-width=".98327pt" d="m 205.51181,166.53543 c 0,5.87074 -4.75917,10.62992 -10.62991,10.62992 -5.87074,0 -10.62992,-4.75918 -10.62992,-10.62992 0,-5.87074 4.75918,-10.62992 10.62992,-10.62992 5.87074,0 10.62991,4.75918 10.62991,10.62992 z"/>
    <ellipse id="path691" transform="matrix(1.0702 0 0 1 140.61 226.77)" cx="194.88" rx="10.63" cy="166.54" ry="10.63" stroke-width=".98327pt" d="m 205.51181,166.53543 c 0,5.87074 -4.75917,10.62992 -10.62991,10.62992 -5.87074,0 -10.62992,-4.75918 -10.62992,-10.62992 0,-5.87074 4.75918,-10.62992 10.62992,-10.62992 5.87074,0 10.62991,4.75918 10.62991,10.62992 z"/>
    <path id="path693" d="m212.6 311.81h49.607l-24.803 31.89-24.804-31.89z" transform="matrix(1.0702 0 0 1 64.762 53.149)" stroke-width=".98327pt"/>
    <ellipse id="path692" transform="matrix(1.427 0 0 1.3333 40.745 167.72)" cx="194.88" rx="10.63" cy="166.54" ry="10.63" stroke-width=".98327pt" d="m 205.51181,166.53543 c 0,5.87074 -4.75917,10.62992 -10.62991,10.62992 -5.87074,0 -10.62992,-4.75918 -10.62992,-10.62992 0,-5.87074 4.75918,-10.62992 10.62992,-10.62992 5.87074,0 10.62991,4.75918 10.62991,10.62992 z"/>
   </g>
   <g id="g822" fill-rule="evenodd" transform="translate(-1.7678 -28.3)" fill="#fff">
    <rect id="rect818" rx="4.3492" ry="3.6873" height="21.26" width="81.496" y="524.41" x="262.2" stroke-width="1.2291"/>
    <path id="path810" d="m478.35 237.4c-9.814 0-17.716 8.259-17.716 18.519v16.111c0 10.26 7.902 18.52 17.716 18.52 9.815 0 17.717-8.26 17.717-18.52v-16.111c0-10.26-7.902-18.519-17.717-18.519zm0 7.087c-5.888 0-10.63 6.608-10.63 14.816v9.345c0 8.208 4.742 14.816 10.63 14.816 5.889 0 10.63-6.608 10.63-14.816v-9.345c0-8.208-4.741-14.816-10.63-14.816z" transform="translate(-109.84 269.29)" stroke-width="1.2291"/>
    <path id="path812" d="m478.35 237.4c-5.888 0-10.63 6.608-10.63 14.816v16.432c0 8.208 4.742 14.816 10.63 14.816 5.889 0 10.63-6.608 10.63-14.816v-16.432c0-8.208-4.741-14.816-10.63-14.816zm0-7.087c-9.814 0-17.716 8.259-17.716 18.519v23.198c0 10.26 7.902 18.52 17.716 18.52 9.815 0 17.717-8.26 17.717-18.52v-23.198c0-10.26-7.902-18.519-17.717-18.519z" transform="translate(-201.97 272.84)" stroke-width="1.2291"/>
    <path id="path811" d="m478.35 247.23c-5.888 0-10.63 6.608-10.63 14.816l-0.001 3.864c0 8.208 4.742 14.816 10.63 14.816 5.889 0 10.63-6.608 10.63-14.816l0.001-3.864c0-8.208-4.741-14.816-10.63-14.816zm0-7.087c-9.814 0-17.716 8.259-17.716 18.519l-0.001 10.63c0 10.26 7.902 18.52 17.716 18.52 9.815 0 17.717-8.26 17.717-18.52l0.001-10.63c0-10.26-7.902-18.519-17.717-18.519z" transform="translate(-230.32 270.09)" stroke-width="1.2291"/>
    <path id="path813" d="m478.35 237.4c-5.888 0-10.63 6.608-10.63 14.816v16.432c0 8.208 4.742 14.816 10.63 14.816 5.889 0 10.63-6.608 10.63-14.816v-16.432c0-8.208-4.741-14.816-10.63-14.816zm0-7.087c-9.814 0-17.716 8.259-17.716 18.519v23.198c0 10.26 7.902 18.52 17.716 18.52 9.815 0 17.717-8.26 17.717-18.52v-23.198c0-10.26-7.902-18.519-17.717-18.519z" transform="matrix(1.8 0 0 1.1176 -655.51 242.2)" stroke-width=".86655"/>
    <path id="path814" d="m478.35 237.4c-5.888 0-10.63 6.608-10.63 14.816v16.432c0 8.208 4.742 14.816 10.63 14.816 5.889 0 10.63-6.608 10.63-14.816v-16.432c0-8.208-4.741-14.816-10.63-14.816zm0-7.087c-9.814 0-17.716 8.259-17.716 18.519v23.198c0 10.26 7.902 18.52 17.716 18.52 9.815 0 17.717-8.26 17.717-18.52v-23.198c0-10.26-7.902-18.519-17.717-18.519z" transform="matrix(1.8 0 0 1.1176 -425.2 245.74)" stroke-width=".86655"/>
    <rect id="rect815" rx="2.2691" ry="3.6873" height="21.26" width="42.52" y="524.41" x="375.59" stroke-width="1.2291"/>
    <rect id="rect817" rx="1.3237" ry="4.9163" height="28.346" width="24.803" y="520.87" x="336.61" stroke-width="1.2291"/>
    <rect id="rect819" rx="1.3237" ry="4.9163" height="28.346" width="24.803" y="520.87" x="219.69" stroke-width="1.2291"/>
    <rect id="rect820" rx="2.6473" ry="6.1454" height="35.433" width="49.606" y="517.32" x="141.73" stroke-width="1.2291"/>
    <rect id="rect821" rx="2.4582" ry="6.1454" height="35.433" width="46.063" y="520.87" x="450" stroke-width="1.2291"/>
   </g>
  </g>
 </g>
</svg>
