<?xml version="1.0" encoding="UTF-8" standalone="no"?>
<!-- Created with Sodipodi ("http://www.sodipodi.com/") -->
<svg id="svg548" xmlns:rdf="http://www.w3.org/1999/02/22-rdf-syntax-ns#" xmlns="http://www.w3.org/2000/svg" height="480" width="640" version="1.1" xmlns:cc="http://creativecommons.org/ns#" xmlns:dc="http://purl.org/dc/elements/1.1/">
 <metadata id="metadata3629">
  <rdf:RDF>
   <cc:Work rdf:about="">
    <dc:format>image/svg+xml</dc:format>
    <dc:type rdf:resource="http://purl.org/dc/dcmitype/StillImage"/>
   </cc:Work>
  </rdf:RDF>
 </metadata>
 <defs id="defs550">
  <clipPath id="clipPath3278" clipPathUnits="userSpaceOnUse">
   <rect id="rect3280" fill-opacity="0.67" height="480" width="640" y="0" x="0"/>
  </clipPath>
 </defs>
 <g id="flag" clip-path="url(#clipPath3278)">
  <rect id="rect3092" height="480" width="640" y="0" x="0" fill="#fff"/>
  <rect id="rect3145" height="480" width="480" y=".000010642" x="80" fill="#fff"/>
  <path id="path560" d="m277.28 340.75s10.839-8.7879 21.386-8.7879 13.477 7.3229 20.801 7.9084c7.3239 0.58638 13.475-7.3239 22.558-7.6161 9.0821-0.29222 20.508 6.4443 20.508 6.4443l-39.843 12.013-45.41-9.9616z" fill-rule="evenodd" stroke="#083d9c" stroke-width="2pt" fill="#083d9c"/>
  <path id="path561" d="m254.43 327.86 135.35 0.58638s-11.718-12.597-25.488-12.89c-13.769-0.29512-9.9597 5.859-20.507 6.7366-10.546 0.87956-13.185-6.4444-22.852-6.1521-9.6665 0.29222-15.234 6.1521-22.557 6.4463-7.3239 0.29223-16.699-7.3258-22.266-7.0307-5.5667 0.29223-25.488 8.7879-25.488 8.7879l3.8086 3.5154z" fill-rule="evenodd" stroke="#083d9c" stroke-width="2pt" fill="#083d9c"/>
  <path id="path562" d="m237.15 311.75 166.99 0.58736c2.6358-3.8086-8.2035-12.891-18.163-13.77-8.2054 0.29222-14.062 8.4957-20.801 8.7898-6.7385 0.29223-14.355-8.4976-21.973-8.2025-7.6161 0.29222-15.526 8.2025-23.144 8.2025-7.6161 0-13.183-8.4976-22.85-8.4976-9.6675 0-14.062 9.3753-21.386 8.7899-7.3258-0.58638-13.77-9.3743-20.801-9.3743-7.0307 0-18.75 10.546-21.093 9.9597-2.3436-0.5854 2.928 4.3949 3.2232 3.5154z" fill-rule="evenodd" stroke="#083d9c" stroke-width="2pt" fill="#083d9c"/>
  <path id="path563" stroke-linejoin="round" d="m301.3 218.88 38.38 10.255v-54.786c-17.579 0.87957-32.226-33.397-1.1718-35.741-30.468-4.3949-33.985 3.5154-37.5 12.011l0.29222 68.261z" fill-rule="evenodd" stroke="#000" stroke-width="2.5" fill="#f00"/>
  <path id="path564" d="m276.99 258.72 86.718 0.29222" fill-rule="evenodd" stroke="#083d9c" stroke-linecap="round" stroke-width="4.9999" fill="#083d9c"/>
  <g id="g570" transform="matrix(1.875 0 0 1.875 -40 -.000030649)" stroke="#000" stroke-linecap="round" stroke-width="2.1333" fill="none">
   <path id="path565" d="m171.25 126.89 5.469 7.344"/>
   <path id="path566" d="m171.25 134.24 5.938-7.187"/>
   <path id="path567" d="m174.38 126.42-0.156 4.531"/>
  </g>
  <g id="g574" transform="matrix(1.875 0 0 1.875 -23.594 -.000030649)" stroke="#000" stroke-linecap="round" stroke-width="2.1333" fill="none">
   <path id="path575" d="m171.25 126.89 5.469 7.344"/>
   <path id="path576" d="m171.25 134.24 5.938-7.187"/>
   <path id="path577" d="m174.38 126.42-0.156 4.531"/>
  </g>
  <g id="g578" transform="matrix(1.875 0 0 1.875 -6.8953 -.000030649)" stroke="#000" stroke-linecap="round" stroke-width="2.1333" fill="none">
   <path id="path579" d="m171.25 126.89 5.469 7.344"/>
   <path id="path580" d="m171.25 134.24 5.938-7.187"/>
   <path id="path581" d="m174.38 126.42-0.156 4.531"/>
  </g>
  <g id="g582" transform="matrix(1.875 0 0 1.875 10.39 -.000030649)" stroke="#000" stroke-linecap="round" stroke-width="2.1333" fill="none">
   <path id="path583" d="m171.25 126.89 5.469 7.344"/>
   <path id="path584" d="m171.25 134.24 5.938-7.187"/>
   <path id="path585" d="m174.38 126.42-0.156 4.531"/>
  </g>
  <g id="g586" transform="matrix(1.875 0 0 1.875 27.089 -.000030649)" stroke="#000" stroke-linecap="round" stroke-width="2.1333" fill="none">
   <path id="path587" d="m171.25 126.89 5.469 7.344"/>
   <path id="path588" d="m171.25 134.24 5.938-7.187"/>
   <path id="path589" d="m174.38 126.42-0.156 4.531"/>
  </g>
  <path id="path590" d="m218.69 259.6 36.913 0.29318v-23.144l-42.187-2.0494 5.2745 24.901z" fill-rule="evenodd" fill="#ef7d08"/>
  <path id="path591" d="m216.93 227.67 39.258 3.8086-0.29223-16.406-38.379-15.234-0.58735 27.832z" fill-rule="evenodd" fill="#ef7d08"/>
  <path id="path592" d="m224.84 194.86 30.176 14.648 4.3088-4.4985s-2.7751-1.912-2.6377-3.6712c0.0522-1.7795 2.7916-2.0494 2.8438-3.9808 0.0503-1.7794-3.1032-1.9933-3.137-3.7737-0.2061-1.9294 2.4306-3.9982 2.4306-3.9982l-27.245-23.73-6.7395 29.004z" fill-rule="evenodd" fill="#ef7d08"/>
  <path id="path593" d="m422.88 259.89h-38.964l-0.29222-22.558 42.772-3.2231-3.5154 25.781z" fill-rule="evenodd" fill="#ef7d08"/>
  <path id="path594" d="m384.21 232.06 46.29-5.5648-9.9616-26.66-36.621 15.526 0.29222 16.698z" fill-rule="evenodd" fill="#ef7d08"/>
  <path id="path595" d="m417.9 192.51-33.398 17.578c-0.48769-1.9052-0.90183-3.737-3.2212-5.2745 0 0 2.0494-1.1718 2.0494-3.2231 0-2.0494-2.6368-2.3436-2.6368-3.5154s2.4171-2.1955 2.5632-4.8333c-0.29223-1.8307-2.5632-4.393-2.1239-4.9068l25.928-19.849 10.839 24.024z" fill-rule="evenodd" fill="#ef7d08"/>
  <path id="path596" d="m345.54 231.62 16.698-0.73152 0.29221-6.7404-16.99 7.472z" fill-rule="evenodd" fill="#ef7d08"/>
  <path id="path597" d="m294.57 231.11-17.578-0.51188v-7.0317l17.578 7.5436z" fill-rule="evenodd" fill="#ef7d08"/>
  <path id="path598" d="m294.49 229.06-17.505-9.0095v-11.718s-2.0514 0.29223-1.7582-2.0514c0.0968-4.8826 12.865 8.9118 19.409 13.403l-0.14611 9.3753z" fill-rule="evenodd" fill="#ef7d08"/>
  <path id="path599" d="m345.54 227.96-0.0716-7.6161s15.818-14.281 19.187-16.919c0 2.93-1.8298 5.199-1.8298 5.199v11.133l-17.286 8.2025z" fill-rule="evenodd" fill="#ef7d08"/>
  <path id="path600" d="m243 163.8c0.29222 0.29319 17.75 19.696 17.75 19.696 0.48962-1.8385 4.5149-2.1181 8.6157-1.8249 4.1027 0.29221 7.3723-0.2748 7.3723 2.6552 0 2.929-2.0814 2.5129-2.0814 4.5643s3.1186 1.8791 3.1186 4.513c0 2.6368-2.2613 2.0988-2.2729 4.1404-0.007 1.6875 2.3591 1.7775 2.3591 1.7775l16.626 16.114 0.0726-17.213-34.276-53.758-17.284 19.336z" fill-rule="evenodd" fill="#ef7d08"/>
  <path id="path601" d="m270.43 143.45c0.2603 0.78184 23.216 47.477 23.216 47.477s0.2603-43.825 4.1734-46.173l-6.5208-12-20.869 10.696z" fill-rule="evenodd" fill="#ef7d08"/>
  <path id="path602" d="m371.38 145.27-25.923 46.245 0.0338-19.491s2.15-3.2773-1.2415-3.0161c-3.3905 0.26029-7.5639-0.26126-7.5639-0.26126l10.434-36.521 24.26 13.044z" fill-rule="evenodd" fill="#ef7d08"/>
  <path id="path603" d="m397.99 165.1c-0.26126 0.52155-17.488 18.04-17.488 18.04-0.78184-2.0862-5.9905-1.0847-10.947-1.0847-4.9571 0-5.647 1.5888-5.3848 2.8932 0.52154 3.3915 2.1955 0.89214 2.1955 4.0234 0 3.1293-2.4113 1.9875-2.6271 4.2788 0.23996 2.6319 3.7863 1.9817 1.7088 3.9759l-19.948 19.149 0.0562-18.146 37.042-57.652 15.392 24.521z" fill-rule="evenodd" fill="#ef7d08"/>
  <path id="path604" stroke-linejoin="round" d="m309.82 268.4c-8.3477 13.826-30.664 9.7255-35.882 0.0735-1.5637-0.44317-0.63863-59.551-0.63863-59.551s-2.4936-1.136-2.6087-2.9532c-0.11418-1.8356 3.3905-2.002 3.3905-4.3514 0-2.3474-3.5792-1.4272-3.6508-3.7902 0.0155-2.2594 3.8211-1.9478 3.6508-4.0359-0.20126-2.3532-4.2624-2.0049-4.4346-4.1743-0.13159-1.7233 2.9048-3.226 3.7486-4.0011-0.54574 0.0271-2.8206-0.0338-2.8351-0.0416-2.1307 0.0435-4.2624 0.0871-6.3921 0.13063-4.541 0.005 0.0784 0.98988 0.0116 3.6102-0.0416 1.7117-2.3029 2.8506-2.5052 4.3388-0.0716 1.5279 3.2357 2.601 3.2773 4.4346 0.0378 1.6362-3.2493 1.7475-3.1312 3.2676 0.20417 2.5729 2.9116 3.139 2.8709 4.6968-0.0416 1.5559-3.6431 2.1491-3.6528 3.3906 0.12579 2.4016 0.52155 60.781 0.52155 60.781 5.739 29.739 38.868 37.304 48.26-1.8249z" fill-rule="evenodd" stroke="#000" stroke-width="2.5" fill="#f00"/>
  <path id="path606" stroke-linejoin="round" d="m331.66 268.4c8.3477 13.826 30.663 9.7255 35.881 0.0735 1.5637-0.44317 0.6396-59.551 0.6396-59.551s2.4936-1.136 2.6077-2.9532c0.11418-1.8356-3.1709-2.002-3.1709-4.3514 0-2.3474 3.3605-1.4272 3.4312-3.7902-0.0145-2.2594-3.5279-2.0939-3.3576-4.183 0.2003-2.3523 2.959-2.0775 3.1157-4.2469 0.13159-1.8685-1.732-3.0064-2.5758-3.7815 0.54574 0.0271 2.6735-0.0338 2.689-0.0416 2.1297 0.0435 4.2614 0.0871 6.3911 0.13063 4.542 0.005-0.0784 0.98988-0.0107 3.6102 0.0406 1.7117 2.302 2.8506 2.5052 4.3388 0.0707 1.5279-3.2367 2.601-3.2783 4.4346-0.0367 1.6362 3.2502 1.7475 3.1312 3.2676-0.20417 2.5729-2.9116 3.139-2.87 4.6968 0.0406 1.5559 3.6431 2.1491 3.6518 3.3906-0.12483 2.4016-0.52059 60.781-0.52059 60.781-5.7399 29.739-38.868 37.304-48.26-1.8249z" fill-rule="evenodd" stroke="#000" stroke-width="2.5" fill="#f00"/>
  <path id="path610" d="m301.71 295.59 37.277-0.0222c0.29029-0.29318-8.3457-12.874-18.632-11.987-11.46 0.29996-19.244 12.009-18.644 12.009z" fill-rule="evenodd" stroke="#083d9c" stroke-width="2pt" fill="#083d9c"/>
  <path id="path611" d="m420.57 294.68h-51.008s6.6021-3.9014 8.4018-7.502c3.2996 1.8007 2.3997 3.6005 9.0018 3.9005 6.6001 0.29996 12.901-7.5 19.203-7.2001 6.3002 0.29997 14.401 11.102 14.401 10.802z" fill-rule="evenodd" stroke="#083d9c" stroke-width="2pt" fill="#083d9c"/>
  <path id="path612" d="m219.57 294.68h51.008s-6.6021-3.9014-8.4018-7.502c-3.2996 1.8007-2.3997 3.6005-9.0018 3.9005-6.5992 0.29996-12.901-7.5-19.203-7.2001-6.3002 0.29997-14.401 11.102-14.401 10.802z" fill-rule="evenodd" stroke="#083d9c" stroke-width="2pt" fill="#083d9c"/>
  <path id="path613" d="m223.38 278.64 36.327 0.29222s-2.3436-4.9794-2.6358-11.131c-9.3772-3.2212-16.993 7.0307-23.732 7.3239-6.7366 0.29222-13.767-7.3239-13.767-7.3239l3.8076 10.839z" fill-rule="evenodd" stroke="#083d9c" stroke-width="2pt" fill="#083d9c"/>
  <path id="path614" d="m417.32 278.64-36.328 0.29222s2.3445-4.9794 2.6368-11.131c9.3762-3.2212 16.992 7.0307 23.731 7.3239 6.7375 0.29222 13.768-7.3239 13.768-7.3239l-3.8076 10.839z" fill-rule="evenodd" stroke="#083d9c" stroke-width="2pt" fill="#083d9c"/>
  <path id="path615" d="m310.97 278.94 18.455-0.58444s0.29416-5.5667-9.3743-5.5667c-9.6675 0-8.7879 6.4453-9.0811 6.1512z" fill-rule="evenodd" stroke="#083d9c" stroke-width="2pt" fill="#083d9c"/>
  <path id="path616" d="m299.84 271.03c3.2231-1.7591 6.1521-3.5154 8.2035-7.6181l-12.598 0.29222s-5.857 3.5173-8.7879 7.3258h13.183z" fill-rule="evenodd" stroke="#083d9c" stroke-width="2pt" fill="#083d9c"/>
  <path id="path617" d="m340.56 271.03c-3.2231-1.7591-6.1512-3.5154-8.2025-7.6181l12.597 0.29222s5.858 3.5173 8.7879 7.3258h-13.183z" fill-rule="evenodd" stroke="#083d9c" stroke-width="2pt" fill="#083d9c"/>
  <rect id="rect618" fill-rule="evenodd" height="120" width="720" y="360" x="-40" stroke-width="1pt" fill="#de2010"/>
  <rect id="rect619" fill-rule="evenodd" height="120" width="720" y="-4.0231e-7" x="-40" stroke-width="1pt" fill="#de2010"/>
 </g>
</svg>
