<?xml version="1.0" encoding="UTF-8" standalone="no"?>
<!-- Created with Sodipodi ("http://www.sodipodi.com/") -->
<svg id="svg548" xmlns:rdf="http://www.w3.org/1999/02/22-rdf-syntax-ns#" xmlns="http://www.w3.org/2000/svg" height="480" width="640" version="1.1" xmlns:cc="http://creativecommons.org/ns#" xmlns:dc="http://purl.org/dc/elements/1.1/">
 <metadata id="metadata3645">
  <rdf:RDF>
   <cc:Work rdf:about="">
    <dc:format>image/svg+xml</dc:format>
    <dc:type rdf:resource="http://purl.org/dc/dcmitype/StillImage"/>
   </cc:Work>
  </rdf:RDF>
 </metadata>
 <g id="flag" transform="matrix(.94087 0 0 .9375 80.178 0)">
  <g id="g575" fill-rule="evenodd" transform="matrix(1.0321 0 0 1.0321 -84 -.00041285)">
   <path id="path572" d="m0.51426 0.00046797-0.51426 496.06h659.05l-658.54-496.06z"/>
   <path id="path574" d="m0.51426 0.00046797-0.51426 496.06h659.05l-658.54-496.06z" transform="matrix(-1 0 0 -1 659.05 496.06)" fill="#f00"/>
  </g>
  <g id="g578" transform="matrix(2.3594 0 0 2.3594 -84 -.00042860)">
   <path id="selection_to_path" d="m178 54l-3.84-0.2c-1.18-2.78-4.513-3.8233-6.563-2.6533-1.86 0.16-11.6-0.147-11.6-0.147l7.12 3.12c1.76 4.76 7.88 5.88 7.88 5.88-0.543 8.7748-8.881-1.1324-15.881 3.8676-5 3-5.059 6.5828-7.761 12.371-0.84 1.609-4.36 5.761-4.36 5.761l5.88-0.5-1.88 2.5 7-1s-0.94 0.7848-1.5 1.38c1.037 0.2028 8-1.63 8-1.63l-0.5 2.25c3.57-1.43 8-2.88 8-2.88s1.57 1.31 3 1.88l1-4 4 1 1-4c6 8 8 16 19 18l-1-4c3.06 1.31 8.74 4.09 8.74 4.09l0.86-1.83c4.77 3.42 8.73 3.36 11.4 3.74 0 0-1.99-4.98-2-5 0.13 0.05 1.99 1.01 2 1 0 0-3-8-3-8s3 1 3 1l-4-6 1.5-1-0.5-3c6 2 14 5 15 12 1 11-11 14-19 13 6 5 17 3 22-2 2-2 3-5 4-8 1 3 3 7 3 11-1 9-13 12-21 13 9 5 25-1 26-14 0-11-7-16-10-21-0.45-1.82-1-5.38-1-5.38 0.388 0.1144 3 1.39 3 1.39s-1.77-3.31-2-4.01c0 0-3.12-8.5-4.25-10.38 0.186-0.1052 2.25 0.35 2.25 0.35l-8.19-10.27s1.976-0.1796 2.32-0.24c0 0-9.52-7.51-12.13-8.46 0 0 3-1 3-1-6-3-13-1-19 3l1-3-1.83 0.17v-3.43s1.83-2.74 1.83-2.74-3-1-3-1l2-5s-3 1-3 1l1-5s-2.24 1.04-3.6 0.89c0.05 0.11 1.59-3.42 1.59-3.42-0.95-1.49 0.01-4.47 0.01-4.47-7 1-8 2-12 8-6 11-4 16-3 27z" stroke="#fc0" stroke-width="1.0648" fill="#fc0"/>
   <path id="path566" d="m215.78 70.438c0.521 0.8594 6.197 3.5937 10.468 6.0156-1.146-4.6093-9.479-5.625-10.468-6.0156z" fill-rule="evenodd" stroke="#f00" stroke-width="1.0648pt" fill="#f00"/>
   <polygon id="polygon567" d="m 78.293953,180.39726 -6.36014,-4.05722 -8.536623,4.08826 1.893261,-7.3026 -6.526133,-6.85547 7.530239,-0.45603 4.503251,-8.32518 2.760683,7.02076 9.309295,1.71023 -5.824042,4.7951 z" fill-rule="evenodd" points="78.294 180.4 71.934 176.34 63.397 180.43 65.29 173.13 58.764 166.27 66.295 165.81 70.798 157.49 73.558 164.51 82.868 166.22 77.044 171.02" stroke-width="1pt" fill="#fff"/>
   <polygon id="polygon568" d="m 94.616715,144.7085 -2.950513,-1.41206 -2.835909,1.63004 0.431187,-3.24245 -2.426609,-2.1934 3.217001,-0.59189 1.336183,-2.98564 1.557028,2.87665 3.252415,0.34817 -2.254704,2.36975 z" fill-rule="evenodd" points="94.617 144.71 91.666 143.3 88.83 144.93 89.262 141.68 86.835 139.49 90.052 138.9 91.388 135.91 92.945 138.79 96.198 139.14 93.943 141.51" stroke-width="1pt" fill="#fff"/>
   <polygon id="polygon569" d="m 109.00288,124.2359 -6.47446,-3.15579 -6.270134,3.54444 1.000618,-7.13277 -5.308541,-4.86797 7.092876,-1.2525 2.989281,-6.553 3.38302,6.35868 7.15601,0.81798 -5.00205,5.18238 z" fill-rule="evenodd" points="109 124.24 102.53 121.08 96.258 124.62 97.259 117.49 91.95 112.62 99.043 111.37 102.03 104.82 105.42 111.18 112.57 112 107.57 117.18" stroke-width="1pt" fill="#fff"/>
   <polygon id="polygon570" d="m 79.400574,95.740189 -7.621278,-3.819012 -7.46663,4.11317 1.276992,-8.428405 -6.219173,-5.830148 8.410501,-1.390029 3.62297,-7.7164 3.920984,7.56932 8.458292,1.061151 -5.9872,6.068126 z" fill-rule="evenodd" points="79.401 95.74 71.779 91.921 64.313 96.034 65.59 87.606 59.37 81.776 67.781 80.386 71.404 72.669 75.325 80.239 83.783 81.3 77.796 87.368" stroke-width="1pt" fill="#fff"/>
   <polygon id="polygon571" d="m 50.904899,125.3425 -7.686314,-4.5633 -7.664737,4.66628 1.964754,-8.72025 -6.806433,-5.84764 8.900598,-0.82612 3.45813,-8.28032 3.536119,8.20969 8.943675,0.73012 -6.715157,5.89998 z" fill-rule="evenodd" transform="translate(1.1066 -.000015259)" points="50.905 125.34 43.219 120.78 35.554 125.44 37.519 116.72 30.712 110.88 39.613 110.05 43.071 101.77 46.607 109.98 55.551 110.71 48.836 116.61" stroke-width="1pt" fill="#fff"/>
  </g>
 </g>
</svg>
