<?xml version="1.0" encoding="UTF-8" standalone="no"?>
<!-- Created with Sodipodi ("http://www.sodipodi.com/") -->
<svg id="svg378" xmlns:rdf="http://www.w3.org/1999/02/22-rdf-syntax-ns#" xmlns="http://www.w3.org/2000/svg" height="480" width="640" version="1" y="0" x="0" xmlns:cc="http://creativecommons.org/ns#" xmlns:dc="http://purl.org/dc/elements/1.1/">
 <metadata id="metadata3666">
  <rdf:RDF>
   <cc:Work rdf:about="">
    <dc:format>image/svg+xml</dc:format>
    <dc:type rdf:resource="http://purl.org/dc/dcmitype/StillImage"/>
   </cc:Work>
  </rdf:RDF>
 </metadata>
 <defs id="defs380">
  <clipPath id="clipPath8673" clipPathUnits="userSpaceOnUse">
   <rect id="rect8675" fill-opacity="0.67" height="480" width="640" y="0" x="0"/>
  </clipPath>
 </defs>
 <g id="flag" clip-path="url(#clipPath8673)">
  <g id="g8587" fill-rule="evenodd" transform="translate(39.999)">
   <rect id="rect149" height="480" width="720" y="1.2138e-14" x="-39.999" stroke-width="1pt" fill="#f50013"/>
   <rect id="rect280" height="240" width="720" y="1.2138e-14" x="-39.999" stroke-width="1pt" fill="#00189a"/>
   <path id="path279" d="m-39.999 0 413.15 239.69-413.15 239.39 0.001-479.08z" stroke-width="1pt" fill="#feffff"/>
   <path id="path205" d="m-20.421 437.1 4.2112-18.49-16.605-9.1751 19.301-2.4097 4.3908-18.458 7.7175 17.003 19.317-2.2333-14.532 12.917 7.5486 17.078-16.698-9.019-14.653 12.787z" stroke-width=".11287" fill="#eca300"/>
   <path id="path425" d="m67.453 198.5-14.826-25.459-8.5262-0.96556 20.301 28.83 3.0515-2.4053zm-11.508 11.665-31.173-23.986-1.1167-13.964 12.606-0.42603 25.771 31.518-6.0873 6.8576zm-4.7339 5.4849-25.656-14.482-1.0805-8.5124 29.101 19.91-2.3639 3.0837z" stroke-width="1pt" fill="#eca300"/>
   <path id="path426" d="m104.14 193.27 7.7384-28.427-5.2941-6.7529-6.2992 34.693 3.8549 0.48677zm-16.386-0.0163-4.7804-39.042 9.1667-10.593 9.1482 8.6837-4.3772 40.477-9.1573 0.47383zm-7.2297 0.47507-7.6818-28.442 5.3075-6.7423 6.2301 34.705-3.8559 0.4791z" stroke-width="1pt" fill="#eca300"/>
   <path id="path427" d="m133.87 216.19 25.839-14.153 1.1889-8.4979-29.352 19.538 2.3244 3.1136zm-11.359-11.81 24.795-30.533 13.989-0.75002 0.0952 12.613-32.184 24.935-6.6955-6.2651zm-5.3588-4.8762 15.15-25.268 8.5378-0.85677-20.667 28.568-3.0206-2.444z" stroke-width="1pt" fill="#eca300"/>
   <path id="path428" d="m138.47 251.81 28.423 7.7533 6.7556-5.2906-34.69-6.3174-0.48879 3.8546zm0.0249-16.386 39.044-4.7599 10.588 9.1723-8.6885 9.1437-40.475-4.3985-0.46902-9.1576zm-0.47128-7.2299 28.446-7.6669 6.7395 5.3111-34.709 6.2119-0.47708-3.8561z" stroke-width="1pt" fill="#eca300"/>
   <path id="path429" d="m116.83 280.78 14.939 25.393 8.5304 0.92791-20.428-28.74-3.0409 2.4188zm11.457-11.715 31.279 23.848 1.1784 13.959-12.604 0.48168-25.91-31.404 6.057-6.8844zm4.7097-5.5057 25.72 14.368 1.118 8.5076-29.188-19.782 2.3503-3.0941z" stroke-width="1pt" fill="#eca300"/>
   <path id="path430" d="m80.273 286.2-7.5427 28.479 5.3404 6.7163 6.0605-34.735-3.8582-0.46025zm16.386-0.0964 5.0488 39.008-9.0937 10.656-9.2077-8.6206 4.0988-40.506 9.1539-0.53679zm7.2262-0.52478 7.8772 28.389-5.261 6.7787-6.4686-34.662 3.8525-0.50561z" stroke-width="1pt" fill="#eca300"/>
   <path id="path431" d="m50.609 263.87-25.608 14.567-1.0522 8.516 29.034-20.007-2.3742-3.0758zm11.547 11.626-24.301 30.928-13.975 0.97473-0.29785-12.61 31.779-25.449 6.7953 6.1567zm5.4365 4.7894-14.742 25.508-8.523 0.99386 20.205-28.897 3.0595 2.3952z" stroke-width="1pt" fill="#eca300"/>
   <path id="path432" d="m45.543 227.9-28.477-7.5514-6.7179 5.3384 34.734 6.0711 0.46143-3.858zm0.09139 16.386-39.009 5.0369-10.653-9.0969 8.6234-9.2051 40.505 4.1111 0.534 9.154zm0.52257 7.2264-28.391 7.8685-6.7771-5.2631 34.664-6.4581 0.50443 3.8526z" stroke-width="1pt" fill="#eca300"/>
   <path id="path433" d="m301.72 264.76-10.991-15.454-17.902 6.2788 11.054-16.004-10.847-15.566 17.824 5.564 11.197-15.899-0.0391 19.443 17.768 5.7399-17.847 6.452-0.2167 19.446z" stroke-width=".11287" fill="#eca300"/>
   <path id="path434" d="m-9.8517 92.122-3.4083-18.655-18.876-1.897 16.794-9.814-3.231-18.696 13.788 12.592 16.879-9.658-8.2732 17.595 13.662 12.727-18.9-1.718-8.4347 17.524z" stroke-width=".11287" fill="#eca300"/>
   <ellipse id="path418" d="m 263.71223,353.87601 c 0,40.33258 -32.69602,73.02859 -73.02861,73.02859 -40.33258,0 -73.0286,-32.69601 -73.0286,-73.02859 0,-40.33258 32.69602,-73.0286 73.0286,-73.0286 40.33259,0 73.02861,32.69602 73.02861,73.0286 z" cx="190.68" rx="73.029" cy="353.88" transform="matrix(.67733 0 0 .67733 -37.108 -.000016235)" ry="73.029" stroke-width="1pt" fill="#eca300"/>
  </g>
 </g>
</svg>
