<?xml version="1.0" encoding="UTF-8" standalone="no"?>
<!-- Created with Inkscape (http://www.inkscape.org/) -->
<svg id="Flag_of_the_Pitcairn_Islands" xmlns:rdf="http://www.w3.org/1999/02/22-rdf-syntax-ns#" xmlns="http://www.w3.org/2000/svg" height="480" width="640" version="1.0" xmlns:cc="http://creativecommons.org/ns#" xmlns:dc="http://purl.org/dc/elements/1.1/" viewBox="-15 -7.5 30 15">
 <metadata id="metadata125">
  <rdf:RDF>
   <cc:Work rdf:about="">
    <dc:format>image/svg+xml</dc:format>
    <dc:type rdf:resource="http://purl.org/dc/dcmitype/StillImage"/>
   </cc:Work>
  </rdf:RDF>
 </metadata>
 <defs id="defs3">
  <clipPath id="border">
   <rect id="rect6" y="-7.5" width="30" x="-15" height="15"/>
  </clipPath>
 </defs>
 <comment id="comment10">The above line is the ensign field color: #CF142B red and #00247D blue</comment>
 <g id="flag">
  <rect id="rect8" height="22.5" width="30" y="-11.25" x="-15" fill="#00247d"/>
  <g id="canton" transform="translate(0,-3.75)">
   <g id="g13" clip-path="url(#border)">
    <circle id="circle15" d="m 20,0 c 0,11.045695 -8.954305,20 -20,20 -11.045695,0 -20,-8.954305 -20,-20 0,-11.045695 8.954305,-20 20,-20 11.045695,0 20,8.954305 20,20 z" cx="0" cy="0" r="20" fill="#00247d"/>
    <path id="diags_white" stroke-width="3" stroke="#fff" d="m-20-10 40 20m-40 0 40-20"/>
    <path id="diags_red" stroke-width="2" stroke="#cf142b" d="m-20-10 40 20m-40 0 40-20"/>
    <path id="eraser_white" fill="#fff" d="m0 0 20 10h-3l-20-10m3 0 20-10h3l-20 10m-3 0-20 10h-3l20-10m3 0-20-10h3l20 10"/>
    <comment id="comment20">I think the above two lines give the simplest way to make the diagonals</comment>
    <path id="cross_white" stroke-width="5" stroke="#fff" d="m-20 0h40m-20-10v20"/>
    <path id="cross_red" stroke-width="3" stroke="#cf142b" d="m-20 0h40m-20-10v20"/>
   </g>
  </g>
  <g id="g2791" transform="matrix(.15883 0 0 .15883 -27.207 -8.9732)">
   <path id="path2793" d="m197.84 77.265c-2.706 2.2955-5.284 5.64-5.917 8.6634-1.782 8.5128-4.149 10.406-7.805 8.5782 0 4.5702 4.008 4.9218 5.766 2.25 0 4.2894 1.555 8.0064 5.062 11.179 1.477 1.336 1.758 0.422 1.055-1.054-0.703-1.477-0.703-6.258-2.109-9.0004 2.25 1.6171 5.554 0.7031 5.273-3.7266-2.883 1.6875-5.748 1.6215-6.047-2.3907-0.351-4.7109 1.487-11.546 4.722-14.499z" stroke="#000" stroke-width=".18616" fill="#f7e017"/>
   <path id="path2795" d="m194.42 43.401c0.191-1.689-0.17-3.4238-1.404-4.5115-2.384-2.0995-4.72-1.404-6.458 0.2867-2.602-1.4063-3.984 3.5806-6.937 2.7368 0.492 1.6172 1.266 2.3203 2.742 1.7578-1.547 1.4062 0 3.0937-1.828 4.7812 3.305 1.0548 5.063-0.7734 4.922-3.9375 1.266 1.125 3.234 1.0548 4.289-0.2109-1.758-0.5625-1.766-2.0925-1.055-3.5156 1.055-2.1094 6.01-2.0276 5.729 2.613z" stroke="#000" stroke-width=".18616" fill="#f7e017"/>
   <path id="path2797" d="m202.05 67.858c-3.727 1.9687-10.547 1.125-11.18-3.7265-0.633-4.8516 4.078-7.0313 5.344-7.6641 1.973-0.9868 3.515 0.7734 2.883 2.8125 2.179-0.7734 2.672-3.3047 1.617-4.7813 2.883 0.211 5.555-1.9687 6.68-5.0625-1.011 0.9628-3.768 0.3118-6.038 0.1655 0.703-0.7734 0.694-2.2749 0.483-3.0483-2.391 2.4609-5.836 1.3359-10.406 8.4375 0.703-2.4609 2.039-7.3828 2.812-10.617 0.077-0.3234 0.137-0.6415 0.174-0.9729 0.281-4.6406-4.668-4.7236-5.723-2.6143 1.156 1.3047 0.549 2.8267 0.135 5.1341-0.492 2.7422-1.547 9.0703-2.461 11.18-0.281-3.3047-2.461-3.5156-2.883-5.1328-0.633 0.4218-0.984 1.5468-0.843 2.3203-0.774-0.8437-3.446 0.2109-4.43-1.0547-1.055 2.1094 0.633 4.2187 2.39 5.1328-1.019 0.0703-1.265 1.3008-2.39 1.3008 1.512 1.7578 3.058 2.4609 4.851 2.6015s3.129 0.8081 4.219 2.9884c1.758 3.5156 8.455 5.8007 14.766 2.6015z" stroke="#000" stroke-width=".18616" fill="#337321"/>
   <path id="path2799" d="m211.33 63.569c-2.109 5.8359-7.875 9.9843-10.477 10.617-4.427 1.0769-13.457 5.4601-15.881 7.7164-0.383-0.0848-0.738-0.2236-0.994-0.4039-1.195-0.8437-2.179-3.5859-0.07-5.9062 6.61-6.1875 13.711-3.5157 18.141-7.7344-3.727 1.9687-10.547 1.125-11.18-3.7265 4.008 1.0546 11.25 1.125 17.016-5.0625 0.773 0.8437 3.023 3.5156 3.445 4.5z" stroke="#000" stroke-width=".18616" fill="#f7e017"/>
   <path id="path2801" d="m197.84 77.265c-3.34 2.8337-5.073 9.7884-4.722 14.499 0.098 1.3106 0.466 2.1987 1.023 2.7437 0.246-2.6719 2.104-9.5759 6.852-12.658 4.008-2.6016 10.266-8.4375 12.586-15.117-0.422-1.1953-1.125-2.039-2.461-2.8828-2.296 6.3037-8.462 9.3278-13.278 13.415z" stroke="#000" stroke-width=".18616" fill="#337321"/>
   <path id="path2803" d="m209.19 60.862c-1.196 1.793-3.903 4.2539-6.504 5.2383 0.562-0.6328 0.738-1.4415 0.773-2.1094-3.305 1.2657-9.914 1.125-12.586 0.1407 4.008 1.0546 11.25 1.125 17.016-5.0625 0.562 0.6327 1.054 1.1952 1.301 1.7929z" stroke="#000" stroke-width=".18616" fill="#316d3a"/>
   <path id="path2805" d="m183.91 75.592c-5.374 5.0307-1.828 9.4218 0.281 10.406-0.562 3.5156 2.743 3.0938 2.672 6.0469 1.336-0.7734 1.688-2.8125 1.477-4.4297 1.687 1.8282 5.976-0.2109 6.89 3.1641 0.563-3.7266-2.32-7.4532-5.906-7.1016 1.477-1.3359 0.633-3.5156-0.773-4.0781-0.281 2.7422-3.375 2.7422-4.571 1.8984-1.195-0.8437-2.179-3.5859-0.07-5.9062z" stroke="#000" stroke-width=".18616" fill="#337321"/>
   <path id="path2807" d="m195.55 107.58c-0.587 0.335-0.544 1.091-0.176 1.582 0.738 0.984-0.52 3.215 1.863 3.691 0.704 0.141 1.245-0.289 1.512-1.09 0.738-2.215-1.617-2.461-1.828-3.515-0.211-1.055-0.879-0.95-1.371-0.668z" stroke="#000" stroke-width=".18616" fill="#f7e017"/>
   <path id="path2809" d="m197.55 111.73c-0.789 0.364-1.477 0.879-1.16 3.41 0.13 1.047 0.07 3.586-0.844 3.621 0.562 0.282 1.758 0.58 2.25-0.07 0.474 0.791 1.547 0.563 1.969-0.422 0.562 0.457 1.336-0.316 1.336-0.984 0.492 0.316 1.476-0.141 1.23-1.652 0.598 0.21 1.371-0.211 1.652-0.598-0.879-0.176-3.093-1.371-3.621-2.32-0.527-0.95-1.898-1.407-2.812-0.985z" stroke="#000" stroke-width=".18616" fill="#f7e017"/>
   <g id="g2811" stroke="#000" stroke-width=".18616" fill="none">
    <path id="path2813" d="m185.37 40.621c0.354-0.5246 0.75-1.0177 1.189-1.4448"/>
    <path id="path2815" d="m198.75 49.928c0.621-0.3548 1.564-0.394 2.611-0.3267"/>
    <path id="path2817" d="m197.8 118.69c-0.246-0.351-0.334-1.828-0.158-2.725"/>
    <path id="path2819" d="m199.77 118.27c-0.387-0.299-1.125-1.318-1.248-2.215"/>
    <path id="path2821" d="m201.1 117.29c-0.493-0.229-1.688-1.776-1.952-2.777"/>
    <path id="path2823" d="m202.33 115.64c-0.58-0.124-2.355-1.284-3.094-2.514"/>
   </g>
   <path id="path2825" d="m234.75 75.663c8.649 7.2422 9.211 13.008 7.875 16.383-0.703-3.164-4.289-8.0859-8.016-9.3515l0.141-7.0313z" stroke="#000" stroke-width=".18616" fill="#f7e017"/>
   <g id="g2006">
    <g id="g2828">
     <path id="path2830" d="m219.28 71.585h16.032v18.984c0 16.172-9 25.734-18.141 30.797-9.141-5.063-18.141-14.625-18.141-30.797v-18.984h11.25c0.018 0.9844 0.106 2.4609 1.266 3.9375 2.654-0.2637 5.66-2.25 7.734-3.9375z" stroke="#000" stroke-width=".18616" fill="#337321"/>
     <path id="path2832" d="m235.31 71.585v18.984c0 4.882-0.821 9.1618-2.217 12.897l-15.92-29.213-15.92 29.213c-1.397-3.7351-2.217-8.0149-2.217-12.897v-18.984h36.282z" stroke="#000" stroke-width=".18616" fill="#006ec7"/>
     <path id="path2711" d="m233.58 102.06c-0.281 0.861-0.791 2.259-1.186 3.12l-15.22-28.285-15.22 28.285c-0.395-0.861-0.905-2.259-1.186-3.12l16.41-30.421 16.41 30.421z" fill="#f7e017"/>
    </g>
    <g id="g2835" stroke="#000" stroke-width=".18616" fill="#f7e017">
     <path id="path2837" d="m224.41 112.47c0.422 0.211 1.199 0.601 1.551 0.742 0.844-1.688 0.984-4.078 0.703-6.188-0.914 2.321-4.008 2.25-4.851 3.656 0.519 0.26 1 0.6 1.415 0.9-1.055 1.054-3.525 2.827-4.931 3.249v-15.082c0-1.0547-0.352-1.9336-0.352-2.8125v-3.1178c0-0.7031-0.14-1.7226-0.773-1.7226s-0.773 1.0195-0.773 1.7226v3.1178c0 0.8789-0.352 1.8984-0.352 2.8125v15.082c-0.773-2.25-3.802-1.48-5.208-3.73 0.55-0.134 1.129-0.175 1.692-0.067-1.054-3.586-3.937-3.867-4.5-4.922 0 1.477-0.632 4.922 0.352 6.399 0.221-0.265 0.553-0.537 0.952-0.781 1.195 2.602 6.571 2.609 7.837 6.898 1.016-1.575 4.676-3.405 7.238-6.156z"/>
     <path id="path2839" d="m217.17 99.921c1.195 0 4.992-0.3888 6.363-0.3888 0.357 0 0.647-0.5342 0.647-1.1932s-0.29-1.1933-0.647-1.1933c-1.371 0-5.168-0.3887-6.363-0.3887s-4.992 0.3887-6.363 0.3887c-0.357 0-0.647 0.5343-0.647 1.1933s0.29 1.1932 0.647 1.1932c1.371 0 5.168 0.3888 6.363 0.3888z"/>
     <path id="path2841" d="m216.4 93.74c-0.254-0.2041-0.587-0.3278-0.952-0.3278-0.797 0-1.442 0.5894-1.442 1.3164 0 0.7271 0.645 1.3164 1.442 1.3164 0.796 0 1.441-0.5893 1.441-1.3164 0-0.5625 0.818-0.5625 0.818 0 0 1.1394-1.011 2.0631-2.259 2.0631s-2.26-0.9237-2.26-2.0631c0-1.1393 1.012-2.063 2.26-2.063 0.374 0 0.727 0.0831 1.038 0.2304-0.028 0.189-0.086 0.541-0.086 0.844z"/>
     <path id="path2843" d="m210.81 99.532c0.357 0 0.646-0.5342 0.646-1.1932s-0.289-1.1933-0.646-1.1933"/>
     <path id="path2845" d="m211.34 99.532c0.357 0 0.646-0.5342 0.646-1.1932s-0.289-1.1933-0.646-1.1933"/>
     <path id="path2847" d="m214.81 99.777c0.43 0 0.779-0.644 0.779-1.4383 0-0.7944-0.349-1.4383-0.779-1.4383"/>
     <path id="path2849" d="m215.62 99.842c0.45 0 0.815-0.6732 0.815-1.5036 0-0.8305-0.365-1.5037-0.815-1.5037"/>
     <path id="path2851" d="m218.32 99.859c0.455 0 0.824-0.6809 0.824-1.5206 0-0.8399-0.369-1.5206-0.824-1.5206"/>
     <path id="path2853" d="m219.17 99.811c0.45 0 0.814-0.6592 0.814-1.4723 0-0.8132-0.364-1.4724-0.814-1.4724"/>
     <path id="path2855" d="m222.94 99.555c0.364 0 0.66-0.5448 0.66-1.2168s-0.296-1.2168-0.66-1.2168"/>
     <path id="path2857" d="m209.33 111.73c0.435-0.266 0.953-0.495 1.504-0.629"/>
     <path id="path2859" d="m223.64 111.87c-0.129-0.092-0.267-0.19-0.413-0.296"/>
     <path id="path2861" d="m224.41 112.47c0.985-1.057 1.805-2.252 2.254-3.618"/>
    </g>
    <g id="g2863" stroke="#000" stroke-width=".18616">
     <path id="path2865" d="m213.95 85.006c0-0.3427 0.282-0.4899 0.61-0.7383 0.396-0.2988 0.554-0.4394 0.914-0.4394h4.615c0.342 0 0.421 0.0879 0.421 0.4043v6.2754c0 0.3164-0.079 0.4043-0.421 0.4043h-6.139v-5.9677" fill="#fff"/>
     <path id="path2867" d="m218.95 91.457c0.606 0 0.497-0.0132 0.923-0.4394 0.444-0.4439 0.402-0.4044 0.402-0.8128v-5.7379c0-0.2959-0.073-0.3781-0.391-0.3781h-4.27c-0.334 0-0.48 0.1315-0.846 0.411-0.304 0.2322-0.561 0.3699-0.561 0.6905v6.2667h4.743z" fill="#e5e5e5"/>
     <path id="path2869" d="m219.4 91.325c0 0.3164-0.079 0.4043-0.422 0.4043h-4.614c-0.343 0-0.417-0.0879-0.417-0.4043v-6.2754c0-0.3164 0.074-0.4043 0.417-0.4043h4.614c0.343 0 0.422 0.0879 0.422 0.4043v6.2754z" fill="#fff"/>
    </g>
   </g>
   <g id="g2871">
    <path id="path2875" d="m228.35 67.908c0.899 1.002 1.195 2.3525 0.705 3.671h-1.336c0.562-1.6875 0.211-3.2985-2.18-3.5094-3.575-0.3155-7.734 6.6093-13.992 7.4531-1.828-2.1797-1.73-6.3317 0.59-8.3005-1.199-3.4582-3.733-7.2612-5.486-8.9073-1.148-0.1867-2.474-0.2802-3.331-0.2297 0.914-1.9688 3.519-4.0409 5.629-4.8846 0.341-0.4993 0.708-0.979 1.051-1.4084 0.211-2.707 13.078-1.4414 15.82 0.2461 0 3.0234 1.194 13.128 2.53 15.87z" stroke="#000" stroke-width=".18616" fill="#96877d"/>
    <g id="g2877">
     <path id="path2879" d="m212.75 69.753c-0.306-4.6868-2.2-8.5465-4.863-11.176 1.265 0.3516 3.867 0.3516 5.625-0.914 2.32-1.5469 8.367-4.254 10.582-3.0937 0.176 0.3866 0.281 1.2656 0.14 1.8281-0.527-1.4063-6.363 0.7734-8.015 1.4414-1.582 0.7382-2.285 1.7226-1.723 3.9375-0.914-0.7735-0.598-1.5118-1.547-2.0743 0.387 0.9141 0.703 2.5664 0.809 3.9024-0.352-0.9492-0.985-2.9883-2.356-4.1836 1.196 2.3203 2.233 7.8925 1.741 10.846 0.949 0 3.041-0.9316 3.884-1.5996-0.738 1.0546-2.865 1.793-4.236 2.0742-0.615 0.7383-1.037 2.6367-1.002 3.6914-0.105-1.3007 0.305-4.4713 0.961-4.679z"/>
     <path id="path2881" d="m228.35 67.908c-1.164-1.2958-3.336-1.9974-6.116-1.2447 0.422-0.211 1.336-0.5625 2.145-0.7031-0.105-0.7384-0.773-3.9024-0.879-4.6759l0.774-0.3163c0.386 1.8984 0.878 4.0781 1.195 4.957 0.246 0.0703 0.808 0.1758 1.301 0.4218-0.211-0.7382-1.407-6.0468-1.371-6.6093l1.054-0.5625c0.422 2.8828 1.09 7.0664 1.897 8.733z"/>
    </g>
    <g id="g2985" stroke="#000" stroke-width=".18616" fill="#96877d">
     <path id="path2873" d="m227.72 71.578c0.562-1.6875 0.211-3.2985-2.18-3.5094-1.853-0.1636-3.863 1.6373-6.242 3.5094h8.422z"/>
     <path id="path2883" d="m212.18 56.432c-1.055 0.1407-3.41-0.0703-4.606-0.457 0.069-0.3174 0.192-0.6461 0.35-0.9942-0.739 0.4922-2.143 1.4512-2.67 2.1192 1.688 0.3515 5.171 0.5267 6.926-0.668z"/>
    </g>
    <path id="path2885" d="m212.14 67.222c0.388 1.1209 0.641 2.2039 0.676 3.1676" stroke="#000" stroke-width=".18616" fill="none"/>
    <path id="path2887" d="m208.95 53.2c-0.638 0.9314-1.192 1.9283-1.375 2.7752 1.196 0.3867 3.551 0.5977 4.606 0.457" stroke="#000" stroke-width=".18616" fill="none"/>
    <path id="path2889" d="m206.65 58.314c0.455 0.0738 0.881 0.1628 1.24 0.2624 1.265 0.3516 3.867 0.3516 5.625-0.914s6.539-5.2031 11.953-5.625" stroke="#000" stroke-width=".18616" fill="none"/>
    <path id="path2891" d="m205.25 57.1c1.688 0.3515 5.171 0.5267 6.926-0.668 4.078-2.7773 8.015-4.3945 11.953-4.6055" stroke="#000" stroke-width=".18616" fill="none"/>
   </g>
   <path id="path2893" d="m234.75 75.663c5.906 4.0781 10.266 8.0156 11.531 14.344 1.266 6.3281 3.657 8.0156 6.61 6.3281-0.703 3.6562-4.36 4.0783-7.453 1.2656 0.281 4.2187-1.407 9.2817-5.766 11.11-0.281-2.532 1.392-4.536 0.914-6.61-0.211-0.914-0.281-3.0232 0.914-4.0075-2.32 0.7734-5.976-0.7032-6.328-4.1484 2.672 1.2656 6.117 1.4765 7.453-1.8985s0.774-9.1406-7.875-16.383z" stroke="#000" stroke-width=".18616" fill="#337321"/>
   <path id="path2895" d="m242.2 42.757c1.828-4.7813 6.61-4.2891 8.227-2.25 4.711-2.6719 5.344 3.375 9.351 2.1796-0.07 1.125-1.406 2.1797-2.882 2.1094 1.546 1.4062-0.633 3.5156 2.671 4.7812-2.812 1.4063-6.75-0.0702-7.804-3.9375-0.914 1.8282-4.219 1.8282-5.555 0.3516 2.883-0.7734 2.672-3.4453 1.055-4.5-1.629-1.0623-4.5-0.6328-5.063 1.2657z" stroke="#000" stroke-width=".18616" fill="#337321"/>
   <path id="path2897" d="m227.94 53.286c1.312 4.2318 4.026 8.1647 6.951 10.846 3.375 3.0937 8.472 2.3202 11.32-0.6329 0.07 5.8887-6.029 6.3457-9.422 4.5-1.495-0.8134-2.705-0.386-1.265 0.9141 2.179 1.9688 6.948 3.4326 12.585 4.6406 9.844 2.1094 6.329 9.9141 3.446 9.8438 0.826-0.0177 1.504-0.8828 0.316-1.9512-8.543-7.6817-25.91-4.6582-25.629-21.814-1.828 4.5-9.351 2.7421-5.836-2.6016 1.125 0.9141 3.094 0.9843 3.657-0.4219 0.437-1.0942 0.151-2.9973-1.819-4.6326 0.324-0.0256 1.019 0.0008 0.948-0.8078 0.088 0.4745 0.519 1.1777 1.626 0.9404 0.317 0.501 0.649 0.8304 1.099 0.6504 0.088-0.0352 0.352-0.167 0.246-0.668 0.088 0.9317 1.195 1.2657 1.777 1.1953z" stroke="#000" stroke-width=".18616" fill="#337321"/>
   <path id="path2899" d="m236.79 67.999c4.078 2.6719 8.689 2.67 12.938-2.25 1.336-1.5469 3.445-2.8828 4.922-3.0234 1.476-0.1406 1.406-1.5469 2.531-1.8281-0.703-0.211-0.985-1.0547-2.039-0.9492 2.636-0.9142 1.863-3.0235 3.164-4.043-1.055 0.3867-2.707-1.1953-4.219 0.8086 0.387-0.9141-0.141-2.0039-0.527-2.4258 0.14 1.0547-2.075 1.2656-2.496 3.9375-0.237 1.4992-1.055 1.4063-1.196-0.9141-0.103-1.6975-0.914-6.3984-1.898-8.789-0.985-2.3906-1.21-5.6725 0.126-6.1648-0.201-0.34-0.483-0.6404-0.829-0.8665-1.629-1.0623-4.5-0.6328-5.063 1.2657-1.828 4.7812 3.305 7.5234 2.883 12.726-0.773-3.8672-7.031-4.8515-6.961-8.6484-2.039 0.914-1.758 2.6015-0.984 3.9375-1.266-1.9688-4.149 1.2656-6.61-1.4063-0.281 3.5157 2.813 4.8516 5.344 4.9922-1.266 2.25 0.422 4.1485 2.109 4.7812 0.071-3.9375 8.145-2.3213 8.227 4.4298 0.07 5.7656-6.117 6.2577-9.422 4.4296z" stroke="#000" stroke-width=".18616" fill="#f7e017"/>
   <path id="path2901" d="m248.11 73.553c9.844 2.1094 6.329 9.9141 3.446 9.8438-1.836-0.0448-3.586-1.5821-3.692-2.918-2.109 1.125-1.546 3.3399 0.071 4.2188-4.43-0.5274-6.293 2.3906-6.399 5.5898 0.809-1.4766 3.27-1.5821 4.184-1.2656 0.914 0.3164 3.269 0.4921 4.219-0.5625-0.774 0.6679 0.492 2.2148-0.598 3.4101 3.691-0.1406 5.309-3.586 4.676-5.0976 4.781-4.3594 3.867-11.461-5.907-13.219z" stroke="#000" stroke-width=".18616" fill="#f7e017"/>
   <path id="path2903" d="m240.61 106.96c0.641 0.4 0.56 1.241 0.127 1.773-0.867 1.067 0.44 3.612-2.241 4.04-0.791 0.126-1.377-0.378-1.64-1.283-0.727-2.504 1.913-2.676 2.194-3.844 0.282-1.168 1.023-1.022 1.56-0.686z" stroke="#000" stroke-width=".18616" fill="#f7e017"/>
   <path id="path2905" d="m238.2 111.5c0.865 0.441 1.61 1.045 1.147 3.857-0.192 1.163-0.235 3.999 0.784 4.079-0.641 0.289-1.988 0.57-2.509-0.177-0.564 0.862-1.751 0.561-2.179-0.557-0.648 0.486-1.477-0.411-1.448-1.157-0.563 0.332-1.642-0.221-1.302-1.898-0.676 0.21-1.521-0.295-1.818-0.739 0.989-0.158 3.513-1.395 4.143-2.432 0.63-1.036 2.18-1.487 3.182-0.976z" stroke="#000" stroke-width=".18616" fill="#f7e017"/>
   <g id="g2907" stroke="#000" stroke-width=".18616" fill="none">
    <path id="path2909" d="m237.62 119.26c0.29-0.382 0.453-2.026 0.296-3.034"/>
    <path id="path2911" d="m235.44 118.71c0.445-0.316 1.313-1.422 1.49-2.417"/>
    <path id="path2913" d="m233.99 117.55c0.559-0.233 1.961-1.908 2.299-3.015"/>
    <path id="path2915" d="m232.69 115.65c0.653-0.112 2.685-1.329 3.563-2.67"/>
   </g>
   <path id="path2917" d="m226.24 59.632c-0.118 7.207 2.878 10.853 7.027 13.227-1.542-0.9227-0.874-4.0867-2.949-5.1063 0.493-0.0351 1.266 0.668 2.497 0.3867-0.598-1.3359-1.583-3.375-3.868-3.6562 0.598-0.0703 1.899 0.1406 2.743-0.1758-1.196-1.8281-4.36-0.9492-5.45-4.6757z" stroke="#000" stroke-width=".18616" fill="#f7e017"/>
   <path id="path2919" d="m225.49 52.778c-0.253-0.0833-0.468-0.3384-0.678-0.67-1.107 0.2373-1.538-0.4659-1.626-0.9404 0.071 0.8086-0.628 0.7782-0.953 0.8038 1.979 1.6371 2.262 3.5406 1.824 4.6366-0.563 1.4062-2.532 1.336-3.657 0.4219-0.14 2.9882 3.727 3.9726 5.133 0.2109 0 0.6328 0.809 0.5625 1.02 1.4063 1.004-1.6165 0.246-3.9374-1.063-5.8691z" stroke="#000" stroke-width=".18616" fill="#f7e017"/>
   <g id="g2921">
    <path id="path2923" d="m219.32 38.503c-1.758-1.6171-2.567-4.3242-2.497-5.871 0.071-1.5469 0.704-3.2344 2.954-2.5313-0.704 0-0.211 1.4063-0.95 1.5469 0.598 0.2109 1.407-0.2813 1.512-0.5977 0.141 0.4922 1.055 0.3516 1.125 0.9141 0.352-0.2813-0.035-1.6524-0.562-1.9336 0.386-0.2109 0.597-1.3008 0.421-1.8282-0.351 0.0704-0.878 0.5625-0.984 1.2657 0.176-0.5625-0.035-1.9688-1.019-2.1797-0.282 0.3867-0.352 1.3359 0.035 1.8633-0.914-0.211-2.25 0.3867-2.567 1.1601 0.071-0.9317 0.199-2.2581 0.774-3.0937 0.193-0.2813-0.282-0.7734-0.651-0.1055-0.685-1.3359-2.513-2.039-3.322-1.3711s-1.898-0.3164-2.566 0.7383c-0.668 1.0546-2.931 1.1658-2.813 2.2851 0.07 0.668-0.091 1.7-0.422 2.0743-0.808 0.914 0.387 1.582 0.598 2.3906-0.141-2.6719 4.113-7.875 8.367-5.836-0.387 0.668-0.725 2.0022-0.844 3.6211-0.175 2.3907 0.176 5.7657 2.496 7.7344l0.915-0.2461z" stroke="#000" stroke-width=".18616" fill="#337321"/>
    <path id="path2925" d="m220.58 30.136c-0.023-0.6334 1.072-1.4561 2.549-1.4414 1.775 0.0175 3.146 1.6347 4.57 1.4765s0.721 0.6328 0.422 0.8437c-0.299 0.211-0.474 0.5274-0.369 0.9141s-0.077 0.6396-0.65 0.2813c-1.266-0.791-2.532 0.3164-4.202-0.2989-1.448-0.5335-2.285-0.8261-2.32-1.7753z" stroke="#000" stroke-width=".18616" fill="#cf142b"/>
    <path id="path2927" d="m213.34 46.729c-0.703-2.2149-3.375-4.6406-4.676-5.2031l-0.07-1.1954c0.703-0.2812 2.39-1.6171 3.164-2.3554 5.273 2.5313 12.445-1.0547 15.75-4.7812l1.266 0.7734-0.633 0.8437-0.668-0.3515c-0.809 0.9844-3.828 3.8251-4.742 4.4227 1.229 0.3106 2.909 0.5248 3.371 0.4992 2.953-2.1094 5.273-4.0079 6.398-4.1485l0.949 1.2656-0.843 0.5976-0.668-0.3866c-3.164 2.6015-6.75 8.2969-8.157 12.094-1.968-0.4218-9-0.1406-10.441-2.0742z" stroke="#000" stroke-width=".18616" fill="#96877d"/>
    <path id="path2929" d="m222.73 38.882c-0.455-0.1152-0.847-0.2467-1.094-0.3798-0.563 0.5274-1.969 0.9844-3.762 1.0547" stroke="#000" stroke-width=".18616" fill="none"/>
    <path id="path2931" d="m213.62 45.956c-0.474-2.6191 0.281-5.5195 1.617-6.3984 2.918 1.9336 7.911 1.9336 10.864-0.1757" stroke="#000" stroke-width=".18616" fill="none"/>
    <path id="path2933" d="m213.62 44.585c2.25-0.0704 7.137 0.3164 8.332 0.4921 1.196 0.1758 3.199 0.668 2.918 1.2657" stroke="#000" stroke-width=".18616" fill="none"/>
    <path id="path2935" d="m214.66 44.212 0.647-0.6464-0.647-0.6463-0.646 0.6463 0.646 0.6464z" stroke="#000" stroke-width=".18616" fill="none"/>
    <path id="path2937" d="m216.19 31.12c-0.809-1.125-3.037-1.4809-3.516 0.0352-0.211 0.668-0.527 1.3711-1.055 1.6875-0.527 0.3163-0.403 1.2745-0.175 1.6875 0.562 1.0195 0.07 2.0038 1.16 2.6718 0-0.8086 1.195-1.6523 2.215-1.8632 1.019-0.211 2.566-1.125 2.777-2.1445 0.211-1.0196 0.562-1.8634-1.406-2.0743z" stroke="#000" stroke-width=".18616" fill="#337321"/>
    <path id="path2939" d="m211.12 41.245h0.281l0.005 1.9229c0.057 0.0199 0.121 0.0469 0.167 0.0886l1.657-0.9556 0.141 0.2436-1.663 0.9652c0.011 0.06 0.02 0.1285 0.007 0.1895l1.656 0.9572-0.141 0.2436-1.667-0.9576c-0.046 0.04-0.101 0.0815-0.161 0.1009l-0.001 1.9128h-0.281l-0.004-1.9229c-0.058-0.0199-0.122-0.0469-0.168-0.0886l-1.657 0.9556-0.14-0.2437 1.662-0.9652c-0.011-0.0599-0.02-0.1284-0.007-0.1894l-1.655-0.9574 0.14-0.2436 1.668 0.9578c0.046-0.04 0.101-0.0815 0.16-0.1009l0.001-1.9128z" stroke="#000" stroke-width=".18616" fill="#96877d"/>
    <path id="path2941" d="m213.63 45.947c-0.604 0.608-1.44 0.9845-2.364 0.9845-1.84 0-3.332-1.4914-3.332-3.3312 0-1.8397 1.492-3.3311 3.332-3.3311 1.081 0 2.041 0.5149 2.65 1.3127-0.172 0.4187-0.371 1.3596-0.386 1.7856-0.116-1.1478-1.086-2.0437-2.264-2.0437-1.258 0-2.277 1.0193-2.277 2.2765 0 1.2573 1.019 2.2764 2.277 2.2764 1.052 0 1.962-0.7356 2.223-1.7051-0.001 0.4174 0.009 1.4238 0.141 1.7754z" stroke="#000" stroke-width=".18616" fill="#96877d"/>
    <path id="path2943" d="m209.86 49.12c-0.21-0.2461-0.597-0.9141-0.562-1.4062 0.316-0.0352 0.914 0.1757 1.195 0.457-0.035-0.3515-0.175-1.125-0.105-1.4765 0.387 0.1406 1.195 0.5976 1.476 1.125-0.07-0.3516-0.211-1.2657-0.07-1.8282 0.422 0.2461 1.125 0.9141 1.266 1.3711 0.035-0.7032 0.281-1.8633 0.492-2.1445 0.316 0.3163 0.808 0.5976 1.125 1.0195 0.07-0.5625 0.351-1.2304 0.773-1.4063 0.317 0.3516 0.809 1.1602 0.914 2.0743 0.317-0.1055 0.739-0.6328 0.914-0.9141 0.176 0.2813 0.352 0.7734 0.247 1.3711 0.386-0.3515 0.843-0.8438 0.949-1.2657 0.281 0.211 0.808 0.7384 0.949 1.3009-0.07-0.4571-0.035-1.2656-0.176-1.7227 0.528 0.2812 0.949 0.7735 1.055 1.3008 0.141-0.4922 0.457-1.3711 0.738-1.5821 0.281 0.5625 0.563 1.2305 0.528 1.793 0.175-0.3515 0.457-0.9844 0.738-1.125 0.246 0.3868 0.211 1.2305 0.14 1.6875 0.247-0.3515 0.704-0.7734 0.985-0.914 0.035 0.2109 0.07 0.6328 0 0.9491 0.316-0.1757 0.844-1.125 1.019-1.6171 0.493 0.2461 0.985 1.0899 1.02 1.5117 0.351-0.1406 1.055-0.7734 1.265-1.125 0 0.2461 0.106 0.9141-0.035 1.4414 0.211-0.211 0.422-0.6328 0.528-0.8086 0.14 0.3516 0.035 1.1954-0.106 1.6524 0.317-0.2813 0.774-0.457 1.055-0.457 0.035 0.5976-0.387 1.6522-0.774 2.4257-3.375-0.9492-10.441-1.3007-17.543-1.6875z" stroke="#000" stroke-width=".18616" fill="#337321"/>
    <path id="path2945" d="m221.63 30.495c-0.017-0.2591 0.562-0.8456 1.597-0.8396 1.242 0.0072 2.389 0.9187 3.386 0.854s0.505 0.2589 0.296 0.3452c-0.21 0.0863-0.333 0.2157-0.259 0.3739s-0.054 0.2617-0.455 0.1151c-0.886-0.3236-1.772 0.1294-2.941-0.1223-1.014-0.2183-1.6-0.338-1.624-0.7263z" fill="#f7e017"/>
   </g>
   <g id="g2947" stroke="#000" stroke-width=".18616">
    <g id="g2949" fill="#f7e017">
     <path id="path2951" d="m210.95 51.229c-1.054 1.2656-2.109 1.0546-2.32 0.2461-0.211-0.8086 0.563-1.1953 0.281-1.8985-0.281-0.7031 0.457-1.0195 0.809-0.7031 0.351 0.3164 1.476-0.7031 1.969 0.3516 0.492 1.0547 0.879 1.7929 0.597 2.2148-0.281 0.4219-1.125 0.211-1.336-0.2109z"/>
     <path id="path2953" d="m215.48 49.331c-0.198-0.4626 0.897-1.3534 1.459-0.7207 0.563 0.6329 1.442-0.6855 1.934 0.3164 0.492 1.002 0.65 1.5293 0.897 2.0918 0.246 0.5625-1.336 0.8613-1.829 0.3692 0.071 0.3339-1.366 0.5955-1.757-0.3516-0.211-0.5097-0.44-1.0898-0.704-1.7051z"/>
     <path id="path2955" d="m222.8 49.911c-0.264-0.4921 1.02-1.1953 1.687-0.2988 0.176-0.3691 1.442-0.4395 1.53 0.6328 0.088 1.0722 0.123 1.7051 0.158 2.127s-0.773 0.8086-1.354-0.2637c-1.037 0.211-1.511-0.3692-1.634-0.9844s-0.246-0.914-0.387-1.2129z"/>
    </g>
    <g id="g2957" fill="#337321">
     <path id="path2959" d="m211.63 49.208c-0.158-0.3515 0.896-1.0547 1.617-0.5273 0.721 0.5273 1.719-0.455 2.145 0.4921 0.861 1.9161 0.914 2.0567 0.65 2.4258-0.264 0.3692-1.389 0.2285-1.67-0.2813-0.053 0.3517-1.023 0.2937-1.529 0.0177-0.58-0.3165-0.985-1.4942-1.213-2.127z"/>
     <path id="path2961" d="m219.03 49.296c-0.246-0.545 1.407-1.0195 2.127-0.0703 0.369-0.334 1.178-0.3516 1.635 0.6855 0.457 1.0372 0.527 1.6172 0.193 1.8809-0.235 0.1854-1.09 0.3339-1.371-0.1406-0.387 0.2461-1.582 0.0351-1.845-0.6329-0.264-0.6679-0.493-1.248-0.739-1.7226z"/>
     <path id="path2963" d="m226.03 50.333c-0.035-0.4922 0.862-0.7207 1.196 0s1.402 0.0717 1.494 1.2656c0.017 0.2285-0.123 1.1074-0.457 1.5293s-1.969 0-2.074-0.8964c-0.106-0.8965-0.141-1.4063-0.159-1.8985z"/>
    </g>
    <g id="g2965" fill="none">
     <path id="path2967" d="m210.95 51.229c-0.386-0.5274-0.914-1.3711-1.582-0.457"/>
     <path id="path2969" d="m214.38 51.317c-0.228-0.2988-0.527-0.7909-0.633-1.1777"/>
     <path id="path2971" d="m217.94 51.387c-0.246-0.1758-0.615-0.5274-0.808-0.8965"/>
     <path id="path2973" d="m217.63 49.542c0.615 0.0703 1.037 0.6503 1.23 0.914 0.194 0.2637 0.598 0.7384 0.915 0.7911"/>
     <path id="path2975" d="m221.62 51.651c-0.211-0.3341-0.422-0.6329-0.474-0.8789"/>
     <path id="path2977" d="m221.16 49.225c0.211 0.2988 0.369 0.5449 0.492 0.8261"/>
     <path id="path2979" d="m224.82 52.108c-0.281-0.5274-0.72-1.0371-1.089-1.2129"/>
     <path id="path2981" d="m224.68 50.174c0.035 1.0371 1.424 1.1074 1.476 1.8457"/>
     <path id="path2983" d="m227.22 50.333c0.14 0.2636 0.193 0.5273 0.211 0.9668"/>
    </g>
   </g>
  </g>
 </g>
</svg>
