<?xml version="1.0" encoding="UTF-8" standalone="no"?>
<!-- Created with Sodipodi ("http://www.sodipodi.com/") -->
<svg id="svg548" xmlns:rdf="http://www.w3.org/1999/02/22-rdf-syntax-ns#" xmlns="http://www.w3.org/2000/svg" height="480" width="640" version="1" y="0" x="0" xmlns:cc="http://creativecommons.org/ns#" xmlns:xlink="http://www.w3.org/1999/xlink" xmlns:dc="http://purl.org/dc/elements/1.1/">
 <metadata id="metadata4089">
  <rdf:RDF>
   <cc:Work rdf:about="">
    <dc:format>image/svg+xml</dc:format>
    <dc:type rdf:resource="http://purl.org/dc/dcmitype/StillImage"/>
   </cc:Work>
  </rdf:RDF>
 </metadata>
 <defs id="defs550">
  <linearGradient id="linearGradient6733" y2="-5035.4" gradientUnits="userSpaceOnUse" y1="-5035.4" gradientTransform="matrix(.085350 0 0 .14208 -225.71 715.44)" x2="4203.4" x1="359.59">
   <stop id="stop562" offset="0"/>
   <stop id="stop563" stop-color="#fff" offset="1"/>
  </linearGradient>
  <clipPath id="clipPath7504" clipPathUnits="userSpaceOnUse">
   <rect id="rect7506" fill-opacity="0.67" height="512" width="682.67" y=".0000053048" x="-72.352"/>
  </clipPath>
 </defs>
 <g id="flag" clip-path="url(#clipPath7504)" transform="matrix(.9375 0 0 .9375 67.83 -.0000049733)">
  <rect id="rect555" height="511.87" width="307.43" stroke="url(#linearGradient6733)" y=".064535" x="-114.94" stroke-width=".11012pt" fill="#090"/>
  <rect id="rect557" fill-rule="evenodd" height="512" width="461.15" y="-.0000025034" x="191.82" stroke-width="1pt" fill="#f00"/>
  <g id="g1527" fill-rule="evenodd" stroke-width="1pt" transform="matrix(.10329 0 0 .10306 23.562 74.592)">
   <g id="g1009" transform="matrix(-.053403 1.0792 .43966 -.043588 1384.9 -475.58)">
    <rect id="rect1010" height="2824.2" width="171.54" y="376.91" x="1528.3"/>
    <rect id="rect1011" height="2768.8" width="131.37" y="404.6" x="1548.3" fill="#efef00"/>
    <g id="g1012" transform="translate(9.3838 -.000030518)">
     <rect id="rect1013" height="2852.7" width="56.303" y="357.96" x="1482.6"/>
     <rect id="rect1014" height="2802" width="15.952" y="383.29" x="1502.8" fill="#efef00"/>
    </g>
    <g id="g1015" transform="translate(197.06 -.000030518)">
     <rect id="rect1016" height="2852.7" width="56.303" y="357.96" x="1482.6"/>
     <rect id="rect1017" height="2802" width="15.952" y="383.29" x="1502.8" fill="#efef00"/>
    </g>
   </g>
   <g id="g1000" transform="matrix(-.053403 1.0792 .43966 -.043588 1572.6 115.61)">
    <rect id="rect1001" height="2824.2" width="171.54" y="376.91" x="1528.3"/>
    <rect id="rect1002" height="2768.8" width="131.37" y="404.6" x="1548.3" fill="#efef00"/>
    <g id="g1003" transform="translate(9.3838 -.000030518)">
     <rect id="rect1004" height="2852.7" width="56.303" y="357.96" x="1482.6"/>
     <rect id="rect1005" height="2802" width="15.952" y="383.29" x="1502.8" fill="#efef00"/>
    </g>
    <g id="g1006" transform="translate(197.06 -.000030518)">
     <rect id="rect1007" height="2852.7" width="56.303" y="357.96" x="1482.6"/>
     <rect id="rect1008" height="2802" width="15.952" y="383.29" x="1502.8" fill="#efef00"/>
    </g>
   </g>
   <g id="g991" transform="matrix(-.053403 1.0792 .43966 -.043588 1497.5 781.86)">
    <rect id="rect992" height="2824.2" width="171.54" y="376.91" x="1528.3"/>
    <rect id="rect993" height="2768.8" width="131.37" y="404.6" x="1548.3" fill="#efef00"/>
    <g id="g994" transform="translate(9.3838 -.000030518)">
     <rect id="rect995" height="2852.7" width="56.303" y="357.96" x="1482.6"/>
     <rect id="rect996" height="2802" width="15.952" y="383.29" x="1502.8" fill="#efef00"/>
    </g>
    <g id="g997" transform="translate(197.06 -.000030518)">
     <rect id="rect998" height="2852.7" width="56.303" y="357.96" x="1482.6"/>
     <rect id="rect999" height="2802" width="15.952" y="383.29" x="1502.8" fill="#efef00"/>
    </g>
   </g>
   <g id="g982" transform="matrix(.053403 1.0792 -.43966 -.043588 1815 734.94)">
    <rect id="rect983" height="2824.2" width="171.54" y="376.91" x="1528.3"/>
    <rect id="rect984" height="2768.8" width="131.37" y="404.6" x="1548.3" fill="#efef00"/>
    <g id="g985" transform="translate(9.3838 -.000030518)">
     <rect id="rect986" height="2852.7" width="56.303" y="357.96" x="1482.6"/>
     <rect id="rect987" height="2802" width="15.952" y="383.29" x="1502.8" fill="#efef00"/>
    </g>
    <g id="g988" transform="translate(197.06 -.000030518)">
     <rect id="rect989" height="2852.7" width="56.303" y="357.96" x="1482.6"/>
     <rect id="rect990" height="2802" width="15.952" y="383.29" x="1502.8" fill="#efef00"/>
    </g>
   </g>
   <g id="g937" transform="matrix(-.31852 .97312 -.46881 -.050001 2307.7 363.88)">
    <rect id="rect938" height="2824.2" width="171.54" y="376.91" x="1528.3"/>
    <rect id="rect939" height="2768.8" width="131.37" y="404.6" x="1548.3" fill="#efef00"/>
    <g id="g940" transform="translate(9.3838 -.000030518)">
     <rect id="rect941" height="2852.7" width="56.303" y="357.96" x="1482.6"/>
     <rect id="rect942" height="2802" width="15.952" y="383.29" x="1502.8" fill="#efef00"/>
    </g>
    <g id="g943" transform="translate(197.06 -.000030518)">
     <rect id="rect944" height="2852.7" width="56.303" y="357.96" x="1482.6"/>
     <rect id="rect945" height="2802" width="15.952" y="383.29" x="1502.8" fill="#efef00"/>
    </g>
   </g>
   <g id="g928" transform="matrix(-.78495 .83247 -.34476 -.23585 2811.1 622.21)">
    <rect id="rect929" height="2824.2" width="171.54" y="376.91" x="1528.3"/>
    <rect id="rect930" height="2768.8" width="131.37" y="404.6" x="1548.3" fill="#efef00"/>
    <g id="g931" transform="translate(9.3838 -.000030518)">
     <rect id="rect932" height="2852.7" width="56.303" y="357.96" x="1482.6"/>
     <rect id="rect933" height="2802" width="15.952" y="383.29" x="1502.8" fill="#efef00"/>
    </g>
    <g id="g934" transform="translate(197.06 -.000030518)">
     <rect id="rect935" height="2852.7" width="56.303" y="357.96" x="1482.6"/>
     <rect id="rect936" height="2802" width="15.952" y="383.29" x="1502.8" fill="#efef00"/>
    </g>
   </g>
   <g id="g606" transform="translate(3443.9 797.63)">
    <path id="path607" d="m-576.02-680.03c0.472 617.58-500.34 1118.8-1117.9 1118.8-617.58 0.981-1119.2-499.44-1119.7-1117-1.49-617.6 498.53-1119.6 1116.1-1120.6 617.58-1.96 1120 497.67 1121.5 1115.2 0.026 1.253 0.026 2.31 0.026 3.564zm262.44-0.001c0.582 762.45-617.7 1381.2-1380.1 1381.2-762.44 1.211-1381.8-616.6-1382.3-1379-1.85-762.47 615.47-1382.2 1377.9-1383.4 762.45-2.42 1382.7 614.41 1384.5 1376.8 0.032 1.547 0.032 2.852 0.032 4.399z" fill-opacity=".99967" transform="translate(-149.86 1690.5)" fill="#efef00"/>
    <path id="path608" d="m296.75 2625.1c0.582 762.45-617.7 1381.2-1380.1 1381.2-762.45 1.21-1381.8-616.6-1382.4-1379-1.84-762.46 615.48-1382.2 1378-1383.4 762.45-2.42 1382.7 614.41 1384.5 1376.8 0.032 1.55 0.032 2.86 0.032 4.4zm-27.624 0c0.57 747.2-605.35 1353.6-1352.5 1353.6-747.2 1.18-1354.1-604.27-1354.7-1351.5-1.81-747.21 603.16-1354.6 1350.4-1355.8 747.2-2.38 1355 602.11 1356.8 1349.3 0.032 1.52 0.032 2.8 0.032 4.31z" transform="matrix(.98 0 0 .98 -781.88 -1562.1)"/>
    <path id="path609" d="m296.75 2625.1c0.582 762.45-617.7 1381.2-1380.1 1381.2-762.45 1.21-1381.8-616.6-1382.4-1379-1.84-762.46 615.48-1382.2 1378-1383.4 762.45-2.42 1382.7 614.41 1384.5 1376.8 0.032 1.55 0.032 2.86 0.032 4.4zm-27.624 0c0.57 747.2-605.35 1353.6-1352.5 1353.6-747.2 1.18-1354.1-604.27-1354.7-1351.5-1.81-747.21 603.16-1354.6 1350.4-1355.8 747.2-2.38 1355 602.11 1356.8 1349.3 0.032 1.52 0.032 2.8 0.032 4.31z" transform="matrix(.85016 0 0 .85016 -922.69 -1221.3)"/>
   </g>
   <g id="g883" transform="matrix(1 0 0 .98355 9.3838 52.807)">
    <rect id="rect872" height="2824.2" width="171.54" y="376.91" x="1528.3"/>
    <rect id="rect871" height="2768.8" width="131.37" y="404.6" x="1548.3" fill="#efef00"/>
    <g id="g877" transform="translate(9.3838 -.000030518)">
     <rect id="rect875" height="2852.7" width="56.303" y="357.96" x="1482.6"/>
     <rect id="rect876" height="2802" width="15.952" y="383.29" x="1502.8" fill="#efef00"/>
    </g>
    <g id="g880" transform="translate(197.06 -.000030518)">
     <rect id="rect881" height="2852.7" width="56.303" y="357.96" x="1482.6"/>
     <rect id="rect882" height="2802" width="15.952" y="383.29" x="1502.8" fill="#efef00"/>
    </g>
   </g>
   <g id="g892" transform="matrix(.37140 1.0146 -.43278 .088917 1148.7 461.89)">
    <rect id="rect893" height="2824.2" width="171.54" y="376.91" x="1528.3"/>
    <rect id="rect894" height="2768.8" width="131.37" y="404.6" x="1548.3" fill="#efef00"/>
    <g id="g895" transform="translate(9.3838 -.000030518)">
     <rect id="rect896" height="2852.7" width="56.303" y="357.96" x="1482.6"/>
     <rect id="rect897" height="2802" width="15.952" y="383.29" x="1502.8" fill="#efef00"/>
    </g>
    <g id="g1963" transform="translate(197.06 -.000030518)">
     <rect id="rect899" height="2852.7" width="56.303" y="357.96" x="1482.6"/>
     <rect id="rect1965" height="2802" width="15.952" y="383.29" x="1502.8" fill="#efef00"/>
    </g>
   </g>
   <g id="g901" transform="matrix(.048179 1.0353 -.45375 .049280 1585.8 -73.118)">
    <rect id="rect902" height="2824.2" width="171.54" y="376.91" x="1528.3"/>
    <rect id="rect1968" height="2768.8" width="131.37" y="404.6" x="1548.3" fill="#efef00"/>
    <g id="g904" transform="translate(9.3838 -.000030518)">
     <rect id="rect905" height="2852.7" width="56.303" y="357.96" x="1482.6"/>
     <rect id="rect906" height="2802" width="15.952" y="383.29" x="1502.8" fill="#efef00"/>
    </g>
    <g id="g907" transform="translate(197.06 -.000030518)">
     <rect id="rect908" height="2852.7" width="56.303" y="357.96" x="1482.6"/>
     <rect id="rect909" height="2802" width="15.952" y="383.29" x="1502.8" fill="#efef00"/>
    </g>
   </g>
   <g id="g910" transform="matrix(-.61913 .96221 -.38214 -.16868 2610.1 86.531)">
    <rect id="rect911" height="2824.2" width="171.54" y="376.91" x="1528.3"/>
    <rect id="rect912" height="2768.8" width="131.37" y="404.6" x="1548.3" fill="#efef00"/>
    <g id="g1978" transform="translate(9.3838 -.000030518)">
     <rect id="rect1979" height="2852.7" width="56.303" y="357.96" x="1482.6"/>
     <rect id="rect915" height="2802" width="15.952" y="383.29" x="1502.8" fill="#efef00"/>
    </g>
    <g id="g1981" transform="translate(197.06 -.000030518)">
     <rect id="rect1982" height="2852.7" width="56.303" y="357.96" x="1482.6"/>
     <rect id="rect918" height="2802" width="15.952" y="383.29" x="1502.8" fill="#efef00"/>
    </g>
   </g>
   <g id="g946" transform="matrix(-.013401 1.0347 -.45603 -.022150 3190.7 -29.14)">
    <rect id="rect947" height="2824.2" width="171.54" y="376.91" x="1528.3"/>
    <rect id="rect948" height="2768.8" width="131.37" y="404.6" x="1548.3" fill="#efef00"/>
    <g id="g949" transform="translate(9.3838 -.000030518)">
     <rect id="rect950" height="2852.7" width="56.303" y="357.96" x="1482.6"/>
     <rect id="rect951" height="2802" width="15.952" y="383.29" x="1502.8" fill="#efef00"/>
    </g>
    <g id="g952" transform="translate(197.06 -.000030518)">
     <rect id="rect953" height="2852.7" width="56.303" y="357.96" x="1482.6"/>
     <rect id="rect954" height="2802" width="15.952" y="383.29" x="1502.8" fill="#efef00"/>
    </g>
   </g>
   <g id="g964" transform="matrix(.29417 .92656 -.37653 -.011881 2458.6 -379.7)">
    <rect id="rect965" height="2824.2" width="171.54" y="376.91" x="1528.3"/>
    <rect id="rect966" height="2768.8" width="131.37" y="404.6" x="1548.3" fill="#efef00"/>
    <g id="g967" transform="translate(9.3838 -.000030518)">
     <rect id="rect968" height="2852.7" width="56.303" y="357.96" x="1482.6"/>
     <rect id="rect969" height="2802" width="15.952" y="383.29" x="1502.8" fill="#efef00"/>
    </g>
    <g id="g970" transform="translate(197.06 -.000030518)">
     <rect id="rect971" height="2852.7" width="56.303" y="357.96" x="1482.6"/>
     <rect id="rect972" height="2802" width="15.952" y="383.29" x="1502.8" fill="#efef00"/>
    </g>
   </g>
   <g id="g973" transform="matrix(-.44645 .96157 -.41974 -.15349 3749.8 876.84)">
    <rect id="rect974" height="2824.2" width="171.54" y="376.91" x="1528.3"/>
    <rect id="rect975" height="2768.8" width="131.37" y="404.6" x="1548.3" fill="#efef00"/>
    <g id="g976" transform="translate(9.3838 -.000030518)">
     <rect id="rect977" height="2852.7" width="56.303" y="357.96" x="1482.6"/>
     <rect id="rect978" height="2802" width="15.952" y="383.29" x="1502.8" fill="#efef00"/>
    </g>
    <g id="g979" transform="translate(197.06 -.000030518)">
     <rect id="rect980" height="2852.7" width="56.303" y="357.96" x="1482.6"/>
     <rect id="rect981" height="2802" width="15.952" y="383.29" x="1502.8" fill="#efef00"/>
    </g>
   </g>
   <g id="g1287">
    <g id="g2012" transform="translate(388.6 -627.37)">
     <g id="g2013" transform="translate(1261.6 8670.4)" fill="#f6f6fb">
      <g id="g2014">
       <rect id="rect2015" height="1171.1" width="1590.9" y="-7147" x="-850.89"/>
       <ellipse id="path2016" transform="matrix(1.0746 0 0 1.0635 -3130.4 -10547)" cx="2861.4" rx="740.21" cy="4267.3" ry="696.02" d="m 3601.6224,4267.3076 c 0,384.4008 -331.4036,696.0192 -740.2108,696.0192 -408.8071,0 -740.2108,-311.6184 -740.2108,-696.0192 0,-384.4008 331.4037,-696.0191 740.2108,-696.0191 408.8072,0 740.2108,311.6183 740.2108,696.0191 z"/>
      </g>
      <g id="g2017" transform="translate(-5963.8 -3463.6)">
       <rect id="rect2018" height="632.38" width="859.09" y="-3340.7" x="5478.8"/>
       <ellipse id="path2019" transform="matrix(.58030 0 0 .57429 4247.9 -5088.5)" cx="2861.4" rx="740.21" cy="4267.3" ry="696.02" d="m 3601.6224,4267.3076 c 0,384.4008 -331.4036,696.0192 -740.2108,696.0192 -408.8071,0 -740.2108,-311.6184 -740.2108,-696.0192 0,-384.4008 331.4037,-696.0191 740.2108,-696.0191 408.8072,0 740.2108,311.6183 740.2108,696.0191 z"/>
      </g>
     </g>
     <g id="g2020" transform="translate(-4610.5 4587.5)">
      <g id="g2021" transform="matrix(.95 0 0 .95 5869.2 3772.5)" fill="#f00">
       <g id="g2022">
        <rect id="rect2023" height="1171.1" width="1590.9" y="-7147" x="-850.89"/>
        <ellipse id="path2024" transform="matrix(1.0746 0 0 1.0635 -3130.4 -10547)" cx="2861.4" rx="740.21" cy="4267.3" ry="696.02" d="m 3601.6224,4267.3076 c 0,384.4008 -331.4036,696.0192 -740.2108,696.0192 -408.8071,0 -740.2108,-311.6184 -740.2108,-696.0192 0,-384.4008 331.4037,-696.0191 740.2108,-696.0191 408.8072,0 740.2108,311.6183 740.2108,696.0191 z"/>
       </g>
       <g id="g2025" transform="translate(-5963.8 -3463.6)">
        <rect id="rect2026" height="632.38" width="859.09" y="-3340.7" x="5478.8"/>
        <ellipse id="path2027" transform="matrix(.58030 0 0 .57429 4247.9 -5088.5)" cx="2861.4" rx="740.21" cy="4267.3" ry="696.02" d="m 3601.6224,4267.3076 c 0,384.4008 -331.4036,696.0192 -740.2108,696.0192 -408.8071,0 -740.2108,-311.6184 -740.2108,-696.0192 0,-384.4008 331.4037,-696.0191 740.2108,-696.0191 408.8072,0 740.2108,311.6183 740.2108,696.0191 z"/>
       </g>
      </g>
      <g id="g2028" transform="matrix(.567 0 0 .567 5848 1394.8)" fill="#400">
       <g id="g2029">
        <rect id="rect2030" height="1171.1" width="1590.9" y="-7147" x="-850.89"/>
        <ellipse id="path2031" transform="matrix(1.0746 0 0 1.0635 -3130.4 -10547)" cx="2861.4" rx="740.21" cy="4267.3" ry="696.02" d="m 3601.6224,4267.3076 c 0,384.4008 -331.4036,696.0192 -740.2108,696.0192 -408.8071,0 -740.2108,-311.6184 -740.2108,-696.0192 0,-384.4008 331.4037,-696.0191 740.2108,-696.0191 408.8072,0 740.2108,311.6183 740.2108,696.0191 z"/>
       </g>
       <g id="g2032" transform="translate(-5963.8 -3463.6)">
        <rect id="rect2033" height="632.38" width="859.09" y="-3340.7" x="5478.8"/>
        <ellipse id="path2034" transform="matrix(.58030 0 0 .57429 4247.9 -5088.5)" cx="2861.4" rx="740.21" cy="4267.3" ry="696.02" d="m 3601.6224,4267.3076 c 0,384.4008 -331.4036,696.0192 -740.2108,696.0192 -408.8071,0 -740.2108,-311.6184 -740.2108,-696.0192 0,-384.4008 331.4037,-696.0191 740.2108,-696.0191 408.8072,0 740.2108,311.6183 740.2108,696.0191 z"/>
       </g>
      </g>
      <g id="g2035" transform="matrix(.51172 0 0 .51172 5844.9 1051.6)" fill="#fff">
       <g id="g2036">
        <rect id="rect2037" height="1171.1" width="1590.9" y="-7147" x="-850.89"/>
        <ellipse id="path2038" transform="matrix(1.0746 0 0 1.0635 -3130.4 -10547)" cx="2861.4" rx="740.21" cy="4267.3" ry="696.02" d="m 3601.6224,4267.3076 c 0,384.4008 -331.4036,696.0192 -740.2108,696.0192 -408.8071,0 -740.2108,-311.6184 -740.2108,-696.0192 0,-384.4008 331.4037,-696.0191 740.2108,-696.0191 408.8072,0 740.2108,311.6183 740.2108,696.0191 z"/>
       </g>
       <g id="g2039" transform="translate(-5963.8 -3463.6)">
        <rect id="rect2040" height="632.38" width="859.09" y="-3340.7" x="5478.8"/>
        <ellipse id="path2041" transform="matrix(.58030 0 0 .57429 4247.9 -5088.5)" cx="2861.4" rx="740.21" cy="4267.3" ry="696.02" d="m 3601.6224,4267.3076 c 0,384.4008 -331.4036,696.0192 -740.2108,696.0192 -408.8071,0 -740.2108,-311.6184 -740.2108,-696.0192 0,-384.4008 331.4037,-696.0191 740.2108,-696.0191 408.8072,0 740.2108,311.6183 740.2108,696.0191 z"/>
       </g>
      </g>
     </g>
    </g>
    <g id="g2042" transform="translate(-1370 3907.3)">
     <g id="g2043" transform="matrix(.15 0 0 .15 2790 -2140.7)" fill="#3b3bff">
      <g id="g2044" transform="translate(1261.6 8670.4)">
       <g id="g2045">
        <rect id="rect2046" height="1171.1" width="1590.9" y="-7147" x="-850.89"/>
        <ellipse id="path2047" transform="matrix(1.0746 0 0 1.0635 -3130.4 -10547)" cx="2861.4" rx="740.21" cy="4267.3" ry="696.02" d="m 3601.6224,4267.3076 c 0,384.4008 -331.4036,696.0192 -740.2108,696.0192 -408.8071,0 -740.2108,-311.6184 -740.2108,-696.0192 0,-384.4008 331.4037,-696.0191 740.2108,-696.0191 408.8072,0 740.2108,311.6183 740.2108,696.0191 z"/>
       </g>
       <g id="g2048" transform="translate(-5963.8 -3463.6)">
        <rect id="rect2049" height="632.38" width="859.09" y="-3340.7" x="5478.8"/>
        <ellipse id="path2050" transform="matrix(.58030 0 0 .57429 4247.9 -5088.5)" cx="2861.4" rx="740.21" cy="4267.3" ry="696.02" d="m 3601.6224,4267.3076 c 0,384.4008 -331.4036,696.0192 -740.2108,696.0192 -408.8071,0 -740.2108,-311.6184 -740.2108,-696.0192 0,-384.4008 331.4037,-696.0191 740.2108,-696.0191 408.8072,0 740.2108,311.6183 740.2108,696.0191 z"/>
       </g>
      </g>
      <g id="g2051" transform="translate(-4610.5 4587.5)">
       <g id="g2052" transform="matrix(.95 0 0 .95 5869.2 3772.5)">
        <g id="g2053">
         <rect id="rect2054" height="1171.1" width="1590.9" y="-7147" x="-850.89"/>
         <ellipse id="path2055" transform="matrix(1.0746 0 0 1.0635 -3130.4 -10547)" cx="2861.4" rx="740.21" cy="4267.3" ry="696.02" d="m 3601.6224,4267.3076 c 0,384.4008 -331.4036,696.0192 -740.2108,696.0192 -408.8071,0 -740.2108,-311.6184 -740.2108,-696.0192 0,-384.4008 331.4037,-696.0191 740.2108,-696.0191 408.8072,0 740.2108,311.6183 740.2108,696.0191 z"/>
        </g>
        <g id="g2056" transform="translate(-5963.8 -3463.6)">
         <rect id="rect2057" height="632.38" width="859.09" y="-3340.7" x="5478.8"/>
         <ellipse id="path2058" transform="matrix(.58030 0 0 .57429 4247.9 -5088.5)" cx="2861.4" rx="740.21" cy="4267.3" ry="696.02" d="m 3601.6224,4267.3076 c 0,384.4008 -331.4036,696.0192 -740.2108,696.0192 -408.8071,0 -740.2108,-311.6184 -740.2108,-696.0192 0,-384.4008 331.4037,-696.0191 740.2108,-696.0191 408.8072,0 740.2108,311.6183 740.2108,696.0191 z"/>
        </g>
       </g>
       <g id="g2059" transform="matrix(.567 0 0 .567 5848 1394.8)">
        <g id="g2060">
         <rect id="rect2061" height="1171.1" width="1590.9" y="-7147" x="-850.89"/>
         <ellipse id="path2062" transform="matrix(1.0746 0 0 1.0635 -3130.4 -10547)" cx="2861.4" rx="740.21" cy="4267.3" ry="696.02" d="m 3601.6224,4267.3076 c 0,384.4008 -331.4036,696.0192 -740.2108,696.0192 -408.8071,0 -740.2108,-311.6184 -740.2108,-696.0192 0,-384.4008 331.4037,-696.0191 740.2108,-696.0191 408.8072,0 740.2108,311.6183 740.2108,696.0191 z"/>
        </g>
        <g id="g2063" transform="translate(-5963.8 -3463.6)">
         <rect id="rect2064" height="632.38" width="859.09" y="-3340.7" x="5478.8"/>
         <ellipse id="path2065" transform="matrix(.58030 0 0 .57429 4247.9 -5088.5)" cx="2861.4" rx="740.21" cy="4267.3" ry="696.02" d="m 3601.6224,4267.3076 c 0,384.4008 -331.4036,696.0192 -740.2108,696.0192 -408.8071,0 -740.2108,-311.6184 -740.2108,-696.0192 0,-384.4008 331.4037,-696.0191 740.2108,-696.0191 408.8072,0 740.2108,311.6183 740.2108,696.0191 z"/>
        </g>
       </g>
       <g id="g2066" transform="matrix(.51172 0 0 .51172 5844.9 1051.6)">
        <g id="g2067">
         <rect id="rect2068" height="1171.1" width="1590.9" y="-7147" x="-850.89"/>
         <ellipse id="path2069" transform="matrix(1.0746 0 0 1.0635 -3130.4 -10547)" cx="2861.4" rx="740.21" cy="4267.3" ry="696.02" d="m 3601.6224,4267.3076 c 0,384.4008 -331.4036,696.0192 -740.2108,696.0192 -408.8071,0 -740.2108,-311.6184 -740.2108,-696.0192 0,-384.4008 331.4037,-696.0191 740.2108,-696.0191 408.8072,0 740.2108,311.6183 740.2108,696.0191 z"/>
        </g>
        <g id="g2070" transform="translate(-5963.8 -3463.6)">
         <rect id="rect2071" height="632.38" width="859.09" y="-3340.7" x="5478.8"/>
         <ellipse id="path2072" transform="matrix(.58030 0 0 .57429 4247.9 -5088.5)" cx="2861.4" rx="740.21" cy="4267.3" ry="696.02" d="m 3601.6224,4267.3076 c 0,384.4008 -331.4036,696.0192 -740.2108,696.0192 -408.8071,0 -740.2108,-311.6184 -740.2108,-696.0192 0,-384.4008 331.4037,-696.0191 740.2108,-696.0191 408.8072,0 740.2108,311.6183 740.2108,696.0191 z"/>
        </g>
       </g>
      </g>
     </g>
     <ellipse id="path2073" fill="#fff" transform="translate(-3.7817 -7.5629)" cx="2903" rx="35.688" cy="-1854.9" ry="35.688" d="m 2938.7051,-1854.9092 c 0,19.71 -15.9781,35.6881 -35.688,35.6881 -19.7099,0 -35.688,-15.9781 -35.688,-35.6881 0,-19.7099 15.9781,-35.688 35.688,-35.688 19.7099,0 35.688,15.9781 35.688,35.688 z"/>
     <ellipse id="path2074" fill="#fff" transform="translate(129.99 -7.5629)" cx="2903" rx="35.688" cy="-1854.9" ry="35.688" d="m 2938.7051,-1854.9092 c 0,19.71 -15.9781,35.6881 -35.688,35.6881 -19.7099,0 -35.688,-15.9781 -35.688,-35.6881 0,-19.7099 15.9781,-35.688 35.688,-35.688 19.7099,0 35.688,15.9781 35.688,35.688 z"/>
     <ellipse id="path2075" fill="#fff" transform="translate(61.922 67.595)" cx="2903" rx="35.688" cy="-1854.9" ry="35.688" d="m 2938.7051,-1854.9092 c 0,19.71 -15.9781,35.6881 -35.688,35.6881 -19.7099,0 -35.688,-15.9781 -35.688,-35.6881 0,-19.7099 15.9781,-35.688 35.688,-35.688 19.7099,0 35.688,15.9781 35.688,35.688 z"/>
     <ellipse id="path2076" fill="#fff" transform="translate(1.4179 140.39)" cx="2903" rx="35.688" cy="-1854.9" ry="35.688" d="m 2938.7051,-1854.9092 c 0,19.71 -15.9781,35.6881 -35.688,35.6881 -19.7099,0 -35.688,-15.9781 -35.688,-35.6881 0,-19.7099 15.9781,-35.688 35.688,-35.688 19.7099,0 35.688,15.9781 35.688,35.688 z"/>
     <ellipse id="path2077" fill="#fff" transform="translate(128.57 142.75)" cx="2903" rx="35.688" cy="-1854.9" ry="35.688" d="m 2938.7051,-1854.9092 c 0,19.71 -15.9781,35.6881 -35.688,35.6881 -19.7099,0 -35.688,-15.9781 -35.688,-35.6881 0,-19.7099 15.9781,-35.688 35.688,-35.688 19.7099,0 35.688,15.9781 35.688,35.688 z"/>
    </g>
    <path id="path2078" d="m-433.9 545.04v22.689h302.52v-22.689h-302.52zm26.249-62.601v63.152h257.14v-63.152h-257.14zm-22.688 207.62v22.692h302.52v-22.692h-302.52zm81.069-7.017c-0.031-41.191 31.622-74.621 70.654-74.621 39.033-0.066 70.737 33.311 70.768 74.502 0 0.327-0.001 0.602-0.004 0.928m-149.28 3.292c-0.034-45.769 35.136-82.913 78.505-82.913 43.37-0.073 78.596 37.012 78.63 82.78 0.001 0.363 0 0.669-0.004 1.031m-207.65-114.09v113.44h257.14v-113.44h-257.14zm-26.26-113.15v21.46h302.52v-21.46h-302.52zm-0.027-30.268v30.484h23.308v-30.484h-23.308zm279.36 0v30.484h23.308v-30.484h-23.308zm-232.9 0.612v30.484h23.308v-30.484h-23.308zm185.22-0.618v30.484h23.308v-30.484h-23.308zm-139.99-28.725v30.484h23.308v-30.484h-23.308zm92.917-0.006v30.484h23.308v-30.484h-23.308zm-45.236-0.612v30.484h23.308v-30.484h-23.308zm-47.745 31.32v29.144h116.15v-29.144h-116.15z" transform="translate(1296.7 561.41)" fill="#ff0"/>
    <g id="g2079" fill="#f00" transform="translate(1302.4 561.96)">
     <rect id="rect2080" height="30.484" width="23.308" y="477.6" x="-348.96"/>
     <rect id="rect2081" height="30.484" width="23.308" y="476.98" x="-244.43"/>
    </g>
    <path id="path2082" d="m-433.9 545.04v22.689h302.52v-22.689h-302.52zm26.249-62.601v63.152h257.14v-63.152h-257.14zm-22.688 207.62v22.692h302.52v-22.692h-302.52zm81.069-7.017c-0.031-41.191 31.622-74.621 70.654-74.621 39.033-0.066 70.737 33.311 70.768 74.502 0 0.327-0.001 0.602-0.004 0.928m-149.28 3.292c-0.034-45.769 35.136-82.913 78.505-82.913 43.37-0.073 78.596 37.012 78.63 82.78 0.001 0.363 0 0.669-0.004 1.031m-207.65-114.09v113.44h257.14v-113.44h-257.14zm-26.26-113.15v21.46h302.52v-21.46h-302.52zm-0.027-30.268v30.484h23.308v-30.484h-23.308zm279.36 0v30.484h23.308v-30.484h-23.308zm-232.9 0.612v30.484h23.308v-30.484h-23.308zm185.22-0.618v30.484h23.308v-30.484h-23.308zm-139.99-28.725v30.484h23.308v-30.484h-23.308zm92.917-0.006v30.484h23.308v-30.484h-23.308zm-45.236-0.612v30.484h23.308v-30.484h-23.308zm-47.745 31.32v29.144h116.15v-29.144h-116.15z" transform="translate(2457.9 565.04)" fill="#ff0"/>
    <g id="g2083" fill="#f00" transform="translate(2463.5 565.59)">
     <rect id="rect2084" height="30.484" width="23.308" y="477.6" x="-348.96"/>
     <rect id="rect2085" height="30.484" width="23.308" y="476.98" x="-244.43"/>
    </g>
    <path id="path2086" d="m-433.9 545.04v22.689h302.52v-22.689h-302.52zm26.249-62.601v63.152h257.14v-63.152h-257.14zm-22.688 207.62v22.692h302.52v-22.692h-302.52zm81.069-7.017c-0.031-41.191 31.622-74.621 70.654-74.621 39.033-0.066 70.737 33.311 70.768 74.502 0 0.327-0.001 0.602-0.004 0.928m-149.28 3.292c-0.034-45.769 35.136-82.913 78.505-82.913 43.37-0.073 78.596 37.012 78.63 82.78 0.001 0.363 0 0.669-0.004 1.031m-207.65-114.09v113.44h257.14v-113.44h-257.14zm-26.26-113.15v21.46h302.52v-21.46h-302.52zm-0.027-30.268v30.484h23.308v-30.484h-23.308zm279.36 0v30.484h23.308v-30.484h-23.308zm-232.9 0.612v30.484h23.308v-30.484h-23.308zm185.22-0.618v30.484h23.308v-30.484h-23.308zm-139.99-28.725v30.484h23.308v-30.484h-23.308zm92.917-0.006v30.484h23.308v-30.484h-23.308zm-45.236-0.612v30.484h23.308v-30.484h-23.308zm-47.745 31.32v29.144h116.15v-29.144h-116.15z" transform="translate(1888.2 565.04)" fill="#ff0"/>
    <g id="g2087" fill="#f00" transform="translate(1893.8 565.59)">
     <rect id="rect2088" height="30.484" width="23.308" y="477.6" x="-348.96"/>
     <rect id="rect2089" height="30.484" width="23.308" y="476.98" x="-244.43"/>
    </g>
    <path id="path2090" d="m-433.9 545.04v22.689h302.52v-22.689h-302.52zm26.249-62.601v63.152h257.14v-63.152h-257.14zm-22.688 207.62v22.692h302.52v-22.692h-302.52zm81.069-7.017c-0.031-41.191 31.622-74.621 70.654-74.621 39.033-0.066 70.737 33.311 70.768 74.502 0 0.327-0.001 0.602-0.004 0.928m-149.28 3.292c-0.034-45.769 35.136-82.913 78.505-82.913 43.37-0.073 78.596 37.012 78.63 82.78 0.001 0.363 0 0.669-0.004 1.031m-207.65-114.09v113.44h257.14v-113.44h-257.14zm-26.26-113.15v21.46h302.52v-21.46h-302.52zm-0.027-30.268v30.484h23.308v-30.484h-23.308zm279.36 0v30.484h23.308v-30.484h-23.308zm-232.9 0.612v30.484h23.308v-30.484h-23.308zm185.22-0.618v30.484h23.308v-30.484h-23.308zm-139.99-28.725v30.484h23.308v-30.484h-23.308zm92.917-0.006v30.484h23.308v-30.484h-23.308zm-45.236-0.612v30.484h23.308v-30.484h-23.308zm-47.745 31.32v29.144h116.15v-29.144h-116.15z" transform="translate(1271.3 1272.6)" fill="#ff0"/>
    <g id="g2091" fill="#f00" transform="translate(1277 1273.2)">
     <rect id="rect2092" height="30.484" width="23.308" y="477.6" x="-348.96"/>
     <rect id="rect2093" height="30.484" width="23.308" y="476.98" x="-244.43"/>
    </g>
    <path id="path2094" d="m-433.9 545.04v22.689h302.52v-22.689h-302.52zm26.249-62.601v63.152h257.14v-63.152h-257.14zm-22.688 207.62v22.692h302.52v-22.692h-302.52zm81.069-7.017c-0.031-41.191 31.622-74.621 70.654-74.621 39.033-0.066 70.737 33.311 70.768 74.502 0 0.327-0.001 0.602-0.004 0.928m-149.28 3.292c-0.034-45.769 35.136-82.913 78.505-82.913 43.37-0.073 78.596 37.012 78.63 82.78 0.001 0.363 0 0.669-0.004 1.031m-207.65-114.09v113.44h257.14v-113.44h-257.14zm-26.26-113.15v21.46h302.52v-21.46h-302.52zm-0.027-30.268v30.484h23.308v-30.484h-23.308zm279.36 0v30.484h23.308v-30.484h-23.308zm-232.9 0.612v30.484h23.308v-30.484h-23.308zm185.22-0.618v30.484h23.308v-30.484h-23.308zm-139.99-28.725v30.484h23.308v-30.484h-23.308zm92.917-0.006v30.484h23.308v-30.484h-23.308zm-45.236-0.612v30.484h23.308v-30.484h-23.308zm-47.745 31.32v29.144h116.15v-29.144h-116.15z" transform="translate(2479.7 1265.4)" fill="#ff0"/>
    <g id="g2095" fill="#f00" transform="translate(2485.3 1265.9)">
     <rect id="rect2096" height="30.484" width="23.308" y="477.6" x="-348.96"/>
     <rect id="rect2097" height="30.484" width="23.308" y="476.98" x="-244.43"/>
    </g>
    <path id="path2098" d="m-433.9 545.04v22.689h302.52v-22.689h-302.52zm26.249-62.601v63.152h257.14v-63.152h-257.14zm-22.688 207.62v22.692h302.52v-22.692h-302.52zm81.069-7.017c-0.031-41.191 31.622-74.621 70.654-74.621 39.033-0.066 70.737 33.311 70.768 74.502 0 0.327-0.001 0.602-0.004 0.928m-149.28 3.292c-0.034-45.769 35.136-82.913 78.505-82.913 43.37-0.073 78.596 37.012 78.63 82.78 0.001 0.363 0 0.669-0.004 1.031m-207.65-114.09v113.44h257.14v-113.44h-257.14zm-26.26-113.15v21.46h302.52v-21.46h-302.52zm-0.027-30.268v30.484h23.308v-30.484h-23.308zm279.36 0v30.484h23.308v-30.484h-23.308zm-232.9 0.612v30.484h23.308v-30.484h-23.308zm185.22-0.618v30.484h23.308v-30.484h-23.308zm-139.99-28.725v30.484h23.308v-30.484h-23.308zm92.917-0.006v30.484h23.308v-30.484h-23.308zm-45.236-0.612v30.484h23.308v-30.484h-23.308zm-47.745 31.32v29.144h116.15v-29.144h-116.15z" transform="matrix(.65276 -.75757 .75757 .65276 969.57 1819.3)" fill="#ff0"/>
    <g id="g2099" fill="#f00" transform="matrix(.65276 -.75757 .75757 .65276 973.66 1815.4)">
     <rect id="rect2100" height="30.484" width="23.308" y="477.6" x="-348.96"/>
     <rect id="rect2101" height="30.484" width="23.308" y="476.98" x="-244.43"/>
    </g>
    <path id="path2102" d="m-433.9 545.04v22.689h302.52v-22.689h-302.52zm26.249-62.601v63.152h257.14v-63.152h-257.14zm-22.688 207.62v22.692h302.52v-22.692h-302.52zm81.069-7.017c-0.031-41.191 31.622-74.621 70.654-74.621 39.033-0.066 70.737 33.311 70.768 74.502 0 0.327-0.001 0.602-0.004 0.928m-149.28 3.292c-0.034-45.769 35.136-82.913 78.505-82.913 43.37-0.073 78.596 37.012 78.63 82.78 0.001 0.363 0 0.669-0.004 1.031m-207.65-114.09v113.44h257.14v-113.44h-257.14zm-26.26-113.15v21.46h302.52v-21.46h-302.52zm-0.027-30.268v30.484h23.308v-30.484h-23.308zm279.36 0v30.484h23.308v-30.484h-23.308zm-232.9 0.612v30.484h23.308v-30.484h-23.308zm185.22-0.618v30.484h23.308v-30.484h-23.308zm-139.99-28.725v30.484h23.308v-30.484h-23.308zm92.917-0.006v30.484h23.308v-30.484h-23.308zm-45.236-0.612v30.484h23.308v-30.484h-23.308zm-47.745 31.32v29.144h116.15v-29.144h-116.15z" transform="matrix(-.65276 -.75757 -.75757 .65276 2231 1815.7)" fill="#ff0"/>
    <g id="g2103" fill="#f00" transform="matrix(-.65276 -.75757 -.75757 .65276 2226.9 1811.8)">
     <rect id="rect2104" height="30.484" width="23.308" y="477.6" x="-348.96"/>
     <rect id="rect2105" height="30.484" width="23.308" y="476.98" x="-244.43"/>
    </g>
    <g id="g2106" transform="translate(-1377.6 3272)">
     <g id="g2107" transform="translate(3.7814 11.344)">
      <g id="g2108" transform="matrix(.15 0 0 .15 2790 -2140.7)" fill="#3b3bff">
       <g id="g2109" transform="translate(1261.6 8670.4)">
        <g id="g2110">
         <rect id="rect2111" height="1171.1" width="1590.9" y="-7147" x="-850.89"/>
         <ellipse id="path2112" transform="matrix(1.0746 0 0 1.0635 -3130.4 -10547)" cx="2861.4" rx="740.21" cy="4267.3" ry="696.02" d="m 3601.6224,4267.3076 c 0,384.4008 -331.4036,696.0192 -740.2108,696.0192 -408.8071,0 -740.2108,-311.6184 -740.2108,-696.0192 0,-384.4008 331.4037,-696.0191 740.2108,-696.0191 408.8072,0 740.2108,311.6183 740.2108,696.0191 z"/>
        </g>
        <g id="g2113" transform="translate(-5963.8 -3463.6)">
         <rect id="rect2114" height="632.38" width="859.09" y="-3340.7" x="5478.8"/>
         <ellipse id="path2115" transform="matrix(.58030 0 0 .57429 4247.9 -5088.5)" cx="2861.4" rx="740.21" cy="4267.3" ry="696.02" d="m 3601.6224,4267.3076 c 0,384.4008 -331.4036,696.0192 -740.2108,696.0192 -408.8071,0 -740.2108,-311.6184 -740.2108,-696.0192 0,-384.4008 331.4037,-696.0191 740.2108,-696.0191 408.8072,0 740.2108,311.6183 740.2108,696.0191 z"/>
        </g>
       </g>
       <g id="g2116" transform="translate(-4610.5 4587.5)">
        <g id="g2117" transform="matrix(.95 0 0 .95 5869.2 3772.5)">
         <g id="g2118">
          <rect id="rect1155" height="1171.1" width="1590.9" y="-7147" x="-850.89"/>
          <ellipse id="path2120" transform="matrix(1.0746 0 0 1.0635 -3130.4 -10547)" cx="2861.4" rx="740.21" cy="4267.3" ry="696.02" d="m 3601.6224,4267.3076 c 0,384.4008 -331.4036,696.0192 -740.2108,696.0192 -408.8071,0 -740.2108,-311.6184 -740.2108,-696.0192 0,-384.4008 331.4037,-696.0191 740.2108,-696.0191 408.8072,0 740.2108,311.6183 740.2108,696.0191 z"/>
         </g>
         <g id="g2121" transform="translate(-5963.8 -3463.6)">
          <rect id="rect1158" height="632.38" width="859.09" y="-3340.7" x="5478.8"/>
          <ellipse id="path2123" transform="matrix(.58030 0 0 .57429 4247.9 -5088.5)" cx="2861.4" rx="740.21" cy="4267.3" ry="696.02" d="m 3601.6224,4267.3076 c 0,384.4008 -331.4036,696.0192 -740.2108,696.0192 -408.8071,0 -740.2108,-311.6184 -740.2108,-696.0192 0,-384.4008 331.4037,-696.0191 740.2108,-696.0191 408.8072,0 740.2108,311.6183 740.2108,696.0191 z"/>
         </g>
        </g>
        <g id="g2124" transform="matrix(.567 0 0 .567 5848 1394.8)">
         <g id="g2125">
          <rect id="rect2126" height="1171.1" width="1590.9" y="-7147" x="-850.89"/>
          <ellipse id="path2127" transform="matrix(1.0746 0 0 1.0635 -3130.4 -10547)" cx="2861.4" rx="740.21" cy="4267.3" ry="696.02" d="m 3601.6224,4267.3076 c 0,384.4008 -331.4036,696.0192 -740.2108,696.0192 -408.8071,0 -740.2108,-311.6184 -740.2108,-696.0192 0,-384.4008 331.4037,-696.0191 740.2108,-696.0191 408.8072,0 740.2108,311.6183 740.2108,696.0191 z"/>
         </g>
         <g id="g2128" transform="translate(-5963.8 -3463.6)">
          <rect id="rect2129" height="632.38" width="859.09" y="-3340.7" x="5478.8"/>
          <ellipse id="path2130" transform="matrix(.58030 0 0 .57429 4247.9 -5088.5)" cx="2861.4" rx="740.21" cy="4267.3" ry="696.02" d="m 3601.6224,4267.3076 c 0,384.4008 -331.4036,696.0192 -740.2108,696.0192 -408.8071,0 -740.2108,-311.6184 -740.2108,-696.0192 0,-384.4008 331.4037,-696.0191 740.2108,-696.0191 408.8072,0 740.2108,311.6183 740.2108,696.0191 z"/>
         </g>
        </g>
        <g id="g2131" transform="matrix(.51172 0 0 .51172 5844.9 1051.6)">
         <g id="g1168">
          <rect id="rect1169" height="1171.1" width="1590.9" y="-7147" x="-850.89"/>
          <ellipse id="path2134" transform="matrix(1.0746 0 0 1.0635 -3130.4 -10547)" cx="2861.4" rx="740.21" cy="4267.3" ry="696.02" d="m 3601.6224,4267.3076 c 0,384.4008 -331.4036,696.0192 -740.2108,696.0192 -408.8071,0 -740.2108,-311.6184 -740.2108,-696.0192 0,-384.4008 331.4037,-696.0191 740.2108,-696.0191 408.8072,0 740.2108,311.6183 740.2108,696.0191 z"/>
         </g>
         <g id="g2135" transform="translate(-5963.8 -3463.6)">
          <rect id="rect2136" height="632.38" width="859.09" y="-3340.7" x="5478.8"/>
          <ellipse id="path2137" transform="matrix(.58030 0 0 .57429 4247.9 -5088.5)" cx="2861.4" rx="740.21" cy="4267.3" ry="696.02" d="m 3601.6224,4267.3076 c 0,384.4008 -331.4036,696.0192 -740.2108,696.0192 -408.8071,0 -740.2108,-311.6184 -740.2108,-696.0192 0,-384.4008 331.4037,-696.0191 740.2108,-696.0191 408.8072,0 740.2108,311.6183 740.2108,696.0191 z"/>
         </g>
        </g>
       </g>
      </g>
      <ellipse id="path2138" fill="#fff" transform="translate(-3.7817 -7.5629)" cx="2903" rx="35.688" cy="-1854.9" ry="35.688" d="m 2938.7051,-1854.9092 c 0,19.71 -15.9781,35.6881 -35.688,35.6881 -19.7099,0 -35.688,-15.9781 -35.688,-35.6881 0,-19.7099 15.9781,-35.688 35.688,-35.688 19.7099,0 35.688,15.9781 35.688,35.688 z"/>
      <ellipse id="path2139" fill="#fff" transform="translate(129.99 -7.5629)" cx="2903" rx="35.688" cy="-1854.9" ry="35.688" d="m 2938.7051,-1854.9092 c 0,19.71 -15.9781,35.6881 -35.688,35.6881 -19.7099,0 -35.688,-15.9781 -35.688,-35.6881 0,-19.7099 15.9781,-35.688 35.688,-35.688 19.7099,0 35.688,15.9781 35.688,35.688 z"/>
      <ellipse id="path2140" fill="#fff" transform="translate(61.922 67.595)" cx="2903" rx="35.688" cy="-1854.9" ry="35.688" d="m 2938.7051,-1854.9092 c 0,19.71 -15.9781,35.6881 -35.688,35.6881 -19.7099,0 -35.688,-15.9781 -35.688,-35.6881 0,-19.7099 15.9781,-35.688 35.688,-35.688 19.7099,0 35.688,15.9781 35.688,35.688 z"/>
      <ellipse id="path2141" fill="#fff" transform="translate(1.4179 140.39)" cx="2903" rx="35.688" cy="-1854.9" ry="35.688" d="m 2938.7051,-1854.9092 c 0,19.71 -15.9781,35.6881 -35.688,35.6881 -19.7099,0 -35.688,-15.9781 -35.688,-35.6881 0,-19.7099 15.9781,-35.688 35.688,-35.688 19.7099,0 35.688,15.9781 35.688,35.688 z"/>
      <ellipse id="path2142" fill="#fff" transform="translate(128.57 142.75)" cx="2903" rx="35.688" cy="-1854.9" ry="35.688" d="m 2938.7051,-1854.9092 c 0,19.71 -15.9781,35.6881 -35.688,35.6881 -19.7099,0 -35.688,-15.9781 -35.688,-35.6881 0,-19.7099 15.9781,-35.688 35.688,-35.688 19.7099,0 35.688,15.9781 35.688,35.688 z"/>
     </g>
     <g id="g2143" transform="translate(3.7817 321.43)">
      <g id="g2144" transform="matrix(.15 0 0 .15 2790 -2140.7)" fill="#3b3bff">
       <g id="g2145" transform="translate(1261.6 8670.4)">
        <g id="g2146">
         <rect id="rect2147" height="1171.1" width="1590.9" y="-7147" x="-850.89"/>
         <ellipse id="path2148" transform="matrix(1.0746 0 0 1.0635 -3130.4 -10547)" cx="2861.4" rx="740.21" cy="4267.3" ry="696.02" d="m 3601.6224,4267.3076 c 0,384.4008 -331.4036,696.0192 -740.2108,696.0192 -408.8071,0 -740.2108,-311.6184 -740.2108,-696.0192 0,-384.4008 331.4037,-696.0191 740.2108,-696.0191 408.8072,0 740.2108,311.6183 740.2108,696.0191 z"/>
        </g>
        <g id="g2149" transform="translate(-5963.8 -3463.6)">
         <rect id="rect2150" height="632.38" width="859.09" y="-3340.7" x="5478.8"/>
         <ellipse id="path2151" transform="matrix(.58030 0 0 .57429 4247.9 -5088.5)" cx="2861.4" rx="740.21" cy="4267.3" ry="696.02" d="m 3601.6224,4267.3076 c 0,384.4008 -331.4036,696.0192 -740.2108,696.0192 -408.8071,0 -740.2108,-311.6184 -740.2108,-696.0192 0,-384.4008 331.4037,-696.0191 740.2108,-696.0191 408.8072,0 740.2108,311.6183 740.2108,696.0191 z"/>
        </g>
       </g>
       <g id="g2152" transform="translate(-4610.5 4587.5)">
        <g id="g2153" transform="matrix(.95 0 0 .95 5869.2 3772.5)">
         <g id="g2154">
          <rect id="rect2155" height="1171.1" width="1590.9" y="-7147" x="-850.89"/>
          <ellipse id="path2156" transform="matrix(1.0746 0 0 1.0635 -3130.4 -10547)" cx="2861.4" rx="740.21" cy="4267.3" ry="696.02" d="m 3601.6224,4267.3076 c 0,384.4008 -331.4036,696.0192 -740.2108,696.0192 -408.8071,0 -740.2108,-311.6184 -740.2108,-696.0192 0,-384.4008 331.4037,-696.0191 740.2108,-696.0191 408.8072,0 740.2108,311.6183 740.2108,696.0191 z"/>
         </g>
         <g id="g2157" transform="translate(-5963.8 -3463.6)">
          <rect id="rect2158" height="632.38" width="859.09" y="-3340.7" x="5478.8"/>
          <ellipse id="path2159" transform="matrix(.58030 0 0 .57429 4247.9 -5088.5)" cx="2861.4" rx="740.21" cy="4267.3" ry="696.02" d="m 3601.6224,4267.3076 c 0,384.4008 -331.4036,696.0192 -740.2108,696.0192 -408.8071,0 -740.2108,-311.6184 -740.2108,-696.0192 0,-384.4008 331.4037,-696.0191 740.2108,-696.0191 408.8072,0 740.2108,311.6183 740.2108,696.0191 z"/>
         </g>
        </g>
        <g id="g2160" transform="matrix(.567 0 0 .567 5848 1394.8)">
         <g id="g2161">
          <rect id="rect2162" height="1171.1" width="1590.9" y="-7147" x="-850.89"/>
          <ellipse id="path2163" transform="matrix(1.0746 0 0 1.0635 -3130.4 -10547)" cx="2861.4" rx="740.21" cy="4267.3" ry="696.02" d="m 3601.6224,4267.3076 c 0,384.4008 -331.4036,696.0192 -740.2108,696.0192 -408.8071,0 -740.2108,-311.6184 -740.2108,-696.0192 0,-384.4008 331.4037,-696.0191 740.2108,-696.0191 408.8072,0 740.2108,311.6183 740.2108,696.0191 z"/>
         </g>
         <g id="g2164" transform="translate(-5963.8 -3463.6)">
          <rect id="rect2165" height="632.38" width="859.09" y="-3340.7" x="5478.8"/>
          <ellipse id="path2166" transform="matrix(.58030 0 0 .57429 4247.9 -5088.5)" cx="2861.4" rx="740.21" cy="4267.3" ry="696.02" d="m 3601.6224,4267.3076 c 0,384.4008 -331.4036,696.0192 -740.2108,696.0192 -408.8071,0 -740.2108,-311.6184 -740.2108,-696.0192 0,-384.4008 331.4037,-696.0191 740.2108,-696.0191 408.8072,0 740.2108,311.6183 740.2108,696.0191 z"/>
         </g>
        </g>
        <g id="g2167" transform="matrix(.51172 0 0 .51172 5844.9 1051.6)">
         <g id="g2168">
          <rect id="rect2169" height="1171.1" width="1590.9" y="-7147" x="-850.89"/>
          <ellipse id="path2170" transform="matrix(1.0746 0 0 1.0635 -3130.4 -10547)" cx="2861.4" rx="740.21" cy="4267.3" ry="696.02" d="m 3601.6224,4267.3076 c 0,384.4008 -331.4036,696.0192 -740.2108,696.0192 -408.8071,0 -740.2108,-311.6184 -740.2108,-696.0192 0,-384.4008 331.4037,-696.0191 740.2108,-696.0191 408.8072,0 740.2108,311.6183 740.2108,696.0191 z"/>
         </g>
         <g id="g2171" transform="translate(-5963.8 -3463.6)">
          <rect id="rect2172" height="632.38" width="859.09" y="-3340.7" x="5478.8"/>
          <ellipse id="path2173" transform="matrix(.58030 0 0 .57429 4247.9 -5088.5)" cx="2861.4" rx="740.21" cy="4267.3" ry="696.02" d="m 3601.6224,4267.3076 c 0,384.4008 -331.4036,696.0192 -740.2108,696.0192 -408.8071,0 -740.2108,-311.6184 -740.2108,-696.0192 0,-384.4008 331.4037,-696.0191 740.2108,-696.0191 408.8072,0 740.2108,311.6183 740.2108,696.0191 z"/>
         </g>
        </g>
       </g>
      </g>
      <ellipse id="path2174" fill="#fff" transform="translate(-3.7817 -7.5629)" cx="2903" rx="35.688" cy="-1854.9" ry="35.688" d="m 2938.7051,-1854.9092 c 0,19.71 -15.9781,35.6881 -35.688,35.6881 -19.7099,0 -35.688,-15.9781 -35.688,-35.6881 0,-19.7099 15.9781,-35.688 35.688,-35.688 19.7099,0 35.688,15.9781 35.688,35.688 z"/>
      <ellipse id="path2175" fill="#fff" transform="translate(129.99 -7.5629)" cx="2903" rx="35.688" cy="-1854.9" ry="35.688" d="m 2938.7051,-1854.9092 c 0,19.71 -15.9781,35.6881 -35.688,35.6881 -19.7099,0 -35.688,-15.9781 -35.688,-35.6881 0,-19.7099 15.9781,-35.688 35.688,-35.688 19.7099,0 35.688,15.9781 35.688,35.688 z"/>
      <ellipse id="path2176" fill="#fff" transform="translate(61.922 67.595)" cx="2903" rx="35.688" cy="-1854.9" ry="35.688" d="m 2938.7051,-1854.9092 c 0,19.71 -15.9781,35.6881 -35.688,35.6881 -19.7099,0 -35.688,-15.9781 -35.688,-35.6881 0,-19.7099 15.9781,-35.688 35.688,-35.688 19.7099,0 35.688,15.9781 35.688,35.688 z"/>
      <ellipse id="path2177" fill="#fff" transform="translate(1.4179 140.39)" cx="2903" rx="35.688" cy="-1854.9" ry="35.688" d="m 2938.7051,-1854.9092 c 0,19.71 -15.9781,35.6881 -35.688,35.6881 -19.7099,0 -35.688,-15.9781 -35.688,-35.6881 0,-19.7099 15.9781,-35.688 35.688,-35.688 19.7099,0 35.688,15.9781 35.688,35.688 z"/>
      <ellipse id="path2178" fill="#fff" transform="translate(128.57 142.75)" cx="2903" rx="35.688" cy="-1854.9" ry="35.688" d="m 2938.7051,-1854.9092 c 0,19.71 -15.9781,35.6881 -35.688,35.6881 -19.7099,0 -35.688,-15.9781 -35.688,-35.6881 0,-19.7099 15.9781,-35.688 35.688,-35.688 19.7099,0 35.688,15.9781 35.688,35.688 z"/>
     </g>
     <g id="g1215" transform="translate(268.49 321.43)">
      <g id="g2180" transform="matrix(.15 0 0 .15 2790 -2140.7)" fill="#3b3bff">
       <g id="g2181" transform="translate(1261.6 8670.4)">
        <g id="g2182">
         <rect id="rect2183" height="1171.1" width="1590.9" y="-7147" x="-850.89"/>
         <ellipse id="path2184" transform="matrix(1.0746 0 0 1.0635 -3130.4 -10547)" cx="2861.4" rx="740.21" cy="4267.3" ry="696.02" d="m 3601.6224,4267.3076 c 0,384.4008 -331.4036,696.0192 -740.2108,696.0192 -408.8071,0 -740.2108,-311.6184 -740.2108,-696.0192 0,-384.4008 331.4037,-696.0191 740.2108,-696.0191 408.8072,0 740.2108,311.6183 740.2108,696.0191 z"/>
        </g>
        <g id="g2185" transform="translate(-5963.8 -3463.6)">
         <rect id="rect2186" height="632.38" width="859.09" y="-3340.7" x="5478.8"/>
         <ellipse id="path2187" transform="matrix(.58030 0 0 .57429 4247.9 -5088.5)" cx="2861.4" rx="740.21" cy="4267.3" ry="696.02" d="m 3601.6224,4267.3076 c 0,384.4008 -331.4036,696.0192 -740.2108,696.0192 -408.8071,0 -740.2108,-311.6184 -740.2108,-696.0192 0,-384.4008 331.4037,-696.0191 740.2108,-696.0191 408.8072,0 740.2108,311.6183 740.2108,696.0191 z"/>
        </g>
       </g>
       <g id="g2188" transform="translate(-4610.5 4587.5)">
        <g id="g2189" transform="matrix(.95 0 0 .95 5869.2 3772.5)">
         <g id="g2190">
          <rect id="rect2191" height="1171.1" width="1590.9" y="-7147" x="-850.89"/>
          <ellipse id="path2192" transform="matrix(1.0746 0 0 1.0635 -3130.4 -10547)" cx="2861.4" rx="740.21" cy="4267.3" ry="696.02" d="m 3601.6224,4267.3076 c 0,384.4008 -331.4036,696.0192 -740.2108,696.0192 -408.8071,0 -740.2108,-311.6184 -740.2108,-696.0192 0,-384.4008 331.4037,-696.0191 740.2108,-696.0191 408.8072,0 740.2108,311.6183 740.2108,696.0191 z"/>
         </g>
         <g id="g2193" transform="translate(-5963.8 -3463.6)">
          <rect id="rect2194" height="632.38" width="859.09" y="-3340.7" x="5478.8"/>
          <ellipse id="path2195" transform="matrix(.58030 0 0 .57429 4247.9 -5088.5)" cx="2861.4" rx="740.21" cy="4267.3" ry="696.02" d="m 3601.6224,4267.3076 c 0,384.4008 -331.4036,696.0192 -740.2108,696.0192 -408.8071,0 -740.2108,-311.6184 -740.2108,-696.0192 0,-384.4008 331.4037,-696.0191 740.2108,-696.0191 408.8072,0 740.2108,311.6183 740.2108,696.0191 z"/>
         </g>
        </g>
        <g id="g2196" transform="matrix(.567 0 0 .567 5848 1394.8)">
         <g id="g1233">
          <rect id="rect1234" height="1171.1" width="1590.9" y="-7147" x="-850.89"/>
          <ellipse id="path2199" transform="matrix(1.0746 0 0 1.0635 -3130.4 -10547)" cx="2861.4" rx="740.21" cy="4267.3" ry="696.02" d="m 3601.6224,4267.3076 c 0,384.4008 -331.4036,696.0192 -740.2108,696.0192 -408.8071,0 -740.2108,-311.6184 -740.2108,-696.0192 0,-384.4008 331.4037,-696.0191 740.2108,-696.0191 408.8072,0 740.2108,311.6183 740.2108,696.0191 z"/>
         </g>
         <g id="g2200" transform="translate(-5963.8 -3463.6)">
          <rect id="rect2201" height="632.38" width="859.09" y="-3340.7" x="5478.8"/>
          <ellipse id="path2202" transform="matrix(.58030 0 0 .57429 4247.9 -5088.5)" cx="2861.4" rx="740.21" cy="4267.3" ry="696.02" d="m 3601.6224,4267.3076 c 0,384.4008 -331.4036,696.0192 -740.2108,696.0192 -408.8071,0 -740.2108,-311.6184 -740.2108,-696.0192 0,-384.4008 331.4037,-696.0191 740.2108,-696.0191 408.8072,0 740.2108,311.6183 740.2108,696.0191 z"/>
         </g>
        </g>
        <g id="g2203" transform="matrix(.51172 0 0 .51172 5844.9 1051.6)">
         <g id="g2204">
          <rect id="rect2205" height="1171.1" width="1590.9" y="-7147" x="-850.89"/>
          <ellipse id="path2206" transform="matrix(1.0746 0 0 1.0635 -3130.4 -10547)" cx="2861.4" rx="740.21" cy="4267.3" ry="696.02" d="m 3601.6224,4267.3076 c 0,384.4008 -331.4036,696.0192 -740.2108,696.0192 -408.8071,0 -740.2108,-311.6184 -740.2108,-696.0192 0,-384.4008 331.4037,-696.0191 740.2108,-696.0191 408.8072,0 740.2108,311.6183 740.2108,696.0191 z"/>
         </g>
         <g id="g2207" transform="translate(-5963.8 -3463.6)">
          <rect id="rect2208" height="632.38" width="859.09" y="-3340.7" x="5478.8"/>
          <ellipse id="path2209" transform="matrix(.58030 0 0 .57429 4247.9 -5088.5)" cx="2861.4" rx="740.21" cy="4267.3" ry="696.02" d="m 3601.6224,4267.3076 c 0,384.4008 -331.4036,696.0192 -740.2108,696.0192 -408.8071,0 -740.2108,-311.6184 -740.2108,-696.0192 0,-384.4008 331.4037,-696.0191 740.2108,-696.0191 408.8072,0 740.2108,311.6183 740.2108,696.0191 z"/>
         </g>
        </g>
       </g>
      </g>
      <ellipse id="path2210" fill="#fff" transform="translate(-3.7817 -7.5629)" cx="2903" rx="35.688" cy="-1854.9" ry="35.688" d="m 2938.7051,-1854.9092 c 0,19.71 -15.9781,35.6881 -35.688,35.6881 -19.7099,0 -35.688,-15.9781 -35.688,-35.6881 0,-19.7099 15.9781,-35.688 35.688,-35.688 19.7099,0 35.688,15.9781 35.688,35.688 z"/>
      <ellipse id="path2211" fill="#fff" transform="translate(129.99 -7.5629)" cx="2903" rx="35.688" cy="-1854.9" ry="35.688" d="m 2938.7051,-1854.9092 c 0,19.71 -15.9781,35.6881 -35.688,35.6881 -19.7099,0 -35.688,-15.9781 -35.688,-35.6881 0,-19.7099 15.9781,-35.688 35.688,-35.688 19.7099,0 35.688,15.9781 35.688,35.688 z"/>
      <ellipse id="path2212" fill="#fff" transform="translate(61.922 67.595)" cx="2903" rx="35.688" cy="-1854.9" ry="35.688" d="m 2938.7051,-1854.9092 c 0,19.71 -15.9781,35.6881 -35.688,35.6881 -19.7099,0 -35.688,-15.9781 -35.688,-35.6881 0,-19.7099 15.9781,-35.688 35.688,-35.688 19.7099,0 35.688,15.9781 35.688,35.688 z"/>
      <ellipse id="path2213" fill="#fff" transform="translate(1.4179 140.39)" cx="2903" rx="35.688" cy="-1854.9" ry="35.688" d="m 2938.7051,-1854.9092 c 0,19.71 -15.9781,35.6881 -35.688,35.6881 -19.7099,0 -35.688,-15.9781 -35.688,-35.6881 0,-19.7099 15.9781,-35.688 35.688,-35.688 19.7099,0 35.688,15.9781 35.688,35.688 z"/>
      <ellipse id="path2214" fill="#fff" transform="translate(128.57 142.75)" cx="2903" rx="35.688" cy="-1854.9" ry="35.688" d="m 2938.7051,-1854.9092 c 0,19.71 -15.9781,35.6881 -35.688,35.6881 -19.7099,0 -35.688,-15.9781 -35.688,-35.6881 0,-19.7099 15.9781,-35.688 35.688,-35.688 19.7099,0 35.688,15.9781 35.688,35.688 z"/>
     </g>
     <g id="g2215" transform="translate(-260.92 321.43)">
      <g id="g2216" transform="matrix(.15 0 0 .15 2790 -2140.7)" fill="#3b3bff">
       <g id="g2217" transform="translate(1261.6 8670.4)">
        <g id="g2218">
         <rect id="rect2219" height="1171.1" width="1590.9" y="-7147" x="-850.89"/>
         <ellipse id="path2220" transform="matrix(1.0746 0 0 1.0635 -3130.4 -10547)" cx="2861.4" rx="740.21" cy="4267.3" ry="696.02" d="m 3601.6224,4267.3076 c 0,384.4008 -331.4036,696.0192 -740.2108,696.0192 -408.8071,0 -740.2108,-311.6184 -740.2108,-696.0192 0,-384.4008 331.4037,-696.0191 740.2108,-696.0191 408.8072,0 740.2108,311.6183 740.2108,696.0191 z"/>
        </g>
        <g id="g2221" transform="translate(-5963.8 -3463.6)">
         <rect id="rect2222" height="632.38" width="859.09" y="-3340.7" x="5478.8"/>
         <ellipse id="path2223" transform="matrix(.58030 0 0 .57429 4247.9 -5088.5)" cx="2861.4" rx="740.21" cy="4267.3" ry="696.02" d="m 3601.6224,4267.3076 c 0,384.4008 -331.4036,696.0192 -740.2108,696.0192 -408.8071,0 -740.2108,-311.6184 -740.2108,-696.0192 0,-384.4008 331.4037,-696.0191 740.2108,-696.0191 408.8072,0 740.2108,311.6183 740.2108,696.0191 z"/>
        </g>
       </g>
       <g id="g2224" transform="translate(-4610.5 4587.5)">
        <g id="g2225" transform="matrix(.95 0 0 .95 5869.2 3772.5)">
         <g id="g2226">
          <rect id="rect2227" height="1171.1" width="1590.9" y="-7147" x="-850.89"/>
          <ellipse id="path2228" transform="matrix(1.0746 0 0 1.0635 -3130.4 -10547)" cx="2861.4" rx="740.21" cy="4267.3" ry="696.02" d="m 3601.6224,4267.3076 c 0,384.4008 -331.4036,696.0192 -740.2108,696.0192 -408.8071,0 -740.2108,-311.6184 -740.2108,-696.0192 0,-384.4008 331.4037,-696.0191 740.2108,-696.0191 408.8072,0 740.2108,311.6183 740.2108,696.0191 z"/>
         </g>
         <g id="g2229" transform="translate(-5963.8 -3463.6)">
          <rect id="rect2230" height="632.38" width="859.09" y="-3340.7" x="5478.8"/>
          <ellipse id="path2231" transform="matrix(.58030 0 0 .57429 4247.9 -5088.5)" cx="2861.4" rx="740.21" cy="4267.3" ry="696.02" d="m 3601.6224,4267.3076 c 0,384.4008 -331.4036,696.0192 -740.2108,696.0192 -408.8071,0 -740.2108,-311.6184 -740.2108,-696.0192 0,-384.4008 331.4037,-696.0191 740.2108,-696.0191 408.8072,0 740.2108,311.6183 740.2108,696.0191 z"/>
         </g>
        </g>
        <g id="g2232" transform="matrix(.567 0 0 .567 5848 1394.8)">
         <g id="g2233">
          <rect id="rect2234" height="1171.1" width="1590.9" y="-7147" x="-850.89"/>
          <ellipse id="path2235" transform="matrix(1.0746 0 0 1.0635 -3130.4 -10547)" cx="2861.4" rx="740.21" cy="4267.3" ry="696.02" d="m 3601.6224,4267.3076 c 0,384.4008 -331.4036,696.0192 -740.2108,696.0192 -408.8071,0 -740.2108,-311.6184 -740.2108,-696.0192 0,-384.4008 331.4037,-696.0191 740.2108,-696.0191 408.8072,0 740.2108,311.6183 740.2108,696.0191 z"/>
         </g>
         <g id="g2236" transform="translate(-5963.8 -3463.6)">
          <rect id="rect2237" height="632.38" width="859.09" y="-3340.7" x="5478.8"/>
          <ellipse id="path2238" transform="matrix(.58030 0 0 .57429 4247.9 -5088.5)" cx="2861.4" rx="740.21" cy="4267.3" ry="696.02" d="m 3601.6224,4267.3076 c 0,384.4008 -331.4036,696.0192 -740.2108,696.0192 -408.8071,0 -740.2108,-311.6184 -740.2108,-696.0192 0,-384.4008 331.4037,-696.0191 740.2108,-696.0191 408.8072,0 740.2108,311.6183 740.2108,696.0191 z"/>
         </g>
        </g>
        <g id="g2239" transform="matrix(.51172 0 0 .51172 5844.9 1051.6)">
         <g id="g2240">
          <rect id="rect2241" height="1171.1" width="1590.9" y="-7147" x="-850.89"/>
          <ellipse id="path2242" transform="matrix(1.0746 0 0 1.0635 -3130.4 -10547)" cx="2861.4" rx="740.21" cy="4267.3" ry="696.02" d="m 3601.6224,4267.3076 c 0,384.4008 -331.4036,696.0192 -740.2108,696.0192 -408.8071,0 -740.2108,-311.6184 -740.2108,-696.0192 0,-384.4008 331.4037,-696.0191 740.2108,-696.0191 408.8072,0 740.2108,311.6183 740.2108,696.0191 z"/>
         </g>
         <g id="g2243" transform="translate(-5963.8 -3463.6)">
          <rect id="rect2244" height="632.38" width="859.09" y="-3340.7" x="5478.8"/>
          <ellipse id="path2245" transform="matrix(.58030 0 0 .57429 4247.9 -5088.5)" cx="2861.4" rx="740.21" cy="4267.3" ry="696.02" d="m 3601.6224,4267.3076 c 0,384.4008 -331.4036,696.0192 -740.2108,696.0192 -408.8071,0 -740.2108,-311.6184 -740.2108,-696.0192 0,-384.4008 331.4037,-696.0191 740.2108,-696.0191 408.8072,0 740.2108,311.6183 740.2108,696.0191 z"/>
         </g>
        </g>
       </g>
      </g>
      <ellipse id="path2246" fill="#fff" transform="translate(-3.7817 -7.5629)" cx="2903" rx="35.688" cy="-1854.9" ry="35.688" d="m 2938.7051,-1854.9092 c 0,19.71 -15.9781,35.6881 -35.688,35.6881 -19.7099,0 -35.688,-15.9781 -35.688,-35.6881 0,-19.7099 15.9781,-35.688 35.688,-35.688 19.7099,0 35.688,15.9781 35.688,35.688 z"/>
      <ellipse id="path2247" fill="#fff" transform="translate(129.99 -7.5629)" cx="2903" rx="35.688" cy="-1854.9" ry="35.688" d="m 2938.7051,-1854.9092 c 0,19.71 -15.9781,35.6881 -35.688,35.6881 -19.7099,0 -35.688,-15.9781 -35.688,-35.6881 0,-19.7099 15.9781,-35.688 35.688,-35.688 19.7099,0 35.688,15.9781 35.688,35.688 z"/>
      <ellipse id="path2248" fill="#fff" transform="translate(61.922 67.595)" cx="2903" rx="35.688" cy="-1854.9" ry="35.688" d="m 2938.7051,-1854.9092 c 0,19.71 -15.9781,35.6881 -35.688,35.6881 -19.7099,0 -35.688,-15.9781 -35.688,-35.6881 0,-19.7099 15.9781,-35.688 35.688,-35.688 19.7099,0 35.688,15.9781 35.688,35.688 z"/>
      <ellipse id="path2249" fill="#fff" transform="translate(1.4179 140.39)" cx="2903" rx="35.688" cy="-1854.9" ry="35.688" d="m 2938.7051,-1854.9092 c 0,19.71 -15.9781,35.6881 -35.688,35.6881 -19.7099,0 -35.688,-15.9781 -35.688,-35.6881 0,-19.7099 15.9781,-35.688 35.688,-35.688 19.7099,0 35.688,15.9781 35.688,35.688 z"/>
      <ellipse id="path2250" fill="#fff" transform="translate(128.57 142.75)" cx="2903" rx="35.688" cy="-1854.9" ry="35.688" d="m 2938.7051,-1854.9092 c 0,19.71 -15.9781,35.6881 -35.688,35.6881 -19.7099,0 -35.688,-15.9781 -35.688,-35.6881 0,-19.7099 15.9781,-35.688 35.688,-35.688 19.7099,0 35.688,15.9781 35.688,35.688 z"/>
     </g>
    </g>
   </g>
  </g>
 </g>
</svg>
