<?xml version="1.0" encoding="UTF-8" standalone="no"?>
<!-- Created with Sodipodi ("http://www.sodipodi.com/") -->
<svg id="svg548" xmlns:rdf="http://www.w3.org/1999/02/22-rdf-syntax-ns#" xmlns="http://www.w3.org/2000/svg" height="480" width="640" version="1.1" xmlns:cc="http://creativecommons.org/ns#" xmlns:xlink="http://www.w3.org/1999/xlink" xmlns:dc="http://purl.org/dc/elements/1.1/">
 <metadata id="metadata4313">
  <rdf:RDF>
   <cc:Work rdf:about="">
    <dc:format>image/svg+xml</dc:format>
    <dc:type rdf:resource="http://purl.org/dc/dcmitype/StillImage"/>
   </cc:Work>
  </rdf:RDF>
 </metadata>
 <defs id="defs550">
  <clipPath id="clipPath5176" clipPathUnits="userSpaceOnUse">
   <rect id="rect5178" fill-opacity="0.67" height="512" width="640" y=".0000067537" x="-64"/>
  </clipPath>
 </defs>
 <g id="flag" clip-path="url(#clipPath5176)" transform="matrix(1 0 0 .93750 64 -.0000063316)">
  <g id="g2262" fill-rule="evenodd" stroke-width="1pt" transform="matrix(1.0321 0 0 1.0321 -256 .000077199)">
   <rect id="rect2259" height="162.99" width="992.13" y="166.54" x="0" fill="#fff"/>
   <rect id="rect2260" height="166.54" width="992.13" y="329.53" x="0" fill="#3d25ca"/>
   <rect id="rect2261" height="166.54" width="992.13" y="-0.000067" x="0" fill="#d60000"/>
  </g>
  <g id="g2055" transform="matrix(.18125 0 0 .18125 183.75 156.78)">
   <path id="path2054" d="m744.14 567.26c0 192.48-157.09 348.52-350.87 348.52s-350.87-156.04-350.87-348.52 157.09-348.52 350.87-348.52 350.87 156.04 350.87 348.52z" fill-rule="evenodd" transform="matrix(1.0351 0 0 1.0421 -8.4421 -43.697)" stroke="#000" stroke-width="12.91" fill="#fff"/>
   <g id="g1766" transform="matrix(.40590 0 0 .40681 257.18 329.71)" stroke="#000" stroke-width="2.6369">
    <g id="g842" fill-rule="evenodd" transform="matrix(.89726 .20468 -.22354 .92980 260.11 -31.435)" fill="#006700">
     <path id="path774" d="m259.03 105.71s400.32 70.645 414.45 395.62c14.129 324.97-188.39 367.36-259.03 419.16-70.645 51.807-113.03 113.03-146 113.03-32.968 0-80.065-14.13-80.065-14.13s9.42 51.81 75.355 47.1c65.936-4.71 127.16-113.03 164.84-131.87s277.88-98.9 259.04-428.58c-14.13-353.23-423.88-390.91-428.59-400.33z"/>
     <g id="g782" transform="matrix(0.375 -.60020 .56218 .35125 34.021 138.2)">
      <path id="path780" d="m320.26 487.2c0 59.825-11.597 108.32-25.903 108.32s-25.903-48.498-25.903-108.32c0-59.825 11.597-108.32 25.903-108.32s25.903 48.498 25.903 108.32z" transform="matrix(.50148 .47086 -.31880 .60446 320.67 92.874)"/>
      <path id="path778" d="m320.26 487.2c0 59.825-11.597 108.32-25.903 108.32s-25.903-48.498-25.903-108.32c0-59.825 11.597-108.32 25.903-108.32s25.903 48.498 25.903 108.32z" transform="matrix(.57150 .29659 -.20081 .68886 224.73 97.252)"/>
      <path id="path779" d="m320.26 487.2c0 59.825-11.597 108.32-25.903 108.32s-25.903-48.498-25.903-108.32c0-59.825 11.597-108.32 25.903-108.32s25.903 48.498 25.903 108.32z" transform="matrix(.50610 -.46199 .3128 .61002 -64.59 364.47)"/>
      <path id="path777" d="m320.26 487.2c0 59.825-11.597 108.32-25.903 108.32s-25.903-48.498-25.903-108.32c0-59.825 11.597-108.32 25.903-108.32s25.903 48.498 25.903 108.32z" transform="matrix(.59310 -.20779 .14069 .71490 9.6354 223.61)"/>
      <path id="path776" d="m320.26 487.2c0 59.825-11.597 108.32-25.903 108.32s-25.903-48.498-25.903-108.32c0-59.825 11.597-108.32 25.903-108.32s25.903 48.498 25.903 108.32z" transform="matrix(.61321 0 0 .73913 93.439 155.35)"/>
      <path id="path781" d="m151.53 682.7c0 1.665-41.628-24.978-49.954-33.303-8.333-8.33-6.668-46.62-33.31-64.94s-54.949-9.99-68.27 1.66c-13.321 11.656-8.3257 38.298 23.312 61.61s53.284 1.666 69.936 9.991c16.651 8.326 43.294 24.976 56.615 38.297 13.321-9.99 46.623-21.646 64.94-29.972 18.316-8.325 64.941 11.656 96.578-11.656 26.642-18.316 38.297-56.614 19.981-68.27-18.317-11.656-51.619-6.66-71.6 4.996-19.982 11.656-29.972 58.279-49.955 66.605-14.986 4.995-56.614 28.307-58.279 24.977z" transform="matrix(.52514 0 0 .27822 191.54 402.47)"/>
     </g>
     <g id="g789" transform="matrix(.73572 -.67729 .67729 .73572 -14.339 19.529)">
      <path id="path790" d="m320.26 487.2c0 59.825-11.597 108.32-25.903 108.32s-25.903-48.498-25.903-108.32c0-59.825 11.597-108.32 25.903-108.32s25.903 48.498 25.903 108.32z" transform="matrix(.50148 .47086 -.31880 .60446 320.67 92.874)"/>
      <path id="path791" d="m320.26 487.2c0 59.825-11.597 108.32-25.903 108.32s-25.903-48.498-25.903-108.32c0-59.825 11.597-108.32 25.903-108.32s25.903 48.498 25.903 108.32z" transform="matrix(.57150 .29659 -.20081 .68886 224.73 97.252)"/>
      <path id="path792" d="m320.26 487.2c0 59.825-11.597 108.32-25.903 108.32s-25.903-48.498-25.903-108.32c0-59.825 11.597-108.32 25.903-108.32s25.903 48.498 25.903 108.32z" transform="matrix(.50610 -.46199 .3128 .61002 -64.59 364.47)"/>
      <path id="path793" d="m320.26 487.2c0 59.825-11.597 108.32-25.903 108.32s-25.903-48.498-25.903-108.32c0-59.825 11.597-108.32 25.903-108.32s25.903 48.498 25.903 108.32z" transform="matrix(.59310 -.20779 .14069 .71490 9.6354 223.61)"/>
      <path id="path794" d="m320.26 487.2c0 59.825-11.597 108.32-25.903 108.32s-25.903-48.498-25.903-108.32c0-59.825 11.597-108.32 25.903-108.32s25.903 48.498 25.903 108.32z" transform="matrix(.61321 0 0 .73913 93.439 155.35)"/>
      <path id="path795" d="m151.53 682.7c0 1.665-41.628-24.978-49.954-33.303-8.333-8.33-6.668-46.62-33.31-64.94s-54.949-9.99-68.27 1.66c-13.321 11.656-8.3257 38.298 23.312 61.61s53.284 1.666 69.936 9.991c16.651 8.326 43.294 24.976 56.615 38.297 13.321-9.99 46.623-21.646 64.94-29.972 18.316-8.325 64.941 11.656 96.578-11.656 26.642-18.316 38.297-56.614 19.981-68.27-18.317-11.656-51.619-6.66-71.6 4.996-19.982 11.656-29.972 58.279-49.955 66.605-14.986 4.995-56.614 28.307-58.279 24.977z" transform="matrix(.52514 0 0 .27822 191.54 402.47)"/>
     </g>
     <g id="g796" transform="matrix(.84890 -.52856 .52856 .84890 124.02 41.877)">
      <path id="path797" d="m320.26 487.2c0 59.825-11.597 108.32-25.903 108.32s-25.903-48.498-25.903-108.32c0-59.825 11.597-108.32 25.903-108.32s25.903 48.498 25.903 108.32z" transform="matrix(.50148 .47086 -.31880 .60446 320.67 92.874)"/>
      <path id="path798" d="m320.26 487.2c0 59.825-11.597 108.32-25.903 108.32s-25.903-48.498-25.903-108.32c0-59.825 11.597-108.32 25.903-108.32s25.903 48.498 25.903 108.32z" transform="matrix(.57150 .29659 -.20081 .68886 224.73 97.252)"/>
      <path id="path799" d="m320.26 487.2c0 59.825-11.597 108.32-25.903 108.32s-25.903-48.498-25.903-108.32c0-59.825 11.597-108.32 25.903-108.32s25.903 48.498 25.903 108.32z" transform="matrix(.50610 -.46199 .3128 .61002 -64.59 364.47)"/>
      <path id="path800" d="m320.26 487.2c0 59.825-11.597 108.32-25.903 108.32s-25.903-48.498-25.903-108.32c0-59.825 11.597-108.32 25.903-108.32s25.903 48.498 25.903 108.32z" transform="matrix(.59310 -.20779 .14069 .71490 9.6354 223.61)"/>
      <path id="path801" d="m320.26 487.2c0 59.825-11.597 108.32-25.903 108.32s-25.903-48.498-25.903-108.32c0-59.825 11.597-108.32 25.903-108.32s25.903 48.498 25.903 108.32z" transform="matrix(.61321 0 0 .73913 93.439 155.35)"/>
      <path id="path802" d="m151.53 682.7c0 1.665-41.628-24.978-49.954-33.303-8.333-8.33-6.668-46.62-33.31-64.94s-54.949-9.99-68.27 1.66c-13.321 11.656-8.3257 38.298 23.312 61.61s53.284 1.666 69.936 9.991c16.651 8.326 43.294 24.976 56.615 38.297 13.321-9.99 46.623-21.646 64.94-29.972 18.316-8.325 64.941 11.656 96.578-11.656 26.642-18.316 38.297-56.614 19.981-68.27-18.317-11.656-51.619-6.66-71.6 4.996-19.982 11.656-29.972 58.279-49.955 66.605-14.986 4.995-56.614 28.307-58.279 24.977z" transform="matrix(.52514 0 0 .27822 191.54 402.47)"/>
     </g>
     <g id="g803" transform="matrix(.98953 -.14433 .14433 .98953 329.61 1.6446)">
      <path id="path804" d="m320.26 487.2c0 59.825-11.597 108.32-25.903 108.32s-25.903-48.498-25.903-108.32c0-59.825 11.597-108.32 25.903-108.32s25.903 48.498 25.903 108.32z" transform="matrix(.50148 .47086 -.31880 .60446 320.67 92.874)"/>
      <path id="path805" d="m320.26 487.2c0 59.825-11.597 108.32-25.903 108.32s-25.903-48.498-25.903-108.32c0-59.825 11.597-108.32 25.903-108.32s25.903 48.498 25.903 108.32z" transform="matrix(.57150 .29659 -.20081 .68886 224.73 97.252)"/>
      <path id="path806" d="m320.26 487.2c0 59.825-11.597 108.32-25.903 108.32s-25.903-48.498-25.903-108.32c0-59.825 11.597-108.32 25.903-108.32s25.903 48.498 25.903 108.32z" transform="matrix(.50610 -.46199 .3128 .61002 -64.59 364.47)"/>
      <path id="path807" d="m320.26 487.2c0 59.825-11.597 108.32-25.903 108.32s-25.903-48.498-25.903-108.32c0-59.825 11.597-108.32 25.903-108.32s25.903 48.498 25.903 108.32z" transform="matrix(.59310 -.20779 .14069 .71490 9.6354 223.61)"/>
      <path id="path808" d="m320.26 487.2c0 59.825-11.597 108.32-25.903 108.32s-25.903-48.498-25.903-108.32c0-59.825 11.597-108.32 25.903-108.32s25.903 48.498 25.903 108.32z" transform="matrix(.61321 0 0 .73913 93.439 155.35)"/>
      <path id="path809" d="m151.53 682.7c0 1.665-41.628-24.978-49.954-33.303-8.333-8.33-6.668-46.62-33.31-64.94s-54.949-9.99-68.27 1.66c-13.321 11.656-8.3257 38.298 23.312 61.61s53.284 1.666 69.936 9.991c16.651 8.326 43.294 24.976 56.615 38.297 13.321-9.99 46.623-21.646 64.94-29.972 18.316-8.325 64.941 11.656 96.578-11.656 26.642-18.316 38.297-56.614 19.981-68.27-18.317-11.656-51.619-6.66-71.6 4.996-19.982 11.656-29.972 58.279-49.955 66.605-14.986 4.995-56.614 28.307-58.279 24.977z" transform="matrix(.52514 0 0 .27822 191.54 402.47)"/>
     </g>
     <g id="g810" transform="matrix(1.1499 .18520 -.17928 1.1312 447.09 -8.1525)">
      <path id="path811" d="m320.26 487.2c0 59.825-11.597 108.32-25.903 108.32s-25.903-48.498-25.903-108.32c0-59.825 11.597-108.32 25.903-108.32s25.903 48.498 25.903 108.32z" transform="matrix(.50148 .47086 -.31880 .60446 320.67 92.874)"/>
      <path id="path812" d="m320.26 487.2c0 59.825-11.597 108.32-25.903 108.32s-25.903-48.498-25.903-108.32c0-59.825 11.597-108.32 25.903-108.32s25.903 48.498 25.903 108.32z" transform="matrix(.57150 .29659 -.20081 .68886 224.73 97.252)"/>
      <path id="path813" d="m320.26 487.2c0 59.825-11.597 108.32-25.903 108.32s-25.903-48.498-25.903-108.32c0-59.825 11.597-108.32 25.903-108.32s25.903 48.498 25.903 108.32z" transform="matrix(.50610 -.46199 .3128 .61002 -64.59 364.47)"/>
      <path id="path814" d="m320.26 487.2c0 59.825-11.597 108.32-25.903 108.32s-25.903-48.498-25.903-108.32c0-59.825 11.597-108.32 25.903-108.32s25.903 48.498 25.903 108.32z" transform="matrix(.59310 -.20779 .14069 .71490 9.6354 223.61)"/>
      <path id="path815" d="m320.26 487.2c0 59.825-11.597 108.32-25.903 108.32s-25.903-48.498-25.903-108.32c0-59.825 11.597-108.32 25.903-108.32s25.903 48.498 25.903 108.32z" transform="matrix(.61321 0 0 .73913 93.439 155.35)"/>
      <path id="path816" d="m151.53 682.7c0 1.665-41.628-24.978-49.954-33.303-8.333-8.33-6.668-46.62-33.31-64.94s-54.949-9.99-68.27 1.66c-13.321 11.656-8.3257 38.298 23.312 61.61s53.284 1.666 69.936 9.991c16.651 8.326 43.294 24.976 56.615 38.297 13.321-9.99 46.623-21.646 64.94-29.972 18.316-8.325 64.941 11.656 96.578-11.656 26.642-18.316 38.297-56.614 19.981-68.27-18.317-11.656-51.619-6.66-71.6 4.996-19.982 11.656-29.972 58.279-49.955 66.605-14.986 4.995-56.614 28.307-58.279 24.977z" transform="matrix(.52514 0 0 .27822 191.54 402.47)"/>
     </g>
     <g id="g817" transform="matrix(1.0178 .80745 -.82443 .96298 756.4 48.616)">
      <path id="path818" d="m320.26 487.2c0 59.825-11.597 108.32-25.903 108.32s-25.903-48.498-25.903-108.32c0-59.825 11.597-108.32 25.903-108.32s25.903 48.498 25.903 108.32z" transform="matrix(.50148 .47086 -.31880 .60446 320.67 92.874)"/>
      <path id="path819" d="m320.26 487.2c0 59.825-11.597 108.32-25.903 108.32s-25.903-48.498-25.903-108.32c0-59.825 11.597-108.32 25.903-108.32s25.903 48.498 25.903 108.32z" transform="matrix(.57150 .29659 -.20081 .68886 224.73 97.252)"/>
      <path id="path820" d="m320.26 487.2c0 59.825-11.597 108.32-25.903 108.32s-25.903-48.498-25.903-108.32c0-59.825 11.597-108.32 25.903-108.32s25.903 48.498 25.903 108.32z" transform="matrix(.50610 -.46199 .3128 .61002 -64.59 364.47)"/>
      <path id="path821" d="m320.26 487.2c0 59.825-11.597 108.32-25.903 108.32s-25.903-48.498-25.903-108.32c0-59.825 11.597-108.32 25.903-108.32s25.903 48.498 25.903 108.32z" transform="matrix(.59310 -.20779 .14069 .71490 9.6354 223.61)"/>
      <path id="path822" d="m320.26 487.2c0 59.825-11.597 108.32-25.903 108.32s-25.903-48.498-25.903-108.32c0-59.825 11.597-108.32 25.903-108.32s25.903 48.498 25.903 108.32z" transform="matrix(.61321 0 0 .73913 93.439 155.35)"/>
      <path id="path823" d="m151.53 682.7c0 1.665-41.628-24.978-49.954-33.303-8.333-8.33-6.668-46.62-33.31-64.94s-54.949-9.99-68.27 1.66c-13.321 11.656-8.3257 38.298 23.312 61.61s53.284 1.666 69.936 9.991c16.651 8.326 43.294 24.976 56.615 38.297 13.321-9.99 46.623-21.646 64.94-29.972 18.316-8.325 64.941 11.656 96.578-11.656 26.642-18.316 38.297-56.614 19.981-68.27-18.317-11.656-51.619-6.66-71.6 4.996-19.982 11.656-29.972 58.279-49.955 66.605-14.986 4.995-56.614 28.307-58.279 24.977z" transform="matrix(.52514 0 0 .27822 191.54 402.47)"/>
     </g>
     <g id="g834" transform="matrix(.70068 .98883 -.97411 .69025 782.3 222.78)">
      <path id="path832" d="m314.71 506.2c0 45.062-10.064 81.591-22.479 81.591s-22.479-36.53-22.479-81.591c0-45.062 10.064-81.591 22.479-81.591s22.479 36.53 22.479 81.591z" transform="matrix(.92853 .37125 -.37125 .92853 252.11 -52.333)"/>
      <path id="path833" d="m314.71 506.2c0 45.062-10.064 81.591-22.479 81.591s-22.479-36.53-22.479-81.591c0-45.062 10.064-81.591 22.479-81.591s22.479 36.53 22.479 81.591z" transform="matrix(.87409 -.48576 .48576 .87409 -234.07 229)"/>
      <path id="path831" d="m314.71 506.2c0 45.062-10.064 81.591-22.479 81.591s-22.479-36.53-22.479-81.591c0-45.062 10.064-81.591 22.479-81.591s22.479 36.53 22.479 81.591z" transform="translate(9.9908 14.986)"/>
     </g>
     <g id="g838" transform="matrix(.16083 -.47509 .76898 .18492 -139.38 169.17)">
      <path id="path839" d="m314.71 506.2c0 45.062-10.064 81.591-22.479 81.591s-22.479-36.53-22.479-81.591c0-45.062 10.064-81.591 22.479-81.591s22.479 36.53 22.479 81.591z" transform="matrix(.92853 .37125 -.37125 .92853 252.11 -52.333)"/>
      <path id="path840" d="m314.71 506.2c0 45.062-10.064 81.591-22.479 81.591s-22.479-36.53-22.479-81.591c0-45.062 10.064-81.591 22.479-81.591s22.479 36.53 22.479 81.591z" transform="matrix(.87409 -.48576 .48576 .87409 -234.07 229)"/>
      <path id="path841" d="m314.71 506.2c0 45.062-10.064 81.591-22.479 81.591s-22.479-36.53-22.479-81.591c0-45.062 10.064-81.591 22.479-81.591s22.479 36.53 22.479 81.591z" transform="translate(9.9908 14.986)"/>
     </g>
    </g>
    <g id="g1623" fill-rule="evenodd" transform="matrix(.99936 -.025878 .017480 .95569 103.72 108.05)" fill="#006700">
     <path id="path673" d="m339.1 586.1s113.03 32.968 211.94 89.484c98.904 56.516 252.16 272.38 292.21 280.92 44.682-1.342 105.85-37.846 126.48-164.27-67.86 43.25-107.82 101.54-174.96 40.06-23.55-14.13-102.44-137.87-187.22-199.09-84.77-61.23-254.32-122.45-254.32-122.45l-14.129 75.356z" transform="matrix(.67307 .061265 -.021852 .36561 -223.16 555.09)"/>
     <path id="path655" d="m332.03 604.94c1.177 0 21.194-164.84 21.194-164.84l17.661 164.84-20.016 28.258-18.839-28.258z" transform="matrix(-.22020 -.58061 -.56170 .20187 498.33 149.41)"/>
     <path id="path656" d="m248.44 462.47c29.436 48.274 77.71 121.28 101.26 170.73 26.295-51.807 74.962-128.34 104.79-175.44-31.79 36.107-71.822 88.699-104.79 116.56-33.36-27.866-70.253-78.103-101.26-111.86z" transform="matrix(-.22082 -.58039 -.56146 .20252 482.16 153.62)"/>
     <path id="path657" d="m332.03 604.94c1.177 0 21.194-164.84 21.194-164.84l17.661 164.84-20.016 28.258-18.839-28.258z" transform="matrix(-.31222 -.53799 -.51625 .29737 485.55 82.607)"/>
     <path id="path658" d="m248.44 462.47c29.436 48.274 77.71 121.28 101.26 170.73 26.295-51.807 74.962-128.34 104.79-175.44-31.79 36.107-71.822 88.699-104.79 116.56-33.36-27.866-70.253-78.103-101.26-111.86z" transform="matrix(-.23174 -.60068 -.55952 .20773 468.36 154.89)"/>
     <path id="path659" d="m332.03 604.94c1.177 0 21.194-164.84 21.194-164.84l17.661 164.84-20.016 28.258-18.839-28.258z" transform="matrix(-.16989 -.59613 -.57891 .14997 463.29 195.77)"/>
     <path id="path660" d="m248.44 462.47c29.436 48.274 77.71 121.28 101.26 170.73 26.295-51.807 74.962-128.34 104.79-175.44-31.79 36.107-71.822 88.699-104.79 116.56-33.36-27.866-70.253-78.103-101.26-111.86z" transform="matrix(-.29638 -.58472 -.52952 .27541 460.33 120.12)"/>
     <path id="path661" d="m332.03 604.94c1.177 0 21.194-164.84 21.194-164.84l17.661 164.84-20.016 28.258-18.839-28.258z" transform="matrix(-.41657 -.46086 -.43642 .40677 449.75 -4.3415)"/>
     <path id="path662" d="m248.44 462.47c29.436 48.274 77.71 121.28 101.26 170.73 26.295-51.807 74.962-128.34 104.79-175.44-31.79 36.107-71.822 88.699-104.79 116.56-33.36-27.866-70.253-78.103-101.26-111.86z" transform="matrix(-.37077 -.61687 -.53581 .34039 481.04 103.22)"/>
     <path id="path663" d="m332.03 604.94c1.177 0 21.194-164.84 21.194-164.84l17.661 164.84-20.016 28.258-18.839-28.258z" transform="matrix(-.39501 -.59481 -.51356 .36652 476.42 82.783)"/>
     <path id="path638" d="m248.44 462.47c29.436 48.274 77.71 121.28 101.26 170.73 26.295-51.807 74.962-128.34 104.79-175.44-31.79 36.107-71.822 88.699-104.79 116.56-33.36-27.866-70.253-78.103-101.26-111.86z" transform="matrix(-.27938 -.66608 -.64876 .38722 494.14 95.882)"/>
     <path id="path639" d="m332.03 604.94c1.177 0 21.194-164.84 21.194-164.84l17.661 164.84-20.016 28.258-18.839-28.258z" transform="matrix(-.31006 -.64126 -.62984 .41526 493.2 73.607)"/>
     <path id="path640" d="m248.44 462.47c29.436 48.274 77.71 121.28 101.26 170.73 26.295-51.807 74.962-128.34 104.79-175.44-31.79 36.107-71.822 88.699-104.79 116.56-33.36-27.866-70.253-78.103-101.26-111.86z" transform="matrix(-.36811 -.60966 -.58877 .47184 474.07 44.859)"/>
     <path id="path641" d="m332.03 604.94c1.177 0 21.194-164.84 21.194-164.84l17.661 164.84-20.016 28.258-18.839-28.258z" transform="matrix(-.46201 -.52149 -.51837 .56778 463.19 -42.071)"/>
     <path id="path642" d="m248.44 462.47c29.436 48.274 77.71 121.28 101.26 170.73 26.295-51.807 74.962-128.34 104.79-175.44-31.79 36.107-71.822 88.699-104.79 116.56-33.36-27.866-70.253-78.103-101.26-111.86z" transform="matrix(-.33504 -.62763 -.61380 .43994 455.59 76.105)"/>
     <path id="path643" d="m332.03 604.94c1.177 0 21.194-164.84 21.194-164.84l17.661 164.84-20.016 28.258-18.839-28.258z" transform="matrix(-.31416 -.64930 -.61924 .41561 461.59 103.3)"/>
     <path id="path644" d="m248.44 462.47c29.436 48.274 77.71 121.28 101.26 170.73 26.295-51.807 74.962-128.34 104.79-175.44-31.79 36.107-71.822 88.699-104.79 116.56-33.36-27.866-70.253-78.103-101.26-111.86z" transform="matrix(-.40162 -.57445 -.57246 .50741 441.37 35.733)"/>
     <path id="path645" d="m332.03 604.94c1.177 0 21.194-164.84 21.194-164.84l17.661 164.84-20.016 28.258-18.839-28.258z" transform="matrix(-.53889 -.41956 -.44565 .64143 415.43 -105.63)"/>
     <path id="path622" d="m248.44 462.47c29.436 48.274 77.71 121.28 101.26 170.73 26.295-51.807 74.962-128.34 104.79-175.44-31.79 36.107-71.822 88.699-104.79 116.56-33.36-27.866-70.253-78.103-101.26-111.86z" transform="matrix(-.50728 -.62456 -.5684 .59428 465.65 14.525)"/>
     <path id="path623" d="m332.03 604.94c1.177 0 21.194-164.84 21.194-164.84l17.661 164.84-20.016 28.258-18.839-28.258z" transform="matrix(-.53210 -.58958 -.53942 .61853 457.63 -8.7561)"/>
     <path id="path624" d="m248.44 462.47c29.436 48.274 77.71 121.28 101.26 170.73 26.295-51.807 74.962-128.34 104.79-175.44-31.79 36.107-71.822 88.699-104.79 116.56-33.36-27.866-70.253-78.103-101.26-111.86z" transform="matrix(-.53270 -.58889 -.53882 .61919 441.32 7.0157)"/>
     <path id="path625" d="m332.03 604.94c1.177 0 21.194-164.84 21.194-164.84l17.661 164.84-20.016 28.258-18.839-28.258z" transform="matrix(-.61584 -.47620 -.44141 .70952 410.66 -84.735)"/>
     <path id="path626" d="m248.44 462.47c29.436 48.274 77.71 121.28 101.26 170.73 26.295-51.807 74.962-128.34 104.79-175.44-31.79 36.107-71.822 88.699-104.79 116.56-33.36-27.866-70.253-78.103-101.26-111.86z" transform="matrix(-.47964 -.63197 -.59086 .57072 436.11 57.18)"/>
     <path id="path627" d="m332.03 604.94c1.177 0 21.194-164.84 21.194-164.84l17.661 164.84-20.016 28.258-18.839-28.258z" transform="matrix(-.42049 -.68402 -.63433 .50718 448.7 118.68)"/>
     <path id="path628" d="m248.44 462.47c29.436 48.274 77.71 121.28 101.26 170.73 26.295-51.807 74.962-128.34 104.79-175.44-31.79 36.107-71.822 88.699-104.79 116.56-33.36-27.866-70.253-78.103-101.26-111.86z" transform="matrix(-.43061 -.69232 -.61096 .52059 413.98 112.33)"/>
     <path id="path629" d="m332.03 604.94c1.177 0 21.194-164.84 21.194-164.84l17.661 164.84-20.016 28.258-18.839-28.258z" transform="matrix(-.57704 -.52972 -.4751 .68536 385.94 -50.897)"/>
     <path id="path551" d="m248.44 462.47c29.436 48.274 77.71 121.28 101.26 170.73 26.295-51.807 74.962-128.34 104.79-175.44-31.79 36.107-71.822 88.699-104.79 116.56-33.36-27.866-70.253-78.103-101.26-111.86z" transform="matrix(-.59455 -.63298 -.59222 .76522 451.58 -30.354)"/>
     <path id="path553" d="m332.03 604.94c1.177 0 21.194-164.84 21.194-164.84l17.661 164.84-20.016 28.258-18.839-28.258z" transform="matrix(-.61990 -.58928 -.55891 .78836 441.41 -55.635)"/>
     <path id="path560" d="m248.44 462.47c29.436 48.274 77.71 121.28 101.26 170.73 26.295-51.807 74.962-128.34 104.79-175.44-31.79 36.107-71.822 88.699-104.79 116.56-33.36-27.866-70.253-78.103-101.26-111.86z" transform="matrix(-.62052 -.58840 -.55822 .78902 424.35 -35.138)"/>
     <path id="path561" d="m332.03 604.94c1.177 0 21.194-164.84 21.194-164.84l17.661 164.84-20.016 28.258-18.839-28.258z" transform="matrix(-.70568 -.44711 -.44574 .87684 385.32 -134.92)"/>
     <path id="path562" d="m248.44 462.47c29.436 48.274 77.71 121.28 101.26 170.73 26.295-51.807 74.962-128.34 104.79-175.44-31.79 36.107-71.822 88.699-104.79 116.56-33.36-27.866-70.253-78.103-101.26-111.86z" transform="matrix(-.62455 -.58268 -.55371 .79325 403.49 -26.088)"/>
     <path id="path563" d="m332.03 604.94c1.177 0 21.194-164.84 21.194-164.84l17.661 164.84-20.016 28.258-18.839-28.258z" transform="matrix(-.56829 -.65639 -.61131 .73342 427.06 39.506)"/>
     <path id="path564" d="m248.44 462.47c29.436 48.274 77.71 121.28 101.26 170.73 26.295-51.807 74.962-128.34 104.79-175.44-31.79 36.107-71.822 88.699-104.79 116.56-33.36-27.866-70.253-78.103-101.26-111.86z" transform="matrix(-.73370 -.39339 -.39064 .90553 351.09 -132.23)"/>
     <path id="path565" d="m332.03 604.94c1.177 0 21.194-164.84 21.194-164.84l17.661 164.84-20.016 28.258-18.839-28.258z" transform="matrix(-.81096 -.13952 -.18237 .97738 252.19 -272.91)"/>
     <path id="path566" d="m248.44 462.47c29.436 48.274 77.71 121.28 101.26 170.73 26.295-51.807 74.962-128.34 104.79-175.44-31.79 36.107-71.822 88.699-104.79 116.56-33.36-27.866-70.253-78.103-101.26-111.86z" transform="matrix(-.73184 -.39768 -.39411 .90366 340.67 -115.45)"/>
     <path id="path567" d="m332.03 604.94c1.177 0 21.194-164.84 21.194-164.84l17.661 164.84-20.016 28.258-18.839-28.258z" transform="matrix(-.75038 -.35265 -.35755 .92216 327.56 -141.21)"/>
     <path id="path568" d="m248.44 462.47c29.436 48.274 77.71 121.28 101.26 170.73 26.295-51.807 74.962-128.34 104.79-175.44-31.79 36.107-71.822 88.699-104.79 116.56-33.36-27.866-70.253-78.103-101.26-111.86z" transform="matrix(-.79780 -.31648 -.31043 .97647 313.84 -165.52)"/>
     <path id="path569" d="m332.03 604.94c1.177 0 21.194-164.84 21.194-164.84l17.661 164.84-20.016 28.258-18.839-28.258z" transform="matrix(-.83868 -.14750 -.17163 1.0158 244.27 -245.48)"/>
     <path id="path570" d="m248.44 462.47c29.436 48.274 77.71 121.28 101.26 170.73 26.295-51.807 74.962-128.34 104.79-175.44-31.79 36.107-71.822 88.699-104.79 116.56-33.36-27.866-70.253-78.103-101.26-111.86z" transform="matrix(-.76499 -.40186 -.38396 .94508 327.22 -101.8)"/>
     <path id="path571" d="m332.03 604.94c1.177 0 21.194-164.84 21.194-164.84l17.661 164.84-20.016 28.258-18.839-28.258z" transform="matrix(-.72444 -.49104 -.45587 .90197 365.88 -43.312)"/>
     <path id="path572" d="m248.44 462.47c29.436 48.274 77.71 121.28 101.26 170.73 26.295-51.807 74.962-128.34 104.79-175.44-31.79 36.107-71.822 88.699-104.79 116.56-33.36-27.866-70.253-78.103-101.26-111.86z" transform="matrix(-.75610 -.31701 -.29476 .99159 283.06 -143.75)"/>
     <path id="path573" d="m332.03 604.94c1.177 0 21.194-164.84 21.194-164.84l17.661 164.84-20.016 28.258-18.839-28.258z" transform="matrix(-.85152 -.040613 -.086611 1.0261 186.79 -259.73)"/>
     <path id="path574" d="m248.44 462.47c29.436 48.274 77.71 121.28 101.26 170.73 26.295-51.807 74.962-128.34 104.79-175.44-31.79 36.107-71.822 88.699-104.79 116.56-33.36-27.866-70.253-78.103-101.26-111.86z" transform="matrix(-.76356 -.31091 -.26627 .99585 253.97 -135.08)"/>
     <path id="path575" d="m332.03 604.94c1.177 0 21.194-164.84 21.194-164.84l17.661 164.84-20.016 28.258-18.839-28.258z" transform="matrix(-.77576 -.26144 -.22831 1.01 237.89 -160.04)"/>
     <path id="path576" d="m248.44 462.47c29.436 48.274 77.71 121.28 101.26 170.73 26.295-51.807 74.962-128.34 104.79-175.44-31.79 36.107-71.822 88.699-104.79 116.56-33.36-27.866-70.253-78.103-101.26-111.86z" transform="matrix(-.78450 -.23176 -.19317 1.0177 217.81 -158.32)"/>
     <path id="path577" d="m332.03 604.94c1.177 0 21.194-164.84 21.194-164.84l17.661 164.84-20.016 28.258-18.839-28.258z" transform="matrix(-.80583 -.057045 -.058291 1.0422 144.06 -231.29)"/>
     <path id="path578" d="m248.44 462.47c29.436 48.274 77.71 121.28 101.26 170.73 26.295-51.807 74.962-128.34 104.79-175.44-31.79 36.107-71.822 88.699-104.79 116.56-33.36-27.866-70.253-78.103-101.26-111.86z" transform="matrix(-.79918 -.19047 -.14475 1.0357 195.61 -167.06)"/>
     <path id="path579" d="m332.03 604.94c1.177 0 21.194-164.84 21.194-164.84l17.661 164.84-20.016 28.258-18.839-28.258z" transform="matrix(-.78151 -.28937 -.22108 1.0126 244.54 -119.77)"/>
     <path id="path580" d="m248.44 462.47c29.436 48.274 77.71 121.28 101.26 170.73 26.295-51.807 74.962-128.34 104.79-175.44-31.79 36.107-71.822 88.699-104.79 116.56-33.36-27.866-70.253-78.103-101.26-111.86z" transform="matrix(-.81036 -.073375 -.054418 1.0506 150.3 -187.11)"/>
     <path id="path581" d="m332.03 604.94c1.177 0 21.194-164.84 21.194-164.84l17.661 164.84-20.016 28.258-18.839-28.258z" transform="matrix(-.79583 .20748 .16214 1.0325 11.425 -282.66)"/>
     <path id="path582" d="m248.44 462.47c29.436 48.274 77.71 121.28 101.26 170.73 26.295-51.807 74.962-128.34 104.79-175.44-31.79 36.107-71.822 88.699-104.79 116.56-33.36-27.866-70.253-78.103-101.26-111.86z" transform="matrix(-.83230 -.073818 -.063234 1.0471 158.58 -166.22)"/>
     <path id="path583" d="m332.03 604.94c1.177 0 21.194-164.84 21.194-164.84l17.661 164.84-20.016 28.258-18.839-28.258z" transform="matrix(-.83441 -.022113 -.022132 1.0495 137.26 -185.67)"/>
     <path id="path584" d="m248.44 462.47c29.436 48.274 77.71 121.28 101.26 170.73 26.295-51.807 74.962-128.34 104.79-175.44-31.79 36.107-71.822 88.699-104.79 116.56-33.36-27.866-70.253-78.103-101.26-111.86z" transform="matrix(-.83091 -.094243 -.079468 1.0455 168.16 -145.21)"/>
     <path id="path585" d="m332.03 604.94c1.177 0 21.194-164.84 21.194-164.84l17.661 164.84-20.016 28.258-18.839-28.258z" transform="matrix(-.83242 .083180 .061604 1.0464 84.087 -204.96)"/>
     <path id="path586" d="m248.44 462.47c29.436 48.274 77.71 121.28 101.26 170.73 26.295-51.807 74.962-128.34 104.79-175.44-31.79 36.107-71.822 88.699-104.79 116.56-33.36-27.866-70.253-78.103-101.26-111.86z" transform="matrix(-.82497 -.15415 -.12707 1.0384 176.47 -102.86)"/>
     <path id="path587" d="m332.03 604.94c1.177 0 21.194-164.84 21.194-164.84l17.661 164.84-20.016 28.258-18.839-28.258z" transform="matrix(-.80889 -.25347 -.20596 1.0187 223.56 -57.902)"/>
     <path id="path588" d="m248.44 462.47c29.436 48.274 77.71 121.28 101.26 170.73 26.295-51.807 74.962-128.34 104.79-175.44-31.79 36.107-71.822 88.699-104.79 116.56-33.36-27.866-70.253-78.103-101.26-111.86z" transform="matrix(-.83401 -.036986 -.033956 1.0491 137.38 -132.48)"/>
     <path id="path589" d="m332.03 604.94c1.177 0 21.194-164.84 21.194-164.84l17.661 164.84-20.016 28.258-18.839-28.258z" transform="matrix(-.81322 .24218 .18814 1.0214 -19.326 -209.79)"/>
     <path id="path590" d="m248.44 462.47c29.436 48.274 77.71 121.28 101.26 170.73 26.295-51.807 74.962-128.34 104.79-175.44-31.79 36.107-71.822 88.699-104.79 116.56-33.36-27.866-70.253-78.103-101.26-111.86z" transform="matrix(-.82635 .15381 .11780 1.0384 58.116 -162.22)"/>
     <path id="path591" d="m332.03 604.94c1.177 0 21.194-164.84 21.194-164.84l17.661 164.84-20.016 28.258-18.839-28.258z" transform="matrix(-.80657 .27576 .21488 1.0129 7.5742 -201.31)"/>
     <path id="path592" d="m248.44 462.47c29.436 48.274 77.71 121.28 101.26 170.73 26.295-51.807 74.962-128.34 104.79-175.44-31.79 36.107-71.822 88.699-104.79 116.56-33.36-27.866-70.253-78.103-101.26-111.86z" transform="matrix(-.82529 .16284 .12499 1.037 53.836 -147.04)"/>
     <path id="path593" d="m332.03 604.94c1.177 0 21.194-164.84 21.194-164.84l17.661 164.84-20.016 28.258-18.839-28.258z" transform="matrix(-.77235 .40340 .31656 .96913 -65.33 -189.99)"/>
     <path id="path594" d="m248.44 462.47c29.436 48.274 77.71 121.28 101.26 170.73 26.295-51.807 74.962-128.34 104.79-175.44-31.79 36.107-71.822 88.699-104.79 116.56-33.36-27.866-70.253-78.103-101.26-111.86z" transform="matrix(-.80048 .28493 .23828 1.0098 -10.356 -150.92)"/>
     <path id="path595" d="m332.03 604.94c1.177 0 21.194-164.84 21.194-164.84l17.661 164.84-20.016 28.258-18.839-28.258z" transform="matrix(-.82760 .14227 .10861 1.0401 83.037 -122.66)"/>
     <path id="path596" d="m248.44 462.47c29.436 48.274 77.71 121.28 101.26 170.73 26.295-51.807 74.962-128.34 104.79-175.44-31.79 36.107-71.822 88.699-104.79 116.56-33.36-27.866-70.253-78.103-101.26-111.86z" transform="matrix(-.76878 .39613 .32636 .97156 -59.056 -143.04)"/>
     <path id="path597" d="m332.03 604.94c1.177 0 21.194-164.84 21.194-164.84l17.661 164.84-20.016 28.258-18.839-28.258z" transform="matrix(-.65490 .63930 .51831 .83196 -220.52 -149.44)"/>
     <path id="path598" d="m248.44 462.47c29.436 48.274 77.71 121.28 101.26 170.73 26.295-51.807 74.962-128.34 104.79-175.44-31.79 36.107-71.822 88.699-104.79 116.56-33.36-27.866-70.253-78.103-101.26-111.86z" transform="matrix(-.77032 .39153 .32271 .97342 -55.223 -122.15)"/>
     <path id="path599" d="m332.03 604.94c1.177 0 21.194-164.84 21.194-164.84l17.661 164.84-20.016 28.258-18.839-28.258z" transform="matrix(-.75348 .43904 .36029 .95294 -81.31 -127.85)"/>
     <path id="path600" d="m248.44 462.47c29.436 48.274 77.71 121.28 101.26 170.73 26.295-51.807 74.962-128.34 104.79-175.44-31.79 36.107-71.822 88.699-104.79 116.56-33.36-27.866-70.253-78.103-101.26-111.86z" transform="matrix(-.75308 .44009 .36113 .95245 -73.123 -100.27)"/>
     <path id="path601" d="m332.03 604.94c1.177 0 21.194-164.84 21.194-164.84l17.661 164.84-20.016 28.258-18.839-28.258z" transform="matrix(-.68150 .59422 .48280 .86473 -169.94 -99.097)"/>
     <path id="path602" d="m248.44 462.47c29.436 48.274 77.71 121.28 101.26 170.73 26.295-51.807 74.962-128.34 104.79-175.44-31.79 36.107-71.822 88.699-104.79 116.56-33.36-27.866-70.253-78.103-101.26-111.86z" transform="matrix(-.75044 .44697 .36657 .94924 -75.725 -73.307)"/>
     <path id="path603" d="m332.03 604.94c1.177 0 21.194-164.84 21.194-164.84l17.661 164.84-20.016 28.258-18.839-28.258z" transform="matrix(-.78227 .35344 .29256 .98789 -13.052 -71.768)"/>
     <path id="path604" d="m248.44 462.47c29.436 48.274 77.71 121.28 101.26 170.73 26.295-51.807 74.962-128.34 104.79-175.44-31.79 36.107-71.822 88.699-104.79 116.56-33.36-27.866-70.253-78.103-101.26-111.86z" transform="matrix(-.70471 .55038 .44824 .89327 -122.62 -55.466)"/>
     <path id="path605" d="m332.03 604.94c1.177 0 21.194-164.84 21.194-164.84l17.661 164.84-20.016 28.258-18.839-28.258z" transform="matrix(-.49745 .81292 .67456 .65902 -326.81 -30.979)"/>
     <path id="path606" d="m248.44 462.47c29.436 48.274 77.71 121.28 101.26 170.73 26.295-51.807 74.962-128.34 104.79-175.44-31.79 36.107-71.822 88.699-104.79 116.56-33.36-27.866-70.253-78.103-101.26-111.86z" transform="matrix(-.67755 .57664 .49337 .87330 -146.45 -46.203)"/>
     <path id="path607" d="m332.03 604.94c1.177 0 21.194-164.84 21.194-164.84l17.661 164.84-20.016 28.258-18.839-28.258z" transform="matrix(-.65241 .61898 .52617 .84381 -172.89 -45.262)"/>
     <path id="path608" d="m248.44 462.47c29.436 48.274 77.71 121.28 101.26 170.73 26.295-51.807 74.962-128.34 104.79-175.44-31.79 36.107-71.822 88.699-104.79 116.56-33.36-27.866-70.253-78.103-101.26-111.86z" transform="matrix(-.65182 .61993 .52690 .84312 -159.84 -20.278)"/>
     <path id="path609" d="m332.03 604.94c1.177 0 21.194-164.84 21.194-164.84l17.661 164.84-20.016 28.258-18.839-28.258z" transform="matrix(-.50705 .80342 .66738 .67058 -286.39 19.592)"/>
     <path id="path610" d="m248.44 462.47c29.436 48.274 77.71 121.28 101.26 170.73 26.295-51.807 74.962-128.34 104.79-175.44-31.79 36.107-71.822 88.699-104.79 116.56-33.36-27.866-70.253-78.103-101.26-111.86z" transform="matrix(-.60805 .68475 .57686 .79138 -190.41 12.602)"/>
     <path id="path611" d="m332.03 604.94c1.177 0 21.194-164.84 21.194-164.84l17.661 164.84-20.016 28.258-18.839-28.258z" transform="matrix(-.66079 .60532 .5156 .85367 -130.32 -7.1051)"/>
     <path id="path612" d="m248.44 462.47c29.436 48.274 77.71 121.28 101.26 170.73 26.295-51.807 74.962-128.34 104.79-175.44-31.79 36.107-71.822 88.699-104.79 116.56-33.36-27.866-70.253-78.103-101.26-111.86z" transform="matrix(-.53968 0.769 .64128 .70978 -230.83 45.662)"/>
     <path id="path613" d="m332.03 604.94c1.177 0 21.194-164.84 21.194-164.84l17.661 164.84-20.016 28.258-18.839-28.258z" transform="matrix(-.19550 .97660 .82904 .34045 -469.03 180.53)"/>
     <path id="path614" d="m248.44 462.47c29.436 48.274 77.71 121.28 101.26 170.73 26.295-51.807 74.962-128.34 104.79-175.44-31.79 36.107-71.822 88.699-104.79 116.56-33.36-27.866-70.253-78.103-101.26-111.86z" transform="matrix(-.54271 .76564 .63872 .71342 -219.87 62.62)"/>
     <path id="path615" d="m332.03 604.94c1.177 0 21.194-164.84 21.194-164.84l17.661 164.84-20.016 28.258-18.839-28.258z" transform="matrix(-.37436 .87687 .76510 .54840 -348.1 103.99)"/>
     <path id="path616" d="m248.44 462.47c29.436 48.274 77.71 121.28 101.26 170.73 26.295-51.807 74.962-128.34 104.79-175.44-31.79 36.107-71.822 88.699-104.79 116.56-33.36-27.866-70.253-78.103-101.26-111.86z" transform="matrix(-.37351 .87749 .76552 .54743 -327.73 121.39)"/>
     <path id="path617" d="m332.03 604.94c1.177 0 21.194-164.84 21.194-164.84l17.661 164.84-20.016 28.258-18.839-28.258z" transform="matrix(-.23925 .95715 .81749 .39183 -403.67 188.09)"/>
     <path id="path618" d="m248.44 462.47c29.436 48.274 77.71 121.28 101.26 170.73 26.295-51.807 74.962-128.34 104.79-175.44-31.79 36.107-71.822 88.699-104.79 116.56-33.36-27.866-70.253-78.103-101.26-111.86z" transform="matrix(-.36797 .88142 .76820 .54107 -316.2 145.59)"/>
     <path id="path619" d="m332.03 604.94c1.177 0 21.194-164.84 21.194-164.84l17.661 164.84-20.016 28.258-18.839-28.258z" transform="matrix(-.44027 .82519 .72917 .62347 -265.88 104.33)"/>
     <path id="path620" d="m248.44 462.47c29.436 48.274 77.71 121.28 101.26 170.73 26.295-51.807 74.962-128.34 104.79-175.44-31.79 36.107-71.822 88.699-104.79 116.56-33.36-27.866-70.253-78.103-101.26-111.86z" transform="matrix(-.27970 .93643 .80455 .43904 -344.27 192.27)"/>
     <path id="path621" d="m332.03 604.94c1.177 0 21.194-164.84 21.194-164.84l17.661 164.84-20.016 28.258-18.839-28.258z" transform="matrix(-.056628 1.0193 .84990 .17535 -456.93 323.18)"/>
     <path id="path664" d="m332.03 604.94c1.177 0 21.194-164.84 21.194-164.84l17.661 164.84-20.016 28.258-18.839-28.258z" transform="matrix(.020168 -.39188 -.61627 .040304 498.97 161.08)"/>
     <path id="path665" d="m248.44 462.47c29.436 48.274 77.71 121.28 101.26 170.73 26.295-51.807 74.962-128.34 104.79-175.44-31.79 36.107-71.822 88.699-104.79 116.56-33.36-27.866-70.253-78.103-101.26-111.86z" transform="matrix(.016015 -.40284 -.61767 .036364 470.02 162.81)"/>
     <path id="path666" d="m332.03 604.94c1.177 0 21.194-164.84 21.194-164.84l17.661 164.84-20.016 28.258-18.839-28.258z" transform="matrix(-.084592 -.37938 -.61077 .10615 525.98 120.63)"/>
     <path id="path667" d="m248.44 462.47c29.436 48.274 77.71 121.28 101.26 170.73 26.295-51.807 74.962-128.34 104.79-175.44-31.79 36.107-71.822 88.699-104.79 116.56-33.36-27.866-70.253-78.103-101.26-111.86z" transform="matrix(-.18817 -.47728 -.59826 .20148 516.32 112.47)"/>
     <path id="path668" d="m332.03 604.94c1.177 0 21.194-164.84 21.194-164.84l17.661 164.84-20.016 28.258-18.839-28.258z" transform="matrix(.074343 -.39391 -.61211 .0056470 437.32 192.49)"/>
     <path id="path669" d="m248.44 462.47c29.436 48.274 77.71 121.28 101.26 170.73 26.295-51.807 74.962-128.34 104.79-175.44-31.79 36.107-71.822 88.699-104.79 116.56-33.36-27.866-70.253-78.103-101.26-111.86z" transform="matrix(-.054047 -.38420 -.61423 .087112 464.53 145.6)"/>
     <path id="path670" d="m332.03 604.94c1.177 0 21.194-164.84 21.194-164.84l17.661 164.84-20.016 28.258-18.839-28.258z" transform="matrix(-.21479 -.34741 -.57798 .18575 503.79 66.8)"/>
     <path id="path671" d="m248.44 462.47c29.436 48.274 77.71 121.28 101.26 170.73 26.295-51.807 74.962-128.34 104.79-175.44-31.79 36.107-71.822 88.699-104.79 116.56-33.36-27.866-70.253-78.103-101.26-111.86z" transform="matrix(-.12891 -.54735 -.45778 .086234 407.59 198.43)"/>
     <path id="path672" d="m332.03 604.94c1.177 0 21.194-164.84 21.194-164.84l17.661 164.84-20.016 28.258-18.839-28.258z" transform="matrix(-.15109 -.53870 -.44765 .11133 408.8 182.53)"/>
     <path id="path1609" d="m332.03 604.94c1.177 0 21.194-164.84 21.194-164.84l17.661 164.84-20.016 28.258-18.839-28.258z" transform="matrix(.029557 .99554 .88443 .14490 -527.6 335.38)"/>
     <path id="path1610" d="m332.03 604.94c1.177 0 21.194-164.84 21.194-164.84l17.661 164.84-20.016 28.258-18.839-28.258z" transform="matrix(-.16718 .93867 .86898 .36192 -427.03 233.56)"/>
     <path id="path1611" d="m332.03 604.94c1.177 0 21.194-164.84 21.194-164.84l17.661 164.84-20.016 28.258-18.839-28.258z" transform="matrix(-.017451 .98644 .88475 .19757 -462.22 328.02)"/>
     <path id="path1612" d="m248.44 462.47c29.436 48.274 77.71 121.28 101.26 170.73 26.295-51.807 74.962-128.34 104.79-175.44-31.79 36.107-71.822 88.699-104.79 116.56-33.36-27.866-70.253-78.103-101.26-111.86z" transform="matrix(-.15992 .94166 .87035 .35408 -386.57 266.9)"/>
     <path id="path1613" d="m332.03 604.94c1.177 0 21.194-164.84 21.194-164.84l17.661 164.84-20.016 28.258-18.839-28.258z" transform="matrix(-.24302 .90317 .85090 .44315 -346.84 215.36)"/>
     <path id="path1614" d="m248.44 462.47c29.436 48.274 77.71 121.28 101.26 170.73 26.295-51.807 74.962-128.34 104.79-175.44-31.79 36.107-71.822 88.699-104.79 116.56-33.36-27.866-70.253-78.103-101.26-111.86z" transform="matrix(-.061519 .97537 .88278 .24648 -403.41 318.71)"/>
     <path id="path1615" d="m332.03 604.94c1.177 0 21.194-164.84 21.194-164.84l17.661 164.84-20.016 28.258-18.839-28.258z" transform="matrix(.17448 1.0058 .86755 -.020642 -483.67 471.63)"/>
     <path id="path1616" d="m332.03 604.94c1.177 0 21.194-164.84 21.194-164.84l17.661 164.84-20.016 28.258-18.839-28.258z" transform="matrix(.10114 .99083 .89256 .080863 -503.33 405.32)"/>
     <path id="path1617" d="m332.03 604.94c1.177 0 21.194-164.84 21.194-164.84l17.661 164.84-20.016 28.258-18.839-28.258z" transform="matrix(-.099170 .94827 .89278 .29843 -410.35 296.52)"/>
     <path id="path1618" d="m332.03 604.94c1.177 0 21.194-164.84 21.194-164.84l17.661 164.84-20.016 28.258-18.839-28.258z" transform="matrix(.053604 .98514 .89668 .13336 -438.65 393.27)"/>
     <path id="path1619" d="m248.44 462.47c29.436 48.274 77.71 121.28 101.26 170.73 26.295-51.807 74.962-128.34 104.79-175.44-31.79 36.107-71.822 88.699-104.79 116.56-33.36-27.866-70.253-78.103-101.26-111.86z" transform="matrix(-.091716 .95073 .89358 .29051 -367.59 326.87)"/>
     <path id="path1620" d="m332.03 604.94c1.177 0 21.194-164.84 21.194-164.84l17.661 164.84-20.016 28.258-18.839-28.258z" transform="matrix(-.17738 .91832 .88059 .38075 -331.68 272.6)"/>
     <path id="path1621" d="m248.44 462.47c29.436 48.274 77.71 121.28 101.26 170.73 26.295-51.807 74.962-128.34 104.79-175.44-31.79 36.107-71.822 88.699-104.79 116.56-33.36-27.866-70.253-78.103-101.26-111.86z" transform="matrix(.0088532 .97727 .89823 .18229 -380.66 379.75)"/>
     <path id="path1622" d="m332.03 604.94c1.177 0 21.194-164.84 21.194-164.84l17.661 164.84-20.016 28.258-18.839-28.258z" transform="matrix(.24643 .99065 .86381 -.083039 -449.71 538.06)"/>
    </g>
    <g id="g1752" transform="matrix(1.1008 0 0 1.0798 111.21 31.501)">
     <path id="path1353" d="m374.65 434.6c0 66.213-53.676 119.89-119.89 119.89-66.213 0-119.89-53.676-119.89-119.89 0-66.213 53.676-119.89 119.89-119.89 66.213 0 119.89 53.676 119.89 119.89z" fill-rule="evenodd" transform="matrix(2.1427 0 0 2.2166 -324.43 -513.33)" fill="#3d25ca"/>
     <path id="path1740" d="m353.57 628.49-130.85-89.51-130.85 89.51 49.07-143.21-114.5-89.51h147.21l49.069-143.21 49.069 143.21h147.21l-114.49 89.507 49.069 143.21z" fill-rule="evenodd" transform="matrix(1.0832 0 0 .98968 -10.924 -12.555)" fill="#ffd900"/>
     <path id="path1741" d="m17.716 379.13 212.6 53.15" fill="none"/>
     <path id="path1742" d="m230.32 237.4v194.88" fill="none"/>
     <path id="path1743" d="m230.32 432.28v88.583" fill="none"/>
     <path id="path1744" d="m230.32 432.28 88.583 35.434" fill="none"/>
     <path id="path1745" d="m177.16 379.13 53.15 53.149" fill="none"/>
     <path id="path1746" d="m230.32 432.28 53.15-53.149" fill="none"/>
     <path id="path1747" d="m442.91 379.13-212.59 53.15" fill="none"/>
     <path id="path1748" d="m230.32 432.28 141.73 177.17" fill="none"/>
     <path id="path1749" d="m230.32 432.28-141.74 177.17" fill="none"/>
     <path id="path1750" d="m141.73 467.72 88.583-35.434" fill="none"/>
    </g>
   </g>
   <g id="g2032">
    <path id="path1963" d="m637.79 325.98c0 117.36-95.243 212.6-212.6 212.6s-212.6-95.243-212.6-212.6c0-117.35 95.244-212.6 212.6-212.6 117.35 0 212.6 95.244 212.6 212.6zm70.867 0c0 156.47-126.99 283.46-283.46 283.46s-283.46-126.99-283.46-283.46 126.99-283.46 283.46-283.46 283.46 126.99 283.46 283.46z" fill-rule="evenodd" transform="matrix(1.0938 0 0 1.0938 -66.437 190.9)" stroke="#000" stroke-width="1.0328pt" fill="#d60000"/>
    <path id="path1968" d="m790.76 189.65v-21.772l-17.561-29.625h7.335l8.985 15.497c1.654 2.898 3.198 5.796 4.63 8.694 1.363-2.688 3.023-5.715 4.969-9.08l8.826-15.111h7.022l-18.176 29.625v21.772h-6.03z" transform="matrix(-.34698 .93787 -.93787 -.34698 1087.2 -72.78)" stroke-width="1pt" fill="#ffe600"/>
    <path id="path1971" d="m719.4 138.25h6.031v29.695c0 5.166-0.52 9.268-1.554 12.306-1.04 3.039-2.912 5.516-5.628 7.433-2.694 1.893-6.237 2.84-10.628 2.84-4.27 0-7.759-0.83-10.47-2.489-2.715-1.66-4.651-4.056-5.812-7.188-1.162-3.155-1.74-7.456-1.74-12.902v-29.695h6.025v29.661c0 4.464 0.366 7.759 1.093 9.886 0.742 2.104 2.004 3.728 3.786 4.874 1.804 1.145 3.999 1.717 6.593 1.717 4.428 0 7.589-1.133 9.478-3.401 1.882-2.267 2.826-6.626 2.826-13.076v-29.661z" transform="matrix(.10883 .99406 -.99406 .10883 751.51 -205.45)" stroke-width="1pt" fill="#ffe600"/>
    <path id="path1972" d="m661.32 169.49v-6.03l19.295-0.035v19.072c-2.96 2.665-6.015 4.675-9.165 6.03-3.151 1.332-6.38 1.999-9.695 1.999-4.477 0-8.55-1.075-12.215-3.226-3.649-2.174-6.401-5.305-8.268-9.396-1.862-4.09-2.795-8.659-2.795-13.708 0-5.002 0.923-9.665 2.768-13.988 1.862-4.348 4.535-7.573 8.014-9.677 3.48-2.104 7.489-3.155 12.029-3.155 3.294 0 6.264 0.607 8.916 1.823 2.673 1.192 4.768 2.863 6.279 5.013 1.512 2.151 2.663 4.956 3.447 8.415l-5.436 1.682c-0.684-2.617-1.533-4.674-2.546-6.17-1.018-1.496-2.466-2.688-4.354-3.576-1.883-0.911-3.978-1.367-6.274-1.367-2.758 0-5.139 0.479-7.149 1.437-2.011 0.935-3.639 2.174-4.88 3.716-1.22 1.543-2.174 3.238-2.859 5.084-1.161 3.179-1.739 6.626-1.739 10.343 0 4.581 0.695 8.414 2.079 11.499 1.411 3.085 3.453 5.376 6.126 6.872 2.673 1.495 5.51 2.243 8.512 2.243 2.609 0 5.16-0.561 7.648-1.683 2.482-1.145 4.37-2.36 5.654-3.645v-9.572h-13.392z" transform="matrix(.19869 .98006 -.98006 .19869 685.86 -216.97)" stroke-width="1pt" fill="#ffe600"/>
    <path id="path1981" d="m413.37 189.65v-51.397h6.025v45.332h22.439v6.065h-28.464z" transform="matrix(0.985 .17257 -.17257 0.985 61.223 44.283)" stroke-width="1pt" fill="#ffe600"/>
    <path id="path1982" d="m371.29 189.65v-51.397h32.941v6.066h-26.91v15.741h25.203v6.03h-25.203v17.495h27.966v6.065h-33.997z" transform="translate(14.314 109.37)" stroke-width="1pt" fill="#ffe600"/>
    <path id="path1987" d="m251.62 171.63 6.025 1.718c-1.262 5.586-3.543 9.852-6.836 12.796-3.273 2.922-7.282 4.383-12.024 4.383-4.911 0-8.91-1.122-11.997-3.366-3.065-2.267-5.404-5.539-7.022-9.817-1.596-4.277-2.392-8.87-2.392-13.778 0-5.352 0.902-10.015 2.7-13.989 1.824-3.997 4.402-7.023 7.738-9.08 3.357-2.08 7.049-3.12 11.063-3.12 4.562 0 8.391 1.309 11.499 3.926 3.108 2.618 5.272 6.299 6.497 11.044l-5.935 1.578c-1.055-3.74-2.593-6.463-4.598-8.169-2.01-1.706-4.54-2.559-7.584-2.559-3.501 0-6.434 0.946-8.794 2.839-2.344 1.894-3.988 4.441-4.943 7.644-0.955 3.178-1.427 6.462-1.427 9.851 0 4.371 0.557 8.192 1.676 11.465 1.141 3.248 2.901 5.679 5.283 7.292 2.381 1.612 4.964 2.419 7.738 2.419 3.378 0 6.237-1.099 8.576-3.296 2.344-2.197 3.925-5.457 4.757-9.781z" transform="matrix(.76014 -.64976 .64976 .76014 -59.543 364.33)" stroke-width="1pt" fill="#ffe600"/>
    <path id="path1988" d="m202.45 189.65v-51.397h6.03v51.397h-6.03z" transform="matrix(.66836 -.74384 .74384 .66836 -54.644 400.36)" stroke-width="1pt" fill="#ffe600"/>
    <path id="path1989" d="m165.78 189.65v-51.397h6.03v45.332h22.434v6.065h-28.464z" transform="matrix(.60945 -.79282 .79282 .60945 -54.38 421.56)" stroke-width="1pt" fill="#ffe600"/>
    <path id="path1993" d="m107.51 138.25h6.025v29.695c0 5.166-0.514 9.268-1.548 12.306-1.04 3.039-2.912 5.516-5.627 7.433-2.695 1.893-6.238 2.84-10.629 2.84-4.2695 0-7.7593-0.83-10.475-2.489-2.7101-1.66-4.6513-4.056-5.8075-7.188-1.1615-3.155-1.7396-7.456-1.7396-12.902v-29.695h6.025v29.661c0 4.464 0.3659 7.759 1.0872 9.886 0.7479 2.104 2.0101 3.728 3.7922 4.874 1.8032 1.145 3.9989 1.717 6.5871 1.717 4.4339 0 7.5944-1.133 9.4834-3.401 1.882-2.267 2.826-6.626 2.826-13.076v-29.661z" transform="matrix(.36842 -.92966 .92966 .36842 -47.569 485.03)" stroke-width="1pt" fill="#ffe600"/>
    <path id="path1996" d="m-7.1562 189.65v-51.397h32.941v6.066h-26.916v15.741h25.203v6.03h-25.203v17.495h27.972v6.065h-33.997z" transform="matrix(-.0082977 -.99997 .99997 -.0082977 -39.126 554.8)" stroke-width="1pt" fill="#ffe600"/>
    <path id="path2001" d="m325.2 189.65v-51.397h15.693c3.543 0 6.243 0.246 8.11 0.737 2.609 0.678 4.836 1.904 6.682 3.681 2.403 2.29 4.195 5.224 5.373 8.8 1.204 3.553 1.803 7.619 1.803 12.2 0 3.903-0.403 7.363-1.209 10.378-0.812 3.015-1.846 5.516-3.108 7.503-1.262 1.963-2.652 3.517-4.164 4.663-1.495 1.121-3.304 1.974-5.441 2.559-2.111 0.584-4.545 0.876-7.303 0.876h-16.436zm6.025-6.065h9.727c3.007 0 5.356-0.315 7.053-0.947 1.724-0.631 3.087-1.519 4.105-2.664 1.427-1.613 2.536-3.775 3.326-6.486 0.806-2.735 1.209-6.042 1.209-9.922 0-5.375-0.785-9.501-2.36-12.376-1.554-2.898-3.447-4.838-5.686-5.82-1.617-0.701-4.216-1.051-7.801-1.051h-9.573v39.266z" transform="matrix(.98024 -.19783 .19783 .98024 -13.77 184.73)" stroke-width="1pt" fill="#ffe600"/>
    <path id="path2004" d="m466.69 189.65v-51.397h17.189c3.023 0 5.335 0.164 6.927 0.491 2.238 0.421 4.115 1.227 5.627 2.419 1.511 1.169 2.726 2.817 3.633 4.943 0.933 2.127 1.4 4.465 1.4 7.012 0 4.371-1.231 8.076-3.697 11.114-2.466 3.015-6.921 4.523-13.365 4.523h-11.684v20.895h-6.03zm6.03-26.961h11.779c3.893 0 6.662-0.817 8.295-2.453 1.639-1.637 2.456-3.939 2.456-6.907 0-2.15-0.488-3.985-1.459-5.505-0.954-1.542-2.216-2.559-3.792-3.05-1.013-0.303-2.89-0.455-5.627-0.455h-11.652v18.37z" transform="matrix(.88663 .46248 -.46248 .88663 182.56 -57.182)" stroke-width="1pt" fill="#ffe600"/>
    <path id="path2007" d="m504.14 189.65 17.497-51.397h6.491l18.648 51.397h-6.868l-5.314-15.566h-19.051l-5.002 15.566h-6.401zm13.142-21.106h15.45l-4.757-14.234c-1.448-4.323-2.525-7.876-3.23-10.657-0.584 3.295-1.4 6.567-2.456 9.816l-5.007 15.075z" transform="matrix(.74426 .66789 -.66789 .74426 286.34 -137.51)" stroke-width="1pt" fill="#ffe600"/>
    <path id="path2012" d="m551.69 189.65v-51.397h20.197c4.062 0 7.149 0.468 9.26 1.403 2.116 0.912 3.803 2.535 5.07 4.873 1.263 2.337 1.894 4.92 1.894 7.748 0 3.646-1.045 6.72-3.14 9.221-2.09 2.501-5.325 4.09-9.695 4.768 1.596 0.864 2.805 1.718 3.638 2.559 1.761 1.823 3.426 4.102 5.001 6.837l7.924 13.988h-7.584l-6.025-10.693c-1.761-3.085-3.214-5.446-4.354-7.082-1.135-1.636-2.164-2.781-3.077-3.435-0.891-0.655-1.803-1.111-2.731-1.368-0.684-0.164-1.803-0.246-3.357-0.246h-6.99v22.824h-6.031zm6.031-28.713h12.957c2.752 0 4.911-0.316 6.465-0.947 1.554-0.654 2.731-1.683 3.543-3.085 0.806-1.426 1.209-2.969 1.209-4.628 0-2.431-0.785-4.429-2.36-5.995-1.554-1.566-4.021-2.349-7.399-2.349h-14.415v17.004z" transform="matrix(.60879 .79333 -.79333 .60879 386.21 -178.23)" stroke-width="1pt" fill="#ffe600"/>
    <path id="path2015" d="m592.55 189.65 17.497-51.397h6.492l18.647 51.397h-6.868l-5.314-15.566h-19.051l-5.001 15.566h-6.402zm13.143-21.106h15.449l-4.757-14.234c-1.448-4.323-2.53-7.876-3.23-10.657-0.583 3.295-1.4 6.567-2.456 9.816l-5.006 15.075z" transform="matrix(.48763 .87305 -.87305 .48763 475.73 -199.8)" stroke-width="1pt" fill="#ffe600"/>
    <path id="path2018" d="m730.47 189.65 17.497-51.397h6.491l18.648 51.397h-6.868l-5.314-15.566h-19.051l-5.002 15.566h-6.401zm13.142-21.106h15.445l-4.752-14.234c-1.454-4.323-2.53-7.876-3.23-10.657-0.584 3.295-1.401 6.567-2.456 9.816l-5.007 15.075z" transform="matrix(-0.104 .99458 -.99458 -0.104 908.9 -163.73)" stroke-width="1pt" fill="#ffe600"/>
    <path id="path2021" d="m-53.15 189.65v-51.397h20.196c4.0626 0 7.1494 0.468 9.2602 1.403 2.1162 0.912 3.8027 2.535 5.0703 4.873 1.2623 2.337 1.8934 4.92 1.8934 7.748 0 3.646-1.0448 6.72-3.1397 9.221-2.0897 2.501-5.3249 4.09-9.6952 4.768 1.5965 0.864 2.8057 1.718 3.6384 2.559 1.7608 1.823 3.4261 4.102 5.0013 6.837l7.9237 13.988h-7.5842l-6.025-10.693c-1.7608-3.085-3.214-5.446-4.3543-7.082-1.135-1.636-2.1639-2.781-3.0762-3.435-0.891-0.655-1.8032-1.111-2.7313-1.368-0.6842-0.164-1.8033-0.246-3.3573-0.246h-6.9902v22.824h-6.0303zm6.0303-28.713h12.957c2.7526 0 4.9112-0.316 6.4651-0.947 1.554-0.654 2.7314-1.683 3.5429-3.085 0.8062-1.426 1.2092-2.969 1.2092-4.628 0-2.431-0.7849-4.429-2.3601-5.995-1.554-1.566-4.0202-2.349-7.3986-2.349h-14.415v17.004z" transform="matrix(-.21523 -.97656 .97656 -.21523 -37.95 596.54)" stroke-width="1pt" fill="#ffe600"/>
    <path id="path2024" d="m35.167 189.65v-51.397h17.184c3.0284 0 5.3355 0.164 6.9319 0.491 2.2381 0.421 4.1103 1.227 5.6272 2.419 1.5115 1.169 2.7207 2.817 3.633 4.943 0.9334 2.127 1.4001 4.465 1.4001 7.012 0 4.371-1.2357 8.076-3.6966 11.114-2.4662 3.015-6.9213 4.523-13.365 4.523h-11.684v20.895h-6.0302zm6.0302-26.961h11.78c3.8929 0 6.6561-0.817 8.2949-2.453 1.6389-1.637 2.4556-3.939 2.4556-6.907 0-2.15-0.4879-3.985-1.4585-5.505-0.9546-1.542-2.2169-2.559-3.7921-3.05-1.0183-0.303-2.8905-0.455-5.6272-0.455h-11.652v18.37z" transform="matrix(.085737 -.99632 .99632 .085737 -39.533 533.62)" stroke-width="1pt" fill="#ffe600"/>
    <path id="path2028" d="m123.33 189.65v-51.397h17.094c3.479 0 6.263 0.526 8.358 1.578 2.111 1.029 3.761 2.63 4.943 4.803 1.199 2.15 1.798 4.406 1.798 6.767 0 2.197-0.525 4.265-1.58 6.205-1.061 1.94-2.652 3.506-4.789 4.698 2.757 0.911 4.868 2.466 6.343 4.663 1.49 2.197 2.238 4.791 2.238 7.783 0 2.407-0.456 4.651-1.368 6.732-0.891 2.056-2 3.645-3.326 4.767s-2.996 1.975-5.006 2.56c-1.989 0.561-4.434 0.841-7.33 0.841h-17.375zm6.03-29.8h9.849c2.673 0 4.593-0.199 5.749-0.596 1.533-0.514 2.684-1.367 3.453-2.559 0.785-1.192 1.177-2.688 1.177-4.488 0-1.706-0.36-3.202-1.087-4.487-0.721-1.31-1.761-2.198-3.108-2.665-1.347-0.491-3.654-0.736-6.926-0.736h-9.107v15.531zm0 23.735h11.345c1.946 0 3.315-0.082 4.1-0.245 1.389-0.281 2.545-0.748 3.479-1.403 0.933-0.655 1.702-1.601 2.302-2.84 0.599-1.262 0.901-2.711 0.901-4.347 0-1.917-0.435-3.576-1.305-4.979-0.869-1.425-2.084-2.419-3.638-2.979-1.533-0.585-3.75-0.877-6.651-0.877h-10.533v17.67z" transform="matrix(.55474 -.83202 .83202 .55474 -52.297 436.28)" stroke-width="1pt" fill="#ffe600"/>
    <path id="path2031" d="m260.06 189.65 17.497-51.397h6.497l18.642 51.397h-6.863l-5.314-15.566h-19.051l-5.007 15.566h-6.401zm13.148-21.106h15.444l-4.752-14.234c-1.453-4.323-2.53-7.876-3.235-10.657-0.578 3.295-1.395 6.567-2.456 9.816l-5.001 15.075z" transform="matrix(.84688 -.53178 .53178 .84688 -62.478 318.04)" stroke-width="1pt" fill="#ffe600"/>
   </g>
  </g>
 </g>
</svg>
