<?xml version="1.0" encoding="UTF-8" standalone="no"?>
<!-- Created with Sodipodi ("http://www.sodipodi.com/") -->
<svg id="svg1234" xmlns:rdf="http://www.w3.org/1999/02/22-rdf-syntax-ns#" xmlns="http://www.w3.org/2000/svg" height="480" width="640" version="1.1" xmlns:cc="http://creativecommons.org/ns#" xmlns:dc="http://purl.org/dc/elements/1.1/">
 <metadata id="metadata4357">
  <rdf:RDF>
   <cc:Work rdf:about="">
    <dc:format>image/svg+xml</dc:format>
    <dc:type rdf:resource="http://purl.org/dc/dcmitype/StillImage"/>
   </cc:Work>
  </rdf:RDF>
 </metadata>
 <defs id="defs1236">
  <clipPath id="clipPath3599" clipPathUnits="userSpaceOnUse">
   <rect id="rect3601" fill-opacity="0.67" height="512" width="682.67" y="-.000011543" x="-170.67"/>
  </clipPath>
 </defs>
 <g id="flag" clip-path="url(#clipPath3599)" fill-rule="evenodd" transform="matrix(.93750 0 0 .93750 160 .000010821)">
  <rect id="rect1242" height="256" width="768" y="-.000012163" x="-256" stroke-width="1pt" fill="#009af4"/>
  <rect id="rect1243" height="128" width="768" y="384" x="-256" stroke-width="1pt" fill="#1c8f31"/>
  <rect id="rect1244" height="128" width="768" y="256" x="-256" stroke-width="1pt" fill="#efef00"/>
  <polygon id="polygon1249" transform="matrix(1.0321 0 0 1.0321 -253.76 1.683)" d="m 673.45575,171.0214 -36.01357,-19.86386 21.41117,35.11569 -29.64529,-28.50802 11.593,39.46077 -21.25673,-35.20939 0.98477,41.11667 -11.41956,-39.51131 -9.69056,39.97053 -0.80418,-41.1206 -19.70549,36.10047 9.86602,-39.92758 -28.37753,29.77021 19.86386,-36.01356 -35.11569,21.41117 28.50801,-29.64529 -39.46077,11.593 35.2094,-21.25674 -41.11667,0.98478 39.51131,-11.41957 -39.97053,-9.69055 41.12059,-0.80418 -36.10046,-19.705493 39.92758,9.866023 -29.77022,-28.377535 36.01357,19.863862 -21.41117,-35.115691 29.64529,28.508014 -11.593,-39.460771 21.25673,35.209392 -0.98477,-41.116666 11.41956,39.511308 9.69056,-39.970528 0.80418,41.120594 19.70549,-36.100464 -9.86602,39.927579 28.37753,-29.770213 -19.86386,36.013566 35.11569,-21.411173 -28.50801,29.645286 39.46077,-11.592993 -35.20939,21.256733 41.11666,-0.98477 -39.51131,11.41956 39.97053,9.69056 -41.12059,0.80417 36.10046,19.7055 -39.92758,-9.86602 z" points="673.46 171.02 637.44 151.16 658.85 186.27 629.21 157.76 640.8 197.23 619.54 162.02 620.53 203.13 609.11 163.62 599.42 203.59 598.62 162.47 578.91 198.57 588.78 158.64 560.4 188.42 580.26 152.4 545.15 173.81 573.65 144.17 534.19 155.76 569.4 134.5 528.29 135.49 567.8 124.07 527.83 114.38 568.95 113.57 532.85 93.869 572.77 103.74 543 75.357 579.02 95.221 557.61 60.105 587.25 88.613 575.66 49.152 596.92 84.362 595.93 43.245 607.35 82.756 617.04 42.786 617.84 83.907 637.55 47.806 627.68 87.734 656.06 57.964 636.2 93.977 671.31 72.566 642.81 102.21 682.27 90.618 647.06 111.88 688.17 110.89 648.66 122.31 688.63 132 647.51 132.8 683.61 152.51 643.69 142.64" stroke-width="1pt" fill="#ffda00"/>
  <path id="path1251" d="m639.76 123.19c0 17.111-13.871 30.982-30.982 30.982s-30.982-13.871-30.982-30.982 13.871-30.982 30.982-30.982 30.982 13.871 30.982 30.982z" transform="matrix(1.0449 0 0 1.0449 -262.11 .10562)" fill="#0098f6"/>
  <path id="path1250" d="m639.76 123.19c0 17.111-13.871 30.982-30.982 30.982s-30.982-13.871-30.982-30.982 13.871-30.982 30.982-30.982 30.982 13.871 30.982 30.982z" transform="matrix(.84007 0 0 .85231 -137.4 23.834)" fill="#ffd900"/>
 </g>
</svg>
