<?xml version="1.0" encoding="UTF-8" standalone="no"?>
<!-- Created with Sodipodi ("http://www.sodipodi.com/") -->
<svg id="svg761" xmlns:rdf="http://www.w3.org/1999/02/22-rdf-syntax-ns#" xmlns="http://www.w3.org/2000/svg" height="480" width="640" version="1.1" xmlns:cc="http://creativecommons.org/ns#" xmlns:dc="http://purl.org/dc/elements/1.1/">
 <metadata id="metadata42">
  <rdf:RDF>
   <cc:Work rdf:about="">
    <dc:format>image/svg+xml</dc:format>
    <dc:type rdf:resource="http://purl.org/dc/dcmitype/StillImage"/>
   </cc:Work>
  </rdf:RDF>
 </metadata>
 <defs id="defs763">
  <clipPath id="clipPath15809" clipPathUnits="userSpaceOnUse">
   <rect id="rect15811" fill-opacity="0.67" height="512" width="682.67" y="-.0000039058" x="-85.333"/>
  </clipPath>
 </defs>
 <g id="flag" clip-path="url(#clipPath15809)" fill-rule="evenodd" transform="matrix(.9375 0 0 .9375 80 .0000036617)">
  <rect id="rect681" height="512" width="768" y="-.0000039058" x="-128" fill="#199d00"/>
  <path id="path766" d="m65.54 145.13c-0.8866 11.961-1.9507 33.011 8.2126 35.17 12.293 1.1818 5.5147-20.806 9.9642-24.793 0.84118-1.9703 2.3925-1.9807 2.5205 0.50471v18.651c-0.1125 6.0648 3.8746 7.8514 6.972 9.1044 3.2233-0.24874 5.3753-0.1414 6.6386 2.9952 0.50368 10.754 1.0084 21.507 1.5121 32.261 0 0 7.4757 2.1396 7.8318-18.146 0.35712-11.911-2.379-21.881-0.77512-24.198 0.0568-2.2769 2.9643-2.4131 4.981-1.3036 3.213 2.2666 4.6446 5.0657 9.638 3.9458 7.5985-2.0932 12.166-5.7892 12.278-11.624-0.44382-5.5446-1.0652-11.09-3.468-16.635 0.33544-1.0084-1.4666-3.6207-1.1322-4.6291 1.3655 2.1386 3.4432 1.961 3.9159 0-1.2933-4.2616-3.2997-8.3448-6.553-10.112-2.6887-2.3687-6.6232-1.8847-8.064 3.0551-0.66778 5.6922 2.0519 12.455 6.1969 17.968 0.88041 2.154 2.1169 5.7335 1.573 8.9568-2.2057 1.2582-4.4113 0.73385-6.2588-1.2169 0 0-6.0483-4.5362-6.0483-5.5446 1.605-10.276 0.35609-11.441-0.53361-14.293-0.62134-3.9365-2.4895-5.1988-4.0026-7.8875-1.5131-1.6039-3.5598-1.6039-4.5383 0-2.6732 4.6342-1.4264 14.583 0.50471 19.039 1.3954 4.0986 3.5278 6.6706 2.5205 6.6706-0.82983 2.3161-2.5452 1.7814-3.7931-0.89176-1.7814-5.525-2.1386-13.769-2.1386-17.481-0.53464-4.6023-1.1219-14.419-4.1512-16.913-1.8475-2.5163-4.5868-1.2891-5.5436 1.0074-0.1992 4.5682-0.21984 9.1354 0.29416 13.345 2.0777 7.3838 2.73 13.876 3.7384 21.437 0.27971 10.128-5.8563 4.3948-5.5756-0.6265 1.415-6.522 1.0476-16.788-0.20952-19.39-0.99704-2.602-2.1737-3.244-4.5981-2.8156-1.9249-0.11766-6.8781 5.2907-8.2684 14.262 0 0-1.1859 4.6177-1.6917 8.7173-0.68017 4.6332-3.7301 7.903-5.8687-0.65127-1.8485-6.2175-2.9849-21.524-6.0803-17.939z" fill="#fff"/>
  <path id="path767" d="m98.944 194.21c-10.848 5.3031-21.339 10.25-32.01 15.375 0.39014-7.2558 15.219-20.354 25.331-20.538 6.5819 0.18372 4.9284 2.5504 6.6789 5.1637z" fill="#fff"/>
  <path id="path768" d="m93.352 204.24c-16.87 43.487 39.505 49.546 45.805 1.7814 0.59348-1.96 2.9705-3.921 3.3864-0.7132-1.3077 43.248-43.606 46.22-50.794 32.614-1.7815-3.2068-2.3171-10.336-2.4957-14.614-1.0693-8.4944-5.5239-5.2277-6.2371 3.2078-0.7132 4.6931-0.53464 6.0018-0.53464 10.516 2.2573 34.159 56.736 19.486 65.587-8.7328 4.6931-15.625-0.77306-27.149 1.7814-27.091 5.4063 5.8233 12.95 0.77307 14.614-1.2468 0.7132-1.0104 2.4967-1.6628 3.7435-0.35608 4.2173 3.0314 11.645 1.6029 13.189-3.7435 0.89176-5.2277 1.605-10.634 1.7835-16.217-3.4473 1.0703-6.0008 1.7814-6.2382 3.2078-0.23842 1.5451-0.47478 3.0881-0.7132 4.6332-0.29622 1.4863-3.2688 1.5441-3.3864-0.35711-1.3067-5.9409-6.713-6.713-9.9807 2.4967-2.1984 1.7815-6.1783 2.1386-6.5953-0.53464 0.53464-6.1783-1.961-7.0112-6.9503-4.0996-1.6039-12.238-3.2068-23.941-4.8118-36.179 2.0797-0.0599 3.982 1.4842 5.8831-0.89176-2.0818-6.4745-6.4766-19.723-8.9134-20.674-1.188-1.4254-2.1995-0.53464-3.7425-0.17855-2.6134 0.83189-5.0502 3.0892-4.2782 7.486 3.0892 18.772 5.1101 33.09 8.1992 51.863 0.47477 2.1984-1.3665 5.107-3.7425 4.8108-4.0397-2.7331-5.0471-8.257-11.941-8.0207-4.9903 0.0599-10.695 5.4661-11.406 10.696-0.83189 4.1564-1.1302 8.6709-0.002 12.296 3.5072 4.2173 7.7244 3.8034 11.408 2.8518 3.0293-1.2468 5.5239-4.2771 6.5943-3.565 0.7132 0.89176 0.17649 10.87-14.259 18.535-8.7328 3.921-15.684 4.8128-19.425-2.3171-2.3171-4.4557 0.17753-21.387-5.527-17.465z" fill="#fff"/>
  <path id="path769" d="m164.91 160.03c3.3864-1.2478 19.429-19.604 19.429-19.604-0.83292-0.7132-1.576-1.2478-2.408-1.961-0.89176-0.77204-0.80196-1.5441 0-2.3171 3.9799-2.3161 2.7031-7.3962 0.62444-9.7123-3.4463-1.5451-6.4467-1.0404-8.6451 0.0888-2.7919 2.6732-3.4442 6.9503-1.2458 9.6236 2.1396 1.0104 4.2771 3.179 2.8507 4.3669-6.5633 7.0102-24.535 19.1-22.455 19.515 0.44381 0.5945 11.495 0.56457 11.85 0z" fill="#fff"/>
  <path id="path770" d="m68.036 225c-6.0163 9.5843-6.5396 23.903-3.2202 28.172 1.7639 2.0168 4.6621 2.9003 6.8058 2.2686 3.7796-1.639 5.4341-9.2974 4.5372-12.099-1.2613-1.9745-2.2552-2.2872-3.5144-0.60792-2.6598 5.4001-3.7642 1.6958-3.9974-1.3222-0.40769-5.7231 0.13108-10.994 0.75242-15.168 0.66159-4.2782-0.01135-2.9705-1.3634-1.2437z" fill="#fff"/>
  <path id="path771" d="m325.12 209.65c-5.8171-12.521-13.87-24.894-16.432-29.647-2.5617-4.755-21.905-32.827-24.752-35.984-6.2836-7.4674 10.204 3.1098-2.0859-11.716-4.6859-4.0201-4.9583-4.2648-8.8474-7.5448-1.9621-1.3923-6.7522-3.9355-7.6006 0.2797-0.42627 3.7167-0.1961 5.7324 0.42833 8.8268 0.47891 2.0632 3.4845 5.5188 4.9625 7.5211 19.625 26.379 37.027 53.019 53.808 86.514 2.6495-1.2592 2.0704-16.155 0.52019-18.25z" fill="#fff"/>
  <path id="path793" d="m299.59 251.54c-1.1436 1.284 2.8239 6.7759 7.9804 6.7708 8.6234-1.0012 16.215-5.8449 23.244-18.596 1.8795-2.9736 5.1833-9.3335 5.2804-14.267 0.65746-28.925-1.4481-51.433-5.782-72.339-0.27764-2.0364-0.10837-4.4299 0.23636-5.0409 0.55838-0.66676 2.4523 0.003 3.4566-1.6442 1.4739-1.5048-3.9138-13.97-6.9854-18.771-1.091-2.1437-1.4708-3.5753-3.276 0.25184-1.8991 3.1108-3.1748 8.5388-3.0252 13.611 4.1141 28.482 5.3774 53.398 8.0661 81.881 0.21881 2.7548-0.18579 6.7573-2.0168 8.353-6.7728 7.0721-16.548 15.777-27.178 19.791z" fill="#fff"/>
  <path id="path794" d="m416.08 251.39c-6.1886 3.5774-6.1959 7.6924-1.1921 7.8411 8.6234-1.0012 18.813-1.7175 25.841-12.329 1.8805-2.9736 4.1141-11.015 4.2111-15.948 0.65747-28.925-0.37776-50.515-4.7117-71.421-0.27764-2.0364-1.1787-6.7233-0.83396-7.3343 0.55838-1.4316 3.3699 0.15586 4.3742-1.4914 1.4739-1.5048-7.2775-12.747-10.349-17.548-1.091-2.1437-1.4708-3.5753-3.276 0.25184-1.8991 3.1108-2.5628 8.6915-1.8021 13.611 4.5723 30.928 7.9763 54.163 8.6781 81.575-0.39324 2.602-0.49129 4.0046-1.7113 7.2827-2.699 3.4597-5.6891 7.7853-8.4934 9.8764-2.8033 2.09-8.7844 4.0852-10.735 5.6344z" fill="#fff"/>
  <path id="path795" d="m420.72 223.66c-0.0712-7.2331 0.10218-13.479-0.13624-18.873-0.23739-5.3949-1.1911-9.7877-3.0582-13.617-1.767-4.1058-0.66985-7.4055-1.4997-11.779-0.8288-4.3721-0.62443-10.92-1.8774-16.108-0.34369-2.0261-1.3965-8.515-1.0713-9.1374 0.5109-1.4481 2.4565 0.0454 3.407-1.6328 1.4233-1.5513-4.9367-18.008-8.1631-22.707-1.1601-2.1066-3.2667-1.3851-5.8645 2.0405-2.409 2.2542-1.5152 7.3952-0.59554 12.286 6.1876 32.291 10.803 61.518 9.7959 92.257-0.30861 2.6134 9.1271-7.7956 9.0631-12.729z" fill="#fff"/>
  <path id="path796" d="m375 183.61c-3.8922-0.0712-12.044-7.5738-14.423-11.97-0.89898-2.5215-0.32202-4.981 0.47065-6.4219 1.4408-0.93717 3.6579-1.9899 5.3154-0.98052 0 0 1.7185 2.4048 1.3862 2.7104 2.1252 1.0177 3.0272 0.43246 3.2429-0.43246 0.1445-1.5131-0.62856-2.4152-0.63682-4.0821 0.90105-4.5207 6.0679-5.2236 8.0134-2.3409 1.4243 1.7577 1.9466 5.492 2.1623 8.0134-0.0227 1.2881-2.1086-0.22294-3.2935 0.0867-1.1859 0.31067-1.4708 1.6782-1.5626 2.9158-0.21468 3.278-0.60276 8.5378-0.67501 12.501z" fill="#fff"/>
  <path id="path797" d="m303.17 231.68c1.0724-9.8279-0.39634-27.331-0.49439-33.13-0.39324-13.7-2.6309-40.162-3.696-44.583-1.2004-8.3334 3.4277 0.91446 2.7867-3.9293-1.5007-8.322-6.1164-13.963-11.542-21.585-1.7494-2.4792-1.6906-2.9849-4.3917 0.60792-2.989 6.7811-0.40872 11.445 0.36331 16.726 3.9128 17.206 6.1959 33.037 7.259 48.687 1.0631 15.651 1.3892 32.572 0.41904 49.055 2.9323 0.11559 7.647-4.7437 9.2964-11.849z" fill="#fff"/>
  <path id="path798" d="m433.97 215.94c-6.8626-11.515-17.219-23.987-19.986-28.624-2.7661-4.6384-26.166-34.83-29.148-37.86-8.5605-8.9929 3.9262-1.4636-1.639-8.4098-4.7065-5.1679-6.0792-6.7904-10.108-9.8981-2.0199-1.3056-3.244-3.7982-3.9076 0.45-0.26423 3.7322-0.5398 8.0496-0.289 11.195-0.0145 1.7484 1.8062 5.0337 3.3699 6.97 20.755 25.5 43.393 51.537 61.617 84.269 2.5927-1.3738 1.7309-16.066 0.0908-18.092z" fill="#fff"/>
  <path id="path799" d="m122.59 194.69c-0.49439 0.86596-1.5936 1.9879-1.2251 3.149 0.771 1.0445 1.3862 1.2561 2.6701 1.3129 1.1137 0 2.6701 0.26319 3.0045-0.39428 0.59966-0.66056 1.0559-2.0085 0.55631-3.2811-1.1601-2.8992-4.4-1.8186-5.0058-0.78648z" fill="#1ba400"/>
  <path id="path800" d="m354.17 362.54c9.1777 0.33751 15.185 0.41904 23.348 1.3903 0 0 7.0391-0.69566 9.5534-1.0755 10.626-1.0136 11.096 15.176 11.096 15.176-0.11663 9.4956-3.7817 9.992-8.4603 10.995-2.6732 0.34061-4.0779-1.6008-5.4827-3.6682-1.7639 0.73798-4.1605 0.84428-7.0649 0.44175-3.824-0.23945-7.6491-0.22397-11.473-0.46342-4.0635-0.35815-6.2248 0.42317-10.288 0.065-0.83705 1.3149-1.9259 3.1356-4.4113 2.5494-2.0674-0.2281-4.5166-6.0328-3.7951-10.445 1.4925-3.1645 1.0827-2.1468 0.92685-3.5371-37.525-0.95575-75.409-2.6288-112.22-2.151-28.8 0.11973-57.244 1.3149-85.687 2.5101-15.177-0.23945-26.769-2.6299-34.776-14.341 0.71733 0 38.72 2.151 49.835 1.4336 20.555-0.23945 39.317-1.9115 60.231-2.5091 41.23 0.7163 82.103 0.71733 123.33 3.5846-3.9438-2.698-4.0852-9.0714 1.9848-10.629 0.51606-0.35506 0.78235 3.1686 1.6906 3.1026 4.8562-0.36434 2.7269 6.2144 1.6586 7.5706z" fill="#fff"/>
  <path id="path801" d="m188.64 135.28c-6.2485 17.859 3.5794 37.394 10.394 35.492 4.916 2.0354 8.0465-7.3168 10.059-17.563 1.3769-2.8755 2.4172-3.182 3.1242-1.704-0.18166 13.625 0.97845 16.643 4.4815 20.779 7.8142 6.0286 14.278 0.76996 14.785 0.26216l6.0844-6.0844c1.3542-1.4243 3.1573-1.5079 5.0698-0.25287 1.8589 1.6896 1.5977 4.6084 5.5776 6.6324 3.3492 1.3397 10.51 0.30963 12.169-2.5762 2.2325-3.8261 2.7682-5.14 3.8024-6.5912 1.5936-2.121 4.3102-1.1776 4.3102-0.5078-0.25391 1.1828-1.8485 2.3667-0.76068 4.497 1.895 1.4212 2.3326 0.50677 3.4535 0.19094 3.9644-1.895 6.941-10.518 6.941-10.518 0.17546-3.2078-1.6225-2.9426-2.7888-2.282-1.5214 0.92995-1.6204 1.2272-3.1418 2.1572-1.9383 0.28796-5.6984 1.573-7.5572-1.3056-1.8981-3.4607-1.9239-8.289-3.3751-11.78 0-0.2539-2.5184-5.4981-0.17443-5.8336 1.1828 0.21984 3.7064 0.88763 4.1079-1.2375 1.2406-2.0715-2.6567-7.9371-5.3237-10.901-2.3151-2.5411-5.5229-2.8476-8.6193-0.25287-2.1685 1.9951-1.8568 4.2245-2.282 6.3373-0.55219 2.4265-0.43453 5.4114 2.0281 8.6193 2.1644 4.2678 6.1133 9.7639 4.8169 17.492 0 0-2.3068 3.6527-6.3259 3.1748-1.6751-0.36537-4.3917-1.0765-5.8429-11.794-1.0982-8.1125 0.25906-19.463-3.1841-24.784-1.2437-3.213-2.152-6.3156-5.1823-0.82054-0.81435 2.1582-4.3091 5.4331-1.7742 12.169 2.0735 4.2709 2.9178 11.221 1.9765 18.954-1.4367 2.1974-1.7556 2.9416-3.6393 5.139-2.6464 2.8456-5.5178 2.119-7.7172 1.0569-2.055-1.3851-3.664-2.1014-4.6022-6.5014 0.16927-7.0133 0.56044-18.494-0.72146-20.929-1.8898-3.7724-5.0068-2.408-6.3383-1.2685-6.3971 5.8491-9.5575 15.718-11.489 23.577-1.7742 5.7273-3.662 4.0862-4.9893 1.7753-3.2316-3.0283-3.4504-26.709-7.3518-22.816z" fill="#fff"/>
  <path id="path802" d="m207.45 174.1c2.8373-2.0096 1.511-3.4143 5.7541 0.82776 5.3124 9.0827 8.7266 20.845 9.2386 31.266-0.22398 2.5679 1.5864 4.1935 2.4141 3.6352 0.49232-6.0287 15.153-14.429 28.596-15.657 2.056-0.44691 1.0559-4.3865 1.3913-6.3961-0.80609-7.4633 4.1935-14.258 11.202-14.8 9.5379 1.4099 12.713 6.5024 12.874 14.275-1.0301 14.922-16.575 17.452-25.309 18.642-1.3397 0.50677-1.8981 1.125 0 1.8558l36.595 0.16618 1.8671 1.0786c0.22397 0.87215-0.53361 0.1445-1.9786 2.5236-1.4439 2.379-3.5742 7.8648-3.6847 11.528-10.903 3.5061-22.18 5.042-33.642 6.4281-3.982 2.0137-5.9554 4.6972-5.1379 7.7172 1.3397 3.3492 10.16 6.6954 10.16 6.8544 1.6751 1.0507 3.6568 3.502-0.47375 8.5254-17.851-0.78545-31.683-8.3819-36.472-19.104-1.4429-1.1188-2.9973-0.006-3.9933 1.4429-6.9689 8.9836-13.826 17.074-25.708 21.369-7.0856 1.7701-14.339-1.0868-17.765-5.7273-2.2934-2.6412-2.2056-5.557-3.0479-6.1886-3.8292 1.6937-36.785 15.697-32.608 9.1735 8.0207-8.5842 21.906-14.89 34.169-23.363 0.88453-2.8384 2.4936-12.442 7.3374-15.57 0.2797 0.0237-0.7679 5.6395-0.66263 8.0083 0.0547 1.9445-0.14243 2.7062 0.2828 2.2057 0.82777-0.52742 15.707-12.219 16.857-15.805 1.4512-2.056 0.43556-7.2631 0.43556-7.421-2.7909-7.1919-6.7047-7.8029-8.1559-11.376-1.3067-4.7468-0.71526-10.165 1.9982-11.675 2.409-2.1871 5.2628-1.9167 7.8947 0.47374 3.0056 2.6918 5.6746 7.9525 6.4467 11.872-0.51607 1.5502-3.9324-1.0301-5.1183-0.26113 2.0983 2.1726 3.0778 4.6786 3.8354 7.7451 1.9383 8.2085 1.3469 11.4-0.60379 16.708-6.6066 13.89-15.049 18.035-22.436 23.181-0.19714 0.0702-0.32822 3.5247 2.4503 5.3929 0.95781 1.0053 4.8107 1.5214 9.3418 0.0702 8.7545-4.7746 17.843-13.569 22.355-23.367 1.3098-7.4117-0.50677-15.27-2.4338-22.124-2.9034-6.6985-6.3228-16.262-6.3228-16.42-0.11251-4.177 0.22706-5.6261 2.0591-7.71z" fill="#fff"/>
  <path id="path803" d="m111.64 135.47c4.2121 2.0085 12.131 1.1539 11.796-5.6375 0-0.6007-0.15275-2.633-0.21261-3.1831-0.85977-2.0023-3.2058-1.5079-3.7373 0.55941-0.1672 0.67708 0.29829 1.7794-0.31479 2.12-0.35196 0.35505-1.6978 0.14657-1.6421-1.7298 0-0.5976-0.44072-1.2406-0.70597-1.6194-0.26629-0.17443-0.43556-0.22294-0.91756-0.22294-0.58728 0.0237-0.57799 0.1765-0.90002 0.66985-0.13624 0.50265-0.32512 0.99394-0.32512 1.5637-0.0733 0.66779-0.32512 0.90621-0.81641 1.0043-0.54909 0-0.42524 0.0609-0.87008-0.22294-0.26423-0.28899-0.59451-0.39943-0.59451-0.89279 0-0.5109-0.1156-1.3376-0.26938-1.6751-0.23327-0.30757-0.60793-0.45-1.0301-0.55838-2.3006 0.008-2.4596 2.6319-2.3274 3.6279-0.17237 0.18785-0.27042 4.8943 2.8672 6.1969z" fill="#fff"/>
  <path id="path804" d="m235.11 187.73c4.2121 2.0085 14.238 0.85253 11.796-5.6375 0-0.6007-0.15276-2.633-0.21262-3.1831-0.85976-2.0023-3.2058-1.5079-3.7373 0.55941-0.16721 0.67708 0.29828 1.7794-0.3148 2.12-0.35196 0.35505-1.6978 0.14656-1.6421-1.7298 0-0.5976-0.44071-1.2406-0.70597-1.6194-0.26629-0.17443-0.43556-0.22294-0.91756-0.22294-0.58728 0.0237-0.57799 0.17649-0.90002 0.66985-0.13624 0.50265-0.32512 0.99394-0.32512 1.5637-0.0733 0.66779-0.32512 0.90621-0.81641 1.0043-0.54909 0-0.42523 0.0609-0.87008-0.22294-0.26423-0.28899-0.59451-0.39943-0.59451-0.89279 0-0.5109-0.1156-1.3376-0.26938-1.6751-0.23326-0.30757-0.60792-0.45001-1.0301-0.55838-2.3006 0.008-2.4596 2.6319-2.3274 3.6279-0.17237 0.18784-0.27042 4.8943 2.8672 6.1969z" fill="#fff"/>
  <path id="path805" d="m307.11 166.1c4.2121 2.0085 12.131 1.1539 11.796-5.6375 0-0.60069-0.15276-2.633-0.21262-3.1831-0.85976-2.0023-3.2058-1.5079-3.7373 0.55942-0.16721 0.67707 0.29828 1.7794-0.3148 2.12-0.35196 0.35505-1.6978 0.14656-1.6421-1.7298 0-0.5976-0.44072-1.2406-0.70598-1.6194-0.26629-0.17443-0.43556-0.22294-0.91756-0.22294-0.58728 0.0237-0.57799 0.1765-0.90002 0.66986-0.13624 0.50264-0.32512 0.99393-0.32512 1.5637-0.0733 0.66778-0.32512 0.9062-0.81641 1.0043-0.54909 0-0.42523 0.0609-0.87008-0.22294-0.26423-0.289-0.59451-0.39944-0.59451-0.89279 0-0.51091-0.11559-1.3376-0.26938-1.6751-0.23326-0.30758-0.60792-0.45001-1.0301-0.55839-2.3006 0.008-2.4596 2.6319-2.3274 3.6279-0.17237 0.18785-0.27042 4.8944 2.8672 6.1969z" fill="#fff"/>
  <path id="path806" d="m344.4 220.43c-7.3405 8.2725-4.1037 21.955-2.4462 24.903 2.4203 4.8417 4.369 7.9474 9.0786 10.342 4.2895 3.1573 7.6316 1.1838 9.4739-1.027 4.3164-4.4732 4.368-15.894 6.394-18.157 1.4212-4.1574 4.9996-3.4473 6.7367-1.605 1.6834 2.4203 3.6661 3.9809 6.1391 5.2979 4.0263 3.5516 8.834 4.2008 13.57 0.96401 3.2368-1.8155 5.3413-4.1615 7.2362-8.8185 2.1055-5.6313 0.93201-31.648 0.5109-47.068-0.16204-1.2097-4.1842-21.205-4.1842-21.428 0-0.22397-0.53155-10.205-0.97433-12.583-0.0774-0.96504-0.31686-1.2427 0.69462-1.1199 1.0724 0.90208 1.2189 0.95885 1.8888 1.2561 1.0827 0.19817 2.0519-1.6442 1.3985-3.34-3.3492-6.1773-6.6985-12.356-10.048-18.533-0.80609-0.7937-1.8475-1.6658-3.1263 0.22397-1.222 1.0714-2.5236 3.0107-2.4833 5.5033 0.29725 4.3917 1.0693 8.8608 1.3665 13.253 1.3397 7.517 2.6804 15.035 4.0201 22.552 1.2654 16.076 1.5822 29.233 2.8476 45.309-0.17753 6.8069-2.2934 12.742-4.2782 13.598 0 0-3.02 1.7505-5.045-0.18269-1.4728-0.59141-7.3684-9.8248-7.3684-9.8248-3.0138-2.763-5.0007-1.9734-7.1454 0-5.9141 5.7108-8.5904 16.394-12.609 23.763-1.0363 1.6442-3.9654 3.052-7.2104-0.11972-8.2415-11.259-3.4112-27.278-4.4371-23.159z" fill="#fff"/>
  <path id="path807" d="m309 126.67c3.7735 1.5792 6.4353 9.2231 5.5673 12.955-0.75139 4.6167-2.7527 9.6029-4.1915 8.9537-1.5637-0.58006 1.0662-4.5888-0.43659-8.7958-0.83499-2.7382-5.9843-7.741-5.4424-9.2159-1.0631-3.0902 2.1891-4.4423 4.5032-3.8973z" fill="#fff"/>
  <path id="path808" d="m356.55 224.96c0.79371-9.1787-0.54599-14.776-0.78441-20.171-0.23739-5.3949-6.1019-46.559-7.291-50.641-1.4347-7.7182 5.7004-1.0352 4.9212-5.5239-2.4688-5.6592-8.6121-13.9-10.541-18.816-1.1601-2.1066-0.67295-3.9799-3.2708-0.55425-2.409 7.8762-3.245 14.314-2.3254 19.205 6.1876 32.291 12.533 59.14 11.526 89.879 2.9343 0.0196 6.3166-6.714 7.7657-13.377z" fill="#fff"/>
  <path id="path809" d="m421.02 139.68c3.4401 1.7102 5.4548 11.289 5.075 14.026-0.6843 4.9986-2.5091 10.397-3.8209 9.6937-1.4254-0.62753 0.2859-7.4127-0.3984-9.5224-0.76067-2.9643-5.4548-8.3809-4.9614-9.9776-0.96917-3.3451 1.9961-4.8087 4.1058-4.2193z" fill="#fff"/>
  <path id="path810" d="m165.35 207.6c3.2904 1.2561 5.2195 8.2952 4.8562 10.307-0.65644 3.6723-2.4028 7.6388-3.6558 7.1227-1.3645-0.46136 0.27352-5.4476-0.38189-6.9978-0.27764-3.76-4.8448-5.7066-4.7488-7.3312-0.85254-2.9859 1.9105-3.535 3.9303-3.1005z" fill="#fff"/>
  <path id="path811" d="m244.86 218.17c4.2472 0.26938 6.3692 3.6021 2.3914 4.9996-3.9242 1.3438-7.6955 2.3935-7.7131 8.064 1.4512 7.902-1.991 5.1906-4.0439 4.1172-2.4193-1.7371-9.2086-5.9192-10.176-14.95-0.14553-2.1551 1.5348-3.9685 4.24-3.9561 4.0748 1.1075 10.087 1.188 15.301 1.7257z" fill="#1b9d00"/>
  <path id="path812" d="m77.399 124.39c4.8551 1.4636 5.1421 8.5997 4.7839 10.686-0.64714 3.8075-2.3667 7.9195-3.6021 7.3838-1.3438-0.47788-0.05264-5.6468-0.69772-7.2548-0.71939-2.2583-4.8221-6.3837-4.3566-7.5996-0.91343-2.5494 1.8826-3.6651 3.8725-3.2151z" fill="#fff"/>
  <path id="path813" d="m173.28 158.03c-3.725 2.0147-5.1699 8.0207-2.8507 11.518 2.1664 3.0799 5.5879 1.9383 6.0441 1.9383 3.6496 0.4562 5.815-6.842 5.815-6.842s0.11457-2.0519-4.2193 1.8258c-1.8238 0.34163-2.0519-0.34267-2.5081-1.3696-0.37982-1.9002-0.30448-3.8003 0.56973-5.7015 0.64611-1.8238-0.76068-2.6226-2.8507-1.3686z" fill="#fff"/>
  <path id="path814" d="m201.22 121.63c-1.8723 1.2551-5.5982 5.1152-5.7118 9.5626-0.11353 2.5091-0.58108 2.5019 1.0621 4.0986 1.187 1.7113 2.3842 1.5575 4.7798 0.30241 1.3758-1.0135 1.8413-1.6865 2.3047-3.3864 0.57077-2.8507-3.0138 1.3521-3.47-1.8207-0.79783-2.9457 1.5038-4.1512 3.6702-7.002 0.0723-1.9528 0.0299-3.3358-2.635-1.7546z" fill="#fff"/>
  <path id="path815" d="m223.73 125.63c-0.80712 1.7825-1.7742 11.093-1.6132 11.093-0.64405 2.7744 2.9034 3.9613 4.5166 0.3953 2.4183-6.5375 2.4183-9.3108 2.5803-12.084-0.75345-4.2245-3.6021-4.0924-5.4837 0.59554z" fill="#fff"/>
  <path id="path816" d="m365.65 197.85c0.48406-0.48407 19.998-14.353 19.998-14.353 1.9889-0.69875 1.5585 7.1496 0.64508 7.0959 0.37569 1.5585-19.245 14.89-20.644 14.353-0.96711 0.69875-1.9352-5.3753 0-7.0959z" fill="#fff"/>
  <path id="path817" d="m383.44 197.73c3.4401 1.7102 4.8097 11.773 4.4299 14.51 0.12179 5.3216-3.3152 9.5905-4.627 8.8876-1.4254-0.62753 0.12488-6.6066-0.55942-8.7163-0.76068-2.9643-3.6816-8.5419-3.1882-10.139-0.96916-3.3451 1.8351-5.1317 3.9448-4.5424z" fill="#fff"/>
  <path id="path818" d="m267.37 241.07c1.3572-1.9838 5.5498-4.8386 5.6447-4.8386 1.9342-0.96814 3.824 0.75861 3.7095 0.64508 0.32202 1.9352-1.2241 3.7363-0.74004 6.3176 0.42317 1.0404 0.73281 2.1953 2.6392 1.7546 3.0984-2.4379 5.9688-2.5948 9.0672-2.7506 2.3749 0.14347 2.4688 4.1636 0.9671 4.1935-5.7211 1.2437-8.2849 2.7754-12.37 4.3349-1.9352 1.1281-3.5959-0.30345-3.5959-0.46446s-1.1322-1.0982-0.34164-3.662c0.14037-2.056-0.68739-3.1831-2.3997-2.9498-1.2902 0.69772-2.4265 1.1601-3.0716-0.32306-0.2539-1.0951-0.33648-1.6277 0.49129-2.2573z" fill="#fff"/>
  <path id="path819" d="m403.97 246.49c0.83602 1.0641 1.3769 2.0488-0.0671 3.7972-1.3686 1.254-2.3326 1.9445-3.7012 3.1986-0.64611 1.1023-1.059 2.7744 0.91757 3.3069 3.6496 1.0259 12.088-4.4474 12.088-4.562 1.3686-1.0259 0.9124-2.9643 0.79783-2.9643-0.79783-0.9124-2.5958-0.37053-3.8054-0.51813-0.57593 0-2.4647-0.2859-1.5657-1.9579 0.75036-1.0404 1.0187-1.6772 1.5276-2.9591 0.56973-1.254 0.0805-2.0911-1.9724-2.7754-2.0911-0.37982-2.9261-0.18991-5.2453 0-1.254 0.26629-1.6824 0.82673-1.9105 2.3471 0.0898 2.3058 1.4924 2.1747 2.9364 3.0871z" fill="#fff"/>
  <path id="path820" d="m384.69 181.37c0 1.7259-1.539 3.125-3.4375 3.125s-3.4375-1.3991-3.4375-3.125 1.539-3.125 3.4375-3.125 3.4375 1.3991 3.4375 3.125z" transform="matrix(.89344 .51677 -.31006 .53607 -19.345 -106.28)" fill="#259f00"/>
  <path id="path821" d="m384.69 181.37c0 1.7259-1.539 3.125-3.4375 3.125s-3.4375-1.3991-3.4375-3.125 1.539-3.125 3.4375-3.125 3.4375 1.3991 3.4375 3.125z" transform="matrix(.32696 .71792 -.58738 .14386 159.8 -166.12)" fill="#259f00"/>
  <path id="path822" d="m355.24 374.97c9.3511 0.4562 18.137 0.10631 27.488 0.56251 1.6937 1.4398 0.48407 4.9759-0.64508 4.722-3.0406-0.0764-4.7922-0.15172-7.8328-0.2281-0.10424-2.9787-7.7059-2.4895-7.487 0.0949-4.1048 0.49336-7.807-0.14346-11.912-0.29518-1.2138-1.511-1.0579-4.2317 0.38912-4.8562z" fill="#209000"/>
 </g>
</svg>
