<?xml version="1.0" encoding="UTF-8" standalone="no"?>
<svg id="svg2" xmlns:rdf="http://www.w3.org/1999/02/22-rdf-syntax-ns#" xmlns="http://www.w3.org/2000/svg" height="480" width="640" version="1.0" xmlns:cc="http://creativecommons.org/ns#" xmlns:dc="http://purl.org/dc/elements/1.1/">
 <metadata id="metadata1053">
  <rdf:RDF>
   <cc:Work rdf:about="">
    <dc:format>image/svg+xml</dc:format>
    <dc:type rdf:resource="http://purl.org/dc/dcmitype/StillImage"/>
   </cc:Work>
  </rdf:RDF>
 </metadata>
 <g id="flag">
  <g id="g6" transform="matrix(3.3331 0 0 3.3335 -533.27 -1931.3)" stroke="#000" stroke-width="1.0667" fill="none"></g>
  <g id="g10" transform="matrix(3.3331 0 0 3.3335 -533.27 -1931.3)" stroke="#000" stroke-width="1.0667" fill="none"></g>
  <g id="g14" transform="matrix(3.3331 0 0 3.3335 -533.27 -1931.3)"></g>
  <g id="g18" fill="#00009e" transform="matrix(2.2221 0 0 3.3335 -355.51 -1931.3)">
   <path id="path20" d="m448.01 723.36v-143.99h-288.02v143.99h288.02z" fill="#006"/>
  </g>
  <g id="g22" transform="matrix(3.3331 0 0 3.3335 -533.27 -1931.3)" stroke="#000" stroke-width="1.0667" fill="#00009e"></g>
  <g id="g13544" transform="matrix(.75105 0 0 .91676 0 .0000037437)">
   <g id="g26" fill="#fff" transform="matrix(3.3331 0 0 3.3335 -533.27 -1931.3)">
    <path id="path28" d="m159.99 603.36h30.373l-30.373-15.24v-8.749h17.378l42.488 21.178v-21.178h23.925v21.178l42.488-21.178h17.528v8.749l-30.523 15.24h30.523v24.008h-30.523l30.523 15.24v8.752h-17.528l-42.488-21.181v21.181h-23.925v-21.181l-42.488 21.181h-17.378v-8.752l30.373-15.24h-30.373v-24.008z"/>
   </g>
   <g id="g30" fill="#ef072d" transform="matrix(3.3331 0 0 3.3335 -533.27 -1931.3)">
    <path id="path32" fill="#ce1126" d="m292.49 579.37-48 24.006h11.49l47.814-24.006h-11.304z"/>
   </g>
   <g id="g34" fill="#ef072d" transform="matrix(3.3331 0 0 3.3335 -533.27 -1931.3)">
    <path id="path36" fill="#ce1126" d="m303.8 651.36-47.865-23.993h11.541l36.324 18.273v5.72z"/>
   </g>
   <g id="g38" fill="#ef072d" transform="matrix(3.3331 0 0 3.3335 -533.27 -1931.3)">
    <path id="path40" fill="#ce1126" d="m208.08 603.37-48.092-24.006v5.733l36.501 18.273h11.591z"/>
   </g>
   <g id="g42" fill="#ef072d" transform="matrix(3.3331 0 0 3.3335 -533.27 -1931.3)">
    <path id="path44" fill="#ce1126" d="m207.98 627.36-47.993 23.993h11.484l48-23.993h-11.491z"/>
   </g>
   <g id="g46" fill="#ef072d" transform="matrix(3.3331 0 0 3.3335 -533.27 -1931.3)">
    <path id="path48" fill="#ce1126" d="m159.99 608.34h64.962v-28.97h14.059v28.97h64.786v14.058h-64.786v28.961h-14.059v-28.961h-64.962v-14.058z"/>
   </g>
  </g>
  <g id="g3684" transform="matrix(4.4862 0 0 4.4867 -1190.9 -2609)">
   <g id="g50" stroke="#fff" stroke-width="1.1019" fill="#4fa8ff">
    <path id="path52" d="m399.67 640.77c-0.046 16.332-2.623 33.927-23.764 42.308-21.142-8.381-23.719-25.976-23.765-42.308h47.529z" stroke="#fff" stroke-width="1.1119" fill="#8fc5ff"/>
   </g>
   <g id="g54" stroke-width="1.1019" stroke="#000" fill="#fff">
    <path id="path56" d="m375.9 683.08c9.584-3.799 15.353-9.493 18.8-16.104-0.516 0.02-1.597-0.011-2.064-0.043-0.52-0.034-20.271-2.018-22.61-2.876-2.035-0.746-9.799 0.634-13.423 1.929 3.381 7.032 9.237 13.106 19.297 17.094z" fill="#366cc9"/>
   </g>
   <g id="g58" stroke-width=".13774" stroke="#000">
    <path id="path60" d="m361.13 672.95c0.323-0.105 0.94-0.08 1.183-0.036 0.286 0.052 0.338 0.078 0.442-0.234s0.338-0.234 0.52-0.078 0.649 0.078 0.831-0.182c0.182-0.259 0.234-0.233 0.416-0.052 0.182 0.182 0.26 0.13 0.442 0.078 0.182-0.051 0.494-0.259 0.65-0.545s0.389-0.39 0.519-0.234 0.26 0.234 0.442 0.208 0.234 0.156 0.208 0.389c-0.026 0.234 0.078 0.286 0.52-0.077 0.39 0.389 0.519 0.233 0.519-0.182 0-0.416-0.103-1.949-0.259-2.157s-0.312-0.806-0.338-1.274c-0.049-0.883-0.052-0.935-1.118-1.481 0-0.312-0.078-0.442-0.831-0.39 0.026-0.104-0.104-0.416-0.26-0.546s-0.182-0.182-0.104-0.545c0.312 0.026 0.65-0.026 0.832-0.286 0.181-0.26 0.779-0.208 1.143-0.052s0.832 0.182 1.533 0.078c0.26-0.208 0.702-0.442 1.17-0.702 0.467-0.26 0.597-0.364 0.623-0.728 0.067-0.933-0.26-2.001-0.52-2.494-0.259-0.494-0.337-1.118-0.701-1.898-0.396-0.849-0.39-1.065-0.832-1.585-0.121-0.143-0.26-0.26-0.286-0.545-0.026-0.286-0.13-0.676-0.441-0.962-0.786-0.721-1.092-3.041-1.404-4.756-0.179-0.983-0.052-3.3-0.467-3.664-0.702-0.572-1.04-0.468-1.508-0.65-0.338-0.468-0.493-1.403-0.805-2.235-0.494 0.078-0.832 0.598-1.17 0.78s-0.39 0.182-0.39 0.65c0 0.467-0.26 1.117-0.727 1.845-0.468 0.727-1.248 0.52-1.897 1.611-1.43-1.741-1.456-2.235-1.56-2.729-0.104-0.493-0.338-0.597-1.143-1.299 0-0.208-0.104-1.039-0.026-1.507-0.598-0.494-1.04-0.416-1.325-0.052-0.286 0.364-0.494 0.909-0.936 1.117-0.265 0.337-1.064 1.187-1.718 2.199 0.595 9.044 2.636 18.022 8.773 25.202z" fill="#5d3100"/>
   </g>
   <g id="g62" stroke="#fff" stroke-width=".27549" fill="#ff0">
    <path id="path64" d="m399.67 640.77c0.018-6.152-0.324-12.125-0.168-17.359-7.9-3.535-18.295-4.262-23.596-4.262-5.302 0-15.697 0.727-23.597 4.262 0.156 5.234-0.185 11.207-0.168 17.359h47.529z" stroke="#fff" stroke-width="1.0799"/>
   </g>
   <g id="g66" fill="#cf6200">
    <path id="path68" d="m353.42 647.89c0.26 0.416 0.728 1.131 0.78 1.52 0.182-0.377 0.325-0.545 0.364-0.779s0.312-0.689 0.208-0.936-0.182-0.442 0.104-0.26c0.285 0.182 0.23 0.497 0.168 0.962-0.168 1.273-0.701 1.533-0.779 2.391 0.767 1.806 0.195 2.456 1.026 4.223 0.13 0.078 0.477-0.061 0.581-0.035 0.441-0.312 0.771-0.199 1.394-0.069 0.624 0.13 0.962 0.571 0.962 0.961s0 0.494 0.13 0.728 0.39 0.598 0.338 0.858c-0.052 0.259 0.052 0.415 0.13 0.545s-0.026 0.416-0.104 0.598-0.052 0.416 0.26 0.806c0.312 0.389 1.039 2.027 1.039 2.988 0 0.962 0.052 1.404 0.442 1.585 0.39 0.182 0.52 0.338 0.468 0.754s0.182 2.573 0.234 2.911 0.182 0.26 0.338 0.442c0.155 0.181 0.259 0.389 0.779 0.389s1.022-0.069 1.36-0.017c0.468 0.65 0.754 1.533 0.858 2.079s0.095 1.291 0.277 1.291 0.364 0.026 0.312-0.65-0.104-0.78-0.338-1.117c-0.234-0.338-0.364-0.494-0.234-0.702s0.156-0.546 0.104-0.806-0.13-0.649 0.312-0.13c0.442 0.52 0.572 0.65 0.702 0.832s0.181 0.52 0.156 0.832c-0.026 0.311 0.025 0.441 0.207 0.285 0.182-0.155 0.416 0.104 0.312 0.442s0.026 0.546 0.338 0.65 0.442 0.182 0.52 0.416 0.338 0.337 0.338-0.13c0-0.468-0.182-1.456-0.312-1.767-0.13-0.312-0.234-0.988-0.26-1.378s-0.104-0.493-0.286-0.571-0.338-0.208-0.364-0.39-0.182-0.247-0.299-0.247-0.22-0.091-0.285-0.221-0.13-0.143-0.26-0.156-0.338 0.065-0.403-0.143-0.156-0.507-0.286-0.676-0.247-0.221-0.26-0.805c-0.013-0.585-0.026-0.663-0.208-0.871s-0.494-0.753-0.624-0.987c-0.129-0.234-0.259-0.468-0.259 0.026 0 0.493 0 0.753 0.311 0.935 0.312 0.182 0.39 0.182 0.26 0.442s0 0.442 0.052 0.624 0.156 0.364 0 0.545c-0.156 0.182-0.312 0.13-0.286-0.155 0.026-0.286-0.078-0.624-0.207-0.858-0.13-0.234-0.234-0.39-0.39-0.26s-0.286-0.026-0.182-0.13 0.078-0.182 0-0.26-0.104-0.156 0.026-0.312 0.13-0.234 0.052-0.597c-0.078-0.364-0.65-2.183-0.91-2.599s-0.234-0.728 0.104-0.312 0.624 0.78 0.65 1.117c0.026 0.338 0.104 0.546 0.208 0.676s0.182 0.078 0.234-0.208 0.26-0.182-0.104-0.727c-0.364-0.546-1.04-1.456-1.3-3.093s-0.364-2.729-0.624-3.17c-0.259-0.442-0.337-0.546-0.363-0.962s0-0.832-0.182-1.143c-0.182-0.312-0.312-0.364-0.338 0.104-0.026 0.467 0.026 1.507 0.156 1.689s0.052 0.649 0.026 0.909-0.435 0.517 0.416 1.04c0.338 0.208 0.285 0.494 0.234 0.676-0.052 0.181-0.104 0.155-0.286-0.13-0.182-0.286-0.364-0.52-0.546-0.676s-0.208-0.26-0.182-0.624 0.104-0.624 0-0.753c-0.104-0.13-0.156-0.026-0.208 0.181-0.052 0.208-0.104 0.78-0.208 0.936s-0.156 0.052-0.234-0.286 0.026-0.857 0.208-1.455 0.286-1.222 0.13-2.001c-0.156-0.78-0.078-1.014-0.676-1.663-0.597-0.65-1.273-1.274-1.559-2.079-0.286-0.806-0.338-1.508-0.65-1.872-0.311-0.363-0.753-0.831-1.039-0.961v-1.195c0-0.286-0.13-0.468-0.468-0.416s-0.546 0.338-0.753 0.727c-0.208 0.39-0.364 0.208-0.65 0.884s-0.702 1.013-0.702 1.741z"/>
   </g>
   <g id="g70" fill="#cf6200">
    <path id="path72" d="m355.3 655.51c0.208 0.13 0.407 0.217 0.719 0.061s0.685-0.606 1.101-0.164c0.415 0.441 0.649 1.169 0.649 1.741 0 0.571 0 1.637 0.65 2.235 0.65 0.597 0.987 1.221 1.013 2.001 0.026 0.779 0.312 1.975 0.39 2.287 0.078 0.311 0.26 0.675 0.468 0.883s0.364 0.806 0.39 1.429c0.026 0.624-0.078 1.066 0 1.378s0 0.572-0.234 0.416-0.286-0.234-0.416-0.494-0.286-0.208-0.156 0.182 0.52 0.753 0.858 0.753 0.442 0.052 0.65 0.26c0.207 0.208 0.233 0.312 0.597 0.312s0.416 0 0.754 0.104 0.338 0.052 0.52 0 0.363 0.104 0.493 0.442 0.442 1.273 0.442 1.533 0 0.52 0.182 0.78 0.13 0.52-0.078 0.364-0.208-0.104-0.364-0.078-0.26-0.052-0.467-0.182c-0.208-0.13-0.078-0.104-0.286-0.416s-0.338-0.416-0.338-0.182-0.026 0.52-0.182 0.39-0.234-0.13-0.364 0-0.182 0.234-0.338-0.026-0.338-0.26-0.494-0.312-0.156-0.052-0.233-0.286c-0.078-0.234-0.312-0.286-0.52-0.286s-0.312-0.104-0.338-0.26c-0.026-0.155-0.156-0.259-0.26-0.337s-0.052-0.26-0.078-0.442-0.182-0.104-0.286-0.156-0.182-0.026-0.182-0.286-0.104-0.338-0.182-0.52c-0.077-0.182 0-0.364 0.052-0.571 0.052-0.208 0.026-0.338-0.129-0.52-0.156-0.182-0.026-0.364-0.442-0.728s-0.624-0.052-0.754-0.909c-0.13-0.858-0.39-2.625-0.624-2.911s-0.389-0.494-0.623-0.572-0.39-0.026-0.416-0.52c-0.026-0.493-0.182-1.117-0.494-1.429s-0.442-0.416-0.598-0.546-0.208-0.364 0-0.805c0.208-0.442 0.13-1.04 0.104-1.326-0.026-0.285-0.104-0.649-0.052-0.961s0.026-0.702-0.052-0.91-0.182-0.26-0.052-0.416z"/>
   </g>
   <g id="g74" fill="#cf6200">
    <path id="path76" d="m361.56 648.12c-0.352 0.453-0.727 0.832-1.212 1.178-0.485 0.347-1.109 0.624-0.763 1.213 0.347 0.589 0.624 0.659 0.693 1.109 0.07 0.45 0.174 0.832 0.52 0.936 0.347 0.103 0.485 0.034 0.485 0.762s0 1.005 0.312 1.282 0.277 0.554 0.416 1.213c0.138 0.658 0.138 2.079 0.554 3.049s1.352 2.807 1.248 3.188-0.243 0.658 0.173 1.108c0.416 0.451 0.693 1.109 0.728 1.49 0.034 0.382 0.104 0.52 0.519 0.382 0.416-0.139 0.624-0.278 0.763-0.451 0.138-0.173 0.415-0.138 0.797 0.069 0.381 0.208 0.97 0.416 1.316 0.208 0.347-0.208 0.52-0.519 0.832-0.519 0.485-0.347 0.658-1.075 0.762-1.282 0.104-0.208 0.035-0.208-0.173-0.416s-0.104-0.555-0.139-0.901c-0.034-0.347-0.173-0.866-0.589-1.629-0.415-0.762-0.658-1.698-0.935-1.94-0.277-0.243-0.416-0.832-0.451-1.109-0.034-0.277-0.346-0.52-0.554-0.728-0.208-0.207-0.416-0.519-0.658-1.732-0.243-1.213-0.416-2.079-0.416-2.287s-0.035-0.243-0.243-0.312-0.312-0.416-0.242-0.589c0.069-0.173-0.07-0.346-0.139-0.554s0-0.589 0.139-0.797c0.138-0.208 0.104-0.797-0.035-1.282s-0.277-0.901-0.832-0.971c-0.554-0.069-0.658-0.207-0.866-0.658-0.208-0.45-0.416-1.247-0.485-1.421-0.069-0.173-0.173-0.208-0.589 0.139-0.416 0.346-0.554 0.461-0.554 1.109 0 0.416 0.069 0.554 0.207 0.797 0.139 0.242 0.174 0.312 0.278 0.97s0.693 1.698-0.07 2.287c-0.762 0.589-0.658 0.728-0.623 1.143 0.034 0.416-0.208 0.693-0.347 0.104-0.138-0.589 0-0.935 0.416-1.212 0.416-0.278 0.797-0.624 0.52-1.005-0.278-0.381-0.381-1.282-0.416-1.698s-0.104-0.555-0.347-0.243z"/>
   </g>
   <g id="g78" fill="#00b800">
    <path id="path80" d="m355.38 656.95c-0.019 0.282 0.044 0.592 0.066 0.841 0.026 0.286 0.104 0.884-0.104 1.326-0.208 0.441-0.156 0.675 0 0.805 0.009 0.007 0.017 0.014 0.025 0.021 0.424-0.142 0.479-0.615 0.365-0.844-0.121-0.242-0.086-0.537 0.052-0.779 0.139-0.243 0.139-0.381 0.018-0.555-0.122-0.173-0.122-0.173 0.017-0.658 0.122-0.427-0.186-0.424-0.439-0.157z"/>
   </g>
   <g id="g82" fill="#00b800">
    <path id="path84" d="m359.82 663.67c-0.078-0.312-0.364-1.508-0.39-2.287-0.026-0.78-0.363-1.404-1.013-2.001-0.507-0.467-0.618-1.217-0.642-1.796-0.381-0.233-0.542-0.127-0.51 0.306 0.034 0.467 0.502 0.693 0.433 1.368-0.069 0.676-0.069 0.503 0.26 0.832s0.45 0.641 0.277 0.78c-0.173 0.138-0.191 0.381 0.052 0.467 0.242 0.087 0.26 0.347 0.225 0.589-0.035 0.243 0.191 0.295 0.329 0.468 0.139 0.173 0.156 0.589 0.018 0.832-0.139 0.242-0.156 0.623 0.086 0.416 0.243-0.208 0.347-0.018 0.537 0.311 0.165 0.284 0.303 0.195 0.482 0.109-0.062-0.131-0.112-0.267-0.144-0.394z"/>
   </g>
   <g id="g86" fill="#00b800">
    <path id="path88" d="m363.2 669.72c-0.156 0.312-0.338 0.208-0.494 0.052s-0.338-0.156-0.26-0.442 0.052-0.338-0.156-0.494c-0.024-0.018-0.048-0.034-0.072-0.05-0.065-0.002-0.141-0.002-0.24-0.002-0.364 0-0.39-0.104-0.597-0.312-0.047-0.046-0.088-0.084-0.128-0.116-0.004 0.05-0.002 0.116-0.002 0.194 0 0.286 0 0.234-0.286 0.312s-0.234-0.286-0.286-0.52c-0.014-0.06-0.03-0.104-0.045-0.14-0.313-0.06-0.643-0.39-0.761-0.743-0.13-0.39 0.026-0.442 0.156-0.182s0.182 0.338 0.416 0.494 0.312-0.104 0.234-0.416c-0.025-0.1-0.031-0.216-0.028-0.345-0.056-0.101-0.132-0.183-0.232-0.227-0.416-0.182-0.286-0.234-0.26-0.572 0.026-0.337-0.052-0.337-0.312-0.156-0.26 0.182-0.286-0.026-0.286-0.545 0-0.52-0.338-0.52-0.415-0.156-0.078 0.364-0.208 0.13-0.364-0.39s-0.364-0.65-0.39-0.156c-0.022 0.418-0.138 0.518-0.41 0.286 0.048 0.302 0.09 0.584 0.124 0.806 0.13 0.857 0.338 0.545 0.754 0.909s0.286 0.546 0.442 0.728c0.155 0.182 0.181 0.312 0.129 0.52-0.052 0.207-0.129 0.389-0.052 0.571 0.078 0.182 0.182 0.26 0.182 0.52s0.078 0.234 0.182 0.286c0.065 0.032 0.149 0.014 0.21 0.04 0.067-0.088 0.128-0.196 0.206-0.274 0.312-0.312 0.78 0.026 0.936 0.416s0.337 0.494 0.571 0.182 0.156-0.26 0.416 0.026 0.364 0.234 0.364 0.234 0.26-0.104 0.442 0.052 0.286 0.13 0.623-0.364c0.338-0.494-0.155-0.338-0.311-0.026z"/>
   </g>
   <g id="g90" fill="#00b800">
    <path id="path92" d="m364.12 655.46c0.103-0.762 0.034-1.524 0.346-1.802 0.312-0.277 0.693-0.831 0.658 0.347-0.034 1.178-0.069 1.109-0.311 1.386-0.243 0.277-0.451 0.346-0.208 0.797 0.242 0.45 0.277 0.485 0.242 1.178-0.034 0.693-0.034 0.97 0.243 1.317 0.277 0.346 0.346 0.381 0.416 0.762 0.069 0.381 0.311 0.901 0.623 1.178s0.659 1.074 0.693 1.629c0.035 0.554 0.52 0.693 0.97 1.074 0.451 0.381-0.103 0.658-0.45 0.485-0.346-0.173-0.208 0-0.416 0.242-0.208 0.243-0.277 0.278-0.45-0.138s-0.763-0.693-1.04-0.797-0.519-0.555-0.762-1.005c-0.208-0.387-0.62-0.67-0.996-0.699 0.104 0.292 0.16 0.521 0.13 0.63-0.104 0.381-0.243 0.658 0.173 1.108 0.416 0.451 0.693 1.109 0.728 1.49 0.034 0.382 0.104 0.52 0.519 0.382 0.416-0.139 0.624-0.278 0.763-0.451 0.138-0.173 0.415-0.138 0.797 0.069 0.381 0.208 0.97 0.416 1.316 0.208 0.347-0.208 0.52-0.519 0.832-0.519 0.485-0.347 0.658-1.075 0.762-1.282 0.104-0.208 0.035-0.208-0.173-0.416s-0.104-0.555-0.139-0.901c-0.034-0.347-0.173-0.866-0.589-1.629-0.415-0.762-0.658-1.698-0.935-1.94-0.277-0.243-0.416-0.832-0.451-1.109-0.034-0.277-0.346-0.52-0.554-0.728-0.208-0.207-0.416-0.519-0.658-1.732-0.19-0.948-0.337-1.683-0.392-2.059-0.249 0.397-0.419 0.494-0.509 0.222-0.104-0.311-0.243-0.485-0.381-0.277-0.139 0.208-0.174-0.173-0.174-0.346 0-0.174-0.034-0.208-0.208-0.208-0.173 0-0.034-0.277-0.104-0.797-0.069-0.52-0.173-0.589-0.242 0.035-0.069 0.623-0.416 1.004-0.277 1.143 0.138 0.139 0.069 0.416-0.07 0.832-0.138 0.415-0.069 0.658 0.035 0.935s-0.069 0.797-0.139 1.248c-0.069 0.45 0.278 0.9 0.382 0.138z"/>
   </g>
   <g id="g94" fill="#00b800">
    <path id="path96" d="m357.79 649.24c-0.257 0.019-0.433 0.244-0.286 1.031 0.092 0.487-0.277 0.381-0.415 0.138-0.139-0.242-0.243-0.762-0.52-1.213-0.278-0.45-0.139 0.312-0.173 0.728-0.035 0.416 0.242 0.416 0.485 0.762 0.242 0.347 0.034 0.486-0.243 0.486s-0.138 0.554-0.069 0.935-0.069 0.451-0.278 0.139c-0.207-0.312-0.069-0.797-0.034-1.386 0.034-0.589 0.069-0.451-0.312-0.589-0.381-0.139-0.312-0.208-0.173-0.555 0.138-0.346 0.277-0.52 0.104-0.693-0.174-0.173-0.139-0.277 0.138-0.312 0.277-0.034 0.174-0.242 0.416-0.312 0.243-0.069 0.347 0.035 0.381-0.415 0.029-0.376 0.155-0.607 0.437-0.493 0.17 0.579 0.391 1.48 0.542 1.749z"/>
   </g>
   <g id="g98" fill="#00b800">
    <path id="path100" d="m361.28 653.32c0 0.728 0 1.005 0.312 1.282s0.277 0.554 0.416 1.213c0.138 0.658 0.138 2.079 0.554 3.049 0.124 0.289 0.295 0.656 0.47 1.038 0.23-0.181 0.43-0.492 0.501-0.657 0.103-0.243-0.208-0.728-0.451-1.143-0.242-0.416 0.035-0.555 0.277-1.075 0.243-0.519-0.034-0.554-0.415-0.693-0.382-0.138-0.382-0.485-0.59-1.039s-0.173-0.797-0.034-1.109c0.138-0.312 0.034-0.554-0.243-0.624-0.277-0.069-0.208-0.277-0.104-0.623 0.104-0.347 0.173-0.416-0.242-0.312-0.315 0.078-0.391 0.137-0.485 0.251 0.023 0.1 0.034 0.239 0.034 0.442z"/>
   </g>
   <g id="g102">
    <path id="path104" d="m365.27 654.77c-0.038 0.416-0.035 0.624-0.139 0.762-0.103 0.139-0.034 0.347 0.07 0.555s0.173 0.485 0.069 0.866 0.069 0.693 0.277 0.797 0.312 0 0.243 0.485c-0.07 0.485 0.208 1.005 0.45 1.213 0.243 0.208 0.416 0.554 0.381 0.762-0.034 0.208 0.174 0.416 0.416 0.52 0.243 0.104 0.208 0.139 0.208 0.277 0 0.139 0.104 0.139 0.381 0.208s0.485 0.243 0.797 0.624 0.762 0.589 0.693 0.173 0-0.693-0.416-0.901c-0.415-0.208-0.727-1.213-0.901-1.906-0.173-0.693-0.727-1.628-1.039-1.801-0.035-0.486 0.035-0.728-0.277-0.971-0.312-0.242-0.416-0.554-0.416-0.797 0-0.242-0.173-0.554-0.312-0.623-0.138-0.07-0.208-0.243-0.208-0.451s-0.242-0.173-0.277 0.208z" fill="#5d3100"/>
   </g>
   <g id="g106" fill="#00d860">
    <path id="path108" d="m363.43 673.36c0.623-0.052 2.313-0.546 2.494-0.702 0.416 0.286 1.144 0.676 1.456 0.676-0.598 0.13-0.988 0.052-1.144-0.052 0.078 0.182 0.286 0.468 0.416 0.494-0.572-0.026-1.221-0.156-1.429-0.364-0.494 0.208-1.326 0.26-1.793-0.052z"/>
   </g>
   <g id="g110" fill="#00d860">
    <path id="path112" d="m364.55 674.14c0.221 0.065 1.325 0.247 1.468 0.247-0.364 0.311-0.052 0.61 0.559 0.558-0.299 0.039-0.625 0.152-0.403 0.195 0.533 0.104 1.975-0.286 2.261-0.442-0.494 0.637-2.897 1.222-3.885-0.558z"/>
   </g>
   <g id="g114" fill="#00d860">
    <path id="path116" d="m365.54 675.72c0.298-0.156 1.039-0.104 1.39 0.065-0.39 0.143-1.156 0.143-1.39-0.065z"/>
   </g>
   <g id="g118">
    <path id="path120" d="m366.65 675.7c0.533-0.091 2.04 0.273 2.573-0.052-0.182 0.481-1.131 0.546-1.456 0.442-0.324-0.104-0.636-0.234-0.857-0.221 0.117-0.065-0.078-0.078-0.26-0.169z"/>
   </g>
   <g id="g122" fill="#00d860">
    <path id="path124" d="m367.2 676.44c0.403 0.064 1.845-0.117 2.287-0.286 0.467 0.156 1.39 0.402 1.598 0.376-0.442 0.273-1.287 0.117-1.559 0-0.78 0.26-1.417 0.338-2.326-0.09z"/>
   </g>
   <g id="g126" fill="#00d860">
    <path id="path128" d="m367.89 676.68c0.577 0.13 1.069 0.037 1.637-0.153 0.177 0.076 0.594 0.169 0.986 0.15 0.261 0.149 0.612 0.357 0.95 0.383-0.351 0.143-1.638 0-1.897-0.143-0.65 0.013-1.768 0.156-2.04 0.377-0.013-0.182 0.105-0.435 0.364-0.614z"/>
   </g>
   <g id="g130">
    <path id="path132" d="m367.2 673.75c0.45 0.15 2.079 0.078 2.91-0.312 0.328-0.154 0.531 0.104 0.156 0.234-1.351 0.468-2.417 0.65-3.196 0.234-0.308-0.164-0.338-0.312 0.13-0.156z"/>
   </g>
   <g id="g134" fill="#00d860">
    <path id="path136" d="m375.18 671.54c-2.001 0.935-3.327 1.221-6.107 0.364-0.259-0.08-0.442 0-0.156 0.182 0.286 0.181 1.819 0.597 2.183 0.623s0.234 0.195 0.013 0.26-0.286 0.221 0.013 0.104 1.969-0.161 2.651 0.195c0.298 0.156 0.376 0.13 0.35 0.013s0.13-0.195 0.351-0.221 0.351-0.104 0.182-0.169-0.195-0.104-0.065-0.169 0.143-0.13-0.052-0.169-0.325-0.091-0.143-0.182c0.182-0.09 0.455-0.156 0.663-0.181 0.052-0.143-0.039-0.52 0.117-0.65z"/>
   </g>
   <g id="g138">
    <path id="path140" d="m371.85 671.78c1.144 0.081 3.249-0.442 4.367-1.533 0.389 0.233 0.935 0.493 1.221 0.545s0.546 0.312 0.104 0.312-1.066-0.182-1.351-0.312c-1.482 0.91-3.216 1.209-4.315 1.118-0.311-0.026-0.389-0.156-0.026-0.13z"/>
   </g>
   <g id="g142" fill="#00d860">
    <path id="path144" d="m368.47 665.54c0.39 0.273 1.079 0.727 1.975 0.662 0.442 0.351 1.131 0.65 1.443 0.715-0.598 0.247-1.248 0.455-1.417 0.65-0.273-0.26-0.623-0.221-0.714-0.351-0.26 0.208-0.221 0.338-0.052 0.442s1.481 0.325 1.806 0.234 0.412 0.178 0.143 0.272c-0.702 0.247-2.066 0.013-2.534-0.74-0.468-0.754-0.871-1.04-2.144-0.351-0.143-0.364-0.143-0.455-0.39-0.455s-0.702-0.325-0.351-0.312 1.391-0.143 2.235-0.766z"/>
   </g>
   <g id="g146" fill="#00d860">
    <path id="path148" d="m368.78 667.21c-0.217 0.054-0.832 0.39-1.052 0.416-0.221 0.026-0.611 0.338-0.208 0.351 0.402 0.013 0.922-0.429 1.208-0.468s0.312-0.364 0.052-0.299z"/>
   </g>
   <g id="g150" fill="#00d860">
    <path id="path152" d="m370.04 668.53c-0.154 0.027-0.818 0.182-1 0.169s-0.364 0.039-0.351 0.169 0.065 0.208-0.208 0.182-0.507 0.078-0.572 0.156-0.117 0.156 0.156 0.182 0.416 0.052 0.728-0.091 0.611-0.364 0.949-0.377c0.337-0.013 0.675-0.455 0.298-0.39z"/>
   </g>
   <g id="g154">
    <path id="path156" d="m369.11 669.33c0.284 0.184 1.689 0.663 2.196 0.624s0.412 0.203 0.026 0.286c-0.793 0.168-1.761-0.177-2.417-0.702-0.325-0.26-0.026-0.351 0.195-0.208z"/>
   </g>
   <g id="g158" fill="#00d860">
    <path id="path160" d="m375.76 670.02c-1.075 0.343-2.17 0.221-2.612 0.104s-0.845-0.143-0.546 0.143c0.299 0.285 1.261 0.48 1.806 0.337-1.936 0.442-2.443 0.403-2.923 0.325-0.481-0.078-1.384-0.061-1.767-0.026-0.286 0.026-0.676-0.013-0.845-0.117s-0.221-0.299 0.286-0.247c0.506 0.052 0.572-0.052 0.13-0.117s-1.053 0.117-0.455 0.494 1.91-0.026 2.742 0.208c0.831 0.234 2.598 0.403 4.275-0.949 0.086-0.069 0.234-0.259-0.091-0.155z"/>
   </g>
   <g id="g162" fill="#00d860">
    <path id="path164" d="m370.48 668.44c0.039 0.13 0.039 0.273 0 0.364s-0.039 0.208 0.13 0.078 0.273-0.286 0.442-0.195 0.598 0.078 0.792 0.052c0.196-0.026 0.26-0.065-0.025-0.182-0.286-0.117-0.572-0.156-0.728-0.143s-0.351-0.026-0.481-0.078-0.169-0.026-0.13 0.104z"/>
   </g>
   <g id="g166" fill="#00d860">
    <path id="path168" d="m373.25 668.94c-0.221 0.013-0.611-0.13-0.819-0.221s-0.506-0.104-0.285 0.195c0.22 0.299 1.182 0.468 1.52 0.325s0.195-0.299 0.532-0.091c0.338 0.208 0.689 0.351 0.936 0.351s0.338 0 0.065-0.156-0.403-0.195-0.429-0.325-0.065-0.208 0.182-0.13 0.533 0.221 0.728 0.117 0.558-0.338 0.883-0.338l0.078-0.195c-0.468-0.039-0.766 0.104-0.896 0.156s-0.364 0.078-0.611 0.039-0.572-0.065-0.65-0.13-0.078-0.117 0.13-0.156 0.273-0.182-0.013-0.13-1.052 0.026-1.455-0.104c-0.403-0.129-0.572-0.142-0.741-0.078-0.169 0.065-0.143 0.247 0.104 0.26s0.806 0.065 1.001 0.247 0.169 0.195-0.052 0.104-0.624-0.039-0.208 0.26z"/>
   </g>
   <g id="g170" fill="#00d860">
    <path id="path172" d="m376.64 668.47-0.078 0.195c0.481-0.013 1.651 0.104 2.027 0.338 0.364-0.286 0.299-0.377 0.559-0.325s0.585 0.143 0.728 0.065 0.247-0.065 0.403-0.039c0.155 0.026 0.493-0.039 0.688-0.156s0.598-0.273 0.832-0.273 0.519-0.052 0.091-0.117c-0.429-0.065-1.079 0.065-1.3 0.143-0.22 0.078-0.883 0.13-1.273 0.13s-0.922 0.195-1.364 0.078-1.053-0.039-1.313-0.039z"/>
   </g>
   <g id="g174">
    <path id="path176" d="m382.66 668.24c-0.779 0.572-1.715 0.702-2.832 0.78-0.325 0.023-0.225 0.115 0.052 0.143 1.169 0.117 2.521-0.312 2.962-0.78 0.128-0.135 0.114-0.359-0.182-0.143z"/>
   </g>
   <g id="g178" fill="#00d860">
    <path id="path180" d="m377.35 669.57c0.338 0.013 1.507 0.312 1.884 0.442 0.286-0.026 0.364-0.091 0.312-0.195s-0.091-0.221 0.429-0.195c0.519 0.026 1.715 0.013 1.936 0.013 0.182-0.078 0.584-0.39 0.766-0.403-0.467 0.026-2.416 0.13-2.663 0.104s-0.377 0-0.533 0.091-0.247 0.13-0.442 0.052-0.546-0.182-0.74-0.065c-0.195 0.117-0.598 0.013-0.949 0.156z"/>
   </g>
   <g id="g182" fill="#00d860">
    <path id="path184" d="m381.91 669.63c0.182-0.078 0.584-0.39 0.766-0.403 0.338-0.026 0.728 0.117 0.91 0.143s0.377-0.013 0.247-0.156-0.013-0.39 0.52-0.325c0.532 0.065 0.805 0.156 1.325 0.104s0.754 0.338 1.741-0.052c-0.078 0.39 0.104 0.416 0.286 0.338s0.39-0.052 0.702 0.182 2.209 0.26 2.651 0.182c0.441-0.078 0.675 0.156 0.337 0.26-0.337 0.104-0.416 0.26-0.337 0.364 0.077 0.103 0.155 0.233-0.26 0.181-0.416-0.052-0.494 0.078-0.702 0.234s-0.26 0.208-0.832 0.104c-0.571-0.104-0.675-0.026-0.987 0.026s-0.39 0.052-0.702-0.052-0.987-0.208-1.403-0.078-0.728 0.26-1.092 0.156-0.39-0.052-0.156-0.286 0.286-0.208 0.728-0.26c0.442-0.051 0.78-0.181 0.468-0.363s-0.416-0.156-0.832 0.052-0.624 0.337-1.091 0.078c-0.468-0.26-0.702-0.208-1.014-0.13s-0.831-0.104-1.273-0.299z"/>
   </g>
   <g id="g186" fill="#00d860">
    <path id="path188" d="m383.47 670.41c-0.595 0.085-0.755-0.298-1.377-0.22-0.208 0.026-0.559 0.285-0.078 0.246 0.48-0.039 1 0.221 1.468 0.182s0.26-0.247-0.013-0.208z"/>
   </g>
   <g id="g190" fill="#00d860">
    <path id="path192" d="m382.78 670.86c0.313-0.114 0.962 0.104 1.235 0.052s0.533 0.117 0.247 0.208-0.975-0.169-1.287-0.078-0.623-0.026-0.195-0.182z"/>
   </g>
   <g id="g194" fill="#00d860">
    <path id="path196" d="m376.57 672.54c0.429 0.014 1.975-0.052 2.586-1.351 0.047-0.1 0.091-0.143 0.286-0.013s0.91 0.559 2.248 0.676c0.375 0.033 0.78 0.221 0.026 0.169s-1.949-0.26-2.352-0.507c-0.676 1.065-1.89 1.191-2.794 1.169-0.545-0.013-0.415-0.156 0-0.143z"/>
   </g>
   <g id="g198" fill="#00d860">
    <path id="path200" d="m379.91 670.77c-0.208 0.286-0.923 0.78-1.248 0.806-0.324 0.026-1.299-0.065-1.546-0.156s-0.546-0.065-0.195 0.182 1.222 0.416 1.572 0.338c0.351-0.078 0.754-0.195 1.027-0.026s0.78 0.493 1.078 0.428c0.299-0.064 0.91-0.064 1.105 0.026 0.195 0.091 0.533 0.364 0.026 0.208s-0.923-0.026-1.157-0.13c0.26 0.364 0.85 0.949 1.352 0.949 0.117 0 0.195 0.208-0.052 0.325 0.247 0.117 0.818 0.208 1.117-0.065-0.078 0.104-0.039 0.169 0.091 0.234s0.286 0.156 0.052 0.182-0.766 0.091-0.922 0.026c0.506 0.324 1.819 0.844 3.157 0.584 0.255-0.049 0.39-0.155-0.026-0.143-0.858 0.026-0.909 0.013-1.065-0.077-0.156-0.092-0.13-0.169 0.117-0.247 0.246-0.078 0.87-0.169 1.13-0.169s0.52-0.104-0.013-0.104-1.182 0-1.442-0.091-0.455-0.208-0.182-0.39 0.559-0.13 0.689-0.299c-0.858-0.013-1.911-0.468-1.326-0.883 0.136-0.097 0.091-0.104-0.13-0.13s-0.87-0.208-1.143-0.364-0.091-0.286 0.13-0.325c-0.507 0.091-1.521-0.182-2.196-0.689z"/>
   </g>
   <g id="g202" fill="#00d860">
    <path id="path204" d="m387.53 670.75c-0.468 0.351-1.351 0.494-1.728 0.494s-0.429 0.13-0.13 0.169 0.624 0.078 0.754 0.039 0.208-0.052 0.402 0.039c0.195 0.091 0.611 0.143 0.975 0.026s0.961-0.169 1.208-0.156 0.52 0.026 0.026-0.117c-0.493-0.143-1.299-0.039-1.494 0.013s-0.728 0.013-0.442-0.078 0.533-0.234 0.676-0.351c-0.104-0.026-0.169-0.052-0.247-0.078z"/>
   </g>
   <g id="g206" fill="#00d860">
    <path id="path208" d="m387.29 671.76c-0.403 0.299-0.987 0.584-1.585 0.61 0.546 0.195 1.001 0.754 1.351 0.728-0.169 0.104-0.376 0.26-0.597 0.286 0.338 0.091 0.909-0.013 1.377-0.273 0.78 0.221 1.793 0.078 2.131-0.208-0.507 0-1.117-0.182-1.39-0.416 0.247 0 0.48-0.156 0.597-0.298-0.584 0.103-1.585-0.182-1.884-0.429z"/>
   </g>
   <g id="g210" fill="#00d860">
    <path id="path212" d="m386.46 673.39c0.221-0.026 0.428-0.182 0.597-0.286-0.428 0.143-2.3-0.156-2.858-0.65-0.559-0.493-0.559-0.117-0.169 0.234s1.078 0.884 2.43 0.702z"/>
   </g>
   <g id="g214" fill="#00d860">
    <path id="path216" d="m387.83 674.58c-0.234 0.13-1.351 0.208-1.715 0.13s-0.52-0.039-0.429 0.104 0.13 0.273-0.169 0.234-0.832 0.026-1.052 0.104c-0.221 0.078-0.494 0.273-0.026 0.195 0.467-0.078 0.896-0.169 1.247-0.078s1.598 0.117 1.845 0.013 0.078-0.104-0.039-0.104-0.169-0.078 0-0.156 0.299-0.299 0.338-0.442z"/>
   </g>
   <g id="g218" fill="#00d860">
    <path id="path220" d="m377.02 673.07c-0.468 0.208-2.027 0.624-2.443 0.65-0.52 0.234-0.935 0.364-1.195 0.364 0.182 0.156 0.883 0.311 1.169 0.234-0.156 0.155-0.519 0.337-0.649 0.415 0.415-0.052 0.909 0.052 1.117 0.078-0.546 0.312-1.299 0.416-1.689 0.364 0.13 0.182 0.312 0.364 0.546 0.364-0.494 0.13-1.092 0.13-1.404 0.026 0.13 0.26 0.26 0.416 0.442 0.442-0.416 0.052-0.936 0.13-1.377-0.13 0.337 0.442 1.091 0.597 2.209 0.468 1.117-0.13 2.053-0.624 2.313-0.832-0.468 0.052-1.092 0.078-1.404 0.026 0.624-0.156 1.975-0.728 2.209-0.962-0.26 0-0.519-0.078-0.702-0.208 0.364 0.052 1.638-0.103 2.028-0.259-0.468-0.104-0.754-0.39-0.884-0.572 1.637 0.52 3.459 0.35 4.34 0.13 0.208-0.052 0.233-0.316-0.182-0.286-0.728 0.052-2.131-0.156-2.495-0.338 0.338 0.26 0.754 0.416 1.04 0.468-0.676 0.182-1.611 0.312-2.989-0.442z"/>
   </g>
   <g id="g222" fill="#00d860">
    <path id="path224" d="m373.9 674.74c0.13-0.078 0.493-0.26 0.649-0.415-0.286 0.077-0.987-0.078-1.169-0.234 0.26 0 0.675-0.13 1.195-0.364-0.935-0.026-1.585-0.026-1.923-0.208s-0.961-0.13-1.195-0.078-0.156 0.442 0.831 0.338c-0.416 0.286-1.533 0.39-1.949 0.286 0.104 0.337 0.182 0.675 0.078 0.857 0.546 0.312 1.975 0.702 2.677 0.65-0.624-0.234-0.962-0.494-0.442-0.546s0.806-0.156 1.248-0.286z"/>
   </g>
   <g id="g226">
    <path id="path228" d="m372.29 676.43c1.244-0.104 2.91-0.126 4.236-1.248 0.338-0.286 0.565-0.19 0.234 0.104-0.701 0.624-2.443 1.481-4.106 1.507-0.677 0.011-0.987-0.312-0.364-0.363z"/>
   </g>
   <g id="g230" fill="#00d860">
    <path id="path232" d="m381.61 674.37c-0.312 0.117-1.183 0.26-1.442 0.221-0.26-0.039-0.637-0.052-0.845 0.078s-0.221 0.208 0.065 0.234 0.65 0.052 0.832 0.039c-0.234 0.13-0.39 0.312-0.442 0.39 0.416-0.104 1.182 0.078 1.403 0.208-0.169 0.052-0.364-0.013-0.507-0.091 0.702 0.741 2.781 0.741 3.119 0.611-0.156 0.117-0.299 0.234-0.455 0.273 0.585 0.104 1.26 0.091 1.923-0.299-0.221 0.039-0.883-0.026-1.052-0.039 0.13-0.13 0.324-0.247 0.506-0.299-0.259-0.052-1.078-0.026-1.273 0.078 0.078-0.156 0.221-0.351 0.377-0.416-1.027 0-2.274-0.013-2.729-0.26 0.728 0.078 1.534-0.351 1.871-0.351-0.571-0.013-1.195-0.143-1.351-0.377z"/>
   </g>
   <g id="g234" fill="#00d860">
    <path id="path236" d="m379 674.94c-0.507 0.104-1.273 0.312-1.481 0.429s-0.429 0.182 0.026 0.182 1.689 0.052 1.962 0.091c-0.689-0.104-1.624-0.13-1.806-0.13s-0.39-0.013-0.052-0.117 0.78-0.338 1.351-0.455z"/>
   </g>
   <g id="g238" fill="#00d860">
    <path id="path240" d="m377.97 676.15c0.181 0 0.974 0 1.286-0.273 0.325 0.247 0.949 0.597 1.351 0.597 0.403 0 0.364 0.104 0.013 0.143-0.35 0.039-1.039-0.168-1.39-0.428-0.468 0.169-0.857 0.026-1.26-0.039z"/>
   </g>
   <g id="g242" fill="#00d860">
    <path id="path244" d="m371.95 679.65c0.805 0.312 1.871 0.546 2.65 0.286 0.442 0.39 1.352 0.416 1.845 0.312 0.494-0.104 0.936-0.156 1.482 0.026 0.545 0.182 1.663 0.195 1.975 0.454-0.286 0.014-0.897 0-1.04 0.04-0.143 0.038-0.065 0.129 0.195 0.272-0.883-0.052-2.404 0.325-2.871 0.728 0.168-0.403 0.688-0.949 1.507-0.949-0.468-0.168-1.962-0.181-2.443 0.117-0.143-0.156-0.312-0.415-0.325-0.519-0.792 0.454-2.352-0.195-2.975-0.767z"/>
   </g>
   <g id="g246" fill="#00d860">
    <path id="path248" d="m369.89 678.19c0.959-0.137 1.612-0.442 1.898-0.728 0.169 0.156 0.87 0.312 1.637 0.078-0.156 0.117-0.169 0.338-0.104 0.455-0.507 0.013-1.469 0.26-1.793 0.429-0.325 0.168-1.274 0.285-1.585 0.116-0.312-0.168-0.325-0.311-0.053-0.35z"/>
   </g>
   <g id="g250" fill="#00d860">
    <path id="path252" d="m373.32 678c-0.507 0.013-1.469 0.26-1.793 0.429 0.065 0.13 0.104 0.337 0.117 0.48 0.935-0.338 3.079-0.545 3.898-0.415-0.39 0.026-1.131 0.428-1.546 0.48 1.013-0.078 2.001 0.13 2.26 0.195 0.26 0.065 0.312 0.26 0.117 0.442s-0.285 0.208 0.13 0.221c0.416 0.013 1.274-0.039 1.664-0.416-0.156-0.169-0.559-0.104-0.676-0.221 0.273-0.091 0.585-0.286 0.702-0.429-0.702-0.013-0.962-0.026-1.196-0.078-0.234-0.051-0.403-0.117-0.117-0.272 0.286-0.156 0.416-0.286 0.507-0.39-0.507 0.143-1.299 0.26-1.962-0.26 0.247 0.065 0.831 0.026 1.039-0.065-0.221-0.117-0.402-0.208-0.584-0.208 0.532-0.26 1.585-0.494 2.884 0.026 0.65-0.052 1.352-0.026 1.845 0.104 0.208-0.208 0.65-0.702 0.884-0.832-1.533 0.13-4.288-0.156-4.236-0.961-0.494 0.649-1.637 1.013-2.131 0.909-0.052 0.234 0.156 0.52 0.338 0.676-0.52 0.104-1.404 0.182-1.819 0.104 0.234 0.234 0.675 0.442 0.935 0.416-0.545 0-0.831 0.104-1.26 0.065z"/>
   </g>
   <g id="g254" fill="#00d860">
    <path id="path256" d="m376.5 679.83c0.416 0.013 1.274-0.039 1.664-0.416-0.156-0.169-0.559-0.104-0.676-0.221 0.273-0.091 0.585-0.286 0.702-0.429 1.091-0.09 2.066-0.038 2.533-0.181 0.468-0.143 1.664-0.065 1.898-0.13-1.04 0.168-1.248 0.259-1.3 0.428s0.338 0.312 0.585 0.312c-0.468-0.026-1.053 0.468-1.105 0.663-0.623-0.364-0.922 0.065-0.987 0.208-0.26-0.104-1.118-0.078-1.56 0.299-0.571-0.169-0.948-0.26-1.52-0.169 0.351-0.078 0.286-0.312-0.234-0.364z"/>
   </g>
   <g id="g258" fill="#00d860">
    <path id="path260" d="m381.49 676.79c0.351-0.013 1.117 0.026 1.39-0.013-0.182 0.091-0.415 0.26-0.467 0.338 0.883-0.104 2.091-0.169 2.442-0.117-0.428-0.065-0.87 0.208-1.091 0.351s-0.091 0.234 0.208 0.273 0.702 0.273 0.156 0.195-1.624-0.078-1.884-0.039-0.403-0.091-0.026-0.143 0.636-0.182 0.818-0.286c-0.312 0.078-0.909 0.078-1.091 0.026s-0.299-0.156-0.091-0.208 0.065-0.13-0.156-0.104-0.78 0.26-1.092 0.559c0.338-0.351 0.637-0.663 0.884-0.832z"/>
   </g>
   <g id="g262">
    <path id="path264" d="m377.53 677.38c0.429 0.481 0.935 0.754 1.741 0.78 0.169 0.005 0.484 0.232 0.078 0.247-1.092 0.039-1.637-0.221-2.118-0.923-0.099-0.144 0.084-0.345 0.299-0.104z"/>
   </g>
   <g id="g266">
    <path id="path268" d="m384.04 668.29c0.574 0.271 1.728 0.507 2.625 0.468 0.156-0.007 0.47 0.16 0.077 0.195-1.013 0.091-1.923-0.051-2.767-0.52-0.234-0.13-0.156-0.247 0.065-0.143z"/>
   </g>
   <g id="g270" fill="#00d860">
    <path id="path272" d="m384.62 668.28c0.883-0.026 1.546-0.013 1.819 0.247 0.506-0.156 1.416-0.247 1.624-0.208s0.442-0.052-0.039-0.169c-0.481-0.116-1.598-0.155-1.949-0.09-0.351 0.064-1.443 0.103-1.806 0.064 0.156 0.026 0.259 0.052 0.351 0.156z"/>
   </g>
   <g id="g274" fill="#00d860">
    <path id="path276" d="m388.05 668.63c0.416-0.221 1.611-0.013 1.975-0.169-0.26 0.312 0.832 0.338 1.78 0.091-0.364 0.234-1.143 0.273-1.481 0.416s-0.52 0.039-0.78-0.078-0.922-0.351-1.494-0.26z"/>
   </g>
   <g id="g278" fill="#00d860">
    <path id="path280" d="m391.81 668.55c-0.948 0.247-2.04 0.221-1.78-0.091-0.364 0.156-1.559-0.052-1.975 0.169 0.429-0.26 0.754-0.052 1.065-0.585 0.195 0.04 0.65 0.066 0.806-0.142 0.273 0.065 0.754 0.182 0.897 0.324 0.143 0.143 0.363-0.039 0.181-0.259 0.429-0.156 0.157 0.185 1.157-0.065 0.208-0.052 0.715-0.143 0.884-0.156-0.338 0.273-0.741 0.571-1.235 0.805z"/>
   </g>
   <g id="g282" stroke-width=".13774" stroke="#000" fill="#ff0">
    <path id="path284" d="m373.36 664.19c-0.017-1.966-0.207-18.422-0.207-22.226 0-0.91-0.468-0.728-0.468 0v22.122c0.215 0.039 0.505 0.078 0.675 0.104z" stroke-width=".13774"/>
   </g>
   <g id="g286" stroke-width=".13774" stroke="#000" fill="#ff0">
    <path id="path288" d="m380.59 640.77 0.812 23.461-0.142 0.188-0.471 0.007-0.513-23.656h0.314z" stroke-width=".13774"/>
   </g>
   <g id="g290" stroke-width=".13774" stroke="#000" fill="#ff0">
    <path id="path292" d="m387.43 660.58c-0.066-2.389-0.366-13.448-0.482-18.9-0.015-0.727-0.448-0.6-0.441 0.026 0.047 4.391 0.308 16.672 0.356 18.887 0.17 0 0.463-0.017 0.567-0.013z" stroke-width=".13774"/>
   </g>
   <g id="g294" stroke-width=".13774" stroke="#000" fill="#ff0">
    <path id="path296" d="m376.6 644.67-6.913-0.104c-0.389 1.403 1.352 1.377 2.002 1.013 0.753 0.572 1.325 0.52 1.741 0.052 0.598 0.494 1.351 0.364 1.663 0.052 0.832 0.624 1.689 0 1.507-1.013z" stroke-width=".13774" fill="#fff"/>
   </g>
   <g id="g298" stroke-width=".13774" stroke="#000" fill="#ff0">
    <path id="path300" d="m377.12 648.15-7.069-0.026c-1.221 1.169 0.364 1.741 1.716 0.935 0.182 0.39 1.013 0.624 1.663 0.312 0.598 0.468 1.351 0.13 1.741-0.26 0.728 0.338 1.585 0.442 1.949-0.961z" stroke-width=".13774" fill="#fff"/>
   </g>
   <g id="g302" stroke-width=".13774" stroke="#000" fill="#ff0">
    <path id="path304" d="m376.92 652.57-6.809-0.052c-0.13 1.221 1.248 1.065 1.793 0.754 0.52 0.805 1.664 0.623 2.106 0.155 0.649 0.442 1.247 0.338 1.585-0.078 0.754 0.65 1.377-0.181 1.325-0.779z" stroke-width=".13774" fill="#fff"/>
   </g>
   <g id="g306" stroke-width=".13774" stroke="#000" fill="#ff0">
    <path id="path308" d="m377.26 656.99-7.614-0.13c-0.416 1.299 0.753 1.533 1.299 1.221 0.182 0.754 1.195 0.494 1.455-0.052 0.39 0.39 0.884 0.182 1.118-0.078 0.104 0.702 0.987 0.728 1.663 0.13 1.377 0.962 2.677-0.156 2.079-1.091z" stroke-width=".13774" fill="#fff"/>
   </g>
   <g id="g310" stroke-width=".13774" stroke="#000" fill="#ff0">
    <path id="path312" d="m384.01 655.17-6.341-0.052c0.286 1.299 0.909 1.637 1.923 0.883 0.754 0.78 2.001 0.494 2.313 0.104 1.377 1.118 2.131-0.182 2.105-0.935z" stroke-width=".13774" fill="#fff"/>
   </g>
   <g id="g314" stroke-width=".13774" stroke="#000" fill="#ff0">
    <path id="path316" d="m383.36 650.83-6.133-0.182c0.104 1.559 1.585 1.507 2.339 0.831 0.572 0.728 1.585 0.52 1.949 0 0.78 0.78 2.053 0.312 1.845-0.649z" stroke-width=".13774" fill="#fff"/>
   </g>
   <g id="g318" stroke-width=".13774" stroke="#000" fill="#ff0">
    <path id="path320" d="m384.17 645.94h-6.601c0.078 1.091 1.533 1.715 2.651 0.676 0.311 1.247 1.507 0.857 2.027 0.363 0.753 0.962 2.494-0.129 1.923-1.039z" stroke-width=".13774" fill="#fff"/>
   </g>
   <g id="g322" stroke-width=".13774" stroke="#000" fill="#ff0">
    <path id="path324" d="m383.78 642.62-5.899 0.078c-0.104 0.961 1.299 1.377 1.819 0.597 0.286 0.494 1.273 0.442 1.559-0.026 0.468 0.728 1.04 0.234 1.221 0 0.676 0.494 1.404 0.26 1.3-0.649z" stroke-width=".13774" fill="#fff"/>
   </g>
   <g id="g326" stroke-width=".13774" stroke="#000" fill="#ff0">
    <path id="path328" d="m390.69 644.77-7.225-0.078c-0.026 0.753 0.754 1.065 1.221 0.753 0 0.728 1.014 0.962 1.664 0.39 0.442 0.624 1.741 0.806 2.261-0.052 1.065 0.884 2.209 0.26 2.079-1.013z" stroke-width=".13774" fill="#fff"/>
   </g>
   <g id="g330" stroke-width=".13774" stroke="#000" fill="#ff0">
    <path id="path332" d="m390.59 650.7-7.069-0.026c0.052 0.987 1.195 1.325 1.845 0.805 0.156 0.832 1.04 0.884 1.559 0.468 0.624 0.702 1.664 0.754 2.235-0.026 0.858 0.312 1.508-0.416 1.43-1.221z" stroke-width=".13774" fill="#fff"/>
   </g>
   <g id="g334" stroke-width=".13774" stroke="#000" fill="#ff0">
    <path id="path336" d="m390.22 656.03-5.588-0.078c0 0.988 1.17 1.118 1.69 0.598 0.545 0.65 1.377 0.65 1.845 0.13 0.753 0.65 1.897 0.468 2.053-0.65z" stroke-width=".13774" fill="#fff"/>
   </g>
   <g id="g338" stroke-width=".13774" stroke="#000">
    <path id="path340" d="m381.26 664.42c-3.014 0.052-6.081 0.052-8.16-0.26s-2.734-0.604-4.158-1.455c-2.131-1.273-2.651-1.585-5.665-3.352-0.462-0.271-0.963 0.065-0.312 0.493 3.04 2.001 4.192 2.743 5.639 3.691 1.507 0.987 2.479 1.864 3.404 2.91 1.196 1.352 2.079 1.378 2.625 1.17s1.404-0.494 2.261-0.286c0.858 0.208 2.001 0.234 2.599 0.13 0.546 0.494 1.793 0.39 2.495 0.234 0.701-0.156 1.221-0.234 1.715-0.13s1.247 0.026 1.741-0.052 1.793-0.208 2.703-0.078c0.909 0.13 1.845 0.052 2.443-0.13 0.597-0.182 1.689-0.13 2.053-0.026 0.519-0.39 0.779-0.884 0.909-1.403 0.611-0.078 0.814-0.154 0.949-0.507 0.247-0.65 0.48-1.287 0.559-1.572h0.246l0.078-0.585-0.506-0.585 0.182-1.117 0.545-0.13c0.026-0.338-0.13-0.858-0.234-1.066-3.274 0.13-6.484 0.234-8.783 0.286-0.26 0.208-0.546 0.754-0.598 1.092-1.403 0.233-2.235 0.337-2.599 0.415s-0.567 0.107-0.857 0.494c-0.468 0.624-0.91 1.351-1.274 1.819z" stroke-width=".13774"/>
   </g>
   <g id="g342" stroke-width=".13774" stroke="#000">
    <path id="path344" d="m391.78 660.45c0.159-0.551 0.584-2.035 1.354-4.84 0.129-0.468-0.325-0.653-0.493-0.052-0.916 3.275-1.262 4.503-1.378 4.912 0.176-0.003 0.428-0.022 0.517-0.02z" stroke-width=".13774"/>
   </g>
   <g id="g346" stroke-width=".13774" stroke="#000" fill="#fff">
    <path id="path348" d="m396.85 654.96c-1.105 0.571-1.638 0.792-2.144 0.597-0.466-0.179-1.151-0.28-1.552-0.083-0.001 0.042-0.007 0.087-0.021 0.135-0.474 1.727-0.817 2.952-1.048 3.768 0.818 0.289 2.227 0.328 2.556-0.025 0.337-0.364 1.26-0.286 1.728-0.26 0.299-0.39 0.416-0.871 0.338-1.105s-0.052-0.649 0.065-0.974 0.273-1.378 0.078-2.053z" stroke-width=".13774"/>
   </g>
   <g id="g350" stroke-width=".13774" stroke="#000" fill="none">
    <path id="path352" d="m371.69 645.58c-1.222 3.534-5.458 11.461-8.014 14.014" stroke-width=".13774"/>
   </g>
   <g id="g354" stroke-width=".13774" stroke="#000" fill="none">
    <path id="path356" d="m365.64 660.75c2.901-2.244 10.236-9.528 11.483-12.594" stroke-width=".13774"/>
   </g>
   <g id="g358" stroke-width=".13774" stroke="#000" fill="none">
    <path id="path360" d="m370.11 652.52c-0.337 2.677-1.11 7.452-1.526 9.973" stroke-width=".13774"/>
   </g>
   <g id="g362" stroke-width=".13774" stroke="#000" fill="none">
    <path id="path364" d="m371.24 658.48c-0.987 0.962-2.387 2.641-3.427 3.551" stroke-width=".13774"/>
   </g>
   <g id="g366" stroke-width=".13774" stroke="#000" fill="none">
    <path id="path368" d="m380.54 653.14c-0.831 0.805-1.78 1.744-2.611 1.978" stroke-width=".13774"/>
   </g>
   <g id="g370" stroke-width=".13774" stroke="#000" fill="none">
    <path id="path372" d="m381.02 653.27c0.731 0.779 1.77 1.659 2.628 1.893" stroke-width=".13774"/>
   </g>
   <g id="g374" stroke-width=".13774" stroke="#000" fill="none">
    <path id="path376" d="m380.45 648.96c-0.753 0.649-1.871 1.413-2.884 1.699" stroke-width=".13774"/>
   </g>
   <g id="g378" stroke-width=".13774" stroke="#000" fill="none">
    <path id="path380" d="m380.88 649.11c0.65 0.546 1.342 1.342 2.173 1.706" stroke-width=".13774"/>
   </g>
   <g id="g382" stroke-width=".13774" stroke="#000" fill="none">
    <path id="path384" d="m377.72 645.94c0.805-0.234 2.004-0.858 2.628-1.507" stroke-width=".13774"/>
   </g>
   <g id="g386" stroke-width=".13774" stroke="#000" fill="none">
    <path id="path388" d="m380.71 644.31c0.705 0.805 2.056 1.455 2.732 1.637" stroke-width=".13774"/>
   </g>
   <g id="g390" stroke-width=".13774" stroke="#000" fill="none">
    <path id="path392" d="m377.88 642.7c0.831-0.182 1.861-0.624 2.407-1.404" stroke-width=".13774"/>
   </g>
   <g id="g394" stroke-width=".13774" stroke="#000" fill="none">
    <path id="path396" d="m380.6 641.08c0.701 0.598 1.933 1.462 2.738 1.54" stroke-width=".13774"/>
   </g>
   <g id="g398" stroke-width=".13774" stroke="#000" fill="none">
    <path id="path400" d="m386.53 643.41c-0.451 0.468-1.556 1.309-2.257 1.296" stroke-width=".13774"/>
   </g>
   <g id="g402" stroke-width=".13774" stroke="#000" fill="none">
    <path id="path404" d="m386.99 643.37c0.325 0.52 1.144 1.316 1.612 1.381" stroke-width=".13774"/>
   </g>
   <g id="g406" stroke-width=".13774" stroke="#000" fill="none">
    <path id="path408" d="m383.8 650.67c0.909-0.312 2.183-1.056 2.82-1.823" stroke-width=".13774"/>
   </g>
   <g id="g410" stroke-width=".13774" stroke="#000" fill="none">
    <path id="path412" d="m387.12 648.91c0.266 0.48 1.28 1.565 1.852 1.786" stroke-width=".13774"/>
   </g>
   <g id="g414" stroke-width=".13774" stroke="#000" fill="none">
    <path id="path416" d="m384.88 655.95c0.416-0.09 1.547-0.652 1.858-1.315" stroke-width=".13774"/>
   </g>
   <g id="g418" stroke-width=".13774" stroke="#000" fill="none">
    <path id="path420" d="m387.26 654.27c0.429 0.533 1.481 1.507 2.131 1.741" stroke-width=".13774"/>
   </g>
   <g id="g422" stroke-width=".13774" stroke="#000" fill="none">
    <path id="path424" d="m370.58 656.87c1.273-0.403 3.846-1.965 5.12-3.447" stroke-width=".13774"/>
   </g>
   <g id="g426" stroke-width=".13774" stroke="#000" fill="none">
    <path id="path428" d="m373.26 655.3c1.065 0.753 2.303 1.507 3.251 1.676" stroke-width=".13774"/>
   </g>
   <g id="g430" stroke-width=".13774" stroke="#000" fill="none">
    <path id="path432" d="m370.34 652.52c0.702-0.299 1.624-0.809 2.339-1.549" stroke-width=".13774"/>
   </g>
   <g id="g434" stroke-width=".13774" stroke="#000" fill="none">
    <path id="path436" d="m373.22 650.87c0.286 0.402 2.388 1.686 3.284 1.699" stroke-width=".13774"/>
   </g>
   <g id="g438" stroke-width=".13774" stroke="#000" fill="none">
    <path id="path440" d="m372.68 646.72c-0.546 0.441-1.858 1.234-2.495 1.403" stroke-width=".13774"/>
   </g>
   <g id="g442" stroke-width=".13774" stroke="#000" fill="none">
    <path id="path444" d="m373.18 646.75c0.728 0.506 2.167 1.4 3.154 1.4" stroke-width=".13774"/>
   </g>
   <g id="g446" stroke-width=".13774" stroke="#000" fill="none">
    <path id="path448" d="m372.68 642.66c-0.585 0.662-1.572 1.685-2.391 1.919" stroke-width=".13774"/>
   </g>
   <g id="g450" stroke-width=".13774" stroke="#000" fill="none">
    <path id="path452" d="m373.15 642.81c0.455 0.728 1.673 1.712 2.466 1.842" stroke-width=".13774"/>
   </g>
   <g id="g454" stroke-width=".13774" stroke="#000" fill="none">
    <path id="path456" d="m383.67 647.18c1.822 3.359 5.201 7.465 8.618 9.622" stroke-width=".13774"/>
   </g>
   <g id="g458" stroke-width=".13774" stroke="#000" fill="none">
    <path id="path460" d="m378.2 643.46c2.767 3.976 8.199 12.695 13.367 15.914" stroke-width=".13774"/>
   </g>
   <g id="g462" stroke-width=".13774" stroke="#000" fill="none">
    <path id="path464" d="m392.52 655.97c-0.832 1.157-2.326 2.963-4.795 4.607" stroke-width=".13774"/>
   </g>
   <g id="g466" stroke-width=".13774" stroke="#000" fill="none">
    <path id="path468" d="m392.21 657.07c-1.741-2.78-2.641-6.295-3.943-10.924" stroke-width=".13774"/>
   </g>
   <g id="g470" stroke-width=".13774" stroke="#000" fill="none">
    <path id="path472" d="m374.15 658.51 2.144 5.899" stroke-width=".13774"/>
   </g>
   <g id="g474" stroke-width=".13774" stroke="#000" fill="none">
    <path id="path476" d="m373.75 658.37 1.896 6.017" stroke-width=".13774"/>
   </g>
   <g id="g478" stroke-width=".13774" stroke="#000" fill="none">
    <path id="path480" d="m373.34 658.09 1.76 6.262" stroke-width=".13774"/>
   </g>
   <g id="g482" stroke-width=".13774" stroke="#000" fill="none">
    <path id="path484" d="m373.16 658.19 1.359 6.128" stroke-width=".13774"/>
   </g>
   <g id="g486" stroke-width=".13774" stroke="#000" fill="none">
    <path id="path488" d="m374.47 664.1h1.699" stroke-width=".13774"/>
   </g>
   <g id="g490" stroke-width=".13774" stroke="#000" fill="none">
    <path id="path492" d="m375.95 663.46h-1.602" stroke-width=".13774"/>
   </g>
   <g id="g494" stroke-width=".13774" stroke="#000" fill="none">
    <path id="path496" d="m375.77 662.96h-1.546" stroke-width=".13774"/>
   </g>
   <g id="g498" stroke-width=".13774" stroke="#000" fill="none">
    <path id="path500" d="m375.59 662.46h-1.475" stroke-width=".13774"/>
   </g>
   <g id="g502" stroke-width=".13774" stroke="#000" fill="none">
    <path id="path504" d="m375.39 661.92h-1.404" stroke-width=".13774"/>
   </g>
   <g id="g506" stroke-width=".13774" stroke="#000" fill="none">
    <path id="path508" d="m373.89 661.44h1.332" stroke-width=".13774"/>
   </g>
   <g id="g510" stroke-width=".13774" stroke="#000" fill="none">
    <path id="path512" d="m373.79 661h1.264" stroke-width=".13774"/>
   </g>
   <g id="g514" stroke-width=".13774" stroke="#000" fill="none">
    <path id="path516" d="m373.68 660.52h1.202" stroke-width=".13774"/>
   </g>
   <g id="g518" stroke-width=".13774" stroke="#000" fill="none">
    <path id="path520" d="m373.59 660.09h1.134" stroke-width=".13774"/>
   </g>
   <g id="g522" stroke-width=".13774" stroke="#000" fill="none">
    <path id="path524" d="m373.49 659.65h1.078" stroke-width=".13774"/>
   </g>
   <g id="g526" stroke-width=".13774" stroke="#000" fill="none">
    <path id="path528" d="m373.4 659.24h1.02" stroke-width=".13774"/>
   </g>
   <g id="g530" stroke-width=".13774" stroke="#000" fill="none">
    <path id="path532" d="m373.3 658.86h0.991" stroke-width=".13774"/>
   </g>
   <g id="g534" stroke-width=".13774" stroke="#000" fill="none">
    <path id="path536" d="m373.24 658.54h0.923" stroke-width=".13774"/>
   </g>
   <g id="g538" stroke-width=".13774" stroke="#000" fill="none">
    <path id="path540" d="m371.57 658.55-1.208 4.932" stroke-width=".13774"/>
   </g>
   <g id="g542" stroke-width=".13774" stroke="#000" fill="none">
    <path id="path544" d="m371.92 658.46-1.037 5.21" stroke-width=".13774"/>
   </g>
   <g id="g546" stroke-width=".13774" stroke="#000" fill="none">
    <path id="path548" d="m372.2 658.27-0.839 5.549" stroke-width=".13774"/>
   </g>
   <g id="g550" stroke-width=".13774" stroke="#000" fill="none">
    <path id="path552" d="m372.56 658.16-0.609 5.803" stroke-width=".13774"/>
   </g>
   <g id="g554" stroke-width=".13774" stroke="#000" fill="none">
    <path id="path556" d="m372.68 663.63h-1.923" stroke-width=".13774"/>
   </g>
   <g id="g558" stroke-width=".13774" stroke="#000" fill="none">
    <path id="path560" d="m372.68 663.1h-2.225" stroke-width=".13774"/>
   </g>
   <g id="g562" stroke-width=".13774" stroke="#000" fill="none">
    <path id="path564" d="m372.68 662.55h-2.095" stroke-width=".13774"/>
   </g>
   <g id="g566" stroke-width=".13774" stroke="#000" fill="none">
    <path id="path568" d="m372.68 662.03h-1.965" stroke-width=".13774"/>
   </g>
   <g id="g570" stroke-width=".13774" stroke="#000" fill="none">
    <path id="path572" d="m372.68 661.5h-1.838" stroke-width=".13774"/>
   </g>
   <g id="g574" stroke-width=".13774" stroke="#000" fill="none">
    <path id="path576" d="m372.68 660.91h-1.692" stroke-width=".13774"/>
   </g>
   <g id="g578" stroke-width=".13774" stroke="#000" fill="none">
    <path id="path580" d="m372.68 660.4h-1.569" stroke-width=".13774"/>
   </g>
   <g id="g582" stroke-width=".13774" stroke="#000" fill="none">
    <path id="path584" d="m372.68 659.88h-1.436" stroke-width=".13774"/>
   </g>
   <g id="g586" stroke-width=".13774" stroke="#000" fill="none">
    <path id="path588" d="m372.68 659.38h-1.316" stroke-width=".13774"/>
   </g>
   <g id="g590" stroke-width=".13774" stroke="#000" fill="none">
    <path id="path592" d="m372.68 658.94h-1.212" stroke-width=".13774"/>
   </g>
   <g id="g594" stroke-width=".13774" stroke="#000" fill="none">
    <path id="path596" d="m372.68 658.59h-1.121" stroke-width=".13774"/>
   </g>
   <g id="g598" stroke-width=".13774" stroke="#000" fill="none">
    <path id="path600" d="m372.68 664.09v-5.88" stroke-width=".13774"/>
   </g>
   <g id="g602" stroke-width=".13774" stroke="#000" fill="none">
    <path id="path604" d="m379.15 656.27-4.029 8.08" stroke-width=".13774"/>
   </g>
   <g id="g606" stroke-width=".13774" stroke="#000" fill="none">
    <path id="path608" d="m379.4 656.14-3.43 8.254" stroke-width=".13774"/>
   </g>
   <g id="g610" stroke-width=".13774" stroke="#000" fill="none">
    <path id="path612" d="m379.65 656.05-2.721 8.383" stroke-width=".13774"/>
   </g>
   <g id="g614" stroke-width=".13774" stroke="#000" fill="none">
    <path id="path616" d="m379.82 656.2-2.116 8.238" stroke-width=".13774"/>
   </g>
   <g id="g618" stroke-width=".13774" stroke="#000" fill="none">
    <path id="path620" d="m377.8 664.06h-2.534" stroke-width=".13774"/>
   </g>
   <g id="g622" stroke-width=".13774" stroke="#000" fill="none">
    <path id="path624" d="m378 663.32h-2.359" stroke-width=".13774"/>
   </g>
   <g id="g626" stroke-width=".13774" stroke="#000" fill="none">
    <path id="path628" d="m378.11 662.72h-2.17" stroke-width=".13774"/>
   </g>
   <g id="g630" stroke-width=".13774" stroke="#000" fill="none">
    <path id="path632" d="m378.32 662.07h-2.053" stroke-width=".13774"/>
   </g>
   <g id="g634" stroke-width=".13774" stroke="#000" fill="none">
    <path id="path636" d="m378.42 661.55h-1.897" stroke-width=".13774"/>
   </g>
   <g id="g638" stroke-width=".13774" stroke="#000" fill="none">
    <path id="path640" d="m378.6 660.95h-1.787" stroke-width=".13774"/>
   </g>
   <g id="g642" stroke-width=".13774" stroke="#000" fill="none">
    <path id="path644" d="m378.78 660.25h-1.618" stroke-width=".13774"/>
   </g>
   <g id="g646" stroke-width=".13774" stroke="#000" fill="none">
    <path id="path648" d="m378.92 659.72h-1.488" stroke-width=".13774"/>
   </g>
   <g id="g650" stroke-width=".13774" stroke="#000" fill="none">
    <path id="path652" d="m379.07 659.11h-1.348" stroke-width=".13774"/>
   </g>
   <g id="g654" stroke-width=".13774" stroke="#000" fill="none">
    <path id="path656" d="m379.18 658.7h-1.247" stroke-width=".13774"/>
   </g>
   <g id="g658" stroke-width=".13774" stroke="#000" fill="none">
    <path id="path660" d="m379.28 658.31h-1.143" stroke-width=".13774"/>
   </g>
   <g id="g662" stroke-width=".13774" stroke="#000" fill="none">
    <path id="path664" d="m379.38 657.91h-1.053" stroke-width=".13774"/>
   </g>
   <g id="g666" stroke-width=".13774" stroke="#000" fill="none">
    <path id="path668" d="m379.47 657.56h-0.968" stroke-width=".13774"/>
   </g>
   <g id="g670" stroke-width=".13774" stroke="#000" fill="none">
    <path id="path672" d="m379.56 657.21h-0.887" stroke-width=".13774"/>
   </g>
   <g id="g674" stroke-width=".13774" stroke="#000" fill="none">
    <path id="path676" d="m379.66 656.85h-0.8" stroke-width=".13774"/>
   </g>
   <g id="g678" stroke-width=".13774" stroke="#000" fill="none">
    <path id="path680" d="m379.74 656.52h-0.721" stroke-width=".13774"/>
   </g>
   <g id="g682" stroke-width=".13774" stroke="#000" fill="none">
    <path id="path684" d="m382.36 656.4 1.763 5.58" stroke-width=".13774"/>
   </g>
   <g id="g686" stroke-width=".13774" stroke="#000" fill="none">
    <path id="path688" d="m382.7 656.52 2.139 5.355" stroke-width=".13774"/>
   </g>
   <g id="g690" stroke-width=".13774" stroke="#000" fill="none">
    <path id="path692" d="m383 656.53 2.505 5.237" stroke-width=".13774"/>
   </g>
   <g id="g694" stroke-width=".13774" stroke="#000" fill="none">
    <path id="path696" d="m386.11 661.32-2.763-4.888" stroke-width=".13774"/>
   </g>
   <g id="g698" stroke-width=".13774" stroke="#000" fill="none">
    <path id="path700" d="m386.11 661.31h-2.192" stroke-width=".13774"/>
   </g>
   <g id="g702" stroke-width=".13774" stroke="#000" fill="none">
    <path id="path704" d="m385.73 660.65h-2.019" stroke-width=".13774"/>
   </g>
   <g id="g706" stroke-width=".13774" stroke="#000" fill="none">
    <path id="path708" d="m385.36 659.99h-1.851" stroke-width=".13774"/>
   </g>
   <g id="g710" stroke-width=".13774" stroke="#000" fill="none">
    <path id="path712" d="m384.98 659.32h-1.688" stroke-width=".13774"/>
   </g>
   <g id="g714" stroke-width=".13774" stroke="#000" fill="none">
    <path id="path716" d="m384.61 658.66h-1.529" stroke-width=".13774"/>
   </g>
   <g id="g718" stroke-width=".13774" stroke="#000" fill="none">
    <path id="path720" d="m384.23 658h-1.36" stroke-width=".13774"/>
   </g>
   <g id="g722" stroke-width=".13774" stroke="#000" fill="none">
    <path id="path724" d="m383.86 657.34h-1.194" stroke-width=".13774"/>
   </g>
   <g id="g726" stroke-width=".13774" stroke="#000" fill="none">
    <path id="path728" d="m383.48 656.67h-1.032" stroke-width=".13774"/>
   </g>
   <g id="g730" stroke-width=".13774" stroke="#000" fill="none">
    <path id="path732" d="m385.74 656.83-1.725 5.173" stroke-width=".13774"/>
   </g>
   <g id="g734" stroke-width=".13774" stroke="#000" fill="none">
    <path id="path736" d="m386.26 656.6-1.6 5.303" stroke-width=".13774"/>
   </g>
   <g id="g738" stroke-width=".13774" stroke="#000" fill="none">
    <path id="path740" d="m385.4 661.78 1.174-4.992" stroke-width=".13774"/>
   </g>
   <g id="g742" stroke-width=".13774" stroke="#000" fill="none">
    <path id="path744" d="m386.88 656.96-0.988 4.75" stroke-width=".13774"/>
   </g>
   <g id="g746" stroke-width=".13774" stroke="#000" fill="none">
    <path id="path748" d="m384.22 661.41h1.731" stroke-width=".13774"/>
   </g>
   <g id="g750" stroke-width=".13774" stroke="#000" fill="none">
    <path id="path752" d="m384.44 660.76h1.65" stroke-width=".13774"/>
   </g>
   <g id="g754" stroke-width=".13774" stroke="#000" fill="none">
    <path id="path756" d="m384.65 660.12h1.572" stroke-width=".13774"/>
   </g>
   <g id="g758" stroke-width=".13774" stroke="#000" fill="none">
    <path id="path760" d="m384.86 659.48h1.491" stroke-width=".13774"/>
   </g>
   <g id="g762" stroke-width=".13774" stroke="#000" fill="none">
    <path id="path764" d="m385.08 658.83h1.41" stroke-width=".13774"/>
   </g>
   <g id="g766" stroke-width=".13774" stroke="#000" fill="none">
    <path id="path768" d="m385.3 658.19h1.329" stroke-width=".13774"/>
   </g>
   <g id="g770" stroke-width=".13774" stroke="#000" fill="none">
    <path id="path772" d="m385.51 657.55h1.248" stroke-width=".13774"/>
   </g>
   <g id="g774" stroke-width=".13774" stroke="#000" fill="none">
    <path id="path776" d="m385.72 656.9h1.027" stroke-width=".13774"/>
   </g>
   <g id="g778" stroke-width=".13774" stroke="#000" fill="none">
    <path id="path780" d="m387.67 657.01 0.846 3.547" stroke-width=".13774"/>
   </g>
   <g id="g782" stroke-width=".13774" stroke="#000" fill="none">
    <path id="path784" d="m387.98 656.84 1.169 3.697" stroke-width=".13774"/>
   </g>
   <g id="g786" stroke-width=".13774" stroke="#000" fill="none">
    <path id="path788" d="m388.38 656.83 1.275 3.702" stroke-width=".13774"/>
   </g>
   <g id="g790" stroke-width=".13774" stroke="#000" fill="none">
    <path id="path792" d="m388.9 657.03 1.277 3.477" stroke-width=".13774"/>
   </g>
   <g id="g794" stroke-width=".13774" stroke="#000" fill="none">
    <path id="path796" d="m390.06 660.2h-1.638" stroke-width=".13774"/>
   </g>
   <g id="g798" stroke-width=".13774" stroke="#000" fill="none">
    <path id="path800" d="m389.87 659.68h-1.556" stroke-width=".13774"/>
   </g>
   <g id="g802" stroke-width=".13774" stroke="#000" fill="none">
    <path id="path804" d="m389.68 659.16h-1.491" stroke-width=".13774"/>
   </g>
   <g id="g806" stroke-width=".13774" stroke="#000" fill="none">
    <path id="path808" d="m389.49 658.64h-1.43" stroke-width=".13774"/>
   </g>
   <g id="g810" stroke-width=".13774" stroke="#000" fill="none">
    <path id="path812" d="m389.29 658.12h-1.358" stroke-width=".13774"/>
   </g>
   <g id="g814" stroke-width=".13774" stroke="#000" fill="none">
    <path id="path816" d="m389.1 657.6h-1.284" stroke-width=".13774"/>
   </g>
   <g id="g818" stroke-width=".13774" stroke="#000" fill="none">
    <path id="path820" d="m388.91 657.08h-1.218" stroke-width=".13774"/>
   </g>
   <g id="g822" fill="#00b800">
    <path id="path824" d="m372.37 666.26c0.806-0.519 2.183-0.415 2.885 0.104 0.832-0.467 2.339-0.338 3.041 0.286 1.065-0.727 1.975-0.831 3.014-0.13 0.806-0.571 2.053-0.623 3.015 0.052 0.935-0.442 1.975-0.805 2.884 0.156-0.545-0.39-1.715-0.728-2.884 0.182-0.91-0.91-2.495-0.572-3.015 0.052-0.676-0.806-2.105-0.936-2.963 0.052-0.935-0.78-2.338-0.806-3.092-0.208-0.598-0.468-1.481-0.857-2.885-0.546z"/>
   </g>
   <g id="g826" fill="#cf6200">
    <path id="path828" d="m386.57 665.15c-4.132 0.714-13.137 0.208-15.112-0.286-0.679-0.17-0.494-0.416 0.078-0.286 2.276 0.517 7.133 0.52 9.81 0.39 0.52-0.689 1.338-1.858 1.585-2.183s0.356-0.355 0.871-0.442c0.922-0.156 1.449-0.24 2.248-0.377 0.013 0.104 0.013 0.234 0.013 0.312-0.065 0.052-0.13 0.143-0.182 0.169 0 0.533 0.104 1.832 0.208 2.3 0.104-0.013 0.234-0.052 0.299-0.065 0.182-0.052 0.363 0.416 0.182 0.468z"/>
   </g>
   <g id="g830" fill="#cf6200">
    <path id="path832" d="m393.34 665.35c0.149-0.004 0.46-0.011 0.546-0.013 0.169-0.004 0.406-0.12 0.51-0.38s0.426-1.221 0.543-1.624l-0.416-0.627c0.091-0.517 0.208-1.218 0.221-1.361 0.208-0.078 0.428-0.156 0.532-0.195 0.026-0.117-0.025-0.435-0.13-0.539-1.78 0.068-7.107 0.253-8.082 0.266-0.234 0-0.339-0.01-0.428 0.325-0.494 1.845 0.189 4.434 2.053 5.925 0.13 0.104 0.294 0.017 0.077-0.182-0.311-0.286-0.792-0.871-1.117-1.449 0.364-0.006 1.102-0.018 1.323-0.027 0.106 0.437 0.438 1.359 0.503 1.515s0.225 0.178 0.149-0.055c-0.179-0.546-0.273-1.168-0.351-1.467 0.338-0.008 0.975-0.002 1.365-0.024 0.019 0.494 0.071 1.156 0.084 1.338s0.169 0.195 0.172-0.013c0.004-0.208 0.008-1.087 0.005-1.346 0.44-0.012 1.002-0.031 1.21-0.031-0.029 0.281-0.083 1.19-0.103 1.334-0.03 0.212 0.081 0.312 0.133 0.013s0.156-0.998 0.185-1.352c0.176-0.005 0.639-0.024 0.834-0.029-0.019 0.277-0.279 1.119-0.357 1.34s0.048 0.228 0.136 0.019c0.092-0.214 0.377-1.059 0.403-1.361z"/>
   </g>
   <g id="g834">
    <path id="path836" d="m387.44 665.14c-0.143-0.286-0.585-1.303-0.624-2.043 0.377-0.007 1.32-0.025 1.775-0.035 0.067 0.558 0.239 1.76 0.33 2.045-0.532 0.013-1.182 0.03-1.481 0.033z"/>
   </g>
   <g id="g838">
    <path id="path840" d="m388.9 663.05c0.049 0.426 0.272 1.889 0.308 2.058 0.386-0.023 1.28-0.026 1.435-0.039-0.016-0.39-0.079-1.853-0.086-2.061-0.404 0.011-1.454 0.037-1.657 0.042z"/>
   </g>
   <g id="g842">
    <path id="path844" d="m386.89 661.24c-0.072 0.374-0.085 1.173-0.065 1.514 0.455 0.009 1.575-0.018 1.73-0.031-0.038-0.388-0.099-1.09-0.138-1.528-0.371 0.016-1.28 0.038-1.527 0.045z"/>
   </g>
   <g id="g846">
    <path id="path848" d="m388.75 661.19c0.013 0.364 0.094 1.254 0.12 1.526 0.393-0.011 1.355-0.031 1.68-0.042-0.017-0.333-0.07-1.406-0.076-1.536-0.522 0.014-1.393 0.047-1.724 0.052z"/>
   </g>
   <g id="g850">
    <path id="path852" d="m390.81 661.13c0.016 0.338 0.059 1.292 0.046 1.539 0.417-0.011 1.214-0.019 1.461-0.039 0.019-0.339 0.074-1.308 0.048-1.555-0.468 0.018-1.214 0.043-1.555 0.055z"/>
   </g>
   <g id="g854">
    <path id="path856" d="m392.65 661.06c0 0.286-0.036 1.291-0.049 1.564 0.413-0.016 1.351-0.049 1.595-0.055 0.065-0.335 0.195-1.205 0.234-1.572-0.39 0.013-1.495 0.055-1.78 0.063z"/>
   </g>
   <g id="g858">
    <path id="path860" d="m394.26 662.91c-0.533 0.017-1.39 0.04-1.68 0.051-0.045 0.658-0.127 1.795-0.166 2.055 0.469-0.01 1.417-0.04 1.625-0.046 0.156-0.312 0.494-1.286 0.572-1.585-0.117-0.182-0.208-0.286-0.351-0.475z"/>
   </g>
   <g id="g862">
    <path id="path864" d="m390.87 663c0 0.234 0.041 1.909 0.051 2.052 0.305-0.01 1.097-0.021 1.214-0.034 0.059-0.652 0.148-1.901 0.164-2.057-0.54 0.015-1.07 0.031-1.429 0.039z"/>
   </g>
   <g id="g866">
    <path id="path868" d="m383.97 662.6-0.677 0.12c-0.312 0.504-1.468 2.063-1.611 2.245 0.805-0.023 2.064-0.047 2.367-0.076-0.022-0.418-0.078-2.082-0.079-2.289z"/>
   </g>
   <g id="g870">
    <path id="path872" d="m384.27 662.54c0.016 0.533 0.067 1.953 0.08 2.33 0.399-0.023 1.134-0.071 1.433-0.097-0.069-0.67-0.195-2.27-0.221-2.465-0.335 0.061-0.993 0.177-1.292 0.232z"/>
   </g>
   <g id="g874" stroke-width=".13774" stroke="#000">
    <path id="path876" d="m377.29 656.93c0.091 0.001 0.103 0.079-0.001 0.078l-7.678-0.095c-0.104-0.001-0.09-0.079 0.001-0.078l7.678 0.095z" stroke-width=".13774"/>
   </g>
   <g id="g878" stroke-width=".13774" stroke="#000">
    <path id="path880" d="m383.33 650.78c0.091 0.003 0.102 0.081-0.002 0.078l-6.083-0.167c-0.104-0.003-0.089-0.081 0.002-0.078l6.083 0.167z" stroke-width=".13774"/>
   </g>
   <g id="g882" stroke-width=".13774" stroke="#000">
    <path id="path884" d="m376.91 652.54c0.091 0.001 0.103 0.079-0.001 0.078l-6.808-0.05c-0.104 0-0.09-0.078 0-0.078l6.809 0.05z" stroke-width=".13774"/>
   </g>
   <g id="g886" stroke-width=".13774" stroke="#000">
    <path id="path888" d="m377.11 648.12c0.091 0 0.104 0.078 0 0.078l-7.121-0.037c-0.104 0-0.09-0.078 0.001-0.077l7.12 0.036z" stroke-width=".13774"/>
   </g>
   <g id="g890" stroke-width=".13774" stroke="#000">
    <path id="path892" d="m376.62 644.63c0.091 0.001 0.102 0.08-0.001 0.078l-6.919-0.104c-0.104-0.002-0.09-0.08 0.001-0.078l6.919 0.104z" stroke-width=".13774"/>
   </g>
   <g id="g894" stroke-width=".13774" stroke="#000">
    <path id="path896" d="m383.78 642.59c0.091-0.001 0.105 0.077 0.001 0.078l-5.938 0.057c-0.104 0.001-0.092-0.077-0.001-0.078l5.938-0.057z" stroke-width=".13774" fill="#fff"/>
   </g>
   <g id="g898" stroke-width=".13774" stroke="#000">
    <path id="path900" d="m384.15 645.91c0.091 0 0.104 0.078 0 0.078h-6.562c-0.104 0-0.091-0.078 0-0.078h6.562z" stroke-width=".13774"/>
   </g>
   <g id="g902" stroke-width=".13774" stroke="#000">
    <path id="path904" d="m390.59 650.64c0.091 0 0.104 0.078 0 0.078h-7.072c-0.104 0-0.091-0.078 0-0.078h7.072z" stroke-width=".13774"/>
   </g>
   <g id="g906" stroke-width=".13774" stroke="#000">
    <path id="path908" d="m390.69 644.73c0.091 0.001 0.103 0.079-0.001 0.078l-7.225-0.071c-0.104-0.001-0.09-0.079 0.001-0.078l7.225 0.071z" stroke-width=".13774"/>
   </g>
   <g id="g910" stroke-width=".13774" stroke="#000">
    <path id="path912" d="m384.01 655.12c0.091 0.001 0.103 0.079-0.001 0.078l-6.356-0.042c-0.104-0.001-0.09-0.079 0.001-0.078l6.356 0.042z" stroke-width=".13774"/>
   </g>
   <g id="g914" stroke-width=".13774" stroke="#000">
    <path id="path916" d="m390.22 655.98c0.091 0.001 0.103 0.079-0.001 0.078l-5.587-0.074c-0.104-0.001-0.089-0.079 0.002-0.078l5.586 0.074z" stroke-width=".13774"/>
   </g>
   <g id="g918" stroke-width=".13774" stroke="#000" fill="#ef072d">
    <path id="path920" d="m395.26 657.05c0.157-0.349 0.179-1.151 0.089-1.455-0.242 0.049-0.447 0.038-0.647-0.04-0.105-0.04-0.22-0.076-0.341-0.106-0.022 0.402-0.168 1.426-0.348 1.822-0.314 0.089-0.947-0.015-1.307-0.128-0.095 0.341-0.182 0.654-0.262 0.942 0.447 0.103 1.008 0.094 1.452-0.009-0.035 0.601-0.114 1.148-0.439 1.526 0.531 0.012 1.006-0.066 1.18-0.252 0.016-0.018 0.034-0.033 0.053-0.048 0.245-0.41 0.252-0.944 0.311-1.304 0.181 0.013 0.415-0.039 0.519-0.143s0.273-0.156 0.442-0.143c0.154 0.012 0.394-0.02 0.699-0.143 0.008-0.184 0.044-0.384 0.107-0.558 0.034-0.095 0.071-0.253 0.102-0.444-0.387 0.185-1.25 0.494-1.61 0.483z" stroke-width=".13774"/>
   </g>
   <g id="g922" stroke-width=".13774" stroke="#000">
    <path id="path924" d="m370.46 623.2c-0.791 0.023-2.513 0.039-2.875 0.242-0.361 0.204-0.52 0.294 0.113 0.407s1.704 0.414 2.291 0.776c0.587 0.361 1.079 1.001 0.917 1.914-0.485 2.743 0.949 5.381 3.027 6.376 0.201 0.096 0.249 0.169 0.204 0.542s-0.181 0.995-0.294 1.153c-0.113 0.159-0.169 0.419 0.192 0.294-0.248 0.464-0.802 1.391-0.971 1.628-1.661-0.203-3.016 0.023-3.141 1.763-0.012 0.17 0.046 0.441 0.305 0.012 0.26-0.43 0.554-0.837 1.265-0.95-0.418 0.644-0.553 1.221-0.485 1.594 0.067 0.373 0.169 0.599 0.35 0.124 0.181-0.474 0.514-0.918 0.87-1.187 0.135-0.101 0.226-0.124 0.124 0.17s0.045 0.927 0.249 1.142c0.203 0.214 0.305 0.124 0.248-0.226-0.056-0.351 0.032-1.084 0.463-1.312 0.621-0.327 1.152-0.158 1.401 0.272 0.248 0.429 0.463 0.022 0.192-0.464s-0.554-0.825-1.006-0.859c0.396-0.701 0.859-1.549 0.961-1.718 0.101-0.17 0.26-0.249 0.395-0.147 0.136 0.102 0.226 0.09 0.362-0.192 0.135-0.283 0.372-1.119 0.711-1.458 0.17-0.046 0.441-0.113 0.542-0.204 0.441 0.644 0.836 1.357 0.938 1.515 0.101 0.158 0.215 0.226 0.113 0.554s-0.452 1.368-0.508 1.594c-1.232 0.045-1.796 0.067-2.192 0.757-0.173 0.301 0.102 0.418 0.396 0.26 0.293-0.158 0.711-0.294 0.926-0.26 0.214 0.034 0.315 0.144 0.101 0.249-0.756 0.373-1.229 0.847-1.197 1.503 0.011 0.237 0.109 0.355 0.294 0.034 0.26-0.452 0.734-0.904 1.31-1.029-0.034 0.554 0.091 1.368 0.429 1.538 0.339 0.169 0.363-0.003 0.237-0.328-0.203-0.52 0.008-1.043 0.26-1.323 0.531-0.588 1.74 0.226 1.966 0.43 0.226 0.203 0.432 0.288 0.305-0.238-0.17-0.7-1.164-1.107-2.011-1.22 0.237-1.142 0.87-3.448 1.209-4.239 0.497 0.271 0.885-0.444 1.717-0.136 1.4 0.52 3.501 1.831 3.863 2.125 0.361 0.294 0.497 0.226 0.678 0.068 0.18-0.158 0.497 0 0.745 0.045 0.249 0.045 0.475 0.113 0.158-0.52-0.316-0.633-1.084-1.741-2.372-2.6 0.768 0.068 1.808 0.068 1.808-0.135 0-0.204-1.198-0.588-1.695-0.633 0.475-0.113 1.198-0.385 1.536-0.769 0.201-0.227-0.04-0.28-0.745-0.294-2.169-0.045-3.253-0.028-4.383-0.678-1.807-1.04-2.841-2.135-3.728-2.6-0.474-0.249-0.763-0.823-0.946-1.319-0.587-1.583-0.558-2.295-1.936-2.815s-2.963 0.117-3.686 0.772z"/>
   </g>
   <g id="g926" stroke-width=".13774" stroke="#000" fill="#fff">
    <path id="path928" d="m370.55 623.56c-0.351-0.013-1.04-0.096-1.611-0.039-0.13 0.013-0.286 0.078 0.026 0.117s1.156 0.246 1.455 0.35 0.169 0.26-0.091 0.195-0.356 0.031-0.143 0.182c1.105 0.78 1.222 1.079 0.936 3.755 0.208 0.143 0.377 0.247 0.559 0.338s0.13 0.221-0.065 0.169-0.377 0.065-0.065 0.13 0.454 0.208 0.156 0.195c-0.299-0.013-0.65 0.247-0.065 0.182 0.584-0.065 0.818 0.208 0.13 0.221-0.689 0.013-0.429 0.234-0.065 0.234 0.649 0 0.454 0.182 0.286 0.182-0.169 0-0.247 0.221 0.182 0.182 0.428-0.039 0.597-0.052 0.753-0.026s0.221 0.155-0.013 0.169c-0.234 0.012-0.221 0.181 0.13 0.181s0.497 0.106 0.182 0.169c-0.13 0.026-0.31 0.091 0.065 0.143 0.65 0.091 0.676 0.247 0.468 0.273s-0.234 0.143 0.065 0.169c0.298 0.026 0.558 0.117 0.312 0.182-0.247 0.065-0.377 0.208-0.066 0.234 0.312 0.026 0.572 0.143 0.338 0.221s-0.286 0.221 0.013 0.208 0.416 0.156 0.208 0.272c-0.208 0.117-0.351 0.195-0.481-0.012-0.129-0.208-0.207-0.273-0.246-0.117-0.039 0.155-0.13 0.052-0.234-0.182s-0.286-0.299-0.234-0.117-0.182 0.208-0.403 0.117c0.819 0.831 2.027 1.585 3.95 0.805 0.164-0.066 0.195 0 0.325 0.273s0.494 0.871 0.624 1.092 0.233 0.022 0.298-0.195c0.26-0.858 0.455-1.495 0.533-1.728 0.078-0.234 0.442-0.468 0.325 0.35 0.286-0.195 1.553-0.379 2.534-0.013 1.078 0.403 2.162 1.028 2.716 1.443 0.104 0.078 0.234 0.169 0.493 0.143 0.26-0.026 0.325-0.065-0.169-0.52-0.493-0.455-0.285-0.676 0.026-0.455 0.312 0.221 0.481 0.091 0.247-0.182s-0.792-0.805-0.974-0.935-0.208-0.182-0.624-0.208-1.299-0.026-1.559-0.026-0.338 0.026 0.234 0.234c0.571 0.207 1.741 0.961 2.001 1.143s0.442 0.598-0.13 0.234-2.365-1.481-3.56-1.897c-2.729 0.182-4.886 0.546-6.497-1.221-0.772-0.846-0.806-2.781 0.493-3.587-0.26-0.221-0.221-0.351-0.117-0.403s0.143-0.104 0.039-0.234c-0.103-0.13-0.091-0.246 0-0.298-0.285-0.156-0.415-0.338-0.402-0.533-0.351-0.078-0.507-0.494-0.975-0.364s-0.702 0.026-0.844-0.091c-0.144-0.117-0.26-0.169-0.52-0.143s-0.468-0.078-0.481-0.208 0.22-0.193 0.572-0.039c0.74 0.325 1.338 0.481 1.793-0.13 0.455-0.61-0.13-1.182-1.001-1.351-0.87-0.169-1.507 0.468-1.832 0.767z" stroke-width=".13774"/>
   </g>
   <g id="g930" stroke-width=".13774" stroke="#000" fill="#fff">
    <path id="path932" d="m374.92 623.33c-0.262-0.284-0.728-0.546-0.961-0.624-0.234-0.078-0.26 0.156-0.13 0.273-0.104 0.156-0.143 0.533 0.039 0.637s0.184 0.252 0.013 0.337c-0.26 0.13-0.172 0.82 0.22 0.624 0.13-0.065 0.234-0.039 0.208 0.065s0.026 0.234 0.143 0.26 0.104 0.195 0.078 0.26 0.013 0.091 0.143 0.104 0.143 0.325-0.091 0.429c0.286 0 0.364-0.052 0.442 0.182 0.078 0.233 0.39 0.285 0.39 0.571s-0.052 0.338-0.39 0.286-0.468 0.052-0.572 0.182-0.13 0.26 0.13 0.273 0.312 0.13 0.052 0.247-0.688 0.039-0.753 0.286c-0.065 0.246 0 0.363 0.194 0.272 0.195-0.09 0.598-0.259 0.754-0.35s0.299-0.104 0.429 0.104 0.026 0.441-0.195 0.26c-0.221-0.182-0.325-0.014-0.455 0.09s-0.325 0.169-0.533 0.169c-0.207 0-0.35 0.027-0.324 0.494 0.078 1.404 1.169 2.443 3.17 2.417s2.989-0.052 3.288-0.013c-0.663-0.364-1.079-0.559-1.313-0.533s-0.429 0.065-0.325-0.117-0.013-0.182-0.117-0.26-0.233-0.182-0.441 0.039-0.702 0.468-0.949 0.52-0.546 0.039-0.312-0.195 0.754-0.312 0.91-0.416 0.156-0.168 0.156-0.246-0.039-0.299 0.26-0.13c0.597 0.338 1.533 0.844 1.78 0.831s0.416-0.117 0.195-0.26-0.286-0.35-0.221-0.428 0.104-0.156 0.494 0.065c0.389 0.22 1.026 0.506 1.26 0.61s0.546 0.065 0.065-0.286c-0.481-0.35-1.975-1.338-2.391-1.65s-0.234 0.065-0.195 0.182-0.286 0.26-0.455 0.117-0.286-0.299-0.052-0.429 0.286-0.143-0.065-0.455c-0.35-0.311-0.454-0.285-0.376-0.026 0.078 0.26 0.104 0.546-0.26 0.403s-0.546-0.312-0.312-0.455c0.234-0.142 0.533-0.22 0.143-0.545s-0.273 0-0.364 0.182-0.39 0.182-0.559 0.039-0.247-0.286-0.13-0.403 0.104-0.182 0.273-0.091 0.429 0.039 0.117-0.234-0.429-0.156-0.364 0-0.182 0.429-0.571 0.065c-0.185-0.172-0.182-0.403 0.013-0.442 0.194-0.039 0.213-0.14 0.077-0.338-0.792-1.156-0.467-2.092-1.26-2.949z" stroke-width=".13774"/>
   </g>
   <g id="g934" fill="#cf6200">
    <path id="path936" d="m375.05 623.49c-0.068 0.102-0.093 0.098-0.219 0.182-0.155 0.103-0.19 0.398 0.07 0.363 0.18-0.024 0.285-0.131 0.356-0.218-0.057-0.11-0.125-0.219-0.207-0.327z"/>
   </g>
   <g id="g938" fill="#cf6200">
    <path id="path940" d="m374.24 622.84c-0.2 0.194-0.235 0.281-0.133 0.281 0.121 0 0.069 0.017-0.018 0.156-0.086 0.139 0.174 0.208 0.278 0.104s0.121-0.139 0.173 0c0.042 0.113 0.213 0.006 0.321-0.103-0.177-0.171-0.415-0.329-0.621-0.438z"/>
   </g>
   <g id="g942" fill="#cf6200">
    <path id="path944" d="m373.88 623.96c-0.26 0.13-0.172 0.82 0.22 0.624 0.13-0.065 0.234-0.039 0.208 0.065-0.014 0.055-0.005 0.118 0.024 0.168 0.155-0.065 0.31-0.173 0.431-0.311 0.243-0.277 0.017-0.26-0.346-0.26-0.364 0-0.468-0.069-0.122-0.277 0.31-0.186 0.108-0.315-0.321-0.255 0.062 0.088 0.031 0.184-0.094 0.246z"/>
   </g>
   <g id="g946" fill="#cf6200">
    <path id="path948" d="m375.37 625.49c-0.191-0.208-0.07-0.312 0.138-0.416 0.051-0.025 0.086-0.057 0.111-0.095-0.059-0.229-0.106-0.449-0.168-0.663-0.109 0.031-0.236 0.274-0.272 0.394-0.052 0.173-0.104 0.277-0.277 0.225-0.154-0.046-0.308 0.127-0.34 0.312 0.024 0.01 0.061 0.017 0.11 0.022 0.072 0.007 0.108 0.105 0.086 0.209 0.469-0.015 0.549 0.309 0.629 0.531 0.087 0.243 0.191 0.208 0.26 0.07 0.069-0.139-0.087-0.381-0.277-0.589z"/>
   </g>
   <g id="g950" fill="#ff0">
    <path id="path952" d="m375.5 628.21c-0.085 0.192-0.087 0.173-0.364 0.19-0.277 0.018-0.626 0.065-0.779 0.226-0.083 0.086-0.562 0.109-0.563 0.32-0.002 0.212 0 0.39 0.208 0.403 0.207 0.013 0.233 0.039 0.156 0.195-0.079 0.156-0.13 0.416 0.233 0.442 0.364 0.026 0.624-0.091 0.715 0.116 0.091 0.208-0.007 0.54 0.065 0.663s0.318 0.202 0.699 0.32c0.254 0.079 1.213 0.124 1.508 0.09 0.294-0.035 0.184-0.211-0.111-0.237-0.294-0.026-0.511-0.069-0.58-0.285-0.069-0.217-0.13-0.33 0.035-0.511 0.164-0.182 0.329-0.321 0.234-0.624-0.096-0.303-0.252-0.659-0.598-0.754-0.347-0.095-0.237-0.569-0.581-0.615-0.13-0.017-0.242-0.017-0.277 0.061z"/>
   </g>
   <g id="g954" fill="#cf6200">
    <path id="path956" d="m373.82 631.03c0.298 0.026 0.558 0.117 0.312 0.182-0.247 0.065-0.377 0.208-0.066 0.234 0.312 0.026 0.572 0.143 0.338 0.221s-0.286 0.221 0.013 0.208 0.416 0.156 0.208 0.272c-0.208 0.117-0.351 0.195-0.481-0.012-0.129-0.208-0.207-0.273-0.246-0.117-0.039 0.155-0.13 0.052-0.234-0.182s-0.286-0.299-0.234-0.117-0.182 0.208-0.403 0.117c0.218 0.221 0.463 0.436 0.742 0.618 0.319-0.109 0.671-0.02 0.791-0.008 0.13 0.013 0.533 0.104 0.754 0.221s0.364-0.091 0.273-0.325c-0.091-0.233-0.104-0.155-0.221-0.026-0.117 0.13-0.143-0.052-0.13-0.324 0.011-0.23-0.143-0.169-0.195-0.026s-0.169-0.091-0.104-0.234-0.013-0.195-0.13-0.156-0.13 0-0.143-0.26-0.13-0.221-0.169-0.117-0.143-0.039-0.299-0.247c-0.136-0.182-0.293-0.075-0.565 0.033 0.034 0.02 0.096 0.037 0.189 0.045z"/>
   </g>
   <g id="g958" fill="#ff0">
    <path id="path960" d="m376.98 632.64c-1.42 0.576-2.444 0.32-3.215-0.191 0.319-0.109 0.678-0.016 0.798-0.004 0.13 0.013 0.533 0.104 0.754 0.221s0.364-0.091 0.273-0.325c0.195 0.247 0.338 0.416 0.571 0.403 0.234-0.013 0.624-0.052 0.819-0.104z"/>
   </g>
   <g id="g962" fill="#ff0">
    <path id="path964" d="m373.95 626.1c-0.087-0.294-0.173-0.364-0.329-0.346-0.156 0.017-0.225-0.018-0.399-0.087-0.173-0.069-0.398 0.017-0.433 0.329s-0.225 0.468-0.485 0.658c-0.26 0.191-0.416 0.347-0.416 0.659s-0.069 0.398-0.242 0.624c-0.077 0.1-0.186 0.214-0.288 0.334 0.112 0.07 0.217 0.131 0.327 0.185 0.182 0.091 0.13 0.221-0.065 0.169s-0.377 0.065-0.065 0.13 0.454 0.208 0.156 0.195c-0.299-0.013-0.65 0.247-0.065 0.182 0.584-0.065 0.818 0.208 0.13 0.221-0.689 0.013-0.429 0.234-0.065 0.234 0.649 0 0.454 0.182 0.286 0.182-0.169 0-0.247 0.221 0.182 0.182 0.006-0.001 0.011-0.002 0.018-0.002 0.062-0.064 0.108-0.144 0.142-0.245 0.069-0.208 0.138-0.815 0.381-0.988 0.242-0.173 0.364-0.416 0.364-0.589s0.363-0.935 0.606-1.126 0.347-0.606 0.26-0.901z"/>
   </g>
   <g id="g966" fill="#cf6200">
    <path id="path968" d="m373.44 626.11c-0.246-0.164-0.485-0.069-0.485 0.243s-0.156 0.398-0.364 0.502c-0.207 0.104-0.398 0.364-0.433 0.607-0.034 0.242 0.035 0.398-0.138 0.589-0.174 0.19-0.191 0.346-0.069 0.45 0.121 0.104 0.121 0.122 0.173 0.277 0.052 0.156 0.346-0.017 0.346-0.19s0.07-0.173 0.26-0.277c0.191-0.104 0.503-0.607 0.433-0.745-0.069-0.139-0.242-0.26-0.017-0.451 0.225-0.19 0.468-0.208 0.468-0.398 0-0.191 0.069-0.26 0.138-0.329 0.07-0.07-0.156-0.174-0.312-0.278z"/>
   </g>
   <g id="g970">
    <path id="path972" d="m373.44 625.86c-0.162-0.063-0.259 0.277-0.034 0.329s0.26-0.243 0.034-0.329z"/>
   </g>
   <g id="g974">
    <path id="path976" d="m373.4 626.3c-0.172 0.021-0.364 0.247-0.078 0.208s0.403-0.247 0.078-0.208z"/>
   </g>
   <g id="g978">
    <path id="path980" d="m373.06 626.72c-0.177 0.089-0.143 0.325 0.117 0.156s0.325-0.377-0.117-0.156z"/>
   </g>
   <g id="g982">
    <path id="path984" d="m372.78 627.08c-0.178 0.088-0.143 0.324 0.117 0.156 0.26-0.169 0.325-0.377-0.117-0.156z"/>
   </g>
   <g id="g986">
    <path id="path988" d="m372.42 627.25c-0.177 0.089-0.065 0.325 0.195 0.156s0.247-0.377-0.195-0.156z"/>
   </g>
   <g id="g990">
    <path id="path992" d="m372.64 627.47c-0.177 0.089-0.065 0.325 0.195 0.156s0.247-0.377-0.195-0.156z"/>
   </g>
   <g id="g994">
    <path id="path996" d="m372.33 627.56c-0.177 0.089-0.065 0.325 0.195 0.156s0.247-0.377-0.195-0.156z"/>
   </g>
   <g id="g998">
    <path id="path1000" d="m372.53 627.81c-0.178 0.089-0.065 0.325 0.194 0.156 0.26-0.169 0.247-0.377-0.194-0.156z"/>
   </g>
   <g id="g1002">
    <path id="path1004" d="m372.23 627.96c-0.177 0.088-0.065 0.324 0.195 0.155s0.247-0.376-0.195-0.155z"/>
   </g>
   <g id="g1006">
    <path id="path1008" d="m372.25 628.19c-0.177 0.089-0.065 0.325 0.195 0.156s0.247-0.377-0.195-0.156z"/>
   </g>
   <g id="g1010" fill="#cf6200">
    <path id="path1012" d="m372.11 630.38c-0.179 0.023-0.294 0.278-0.069 0.33s0.277 0.069 0.277 0.242 0.07 0.416 0.312 0.433c0.243 0.018 0.451-0.26 0.243-0.346-0.208-0.087-0.399-0.156-0.416-0.347-0.017-0.19-0.208-0.329-0.347-0.312z"/>
   </g>
   <g id="g1014" fill="#ff0">
    <path id="path1016" d="m378.49 628.89c0.032 0.04 0.072 0.084 0.118 0.123 0.169 0.143 0.494 0 0.455-0.117s-0.221-0.494 0.195-0.182 1.91 1.3 2.391 1.65c0.481 0.351 0.169 0.39-0.065 0.286s-0.871-0.39-1.26-0.61c-0.39-0.221-0.429-0.143-0.494-0.065-0.055 0.065-0.011 0.222 0.132 0.355-0.232 0.034-0.609-0.017-0.717-0.264-0.13-0.299-0.442-0.663-0.663-0.949-0.082-0.106-0.106-0.172-0.092-0.227z"/>
   </g>
   <g id="g1018" fill="#00d860">
    <path id="path1020" d="m391.38 671.46c-0.324 0.221-0.753 0.611-0.468 1.156 0.034-0.018 0.066-0.039 0.099-0.058 1.271-1.538 2.359-3.155 3.291-4.835 0.011-0.058 0.021-0.113 0.028-0.161-0.364 0.312-0.936 0.623-1.17 0.701 0.156 0.416-0.571 0.962-0.961 1.118 0.156 0.26 0.104 0.65-0.234 0.728 0.078 0.233-0.182 0.233-0.494 0.363s-0.468 0.234-0.571 0.39c0.168-0.091 0.402-0.169 0.532-0.13s0.156 0.234-0.078 0.286-0.389 0.182-0.468 0.286c0.338-0.13 0.819-0.065 0.494 0.156z"/>
   </g>
   <g id="g1022" stroke-width=".13774" stroke="#000">
    <path id="path1024" d="m375.97 628.41c-0.384-0.335-0.481-0.13-0.325 0.078s0.039 0.312-0.299 0.364-0.845 0.117-1.053 0.117-0.454 0.286 0.039 0.26c0.494-0.026 1.326-0.195 1.547-0.286s0.402-0.26 0.091-0.533z" stroke-width=".13774"/>
   </g>
   <g id="g1026" stroke-width=".13774" stroke="#000">
    <path id="path1028" d="m376.72 629c-0.317-0.285-0.429-0.208-0.351 0s-0.065 0.247-0.272 0.312c-0.208 0.065-1.027 0.338-1.378 0.377s-0.429 0.286 0.091 0.273 1.52-0.429 1.637-0.507 0.156-0.234 0.286-0.156 0.247-0.065-0.013-0.299z" stroke-width=".13774"/>
   </g>
   <g id="g1030" stroke-width=".13774" stroke="#000">
    <path id="path1032" d="m376.96 629.83c-0.23 0.137-0.805 0.389-1.039 0.454s-0.429 0.325 0.065 0.286c0.493-0.039 1.078-0.494 1.234-0.584 0.156-0.091 0.234-0.156 0.364-0.143s0.364-0.169-0.065-0.403-0.689-0.117-0.481 0.065 0.052 0.247-0.078 0.325z" stroke-width=".13774"/>
   </g>
   <g id="g1034">
    <path id="path1036" d="m372.91 623.29c-0.635-0.417-1.36 0.457-0.658 0.936 0.615 0.42 1.265-0.537 0.658-0.936z"/>
   </g>
   <g id="g1038" fill="#fff">
    <path id="path1040" d="m372.12 623.67 0.188 0.013c-0.039 0.194 0.156 0.487 0.455 0.415-0.24 0.182-0.708-0.026-0.643-0.428z"/>
   </g>
   <g id="g1042" fill="#fff">
    <path id="path1044" d="m374.58 633.14c0.192 0.056 0.859 0.124 1.085 0.135-0.113 0.238-0.215 0.396-0.283 0.566-0.068 0.169-0.101 0.181-0.113-0.079-0.011-0.261-0.158-0.43-0.293-0.159-0.136 0.272-0.204 0.373-0.271 0.486-0.068 0.113-0.17 0.159-0.136-0.124s0.023-0.577 0.011-0.825z"/>
   </g>
   <g id="g1046" stroke="#000" stroke-width=".27549" fill="none">
    <path id="path1048" d="m399.67 640.77c-0.046 16.332-2.623 33.927-23.764 42.308-21.142-8.381-23.719-25.976-23.765-42.308h47.529z" stroke="#000" stroke-width=".27549"/>
   </g>
   <g id="g3680" stroke="#000" stroke-width=".27549" fill="none">
    <path id="path3682" d="m399.67 640.77c0.018-6.152-0.324-12.125-0.168-17.359-7.9-3.535-18.295-4.262-23.596-4.262-5.302 0-15.697 0.727-23.597 4.262 0.156 5.234-0.185 11.207-0.168 17.359h47.529z" stroke="#000" stroke-width=".27549" fill="none"/>
   </g>
  </g>
 </g>
</svg>
