<?xml version="1.0" encoding="UTF-8" standalone="no"?>
<!-- Created with Sodipodi ("http://www.sodipodi.com/") -->
<svg id="svg552" xmlns:rdf="http://www.w3.org/1999/02/22-rdf-syntax-ns#" xmlns="http://www.w3.org/2000/svg" height="480" width="640" version="1.1" xmlns:cc="http://creativecommons.org/ns#" xmlns:dc="http://purl.org/dc/elements/1.1/">
 <metadata id="metadata3095">
  <rdf:RDF>
   <cc:Work rdf:about="">
    <dc:format>image/svg+xml</dc:format>
    <dc:type rdf:resource="http://purl.org/dc/dcmitype/StillImage"/>
   </cc:Work>
  </rdf:RDF>
 </metadata>
 <defs id="defs554">
  <clipPath id="clipPath9826" clipPathUnits="userSpaceOnUse">
   <rect id="rect9828" fill-opacity="0.67" height="512" width="682.67" y="-.000016209" x="-15.067"/>
  </clipPath>
 </defs>
 <g id="flag" fill-rule="evenodd" clip-path="url(#clipPath9826)" transform="matrix(.9375 0 0 .9375 14.125 .000015196)" stroke-width="1pt">
  <rect id="rect555" height="512" width="1024" y="-.000017159" x="-62" fill="#fff"/>
  <rect id="rect556" height="170.67" width="1024" y="341.33" x="-62" fill="#de2918"/>
  <rect id="rect563" height="170.67" width="1024" y="170.67" x="-62" fill="#08399c"/>
  <path id="path694" d="m228.37 92.976c-4.0191 61.651-6.3219 95.436-15.709 111.07-10.15 16.789-20.025 29.081-59.63 43.882-39.61-14.81-49.48-27.1-59.633-43.89-9.387-15.63-11.69-49.41-15.709-111.06l5.853-1.9715c11.783-3.5933 20.574-6.4837 27.077-7.7665 9.3132-1.971 17.228-4.1995 42.257-4.7225 25.029 0.43054 32.983 2.7977 42.296 4.7687 6.4491 1.3752 15.617 4.0808 27.312 7.744l5.8842 1.9478z" fill="#de2918"/>
  <path id="path675" d="m222.6 90.955c-3.802 61.518-6.9828 89.69-11.943 103.24-9.6262 23.193-24.866 35.909-57.665 48.038-32.8-12.14-48.04-24.86-57.664-48.05-4.961-13.54-8.095-41.64-11.788-103.3 11.534-3.6024 20.577-6.4175 27.08-7.7008 9.3132-1.9715 17.228-4.2932 42.257-4.7238 25.029 0.43066 33.037 2.7523 42.35 4.7238 6.503 1.2832 15.732 4.0983 27.373 7.7625z" fill="#08399c"/>
  <path id="path651" d="m152.96 109.79 1.5726 3.7226 6.9103 0.94737-4.4779 2.7 4.3295 2.8941-6.2974 1.0554-1.9165 3.3733-2.1551-3.4739-5.995-0.85074 4.0799-2.957-4.2006-2.6912 6.6357-1.0172 1.5144-3.7027z" fill="#fc0"/>
  <path id="path627" d="m208.28 179.62-3.8308-3.0278-2.7682-4.5545-5.4224-4.7038-2.8257-4.7532-5.4224-4.852-2.653-4.7522-2.8833-2.3277-1.9034-1.8315-4.8983 4.2951-2.6698 4.6646-3.3271 3.0164-3.6545-2.8548-2.7634-4.8664-10.258-18.217-10.259 18.217-2.7634 4.8664-3.6545 2.8548-3.3271-3.0164-2.6698-4.6646-4.8983-4.2951-1.9034 1.8315-2.8833 2.3277-2.653 4.7522-5.4224 4.852-2.8257 4.7532-5.4224 4.7038-2.7682 4.5545-3.8212 3.0988c1.9838 16.886 12.748 30.116 18.613 36.168 6.545 6.3551 20.039 14.858 36.54 20.486 16.548-5.5078 30.229-14.131 36.774-20.486 5.865-6.0524 16.629-19.282 18.625-36.239z" fill="#fff"/>
  <path id="path654" d="m169.45 83.89 1.5726 3.7226 6.9103 0.94737-4.4779 2.7 4.3295 2.8941-6.2974 1.0554-1.9165 3.3733-2.1551-3.4739-5.995-0.85075 4.0799-2.957-4.2006-2.6912 6.6357-1.0172 1.5144-3.7027z" fill="#fc0"/>
  <path id="path655" d="m136.47 83.834 1.5726 3.7226 6.9103 0.94737-4.4779 2.7 4.3295 2.8941-6.2974 1.0554-1.9165 3.3733-2.1551-3.4739-5.995-0.85075 4.0799-2.957-4.2006-2.6912 6.6357-1.0172 1.5144-3.7027z" fill="#fc0"/>
  <path id="path664" d="m199.72 203.03-7.4685 0.0226-6.8916-0.51269-8.3477-4.0943-9.4091 0.0566-8.1486 3.9811-6.4275 0.56828-6.4275-0.56828-8.1486-3.9811-9.4091-0.0566-8.3477 4.0943-6.8916 0.51269-7.5621-0.10398-3.6521-6.1862 0.13553-0.14207 11.172 1.848 6.8916-0.51269 8.3477-4.0943 9.4091 0.0566 8.1486 3.9811 6.4275 0.56828 6.4275-0.56828 8.1486-3.9811 9.4091-0.0566 8.3477 4.0943 6.8916 0.51269 10.874-1.9066 0.14393 0.2862-3.6425 6.1821z" fill="#08399c"/>
  <path id="path665" d="m113.25 212.54 7.393-0.51269 8.3477-4.0943 9.4091 0.0566 8.1486 3.9811 6.4275 0.56828 6.4275-0.56828 8.1486-3.9811 9.4091-0.0566 8.3477 4.0943 7.4937 0.51269 4.8347-5.9598-0.16311-0.13487-5.1801 1.5103-6.8916-0.51269-8.3477-4.0943-9.4091 0.0566-8.1486 3.9811-6.4275 0.56829-6.4275-0.56829-8.1486-3.9811-9.4091-0.0566-8.3477 4.0943-6.8916 0.51269-5.077-1.2797-0.0612 0.24914 4.5432 5.6149z" fill="#08399c"/>
 </g>
</svg>
