<?xml version="1.0" encoding="UTF-8" standalone="no"?>
<!-- Created with Sodipodi ("http://www.sodipodi.com/") -->
<!-- /Creative Commons Public Domain -->
<!--
<rdf:RDF xmlns="http://web.resource.org/cc/"
    xmlns:dc="http://purl.org/dc/elements/1.1/"
    xmlns:rdf="http://www.w3.org/1999/02/22-rdf-syntax-ns#">
<Work rdf:about="">
   <dc:title>San Marino SVG Flag</dc:title>
   <dc:rights><Agent>
      <dc:title>Tobias Jakobs</dc:title>
   </Agent></dc:rights>
   <license rdf:resource="http://web.resource.org/cc/PublicDomain" />
</Work>

<License rdf:about="http://web.resource.org/cc/PublicDomain">
   <permits rdf:resource="http://web.resource.org/cc/Reproduction" />
   <permits rdf:resource="http://web.resource.org/cc/Distribution" />
   <permits rdf:resource="http://web.resource.org/cc/DerivativeWorks" />
</License>

</rdf:RDF>
-->
<svg id="svg600" xmlns:rdf="http://www.w3.org/1999/02/22-rdf-syntax-ns#" xmlns="http://www.w3.org/2000/svg" height="480" width="640" version="1.1" xmlns:cc="http://creativecommons.org/ns#" xmlns:dc="http://purl.org/dc/elements/1.1/">
 <metadata id="metadata3289">
  <rdf:RDF>
   <cc:Work rdf:about="">
    <dc:format>image/svg+xml</dc:format>
    <dc:type rdf:resource="http://purl.org/dc/dcmitype/StillImage"/>
   </cc:Work>
  </rdf:RDF>
 </metadata>
 <g id="flag">
  <g id="g1073" fill-rule="evenodd" stroke-width="1pt" transform="matrix(.64 0 0 0.8 0 0.0000244)">
   <rect id="rect1071" height="300" width="1e3" y="300" x="0" fill="#19b6ef"/>
   <rect id="rect1072" height="300" width="1e3" y="-.000031" x="0" fill="#fff"/>
  </g>
  <g id="g910" transform="matrix(1.6657 0 0 1.6657 -464.91 -233.28)">
   <path id="path630" d="m469.46 343.7c31.488-23.557 65.414-71.625 25.659-96.902-7.406-1.434-15.673-1.004-19.639 2.15-2.102-1.195-3.775-1.099-5.877 1.147-1.481-1.816-2.963-2.629-6.021-1.72-6.116-3.106-11.658-3.775-18.921-1.864-34.594 20.785-13.427 70.096 24.799 97.189z" fill-rule="evenodd" stroke="#7d6c00" stroke-width="1.0667pt" fill="#fd0"/>
   <g id="g892" stroke="#3a9d4f">
    <path id="path865" stroke-linejoin="round" d="m527.7 290.2s3.544-4.766 3.666-4.766c3.544-2.078 3.911-4.766 3.911-4.766 3.544-1.1 2.444-4.033 2.688-4.399 1.712-1.833 1.1-3.667 0.856-4.278 0-0.488 1.222-5.01-0.489-5.621 0.081-4.807-2.892-4.359-5.255-1.222-2.526 0.733-3.096 2.811-2.2 5.133-3.3 0-3.422 4.766-2.444 7.454-4.399-0.122-1.955 4.766-2.078 5.011-1.466 0.733 1.1 7.699 1.345 7.454z" fill-rule="evenodd" stroke-width="1.0667pt" fill="#4fd46b"/>
    <g id="g876">
     <path id="path860" stroke-linejoin="round" d="m499.95 331.14c0.733 0.448 1.467 0.896 2.2 1.344 0.448 1.67 1.996 2.73 3.178 2.445 0.57 2.566 3.34 2.2 5.377 0.733 1.629 2.363 3.626 2.404 6.355 1.589 2.444 1.792 5.622 1.018 7.699-0.856 2.24 1.833 3.748 0.489 4.888-1.466 1.751 0.448 3.136 0.163 3.788-1.589 3.422-0.285 1.711-3.503-1.099-4.888 2.24-1.956 4.725-5.989 1.222-6.6-1.1-0.814-3.177-0.651-4.766 0.123-0.407-1.793-2.893-2.241-5.622-0.245-0.937-1.996-4.196-1.059-5.744 0.367-1.955-1.711-4.277-1.711-7.699 0.244l-9.777 8.799z" fill-rule="evenodd" stroke-width="1.0667pt" fill="#4fd46b"/>
     <path id="path861" stroke-linejoin="round" d="m499.95 325.89c0.407-2.24-1.141-6.314 1.222-6.721-0.448-3.748 0.204-7.984 4.522-7.577 0.693-3.544 0.53-6.844 4.644-7.333 0 0 3.3-11.487 6.722-3.544 1.344 2.323 1.1 6.11-1.589 5.377 0.53 2.852-0.407 5.336-3.544 5.255 1.385 1.996 0.937 4.726-0.611 5.989-3.789 2.851-7.577 5.703-11.366 8.554z" fill-rule="evenodd" stroke-width="1.0667pt" fill="#4fd46b"/>
     <path id="path862" stroke-linejoin="round" d="m519.87 311.59c1.181-0.244 2.363-0.489 3.544-0.733 3.666-2.444 5.133-3.422 6.966-0.734 3.055-0.652 5.988-0.326 5.866 2.078 3.626 0.244 3.585 2.566 3.178 4.399 0.57 3.218-0.815 7.414-3.056 2.322-7.088-4.318-11.121-3.748-22.364-1.222 1.955-2.037 3.911-4.073 5.866-6.11z" fill-rule="evenodd" stroke-width="1.0667pt" fill="#4fd46b"/>
     <path id="path863" stroke-linejoin="round" d="m521.71 308.04c0.123-0.122 10.51-2.811 9.41-5.988 2.933-0.489 3.545-3.422 3.667-3.422 6.11-1.955 5.743-5.5 5.743-5.5 1.752-1.874 4.848-3.748 4.156-7.088 0.204-3.788 0.529-6.11-4.522-3.666-3.789-0.367-5.133 1.833-6.233 5.133-1.792-2.118-4.684 1.263-5.01 4.277 0 0-4.644 4.522-4.644 4.644s-3.911 7.21-3.911 7.21c0.448 1.467 0.896 2.933 1.344 4.4z" fill-rule="evenodd" stroke-width="1.0667pt" fill="#4fd46b"/>
     <path id="path864" stroke-linejoin="round" d="m521.95 299.98c-2.485-1.874-3.87-4.114-3.422-6.355-1.629-2.2-2.77-3.544-1.222-5.499 0 0-1.222-4.4-1.222-4.522-3.177-1.222-1.833-3.91-0.978-4.888-1.507-2.078-1.548-4.278-0.122-6.233-0.041-3.911 2.729-2.444 5.01 0 0 0 3.789 2.689 0.978 5.133 2.811 0.978 3.667 3.421 2.078 4.399 2.444 1.1 2.81 3.3 1.466 4.767 2.485 1.996 1.548 4.481 2.322 6.721-1.629 2.159-3.259 4.318-4.888 6.477z" fill-rule="evenodd" stroke-width="1.0667pt" fill="#4fd46b"/>
     <path id="path866" stroke-linejoin="round" d="m526.35 281.77c-0.122-0.122-4.155-5.255-3.055-5.622-0.244-1.589-1.466-3.3-0.733-4.888-1.996-1.996-2.037-4.358-0.489-6.232-1.344-1.833-0.733-4.277 1.1-5.866-0.57-3.015 1.548-3.707 3.422-4.278 1.385-4.848 3.625-3.585 4.888 0.122 1.915 1.67 1.63 4.196 0.978 6.111 2.281 1.548 0.896 3.462-0.122 4.277-1.996 5.459-3.993 10.917-5.989 16.376z" fill-rule="evenodd" stroke-width="1.0667pt" fill="#4fd46b"/>
     <path id="path867" stroke-linejoin="round" d="m525.74 255.98l-3.422-3.422c0.884-1.813 1.596-5.009-0.977-6.477-1.419-3.456-8.514-7.74-9.655 0.489-1.08-2.483-3.34-4.929-5.01-2.077-3.707-3.177-5.703-2.2-3.789 1.833 0 0-1.71 2.688 2.811 4.766 0.367 0.366-1.466 4.888 3.911 5.01-1.018 1.548 0.652 3.707 2.811 3.544-1.548 1.915 1.059 3.952 2.688 3.178-0.693 2.118-0.652 3.137 2.322 3.422 1.1 1.263 2.2 2.525 3.3 3.788 0.896 1.222 1.792 2.444 2.688 3.666 0.774-5.907 1.548-11.813 2.322-17.72z" fill-rule="evenodd" stroke-width="1.0667pt" fill="#4fd46b"/>
     <path id="path868" d="m527.82 288.04c0.173-0.173 6.567-14.863 7.431-19.357" stroke-linecap="round" stroke-width="1.3333" fill="none"/>
     <path id="path869" d="m528.51 261.95s1.037 11.925-1.901 20.739" stroke-linecap="round" stroke-width="1.3333" fill="none"/>
     <path id="path870" d="m508.81 249.85s13.135 12.616 14.344 17.801" stroke-linecap="round" stroke-width="1.3333" fill="none"/>
     <path id="path871" d="m517.97 248.47s0.864 10.37 4.493 20.567" stroke-linecap="round" stroke-width="1.3333" fill="none"/>
     <path id="path872" d="m541.13 286.14s-13.135 11.061-19.53 20.739" stroke-linecap="round" stroke-width="1.3333" fill="none"/>
     <path id="path873" d="m528.68 324.86s-17.283 2.42-24.887 2.593" stroke-linecap="round" stroke-width="1.3333" fill="none"/>
     <path id="path874" d="m522.98 332.29s-21.431-0.519-22.987-2.074" stroke-linecap="round" stroke-width="1.3333" fill="none"/>
     <path id="path875" d="m512.26 304.46c0 0.172-10.888 18.146-11.234 24.023" stroke-linecap="round" stroke-width="1.3333" fill="none"/>
    </g>
   </g>
   <path id="path608" d="m469.34 340.23c-22.674-21.387-45.899-61.525-22.796-81.809 4.106 2.329 8.947 0.245 15.627-2.39 2.022 2.206 4.595 2.758 7.169 1.103 2.88 1.226 5.025 0.245 6.435-1.287 6.557 3.8 14.952 5.761 16.913 2.023 22.735 21.57-0.307 61.893-23.348 82.36z" fill-rule="evenodd" stroke="#7d6c00" stroke-width="1.0667pt" fill="#65c7ff"/>
   <path id="path609" d="m469.47 339.61c-9.737-9.79-18.621-20.643-25.423-34.616 1.164-0.98 1.705-1.284 2.318-3 3.493 0.491 5.331 0.613 9.927-0.184 0.919 3.432 1.103 6.312 3.309 9.192 1.532-3.002 3.064-6.005 4.596-9.008 3.125 0.736 6.986 0.92 9.927 0 1.9 2.574 1.226 6.435 4.596 9.376 2.022-5.944 4.045-6.373 6.067-9.56 3.003 1.042 4.903 0.613 7.354-0.184 1.287 1.471 0.644 1.447 2.987 3.606-6.143 12.199-14.567 24.451-25.658 34.378z" fill-rule="evenodd" fill="#8fc753"/>
   <path id="path575" d="m442.88 239.3c0 1.1094-0.89934 2.0087-2.0087 2.0087s-2.0087-0.89933-2.0087-2.0087 0.89933-2.0087 2.0087-2.0087 2.0087 0.89934 2.0087 2.0087z" fill-rule="evenodd" transform="translate(-.087318 -.61134)" stroke="#000" stroke-width=".66667" fill="#fff"/>
   <path id="path576" d="m442.88 239.3c0 1.1094-0.89934 2.0087-2.0087 2.0087s-2.0087-0.89933-2.0087-2.0087 0.89933-2.0087 2.0087-2.0087 2.0087 0.89934 2.0087 2.0087z" fill-rule="evenodd" transform="translate(-2.1834 -5.2401)" stroke="#000" stroke-width=".66667" fill="#fff"/>
   <path id="path577" d="m442.88 239.3c0 1.1094-0.89934 2.0087-2.0087 2.0087s-2.0087-0.89933-2.0087-2.0087 0.89933-2.0087 2.0087-2.0087 2.0087 0.89934 2.0087 2.0087z" fill-rule="evenodd" transform="translate(-4.6288 -9.5196)" stroke="#000" stroke-width=".66667" fill="#fff"/>
   <path id="path578" d="m442.88 239.3c0 1.1094-0.89934 2.0087-2.0087 2.0087s-2.0087-0.89933-2.0087-2.0087 0.89933-2.0087 2.0087-2.0087 2.0087 0.89934 2.0087 2.0087z" fill-rule="evenodd" transform="translate(-6.2881 -13.712)" stroke="#000" stroke-width=".66667" fill="#fff"/>
   <path id="path579" d="m442.88 239.3c0 1.1094-0.89934 2.0087-2.0087 2.0087s-2.0087-0.89933-2.0087-2.0087 0.89933-2.0087 2.0087-2.0087 2.0087 0.89934 2.0087 2.0087z" fill-rule="evenodd" transform="translate(-6.0262 -18.253)" stroke="#000" stroke-width=".66667" fill="#fff"/>
   <path id="path580" d="m442.88 239.3c0 1.1094-0.89934 2.0087-2.0087 2.0087s-2.0087-0.89933-2.0087-2.0087 0.89933-2.0087 2.0087-2.0087 2.0087 0.89934 2.0087 2.0087z" fill-rule="evenodd" transform="translate(4.5773 -25.764)" stroke="#000" stroke-width=".66667" fill="#fff"/>
   <path id="path581" d="m442.88 239.3c0 1.1094-0.89934 2.0087-2.0087 2.0087s-2.0087-0.89933-2.0087-2.0087 0.89933-2.0087 2.0087-2.0087 2.0087 0.89934 2.0087 2.0087z" fill-rule="evenodd" transform="translate(.61138 -25.065)" stroke="#000" stroke-width=".66667" fill="#fff"/>
   <path id="path582" d="m442.88 239.3c0 1.1094-0.89934 2.0087-2.0087 2.0087s-2.0087-0.89933-2.0087-2.0087 0.89933-2.0087 2.0087-2.0087 2.0087 0.89934 2.0087 2.0087z" fill-rule="evenodd" transform="translate(-3.7554 -22.445)" stroke="#000" stroke-width=".66667" fill="#fff"/>
   <path id="path583" d="m442.88 239.3c0 1.1094-0.89934 2.0087-2.0087 2.0087s-2.0087-0.89933-2.0087-2.0087 0.89933-2.0087 2.0087-2.0087 2.0087 0.89934 2.0087 2.0087z" fill-rule="evenodd" transform="translate(9.6943 -25.677)" stroke="#000" stroke-width=".66667" fill="#fff"/>
   <path id="path584" d="m442.88 239.3c0 1.1094-0.89934 2.0087-2.0087 2.0087s-2.0087-0.89933-2.0087-2.0087 0.89933-2.0087 2.0087-2.0087 2.0087 0.89934 2.0087 2.0087z" fill-rule="evenodd" transform="translate(15.284 -25.24)" stroke="#000" stroke-width=".66667" fill="#fff"/>
   <path id="path585" d="m442.88 239.3c0 1.1094-0.89934 2.0087-2.0087 2.0087s-2.0087-0.89933-2.0087-2.0087 0.89933-2.0087 2.0087-2.0087 2.0087 0.89934 2.0087 2.0087z" fill-rule="evenodd" transform="translate(20.262 -25.502)" stroke="#000" stroke-width=".66667" fill="#fff"/>
   <path id="path586" d="m442.88 239.3c0 1.1094-0.89934 2.0087-2.0087 2.0087s-2.0087-0.89933-2.0087-2.0087 0.89933-2.0087 2.0087-2.0087 2.0087 0.89934 2.0087 2.0087z" fill-rule="evenodd" transform="matrix(2.5652 0 0 2.5652 -661.33 -403.26)" stroke="#7d6c00" stroke-width=".25989" fill="#fd0"/>
   <path id="path587" d="m442.88 239.3c0 1.1094-0.89934 2.0087-2.0087 2.0087s-2.0087-0.89933-2.0087-2.0087 0.89933-2.0087 2.0087-2.0087 2.0087 0.89934 2.0087 2.0087z" fill-rule="evenodd" transform="translate(37.292 -25.589)" stroke="#000" stroke-width=".66667" fill="#fff"/>
   <path id="path588" d="m442.88 239.3c0 1.1094-0.89934 2.0087-2.0087 2.0087s-2.0087-0.89933-2.0087-2.0087 0.89933-2.0087 2.0087-2.0087 2.0087 0.89934 2.0087 2.0087z" fill-rule="evenodd" transform="translate(42.533 -25.153)" stroke="#000" stroke-width=".66667" fill="#fff"/>
   <path id="path589" d="m442.88 239.3c0 1.1094-0.89934 2.0087-2.0087 2.0087s-2.0087-0.89933-2.0087-2.0087 0.89933-2.0087 2.0087-2.0087 2.0087 0.89934 2.0087 2.0087z" fill-rule="evenodd" transform="translate(47.598 -25.415)" stroke="#000" stroke-width=".66667" fill="#fff"/>
   <path id="path590" d="m442.88 239.3c0 1.1094-0.89934 2.0087-2.0087 2.0087s-2.0087-0.89933-2.0087-2.0087 0.89933-2.0087 2.0087-2.0087 2.0087 0.89934 2.0087 2.0087z" fill-rule="evenodd" transform="translate(51.877 -25.589)" stroke="#000" stroke-width=".66667" fill="#fff"/>
   <path id="path591" d="m442.88 239.3c0 1.1094-0.89934 2.0087-2.0087 2.0087s-2.0087-0.89933-2.0087-2.0087 0.89933-2.0087 2.0087-2.0087 2.0087 0.89934 2.0087 2.0087z" fill-rule="evenodd" transform="translate(57.205 -24.978)" stroke="#000" stroke-width=".66667" fill="#fff"/>
   <path id="path592" d="m442.88 239.3c0 1.1094-0.89934 2.0087-2.0087 2.0087s-2.0087-0.89933-2.0087-2.0087 0.89933-2.0087 2.0087-2.0087 2.0087 0.89934 2.0087 2.0087z" fill-rule="evenodd" transform="translate(61.397 -22.358)" stroke="#000" stroke-width=".66667" fill="#fff"/>
   <path id="path605" d="m440.85 231.12c1.711 3.254 3.421 6.634 5.132 9.888h47.565c1.836-3.171 3.672-6.342 5.508-9.513-3.213-2.211-5.424-3.922-10.014-2.879-2.587-3.713-5.424-4.422-9.638-4.005-1.252-1.293-2.379-2.086-4.507-2.378-3.338 0.083-6.675 0.167-10.013 0.25-2.629 0.25-4.632 2.253-4.757 2.253-4.256-0.501-8.136-0.376-9.137 3.755-3.88-0.96-6.634 0.084-10.139 2.629z" fill-rule="evenodd" stroke="#ac0000" stroke-width="1.0667pt" fill="#e40000"/>
   <path id="path593" d="m442.88 239.3c0 1.1094-0.89934 2.0087-2.0087 2.0087s-2.0087-0.89933-2.0087-2.0087 0.89933-2.0087 2.0087-2.0087 2.0087 0.89934 2.0087 2.0087z" fill-rule="evenodd" transform="translate(63.144 -17.991)" stroke="#000" stroke-width=".66667" fill="#fff"/>
   <path id="path594" d="m442.88 239.3c0 1.1094-0.89934 2.0087-2.0087 2.0087s-2.0087-0.89933-2.0087-2.0087 0.89933-2.0087 2.0087-2.0087 2.0087 0.89934 2.0087 2.0087z" fill-rule="evenodd" transform="translate(63.493 -13.275)" stroke="#000" stroke-width=".66667" fill="#fff"/>
   <path id="path595" d="m442.88 239.3c0 1.1094-0.89934 2.0087-2.0087 2.0087s-2.0087-0.89933-2.0087-2.0087 0.89933-2.0087 2.0087-2.0087 2.0087 0.89934 2.0087 2.0087z" fill-rule="evenodd" transform="translate(62.008 -8.9082)" stroke="#000" stroke-width=".66667" fill="#fff"/>
   <path id="path596" d="m442.88 239.3c0 1.1094-0.89934 2.0087-2.0087 2.0087s-2.0087-0.89933-2.0087-2.0087 0.89933-2.0087 2.0087-2.0087 2.0087 0.89934 2.0087 2.0087z" fill-rule="evenodd" transform="translate(60.174 -5.3275)" stroke="#000" stroke-width=".66667" fill="#fff"/>
   <path id="path597" d="m442.88 239.3c0 1.1094-0.89934 2.0087-2.0087 2.0087s-2.0087-0.89933-2.0087-2.0087 0.89933-2.0087 2.0087-2.0087 2.0087 0.89934 2.0087 2.0087z" fill-rule="evenodd" transform="translate(57.991 -.78602)" stroke="#000" stroke-width=".66667" fill="#fff"/>
   <path id="path598" d="m442.88 239.3c0 1.1094-0.89934 2.0087-2.0087 2.0087s-2.0087-0.89933-2.0087-2.0087 0.89933-2.0087 2.0087-2.0087 2.0087 0.89934 2.0087 2.0087z" fill-rule="evenodd" transform="matrix(1.4783 0 0 1.4783 -181.95 -121)" stroke="#000" stroke-width=".45098" fill="#fff"/>
   <path id="path599" d="m442.88 239.3c0 1.1094-0.89934 2.0087-2.0087 2.0087s-2.0087-0.89933-2.0087-2.0087 0.89933-2.0087 2.0087-2.0087 2.0087 0.89934 2.0087 2.0087z" fill-rule="evenodd" transform="matrix(1.7826 0 0 1.7826 -316.13 -200.65)" stroke="#000" stroke-width=".37398" fill="#fff"/>
   <path id="path600" d="m442.88 239.3c0 1.1094-0.89934 2.0087-2.0087 2.0087s-2.0087-0.89933-2.0087-2.0087 0.89933-2.0087 2.0087-2.0087 2.0087 0.89934 2.0087 2.0087z" fill-rule="evenodd" transform="matrix(1.6087 0 0 1.6087 -239.63 -165.67)" stroke="#000" stroke-width=".41441" fill="#fff"/>
   <path id="path602" d="m468.51 205.52c0-0.556-0.017-2.5 0.022-2.578l-2.144-0.039 0.061-1.906 1.861-0.022 0.022-1.666h2.639v1.527h2.083l-0.043 2.028-2.162-0.022-0.017 2.717-2.322-0.039z" fill-rule="evenodd" stroke="#7d6c00" stroke-width=".66667" fill="#fd0"/>
   <path id="path603" d="m445.74 241.01c-4.257-7.218-10.512-17.03-6.635-21.279 5.376-6.089 17.982-0.584 26.035-4.131 0.584 6.885-1.335 18.275 1.753 20.654-0.96 0.834-1.92 1.669-2.879 2.503-1.753-2.253-5.054-5.272-9.137 0.125-2.337-2.043-4.993-1.684-6.244 1.033-1.19 0.16-1.121 0.636-2.893 1.095z" stroke="#fd0" stroke-width="2" fill="none"/>
   <path id="path604" d="m493.84 240.76c4.257-7.218 10.512-17.03 6.635-21.279-5.376-6.089-17.982-0.584-26.035-4.131-0.584 6.885 1.335 18.275-1.753 20.654 0.96 0.834 1.92 1.669 2.879 2.503 2.77-3.895 6.227-4.021 9.137 0.125 2.337-2.043 4.758-1.763 6.244 1.033 1.19 0.16 1.121 0.636 2.893 1.095z" stroke="#fd0" stroke-width="2" fill="none"/>
   <path id="path606" d="m445.61 246.39c17.107-1.752 32.962-1.127 47.566 0 0.626-1.794 1.251-3.589 1.877-5.383-16.606-3.004-28.08-3.379-49.818-0.375 0.125 1.919 0.25 3.839 0.375 5.758z" fill-rule="evenodd" stroke="#7d6c00" stroke-width="1.0667pt" fill="#fd0"/>
   <path id="path610" d="m467.69 337.79c0.123-0.858 0.245-1.658 0.368-2.516 1.701 0.458 2.999 0.281 4.412-0.241 0.49-0.736 0.981-1.471 1.471-2.207-0.368-0.429-0.735-0.857-1.103-1.286-0.97 0.209-1.766 1.11-2.39 1.896-0.977 0.046-1.839-0.426-2.758-0.61-0.306-1.287-0.613-2.573-0.919-3.86-0.912-1.078-2.804-1.002-2.39 0.919 0.061 0.49 0.123 0.981 0.184 1.471 0.368 0.919 0.505 2.184 1.103 2.872v1.508c0.674 0.685 1.348 1.369 2.022 2.054z" fill-rule="evenodd" fill="#c76e2e"/>
   <path id="path611" d="m468.42 326.81c-1.279 0.634-2.797-0.469-4.412-1.103-1.471-0.101-2.653 1.124-4.412 0.735 0.321-0.955 1.103-1.103 1.655-1.655-0.404-2.48 0.919-3.309 1.287-3.309 0.367 0 1.838 0.368 1.838 0.368 0.49 0.061 0.981 0.123 1.471 0.184 0.858 1.593 2.061 3.014 2.573 4.78z" fill-rule="evenodd" fill="#c76e2e"/>
   <path id="path613" d="m459.68 359.83c4.242-6.887 33.775-20.717 61.489-50.58-28.21 27.162-45.841 33.83-68.927 50.414 2.479 0.055 4.959 0.111 7.438 0.166z" fill-rule="evenodd" stroke="#e9bf00" stroke-width="1.0667pt" fill="#ffe100"/>
   <path id="path617" d="m500.28 328.07c0 1.1875-0.96267 2.1502-2.1502 2.1502s-2.1502-0.96268-2.1502-2.1502 0.96267-2.1502 2.1502-2.1502 2.1502 0.96268 2.1502 2.1502z" fill-rule="evenodd" stroke="#68300e" stroke-width=".66667" fill="#9d4916"/>
   <path id="path618" d="m520.92 306.71c0 1.3458-1.091 2.4369-2.4369 2.4369-1.3458 0-2.4368-1.091-2.4368-2.4369 0-1.3458 1.091-2.4369 2.4368-2.4369s2.4369 1.091 2.4369 2.4369z" fill-rule="evenodd" transform="translate(-3.7253e-7 .42999)" stroke="#68300e" stroke-width=".66667" fill="#9d4916"/>
   <path id="path619" d="m527.23 289.22c0 1.1875-0.96266 2.1502-2.1502 2.1502s-2.1502-0.96267-2.1502-2.1502 0.96267-2.1502 2.1502-2.1502 2.1502 0.96267 2.1502 2.1502z" fill-rule="evenodd" transform="translate(.57339 .14336)" stroke="#68300e" stroke-width=".66667" fill="#9d4916"/>
   <path id="path620" d="m521.06 266.29c0 1.1875-0.96269 2.1502-2.1502 2.1502s-2.1502-0.96268-2.1502-2.1502 0.96268-2.1502 2.1502-2.1502 2.1502 0.96268 2.1502 2.1502z" fill-rule="evenodd" stroke="#68300e" stroke-width=".66667" fill="#9d4916"/>
   <path id="path631" d="m446.68 301.9v-9.094l-0.925-0.77v-2.158l1.696-0.154 0.308-10.173-1.079-0.617-0.154-1.695s1.233 0.462 1.233 0.154 0.308-2.004 0.308-2.004-0.77-0.154-0.77-0.462 0.924-1.079 0.924-1.079-0.462-0.463-0.616-0.771-0.462-1.695-0.462-1.695l0.462-1.696-0.308-0.925-0.771-1.387 1.079-1.079s-0.308-1.387-0.308-1.695 0.77-1.541 0.924-1.696c0.155-0.154 1.388-1.849 1.388-1.849l2.62-0.617 3.083 0.463 1.695 1.079 0.308 2.774s-0.308 1.695-0.462 1.695-1.387 0.617-1.387 0.617-1.542 0.154-1.696 0 0.463 1.85 0.463 1.85v1.849l-0.154 2.312s0 1.079-0.155 1.233c-0.154 0.154-0.462 0.617-0.462 0.617l-0.154 2.312 2.466 0.616-0.154 1.388-1.696 0.154 0.309 9.402 2.466 0.462v2.621l-1.079 0.616-0.308 9.402h-8.632z" fill-rule="evenodd" stroke="#a9a9a9" stroke-width=".66667" fill="#fff"/>
   <path id="path632" d="m484.14 302.06v-9.094l-0.925-0.77v-2.158l1.696-0.154 0.308-10.173-1.079-0.617-0.154-1.695s1.233 0.462 1.233 0.154 0.308-2.004 0.308-2.004-0.77-0.154-0.77-0.462 0.924-1.079 0.924-1.079-0.462-0.463-0.616-0.771-0.462-1.695-0.462-1.695l0.462-1.696-0.308-0.925-0.771-1.387 1.079-1.079s-0.308-1.387-0.308-1.695 0.77-1.541 0.924-1.696c0.155-0.154 1.388-1.849 1.388-1.849l2.62-0.617 3.083 0.463 1.695 1.079 0.308 2.774s-0.308 1.695-0.462 1.695-1.387 0.617-1.387 0.617-1.542 0.154-1.696 0 0.463 1.85 0.463 1.85v1.849l-0.154 2.312s0 1.079-0.155 1.233c-0.154 0.154-0.462 0.617-0.462 0.617l-0.154 2.312 2.466 0.616-0.154 1.388-1.696 0.154 0.309 9.402 2.466 0.462v2.621l-1.079 0.616-0.308 9.402h-8.632z" fill-rule="evenodd" stroke="#a9a9a9" stroke-width=".66667" fill="#fff"/>
   <path id="path633" d="m465.18 302.37v-9.094l-0.925-0.77v-2.158l1.696-0.154 0.308-10.173-1.079-0.617-0.154-1.695s1.233 0.462 1.233 0.154 0.308-2.004 0.308-2.004-0.77-0.154-0.77-0.462 0.924-1.079 0.924-1.079-0.462-0.463-0.616-0.771-0.462-1.695-0.462-1.695l0.462-1.696-0.308-0.925-0.771-1.387 1.079-1.079s-0.308-1.387-0.308-1.695 0.77-1.541 0.924-1.696c0.155-0.154 1.388-1.849 1.388-1.849l2.62-0.617 3.083 0.463 1.695 1.079 0.308 2.774s-0.308 1.695-0.462 1.695-1.387 0.617-1.387 0.617-1.542 0.154-1.696 0 0.463 1.85 0.463 1.85v1.849l-0.154 2.312s0 1.079-0.155 1.233c-0.154 0.154-0.462 0.617-0.462 0.617l-0.154 2.312 2.466 0.616-0.154 1.388-1.696 0.154 0.309 9.402 2.466 0.462v2.621l-1.079 0.616-0.308 9.402h-8.632z" fill-rule="evenodd" stroke="#a9a9a9" stroke-width=".66667" fill="#fff"/>
   <path id="path624" fill-rule="evenodd" stroke-width="1pt" d="m448.96 301.84v-7.167h4.014v7.454l-4.014-0.287z"/>
   <path id="path625" fill-rule="evenodd" stroke-width="1pt" d="m467.88 302.41 0.143-7.311h3.584v7.167l-3.727 0.144z"/>
   <path id="path626" fill-rule="evenodd" stroke-width="1pt" d="m486.52 302.27-0.287-6.88 3.871-0.144v7.168l-3.584-0.144z"/>
   <rect id="rect627" fill-rule="evenodd" height="3.727" width="2.2935" y="280.62" x="449.96" stroke-width="1pt"/>
   <rect id="rect628" fill-rule="evenodd" height="3.5836" width="3.1536" y="280.77" x="468.17" stroke-width="1pt"/>
   <rect id="rect629" fill-rule="evenodd" height="3.4403" width="2.7236" y="281.05" x="486.8" stroke-width="1pt"/>
   <path id="path644" d="m451.15 264.3c2.466 2.774 2.62 2.774 2.62 2.774" stroke="#a8a8a8" stroke-width=".66667" fill="none"/>
   <path id="path645" d="m469.49 264.3c0.462 0.924 1.233 2.928 2.158 3.082" stroke="#a8a8a8" stroke-width=".66667" fill="none"/>
   <path id="path646" d="m489.22 264.76s0.771 2.158 1.85 2.466" stroke="#a8a8a8" stroke-width=".66667" fill="none"/>
   <path id="path656" d="m448.53 256.53c7.211-2.331-1.685-6.993-3.162 0-2.333 0.377-2.635 2.108-7.678 1.356-12.195 19.873-3.162 51.941 32.52 85.139-63.911-54.388-37.938-94.617-20.24-93.1 9.626 0.658 4.77 12.665-1.44 6.605z" fill-rule="evenodd" fill="#b97700"/>
   <path id="path658" d="m450.54 246.34s5.872 1.581 5.872 4.065" stroke="#7d6c00" stroke-width="1.0667pt" fill="none"/>
   <path id="path659" d="m456.41 245.89s4.065 1.806 4.968 3.387" stroke="#7d6c00" stroke-width="1.0667pt" fill="none"/>
   <path id="path660" d="m488.48 246.57s-5.195 0.678-6.324 2.258" stroke="#7d6c00" stroke-width="1.0667pt" fill="none"/>
   <path id="path661" d="m480.57 247.02s-2.935 2.484-2.71 3.161" stroke="#7d6c00" stroke-width="1.0667pt" fill="none"/>
   <path id="path662" d="m479.9 257.86c-0.452-0.226-2.484-2.936-2.033-6.324" stroke="#7d6c00" stroke-width="1.0667pt" fill="none"/>
   <path id="path663" d="m460.02 256.06s1.355-1.581 1.355-4.517" stroke="#7d6c00" stroke-width="1.0667pt" fill="none"/>
   <path id="path664" d="m469.51 250.41 0.226 6.549" stroke="#7d6c00" stroke-width="1.0667pt" fill="none"/>
   <path id="path665" d="m475.38 256.06c0-0.452 1.807-4.742-0.226-6.775" stroke="#7d6c00" stroke-width="1.0667pt" fill="none"/>
   <path id="path666" d="m462.96 248.38s-1.581 4.291-0.451 7.904" stroke="#7d6c00" stroke-width="1.0667pt" fill="none"/>
   <path id="path667" d="m474.48 252.22s-2.484 0.677-3.614 1.807" stroke="#7d6c00" stroke-width="1.0667pt" fill="none"/>
   <path id="path668" d="m463.86 252.89c0-0.225 2.71-0.677 3.613 0.904" stroke="#7d6c00" stroke-width="1.0667pt" fill="none"/>
   <path id="path627" d="m459.59 321.27c0.115 0.058 2.249-0.404 2.249-1.442 1.096-0.692 0.288-2.653 0.288-2.653-0.673-0.135-1.345-0.269-2.018-0.404l-2.769-3.114c-0.134-0.961 0.193-1.864-0.403-2.883-1.903 0.5-2.999 2.095-3.634 3.921 0.462 0.577 0.52 1.211 1.385 1.73 0.903 0.154 1.518-0.384 2.364-0.23 0.442 0.769 0.307 1.423 0.461 2.134 1.154 0.807 1.385 1.961 2.077 2.941z" fill-rule="evenodd" fill="#c76e2e"/>
   <path id="path628" d="m457.11 307.95v-3.691c-0.884-0.039-1.769-0.077-2.653-0.116-0.327 0.558-0.942 0.827-1.327 1.327-0.615 0.308-1.23 0.615-1.845 0.923 0.769 0.923 1.711 1.442 2.307 1.903 1.346 0.404 2.461 0.404 3.518-0.346z" fill-rule="evenodd" fill="#c76e2e"/>
   <path id="path629" d="m448.8 313.43c-0.481-0.808-0.961-1.615-1.442-2.423 0.884-0.288 1.999-0.173 2.826 0.173 0 0 0.635 1.5 0.173 2.076-0.231 0.519-1.615 0.289-1.557 0.174z" fill-rule="evenodd" fill="#c76e2e"/>
   <path id="path634" d="m470.72 315.91c0.769-0.384 1.48-1.057 1.615-2.018-0.884-1.019-1.769-2.038-2.653-3.057-0.807-0.019-1.615-0.038-2.422-0.057-0.557-0.577-1.461-0.692-2.191-0.692 0 0 0.75 1.153 1.73 1.384 0.692 1.556 3.691 4.44 3.921 4.44z" fill-rule="evenodd" fill="#c76e2e"/>
   <path id="path635" d="m473.32 316.25c0-0.057 2.364-0.865 3.633-0.749-0.115-0.981 1.788-3.23 1.788-3.23l3.345 4.383c-0.615 0.519-1.692 0.346-2.538 0.519 0 0-1.615 1.557-1.788 1.615s-3.114 0.749-4.556-0.115c-0.634-1.211 0.173-2.596 0.116-2.423z" fill-rule="evenodd" fill="#c76e2e"/>
   <path id="path636" d="m475.22 308.58c0.404-1.403 0.519-2.807 0-4.556 0 0-3.807-0.058-3.807 0 0 0.057-2.537 1.153-2.537 1.211s0.808 2.48 1.788 2.249c0.442 1.288 1.749 0.961 2.364 1.442 0.731-0.115 1.461-0.231 2.192-0.346z" fill-rule="evenodd" fill="#c76e2e"/>
   <path id="path637" d="m490.16 304.72c-0.519 1.596-0.807 3.307-0.058 4.845 0.692 0.115 1.5 0.576 2.134 0.461 1.019-1.846 2.038-3.691 3.057-5.537-2.115-0.673-3.826-0.596-5.133 0.231z" fill-rule="evenodd" fill="#c76e2e"/>
   <path id="path742" d="m491.1 256.03c-7.211-2.331 1.685-6.993 3.162 0 2.333 0.377 2.635 2.108 7.678 1.356 12.195 19.873 3.162 51.941-32.52 85.139 63.911-54.388 37.938-94.617 20.24-93.1-9.626 0.658-4.77 12.665 1.44 6.605z" fill-rule="evenodd" fill="#b97700"/>
   <path id="path638" d="m491.83 310.95c-0.115 0-1.845 1.268-1.845 1.268-0.827 0.327-1.653 0.654-2.48 0.981-0.884 0.019-1.769 0.038-2.653 0.057-0.192-0.615-0.385-1.23-0.577-1.845l2.019-1.788c-1.711-0.25-3.422 0.423-4.787 1.673 0 0 0 2.018 1.154 2.999 0.692 0.864 2.71 2.422 2.71 2.422 1.269 0.25 2.48 0.038 3.287-0.635 1.057-1.711 2.115-3.421 3.172-5.132z" fill-rule="evenodd" fill="#c76e2e"/>
   <path id="path639" d="m477.87 329.06c0.866 0.231 6.806-7.67 6.806-7.67-0.519-1.48-1.673-2.557-2.942-3.23 0 0-2.884 3.402-2.941 4.556-0.461 1.038-1.787 5.017-1.211 5.537-0.058 0.115-0.288 1.729 0.288 0.807z" fill-rule="evenodd" fill="#c76e2e"/>
   <path id="path745" stroke-linejoin="round" d="m439.02 330.6c-8.895-7.737-20.897-12.002-37.651-6.214 4.508 1.95 9.382 2.62 13.525 4.752 8.042 0.487 16.084 0.975 24.126 1.462z" fill-rule="evenodd" stroke="#004100" stroke-width="1.0667pt" fill="#006800"/>
   <path id="path839" d="m413.25 325.11c17.546 0.365 22.664 4.751 21.75 4.02" stroke="#00a400" stroke-linecap="round" stroke-width="1.3333" fill="none"/>
   <path id="path744" stroke-linejoin="round" d="m439.38 331.51c-5.24 1.035-12.49 6.096-14.622 5.848-5.727-0.666-11.079-2.987-16.632-4.752-2.307-0.733-4.631 0-6.946 0 19.679-9.321 26.381-8.042 38.2-1.096z" fill-rule="evenodd" stroke="#004100" stroke-width="1.3333" fill="#006800"/>
   <path id="path746" stroke-linejoin="round" d="m426.41 317.8s-6.579 0.913-9.504 1.096c-2.925-0.182-7.177-2.907-11.88-7.859-2.455-2.689-8.042-2.376-8.042-2.376 12.368-2.62 21.993-0.122 29.426 9.139z" fill-rule="evenodd" stroke="#004100" stroke-width="1.0667pt" fill="#006800"/>
   <path id="path747" stroke-linejoin="round" d="m417.45 305.01c-8.957-0.549-20.106-8.59-22.664-18.094-0.001 0.121 3.289 2.071 2.741 2.559 14.683 3.716 15.658 6.701 19.923 15.535z" fill-rule="evenodd" stroke="#004100" stroke-width="1.0667pt" fill="#006800"/>
   <path id="path748" stroke-linejoin="round" d="m432.44 320.36c1.279-8.103 1.645-13.464-2.193-18.277-3.168-3.656-3.96-5.849-6.214-10.967-0.67 10.662-2.986 19.496 8.407 29.244z" fill-rule="evenodd" stroke="#004100" stroke-width="1.0667pt" fill="#006800"/>
   <path id="path749" stroke-linejoin="round" d="m418.36 297.88c6.64-9.687 7.798-16.998 6.762-28.513-0.183 0.914-2.376 6.58-2.558 6.58-9.87 6.214-5.483 15.902-4.204 21.933z" fill-rule="evenodd" stroke="#004100" stroke-width="1.0667pt" fill="#006800"/>
   <path id="path752" stroke-linejoin="round" d="m412.52 251.09c6.64 9.687 5.605 18.826 4.569 30.341-0.183-0.914-2.376-6.58-2.558-6.58-9.87-6.214-3.29-17.73-2.011-23.761z" fill-rule="evenodd" stroke="#004100" stroke-width="1.0667pt" fill="#006800"/>
   <path id="path755" stroke-linejoin="round" d="m418 266.08c16.084-8.103 9.869-18.399 12.794-26.319-11.149 8.286-12.611 17.119-12.794 26.319z" fill-rule="evenodd" stroke="#004100" stroke-width="1.0667pt" fill="#006800"/>
   <path id="path848" d="m420.19 264.07c2.011-5.666 6.032-15.353 6.397-15.353" stroke="#00a400" stroke-linecap="round" stroke-width="1.3333" fill="none"/>
   <path id="path846" d="m415.44 275.95c-0.365-4.022-2.375-14.806-2.558-15.902" stroke="#00a400" stroke-linecap="round" stroke-width="1.3333" fill="none"/>
   <path id="path750" stroke-linejoin="round" d="m416.17 294.04c-8.957-0.549-18.644-12.794-21.202-22.298-0.001 0.121 3.289 2.071 2.741 2.559 12.855 5.726 14.196 10.905 18.461 19.739z" fill-rule="evenodd" stroke="#004100" stroke-width="1.0667pt" fill="#006800"/>
   <path id="path751" stroke-linejoin="round" d="m413.51 285.63c-6.64-9.687-7.798-16.998-6.762-28.513 0.183 0.914 2.376 6.58 2.558 6.58 9.87 6.214 5.483 15.902 4.204 21.933z" fill-rule="evenodd" stroke="#004100" stroke-width="1.0667pt" fill="#006800"/>
   <path id="path753" stroke-linejoin="round" d="m419.46 268.64c16.632-7.372 11.514-15.109 16.449-23.212-11.149 8.286-16.266 14.012-16.449 23.212z" fill-rule="evenodd" stroke="#004100" stroke-width="1.0667pt" fill="#006800"/>
   <path id="path847" d="m420.19 266.99c6.763-6.763 9.139-12.429 9.139-12.429" stroke="#00a400" stroke-linecap="round" stroke-width="1.3333" fill="none"/>
   <g id="g768" fill-rule="evenodd">
    <path id="path612" d="m479.36 359.99c2.7 0.055 5.399 0.11 8.099 0.165-26.888-25.18-78.405-36.144-71.242-82.482-7.383 50.25 42.095 54.878 63.143 82.317z" stroke="#e9bf00" stroke-width="1.0667pt" fill="#ffe100"/>
    <path id="path601" d="m420.44 267.72c0 1.425-1.1552 2.5802-2.5802 2.5802s-2.5802-1.1552-2.5802-2.5802 1.1552-2.5802 2.5802-2.5802 2.5802 1.1552 2.5802 2.5802z" stroke="#68300e" stroke-width=".66667" fill="#9d4916"/>
    <path id="path607" d="m418.86 281.91c0 1.3458-1.091 2.4369-2.4369 2.4369-1.3458 0-2.4369-1.091-2.4369-2.4369 0-1.3458 1.091-2.4369 2.4369-2.4369 1.3458 0 2.4369 1.091 2.4369 2.4369z" stroke="#68300e" stroke-width=".66667" fill="#9d4916"/>
    <path id="path614" d="m421.15 302.13c0 1.1875-0.96267 2.1502-2.1502 2.1502s-2.1502-0.96268-2.1502-2.1502 0.96267-2.1502 2.1502-2.1502 2.1502 0.96268 2.1502 2.1502z" stroke="#68300e" stroke-width=".66667" fill="#9d4916"/>
    <path id="path615" d="m440.07 324.49c0 1.1875-0.96268 2.1502-2.1502 2.1502s-2.1502-0.96267-2.1502-2.1502 0.96268-2.1502 2.1502-2.1502 2.1502 0.96267 2.1502 2.1502z" transform="translate(-.14336)" stroke="#68300e" stroke-width=".66667" fill="#9d4916"/>
    <path id="path616" d="m442.65 331.23c0 1.1875-0.96269 2.1502-2.1502 2.1502s-2.1502-0.96268-2.1502-2.1502 0.96269-2.1502 2.1502-2.1502c1.1876 0 2.1502 0.96269 2.1502 2.1502z" transform="translate(0 -.32612)" stroke="#68300e" stroke-width=".66667" fill="#9d4916"/>
   </g>
   <g id="g800">
    <g id="g674" fill-rule="evenodd" fill="#fff">
     <g id="g650" stroke="#000" stroke-width=".66667">
      <path id="path649" d="m452.13 349.59c-1.414-1.281-2.313-2.103-2.868-3.499-2.81-0.306-5.62-0.611-8.431-0.917-0.038 1.606-0.076 3.211-0.115 4.817 3.805-0.134 7.61-0.267 11.414-0.401z"/>
      <path id="path640" stroke-linejoin="round" d="m390.36 343.91c4.897 0.904 12.281-0.452 14.692 2.712 2.895 3.281-9.061 8.328-7.349 11.166 3.698 3.913 7.504 2.3 11.643 0.136 0.975-2.115 1.728-5.886 2.261-7.007-1.507-3.466-5.555-5.164-4.521-10.398 6.827-2.551 19.95-2.34 21.363-1.356 1.109 2.175 0.112 3.166 0.338 4.899-1.13 2.185-4.039 5.889-4.045 7.849 7.162 2.523 9.05-0.389 15.493-0.218 7.549 0.093 12.142 2.12 13.781-0.881-1.123-2.59-8.047-0.483-10.675-2.147-1.314-0.445-2.163-1.501-3.299-2.666s-4.329-1.224-4.807-4.092c1.336-6.132 10.185-5.195 11.632-6.134 7.685 0.527 15.371 1.055 23.056 1.582 4.177-0.118 6.539 7.398 0.899 9.66-5.64 2.261-22.321-3.355-29.557 0.505-0.374-1.574-5.573-3.955-5.948-4.03-2.215 0.663-6.532 0.42-6.532 0.42-1.055 1.959-2.259 3.393-3.314 5.352-4.788-2.099-9.314 1.63-14.543 0.525 0 0-7.911 0.904-8.137 0.904s-5.198-0.452-5.198-0.452c-2.637 0.753-5.274 1.507-7.911 2.26 1.883-1.658 3.767-3.315 5.65-4.973-1.657-1.205-3.315-2.411-4.972-3.616z"/>
      <path id="path643" d="m389.61 342.71c0 1.2037-0.97577 2.1795-2.1794 2.1795-1.2037 0-2.1794-0.97578-2.1794-2.1795s0.97577-2.1795 2.1794-2.1795c1.2037 0 2.1794 0.97579 2.1794 2.1795z" transform="translate(.40150 .22942)"/>
      <path id="path647" d="m389.44 353.72c0 1.2037-0.97577 2.1794-2.1795 2.1794s-2.1794-0.97577-2.1794-2.1794c0-1.2037 0.97577-2.1794 2.1794-2.1794 1.2037 0 2.1795 0.97577 2.1795 2.1794z"/>
     </g>
     <g id="g655" transform="matrix(-1 0 0 1 939.11 .039062)" stroke="#000" stroke-width=".66667">
      <path id="path669" d="m452.13 349.59c-1.414-1.281-2.313-2.103-2.868-3.499-2.81-0.306-5.62-0.611-8.431-0.917-0.038 1.606-0.076 3.211-0.115 4.817 3.805-0.134 7.61-0.267 11.414-0.401z"/>
      <path id="path670" stroke-linejoin="round" d="m390.36 343.91c4.897 0.904 12.281-0.452 14.692 2.712 2.895 3.281-9.061 8.328-7.349 11.166 3.698 3.913 7.504 2.3 11.643 0.136 0.975-2.115 1.728-5.886 2.261-7.007-1.507-3.466-5.555-5.164-4.521-10.398 6.827-2.551 19.95-2.34 21.363-1.356 1.109 2.175 0.112 3.166 0.338 4.899-1.13 2.185-4.039 5.889-4.045 7.849 7.162 2.523 9.05-0.389 15.493-0.218 7.549 0.093 12.142 2.12 13.781-0.881-1.123-2.59-8.047-0.483-10.675-2.147-1.314-0.445-2.163-1.501-3.299-2.666s-4.329-1.224-4.807-4.092c1.336-6.132 10.185-5.195 11.632-6.134 7.685 0.527 15.371 1.055 23.056 1.582 4.177-0.118 6.539 7.398 0.899 9.66-5.64 2.261-22.321-3.355-29.557 0.505-0.374-1.574-5.573-3.955-5.948-4.03-2.215 0.663-6.532 0.42-6.532 0.42-1.055 1.959-2.259 3.393-3.314 5.352-4.788-2.099-9.314 1.63-14.543 0.525 0 0-7.911 0.904-8.137 0.904s-5.198-0.452-5.198-0.452c-2.637 0.753-5.274 1.507-7.911 2.26 1.883-1.658 3.767-3.315 5.65-4.973-1.657-1.205-3.315-2.411-4.972-3.616z"/>
      <path id="path671" d="m389.61 342.71c0 1.2037-0.97577 2.1795-2.1794 2.1795-1.2037 0-2.1794-0.97578-2.1794-2.1795s0.97577-2.1795 2.1794-2.1795c1.2037 0 2.1794 0.97579 2.1794 2.1795z" transform="translate(.40150 .22942)"/>
      <path id="path672" d="m389.44 353.72c0 1.2037-0.97577 2.1794-2.1795 2.1794s-2.1794-0.97577-2.1794-2.1794c0-1.2037 0.97577-2.1794 2.1794-2.1794 1.2037 0 2.1795 0.97577 2.1795 2.1794z"/>
     </g>
     <path id="path673" d="m469.41 337.77c-1.94-0.364-2.63-0.26-3.945-0.39-1.029 3.164-2.057 6.328-3.086 9.492 4.766 0.43 9.179 0.43 9.179 0.391-2.891-0.586-2.187-9.454-2.148-9.493z"/>
    </g>
    <g id="g775" font-size="9px" font-family="Trebuchet MS" font-weight="bold" fill="#000000">
     <text id="text692" line-height="100%" y="344.27441" x="448.60489">
      <tspan id="tspan701" y="344.27441" x="448.60489">L</tspan>
     </text>
     <text id="text703" line-height="100%" y="344.62161" x="453.63956">
      <tspan id="tspan706" y="344.62161" x="453.63956">I</tspan>
     </text>
     <text id="text708" line-height="100%" y="345.0556" x="456.67767">
      <tspan id="tspan715" y="345.0556" x="456.67767">B</tspan>
     </text>
     <text id="text717" line-height="100%" y="345.48969" x="462.58041">
      <tspan id="tspan720" y="345.48969" x="462.58041">E</tspan>
     </text>
     <text id="text722" line-height="100%" y="345.57648" x="468.30945">
      <tspan id="tspan725" y="345.57648" x="468.30945">R</tspan>
     </text>
     <text id="text727" line-height="100%" y="345.40283" x="473.95172">
      <tspan id="tspan730" y="345.40283" x="473.95172">T</tspan>
     </text>
     <text id="text732" line-height="100%" y="344.53479" x="479.24683">
      <tspan id="tspan735" y="344.53479" x="479.24683">A</tspan>
     </text>
     <text id="text737" line-height="100%" y="344.27435" x="485.49677">
      <tspan id="tspan740" y="344.27435" x="485.49677">S</tspan>
     </text>
    </g>
   </g>
   <path id="path838" d="m418 331.33c6.032 0.731 14.44 0.182 18.095-0.001" stroke="#00a400" stroke-linecap="round" stroke-width="1.3333" fill="none"/>
   <path id="path840" d="m408.86 310.67c5.118 4.021 16.267 6.396 16.084 6.396" stroke="#00a400" stroke-linecap="round" stroke-width="1.3333" fill="none"/>
   <path id="path841" d="m431.34 318.17c-1.645-8.407-3.472-10.418-4.934-15.719" stroke="#00a400" stroke-linecap="round" stroke-width="1.3333" fill="none"/>
   <path id="path842" d="m400.27 292.94c8.591 3.838 9.87 6.396 15.353 10.234" stroke="#00a400" stroke-linecap="round" stroke-width="1.3333" fill="none"/>
   <path id="path843" d="m418.73 294.77c0.732-10.419 2.194-13.161 4.753-15.537" stroke="#00a400" stroke-linecap="round" stroke-width="1.3333" fill="none"/>
   <path id="path844" d="m400.27 277.96c3.108 3.473 13.343 14.256 13.343 14.256" stroke="#00a400" stroke-linecap="round" stroke-width="1.3333" fill="none"/>
   <path id="path845" d="m409.41 268.45c3.839 2.741 3.839 12.61 3.839 12.61" stroke="#00a400" stroke-linecap="round" stroke-width="1.3333" fill="none"/>
  </g>
 </g>
</svg>
