<?xml version="1.0" encoding="UTF-8" standalone="no"?>
<svg id="svg2" xmlns:rdf="http://www.w3.org/1999/02/22-rdf-syntax-ns#" xmlns="http://www.w3.org/2000/svg" height="480" width="640" version="1.0" xmlns:cc="http://creativecommons.org/ns#" xmlns:dc="http://purl.org/dc/elements/1.1/">
 <metadata id="metadata183">
  <rdf:RDF>
   <cc:Work rdf:about="">
    <dc:format>image/svg+xml</dc:format>
    <dc:type rdf:resource="http://purl.org/dc/dcmitype/StillImage"/>
   </cc:Work>
  </rdf:RDF>
 </metadata>
 <g id="flag">
  <path id="path14" d="m640 480v-480h-640v480h640z" fill="#006"/>
  <g id="g1690" transform="matrix(.74736 0 0 .92867 0 .00020960)">
   <rect id="rect3207" fill-rule="evenodd" height="250" width="500" y="-1.1369e-13" x="0" fill="#006"/>
   <g id="g878" stroke-width="1pt" transform="matrix(8.3333 0 0 8.3333 0 -.00022570)">
    <path id="path879" d="m0 0v3.3541l53.292 26.646h6.708v-3.354l-53.292-26.646h-6.708zm60 0v3.354l-53.292 26.646h-6.708v-3.354l53.292-26.646h6.708z" fill="#fff"/>
    <path id="path880" d="m25 0v30h10v-30h-10zm-25 10v10h60v-10h-60z" fill="#fff"/>
    <path id="path881" d="m0 12v6h60v-6h-60zm27-12v30h6v-30h-6z" fill="#c00"/>
    <path id="path882" d="m0 30 20-10h4.472l-20 10h-4.472zm0-30 20 10h-4.472l-15.528-7.7639v-2.2361zm35.528 10 20-10h4.472l-20 10h-4.472zm24.472 20-20-10h4.472l15.528 7.764v2.236z" fill="#c00"/>
   </g>
  </g>
  <g id="g2827" transform="matrix(.93820 0 0 .93820 -334.01 51.775)">
   <path id="path1392" d="m1008.9 171.25v85.175c0 69.928-27.467 133.94-108.95 172.85-81.45-38.91-108.92-102.92-108.92-172.85v-85.175h217.91z" fill-opacity=".99608" fill="#fff"/>
   <path id="path18" d="m1001.6 179.93v79.444c0 65.223-25.619 124.93-101.62 161.22-76.004-36.291-101.62-95.996-101.62-161.22v-79.444h203.25z" fill-opacity=".99608" fill="#fdc300"/>
   <g id="g20" stroke="#000" stroke-width=".091102" transform="matrix(4.1664 0 0 4.1669 -5.4589 -5.4597)">
    <path id="path22" d="m205.96 52.847c-0.353-0.2648-0.736-0.4266-1.265-0.4413 0.117-1.2946-0.824-1.8536-1.501-2.089-0.676-0.2354-0.912-0.5002-1.029-1.0298-0.118-0.5296-0.471-0.8532-1.089-1.0297-0.618-0.1766-1.148-0.7944-1.383-1.0887-0.235-0.2942-0.324-0.2354-0.5 0.2648-0.177 0.5002-0.883 1.4417-0.236 1.4712-0.47 0.3824-0.735 0.8238-0.441 1.4122-0.324 0.2648-0.559 0.6473-0.118 0.7944 0.442 0.1471 0.559 0.2648 0.589 0.3825-0.397 0-0.5 0.7944 0.441 0.9709-0.206 0.0294-0.294 0.6767 0.089 0.6767-0.53 0-0.972 0.7945-1.648 0.7945-0.677 0-1.03 0.147-1.059 0.4413-0.03 0.2942-0.383 0.6472-0.559 0.7944 0.5 0.0588 0.823 0 1.088-0.206s0.706-0.2648 1.001-0.0294c0.294 0.2354 0.912 0.353 1.206 0.2942-0.647 0.4414-1.118 1.0298-1.177 1.5888-0.059 0.5591-0.441 1.2063-0.883 1.3829-0.441 0.1765-1.029 0.6473-1.235 1.2063 0.559 1.3828 1.352 1.7244 2.147 2.0889 1.413 0.6474 2.295 1.1181 2.884 1.7654 0.588 0.6473 0.824 0.1765 1.706 1.2945 0.883 1.1181 1.707 3.2365 2.589 3.5896 0.883 0.353 2.001 0.1177 2.648-1.0004 0.648-1.118 1.06-12.416-2.265-14.299z" fill="#ff9e3d"/>
    <path id="path24" d="m207.46 48.139c-0.824 0.8827-1.884 1.7654-1.707 3.3542s0.353 4.178-1.118 5.0606c-1.471 0.8827-2.177 3.1188-0.412 4.4133 1.765 1.2947 1.824 2.8835 2.118 4.3546 0.295 1.4711 1.06 2.6479 2.237 1.6476 1.176 0.1765 1.824-0.2942 1.824-1.2357s0.059-1.4711 0.941-1.7654c0.883-0.2942 1.118-0.5885 1.53-1.3828 0.412-0.7944 0.647-1.1475 0.412-1.6183-0.235-0.4707-0.324-1.4416-0.147-2.1478 0.177-0.7061-0.235-1.0886-0.471-1.5299-0.235-0.4413-0.323-0.8238-0.206-1.4123 0.118-0.5885-0.176-0.9709-0.588-1.2652-0.412-0.2942-0.589-0.5884-0.5-1.0592 0.088-0.4707-0.295-0.7649-0.736-1.118s-0.765-0.8238-0.765-1.5299c0-0.7062-1.353-2.3539-2.412-2.7658z" fill="#ff927f"/>
    <path id="path26" d="m207.79 67.352c1.971-0.5002 1.795-3.7366 1.501-5.09-0.295-1.3535-1.051-3.292-0.471-4.8253 0.824-2.1772-1.001-4.2368-0.53-5.0606 0.471-0.8239 0.412-1.2652 0.353-1.53-0.058-0.2648-0.5-0.4707-0.529 0.0883-0.03 0.559-0.177 0.7649-0.53 1.118s-0.265 1.118 0 1.9713c0.265 0.8532 0.824 2.1479-0.059 3.8543-0.882 1.7065-0.519 2.4669-0.176 3.2659 0.529 1.2357 1.795 5.5314 0.441 6.2081z" fill="#ff9ee1"/>
    <path id="path28" d="m198.96 48.904c0.221 0 0.648-0.0884 0.648 0.2059" fill="none"/>
    <path id="path30" d="m198.52 50.316c0.265-0.1913 0.736 0.0294 1.206-0.2501" fill="none"/>
    <path id="path32" d="m198.99 51.493c0.353 0 0.824-0.0147 1.265-0.3678" fill="none"/>
    <path id="path34" d="m199.43 52.464c0.324 0 0.927-0.2059 1.074-0.6325" fill="none"/>
    <path id="path36" d="m199.52 53.141c0.632-0.0294 1.471 0.206 1.588-0.0147" fill="none"/>
    <path id="path38" d="m199.55 55.23c0.441-0.4119 1.486-0.6914 1.721-1.118" fill="none"/>
    <path id="path40" d="m200.67 48.669c0.735 0.2355 0.431 0.6901 0.794 0.971 0.648 0.5002 0.059 1.0592 0.589 1.2063 0.529 0.1471 0.52 0.2365 0.382 0.8238-0.162 0.6915 0.5 0.7208 0.265 1.1769" fill="none"/>
    <path id="path42" d="m204.7 52.406c-0.294 0-1.162 0.0294-1.53 0.8091" fill="none"/>
    <path id="path44" d="m198.42 60.894c0.339 0.0589 0.508-0.1338 0.603-0.3236 0.103-0.206 0.147-0.3531 0.456-0.3678 0.309-0.0148 0.78-0.103 0.883-0.3384 0.103-0.2353 0.471-0.0147 0.78-0.6326 0.309-0.6178 0.515-1.3534 1.338-1.6182" fill="none"/>
   </g>
   <g id="g136" stroke="#000" stroke-width=".091102" transform="matrix(4.1664 0 0 4.1669 -5.4589 -5.4597)">
    <path id="path138" d="m221.76 73.75c0.333 0.4838-0.012 1.0068 0.553 1.216 0.662 0.245 0.084 1.1156 0.865 1.4224 0.692 0.2722 0.005 1.1045 0.753 1.4783 0.669 0.3347-0.112 1.1157 0.781 1.562 0.892 0.4462-0.168 1.4503 0.502 1.8408 0.669 0.3905-0.223 1.3946 0.558 1.7851 0.781 0.3904-0.335 1.1714 0.39 1.7293 0.725 0.5578-0.167 1.3945 0.558 1.8966s-0.445 1.1725 0.279 1.8967c0.558 0.5578-0.201 1.1041 0.223 1.9524 0.279 0.5578-0.279 2.7892-1.841 2.566-0.558 0.9484-2.733 1.7851-3.514 1.5062-0.781 0.5578-3.291 1.3388-4.575 0.1116-1.282 1.2272-3.793 0.4462-4.574-0.1116-0.781 0.2789-2.956-0.5578-3.514-1.5062-1.562 0.2232-2.12-2.0082-1.841-2.566 0.424-0.8483-0.335-1.3946 0.223-1.9524 0.724-0.7242-0.446-1.3946 0.279-1.8967s-0.167-1.3388 0.558-1.8966c0.725-0.5579-0.391-1.3389 0.39-1.7293 0.781-0.3905-0.111-1.3946 0.558-1.7851 0.67-0.3905-0.39-1.3946 0.502-1.8408 0.893-0.4463 0.112-1.2273 0.781-1.562 0.748-0.3738 0.061-1.2061 0.753-1.4783 0.781-0.3068 0.203-1.1774 0.865-1.4224 0.574-0.2125 0.208-0.7489 0.57-1.2391 1.661 0.6534 6.803 1.1223 8.918 0.0231z" fill="#00a728"/>
    <g id="g140" fill-opacity=".99608" fill="#fdc300">
     <path id="path142" d="m213.51 76.668c0.001 0.2505-0.005 0.5-0.237 0.8089-0.502 0.6694 0.223 1.0042-0.335 1.7293-0.557 0.7252 0.112 1.1715-0.502 1.7851-0.613 0.6136 0.112 1.1715-0.502 1.8409-0.613 0.6694 0.112 1.1156-0.502 1.7292-0.613 0.6137 0.112 1.2831-0.502 1.8966-0.613 0.6137 0.112 1.3946-0.558 2.1199-0.669 0.7251 0.112 1.2829-0.446 1.8408-0.558 0.5578-0.056 1.1156-0.446 1.5061 0.669-0.502 0.669-1.2829 1.171-1.6734 0.502-0.3906-0.167-0.9484 0.112-1.2273s0.056-1.4504 0.558-2.0082c0.502-0.5579 0.056-1.6735 0.502-2.064s0.111-1.5619 0.669-1.9524 0-1.3388 0.446-1.8409c0.447-0.502 0-1.283 0.447-1.8966 0.446-0.6136 0.02-1.1707 0.334-1.6735 0.14-0.2231 0.14-1.8408-0.209-0.9205z"/>
     <path id="path144" d="m215.12 77.365c-0.39 0.7252 0.279 0.8925-0.223 1.6177s0.279 1.283-0.279 2.0082 0.279 1.1156-0.223 1.8409c-0.502 0.7251 0.223 1.1156-0.223 1.6735-0.447 0.5578 0.334 1.1156-0.223 1.785-0.558 0.6695 0.223 1.1715-0.224 1.7851-0.446 0.6136 0.168 1.283-0.223 1.785-0.39 0.5021 0.279 1.2273-0.279 1.8967s0.112 1.1157-0.223 1.562c0.67-0.2232 0.419-1.1436 0.67-1.3388 0.251-0.1953-0.084-1.4783 0.306-1.813 0.391-0.3347-0.251-1.3672 0.112-1.813 0.614-0.753 0.084-1.2551 0.446-1.8408 0.363-0.5858-0.138-1.3377 0.14-1.7293 0.474-0.6694-0.21-1.2728 0.139-1.7572 0.502-0.6973-0.097-1.2715 0.251-1.7293 0.53-0.6973-0.056-1.3946 0.168-1.7572 0.223-0.3626 0.585-1.9245-0.112-2.1755z"/>
     <path id="path146" d="m217.29 77.974c-0.39 0.972 0.279 1.3608 0.056 2.1383-0.223 0.7776 0.279 1.3608-0.056 2.2031-0.334 0.8424 0.447 1.4903 0 2.5919-0.446 1.1016 0.288 1.3758 0 2.4623-0.334 1.2637 0.558 1.9331 0 2.8257-0.557 0.8925 0.639 1.188 0.056 2.1197-0.279 0.4463 0.028 1.5899 0.474 0.2232 0.447-1.3667-0.334-1.534 0.056-2.0919 0.391-0.5579-0.139-2.0361 0.028-2.8171 0.168-0.781-0.39-1.8409-0.028-2.6776 0.363-0.8367-0.558-1.7292-0.195-2.4545 0.363-0.7251-0.167-1.6177 0.167-2.2034 0.335-0.5857-0.251-1.3667-0.111-1.7014 0.139-0.3347-0.14-1.5712-0.447-0.6183z"/>
    </g>
    <path id="path148" d="m221.47 74.408c0-6.3035-0.892-8.479-4.184-8.479-3.291 0-4.183 2.1755-4.183 8.479h8.367z" fill="#ef072d"/>
    <g id="g150" fill="none">
     <path id="path152" d="m214.33 73.906c-0.614 0.6136 0.112 1.0599-0.502 1.785-0.614 0.7253-0.056 1.1157-0.558 1.7851s0.223 1.0042-0.335 1.7293c-0.557 0.7252 0.112 1.1715-0.502 1.7851-0.613 0.6136 0.112 1.1715-0.502 1.8409-0.613 0.6694 0.112 1.1156-0.502 1.7292-0.613 0.6137 0.112 1.2831-0.502 1.8966-0.613 0.6137 0.112 1.3946-0.558 2.1199-0.669 0.7251 0.112 1.2829-0.446 1.8408-0.558 0.5578-0.056 1.1156-0.446 1.5061-0.391 0.3905-0.446 0.9345-0.279 1.1715"/>
     <path id="path154" d="m215.5 74.129c-0.557 0.7252 0.279 1.0599-0.223 1.6735-0.502 0.6137 0.223 0.8368-0.167 1.562s0.279 0.8925-0.223 1.6177 0.279 1.283-0.279 2.0082 0.279 1.1156-0.223 1.8409c-0.502 0.7251 0.223 1.1156-0.223 1.6735-0.447 0.5578 0.334 1.1156-0.223 1.785-0.558 0.6695 0.223 1.1715-0.224 1.7851-0.446 0.6136 0.168 1.283-0.223 1.785-0.39 0.5021 0.279 1.2273-0.279 1.8967s0.112 1.1157-0.223 1.562c-0.335 0.4462-0.599 1.1017-0.279 1.283"/>
     <path id="path156" d="m217.29 74.799c-0.278 1.1663 0.391 2.2031 0 3.175-0.39 0.972 0.279 1.3608 0.056 2.1383-0.223 0.7776 0.279 1.3608-0.056 2.2031-0.334 0.8424 0.447 1.4903 0 2.5919-0.446 1.1016 0.288 1.3758 0 2.4623-0.334 1.2637 0.558 1.9331 0 2.8257-0.557 0.8925 0.503 1.1157 0.056 2.1197-0.446 1.0042 0.279 1.3946-0.056 2.3988"/>
     <path id="path158" d="m220.25 73.906c0.614 0.6136-0.112 1.0599 0.502 1.785 0.614 0.7253 0.056 1.1157 0.558 1.7851s-0.223 1.0042 0.335 1.7293c0.557 0.7252-0.112 1.1715 0.502 1.7851 0.613 0.6136-0.112 1.1715 0.502 1.8409 0.613 0.6694-0.112 1.1156 0.502 1.7292 0.613 0.6137-0.112 1.2831 0.502 1.8966 0.613 0.6137-0.112 1.3946 0.558 2.1199 0.669 0.7251-0.112 1.2829 0.446 1.8408 0.558 0.5578 0.056 1.1156 0.446 1.5061 0.391 0.3905 0.447 0.9345 0.279 1.1715"/>
     <path id="path160" d="m219.08 74.129c0.557 0.7252-0.279 1.0599 0.223 1.6735 0.502 0.6137-0.223 0.8368 0.167 1.562 0.391 0.7252-0.279 0.8925 0.223 1.6177s-0.279 1.283 0.279 2.0082-0.279 1.1156 0.223 1.8409c0.502 0.7251-0.223 1.1156 0.223 1.6735 0.447 0.5578-0.334 1.1156 0.224 1.785 0.557 0.6695-0.224 1.1715 0.223 1.7851 0.446 0.6136-0.168 1.283 0.223 1.785 0.39 0.5021-0.279 1.2273 0.279 1.8967s-0.112 1.1157 0.223 1.562c0.335 0.4462 0.6 1.1017 0.279 1.283"/>
    </g>
    <path id="path162" d="m213.11 74.408c0-6.3035 0.892-8.479 4.183-8.479-1.506 0-2.426 1.1713-2.677 1.9523s-0.112 0.7252 0.223 0.4184 0.167 0.3626-0.111 0.7252c-0.279 0.3626-0.558 1.3946-0.168 1.0599 0.391-0.3347 0.697 0.0558 0.279 0.6415s-0.781 1.9524-0.363 1.4783c0.419-0.4742 0.502 0.3068 0.252 0.6973-0.252 0.3905-0.224 0.7251 0 0.5578 0.223-0.1673 0.195 0.6415-0.028 0.9483h-1.59z"/>
    <path id="path164" d="m220.83 74.046c0-4.9368-0.613-6.4151-1.84-6.9171-0.695-0.2847-0.715-0.2231-0.383 0.2231s0.281 1.0878-0.026 0.6415c-0.306-0.4462-0.408-0.5299-0.536-0.3346-0.128 0.1952 0.357 1.1156 0.715 1.9524 0.288 0.673 0.102 1.004-0.332 0.3346s-0.434-0.063-0.053 0.5021c0.489 0.7252 0.474 2.9286 0.474 3.849l1.981-0.251z"/>
    <path id="path166" d="m217.29 75.329c1.311 0 2.746-0.2336 3.71-0.6079 1.144-0.4441 1.205-0.8343 0.809-1.3325-0.279-0.3507-0.893-0.1402-1.478 0.1169-0.586 0.2571-2.204 0.4208-3.041 0.4208-0.836 0-2.454-0.1637-3.04-0.4208-0.585-0.2571-1.199-0.4676-1.478-0.1169-0.396 0.4982-0.335 0.8884 0.809 1.3325 0.963 0.3743 2.399 0.6079 3.709 0.6079z" fill="#ef072d"/>
   </g>
   <g id="g1070" fill-rule="evenodd" fill="#b95a1e" transform="matrix(.89560 0 0 .89570 239.49 59.739)">
    <path id="path577" d="m779.41 912.6s-0.12 103.6 0 179.24c0.12 75.63 19.822 104.91 54.262 103.59 34.44-1.33 41.108-58.83 34.531-92.08-6.577-33.26-53.24-198.97-53.24-198.97l-35.553 8.222z" transform="matrix(.063084 -.040736 .038634 .066517 712.1 209.87)" stroke="#000" stroke-width="6.3772"/>
    <path id="path576" d="m779.41 912.6s-0.12 103.6 0 179.24c0.12 75.63 19.822 104.91 54.262 103.59 34.44-1.33 41.108-58.83 34.531-92.08-6.577-33.26-53.24-198.97-53.24-198.97l-35.553 8.222z" transform="matrix(.072361 -.016199 .015363 .076299 725.15 182.35)" stroke="#000" stroke-width="6.3772"/>
    <path id="path575" d="m779.41 912.6s-0.12 103.6 0 179.24c0.12 75.63 19.822 104.91 54.262 103.59 34.44-1.33 41.108-58.83 34.531-92.08-6.577-33.26-53.24-198.97-53.24-198.97l-35.553 8.222z" transform="matrix(.073974 0 0 .077999 736.23 168.42)" stroke="#000" stroke-width="6.3772"/>
    <path id="path574" d="m779.53 255.12c159.57-1.394 177.16-35.432 177.16-35.432s35.43-70.866 17.716-88.584c-17.717-17.716-194.88-17.716-194.88-17.716v141.73z" transform="matrix(.045906 0 0 .077999 758.11 219.55)" stroke="#000" stroke-width="8.0953"/>
    <path id="path570" d="m779.53 255.12c106.3 0 124.02-35.432 124.02-35.432s35.43-70.866 17.716-88.584c-17.717-17.716-141.73-17.716-141.73-17.716v141.73z" transform="matrix(.073974 0 0 .077999 736.23 214.02)" stroke="#000" stroke-width="6.3772"/>
    <path id="path569" d="m779.53 255.12c88.583 0 141.73-35.433 141.73-35.433s35.43-70.866 17.716-88.584c-17.72-17.72-159.45-17.71-159.45-17.71v141.73z" transform="matrix(.073974 0 0 .077999 736.23 208.49)" stroke="#000" stroke-width="6.3772"/>
    <path id="path554" d="m832.68 113.39s70.866-88.583 194.88-177.17c124.01-88.582 213.73-156.72 230.31-141.73 0 17.717-106.3 106.3-194.88 177.17-88.59 70.86-194.89 177.16-194.89 177.16l-35.433-35.433z" transform="matrix(.091804 0 0 .077999 721.87 168.58)" stroke="#000" stroke-width="5.7245"/>
    <path id="path557" d="m832.68 113.39s70.05-52.025 204.38-124.02c132.23-63.918 318.89-53.15 318.89-35.433-17.71 17.716-177.16 17.716-283.46 70.866-101.48 50.729-204.39 124.01-204.39 124.01l-35.433-35.433z" transform="matrix(.091804 0 0 .077999 722.63 174.11)" stroke="#000" stroke-width="5.7245"/>
    <path id="path558" d="m832.68 113.39s61.675-35.068 204.38-88.583c141.72-53.15 329.87-17.717 329.87 0-17.7 17.713-170.4 6.944-276.7 35.429-109.99 27.758-222.09 88.584-222.09 88.584l-35.433-35.433z" transform="matrix(.091804 0 0 .077999 722.7 183.63)" stroke="#000" stroke-width="5.7245"/>
    <path id="path559" d="m832.68 113.39s71.079-70.976 222.47-88.583c152.3-17.72 276.3 88.583 276.3 106.29-17.7 17.72-159.5-77.972-265.7-64.286-112.67 13.654-197.69 82.006-197.69 82.006l-35.433-35.433z" transform="matrix(.091804 0 0 .077999 723.32 193.29)" stroke="#000" stroke-width="5.7245"/>
    <path id="path568" d="m779.53 255.12c159.57-1.394 159.45-45.508 159.45-45.508s35.43-70.866 17.716-88.584c-17.717-17.716-177.16-7.64-177.16-7.64v141.73z" transform="matrix(.073974 0 0 .077999 736.23 201.59)" stroke="#000" stroke-width="6.3772"/>
    <path id="path567" d="m779.53 255.12c159.57-1.394 177.16-35.432 177.16-35.432s35.43-70.866 17.716-88.584c-17.717-17.716-194.88-17.716-194.88-17.716v141.73z" transform="matrix(.073974 0 0 .077999 736.23 196.06)" stroke="#000" stroke-width="6.3772"/>
    <path id="path565" d="m779.53 255.12c159.57-1.394 194.88-35.433 194.88-35.433s35.43-70.866 17.716-88.583c-17.717-17.716-212.6-17.716-212.6-17.716v141.73z" transform="matrix(.073974 0 0 .077999 736.23 189.15)" stroke="#000" stroke-width="6.3772"/>
    <path id="path566" d="m779.53 255.12c159.57-1.394 212.6-35.433 212.6-35.433s17.714-70.866 0-88.583c-17.717-17.716-212.6-17.716-212.6-17.716v141.73z" transform="matrix(.073974 0 0 .077999 736.23 182.24)" stroke="#000" stroke-width="6.3772"/>
    <path id="path560" d="m832.68 113.39s114.21-88.583 114.21-159.45c0-70.866-50.349-141.73-64.625-177.17 28.552 0 93.176 106.3 93.176 177.17 0 77.444-107.32 194.88-107.32 194.88l-35.433-35.433z" transform="matrix(.091804 0 0 .077999 720.08 162.89)" stroke="#000" stroke-width="5.7245"/>
    <path id="path561" d="m832.68 113.39s-14.276-53.15-14.276-159.45c0-124.02 63.001-202.89 85.654-230.32 5.898 27.422-57.102 124.02-57.102 230.32 0 77.444 21.157 194.88 21.157 194.88l-35.433-35.433z" transform="matrix(.091804 0 0 .077999 720.08 162.89)" stroke="#000" stroke-width="5.7245"/>
    <path id="path564" d="m779.53 255.12c159.57-1.394 212.6-35.433 212.6-35.433s0-70.866-17.716-88.583c-17.717-17.716-194.88-17.716-194.88-17.716v141.73z" transform="matrix(.073974 0 0 .077999 736.23 175.33)" stroke="#000" stroke-width="6.3772"/>
    <path id="path563" d="m779.53 255.12c159.57-1.394 194.88-35.433 194.88-35.433s0-70.866-17.716-88.583c-17.717-17.716-177.16-17.716-177.16-17.716v141.73z" transform="matrix(.073974 0 0 .077999 736.23 168.42)" stroke="#000" stroke-width="6.3772"/>
    <path id="path553" d="m318.9 1318.1c55.065-122.32 70.866-336.61 70.866-372.05 0-99.782-32.948-585.11-35.433-779.53s124.02-301.18 248.03-301.18c106.3 0 177.17 70.866 177.17 177.17h-53.15c0-70.866-53.15-124.02-124.02-124.02-106.3 0-187.99 83.739-194.88 248.03-7.605 189.89 21.316 682.94 17.717 814.96s-51.234 249.72-106.3 336.61z" transform="matrix(-.073974 0 0 .077999 851.56 168.42)" stroke="#fdc301" stroke-width="16.071"/>
    <path id="path578" d="m779.41 912.6s-0.12 103.6 0 179.24c0.12 75.63 19.822 104.91 54.262 103.59 34.44-1.33 41.108-58.83 34.531-92.08-6.577-33.26-53.24-198.97-53.24-198.97l-35.553 8.222z" transform="matrix(-.063084 -.040736 -.038634 .066517 875.69 209.87)" stroke="#000" stroke-width="6.3772"/>
    <path id="path562" d="m779.53 32.884c124.13 0.141 177.77 102.39 177.46 100.31l-35.734 33.347c-18.985 17.717-141.73 17.717-140.21 17.626l-1.52-151.29z" transform="matrix(.073974 0 0 .077999 736.23 168.42)" stroke="#000" stroke-width="6.3772"/>
    <path id="path579" d="m779.41 912.6s-0.12 103.6 0 179.24c0.12 75.63 19.822 104.91 54.262 103.59 34.44-1.33 41.108-58.83 34.531-92.08-6.577-33.26-53.24-198.97-53.24-198.97l-35.553 8.222z" transform="matrix(-.072361 -.016199 -.015363 .076299 862.63 182.35)" stroke="#000" stroke-width="6.3772"/>
    <path id="path580" d="m779.41 912.6s-0.12 103.6 0 179.24c0.12 75.63 19.822 104.91 54.262 103.59 34.44-1.33 41.108-58.83 34.531-92.08-6.577-33.26-53.24-198.97-53.24-198.97l-35.553 8.222z" transform="matrix(-.073974 0 0 .077999 851.55 168.42)" stroke="#000" stroke-width="6.3772"/>
    <path id="path581" d="m779.53 255.12c159.57-1.394 177.16-35.432 177.16-35.432s35.43-70.866 17.716-88.584c-17.717-17.716-194.88-17.716-194.88-17.716v141.73z" transform="matrix(-.045906 0 0 .077999 829.67 219.55)" stroke="#000" stroke-width="8.0953"/>
    <path id="path582" d="m779.53 255.12c106.3 0 124.02-35.432 124.02-35.432s35.43-70.866 17.716-88.584c-17.717-17.716-141.73-17.716-141.73-17.716v141.73z" transform="matrix(-.073974 0 0 .077999 851.55 214.02)" stroke="#000" stroke-width="6.3772"/>
    <path id="path583" d="m779.53 255.12c88.583 0 141.73-35.433 141.73-35.433s35.43-70.866 17.716-88.584c-17.72-17.72-159.45-17.71-159.45-17.71v141.73z" transform="matrix(-.073974 0 0 .077999 851.55 208.49)" stroke="#000" stroke-width="6.3772"/>
    <path id="path584" d="m832.68 113.39s70.866-88.583 194.88-177.17c124.01-88.582 213.73-156.72 230.31-141.73 0 17.717-106.3 106.3-194.88 177.17-88.59 70.86-194.89 177.16-194.89 177.16l-35.433-35.433z" transform="matrix(-.091804 0 0 .077999 865.91 168.58)" stroke="#000" stroke-width="5.7245"/>
    <path id="path585" d="m832.68 113.39s70.05-52.025 204.38-124.02c132.23-63.918 318.89-53.15 318.89-35.433-17.71 17.716-177.16 17.716-283.46 70.866-101.48 50.729-204.39 124.01-204.39 124.01l-35.433-35.433z" transform="matrix(-.091804 0 0 .077999 865.16 174.11)" stroke="#000" stroke-width="5.7245"/>
    <path id="path586" d="m832.68 113.39s61.675-35.068 204.38-88.583c141.72-53.15 329.87-17.717 329.87 0-17.7 17.713-170.4 6.944-276.7 35.429-109.99 27.758-222.09 88.584-222.09 88.584l-35.433-35.433z" transform="matrix(-.091804 0 0 .077999 865.09 183.63)" stroke="#000" stroke-width="5.7245"/>
    <path id="path587" d="m832.68 113.39s71.079-70.976 222.47-88.583c152.3-17.72 276.3 88.583 276.3 106.29-17.7 17.72-159.5-77.972-265.7-64.286-112.67 13.654-197.69 82.006-197.69 82.006l-35.433-35.433z" transform="matrix(-.091804 0 0 .077999 864.47 193.29)" stroke="#000" stroke-width="5.7245"/>
    <path id="path588" d="m779.53 255.12c159.57-1.394 159.45-45.508 159.45-45.508s35.43-70.866 17.716-88.584c-17.717-17.716-177.16-7.64-177.16-7.64v141.73z" transform="matrix(-.073974 0 0 .077999 851.55 201.59)" stroke="#000" stroke-width="6.3772"/>
    <path id="path589" d="m779.53 255.12c159.57-1.394 177.16-35.432 177.16-35.432s35.43-70.866 17.716-88.584c-17.717-17.716-194.88-17.716-194.88-17.716v141.73z" transform="matrix(-.073974 0 0 .077999 851.55 196.06)" stroke="#000" stroke-width="6.3772"/>
    <path id="path590" d="m779.53 255.12c159.57-1.394 194.88-35.433 194.88-35.433s35.43-70.866 17.716-88.583c-17.717-17.716-212.6-17.716-212.6-17.716v141.73z" transform="matrix(-.073974 0 0 .077999 851.55 189.15)" stroke="#000" stroke-width="6.3772"/>
    <path id="path591" d="m779.53 255.12c159.57-1.394 212.6-35.433 212.6-35.433s17.714-70.866 0-88.583c-17.717-17.716-212.6-17.716-212.6-17.716v141.73z" transform="matrix(-.073974 0 0 .077999 851.55 182.24)" stroke="#000" stroke-width="6.3772"/>
    <path id="path592" d="m832.68 113.39s114.21-88.583 114.21-159.45c0-70.866-50.349-141.73-64.625-177.17 28.552 0 93.176 106.3 93.176 177.17 0 77.444-107.32 194.88-107.32 194.88l-35.433-35.433z" transform="matrix(-.091804 0 0 .077999 867.71 162.89)" stroke="#000" stroke-width="5.7245"/>
    <path id="path593" d="m832.68 113.39s-14.276-53.15-14.276-159.45c0-124.02 63.001-202.89 85.654-230.32 5.898 27.422-57.102 124.02-57.102 230.32 0 77.444 21.157 194.88 21.157 194.88l-35.433-35.433z" transform="matrix(-.091804 0 0 .077999 867.71 162.89)" stroke="#000" stroke-width="5.7245"/>
    <path id="path594" d="m779.53 255.12c159.57-1.394 212.6-35.433 212.6-35.433s0-70.866-17.716-88.583c-17.717-17.716-194.88-17.716-194.88-17.716v141.73z" transform="matrix(-.073974 0 0 .077999 851.55 175.33)" stroke="#000" stroke-width="6.3772"/>
    <path id="path595" d="m779.53 255.12c159.57-1.394 194.88-35.433 194.88-35.433s0-70.866-17.716-88.583c-17.717-17.716-177.16-17.716-177.16-17.716v141.73z" transform="matrix(-.073974 0 0 .077999 851.55 168.42)" stroke="#000" stroke-width="6.3772"/>
    <path id="path597" d="m318.9 1318.1c55.065-122.32 70.866-336.61 70.866-372.05 0-99.782-32.948-585.11-35.433-779.53s124.02-301.18 248.03-301.18c106.3 0 177.17 70.866 177.17 177.17h-53.15c0-70.866-53.15-124.02-124.02-124.02-106.3 0-187.99 83.739-194.88 248.03-7.605 189.89 21.316 682.94 17.717 814.96s-51.234 249.72-106.3 336.61z" transform="matrix(.073974 0 0 .077999 736.22 168.42)" stroke="#fdc301" stroke-width="16.071"/>
    <path id="path596" d="m779.53 32.884c124.13 0.141 177.77 102.39 177.46 100.31l-35.734 33.347c-18.985 17.717-141.73 17.717-140.21 17.626l-1.52-151.29z" transform="matrix(-.073974 0 0 .077999 851.55 168.42)" stroke="#000" stroke-width="6.3772"/>
   </g>
  </g>
 </g>
</svg>
