<?xml version="1.0" encoding="UTF-8" standalone="no"?>
<!-- Created with Sodipodi ("http://www.sodipodi.com/") -->
<svg id="svg3446" xmlns:rdf="http://www.w3.org/1999/02/22-rdf-syntax-ns#" xmlns="http://www.w3.org/2000/svg" height="480" width="640" version="1.1" xmlns:cc="http://creativecommons.org/ns#" xmlns:dc="http://purl.org/dc/elements/1.1/">
 <metadata id="metadata3750">
  <rdf:RDF>
   <cc:Work rdf:about="">
    <dc:format>image/svg+xml</dc:format>
    <dc:type rdf:resource="http://purl.org/dc/dcmitype/StillImage"/>
   </cc:Work>
  </rdf:RDF>
 </metadata>
 <defs id="defs3448">
  <clipPath id="clipPath7362" clipPathUnits="userSpaceOnUse">
   <rect id="rect7364" fill-opacity="0.67" height="512" width="682.67" y=".000023337" x="-85.648"/>
  </clipPath>
 </defs>
 <g id="flag" clip-path="url(#clipPath7362)" fill-rule="evenodd" transform="matrix(.93750 0 0 .93750 80.295 -.000021879)">
  <rect id="rect3450" height="512" width="1023.4" y=".000022212" x="-256" stroke-width="1pt" fill="#fff"/>
  <rect id="rect3449" height="139.12" width="1022.6" y="372.43" x="-256" stroke-width="1pt" fill="#239f40"/>
  <rect id="rect3452" height="139.12" width="1022.6" y=".000022212" x="-256" stroke-width="1pt" fill="#cd1738"/>
  <polygon id="polygon3940" d="m 391.56052,256.53049 3.57095,11.242 11.56027,-0.24853 -9.58829,6.87015 3.80868,10.91768 -9.49685,-6.99602 -9.20637,6.99602 3.71892,-11.19393 -9.49854,-6.59389 11.79527,0.0778 z" points="391.56 256.53 395.13 267.77 406.69 267.52 397.1 274.39 400.91 285.31 391.42 278.32 382.21 285.31 385.93 274.12 376.43 267.52 388.22 267.6" transform="matrix(1.0307 0 0 1.0782 -243.7 -64.335)" fill="#ff0"/>
  <polygon id="polygon3941" d="m 391.56052,256.53049 3.57095,11.242 11.56027,-0.24853 -9.58829,6.87015 3.80868,10.91768 -9.49685,-6.99602 -9.20637,6.99602 3.71892,-11.19393 -9.49854,-6.59389 11.79527,0.0778 z" points="391.56 256.53 395.13 267.77 406.69 267.52 397.1 274.39 400.91 285.31 391.42 278.32 382.21 285.31 385.93 274.12 376.43 267.52 388.22 267.6" transform="matrix(1.0307 0 0 1.0782 -255.54 -12.408)" fill="#ff0"/>
  <polygon id="polygon3942" d="m 391.56052,256.53049 3.57095,11.242 11.56027,-0.24853 -9.58829,6.87015 3.80868,10.91768 -9.49685,-6.99602 -9.20637,6.99602 3.71892,-11.19393 -9.49854,-6.59389 11.79527,0.0778 z" points="391.56 256.53 395.13 267.77 406.69 267.52 397.1 274.39 400.91 285.31 391.42 278.32 382.21 285.31 385.93 274.12 376.43 267.52 388.22 267.6" transform="matrix(1.0307 0 0 1.0782 -203.62 -106.7)" fill="#ff0"/>
  <polygon id="polygon3943" d="m 391.56052,256.53049 3.57095,11.242 11.56027,-0.24853 -9.58829,6.87015 3.80868,10.91768 -9.49685,-6.99602 -9.20637,6.99602 3.71892,-11.19393 -9.49854,-6.59389 11.79527,0.0778 z" points="391.56 256.53 395.13 267.77 406.69 267.52 397.1 274.39 400.91 285.31 391.42 278.32 382.21 285.31 385.93 274.12 376.43 267.52 388.22 267.6" transform="matrix(1.0307 0 0 1.0782 -149.64 -120.82)" fill="#ff0"/>
  <polygon id="polygon3944" d="m 391.56052,256.53049 3.57095,11.242 11.56027,-0.24853 -9.58829,6.87015 3.80868,10.91768 -9.49685,-6.99602 -9.20637,6.99602 3.71892,-11.19393 -9.49854,-6.59389 11.79527,0.0778 z" points="391.56 256.53 395.13 267.77 406.69 267.52 397.1 274.39 400.91 285.31 391.42 278.32 382.21 285.31 385.93 274.12 376.43 267.52 388.22 267.6" transform="matrix(1.0307 0 0 1.0782 -95.208 -106.7)" fill="#ff0"/>
  <polygon id="polygon3945" d="m 391.56052,256.53049 3.57095,11.242 11.56027,-0.24853 -9.58829,6.87015 3.80868,10.91768 -9.49685,-6.99602 -9.20637,6.99602 3.71892,-11.19393 -9.49854,-6.59389 11.79527,0.0778 z" points="391.56 256.53 395.13 267.77 406.69 267.52 397.1 274.39 400.91 285.31 391.42 278.32 382.21 285.31 385.93 274.12 376.43 267.52 388.22 267.6" transform="matrix(1.0307 0 0 1.0782 -55.124 -64.107)" fill="#ff0"/>
  <polygon id="polygon3946" d="m 391.56052,256.53049 3.57095,11.242 11.56027,-0.24853 -9.58829,6.87015 3.80868,10.91768 -9.49685,-6.99602 -9.20637,6.99602 3.71892,-11.19393 -9.49854,-6.59389 11.79527,0.0778 z" points="391.56 256.53 395.13 267.77 406.69 267.52 397.1 274.39 400.91 285.31 391.42 278.32 382.21 285.31 385.93 274.12 376.43 267.52 388.22 267.6" transform="matrix(1.0307 0 0 1.0782 -43.509 -12.408)" fill="#ff0"/>
  <path id="path3952" d="m516.09 230.63c0 9.2551-9.3391 16.758-20.859 16.758s-20.859-7.5027-20.859-16.758c0-9.2551 9.3391-16.758 20.859-16.758s20.859 7.5028 20.859 16.758z" transform="matrix(.99015 0 0 .92977 -236.29 21.42)" fill="#ff0"/>
  <rect id="rect3953" height="54.916" width="11.796" y="246.85" x="248.11" fill="#ff0"/>
  <path id="path4004" d="m357.58 297.62c-5.1338 10.894-12.042 14.76-23.319 14.458-19.735 0.46793-24.195-14.028-26.768-20.427-6.9756 9.1937-10.941 12.848-22.52 12.627-16.498 0.36898-24.827-9.0216-30.977-26.776-6.1501 17.641-14.479 27.032-30.977 26.663-11.58 0.2216-15.545-3.4332-22.52-12.627-2.5726 6.3995-7.0323 20.895-26.768 20.427-11.277 0.30199-18.185-3.5641-22.807-14.61 5.3647 15.426 10.679 24.058 27.152 24.596 14.92 0.17933 21.753-8.4619 24.986-14.372 10.749 5.71 11.854 6.9777 27.093 6.6201 11.376-0.36589 17.91-7.7981 23.797-14.87 5.8872 7.0715 12.422 14.504 23.797 14.87 15.24 0.35765 16.345-0.91009 27.093-6.6201 3.2332 5.9099 10.066 14.551 24.986 14.372 16.473-0.53802 21.788-9.17 27.751-24.331z" fill="#ff0"/>
  <path id="path4048" d="m204.17 313.52 5.3853 7.4632 10.326-0.30302-7.9692 9.0308-15.601 0.39887-4.8803-6.5366 9.0112-1.4564 3.7836-8.5753" fill="#ff0"/>
  <path id="path4049" d="m303.62 313.52-5.3853 7.4632-10.326-0.30302 7.9692 9.0308 15.601 0.39888 4.8803-6.5366-9.0112-1.4564-3.7836-8.5752" fill="#ff0"/>
  <path id="path4053" d="m241.02 318.31c0-0.0402 7.0859 0.0402 7.0859 0.0402l5.9584-4.7504 5.8172 4.6906 7.0261 0.101-6.3212 9.34h-13.286l-6.2799-9.4214z" fill="#ff0"/>
  <path id="path4100" d="m330.66 351.58c-27.551-5.6883-45.991-8.4866-76.696-8.4866s-49.145 2.7983-76.522 8.4186l-0.0381-11.879c27.415-5.6718 45.855-8.4712 76.56-8.4712s49.145 2.7993 76.56 8.4712l0.13605 11.947z" fill="#ff0"/>
  <path id="path4102" d="m505.31 228.88c0 3.2792-4.687 5.9375-10.469 5.9375-5.7817 0-10.469-2.6583-10.469-5.9375s4.687-5.9375 10.469-5.9375c5.7817 0 10.469 2.6583 10.469 5.9375z" transform="matrix(1.0307 0 0 1.0307 -256 .000022212)" fill="#fff"/>
 </g>
</svg>
