<?xml version="1.0" encoding="UTF-8" standalone="no"?>
<!-- Created with Sodipodi ("http://www.sodipodi.com/") -->
<svg id="svg548" xmlns:rdf="http://www.w3.org/1999/02/22-rdf-syntax-ns#" xmlns="http://www.w3.org/2000/svg" height="480" width="640" version="1" y="0" x="0" xmlns:cc="http://creativecommons.org/ns#" xmlns:dc="http://purl.org/dc/elements/1.1/">
 <metadata id="metadata4074">
  <rdf:RDF>
   <cc:Work rdf:about="">
    <dc:format>image/svg+xml</dc:format>
    <dc:type rdf:resource="http://purl.org/dc/dcmitype/StillImage"/>
   </cc:Work>
  </rdf:RDF>
 </metadata>
 <defs id="defs550">
  <clipPath id="clipPath6977" clipPathUnits="userSpaceOnUse">
   <rect id="rect6979" fill-opacity="0.67" height="512" width="682.67" y="-.0000056851" x="42.666"/>
  </clipPath>
 </defs>
 <g id="flag" fill-rule="evenodd" clip-path="url(#clipPath6977)" transform="matrix(.93750 0 0 .93750 -40 .0000053298)">
  <rect id="rect1280" height="512" width="768" y=".00021263" x="0" stroke-width="1pt" fill="#004e00"/>
  <g id="g1418" stroke-width="1pt" transform="matrix(1.0321 0 0 1.0321 0 .0000023113)">
   <path id="path737" d="m356.1 405.71h14.173" transform="matrix(.96528 0 0 1.1242 -91.267 -289.56)" fill="#ffef00"/>
   <path id="path575" d="m154.29-5.5797c-51.64 4.8457-87.232 50.915-88.113 86.252-2.403 33.898 20.955 74.868 74.793 93.588-71.273-9.92-108.97-46.26-107.92-94.872 5.691-58.166 75.96-97.496 121.24-84.968z" transform="matrix(-.49370 -.30090 .31724 -.51674 333.06 176.76)" fill="#fff"/>
   <polygon id="polygon570" transform="matrix(.44846 0 0 .46139 213.66 16.708)" points="199.45 109.59 211.58 109.74 201.98 117.15 205.58 128.74 205.58 128.74 195.57 121.89 185.66 128.9 189.08 117.26 179.36 110.01 191.48 109.66 195.37 98.165" fill="#feffff"/>
   <polygon id="polygon1529" transform="matrix(.44846 0 0 .46139 186.81 50.369)" points="199.45 109.59 211.58 109.74 201.98 117.15 205.58 128.74 205.58 128.74 195.57 121.89 185.66 128.9 189.08 117.26 179.36 110.01 191.48 109.66 195.37 98.165" fill="#feffff"/>
   <polygon id="polygon1530" transform="matrix(.44846 0 0 .46139 188.58 23.802)" points="199.45 109.59 211.58 109.74 201.98 117.15 205.58 128.74 205.58 128.74 195.57 121.89 185.66 128.9 189.08 117.26 179.36 110.01 191.48 109.66 195.37 98.165" fill="#feffff"/>
   <polygon id="polygon1531" transform="matrix(.44846 0 0 .46139 188.58 -2.7804)" points="199.45 109.59 211.58 109.74 201.98 117.15 205.58 128.74 205.58 128.74 195.57 121.89 185.66 128.9 189.08 117.26 179.36 110.01 191.48 109.66 195.37 98.165" fill="#feffff"/>
   <polygon id="polygon1532" transform="matrix(.44846 0 0 .46139 158.74 30.888)" points="199.45 109.59 211.58 109.74 201.98 117.15 205.58 128.74 205.58 128.74 195.57 121.89 185.66 128.9 189.08 117.26 179.36 110.01 191.48 109.66 195.37 98.165" fill="#feffff"/>
  </g>
  <g id="g3186" transform="matrix(1.0321 0 0 1.0321 0 .0000023113)">
   <rect id="rect1002" height="496.06" width="159.45" y="-0.000007" x="46.063" stroke-width="1pt" fill="#980000"/>
   <g id="g1201" transform="matrix(0.375 0 0 0.5 -54.257 -146.16)" stroke-width="1pt" fill="#e69900">
    <path id="path557" d="m265.89 605.9v-7.086l17.577-17.717-3.544-3.543 10.63-10.63-3.543-3.543-7.087 7.086-3.543-3.543 24.803-24.803 3.543 3.543-3.543 3.544 7.304 7.159 17.499-17.789-17.793-17.24-7.01 6.61 3.543 3.543-3.543 3.543-24.803-24.803 3.543-3.543 7.087 7.087 3.543-3.544-10.63-10.63 3.544-3.543-17.577-17.716v-7.087l24.663 24.803-3.543 3.543 10.63 10.63-7.087 7.087 7.087 7.086 10.63-10.629 24.943 25.225-24.943 24.381-10.63-10.63-7.087 7.087 7.087 7.086-10.63 10.63 3.543 3.543-24.663 24.803z" transform="translate(1.6319 -54.921)"/>
    <path id="path559" d="m269.29 517.32 3.544 7.086v10.63h10.63l7.086 3.544-7.086 3.543h-10.63v10.63l-3.544 7.087v-42.52z" transform="translate(-1.7713 -54.921)"/>
   </g>
   <g id="g1204" transform="matrix(0.375 0 0 0.5 -54.257 -61.121)" stroke-width="1pt" fill="#e69900">
    <path id="path1205" d="m265.89 605.9v-7.086l17.577-17.717-3.544-3.543 10.63-10.63-3.543-3.543-7.087 7.086-3.543-3.543 24.803-24.803 3.543 3.543-3.543 3.544 7.304 7.159 17.499-17.789-17.793-17.24-7.01 6.61 3.543 3.543-3.543 3.543-24.803-24.803 3.543-3.543 7.087 7.087 3.543-3.544-10.63-10.63 3.544-3.543-17.577-17.716v-7.087l24.663 24.803-3.543 3.543 10.63 10.63-7.087 7.087 7.087 7.086 10.63-10.629 24.943 25.225-24.943 24.381-10.63-10.63-7.087 7.087 7.087 7.086-10.63 10.63 3.543 3.543-24.663 24.803z" transform="translate(1.6319 -54.921)"/>
    <path id="path1206" d="m269.29 517.32 3.544 7.086v10.63h10.63l7.086 3.544-7.086 3.543h-10.63v10.63l-3.544 7.087v-42.52z" transform="translate(-1.7713 -54.921)"/>
   </g>
   <g id="g1207" transform="matrix(0.375 0 0 0.5 -54.256 23.919)" stroke-width="1pt" fill="#e69900">
    <path id="path1208" d="m265.89 605.9v-7.086l17.577-17.717-3.544-3.543 10.63-10.63-3.543-3.543-7.087 7.086-3.543-3.543 24.803-24.803 3.543 3.543-3.543 3.544 7.304 7.159 17.499-17.789-17.793-17.24-7.01 6.61 3.543 3.543-3.543 3.543-24.803-24.803 3.543-3.543 7.087 7.087 3.543-3.544-10.63-10.63 3.544-3.543-17.577-17.716v-7.087l24.663 24.803-3.543 3.543 10.63 10.63-7.087 7.087 7.087 7.086 10.63-10.629 24.943 25.225-24.943 24.381-10.63-10.63-7.087 7.087 7.087 7.086-10.63 10.63 3.543 3.543-24.663 24.803z" transform="translate(1.6319 -54.921)"/>
    <path id="path1209" d="m269.29 517.32 3.544 7.086v10.63h10.63l7.086 3.544-7.086 3.543h-10.63v10.63l-3.544 7.087v-42.52z" transform="translate(-1.7713 -54.921)"/>
   </g>
   <g id="g1210" transform="matrix(0.375 0 0 0.5 -54.256 103.64)" stroke-width="1pt" fill="#e69900">
    <path id="path1211" d="m265.89 605.9v-7.086l17.577-17.717-3.544-3.543 10.63-10.63-3.543-3.543-7.087 7.086-3.543-3.543 24.803-24.803 3.543 3.543-3.543 3.544 7.304 7.159 17.499-17.789-17.793-17.24-7.01 6.61 3.543 3.543-3.543 3.543-24.803-24.803 3.543-3.543 7.087 7.087 3.543-3.544-10.63-10.63 3.544-3.543-17.577-17.716v-7.087l24.663 24.803-3.543 3.543 10.63 10.63-7.087 7.087 7.087 7.086 10.63-10.629 24.943 25.225-24.943 24.381-10.63-10.63-7.087 7.087 7.087 7.086-10.63 10.63 3.543 3.543-24.663 24.803z" transform="translate(1.6319 -54.921)"/>
    <path id="path1212" d="m269.29 517.32 3.544 7.086v10.63h10.63l7.086 3.544-7.086 3.543h-10.63v10.63l-3.544 7.087v-42.52z" transform="translate(-1.7713 -54.921)"/>
   </g>
   <g id="g1213" transform="matrix(-0.375 0 0 0.5 305.83 -146.16)" stroke-width="1pt" fill="#e69900">
    <path id="path1214" d="m265.89 605.9v-7.086l17.577-17.717-3.544-3.543 10.63-10.63-3.543-3.543-7.087 7.086-3.543-3.543 24.803-24.803 3.543 3.543-3.543 3.544 7.304 7.159 17.499-17.789-17.793-17.24-7.01 6.61 3.543 3.543-3.543 3.543-24.803-24.803 3.543-3.543 7.087 7.087 3.543-3.544-10.63-10.63 3.544-3.543-17.577-17.716v-7.087l24.663 24.803-3.543 3.543 10.63 10.63-7.087 7.087 7.087 7.086 10.63-10.629 24.943 25.225-24.943 24.381-10.63-10.63-7.087 7.087 7.087 7.086-10.63 10.63 3.543 3.543-24.663 24.803z" transform="translate(1.6319 -54.921)"/>
    <path id="path1215" d="m269.29 517.32 3.544 7.086v10.63h10.63l7.086 3.544-7.086 3.543h-10.63v10.63l-3.544 7.087v-42.52z" transform="translate(-1.7713 -54.921)"/>
   </g>
   <g id="g1216" transform="matrix(-0.375 0 0 0.5 306.27 -61.12)" stroke-width="1pt" fill="#e69900">
    <path id="path1217" d="m265.89 605.9v-7.086l17.577-17.717-3.544-3.543 10.63-10.63-3.543-3.543-7.087 7.086-3.543-3.543 24.803-24.803 3.543 3.543-3.543 3.544 7.304 7.159 17.499-17.789-17.793-17.24-7.01 6.61 3.543 3.543-3.543 3.543-24.803-24.803 3.543-3.543 7.087 7.087 3.543-3.544-10.63-10.63 3.544-3.543-17.577-17.716v-7.087l24.663 24.803-3.543 3.543 10.63 10.63-7.087 7.087 7.087 7.086 10.63-10.629 24.943 25.225-24.943 24.381-10.63-10.63-7.087 7.087 7.087 7.086-10.63 10.63 3.543 3.543-24.663 24.803z" transform="translate(1.6319 -54.921)"/>
    <path id="path1218" d="m269.29 517.32 3.544 7.086v10.63h10.63l7.086 3.544-7.086 3.543h-10.63v10.63l-3.544 7.087v-42.52z" transform="translate(-1.7713 -54.921)"/>
   </g>
   <g id="g1219" transform="matrix(-0.375 0 0 0.5 305.83 23.919)" stroke-width="1pt" fill="#e69900">
    <path id="path1220" d="m265.89 605.9v-7.086l17.577-17.717-3.544-3.543 10.63-10.63-3.543-3.543-7.087 7.086-3.543-3.543 24.803-24.803 3.543 3.543-3.543 3.544 7.304 7.159 17.499-17.789-17.793-17.24-7.01 6.61 3.543 3.543-3.543 3.543-24.803-24.803 3.543-3.543 7.087 7.087 3.543-3.544-10.63-10.63 3.544-3.543-17.577-17.716v-7.087l24.663 24.803-3.543 3.543 10.63 10.63-7.087 7.087 7.087 7.086 10.63-10.629 24.943 25.225-24.943 24.381-10.63-10.63-7.087 7.087 7.087 7.086-10.63 10.63 3.543 3.543-24.663 24.803z" transform="translate(1.6319 -54.921)"/>
    <path id="path1221" d="m269.29 517.32 3.544 7.086v10.63h10.63l7.086 3.544-7.086 3.543h-10.63v10.63l-3.544 7.087v-42.52z" transform="translate(-1.7713 -54.921)"/>
   </g>
   <g id="g1222" transform="matrix(-0.375 0 0 0.5 305.83 103.64)" stroke-width="1pt" fill="#e69900">
    <path id="path1223" d="m265.89 605.9v-7.086l17.577-17.717-3.544-3.543 10.63-10.63-3.543-3.543-7.087 7.086-3.543-3.543 24.803-24.803 3.543 3.543-3.543 3.544 7.304 7.159 17.499-17.789-17.793-17.24-7.01 6.61 3.543 3.543-3.543 3.543-24.803-24.803 3.543-3.543 7.087 7.087 3.543-3.544-10.63-10.63 3.544-3.543-17.577-17.716v-7.087l24.663 24.803-3.543 3.543 10.63 10.63-7.087 7.087 7.087 7.086 10.63-10.629 24.943 25.225-24.943 24.381-10.63-10.63-7.087 7.087 7.087 7.086-10.63 10.63 3.543 3.543-24.663 24.803z" transform="translate(1.6319 -54.921)"/>
    <path id="path1224" d="m269.29 517.32 3.544 7.086v10.63h10.63l7.086 3.544-7.086 3.543h-10.63v10.63l-3.544 7.087v-42.52z" transform="translate(-1.7713 -54.921)"/>
   </g>
   <g id="g1230" transform="matrix(.75 0 0 1 46.063 .00023651)" stroke-width="1pt" fill="#e69900">
    <path id="path1226" d="m265.89 605.9v-7.086l17.577-17.717-3.544-3.543 10.63-10.63-3.543-3.543-7.087 7.086-3.543-3.543 24.803-24.803 3.543 3.543-3.543 3.544 7.304 7.159 17.499-17.789 7.227-0.001-24.943 24.804-10.63-10.63-7.087 7.087 7.087 7.086-10.63 10.63 3.543 3.543-24.663 24.803z" transform="matrix(0.5 0 0 0.5 -132.94 -269.29)"/>
    <path id="path1227" d="m269.29 538.58h21.26l-7.086 3.543h-10.63v10.63l-3.544 7.087v-21.26z" transform="matrix(0.5 0 0 0.5 -134.64 -269.29)"/>
   </g>
   <g id="g1233" transform="matrix(-.75 0 0 1 205.51 .00022125)" stroke-width="1pt" fill="#e69900">
    <path id="path1234" d="m265.89 605.9v-7.086l17.577-17.717-3.544-3.543 10.63-10.63-3.543-3.543-7.087 7.086-3.543-3.543 24.803-24.803 3.543 3.543-3.543 3.544 7.304 7.159 17.499-17.789 7.227-0.001-24.943 24.804-10.63-10.63-7.087 7.087 7.087 7.086-10.63 10.63 3.543 3.543-24.663 24.803z" transform="matrix(0.5 0 0 0.5 -132.94 -269.29)"/>
    <path id="path1235" d="m269.29 538.58h21.26l-7.086 3.543h-10.63v10.63l-3.544 7.087v-21.26z" transform="matrix(0.5 0 0 0.5 -134.64 -269.29)"/>
   </g>
   <path id="path1237" d="m63.64 485.46s11.048-14.584 38.891-19.003c27.842-4.42 32.704 9.723 48.613 9.723 15.91 0 41.101-9.723 41.101-9.723s-25.191 18.561-44.636 18.119c-19.446-0.441-26.075-9.722-45.962-8.396-19.888 1.325-38.007 9.722-38.007 9.28z" transform="matrix(.51776 0 0 .68870 79.56 154.66)" stroke-width="1pt" fill="#e69900"/>
   <path id="path1238" d="m63.64 485.46s11.048-14.584 38.891-19.003c27.842-4.42 32.704 9.723 48.613 9.723 15.91 0 41.101-9.723 41.101-9.723s-25.191 18.561-44.636 18.119c-19.446-0.441-26.075-9.722-45.962-8.396-19.888 1.325-38.007 9.722-38.007 9.28z" transform="matrix(-.51776 0 0 .68870 173.29 154.66)" stroke-width="1pt" fill="#e69900"/>
   <g id="g1245" transform="matrix(.75 0 0 1 46.063 .00023651)" stroke-width="1pt" fill="#e69900">
    <path id="path1239" d="m256.77 423.14c-2.652-4.861-9.281-26.074-5.746-28.726 5.304-1.767 19.446 19.888 18.121 39.334-9.281 4.419-40.659-1.768-40.218-7.514 2.21-7.955 19.888-5.303 27.843-3.094z" transform="matrix(.63820 0 0 .54658 -101.02 241.1)"/>
    <path id="path1240" d="m256.77 423.14c-2.652-4.861-9.281-26.074-5.746-28.726 5.304-1.767 19.446 19.888 18.121 39.334-9.281 4.419-40.659-1.768-40.218-7.514 2.21-7.955 19.888-5.303 27.843-3.094z" transform="matrix(.62445 .13174 -.11283 .53481 -61.849 202.12)"/>
    <path id="path1241" d="m256.77 423.14c-2.652-4.861-9.281-26.074-5.746-28.726 5.304-1.767 19.446 19.888 18.121 39.334-9.281 4.419-40.659-1.768-40.218-7.514 2.21-7.955 19.888-5.303 27.843-3.094z" transform="matrix(.60441 .20491 -.17550 .51764 -40.019 179.26)"/>
    <path id="path1242" d="m256.77 423.14c-2.652-4.861-9.281-26.074-5.746-28.726 5.304-1.767 19.446 19.888 18.121 39.334-9.281 4.419-40.659-1.768-40.218-7.514 2.21-7.955 19.888-5.303 27.843-3.094z" transform="matrix(.56534 .29612 -.25361 .48419 -4.6897 157.92)"/>
    <path id="path1243" d="m256.77 423.14c-2.652-4.861-9.281-26.074-5.746-28.726 5.304-1.767 19.446 19.888 18.121 39.334-9.281 4.419-40.659-1.768-40.218-7.514 2.21-7.955 19.888-5.303 27.843-3.094z" transform="matrix(.51695 .37425 -.32052 .44274 30.655 142.75)"/>
    <path id="path1244" d="m259.25 409.98c26.536 7.115 24.649 14.722 0.771 24.058-9.281 4.419-40.659-1.768-40.218-7.514 2.21-7.955 28.997-18.64 39.447-16.544z" transform="matrix(.084663 .44011 -.38018 .12856 163.19 244.99)"/>
   </g>
   <g id="g1252" transform="matrix(-.75 0 0 1 206.07 1.3261)" stroke-width="1pt" fill="#e69900">
    <path id="path1253" d="m256.77 423.14c-2.652-4.861-9.281-26.074-5.746-28.726 5.304-1.767 19.446 19.888 18.121 39.334-9.281 4.419-40.659-1.768-40.218-7.514 2.21-7.955 19.888-5.303 27.843-3.094z" transform="matrix(.63820 0 0 .54658 -101.02 241.1)"/>
    <path id="path1254" d="m256.77 423.14c-2.652-4.861-9.281-26.074-5.746-28.726 5.304-1.767 19.446 19.888 18.121 39.334-9.281 4.419-40.659-1.768-40.218-7.514 2.21-7.955 19.888-5.303 27.843-3.094z" transform="matrix(.62445 .13174 -.11283 .53481 -61.849 202.12)"/>
    <path id="path1255" d="m256.77 423.14c-2.652-4.861-9.281-26.074-5.746-28.726 5.304-1.767 19.446 19.888 18.121 39.334-9.281 4.419-40.659-1.768-40.218-7.514 2.21-7.955 19.888-5.303 27.843-3.094z" transform="matrix(.60441 .20491 -.17550 .51764 -40.019 179.26)"/>
    <path id="path1256" d="m256.77 423.14c-2.652-4.861-9.281-26.074-5.746-28.726 5.304-1.767 19.446 19.888 18.121 39.334-9.281 4.419-40.659-1.768-40.218-7.514 2.21-7.955 19.888-5.303 27.843-3.094z" transform="matrix(.56534 .29612 -.25361 .48419 -4.6897 157.92)"/>
    <path id="path1257" d="m256.77 423.14c-2.652-4.861-9.281-26.074-5.746-28.726 5.304-1.767 19.446 19.888 18.121 39.334-9.281 4.419-40.659-1.768-40.218-7.514 2.21-7.955 19.888-5.303 27.843-3.094z" transform="matrix(.51695 .37425 -.32052 .44274 30.655 142.75)"/>
    <path id="path1258" d="m259.25 409.98c26.536 7.115 24.649 14.722 0.771 24.058-9.281 4.419-40.659-1.768-40.218-7.514 2.21-7.955 28.997-18.64 39.447-16.544z" transform="matrix(.084663 .44011 -.38018 .12856 163.19 244.99)"/>
   </g>
   <g id="g2143" transform="matrix(.96875 0 0 1.2258 182.42 -74.639)">
    <path id="path1848" d="m-3.5433 290.55h-5.3149v3.543h-5.315v3.543h-21.26l-3.5433 3.544 1.7717 1.771h8.8582l1.7717-1.771h-8.8583l1.7717-1.772h12.402l-5.315 5.315h-12.402l-3.5433-1.772-3.5434 1.771-12.402 0.001-5.3151-5.317 12.402 0.002 1.7717 1.772-8.8583-0.002 1.7717 1.773h8.8583l1.7716-1.771-3.5433-3.544h-19.488v-3.543h-5.315v-3.543h-5.315v-15.945h5.315v-3.543h5.315v-3.543h19.488l3.5433-3.544-1.7716-1.771h-8.8583l-1.7717 1.773 8.8583-0.002-1.7717 1.772-12.402 0.002 5.3151-5.317 12.402 0.001 3.5434 1.771 3.5433-1.772h12.402l5.315 5.315h-12.402l-1.7717-1.772h8.8583l-1.7717-1.771h-8.8582l-1.7717 1.771 3.5433 3.544h21.26v3.543h5.315v3.543h5.3149v15.945z" transform="matrix(1.4884 0 0 1.24 3.5021 -39.474)" stroke="#000" stroke-width=".13333" fill="#980000"/>
    <path id="path560" d="m375.59 499.67v24.803h10.629v7.019h10.63v7.087h35.433l14.174 10.63 14.173-10.63h38.976v-7.019l10.63-0.068v-7.087h10.63v-24.803h-10.63v-7.086l-10.63 0.068v-7.155h-38.976l-14.173-10.63-14.174 10.63h-35.433v7.155h-10.63v7.086h-10.629z" transform="matrix(.74419 0 0 0.62 -392.03 -6.521)" stroke="#e69900" stroke-width="1.0667pt" fill="#004e00"/>
    <path id="path561" d="m425.2 492.52-21.26 17.716v-17.716h21.26z" transform="matrix(.74419 0 0 0.62 -392.03 -8.718)" stroke-width="1pt" fill="#980000"/>
    <path id="path562" d="m425.2 492.52-21.26 17.717v-17.717h21.26z" transform="matrix(-.74419 0 0 0.62 272.46 -8.7184)" stroke-width="1pt" fill="#980000"/>
    <path id="path563" d="m425.2 492.52-21.26 17.716v-17.716h21.26z" transform="matrix(.74419 0 0 -0.62 -392.03 630.57)" stroke-width="1pt" fill="#980000"/>
    <path id="path564" d="m425.2 492.52-21.26 17.717v-17.717h21.26z" transform="matrix(-.74418 0 0 -0.62 272.46 630.57)" stroke-width="1pt" fill="#980000"/>
    <path id="path565" d="m474.8 506.69-7.086 7.087h14.173l-7.087-7.087z" transform="matrix(.74419 0 0 0.62 -392.03 -10.915)" stroke-width="1pt" fill="#980000"/>
    <path id="path566" d="m418.11 506.69-7.086 7.087h14.173l-7.087-7.087z" transform="matrix(.74419 0 0 0.62 -392.03 -10.915)" stroke-width="1pt" fill="#980000"/>
    <path id="path567" d="m418.11 506.69-7.086 7.087h14.173l-7.087-7.087z" transform="matrix(.74419 0 0 -0.62 -392.03 632.77)" stroke-width="1pt" fill="#980000"/>
    <path id="path568" d="m418.11 506.69-7.086 7.087h14.173l-7.087-7.087z" transform="matrix(.74419 0 0 -0.62 -349.84 632.77)" stroke-width="1pt" fill="#980000"/>
    <path id="path569" d="m418.11 506.69-7.086 7.087h14.173l-7.087-7.087z" transform="matrix(.74419 0 0 -0.62 -370.94 643.75)" stroke-width="1pt" fill="#e69900"/>
    <path id="path570" d="m418.11 506.69-7.086 7.087h14.173l-7.087-7.087z" transform="matrix(.74419 0 0 -0.62 -370.94 621.78)" stroke-width="1pt" fill="#e69900"/>
    <path id="path571" d="m418.11 506.69-7.086 7.087h14.173l-7.087-7.087z" transform="matrix(.74419 0 0 0.62 -370.94 -21.899)" stroke-width="1pt" fill="#e69900"/>
    <path id="path572" d="m418.11 506.69-7.086 7.087h14.173l-7.087-7.087z" transform="matrix(.74419 0 0 0.62 -370.94 .069252)" stroke-width="1pt" fill="#e69900"/>
    <rect id="rect579" transform="matrix(.74419 0 0 0.62 -392.03 -6.521)" height="3.5433" width="14.173" stroke="#000" y="506.69" x="467.72" stroke-width=".13333" fill="#e69900"/>
    <rect id="rect592" transform="matrix(.74419 0 0 0.62 -392.03 -6.521)" height="3.5433" width="7.0866" stroke="#000" y="510.24" x="414.57" stroke-width=".13333" fill="#c00"/>
    <rect id="rect593" transform="matrix(.74419 0 0 0.62 -392.03 -6.521)" height="3.5433" width="7.0866" stroke="#000" y="510.24" x="471.26" stroke-width=".13333" fill="#c00"/>
    <rect id="rect595" transform="matrix(.74419 0 0 0.62 -392.03 -6.521)" height="3.5432" width="14.173" stroke="#000" y="488.98" x="439.37" stroke-width=".13333" fill="#900"/>
    <rect id="rect596" transform="matrix(.74419 0 0 0.62 -392.03 -6.521)" height="3.5432" width="14.173" stroke="#000" y="496.06" x="439.37" stroke-width=".13333" fill="#900"/>
    <rect id="rect597" transform="matrix(.74419 0 0 0.62 -392.03 -6.521)" height="3.5432" width="21.26" stroke="#000" y="492.52" x="435.83" stroke-width=".13333" fill="#900"/>
    <rect id="rect598" transform="matrix(.74419 0 0 0.62 -392.03 -6.521)" height="3.5432" width="14.173" stroke="#000" y="524.41" x="439.37" stroke-width=".13333" fill="#900"/>
    <rect id="rect599" transform="matrix(.74419 0 0 0.62 -392.03 -6.521)" height="3.5432" width="14.173" stroke="#000" y="531.5" x="439.37" stroke-width=".13333" fill="#900"/>
    <rect id="rect600" transform="matrix(.74419 0 0 0.62 -392.03 -6.521)" height="3.5432" width="21.26" stroke="#000" y="527.95" x="435.83" stroke-width=".13333" fill="#900"/>
    <rect id="rect601" transform="matrix(.74419 0 0 0.62 -392.03 -6.521)" height="3.5433" width="14.173" stroke="#000" y="513.78" x="467.72" stroke-width=".13333" fill="#e69900"/>
    <rect id="rect602" transform="matrix(.74419 0 0 0.62 -392.03 -6.521)" height="3.5433" width="14.173" stroke="#000" y="506.69" x="411.02" stroke-width=".13333" fill="#e69900"/>
    <rect id="rect603" transform="matrix(.74419 0 0 0.62 -392.03 -6.521)" height="3.5433" width="14.173" stroke="#000" y="513.78" x="411.02" stroke-width=".13333" fill="#e69900"/>
    <rect id="rect604" transform="matrix(.74419 0 0 0.62 -392.03 -6.521)" height="3.5433" width="7.0866" stroke="#000" y="510.24" x="407.48" stroke-width=".13333" fill="#e69900"/>
    <rect id="rect605" transform="matrix(.74419 0 0 0.62 -392.03 -6.521)" height="3.5433" width="7.0866" stroke="#000" y="510.24" x="421.65" stroke-width=".13333" fill="#e69900"/>
    <rect id="rect606" transform="matrix(.74419 0 0 0.62 -392.03 -6.521)" height="3.5433" width="7.0866" stroke="#000" y="510.24" x="464.17" stroke-width=".13333" fill="#e69900"/>
    <rect id="rect607" transform="matrix(.74419 0 0 0.62 -392.03 -6.521)" height="3.5433" width="7.0866" stroke="#000" y="510.24" x="478.35" stroke-width=".13333" fill="#e69900"/>
    <ellipse id="path615" fill="#fff" transform="matrix(.74419 0 0 0.62 -374.14 -38.912)" cx="413.68" rx=".88583" cy="581.99" ry=".88583" stroke-width="1pt" d="m 414.56693,581.98816 c 0,0.48923 -0.39661,0.88583 -0.88584,0.88583 -0.48923,0 -0.88583,-0.3966 -0.88583,-0.88583 0,-0.48923 0.3966,-0.88583 0.88583,-0.88583 0.48923,0 0.88584,0.3966 0.88584,0.88583 z"/>
    <ellipse id="path616" fill="#fff" transform="matrix(.74419 0 0 0.62 -367.57 -38.912)" cx="413.68" rx=".88583" cy="581.99" ry=".88583" stroke-width="1pt" d="m 414.56693,581.98816 c 0,0.48923 -0.39661,0.88583 -0.88584,0.88583 -0.48923,0 -0.88583,-0.3966 -0.88583,-0.88583 0,-0.48923 0.3966,-0.88583 0.88583,-0.88583 0.48923,0 0.88584,0.3966 0.88584,0.88583 z"/>
    <ellipse id="path617" fill="#fff" transform="matrix(.74419 0 0 0.62 -361 -38.958)" cx="413.68" rx=".88583" cy="581.99" ry=".88583" stroke-width="1pt" d="m 414.56693,581.98816 c 0,0.48923 -0.39661,0.88583 -0.88584,0.88583 -0.48923,0 -0.88583,-0.3966 -0.88583,-0.88583 0,-0.48923 0.3966,-0.88583 0.88583,-0.88583 0.48923,0 0.88584,0.3966 0.88584,0.88583 z"/>
    <ellipse id="path618" fill="#fff" transform="matrix(.74419 0 0 0.62 -371.51 -41.102)" cx="413.68" rx=".88583" cy="581.99" ry=".88583" stroke-width="1pt" d="m 414.56693,581.98816 c 0,0.48923 -0.39661,0.88583 -0.88584,0.88583 -0.48923,0 -0.88583,-0.3966 -0.88583,-0.88583 0,-0.48923 0.3966,-0.88583 0.88583,-0.88583 0.48923,0 0.88584,0.3966 0.88584,0.88583 z"/>
    <ellipse id="path619" fill="#fff" transform="matrix(.74419 0 0 0.62 -363.68 -41.148)" cx="413.68" rx=".88583" cy="581.99" ry=".88583" stroke-width="1pt" d="m 414.56693,581.98816 c 0,0.48923 -0.39661,0.88583 -0.88584,0.88583 -0.48923,0 -0.88583,-0.3966 -0.88583,-0.88583 0,-0.48923 0.3966,-0.88583 0.88583,-0.88583 0.48923,0 0.88584,0.3966 0.88584,0.88583 z"/>
    <ellipse id="path620" fill="#fff" transform="matrix(.74419 0 0 0.62 -371.57 -36.768)" cx="413.68" rx=".88583" cy="581.99" ry=".88583" stroke-width="1pt" d="m 414.56693,581.98816 c 0,0.48923 -0.39661,0.88583 -0.88584,0.88583 -0.48923,0 -0.88583,-0.3966 -0.88583,-0.88583 0,-0.48923 0.3966,-0.88583 0.88583,-0.88583 0.48923,0 0.88584,0.3966 0.88584,0.88583 z"/>
    <ellipse id="path621" fill="#fff" transform="matrix(.74419 0 0 0.62 -363.68 -36.677)" cx="413.68" rx=".88583" cy="581.99" ry=".88583" stroke-width="1pt" d="m 414.56693,581.98816 c 0,0.48923 -0.39661,0.88583 -0.88584,0.88583 -0.48923,0 -0.88583,-0.3966 -0.88583,-0.88583 0,-0.48923 0.3966,-0.88583 0.88583,-0.88583 0.48923,0 0.88584,0.3966 0.88584,0.88583 z"/>
    <ellipse id="path622" fill="#fff" transform="matrix(.74419 0 0 0.62 -353.17 -49.999)" cx="413.68" rx=".88583" cy="581.99" ry=".88583" stroke-width="1pt" d="m 414.56693,581.98816 c 0,0.48923 -0.39661,0.88583 -0.88584,0.88583 -0.48923,0 -0.88583,-0.3966 -0.88583,-0.88583 0,-0.48923 0.3966,-0.88583 0.88583,-0.88583 0.48923,0 0.88584,0.3966 0.88584,0.88583 z"/>
    <ellipse id="path623" fill="#fff" transform="matrix(.74419 0 0 0.62 -346.59 -49.999)" cx="413.68" rx=".88583" cy="581.99" ry=".88583" stroke-width="1pt" d="m 414.56693,581.98816 c 0,0.48923 -0.39661,0.88583 -0.88584,0.88583 -0.48923,0 -0.88583,-0.3966 -0.88583,-0.88583 0,-0.48923 0.3966,-0.88583 0.88583,-0.88583 0.48923,0 0.88584,0.3966 0.88584,0.88583 z"/>
    <ellipse id="path624" fill="#fff" transform="matrix(.74419 0 0 0.62 -340.02 -50.045)" cx="413.68" rx=".88583" cy="581.99" ry=".88583" stroke-width="1pt" d="m 414.56693,581.98816 c 0,0.48923 -0.39661,0.88583 -0.88584,0.88583 -0.48923,0 -0.88583,-0.3966 -0.88583,-0.88583 0,-0.48923 0.3966,-0.88583 0.88583,-0.88583 0.48923,0 0.88584,0.3966 0.88584,0.88583 z"/>
    <ellipse id="path625" fill="#fff" transform="matrix(.74419 0 0 0.62 -350.54 -52.189)" cx="413.68" rx=".88583" cy="581.99" ry=".88583" stroke-width="1pt" d="m 414.56693,581.98816 c 0,0.48923 -0.39661,0.88583 -0.88584,0.88583 -0.48923,0 -0.88583,-0.3966 -0.88583,-0.88583 0,-0.48923 0.3966,-0.88583 0.88583,-0.88583 0.48923,0 0.88584,0.3966 0.88584,0.88583 z"/>
    <ellipse id="path626" fill="#fff" transform="matrix(.74419 0 0 0.62 -342.71 -52.235)" cx="413.68" rx=".88583" cy="581.99" ry=".88583" stroke-width="1pt" d="m 414.56693,581.98816 c 0,0.48923 -0.39661,0.88583 -0.88584,0.88583 -0.48923,0 -0.88583,-0.3966 -0.88583,-0.88583 0,-0.48923 0.3966,-0.88583 0.88583,-0.88583 0.48923,0 0.88584,0.3966 0.88584,0.88583 z"/>
    <ellipse id="path627" fill="#fff" transform="matrix(.74419 0 0 0.62 -350.59 -47.855)" cx="413.68" rx=".88583" cy="581.99" ry=".88583" stroke-width="1pt" d="m 414.56693,581.98816 c 0,0.48923 -0.39661,0.88583 -0.88584,0.88583 -0.48923,0 -0.88583,-0.3966 -0.88583,-0.88583 0,-0.48923 0.3966,-0.88583 0.88583,-0.88583 0.48923,0 0.88584,0.3966 0.88584,0.88583 z"/>
    <ellipse id="path628" fill="#fff" transform="matrix(.74419 0 0 0.62 -342.71 -47.764)" cx="413.68" rx=".88583" cy="581.99" ry=".88583" stroke-width="1pt" d="m 414.56693,581.98816 c 0,0.48923 -0.39661,0.88583 -0.88584,0.88583 -0.48923,0 -0.88583,-0.3966 -0.88583,-0.88583 0,-0.48923 0.3966,-0.88583 0.88583,-0.88583 0.48923,0 0.88584,0.3966 0.88584,0.88583 z"/>
    <ellipse id="path629" fill="#fff" transform="matrix(.74419 0 0 0.62 -374.2 -60.904)" cx="413.68" rx=".88583" cy="581.99" ry=".88583" stroke-width="1pt" d="m 414.56693,581.98816 c 0,0.48923 -0.39661,0.88583 -0.88584,0.88583 -0.48923,0 -0.88583,-0.3966 -0.88583,-0.88583 0,-0.48923 0.3966,-0.88583 0.88583,-0.88583 0.48923,0 0.88584,0.3966 0.88584,0.88583 z"/>
    <ellipse id="path630" fill="#fff" transform="matrix(.74419 0 0 0.62 -367.62 -60.904)" cx="413.68" rx=".88583" cy="581.99" ry=".88583" stroke-width="1pt" d="m 414.56693,581.98816 c 0,0.48923 -0.39661,0.88583 -0.88584,0.88583 -0.48923,0 -0.88583,-0.3966 -0.88583,-0.88583 0,-0.48923 0.3966,-0.88583 0.88583,-0.88583 0.48923,0 0.88584,0.3966 0.88584,0.88583 z"/>
    <ellipse id="path631" fill="#fff" transform="matrix(.74419 0 0 0.62 -361.05 -60.949)" cx="413.68" rx=".88583" cy="581.99" ry=".88583" stroke-width="1pt" d="m 414.56693,581.98816 c 0,0.48923 -0.39661,0.88583 -0.88584,0.88583 -0.48923,0 -0.88583,-0.3966 -0.88583,-0.88583 0,-0.48923 0.3966,-0.88583 0.88583,-0.88583 0.48923,0 0.88584,0.3966 0.88584,0.88583 z"/>
    <ellipse id="path632" fill="#fff" transform="matrix(.74419 0 0 0.62 -371.57 -63.094)" cx="413.68" rx=".88583" cy="581.99" ry=".88583" stroke-width="1pt" d="m 414.56693,581.98816 c 0,0.48923 -0.39661,0.88583 -0.88584,0.88583 -0.48923,0 -0.88583,-0.3966 -0.88583,-0.88583 0,-0.48923 0.3966,-0.88583 0.88583,-0.88583 0.48923,0 0.88584,0.3966 0.88584,0.88583 z"/>
    <ellipse id="path633" fill="#fff" transform="matrix(.74419 0 0 0.62 -363.74 -63.139)" cx="413.68" rx=".88583" cy="581.99" ry=".88583" stroke-width="1pt" d="m 414.56693,581.98816 c 0,0.48923 -0.39661,0.88583 -0.88584,0.88583 -0.48923,0 -0.88583,-0.3966 -0.88583,-0.88583 0,-0.48923 0.3966,-0.88583 0.88583,-0.88583 0.48923,0 0.88584,0.3966 0.88584,0.88583 z"/>
    <ellipse id="path634" fill="#fff" transform="matrix(.74419 0 0 0.62 -371.62 -58.759)" cx="413.68" rx=".88583" cy="581.99" ry=".88583" stroke-width="1pt" d="m 414.56693,581.98816 c 0,0.48923 -0.39661,0.88583 -0.88584,0.88583 -0.48923,0 -0.88583,-0.3966 -0.88583,-0.88583 0,-0.48923 0.3966,-0.88583 0.88583,-0.88583 0.48923,0 0.88584,0.3966 0.88584,0.88583 z"/>
    <ellipse id="path635" fill="#fff" transform="matrix(.74419 0 0 0.62 -363.74 -58.668)" cx="413.68" rx=".88583" cy="581.99" ry=".88583" stroke-width="1pt" d="m 414.56693,581.98816 c 0,0.48923 -0.39661,0.88583 -0.88584,0.88583 -0.48923,0 -0.88583,-0.3966 -0.88583,-0.88583 0,-0.48923 0.3966,-0.88583 0.88583,-0.88583 0.48923,0 0.88584,0.3966 0.88584,0.88583 z"/>
    <ellipse id="path636" fill="#fff" transform="matrix(.74419 0 0 0.62 -395.28 -49.817)" cx="413.68" rx=".88583" cy="581.99" ry=".88583" stroke-width="1pt" d="m 414.56693,581.98816 c 0,0.48923 -0.39661,0.88583 -0.88584,0.88583 -0.48923,0 -0.88583,-0.3966 -0.88583,-0.88583 0,-0.48923 0.3966,-0.88583 0.88583,-0.88583 0.48923,0 0.88584,0.3966 0.88584,0.88583 z"/>
    <ellipse id="path637" fill="#fff" transform="matrix(.74419 0 0 0.62 -388.71 -49.817)" cx="413.68" rx=".88583" cy="581.99" ry=".88583" stroke-width="1pt" d="m 414.56693,581.98816 c 0,0.48923 -0.39661,0.88583 -0.88584,0.88583 -0.48923,0 -0.88583,-0.3966 -0.88583,-0.88583 0,-0.48923 0.3966,-0.88583 0.88583,-0.88583 0.48923,0 0.88584,0.3966 0.88584,0.88583 z"/>
    <ellipse id="path638" fill="#fff" transform="matrix(.74419 0 0 0.62 -382.14 -49.862)" cx="413.68" rx=".88583" cy="581.99" ry=".88583" stroke-width="1pt" d="m 414.56693,581.98816 c 0,0.48923 -0.39661,0.88583 -0.88584,0.88583 -0.48923,0 -0.88583,-0.3966 -0.88583,-0.88583 0,-0.48923 0.3966,-0.88583 0.88583,-0.88583 0.48923,0 0.88584,0.3966 0.88584,0.88583 z"/>
    <ellipse id="path639" fill="#fff" transform="matrix(.74419 0 0 0.62 -392.65 -52.007)" cx="413.68" rx=".88583" cy="581.99" ry=".88583" stroke-width="1pt" d="m 414.56693,581.98816 c 0,0.48923 -0.39661,0.88583 -0.88584,0.88583 -0.48923,0 -0.88583,-0.3966 -0.88583,-0.88583 0,-0.48923 0.3966,-0.88583 0.88583,-0.88583 0.48923,0 0.88584,0.3966 0.88584,0.88583 z"/>
    <ellipse id="path640" fill="#fff" transform="matrix(.74419 0 0 0.62 -384.82 -52.052)" cx="413.68" rx=".88583" cy="581.99" ry=".88583" stroke-width="1pt" d="m 414.56693,581.98816 c 0,0.48923 -0.39661,0.88583 -0.88584,0.88583 -0.48923,0 -0.88583,-0.3966 -0.88583,-0.88583 0,-0.48923 0.3966,-0.88583 0.88583,-0.88583 0.48923,0 0.88584,0.3966 0.88584,0.88583 z"/>
    <ellipse id="path641" fill="#fff" transform="matrix(.74419 0 0 0.62 -392.71 -47.672)" cx="413.68" rx=".88583" cy="581.99" ry=".88583" stroke-width="1pt" d="m 414.56693,581.98816 c 0,0.48923 -0.39661,0.88583 -0.88584,0.88583 -0.48923,0 -0.88583,-0.3966 -0.88583,-0.88583 0,-0.48923 0.3966,-0.88583 0.88583,-0.88583 0.48923,0 0.88584,0.3966 0.88584,0.88583 z"/>
    <ellipse id="path642" fill="#fff" transform="matrix(.74419 0 0 0.62 -384.82 -47.581)" cx="413.68" rx=".88583" cy="581.99" ry=".88583" stroke-width="1pt" d="m 414.56693,581.98816 c 0,0.48923 -0.39661,0.88583 -0.88584,0.88583 -0.48923,0 -0.88583,-0.3966 -0.88583,-0.88583 0,-0.48923 0.3966,-0.88583 0.88583,-0.88583 0.48923,0 0.88584,0.3966 0.88584,0.88583 z"/>
   </g>
   <g id="g1762" transform="matrix(1 0 0 1.1622 193.11 -34.284)">
    <path id="path1072" d="m-79.724 145.28 3.5433 3.543 3.5433-3.543h-7.0866z" transform="matrix(1.24 0 0 -.49996 40.323 315.35)" stroke-width="1pt" fill="#fff"/>
    <path id="path1071" d="m-79.724 145.28 3.5433 3.543 3.5433-3.543h-7.0866z" transform="matrix(1.24 0 0 -.49996 27.142 315.35)" stroke-width="1pt" fill="#fff"/>
    <path id="path1070" d="m-79.724 145.28 3.5433 3.543 3.5433-3.543h-7.0866z" transform="matrix(1.24 0 0 -.49996 13.961 315.35)" stroke-width="1pt" fill="#fff"/>
    <path id="path1069" d="m-79.724 145.28 3.5433 3.543 3.5433-3.543h-7.0866z" transform="matrix(1.24 0 0 .49996 40.323 129.34)" stroke-width="1pt" fill="#fff"/>
    <path id="path1068" d="m-79.724 145.28 3.5433 3.543 3.5433-3.543h-7.0866z" transform="matrix(1.24 0 0 .49996 27.142 129.34)" stroke-width="1pt" fill="#fff"/>
    <path id="path1067" d="m-79.724 145.28 3.5433 3.543 3.5433-3.543h-7.0866z" transform="matrix(1.24 0 0 .49996 13.961 129.34)" stroke-width="1pt" fill="#fff"/>
    <path id="path1057" d="m-83.268 219.68-5.3148-3.544-5.3151 3.544-5.3149-3.544-5.3145 3.544v-1.771l3.543-1.773-1.772-1.771v-1.772h1.772l1.7715 1.772 1.7714-1.772h1.772v1.772l-1.772 1.771 3.5435 1.772 3.5436-1.772-1.7719-1.771v-1.772h1.7719l1.7715 1.772 1.7714-1.772h1.7719v1.772l-1.7719 1.771 3.5434 1.772 3.5438-1.771-1.772-1.772v-1.772h1.772l1.7714 1.772 1.7714-1.772h1.7719v1.772l-1.7719 1.772 3.5433 1.772v1.771l-5.3147-3.543-5.3152 3.543z" transform="matrix(.96446 0 0 -.99994 18.111 467.7)" stroke-width="0" fill="#004e00"/>
    <path id="path1056" d="m-83.268 219.68-5.3148-3.544-5.3151 3.544-5.3149-3.544-5.3145 3.544v-1.771l3.543-1.773-1.772-1.771v-1.772h1.772l1.7715 1.772 1.7714-1.772h1.772v1.772l-1.772 1.771 3.5435 1.772 3.5436-1.772-1.7719-1.771v-1.772h1.7719l1.7715 1.772 1.7714-1.772h1.7719v1.772l-1.7719 1.771 3.5434 1.772 3.5438-1.771-1.772-1.772v-1.772h1.772l1.7714 1.772 1.7714-1.772h1.7719v1.772l-1.7719 1.772 3.5433 1.772v1.771l-5.3147-3.543-5.3152 3.543z" transform="matrix(.96446 0 0 .99994 18.112 -23.018)" stroke-width="0" fill="#004e00"/>
    <path id="path1055" d="m-83.268 219.68-5.3148-3.544-5.3151 3.544-5.3149-3.544-5.3145 3.544v-1.771l3.543-1.773-1.772-1.771v-1.772h1.772l1.7715 1.772 1.7714-1.772h1.772v1.772l-1.772 1.771 3.5435 1.772 3.5436-1.772-1.7719-1.771v-1.772h1.7719l1.7715 1.772 1.7714-1.772h1.7719v1.772l-1.7719 1.771 3.5434 1.772 3.5438-1.771-1.772-1.772v-1.772h1.772l1.7714 1.772 1.7714-1.772h1.7719v1.772l-1.7719 1.772 3.5433 1.772v1.771l-5.3147-3.543-5.3152 3.543z" transform="matrix(0 .72224 -1.5499 0 317.11 286.32)" stroke-width="0" fill="#004e00"/>
    <path id="path1054" d="m-83.268 219.68-5.3148-3.544-5.3151 3.544-5.3149-3.544-5.3145 3.544v-1.771l3.543-1.773-1.772-1.771v-1.772h1.772l1.7715 1.772 1.7714-1.772h1.772v1.772l-1.772 1.771 3.5435 1.772 3.5436-1.772-1.7719-1.771v-1.772h1.7719l1.7715 1.772 1.7714-1.772h1.7719v1.772l-1.7719 1.771 3.5434 1.772 3.5438-1.771-1.772-1.772v-1.772h1.772l1.7714 1.772 1.7714-1.772h1.7719v1.772l-1.7719 1.772 3.5433 1.772v1.771l-5.3147-3.543-5.3152 3.543z" transform="matrix(0 .72224 1.5499 0 -451.75 286.32)" stroke-width="0" fill="#004e00"/>
    <rect id="rect1052" transform="matrix(1.24 0 0 1 11.764 24.803)" height="1.7716" width="1.7717" stroke="#000" y="214.37" x="-26.575" stroke-width=".26667" fill="#004e00"/>
    <rect id="rect1053" transform="matrix(1.24 0 0 1 11.764 24.803)" height="1.7717" width="1.7717" stroke="#000" y="216.14" x="-28.346" stroke-width=".26667" fill="#004e00"/>
    <rect id="rect1048" transform="matrix(1.24 0 0 1 11.764 24.803)" height="1.7716" width="1.7717" stroke="#000" y="225" x="-37.205" stroke-width=".26667" fill="#004e00"/>
    <rect id="rect1049" transform="matrix(1.24 0 0 1 11.764 24.803)" height="1.7717" width="1.7717" stroke="#000" y="223.23" x="-35.433" stroke-width=".26667" fill="#004e00"/>
    <rect id="rect1046" transform="matrix(1.24 0 0 1 11.764 24.803)" height="1.7717" width="1.7716" stroke="#000" y="223.23" x="-93.898" stroke-width=".26667" fill="#004e00"/>
    <rect id="rect1044" transform="matrix(1.24 0 0 1 11.764 24.803)" height="1.7716" width="1.7717" stroke="#000" y="214.37" x="-102.76" stroke-width=".26667" fill="#004e00"/>
    <rect id="rect1045" transform="matrix(1.24 0 0 1 11.764 24.803)" height="1.7717" width="1.7717" stroke="#000" y="216.14" x="-100.98" stroke-width=".26667" fill="#004e00"/>
    <rect id="rect1042" transform="matrix(1.24 0 0 1 11.764 24.803)" height="1.7716" width="1.7717" stroke="#000" y="177.17" x="-100.98" stroke-width=".26667" fill="#004e00"/>
    <rect id="rect1043" transform="matrix(1.24 0 0 1 11.764 24.803)" height="1.7717" width="1.7717" stroke="#000" y="178.94" x="-102.76" stroke-width=".26667" fill="#004e00"/>
    <rect id="rect1040" transform="matrix(1.24 0 0 1 11.764 24.803)" height="1.7716" width="1.7717" stroke="#000" y="168.31" x="-92.126" stroke-width=".26667" fill="#004e00"/>
    <rect id="rect1041" transform="matrix(1.24 0 0 1 11.764 24.803)" height="1.7717" width="1.7716" stroke="#000" y="170.08" x="-93.898" stroke-width=".26667" fill="#004e00"/>
    <rect id="rect1038" transform="matrix(1.24 0 0 1 11.764 24.803)" height="1.7716" width="1.7717" stroke="#000" y="168.31" x="-37.205" stroke-width=".26667" fill="#004e00"/>
    <rect id="rect1039" transform="matrix(1.24 0 0 1 11.764 24.803)" height="1.7717" width="1.7717" stroke="#000" y="170.08" x="-35.433" stroke-width=".26667" fill="#004e00"/>
    <rect id="rect1050" transform="matrix(1.24 0 0 1 11.764 24.803)" height="1.7716" width="1.7717" stroke="#000" y="177.17" x="-28.346" stroke-width=".26667" fill="#004e00"/>
    <rect id="rect1051" transform="matrix(1.24 0 0 1 11.764 24.803)" height="1.7717" width="1.7717" stroke="#000" y="178.94" x="-26.575" stroke-width=".26667" fill="#004e00"/>
    <rect id="rect1047" transform="matrix(1.24 0 0 1 11.764 24.803)" height="1.7716" width="1.7717" stroke="#000" y="225" x="-92.126" stroke-width=".26667" fill="#004e00"/>
    <path id="path925" d="m423.42 278.15-15.942-0.002-0.003-8.864 10.63 0.005v-8.312h10.63v-7.633h10.63v9.541c-8.802 0-15.945 6.463-15.945 15.265z" transform="matrix(.40618 0 0 .39281 -246.01 113.08)" stroke-width="1.25" fill="#fff"/>
    <path id="path927" d="m423.42 278.15-15.942-0.002-0.003-8.864 10.63 0.005v-8.312h10.63v-7.633h10.63v9.541c-8.802 0-15.945 6.463-15.945 15.265z" transform="matrix(-.40618 0 0 .39281 110.91 113.08)" stroke-width="1.25" fill="#e69900"/>
    <path id="path928" d="m423.42 278.15-15.942-0.002-0.003-8.864 10.63 0.005v-8.312h10.63v-7.633h10.63v9.541c-8.802 0-15.945 6.463-15.945 15.265z" transform="matrix(-.40618 0 0 -.39281 110.91 331.6)" stroke-width="1.25" fill="#fff"/>
    <path id="path929" d="m423.42 278.15-15.942-0.002-0.003-8.864 10.63 0.005v-8.312h10.63v-7.633h10.63v9.541c-8.802 0-15.945 6.463-15.945 15.265z" transform="matrix(.40618 0 0 -.39281 -246.01 331.6)" stroke-width="1.25" fill="#e69900"/>
    <path id="path931" d="m437.6 273.72h-15.944v-15.059c8.801 0 15.944 6.747 15.944 15.059z" transform="matrix(.40618 0 0 .39819 -238.82 113.35)" stroke-width="1pt" fill="#004e00"/>
    <path id="path932" d="m437.6 273.72h-15.944v-15.059c8.801 0 15.944 6.747 15.944 15.059z" transform="matrix(.40618 0 0 -.39819 -238.82 331.33)" stroke-width="1pt" fill="#980000"/>
    <path id="path933" d="m437.6 273.72h-15.944v-15.059c8.801 0 15.944 6.747 15.944 15.059z" transform="matrix(-.40618 0 0 -.39819 103.72 331.33)" stroke-width="1pt" fill="#004e00"/>
    <path id="path934" d="m437.6 273.72h-15.944v-15.059c8.801 0 15.944 6.747 15.944 15.059z" transform="matrix(-.40618 0 0 .39819 103.72 113.35)" stroke-width="1pt" fill="#980000"/>
    <path id="path976" d="m-83.268 219.68-5.3148-3.544-5.3151 3.544-5.3149-3.544-5.3145 3.544v-1.771l3.543-1.773-1.772-1.771v-1.772h1.772l1.7715 1.772 1.7714-1.772h1.772v1.772l-1.772 1.771 3.5435 1.772 3.5436-1.772-1.7719-1.771v-1.772h1.7719l1.7715 1.772 1.7714-1.772h1.7719v1.772l-1.7719 1.771 3.5434 1.772 3.5438-1.771-1.772-1.772v-1.772h1.772l1.7714 1.772 1.7714-1.772h1.7719v1.772l-1.7719 1.772 3.5433 1.772v1.771l-5.3147-3.543-5.3152 3.543z" transform="matrix(1.24 0 0 1 42.52 24.804)" stroke-width="0" fill="#004e00"/>
    <path id="path982" d="m-83.268 219.68-5.3148-3.544-5.3151 3.544-5.3149-3.544-5.3145 3.544v-1.771l3.543-1.773-1.772-1.771v-1.772h1.772l1.7715 1.772 1.7714-1.772h1.772v1.772l-1.772 1.771 3.5435 1.772 3.5436-1.772-1.7719-1.771v-1.772h1.7719l1.7715 1.772 1.7714-1.772h1.7719v1.772l-1.7719 1.771 3.5434 1.772 3.5438-1.771-1.772-1.772v-1.772h1.772l1.7714 1.772 1.7714-1.772h1.7719v1.772l-1.7719 1.772 3.5433 1.772v1.771l-5.3147-3.543-5.3152 3.543z" transform="matrix(1.24 0 0 -1 42.52 419.88)" stroke-width="0" fill="#004e00"/>
    <path id="path983" d="m-83.268 219.68-5.3148-3.544-5.3151 3.544-5.3149-3.544-5.3145 3.544v-1.771l3.543-1.773-1.772-1.771v-1.772h1.772l1.7715 1.772 1.7714-1.772h1.772v1.772l-1.772 1.771 3.5435 1.772 3.5436-1.772-1.7719-1.771v-1.772h1.7719l1.7715 1.772 1.7714-1.772h1.7719v1.772l-1.7719 1.771 3.5434 1.772 3.5438-1.771-1.772-1.772v-1.772h1.772l1.7714 1.772 1.7714-1.772h1.7719v1.772l-1.7719 1.772 3.5433 1.772v1.771l-5.3147-3.543-5.3152 3.543z" transform="matrix(0 .83335 .93002 0 -240.88 296.16)" stroke-width="0" fill="#004e00"/>
    <path id="path985" d="m-100.98 177.17-7.087 7.086v26.575l7.087 7.087h31.889l7.0867-7.087v-26.575l-7.0867-7.086h-31.889zm-1.772-5.316-17.717 17.716v15.945l17.717 17.717h35.433l17.716-17.717v-15.945l-17.716-17.716h-35.433z" transform="matrix(1.24 0 0 1 38.127 24.804)" stroke="#000" stroke-width=".42667" fill="#004e00"/>
    <path id="path996" d="m-93.898 147.05 3.5433 5.315 3.5433-5.315h-7.0866z" transform="matrix(0.992 0 0 .66666 15.279 146.46)" stroke="#000" stroke-width=".26667" fill="#e69900"/>
    <path id="path1001" d="m-93.898 147.05 3.5433 5.315 3.5433-5.315h-7.0866z" transform="matrix(0.992 0 0 -.66666 15.279 298.23)" stroke="#000" stroke-width=".26667" fill="#e69900"/>
    <path id="path1002" d="m-93.898 147.05 3.5433 5.315 3.5433-5.315h-7.0866z" transform="matrix(0.992 0 0 -.66666 29.339 298.23)" stroke="#000" stroke-width=".26667" fill="#e69900"/>
    <path id="path997" d="m-93.898 147.05 3.5433 5.315 3.5433-5.315h-7.0866z" transform="matrix(0.992 0 0 .66666 29.339 146.46)" stroke="#000" stroke-width=".26667" fill="#e69900"/>
    <path id="path1007" d="m-93.898 147.05 3.5433 5.315 3.5433-5.315h-7.0866z" transform="matrix(0.992 0 0 -.66666 8.249 298.23)" stroke="#000" stroke-width=".26667" fill="#980000"/>
    <path id="path1008" d="m-93.898 147.05 3.5433 5.315 3.5433-5.315h-7.0866z" transform="matrix(0.992 0 0 -.66666 22.309 298.23)" stroke="#000" stroke-width=".26667" fill="#980000"/>
    <path id="path1009" d="m-93.898 147.05 3.5433 5.315 3.5433-5.315h-7.0866z" transform="matrix(0.992 0 0 -.66666 36.369 298.23)" stroke="#000" stroke-width=".26667" fill="#980000"/>
    <path id="path992" d="m-104.53 180.71 3.544-3.544h-3.544v3.544z" transform="matrix(1.8599 0 0 -1.4999 100.72 510.22)" stroke="#000" stroke-width=".26668" fill="#980000"/>
    <path id="path984" d="m-83.268 219.68-5.3148-3.544-5.3151 3.544-5.3149-3.544-5.3145 3.544v-1.771l3.543-1.773-1.772-1.771v-1.772h1.772l1.7715 1.772 1.7714-1.772h1.772v1.772l-1.772 1.771 3.5435 1.772 3.5436-1.772-1.7719-1.771v-1.772h1.7719l1.7715 1.772 1.7714-1.772h1.7719v1.772l-1.7719 1.771 3.5434 1.772 3.5438-1.771-1.772-1.772v-1.772h1.772l1.7714 1.772 1.7714-1.772h1.7719v1.772l-1.7719 1.772 3.5433 1.772v1.771l-5.3147-3.543-5.3152 3.543z" transform="matrix(0 .83335 -.93002 0 106.23 296.16)" stroke-width="0" fill="#004e00"/>
    <path id="path1010" d="m-76.181 154.13h7.0866l1.7717 1.772-1.7717 1.771h-7.0866v-3.543z" transform="matrix(1.24 0 0 .90002 60.095 78.836)" stroke="#000" stroke-width=".26667" fill="#980000"/>
    <path id="path989" d="m-99.213 180.71-3.543 3.544v26.575l3.543 3.543h-5.316l0.001-33.662h5.315z" transform="matrix(1.24 0 0 1 29.339 24.804)" stroke="#000" stroke-width="0.4" fill="#980000"/>
    <path id="path998" d="m-93.898 147.05 3.5433 5.315 3.5433-5.315h-7.0866z" transform="matrix(0.992 0 0 .66666 8.249 146.46)" stroke="#000" stroke-width=".26667" fill="#980000"/>
    <path id="path999" d="m-93.898 147.05 3.5433 5.315 3.5433-5.315h-7.0866z" transform="matrix(0.992 0 0 .66666 22.309 146.46)" stroke="#000" stroke-width=".26667" fill="#980000"/>
    <path id="path1000" d="m-93.898 147.05 3.5433 5.315 3.5433-5.315h-7.0866z" transform="matrix(0.992 0 0 .66666 36.369 146.46)" stroke="#000" stroke-width=".26667" fill="#980000"/>
    <path id="path990" d="m-99.212 180.71-3.5437 3.544v26.575l3.5437 3.543h-5.3147v-33.662h5.3147z" transform="matrix(-1.24 0 0 1 -163.98 24.804)" stroke="#000" stroke-width="0.4" fill="#980000"/>
    <path id="path993" d="m-104.53 180.71 3.544-3.544h-3.544v3.544z" transform="matrix(-1.8599 0 0 -1.4999 -235.37 510.22)" stroke="#000" stroke-width=".26668" fill="#980000"/>
    <path id="path994" d="m-104.53 180.71 3.544-3.544h-3.544v3.544z" transform="matrix(-1.8599 0 0 1.4999 -235.37 -65.534)" stroke="#000" stroke-width=".26668" fill="#980000"/>
    <path id="path991" d="m-104.53 180.71 3.544-3.544h-3.544v3.544z" transform="matrix(1.8599 0 0 1.4999 100.72 -65.534)" stroke="#000" stroke-width=".26668" fill="#980000"/>
    <path id="path981" d="m-100.98 177.17-7.087 7.086v26.575l7.087 7.087h31.889l7.0867-7.087v-26.575l-7.0867-7.086h-31.889zm-0.001-1.773-8.858 8.858v26.575l8.859 8.858h31.889l8.8583-8.858v-26.575l-8.859-8.858h-31.889z" transform="matrix(1.24 0 0 1 38.127 24.804)" stroke="#000" stroke-width=".42667" fill="#004e00"/>
    <path id="path1011" d="m-76.181 154.13h7.0866l1.7717 1.772-1.7717 1.771h-7.0866v-3.543z" transform="matrix(1.24 0 0 .90008 60.094 82.014)" stroke="#000" stroke-width=".26667" fill="#e69900"/>
    <path id="path1012" d="m-76.181 154.13h7.0866l1.7717 1.772-1.7717 1.771h-7.0866v-3.543z" transform="matrix(1.24 0 0 .90002 60.095 85.214)" stroke="#000" stroke-width=".26667" fill="#980000"/>
    <path id="path1013" d="m-76.181 154.13h7.0866l1.7717 1.772-1.7717 1.771h-7.0866v-3.543z" transform="matrix(1.24 0 0 .90008 60.095 88.392)" stroke="#000" stroke-width=".26667" fill="#e69900"/>
    <path id="path1025" d="m-76.181 154.13h7.0866l1.7717 1.772-1.7717 1.771h-7.0866v-3.543z" transform="matrix(1.24 0 0 .90008 60.095 75.636)" stroke="#000" stroke-width=".26667" fill="#e69900"/>
    <path id="path1027" d="m-76.181 154.13h7.0866l1.7717 1.772-1.7717 1.771h-7.0866v-3.543z" transform="matrix(-1.24 0 0 .90002 -194.74 78.836)" stroke="#000" stroke-width=".26667" fill="#980000"/>
    <path id="path1028" d="m-76.181 154.13h7.0866l1.7717 1.772-1.7717 1.771h-7.0866v-3.543z" transform="matrix(-1.24 0 0 .90008 -194.74 82.015)" stroke="#000" stroke-width=".26667" fill="#e69900"/>
    <path id="path1029" d="m-76.181 154.13h7.0866l1.7717 1.772-1.7717 1.771h-7.0866v-3.543z" transform="matrix(-1.24 0 0 .90002 -194.74 85.214)" stroke="#000" stroke-width=".26667" fill="#980000"/>
    <path id="path1030" d="m-76.181 154.13h7.0866l1.7717 1.772-1.7717 1.771h-7.0866v-3.543z" transform="matrix(-1.24 0 0 .90008 -194.74 88.393)" stroke="#000" stroke-width=".26667" fill="#e69900"/>
    <path id="path1031" d="m-76.181 154.13h7.0866l1.7717 1.772-1.7717 1.771h-7.0866v-3.543z" transform="matrix(-1.24 0 0 .90008 -194.74 75.637)" stroke="#000" stroke-width=".26667" fill="#e69900"/>
    <path id="path1037" d="m-100.98 178.94v37.205h8.858v8.858h56.693v-8.858h8.8583v-37.205h-8.8583v-8.858h-56.693v8.858h-8.858zm1.7714 1.772v33.661h8.8583v8.858h53.15v-8.858h8.8582v-33.661h-8.8582v-8.859h-53.15v8.859h-8.8583z" transform="matrix(1.24 0 0 1 11.764 24.803)" stroke="#000" stroke-width=".26667" fill="#970000"/>
   </g>
   <g id="g3017" transform="matrix(1.1481 0 0 1.1176 217.32 -7.8161)">
    <path id="path2276" d="m-28.347 69.094-5.315-7.0866v-5.315l-5.315-5.3147h-10.63l-8.8583-5.315-28.346 0.0002-8.8583 5.315h-10.63l-5.315 5.3147v5.315l-5.315 7.0866v14.173l5.315 7.0866v5.315l5.315 5.3147h10.63l8.8583 5.315h28.346l8.8583-5.315h10.63l5.315-5.3145v-5.315l5.315-7.0866-0.0001-14.174z" transform="matrix(1.08 0 0 1 -1.2755 -24.803)" stroke="#000" stroke-width=".26667" fill="#980000"/>
    <path id="path1003" d="m345.47 251.58v5.315l5.315 7.086v5.315l5.315 5.315h10.63l8.859 5.315h12.402l-0.001-28.346h-42.52z" transform="matrix(1.08 0 0 1 -498.74 -200.2)" stroke-width="1pt" fill="#e69900"/>
    <path id="path2255" d="m328.36 268.9-8.416 7.965h-5.027l1.676 2.654-3.351 5.31 1.675 2.655 5.027-2.655 1.676 2.655 0.774-7.094 9.28-8.397-3.314-3.093z" transform="matrix(.83045 0 0 0.572 -368.56 -90.034)" stroke-width="1pt" fill="#980000"/>
    <path id="path2256" d="m328.36 268.9-8.416 7.965h-5.027l1.676 2.654-3.351 5.31 1.675 2.655 5.027-2.655 1.676 2.655 0.774-7.094 9.28-8.397-3.314-3.093z" transform="matrix(.83045 0 0 0.572 -376.21 -93.577)" stroke-width="1pt" fill="#980000"/>
    <path id="path2257" d="m328.36 268.9-8.416 7.965h-5.027l1.676 2.654-3.351 5.31 1.675 2.655 5.027-2.655 1.676 2.655 0.774-7.094 9.28-8.397-3.314-3.093z" transform="matrix(.83045 0 0 0.572 -380.04 -100.66)" stroke-width="1pt" fill="#980000"/>
    <path id="path1004" d="m345.47 251.58v5.315l5.315 7.086v5.315l5.315 5.315h10.63l8.859 5.315h12.402l-0.001-28.346h-42.52z" transform="matrix(-1.08 0 0 -1 339.29 302.96)" stroke-width="1pt" fill="#e69900"/>
    <path id="path3007" d="m-72.638 47.835h3.2809l3.8057 3.5431 6.0368 0.0002 3.2808 1.7716-1.6404 1.7717-3.2809-1.7717h-3.2808l-3.2808 5.315-4.9213-1.7717v-3.5433h4.9213l-4.9213-5.3149z" transform="matrix(-1.08 0 0 -1 -158.17 127.56)" stroke-width="1pt" fill="#980000"/>
    <path id="path1005" d="m345.47 251.58v5.315l5.315 7.086v5.315l5.315 5.315h10.63l8.859 5.315h12.402l-0.001-28.346h-42.52z" transform="matrix(1.08 0 0 -1 -498.74 302.96)" stroke-width="1pt" fill="#fff"/>
    <path id="path3008" d="m-72.638 47.835h3.2809l3.8057 3.5431 6.0368 0.0002 3.2808 1.7716-1.6404 1.7717-3.2809-1.7717h-3.2808l-3.2808 5.315-4.9213-1.7717v-3.5433h4.9213l-4.9213-5.3149z" transform="matrix(-1.08 0 0 1 -158.17 -24.804)" stroke-width="1pt" fill="#980000"/>
    <path id="path3009" d="m-72.638 47.835h3.2809l3.8057 3.5431 6.0368 0.0002 3.2808 1.7716-1.6404 1.7717-3.2809-1.7717h-3.2808l-3.2808 5.315-4.9213-1.7717v-3.5433h4.9213l-4.9213-5.3149z" transform="matrix(1.08 0 0 1 -1.2754 -24.804)" stroke-width="1pt" fill="#980000"/>
    <path id="path1006" d="m345.47 251.58v5.315l5.315 7.086v5.315l5.315 5.315h10.63l8.859 5.315h12.402l-0.001-28.346h-42.52z" transform="matrix(-1.08 0 0 1 339.29 -200.2)" stroke-width="1pt" fill="#fff"/>
    <path id="path2265" d="m-72.638 47.835h3.2809l3.8057 3.5431 6.0368 0.0002 3.2808 1.7716-1.6404 1.7717-3.2809-1.7717h-3.2808l-3.2808 5.315-4.9213-1.7717v-3.5433h4.9213l-4.9213-5.3149z" transform="matrix(1.08 0 0 -1 -1.2754 127.56)" stroke-width="1pt" fill="#980000"/>
    <path id="path2253" d="m328.36 268.9-8.416 7.965h-5.027l1.676 2.654-3.351 5.31 1.675 2.655 5.027-2.655 1.676 2.655 0.774-7.094 9.28-8.397-3.314-3.093z" transform="matrix(.83045 0 0 -0.572 -376.21 196.33)" stroke-width="1pt" fill="#980000"/>
    <path id="path2247" d="m328.36 268.9-8.416 7.965h-5.027l1.676 2.654-3.351 5.31 1.675 2.655 5.027-2.655 1.676 2.655 0.774-7.094 9.28-8.397-3.314-3.093z" transform="matrix(-.83045 0 0 -0.572 209.11 192.79)" stroke-width="1pt" fill="#980000"/>
    <path id="path2252" d="m328.36 268.9-8.416 7.965h-5.027l1.676 2.654-3.351 5.31 1.675 2.655 5.027-2.655 1.676 2.655 0.774-7.094 9.28-8.397-3.314-3.093z" transform="matrix(.83045 0 0 -0.572 -368.56 192.79)" stroke-width="1pt" fill="#980000"/>
    <path id="path2254" d="m328.36 268.9-8.416 7.965h-5.027l1.676 2.654-3.351 5.31 1.675 2.655 5.027-2.655 1.676 2.655 0.774-7.094 9.28-8.397-3.314-3.093z" transform="matrix(.83045 0 0 -0.572 -380.04 203.42)" stroke-width="1pt" fill="#980000"/>
    <path id="path3004" d="m334.75 269.29h1.555l1.554 1.635 1.554-1.635 32.636-0.001v22.895h-1.554l1.554 1.636v1.635l-4.662-4.906v-1.635h1.554v1.635h1.554v-1.635l-12.619-7.223h-10.63v-7.087l-4.725-3.679h-3.108l-1.554 1.635 1.554 1.636h-1.554l-3.109-4.906z" transform="matrix(1.14 0 0 1.0834 -503.85 -240.36)" stroke-width="0" fill="#fff"/>
    <path id="path3005" d="m334.75 269.29h1.555l1.554 1.635 1.554-1.635 32.636-0.001v22.895h-1.554l1.554 1.636v1.635l-4.662-4.906v-1.635h1.554v1.635h1.554v-1.635l-12.619-7.223h-10.63v-7.087l-4.725-3.679h-3.108l-1.554 1.635 1.554 1.636h-1.554l-3.109-4.906z" transform="matrix(1.14 0 0 -1.0834 -503.85 343.12)" stroke-width="0" fill="#e69900"/>
    <path id="path1015" d="m340.16 269.29h31.89v21.26l-14.173-8.858h-10.63v-7.087l-7.087-5.315z" transform="matrix(1.08 0 0 1 -481.53 -217.92)" stroke-width="0" fill="#004e00"/>
    <path id="path2250" d="m328.36 268.9-8.416 7.965h-5.027l1.676 2.654-3.351 5.31 1.675 2.655 5.027-2.655 1.676 2.655 0.774-7.094 9.28-8.397-3.314-3.093z" transform="matrix(-.83045 0 0 -0.572 216.76 196.33)" stroke-width="1pt" fill="#980000"/>
    <path id="path2251" d="m328.36 268.9-8.416 7.965h-5.027l1.676 2.654-3.351 5.31 1.675 2.655 5.027-2.655 1.676 2.655 0.774-7.094 9.28-8.397-3.314-3.093z" transform="matrix(-.83045 0 0 -0.572 220.59 203.42)" stroke-width="1pt" fill="#980000"/>
    <path id="path1016" d="m334.75 269.29h1.555l1.554 1.635 1.554-1.635 32.636-0.001v22.895h-1.554l1.554 1.636v1.635l-4.662-4.906v-1.635h1.554v1.635h1.554v-1.635l-12.619-7.223h-10.63v-7.087l-4.725-3.679h-3.108l-1.554 1.635 1.554 1.636h-1.554l-3.109-4.906z" transform="matrix(-1.14 0 0 -1.0834 344.4 343.12)" stroke-width="0" fill="#fff"/>
    <path id="path1017" d="m340.16 269.29h31.89v21.26l-14.173-8.858h-10.63v-7.087l-7.087-5.315z" transform="matrix(-1.08 0 0 -1 322.08 320.68)" stroke-width="0" fill="#004e00"/>
    <path id="path2258" d="m328.36 268.9-8.416 7.965h-5.027l1.676 2.654-3.351 5.31 1.675 2.655 5.027-2.655 1.676 2.655 0.774-7.094 9.28-8.397-3.314-3.093z" transform="matrix(-.83045 0 0 0.572 209.11 -90.034)" stroke-width="1pt" fill="#980000"/>
    <path id="path2259" d="m328.36 268.9-8.416 7.965h-5.027l1.676 2.654-3.351 5.31 1.675 2.655 5.027-2.655 1.676 2.655 0.774-7.094 9.28-8.397-3.314-3.093z" transform="matrix(-.83045 0 0 0.572 216.76 -93.577)" stroke-width="1pt" fill="#980000"/>
    <path id="path2260" d="m328.36 268.9-8.416 7.965h-5.027l1.676 2.654-3.351 5.31 1.675 2.655 5.027-2.655 1.676 2.655 0.774-7.094 9.28-8.397-3.314-3.093z" transform="matrix(-.83045 0 0 0.572 220.59 -100.66)" stroke-width="1pt" fill="#980000"/>
    <path id="path3003" d="m334.75 269.29h1.555l1.554 1.635 1.554-1.635 32.636-0.001v22.895h-1.554l1.554 1.636v1.635l-4.662-4.906v-1.635h1.554v1.635h1.554v-1.635l-12.619-7.223h-10.63v-7.087l-4.725-3.679h-3.108l-1.554 1.635 1.554 1.636h-1.554l-3.109-4.906z" transform="matrix(-1.14 0 0 1.0834 344.4 -240.36)" stroke-width="0" fill="#e69900"/>
    <path id="path1019" d="m340.16 269.29h31.89v21.26l-14.173-8.858h-10.63v-7.087l-7.087-5.315z" transform="matrix(-1.08 0 0 1 322.08 -217.92)" stroke-width="0" fill="#980000"/>
    <path id="path1021" d="m340.16 269.29h31.89v21.26l-14.173-8.858h-10.63v-7.087l-7.087-5.315z" transform="matrix(1.08 0 0 -1 -481.53 320.68)" stroke-width="0" fill="#980000"/>
    <path id="path1023" d="m328.36 268.9-8.416 7.965h-5.027l1.676 2.654-3.351 5.31 1.675 2.655 5.027-2.655 1.676 2.655 0.774-7.094 9.28-8.397-3.314-3.093z" transform="matrix(-1.1419 0 0 -.66735 299.01 230.83)" stroke-width="1pt" fill="#980000"/>
    <path id="path2244" d="m328.36 268.9-8.416 7.965h-5.027l1.676 2.654-3.351 5.31 1.675 2.655 5.027-2.655 1.676 2.655 0.774-7.094 9.28-8.397-3.314-3.093z" transform="matrix(1.1419 0 0 .66735 -458.46 -128.08)" stroke-width="1pt" fill="#980000"/>
    <path id="path2245" d="m328.36 268.9-8.416 7.965h-5.027l1.676 2.654-3.351 5.31 1.675 2.655 5.027-2.655 1.676 2.655 0.774-7.094 9.28-8.397-3.314-3.093z" transform="matrix(1.1419 0 0 -.66735 -458.46 230.83)" stroke-width="1pt" fill="#004e00"/>
    <path id="path2246" d="m328.36 268.9-8.416 7.965h-5.027l1.676 2.654-3.351 5.31 1.675 2.655 5.027-2.655 1.676 2.655 0.774-7.094 9.28-8.397-3.314-3.093z" transform="matrix(-1.1419 0 0 .66735 299.01 -128.08)" stroke-width="1pt" fill="#004e00"/>
    <path id="path1026" d="m311.81 217.91 8.858-5.315 8.859 5.315-8.859 5.315-8.858-5.315z" transform="matrix(1.296 0 0 1.6667 -495.31 -311.81)" stroke-width="1.2457" fill="#fff"/>
    <path id="path3010" d="m-66.076 53.15-1.6404-1.7716 1.6404-1.7717h1.6404l4.9213 7.0866h-1.6405l-3.2808-5.3149h-1.6404l1.6404 1.7716-1.6404 1.7717h-3.2808v-1.7717h3.2808z" transform="matrix(-1.08 0 0 -1 -188.29 108.07)" stroke-width="1pt" fill="#980000"/>
    <path id="path3012" d="m-66.076 53.15-1.6404-1.7716 1.6404-1.7717h1.6404l4.9213 7.0866h-1.6405l-3.2808-5.3149h-1.6404l1.6404 1.7716-1.6404 1.7717h-3.2808v-1.7717h3.2808z" transform="matrix(-1.08 0 0 1 -188.29 -5.3154)" stroke-width="1pt" fill="#980000"/>
    <path id="path3013" d="m-66.076 53.15-1.6404-1.7716 1.6404-1.7717h1.6404l4.9213 7.0866h-1.6405l-3.2808-5.3149h-1.6404l1.6404 1.7716-1.6404 1.7717h-3.2808v-1.7717h3.2808z" transform="matrix(1.08 0 0 -1 28.843 108.07)" stroke-width="1pt" fill="#980000"/>
    <path id="path3014" d="m-66.076 53.15-1.6404-1.7716 1.6404-1.7717h1.6404l4.9213 7.0866h-1.6405l-3.2808-5.3149h-1.6404l1.6404 1.7716-1.6404 1.7717h-3.2808v-1.7717h3.2808z" transform="matrix(1.08 0 0 1 28.843 -5.3154)" stroke-width="1pt" fill="#980000"/>
    <rect id="rect3015" height="14.173" width="3.5433" y="44.291" x="-81.496" stroke-width="1pt" fill="#980000"/>
    <rect id="rect3016" height="7.0866" width="14.173" y="47.835" x="-86.811" stroke-width="1pt" fill="#980000"/>
   </g>
   <g id="g3091" transform="translate(267.52 -5.3149)">
    <path id="path1088" d="m333.07 170.08-10.63 5.315v8.858l10.63 5.315h10.63l10.63-5.315v-8.858l-10.63-5.315h-10.63z" transform="matrix(3.4444 0 0 3.7273 -1307.3 -277.83)" stroke="#000" stroke-width=".070263" fill="#004e00"/>
    <path id="path1101" d="m302.95 233.86h1.771v-5.315h3.544v5.315h1.771v-12.401h-1.771v5.315h-3.544v-5.315h-1.771v12.401z" transform="matrix(1.2501 0 0 .76401 -561.78 210.59)" stroke-width="1pt" fill="#c00"/>
    <path id="path1103" d="m302.95 233.86h1.771v-5.315h3.544v5.315h1.771v-12.401h-1.771v5.315h-3.544v-5.315h-1.771v12.401z" transform="matrix(1.2501 0 0 .76401 -505.68 242.17)" stroke-width="1pt" fill="#c00"/>
    <path id="path1104" d="m302.95 233.86h1.771v-5.315h3.544v5.315h1.771v-12.401h-1.771v5.315h-3.544v-5.315h-1.771v12.401z" transform="matrix(1.2501 0 0 .76401 -541.11 194.8)" stroke-width="1pt" fill="#c00"/>
    <path id="path1105" d="m302.95 233.86h1.771v-5.315h3.544v5.315h1.771v-12.401h-1.771v5.315h-3.544v-5.315h-1.771v12.401z" transform="matrix(1.2501 0 0 .76401 -508.63 194.8)" stroke-width="1pt" fill="#c00"/>
    <path id="path1106" d="m302.95 233.86h1.771v-5.315h3.544v5.315h1.771v-12.401h-1.771v5.315h-3.544v-5.315h-1.771v12.401z" transform="matrix(1.2501 0 0 .76401 -487.97 210.59)" stroke-width="1pt" fill="#c00"/>
    <path id="path1107" d="m302.95 233.86h1.771v-5.315h3.544v5.315h1.771v-12.401h-1.771v5.315h-3.544v-5.315h-1.771v12.401z" transform="matrix(1.2501 0 0 .76401 -487.97 226.38)" stroke-width="1pt" fill="#c00"/>
    <path id="path868" d="m-205.51 345.47v38.977h53.15v-17.717l-35.433-21.26h-17.717z" transform="matrix(1 0 0 -.89130 63.779 735.08)" stroke-width="1pt" fill="#e69900"/>
    <path id="path869" d="m-205.51 345.47v38.977h53.15v-17.717l-35.433-21.26h-17.717z" transform="matrix(-1 0 0 .89130 -347.24 49.76)" stroke-width="1pt" fill="#e69900"/>
    <path id="path866" d="m-205.51 345.47v38.977h53.15v-17.717l-35.433-21.26h-17.717z" transform="matrix(1 0 0 .89130 63.779 49.76)" stroke-width="1pt" fill="#fff"/>
    <path id="path870" d="m-205.51 345.47 0.001 38.976 53.149 0.001v-17.717l-35.433-21.26h-17.717z" transform="matrix(-1 0 0 -.89130 -347.24 735.08)" stroke-width="1pt" fill="#fff"/>
    <path id="path864" d="m-177.16 368.5h21.259l-21.259-10.63v10.63zm24.803-1.772-0.001 17.717h-33.661v-14.173h-7.086l-8.858-5.315v-12.402l5.314-5.315h-7.086v17.717h-1.772v-19.489h17.717l35.433 21.26z" transform="matrix(1 0 0 .89130 63.779 49.761)" stroke="#000" stroke-width=".13333" fill="#e69900"/>
    <path id="path1089" d="m333.07 176.72v6.2h1.594l3.721 1.772 3.721-1.772h1.594v-6.2h-1.594l-3.721-1.772-3.721 1.772h-1.594z" transform="matrix(3.3333 0 0 3.5653 -1269.7 -248.7)" stroke-width="0.625" fill="#980000"/>
    <path id="path871" d="m-177.16 368.5h21.259l-21.259-10.63v10.63zm24.803-1.772-0.001 17.717h-33.661v-14.173h-7.086l-8.858-5.315v-12.402l5.314-5.315h-7.086v17.717h-1.772v-19.489h17.717l35.433 21.26z" transform="matrix(-1 0 0 -.89130 -347.24 735.08)" stroke="#000" stroke-width=".13333" fill="#e69900"/>
    <path id="path872" d="m-177.16 368.5h21.259l-21.259-10.63v10.63zm24.803-1.772-0.001 17.717h-33.661v-14.173h-7.086l-8.858-5.315v-12.402l5.314-5.315h-7.086v17.717h-1.772v-19.489h17.717l35.433 21.26z" transform="matrix(-1 0 0 .89130 -347.24 49.761)" stroke="#000" stroke-width=".13333" fill="#fff"/>
    <path id="path873" d="m-177.16 368.5h21.259l-21.259-10.63v10.63zm24.803-1.772-0.001 17.717h-33.661v-14.173h-7.086l-8.858-5.315v-12.402l5.314-5.315h-7.086v17.717h-1.772v-19.489h17.717l35.433 21.26z" transform="matrix(1 0 0 -.89130 63.78 735.08)" stroke="#000" stroke-width=".13333" fill="#fff"/>
    <path id="path1102" d="m302.95 233.86h1.771v-5.315h3.544v5.315h1.771v-12.401h-1.771v5.315h-3.544v-5.315h-1.771v12.401z" transform="matrix(1.2501 0 0 .89135 -562.96 196.61)" stroke-width="1pt" fill="#980000"/>
    <path id="path1100" d="m302.95 233.86h1.771v-5.315h3.544v5.315h1.771v-12.401h-1.771v5.315h-3.544v-5.315h-1.771v12.401z" transform="matrix(1.2501 0 0 .89135 -541.71 212.4)" stroke-width="1pt" fill="#980000"/>
    <path id="path874" d="m302.95 233.86h1.771v-5.315h3.544v5.315h1.771v-12.401h-1.771v5.315h-3.544v-5.315h-1.771v12.401z" transform="matrix(1.2501 0 0 -.89134 -562.96 588.24)" stroke-width="1pt" fill="#980000"/>
    <path id="path876" d="m302.95 233.86h1.771v-5.315h3.544v5.315h1.771v-12.401h-1.771v5.315h-3.544v-5.315h-1.771v12.401z" transform="matrix(1.2501 0 0 -.89135 -541.71 572.45)" stroke-width="1pt" fill="#980000"/>
    <path id="path877" d="m302.95 233.86h1.771v-5.315h3.544v5.315h1.771v-12.401h-1.771v5.315h-3.544v-5.315h-1.771v12.401z" transform="matrix(1.2501 0 0 .89135 -508.04 212.4)" stroke-width="1pt" fill="#980000"/>
    <path id="path878" d="m302.95 233.86h1.771v-5.315h3.544v5.315h1.771v-12.401h-1.771v5.315h-3.544v-5.315h-1.771v12.401z" transform="matrix(1.2501 0 0 .89135 -486.78 182.39)" stroke-width="1pt" fill="#980000"/>
    <path id="path880" d="m302.95 233.86h1.771v-5.315h3.544v5.315h1.771v-12.401h-1.771v5.315h-3.544v-5.315h-1.771v12.401z" transform="matrix(1.2501 0 0 .89135 -508.04 212.4)" stroke-width="1pt" fill="#980000"/>
    <path id="path881" d="m302.95 233.86h1.771v-5.315h3.544v5.315h1.771v-12.401h-1.771v5.315h-3.544v-5.315h-1.771v12.401z" transform="matrix(1.2501 0 0 .89135 -508.04 212.4)" stroke-width="1pt" fill="#980000"/>
    <path id="path882" d="m302.95 233.86h1.771v-5.315h3.544v5.315h1.771v-12.401h-1.771v5.315h-3.544v-5.315h-1.771v12.401z" transform="matrix(1.2501 0 0 .89135 -486.78 196.6)" stroke-width="1pt" fill="#980000"/>
    <path id="path892" d="m302.95 233.86h1.771v-5.315h3.544v5.315h1.771v-12.401h-1.771v5.315h-3.544v-5.315h-1.771v12.401z" transform="matrix(1.2501 0 0 .89135 -508.04 166.6)" stroke-width="1pt" fill="#980000"/>
    <path id="path3090" d="m-154.13 334.84 7.087-7.088h3.543v3.543h-3.543v1.772h5.314v-7.086l-5.314-0.001v-5.314h-7.087v5.314h1.772v-3.544h3.543v3.544l-7.086 7.087-7.087-7.086v-3.543h3.543v3.543h1.772v-5.315l-7.087 0.001v5.314h-5.315v7.088h5.315v-1.772h-3.544v-3.544h3.544l7.087 7.086-7.087 7.086h-3.543v-3.543h3.543v-1.772h-5.314v7.087h5.314v5.314l7.087 0.002v-5.316h-1.771v3.544h-3.543v-3.544l7.085-7.086 7.088 7.088v3.543h-3.543v-3.543h-1.772v5.314h7.086v-5.314l5.315-0.002v-7.086h-5.315v1.772h3.544v3.544h-3.544l-7.087-7.087z" transform="matrix(1 0 0 .81248 14.173 120.37)" stroke-width="1.2469" fill="#004e00"/>
   </g>
   <g id="g3152" transform="matrix(1 0 0 .92857 198.43 17.59)">
    <path id="path701" d="m372.05 391.54 3.544-3.543h21.259l15.945-15.946h21.26l15.945 15.945h21.26l3.543 3.543-3.543 3.544h-21.26l-15.945 15.945h-21.26l-15.945-15.945h-21.259l-3.544-3.543z" transform="matrix(.96774 0 0 1.0526 -482.4 -277.85)" stroke-width="1pt" fill="#980000"/>
    <path id="path3151" d="m372.05 391.54 1.903-1.949h22.834l17.126-19.489h19.029l17.126 19.489h22.835l1.903 1.949-1.903 1.948h-22.835l-15.223 17.54h-22.834l-15.224-17.54h-22.834l-1.903-1.948z" transform="matrix(.93104 0 0 .90908 -466.86 -221.29)" stroke="#000" stroke-width=".28986" fill="#980000"/>
    <path id="path713" d="m428.74 354.33 7.087 7.086-3.543 3.543-1.772-1.772h-1.771v1.772l1.771 1.772h3.544l3.543-3.544v-3.543l-7.086-7.086 7.086-7.087v-3.543l-3.543-3.543h-3.543l-1.772 1.771v1.772h1.772l1.771-1.772 3.543 3.544-7.086 7.086-7.087-7.086 7.087-7.087v-1.771h-1.772l-7.086 7.086-7.087-7.087h-1.772v1.771l7.087 7.087-7.087 7.087-7.087-7.086 3.543-3.544 1.772 1.772h1.772v-1.772l-1.772-1.771h-3.543l-3.544 3.543v3.543l7.087 7.087-7.087 7.087v3.543l3.544 3.543h3.543l1.772-1.771v-1.772h-1.772l-1.772 1.772-3.543-3.544 7.087-7.086 7.086 7.086-7.086 7.087-0.001 1.772h1.772l7.087-7.087 7.087 7.087h1.771v-1.772l-7.086-7.087 7.086-7.086zm-8.858-8.859-7.087 7.087 7.087 7.087 7.087-7.087-7.087-7.087z" transform="matrix(.96774 0 0 1.0526 -478.98 -236.82)" stroke-width="0" fill="#e69900"/>
    <path id="path714" d="m412.8 411.02v14.173l1.772-1.772 1.772 1.772 1.771-1.772 1.772 1.772 1.772-1.772 1.771 1.772 1.772-1.772 1.772 1.772 1.771-1.772 1.772 1.772 1.771-1.772 1.772 1.772v-14.173h-21.26z" transform="matrix(.96774 0 0 1.0526 -482.4 -277.85)" stroke-width="1pt" fill="#e69900"/>
    <path id="path715" d="m412.8 411.02v14.173l1.772-1.772 1.772 1.772 1.771-1.772 1.772 1.772 1.772-1.772 1.771 1.772 1.772-1.772 1.772 1.772 1.771-1.772 1.772 1.772 1.771-1.772 1.772 1.772v-14.173h-21.26z" transform="matrix(-.96774 0 0 -1.0526 337.13 546.43)" stroke-width="1pt" fill="#e69900"/>
    <path id="path716" d="m419.88 411.02v14.173l1.772-1.772 1.771 1.772 1.772-1.772 1.772 1.772 1.771-1.772 1.772 1.772 1.771-1.772 1.772 1.772v-14.173h-14.173z" transform="matrix(-.96774 0 0 -1.0526 373.13 563.22)" stroke-width="1pt" fill="#e69900"/>
    <path id="path717" d="m419.88 411.02v14.173l1.772-1.772 1.771 1.772 1.772-1.772 1.772 1.772 1.771-1.772 1.772 1.772 1.771-1.772 1.772 1.772v-14.173h-14.173z" transform="matrix(-.96774 0 0 -1.0526 307.98 563.22)" stroke-width="1pt" fill="#e69900"/>
    <path id="path718" d="m419.88 411.02v14.173l1.772-1.772 1.771 1.772 1.772-1.772 1.772 1.772 1.771-1.772 1.772 1.772 1.771-1.772 1.772 1.772v-14.173h-14.173z" transform="matrix(-.96774 0 0 1.0526 373.13 -294.63)" stroke-width="1pt" fill="#e69900"/>
    <path id="path719" d="m419.88 411.02v14.173l1.772-1.772 1.771 1.772 1.772-1.772 1.772 1.772 1.771-1.772 1.772 1.772 1.771-1.772 1.772 1.772v-14.173h-14.173z" transform="matrix(-.96774 0 0 1.0526 307.98 -294.63)" stroke-width="1pt" fill="#e69900"/>
    <path id="path721" d="m412.8 411.02-0.001 8.858 1.772-1.772 1.772 1.772 1.771-1.772 1.772 1.772 1.772-1.772 1.771 1.772 1.772-1.772 1.771 1.772 1.772-1.772v-23.031l-15.944 15.945z" transform="matrix(.96774 0 0 1.0526 -461.83 -277.85)" stroke-width="1pt" fill="#004e00"/>
    <path id="path722" d="m412.8 411.02v8.859l1.772-1.772 1.772 1.772 1.771-1.772 1.772 1.772 1.772-1.772 1.771 1.772 1.772-1.772 1.771 1.772 1.772-1.772-0.001-23.032-15.944 15.945z" transform="matrix(-.96774 0 0 1.0526 316.55 -277.85)" stroke-width="1pt" fill="#004e00"/>
    <path id="path723" d="m412.8 411.02-0.001 8.858 1.772-1.772 1.772 1.772 1.771-1.772 1.772 1.772 1.772-1.772 1.771 1.772 1.772-1.772 1.771 1.772 1.772-1.772v-23.031l-15.944 15.945z" transform="matrix(-.96774 0 0 -1.0526 316.55 546.43)" stroke-width="1pt" fill="#004e00"/>
    <path id="path724" d="m412.8 411.02-0.001 8.858 1.772-1.772 1.772 1.772 1.771-1.772 1.772 1.772 1.772-1.772 1.771 1.772 1.772-1.772 1.771 1.772 1.772-1.772v-23.031l-15.944 15.945z" transform="matrix(.96774 0 0 -1.0526 -461.83 546.43)" stroke-width="1pt" fill="#004e00"/>
    <path id="path740" d="m380.9 414.57-1.772-1.772-1.77 1.772-1.772-1.772-1.772 1.772-1.772-1.772-1.772 1.772-1.77-1.772-1.772 1.772-0.001-28.347 1.772 1.772 1.771-1.772 1.772 1.772 1.771-1.772 1.772 1.772 1.772-1.772 1.771 1.772 1.772-1.772v10.631h-7.086l-3.544 3.543 3.544 3.543h7.086v10.63z" transform="matrix(.96774 0 0 1.0526 -480.69 -287.17)" stroke-width="1pt" fill="#004e00"/>
    <path id="path741" d="m380.9 414.57-1.772-1.772-1.77 1.772-1.772-1.772-1.772 1.772-1.772-1.772-1.772 1.772-1.77-1.772-1.772 1.772-0.001-28.347 1.772 1.772 1.771-1.772 1.772 1.772 1.771-1.772 1.772 1.772 1.772-1.772 1.771 1.772 1.772-1.772v10.631h-7.086l-3.544 3.543 3.544 3.543h7.086v10.63z" transform="matrix(-.96774 0 0 1.0526 335.41 -287.17)" stroke-width="1pt" fill="#004e00"/>
    <path id="path745" d="m357.87 396.85s-3.543 3.544-3.543 5.315c-0.07 1.652 3.779 5.354 5.315 5.315 2.007 0.039 5.315-3.543 5.315-5.315 0-1.771-3.544-5.315-3.544-5.315v-7.086s7.696 12.183 7.696 6.868c0-3.812-7.696-10.412-7.696-10.412h-3.543s-7.696 7.727-7.696 10.412c0 5.315 7.696-6.868 7.696-6.868v7.086z" transform="matrix(.40322 0 0 .41595 -235.66 -9.0922)" stroke-width="1pt" fill="#fff"/>
    <path id="path753" d="m357.87 396.85s-3.543 3.544-3.543 5.315c-0.07 1.652 3.779 5.354 5.315 5.315 2.007 0.039 5.315-3.543 5.315-5.315 0-1.771-3.544-5.315-3.544-5.315v-7.086s6.276 11.593 6.276 6.278c0-3.437-6.276-9.822-6.276-9.822h-3.543s-7.244 7.994-6.275 9.821c0 5.315 6.275-6.277 6.275-6.277v7.086z" transform="matrix(.48387 0 0 .58233 -246.66 -69.429)" stroke-width="1pt" fill="#980000"/>
    <ellipse id="path758" fill="#004e00" transform="matrix(.96774 0 0 1.0526 -482.4 -277.85)" cx="403.94" rx="3.5433" cy="391.54" ry="1.7717" stroke-width="1pt" d="m 407.48032,391.5354 c 0,0.97846 -1.5864,1.77165 -3.54331,1.77165 -1.95691,0 -3.5433,-0.79319 -3.5433,-1.77165 0,-0.97846 1.58639,-1.77165 3.5433,-1.77165 1.95691,0 3.54331,0.79319 3.54331,1.77165 z"/>
    <ellipse id="path759" fill="#004e00" transform="matrix(.96774 0 0 1.0526 -463.54 -277.85)" cx="403.94" rx="3.5433" cy="391.54" ry="1.7717" stroke-width="1pt" d="m 407.48032,391.5354 c 0,0.97846 -1.5864,1.77165 -3.54331,1.77165 -1.95691,0 -3.5433,-0.79319 -3.5433,-1.77165 0,-0.97846 1.58639,-1.77165 3.5433,-1.77165 1.95691,0 3.54331,0.79319 3.54331,1.77165 z"/>
    <ellipse id="path760" fill="#004e00" transform="matrix(.96774 0 0 1.0526 -444.69 -277.85)" cx="403.94" rx="3.5433" cy="391.54" ry="1.7717" stroke-width="1pt" d="m 407.48032,391.5354 c 0,0.97846 -1.5864,1.77165 -3.54331,1.77165 -1.95691,0 -3.5433,-0.79319 -3.5433,-1.77165 0,-0.97846 1.58639,-1.77165 3.5433,-1.77165 1.95691,0 3.54331,0.79319 3.54331,1.77165 z"/>
    <path id="path1819" d="m357.87 396.85s-3.543 3.544-3.543 5.315c-0.07 1.652 3.779 5.354 5.315 5.315 2.007 0.039 5.315-3.543 5.315-5.315 0-1.771-3.544-5.315-3.544-5.315v-7.086s7.696 12.183 7.696 6.868c0-3.812-7.696-10.412-7.696-10.412h-3.543s-7.696 7.727-7.696 10.412c0 5.315 7.696-6.868 7.696-6.868v7.086z" transform="matrix(.40322 0 0 -.41595 -236.02 277.83)" stroke-width="1pt" fill="#fff"/>
    <path id="path1820" d="m357.87 396.85s-3.543 3.544-3.543 5.315c-0.07 1.652 3.779 5.354 5.315 5.315 2.007 0.039 5.315-3.543 5.315-5.315 0-1.771-3.544-5.315-3.544-5.315v-7.086s6.276 11.593 6.276 6.278c0-3.437-6.276-9.822-6.276-9.822h-3.543s-7.244 7.994-6.275 9.821c0 5.315 6.275-6.277 6.275-6.277v7.086z" transform="matrix(.48387 0 0 -.58233 -247.02 338.16)" stroke-width="1pt" fill="#980000"/>
    <path id="path1821" d="m357.87 396.85s-3.543 3.544-3.543 5.315c-0.07 1.652 3.779 5.354 5.315 5.315 2.007 0.039 5.315-3.543 5.315-5.315 0-1.771-3.544-5.315-3.544-5.315v-7.086s7.696 12.183 7.696 6.868c0-3.812-7.696-10.412-7.696-10.412h-3.543s-7.696 7.727-7.696 10.412c0 5.315 7.696-6.868 7.696-6.868v7.086z" transform="matrix(.40322 0 0 .41595 -199.16 -9.0922)" stroke-width="1pt" fill="#fff"/>
    <path id="path1822" d="m357.87 396.85s-3.543 3.544-3.543 5.315c-0.07 1.652 3.779 5.354 5.315 5.315 2.007 0.039 5.315-3.543 5.315-5.315 0-1.771-3.544-5.315-3.544-5.315v-7.086s7.696 12.183 7.696 6.868c0-3.812-7.696-10.412-7.696-10.412h-3.543s-7.696 7.727-7.696 10.412c0 5.315 7.696-6.868 7.696-6.868v7.086z" transform="matrix(.40322 0 0 -.41595 -199.52 277.83)" stroke-width="1pt" fill="#fff"/>
    <path id="path1823" d="m357.87 396.85s-3.543 3.544-3.543 5.315c-0.07 1.652 3.779 5.354 5.315 5.315 2.007 0.039 5.315-3.543 5.315-5.315 0-1.771-3.544-5.315-3.544-5.315v-7.086s6.276 11.593 6.276 6.278c0-3.437-6.276-9.822-6.276-9.822h-3.543s-7.244 7.994-6.275 9.821c0 5.315 6.275-6.277 6.275-6.277v7.086z" transform="matrix(.53608 0 0 .39023 -298.12 -9.2701)" stroke-width="1pt" fill="#980000"/>
    <path id="path1824" d="m357.87 396.85s-3.543 3.544-3.543 5.315c-0.07 1.652 3.779 5.354 5.315 5.315 2.007 0.039 5.315-3.543 5.315-5.315 0-1.771-3.544-5.315-3.544-5.315v-7.086s6.276 11.593 6.276 6.278c0-3.437-6.276-9.822-6.276-9.822h-3.543s-7.244 7.994-6.275 9.821c0 5.315 6.275-6.277 6.275-6.277v7.086z" transform="matrix(.53608 0 0 -.39022 -298.52 279.33)" stroke-width="1pt" fill="#980000"/>
    <path id="path1825" d="m357.87 396.85s-3.543 3.544-3.543 5.315c-0.07 1.652 3.779 5.354 5.315 5.315 2.007 0.039 5.315-3.543 5.315-5.315 0-1.771-3.544-5.315-3.544-5.315v-7.086s6.276 11.593 6.276 6.278c0-3.437-6.276-9.822-6.276-9.822h-3.543s-7.244 7.994-6.275 9.821c0 5.315 6.275-6.277 6.275-6.277v7.086z" transform="matrix(.53608 0 0 .39023 -232.27 -9.7121)" stroke-width="1pt" fill="#980000"/>
    <path id="path1826" d="m357.87 396.85s-3.543 3.544-3.543 5.315c-0.07 1.652 3.779 5.354 5.315 5.315 2.007 0.039 5.315-3.543 5.315-5.315 0-1.771-3.544-5.315-3.544-5.315v-7.086s6.276 11.593 6.276 6.278c0-3.437-6.276-9.822-6.276-9.822h-3.543s-7.244 7.994-6.275 9.821c0 5.315 6.275-6.277 6.275-6.277v7.086z" transform="matrix(.53608 0 0 -.39022 -232.67 278.89)" stroke-width="1pt" fill="#980000"/>
    <path id="path1827" d="m354.98 396.41c-1.526 3.07-1.123 4.474-1.123 6.245-0.071 1.652 4.256 4.868 5.792 4.829 2.007 0.039 5.315-3.543 5.315-5.315 0-1.771 0.084-3.301-0.738-6.355l-2.215 5.178c-2.689-7.346-2.835-7.517-4.431 0.178l-2.6-4.76z" transform="matrix(.40322 0 0 -.41595 -263.42 310.25)" stroke-width="1pt" fill="#fff"/>
    <path id="path1828" d="m354.98 396.41c-1.526 3.07-1.123 4.474-1.123 6.245-0.071 1.652 4.256 4.868 5.792 4.829 2.007 0.039 5.315-3.543 5.315-5.315 0-1.771 0.084-3.301-0.738-6.355l-2.215 5.178c-2.689-7.346-2.835-7.517-4.431 0.178l-2.6-4.76z" transform="matrix(.40322 0 0 .41595 -263.36 -40.956)" stroke-width="1pt" fill="#fff"/>
    <path id="path1829" d="m354.98 396.41c-1.526 3.07-1.123 4.474-1.123 6.245-0.071 1.652 4.256 4.868 5.792 4.829 2.007 0.039 5.315-3.543 5.315-5.315 0-1.771 0.084-3.301-0.738-6.355l-2.215 5.178c-2.689-7.346-2.835-7.517-4.431 0.178l-2.6-4.76z" transform="matrix(.40322 0 0 -.41595 -170.94 309.98)" stroke-width="1pt" fill="#fff"/>
    <path id="path1830" d="m354.98 396.41c-1.526 3.07-1.123 4.474-1.123 6.245-0.071 1.652 4.256 4.868 5.792 4.829 2.007 0.039 5.315-3.543 5.315-5.315 0-1.771 0.084-3.301-0.738-6.355l-2.215 5.178c-2.689-7.346-2.835-7.517-4.431 0.178l-2.6-4.76z" transform="matrix(.40322 0 0 .41595 -170.89 -41.232)" stroke-width="1pt" fill="#fff"/>
    <path id="path1835" d="m115.16 177.16v-5.315h-15.944v-10.63h-14.173v-3.543h-12.402v-31.89h12.402v-3.543h14.173v-10.63h15.944v-5.315h21.26v5.315h15.945v10.63h14.173v3.543h12.402v31.89h-12.402v3.543h-14.173v10.63h-15.945v5.315h-21.26zm-1.772 1.772v-5.315h-15.944v-10.63h-14.173v-3.543h-12.402v-35.433h12.402v-3.544h14.173v-10.63h15.945v-5.315h24.803v5.315h15.945v10.63h14.173v3.544h12.402v35.433h-12.402v3.543h-14.173v10.63h-15.945v5.315h-24.804z" transform="matrix(1 0 0 .99999 -198.43 -7.0853)" stroke="#000" stroke-width=".13333" fill="#980000"/>
   </g>
  </g>
 </g>
</svg>
