<?xml version="1.0" encoding="UTF-8" standalone="no"?>
<!-- Created with Sodipodi ("http://www.sodipodi.com/") -->
<svg id="svg977" xmlns:rdf="http://www.w3.org/1999/02/22-rdf-syntax-ns#" xmlns="http://www.w3.org/2000/svg" height="480" width="640" version="1.1" xmlns:cc="http://creativecommons.org/ns#" xmlns:dc="http://purl.org/dc/elements/1.1/">
 <metadata id="metadata4154">
  <rdf:RDF>
   <cc:Work rdf:about="">
    <dc:format>image/svg+xml</dc:format>
    <dc:type rdf:resource="http://purl.org/dc/dcmitype/StillImage"/>
   </cc:Work>
  </rdf:RDF>
 </metadata>
 <defs id="defs979">
  <clipPath id="clipPath3731" clipPathUnits="userSpaceOnUse">
   <rect id="rect3733" fill-opacity="0.67" height="512" width="682.67" y="-.000010707" x="0"/>
  </clipPath>
 </defs>
 <g id="flag" fill-rule="evenodd" clip-path="url(#clipPath3731)" transform="matrix(.93750 0 0 .93750 0 .000010038)" stroke-width="1pt">
  <rect id="rect983" height="512" width="768" y="-.0000039058" x="0" fill="#de2110"/>
  <rect id="rect984" height="256" width="385.69" y="-.000012047" x="0" fill="#08399c"/>
  <polygon id="polygon1007" d="m 272.53271,171.98603 -45.86308,-9.42646 9.76653,45.79186 -35.00536,-31.09509 -14.43787,44.54018 -14.76798,-44.43182 -34.77366,31.35399 9.42647,-45.86307 -45.79187,9.76652 31.0951,-35.00536 -44.540187,-14.43787 44.431827,-14.76798 -31.354,-34.773654 45.86308,9.426464 -9.76653,-45.791867 35.00536,31.095097 14.43787,-44.540185 14.76798,44.431823 34.77366,-31.353996 -9.42647,45.863079 45.79187,-9.766529 -31.0951,35.005358 44.54019,14.43787 -44.43182,14.76798 z" points="272.53 171.99 226.67 162.56 236.44 208.35 201.43 177.26 186.99 221.8 172.22 177.36 137.45 208.72 146.88 162.86 101.09 172.62 132.18 137.62 87.641 123.18 132.07 108.41 100.72 73.637 146.58 83.064 136.82 37.272 171.82 68.367 186.26 23.827 201.03 68.259 235.8 36.905 226.37 82.768 272.16 73.001 241.07 108.01 285.61 122.44 241.18 137.21" transform="matrix(1.0321 0 0 1.0321 .81976 1.0439)" fill="#fff"/>
  <polygon id="polygon1009" d="m 230.41383,167.61855 -14.31689,7.62192 -13.95306,8.26918 -16.20975,-0.55767 -16.21829,0.18478 -13.75923,-8.58783 -14.13784,-7.94911 -7.62192,-14.3169 -8.26917,-13.95306 0.55767,-16.20975 -0.18479,-16.21829 8.58784,-13.759224 7.94911,-14.137842 14.3169,-7.621921 13.95305,-8.269174 16.20976,0.557671 16.21828,-0.184788 13.75923,8.587836 14.13784,7.949113 7.62192,14.316896 8.26918,13.953053 -0.55768,16.20976 0.18479,16.21829 -8.58783,13.75922 z" points="230.41 167.62 216.1 175.24 202.14 183.51 185.93 182.95 169.72 183.14 155.96 174.55 141.82 166.6 134.2 152.28 125.93 138.33 126.48 122.12 126.3 105.9 134.89 92.143 142.84 78.005 157.15 70.383 171.11 62.114 187.32 62.671 203.54 62.486 217.3 71.074 231.43 79.024 239.05 93.34 247.32 107.29 246.77 123.5 246.95 139.72 238.36 153.48" transform="matrix(1.0437 0 0 1.0409 -2.0083 .44858)" fill="#005387"/>
  <path id="path1011" d="m236.88 122.81c0 27.754-22.499 50.253-50.253 50.253s-50.253-22.499-50.253-50.253 22.499-50.253 50.253-50.253 50.253 22.499 50.253 50.253z" transform="matrix(1.0321 0 0 1.0321 .15286 1.5287)" fill="#fff"/>
 </g>
</svg>
