<?xml version="1.0" encoding="UTF-8" standalone="no"?>
<!-- Created with Sodipodi ("http://www.sodipodi.com/") -->
<svg id="svg548" xmlns:rdf="http://www.w3.org/1999/02/22-rdf-syntax-ns#" xmlns="http://www.w3.org/2000/svg" height="480" width="640" version="1.1" xmlns:cc="http://creativecommons.org/ns#" xmlns:dc="http://purl.org/dc/elements/1.1/">
 <metadata id="metadata4201">
  <rdf:RDF>
   <cc:Work rdf:about="">
    <dc:format>image/svg+xml</dc:format>
    <dc:type rdf:resource="http://purl.org/dc/dcmitype/StillImage"/>
   </cc:Work>
  </rdf:RDF>
 </metadata>
 <defs id="defs550">
  <clipPath id="clipPath4987" clipPathUnits="userSpaceOnUse">
   <rect id="rect4989" fill-opacity="0.67" height="512" width="682.67" y=".000022409" x="-85.333"/>
  </clipPath>
 </defs>
 <g id="flag" clip-path="url(#clipPath4987)" transform="matrix(.93750 0 0 .93750 80 -.000021009)">
  <rect id="rect585" fill-rule="evenodd" height="85.321" width="768" y="341.36" x="-128" stroke-width="1pt" fill="#ffe700"/>
  <rect id="rect586" fill-rule="evenodd" height="85.321" width="768" y="256" x="-128" stroke-width="1pt"/>
  <rect id="rect587" fill-rule="evenodd" height="85.321" width="768" y="170.68" x="-128" stroke-width="1pt" fill="#de3908"/>
  <rect id="rect588" fill-rule="evenodd" height="85.321" width="768" y="85.358" x="-128" stroke-width="1pt" fill="#ffe700"/>
  <rect id="rect589" fill-rule="evenodd" height="85.321" width="768" y=".000021848" x="-128" stroke-width="1pt"/>
  <g id="g568" transform="matrix(.69313 0 0 .69313 -17.787 96.709)">
   <path id="path567" d="m505 232.31c0 63.513-51.487 115-115 115s-115-51.487-115-115 51.487-115 115-115 115 51.487 115 115z" fill-rule="evenodd" transform="translate(5 -2.5)" stroke="#000" stroke-width="1.0667pt" fill="#fffdff"/>
   <path id="path556" d="m374.71 141.65-7.466-13.752c2.881-2.881 7.728-5.108 15.455-5.108 0 0.524-0.786 15.062-0.786 15.062l-7.203 3.798z" fill-rule="evenodd" stroke="#000" stroke-width="1.0667pt" fill="#de3108"/>
   <path id="path557" d="m381.91 137.99 1.048-15.193s15.455-0.916 23.837 9.168c0.131-0.131-8.251 11.787-8.251 11.787l-16.634-5.762z" fill-rule="evenodd" stroke="#000" stroke-width="1.0667pt" fill="#ffe700"/>
   <path id="path558" d="m398.81 143.62 7.596-11.787c5.108 5.37 7.203 9.168 7.989 14.931 0.131 0.131-12.049 3.012-12.049 2.881s-3.405-5.894-3.536-6.025z" fill-rule="evenodd" stroke="#000" stroke-width="1.0667pt" fill="#de3108"/>
   <path id="path565" stroke-linejoin="round" d="m378.51 338.24s14.276-16.372 42.042-12.835c-4.191-6.811-17.681-6.025-17.681-6.025s-4.191-31.826-0.917-33.398 17.157 0.131 17.157 0.131c1.833 0 4.977-4.977 2.489-8.12-2.489-3.144-9.823-15.193-6.811-17.551 3.013-2.357 19.384 1.31 19.384 1.31l-46.233-59.199s-4.715-22.265 4.715-33.005c11.395-9.43 10.216-19.646 9.823-19.515-1.572-10.347-17.288-17.813-27.897-8.251-6.287 7.596-2.096 13.359-2.096 13.359s-16.502 4.453-17.157 7.334c-0.655 2.882 18.598-0.523 18.598-0.523l-1.834 13.228s-37.458 34.052-8.775 63.521c0.262-0.131 0.917-1.31 0.917-1.31s10.085 12.443 20.693 15.193c9.954 10.216 9.038 8.644 9.038 8.644s1.964 16.11 0.131 19.253c-2.489-0.786-27.897-1.702-31.696-0.262-3.405 1.048-16.502 0.393-13.228 21.742 2.488-5.763 4.715-10.871 4.715-10.871s-0.393 7.727 2.751 10.478c-0.524-8.121 3.012-13.621 3.012-13.621s0.655 8.906 2.619 10.215c1.965 1.31 1.965-14.407 12.836-13.097 10.87 1.31 18.729 0.917 18.729 0.917s3.667 30.778 2.488 33.66c-7.859-1.834-26.587 0.786-27.766 5.501 11.001-0.655 16.11 0.654 16.11 0.654s-8.906 7.859-6.156 12.443z" fill-rule="evenodd" stroke="#000" stroke-linecap="round" stroke-width="1.3333"/>
   <path id="path552" stroke-linejoin="round" d="m382.92 170.3s-27.256 30.042-15.497 53.031c0.626-3.206 0.353-5.22 0.746-5.089-0.655-0.393 3.38 2.766 3.073 2.151 0.086-1.662-1.229-5.224-1.229-5.224 1.229 0.307 2.459 0.615 3.688 0.922-0.717-1.332-1.435-2.663-2.152-3.995 1.742 0.205 3.483 0.409 5.225 0.614 0 0-1.844-4.917-1.229-4.917 0.614 0 4.302 0.307 4.302 0.307-7.751-13.91-0.439-25.462 3.073-37.8z" fill-rule="evenodd" stroke="#9ca69c" stroke-linecap="round" stroke-width="1.3333" fill="#9ca69c"/>
   <path id="path554" d="m392.39 144.53s1.441 10.347-4.191 13.359c-0.917 0.655-4.453 1.834-3.929 3.93 0.655 2.881 2.226 2.357 4.453 1.833 5.893-1.048 12.704-13.621 3.667-19.122z" fill-rule="evenodd" stroke="#9ca69c" stroke-width="1.0667pt" fill="#9ca69c"/>
   <path id="path555" d="m382.31 153.44c0 1.2297-0.99685 2.2265-2.2265 2.2265-1.2297 0-2.2265-0.99685-2.2265-2.2265 0-1.2297 0.99686-2.2265 2.2265-2.2265 1.2297 0 2.2265 0.99685 2.2265 2.2265z" fill-rule="evenodd" fill="#fff"/>
   <path id="path559" d="m373.53 162.08c-1.441 1.179-9.037 9.038-1.572 11.919 7.728-2.096 5.632-3.536 7.335-5.239 0.044-3.536-3.842-4.453-5.763-6.68z" fill-rule="evenodd" stroke="#000" stroke-width="1.0667pt" fill="#de3108"/>
   <path id="path560" stroke-linejoin="round" d="m390.03 236.35c-0.393 1.703-2.095 7.989 0.262 12.835 6.549-2.75 9.561-1.965 11.788-0.524-5.369-4.322-7.465-6.156-12.05-12.311z" fill-rule="evenodd" stroke="#9ca69c" stroke-linecap="round" stroke-width="1.3333" fill="#9ca69c"/>
   <path id="path561" stroke-linejoin="round" d="m401.3 266.08 0.393 14.669s5.108 0.917 7.465 0c2.358-0.917-0.131-10.216-7.858-14.669z" fill-rule="evenodd" stroke="#fff" stroke-linecap="round" stroke-width="1.3333" fill="#fff"/>
   <path id="path564" d="m438.36 267.91s-9.43-22.789-33.529-28.552-20.956-31.433-18.991-33.005c1.048-2.227 1.834-5.632 8.775-2.357 6.942 3.274 38.899 19.383 43.483 20.169s0.655 44.269 0.262 43.745z" fill-rule="evenodd" stroke="#000" stroke-width="1.0667pt" fill="#9ca69c"/>
   <path id="path563" stroke-linejoin="round" d="m415.44 239.23c-0.393 0.262 32.219 19.252 22.396 35.624 9.3-6.156 6.287-16.895 6.287-16.895s7.596 19.777-10.871 29.469c1.965 1.703 3.275 1.309 3.275 1.309l-3.144 3.144s-1.441 2.357 11.002-3.668c-3.406 2.751-3.667 4.715-3.667 4.715s0.916 2.62 9.037-4.453c-6.549 7.073-7.99 10.74-7.99 10.609 17.681-1.572 56.187-59.068-12.18-76.095 3.668 3.799 3.143 3.275 3.143 3.275l-17.288 12.966z" fill-rule="evenodd" stroke="#000" stroke-width="1.3333" fill="#de3108"/>
   <path id="path562" stroke-linejoin="round" d="m416.88 233.6c4.453 3.143 6.024 4.191 6.548 5.763-4.06-0.916-7.727-0.655-7.727-0.655s-8.775-8.382-10.347-9.037c-1.179 0-7.989-4.322-7.989-4.322-3.405-1.703-6.548-13.49 6.025-10.085 12.965 6.155 14.799 6.68 14.799 6.68 5.152 1.615 10.303 3.231 15.455 4.846 2.969 3.318 5.937 6.636 8.906 9.954 0 0-15.847-7.859-17.812-7.99 4.322 3.536 6.811 8.382 6.811 8.382-5.021-1.441-9.386-2.75-14.669-3.536z" fill-rule="evenodd" stroke="#000" stroke-linecap="round" stroke-width="1.3333" fill="#fff"/>
   <path id="path566" d="m355.2 163.26s15.193-3.667 17.026-3.143" stroke="#fff" stroke-linecap="round" stroke-width="1.3333" fill="none"/>
  </g>
  <rect id="rect584" fill-rule="evenodd" height="85.321" width="768" y="426.68" x="-128" stroke-width="1pt" fill="#de3908"/>
 </g>
</svg>
