<?xml version="1.0" encoding="UTF-8" standalone="no"?>
<!-- Created with Sodipodi ("http://www.sodipodi.com/") -->
<svg id="svg548" xmlns:rdf="http://www.w3.org/1999/02/22-rdf-syntax-ns#" xmlns="http://www.w3.org/2000/svg" height="480" width="640" version="1.1" xmlns:cc="http://creativecommons.org/ns#" xmlns:dc="http://purl.org/dc/elements/1.1/">
 <metadata id="metadata3215">
  <rdf:RDF>
   <cc:Work rdf:about="">
    <dc:format>image/svg+xml</dc:format>
    <dc:type rdf:resource="http://purl.org/dc/dcmitype/StillImage"/>
   </cc:Work>
  </rdf:RDF>
 </metadata>
 <defs id="defs550">
  <clipPath id="clipPath3415" clipPathUnits="userSpaceOnUse">
   <rect id="rect3417" fill-opacity="0.67" height="480" width="640" y="0" x="0"/>
  </clipPath>
 </defs>
 <g id="flag" fill-rule="evenodd" clip-path="url(#clipPath3415)">
  <rect id="rect568" height="480" width="960" y="-.0000082911" x="0" stroke-width="1pt" fill="#fff"/>
  <rect id="rect558" height="166.14" width="960" y=".00029167" x="0" stroke-width="1pt" fill="#94acd4"/>
  <rect id="rect555" height="11.005" width="960" y="155.14" x="0" stroke-width="1pt" fill="#b73000"/>
  <rect id="rect557" height="155.14" width="960" y="324.86" x="0" stroke-width="1pt" fill="#00a900"/>
  <rect id="rect556" height="11.005" width="960" y="324.86" x="0" stroke-width="1pt" fill="#b73000"/>
  <polygon id="polygon561" d="m 205.58449,128.73621 -10.01635,-6.84893 -9.90282,7.01206 3.41849,-11.64254 -9.72901,-7.2513 12.12909,-0.34657 3.88997,-11.493607 4.0777,11.428357 12.13314,0.14786 -9.60893,7.40967 z" points="205.58 128.74 195.57 121.89 185.66 128.9 189.08 117.26 179.36 110.01 191.48 109.66 195.37 98.165 199.45 109.59 211.58 109.74 201.98 117.15" transform="matrix(.89301 0 0 .89794 69.068 -66.212)" stroke-width="1pt" fill="#feffff"/>
  <polygon id="polygon562" d="m 205.58449,128.73621 -10.01635,-6.84893 -9.90282,7.01206 3.41849,-11.64254 -9.72901,-7.2513 12.12909,-0.34657 3.88997,-11.493607 4.0777,11.428357 12.13314,0.14786 -9.60893,7.40967 z" points="205.58 128.74 195.57 121.89 185.66 128.9 189.08 117.26 179.36 110.01 191.48 109.66 195.37 98.165 199.45 109.59 211.58 109.74 201.98 117.15" transform="matrix(.89301 0 0 .89794 26.91 16.736)" stroke-width="1pt" fill="#feffff"/>
  <polygon id="polygon563" d="m 205.58449,128.73621 -10.01635,-6.84893 -9.90282,7.01206 3.41849,-11.64254 -9.72901,-7.2513 12.12909,-0.34657 3.88997,-11.493607 4.0777,11.428357 12.13314,0.14786 -9.60893,7.40967 z" points="205.58 128.74 195.57 121.89 185.66 128.9 189.08 117.26 179.36 110.01 191.48 109.66 195.37 98.165 199.45 109.59 211.58 109.74 201.98 117.15" transform="matrix(.89301 0 0 .89794 69.474 16.736)" stroke-width="1pt" fill="#feffff"/>
  <polygon id="polygon564" d="m 205.58449,128.73621 -10.01635,-6.84893 -9.90282,7.01206 3.41849,-11.64254 -9.72901,-7.2513 12.12909,-0.34657 3.88997,-11.493607 4.0777,11.428357 12.13314,0.14786 -9.60893,7.40967 z" points="205.58 128.74 195.57 121.89 185.66 128.9 189.08 117.26 179.36 110.01 191.48 109.66 195.37 98.165 199.45 109.59 211.58 109.74 201.98 117.15" transform="matrix(.89301 0 0 .89794 108.79 16.736)" stroke-width="1pt" fill="#feffff"/>
  <polygon id="polygon565" d="m 205.58449,128.73621 -10.01635,-6.84893 -9.90282,7.01206 3.41849,-11.64254 -9.72901,-7.2513 12.12909,-0.34657 3.88997,-11.493607 4.0777,11.428357 12.13314,0.14786 -9.60893,7.40967 z" points="205.58 128.74 195.57 121.89 185.66 128.9 189.08 117.26 179.36 110.01 191.48 109.66 195.37 98.165 199.45 109.59 211.58 109.74 201.98 117.15" transform="matrix(.89301 0 0 .89794 145.28 16.736)" stroke-width="1pt" fill="#feffff"/>
  <polygon id="polygon566" d="m 205.58449,128.73621 -10.01635,-6.84893 -9.90282,7.01206 3.41849,-11.64254 -9.72901,-7.2513 12.12909,-0.34657 3.88997,-11.493607 4.0777,11.428357 12.13314,0.14786 -9.60893,7.40967 z" points="205.58 128.74 195.57 121.89 185.66 128.9 189.08 117.26 179.36 110.01 191.48 109.66 195.37 98.165 199.45 109.59 211.58 109.74 201.98 117.15" transform="matrix(.89301 0 0 .89794 -17.681 16.736)" stroke-width="1pt" fill="#feffff"/>
  <polygon id="polygon567" d="m 205.58449,128.73621 -10.01635,-6.84893 -9.90282,7.01206 3.41849,-11.64254 -9.72901,-7.2513 12.12909,-0.34657 3.88997,-11.493607 4.0777,11.428357 12.13314,0.14786 -9.60893,7.40967 z" points="205.58 128.74 195.57 121.89 185.66 128.9 189.08 117.26 179.36 110.01 191.48 109.66 195.37 98.165 199.45 109.59 211.58 109.74 201.98 117.15" transform="matrix(.89301 0 0 .89794 26.099 -24.432)" stroke-width="1pt" fill="#feffff"/>
  <polygon id="polygon568" d="m 205.58449,128.73621 -10.01635,-6.84893 -9.90282,7.01206 3.41849,-11.64254 -9.72901,-7.2513 12.12909,-0.34657 3.88997,-11.493607 4.0777,11.428357 12.13314,0.14786 -9.60893,7.40967 z" points="205.58 128.74 195.57 121.89 185.66 128.9 189.08 117.26 179.36 110.01 191.48 109.66 195.37 98.165 199.45 109.59 211.58 109.74 201.98 117.15" transform="matrix(.89301 0 0 .89794 69.068 -24.432)" stroke-width="1pt" fill="#feffff"/>
  <polygon id="polygon569" d="m 205.58449,128.73621 -10.01635,-6.84893 -9.90282,7.01206 3.41849,-11.64254 -9.72901,-7.2513 12.12909,-0.34657 3.88997,-11.493607 4.0777,11.428357 12.13314,0.14786 -9.60893,7.40967 z" points="205.58 128.74 195.57 121.89 185.66 128.9 189.08 117.26 179.36 110.01 191.48 109.66 195.37 98.165 199.45 109.59 211.58 109.74 201.98 117.15" transform="matrix(.89301 0 0 .89794 109.6 -24.432)" stroke-width="1pt" fill="#feffff"/>
  <polygon id="polygon570" d="m 205.58449,128.73621 -10.01635,-6.84893 -9.90282,7.01206 3.41849,-11.64254 -9.72901,-7.2513 12.12909,-0.34657 3.88997,-11.493607 4.0777,11.428357 12.13314,0.14786 -9.60893,7.40967 z" points="205.58 128.74 195.57 121.89 185.66 128.9 189.08 117.26 179.36 110.01 191.48 109.66 195.37 98.165 199.45 109.59 211.58 109.74 201.98 117.15" transform="matrix(.89301 0 0 .89794 144.87 -24.432)" stroke-width="1pt" fill="#feffff"/>
  <polygon id="polygon571" d="m 205.58449,128.73621 -10.01635,-6.84893 -9.90282,7.01206 3.41849,-11.64254 -9.72901,-7.2513 12.12909,-0.34657 3.88997,-11.493607 4.0777,11.428357 12.13314,0.14786 -9.60893,7.40967 z" points="205.58 128.74 195.57 121.89 185.66 128.9 189.08 117.26 179.36 110.01 191.48 109.66 195.37 98.165 199.45 109.59 211.58 109.74 201.98 117.15" transform="matrix(.89301 0 0 .89794 144.47 -66.212)" stroke-width="1pt" fill="#feffff"/>
  <polygon id="polygon572" d="m 205.58449,128.73621 -10.01635,-6.84893 -9.90282,7.01206 3.41849,-11.64254 -9.72901,-7.2513 12.12909,-0.34657 3.88997,-11.493607 4.0777,11.428357 12.13314,0.14786 -9.60893,7.40967 z" points="205.58 128.74 195.57 121.89 185.66 128.9 189.08 117.26 179.36 110.01 191.48 109.66 195.37 98.165 199.45 109.59 211.58 109.74 201.98 117.15" transform="matrix(.89301 0 0 .89794 109.2 -66.212)" stroke-width="1pt" fill="#feffff"/>
  <path id="path575" d="m137.83 25.111c-47.838-13.111-78.139 20.754-77.683 51.103 0.456 30.346 28.426 62.486 71.603 54.466-67.837 31.79-102.53-18.28-101.14-58.032 2.378-46.988 55.193-85.309 107.22-47.537z" fill="#fff"/>
 </g>
</svg>
