<?xml version="1.0" encoding="UTF-8" standalone="no"?>
<!-- Created with Inkscape (http://www.inkscape.org/) -->
<svg id="svg559" xmlns:rdf="http://www.w3.org/1999/02/22-rdf-syntax-ns#" xmlns="http://www.w3.org/2000/svg" height="480" width="640" version="1.0" y="0" x="0" xmlns:cc="http://creativecommons.org/ns#" xmlns:xlink="http://www.w3.org/1999/xlink" xmlns:dc="http://purl.org/dc/elements/1.1/">
 <metadata id="metadata1572">
  <rdf:RDF>
   <cc:Work rdf:about="">
    <dc:title>British Virgin Islands</dc:title>
    <dc:description/>
    <dc:subject>
     <rdf:Bag>
      <rdf:li/>
      <rdf:li>united_kingdom</rdf:li>
      <rdf:li>flags</rdf:li>
      <rdf:li>caribbean</rdf:li>
      <rdf:li>america</rdf:li>
      <rdf:li>signs_and_symbols</rdf:li>
      <rdf:li>sign</rdf:li>
     </rdf:Bag>
    </dc:subject>
    <dc:publisher>
     <cc:Agent rdf:about="http://www.openclipart.org">
      <dc:title>Tobias Jakobs</dc:title>
     </cc:Agent>
    </dc:publisher>
    <dc:creator>
     <cc:Agent>
      <dc:title>Tobias Jakobs</dc:title>
     </cc:Agent>
    </dc:creator>
    <dc:rights>
     <cc:Agent>
      <dc:title>Tobias Jakobs</dc:title>
     </cc:Agent>
    </dc:rights>
    <dc:date/>
    <dc:format>image/svg+xml</dc:format>
    <dc:type rdf:resource="http://purl.org/dc/dcmitype/StillImage"/>
    <cc:license rdf:resource="http://web.resource.org/cc/PublicDomain"/>
    <dc:language>en</dc:language>
   </cc:Work>
   <cc:License rdf:about="http://web.resource.org/cc/PublicDomain">
    <cc:permits rdf:resource="http://web.resource.org/cc/Reproduction"/>
    <cc:permits rdf:resource="http://web.resource.org/cc/Distribution"/>
    <cc:permits rdf:resource="http://web.resource.org/cc/DerivativeWorks"/>
   </cc:License>
  </rdf:RDF>
 </metadata>
 <defs id="defs1574">
  <linearGradient id="linearGradient570">
   <stop id="stop571" stop-color="#f00" offset="0"/>
   <stop id="stop572" stop-color="#ff0" offset="1"/>
  </linearGradient>
  <linearGradient id="linearGradient3331" y2="107.76" xlink:href="#linearGradient570" gradientUnits="userSpaceOnUse" y1="111.28" gradientTransform="matrix(.64274 0 0 1.4534 -94.683 29.21)" x2="92.551" x1="103.08"/>
  <linearGradient id="linearGradient3333" y2="107.76" xlink:href="#linearGradient570" gradientUnits="userSpaceOnUse" y1="111.28" gradientTransform="matrix(.64274 0 0 1.4534 -94.666 30.155)" x2="92.551" x1="103.08"/>
  <linearGradient id="linearGradient3335" y2="107.76" xlink:href="#linearGradient570" gradientUnits="userSpaceOnUse" y1="111.28" gradientTransform="matrix(.64274 0 0 1.4534 -97.986 31.014)" x2="92.551" x1="103.08"/>
  <linearGradient id="linearGradient3337" y2="107.76" xlink:href="#linearGradient570" gradientUnits="userSpaceOnUse" y1="111.28" gradientTransform="matrix(.64274 0 0 1.4534 -94.743 31.932)" x2="92.551" x1="103.08"/>
  <linearGradient id="linearGradient3339" y2="107.76" xlink:href="#linearGradient570" gradientUnits="userSpaceOnUse" y1="111.28" gradientTransform="matrix(.64274 0 0 1.4534 -94.75 32.835)" x2="92.551" x1="103.08"/>
  <linearGradient id="linearGradient3341" y2="107.76" xlink:href="#linearGradient570" gradientUnits="userSpaceOnUse" y1="111.28" gradientTransform="matrix(.64274 0 0 1.4534 -94.767 33.751)" x2="92.551" x1="103.08"/>
  <linearGradient id="linearGradient3343" y2="107.76" xlink:href="#linearGradient570" gradientUnits="userSpaceOnUse" y1="111.28" gradientTransform="matrix(.64274 0 0 1.4534 -98.011 33.736)" x2="92.551" x1="103.08"/>
  <linearGradient id="linearGradient3345" y2="107.76" xlink:href="#linearGradient570" gradientUnits="userSpaceOnUse" y1="111.28" gradientTransform="matrix(.64274 0 0 1.4534 -97.981 32.837)" x2="92.551" x1="103.08"/>
  <linearGradient id="linearGradient3347" y2="107.76" xlink:href="#linearGradient570" gradientUnits="userSpaceOnUse" y1="111.28" gradientTransform="matrix(.64274 0 0 1.4534 -97.942 31.918)" x2="92.551" x1="103.08"/>
  <linearGradient id="linearGradient3349" y2="107.76" xlink:href="#linearGradient570" gradientUnits="userSpaceOnUse" y1="111.28" gradientTransform="matrix(.82810 0 0 1.8726 602.82 148.17)" x2="92.551" x1="103.08"/>
  <linearGradient id="linearGradient3351" y2="107.76" xlink:href="#linearGradient570" gradientUnits="userSpaceOnUse" y1="111.28" gradientTransform="matrix(.64274 0 0 1.4534 -97.976 30.11)" x2="92.551" x1="103.08"/>
  <linearGradient id="linearGradient3353" y2="107.76" xlink:href="#linearGradient570" gradientUnits="userSpaceOnUse" y1="111.28" gradientTransform="matrix(.64274 0 0 1.4534 -95.336 30.955)" x2="92.551" x1="103.08"/>
  <clipPath id="clipPath3927" clipPathUnits="userSpaceOnUse">
   <rect id="rect3929" fill-opacity="0.67" height="480" width="640" y="0" x="0"/>
  </clipPath>
 </defs>
 <g id="flag" clip-path="url(#clipPath3927)">
  <rect id="rect877" height="480" width="960" y=".000014420" x="0" stroke-width="1pt" fill="#006"/>
  <g id="g4917" transform="scale(.72917)">
   <rect id="rect3207" fill-rule="evenodd" height="240" width="480" y=".00021550" x="0" fill="#006"/>
   <g id="g878" stroke-width="1pt" transform="scale(8)">
    <path id="path879" d="m0 0v3.3541l53.292 26.646h6.708v-3.354l-53.292-26.646h-6.708zm60 0v3.354l-53.292 26.646h-6.708v-3.354l53.292-26.646h6.708z" fill="#fff"/>
    <path id="path880" d="m25 0v30h10v-30h-10zm-25 10v10h60v-10h-60z" fill="#fff"/>
    <path id="path881" d="m0 12v6h60v-6h-60zm27-12v30h6v-30h-6z" fill="#c00"/>
    <path id="path882" d="m0 30 20-10h4.472l-20 10h-4.472zm0-30 20 10h-4.472l-15.528-7.7639v-2.2361zm35.528 10 20-10h4.472l-20 10h-4.472zm24.472 20-20-10h4.472l15.528 7.764v2.236z" fill="#c00"/>
   </g>
  </g>
  <g id="g3929" transform="matrix(1.0265 0 0 1.0265 -301.49 28.259)">
   <path id="path824" d="m662.41 122.94 213.68-0.79287-0.39644 190.29s7.5321 28.939-89.593 72.943c34.886-3.5678 72.943-40.832 72.943-40.832s15.461-19.821 22.993-8.7214c7.5321 11.1 14.668 16.65 20.218 21.011 5.55 4.3607 9.9106 16.254 1.5856 24.975-8.325 8.7214-21.407 9.9108-24.975-0.79287-5.55 2.7751-39.643 44.004-109.41 45.986-70.961-1.1893-109.81-46.382-109.81-46.382s-9.5143 15.064-22.993 3.1715c-13.082-15.461-3.1714-25.372-3.1714-25.372s11.1-6.3428 14.271-10.704c5.1536-5.9465 6.7393-13.875 15.461-13.875 10.307 0.79288 14.271 9.1179 14.271 9.1179s35.679 37.661 74.132 42.418c-86.818-41.625-89.99-67.393-89.593-73.736l0.39645-188.7z" fill-rule="evenodd" fill="#fff"/>
   <path id="path779" d="m667.56 128.09 203.76-1.1893v183.15c0.39645 23.786-39.643 47.968-102.28 78.889-64.61-33.3-101.87-53.52-102.27-79.28l0.79285-181.56z" fill-rule="evenodd" stroke="#000" stroke-width="1.2551pt" fill="#006129"/>
   <g id="g584" transform="matrix(1.2884 0 0 1.2884 602.15 110.19)">
    <path id="path585" d="m69.786 170.53 9.3354-13.711 9.3809 13.74" stroke="#f7c600" stroke-width=".97419pt" fill="none"/>
    <path id="path586" d="m80.922 156.72c0.000323 0.94218-0.7634 1.7061-1.7056 1.7061-0.94222 0-1.7059-0.76396-1.7056-1.7061-0.000323-0.94218 0.7634-1.7061 1.7056-1.7061 0.94222 0 1.7059 0.76396 1.7056 1.7061z" fill-rule="evenodd" transform="matrix(1.087 0 0 1.087 -6.9653 -4.9563)" stroke="#000" stroke-width=".56016" fill="#f7c600"/>
    <path id="path587" d="m71.541 180.66 14.473 0.0412s0.22693-1.8783-1.5117-3.0199c7.5805-1.0424 5.6112-7.7289 11.96-8.1079 1.2318 0.1895-3.3165 2.8427-3.3165 2.8427s-3.8277 2.7012-2.0846 4.0745c1.3839 1.0903 1.9899-0.6632 2.1794-1.9898 0.18951-1.3266 6.1592-2.1794 5.3064-5.9696-1.4214-3.127-9.7599 2.0845-9.7599 2.0845l-5.9491-0.033c-0.37093-0.6677-2.0105-3.3452-3.7036-3.3576-2.0088 0.0733-3.4237 3.3906-3.4237 3.3906h-8.6228-4.8326s-0.46132 3.4524 6.3612 4.1157c1.536 2.0061 2.7268 2.5666 4.0621 3.0859-0.89021 0.7419-1.1408 1.6394-1.1371 2.8427z" fill-rule="evenodd" stroke="#000" stroke-width=".60887" fill="#f7c600"/>
    <path id="path588" d="m72.583 177.72 12.055-0.0411" stroke="#000" stroke-width=".60887" fill="none"/>
    <path id="path589" d="m67.062 170.61s0.96439 5.6381 5.4154 6.9734" stroke="#000" stroke-width=".60887" fill="none"/>
    <path id="path590" d="m66.32 170.54c0.4451-2.1513 1.2611-2.5223 2.1513-5.2671 0.14837-2.6706-2.1513-2.3739-1.4837-4.0801 1.1869-1.8546 0.59347-3.635-1.632-5.0445 0.44511 2.4481-2.8932 4.7478-2.8932 6.7507 0 2.003 1.7062 1.5579 1.4837 4.5995 0.14837 1.7803-0.4451 1.3353-0.59347 3.0415h2.9674z" fill-rule="evenodd" stroke="#000" stroke-width=".60887" fill="url(#linearGradient3331)"/>
    <path id="path591" d="m80.922 156.72c0.000323 0.94218-0.7634 1.7061-1.7056 1.7061-0.94222 0-1.7059-0.76396-1.7056-1.7061-0.000323-0.94218 0.7634-1.7061 1.7056-1.7061 0.94222 0 1.7059 0.76396 1.7056 1.7061z" fill-rule="evenodd" transform="translate(-.074186 .44507)" stroke="#000" stroke-width=".60887" fill="#f7c600"/>
   </g>
   <g id="g592" transform="matrix(1.2884 0 0 1.2884 601.47 73.831)">
    <path id="path593" d="m69.786 170.53 9.3354-13.711 9.3809 13.74" stroke="#f7c600" stroke-width=".97419pt" fill="none"/>
    <path id="path594" d="m80.922 156.72c0.000323 0.94218-0.7634 1.7061-1.7056 1.7061-0.94222 0-1.7059-0.76396-1.7056-1.7061-0.000323-0.94218 0.7634-1.7061 1.7056-1.7061 0.94222 0 1.7059 0.76396 1.7056 1.7061z" fill-rule="evenodd" transform="matrix(1.087 0 0 1.087 -6.9653 -4.9563)" stroke="#000" stroke-width=".56016" fill="#f7c600"/>
    <path id="path595" d="m71.541 180.66 14.473 0.0412s0.22693-1.8783-1.5117-3.0199c7.5805-1.0424 5.6112-7.7289 11.96-8.1079 1.2318 0.1895-3.3165 2.8427-3.3165 2.8427s-3.8277 2.7012-2.0846 4.0745c1.3839 1.0903 1.9899-0.6632 2.1794-1.9898 0.18951-1.3266 6.1592-2.1794 5.3064-5.9696-1.4214-3.127-9.7599 2.0845-9.7599 2.0845l-5.9491-0.033c-0.37093-0.6677-2.0105-3.3452-3.7036-3.3576-2.0088 0.0733-3.4237 3.3906-3.4237 3.3906h-8.6228-4.8326s-0.46132 3.4524 6.3612 4.1157c1.536 2.0061 2.7268 2.5666 4.0621 3.0859-0.89021 0.7419-1.1408 1.6394-1.1371 2.8427z" fill-rule="evenodd" stroke="#000" stroke-width=".60887" fill="#f7c600"/>
    <path id="path596" d="m72.583 177.72 12.055-0.0411" stroke="#000" stroke-width=".60887" fill="none"/>
    <path id="path597" d="m67.062 170.61s0.96439 5.6381 5.4154 6.9734" stroke="#000" stroke-width=".60887" fill="none"/>
    <path id="path598" d="m66.32 170.54c0.4451-2.1513 1.2611-2.5223 2.1513-5.2671 0.14837-2.6706-2.1513-2.3739-1.4837-4.0801 1.1869-1.8546 0.59347-3.635-1.632-5.0445 0.44511 2.4481-2.8932 4.7478-2.8932 6.7507 0 2.003 1.7062 1.5579 1.4837 4.5995 0.14837 1.7803-0.4451 1.3353-0.59347 3.0415h2.9674z" fill-rule="evenodd" stroke="#000" stroke-width=".60887" fill="url(#linearGradient3333)"/>
    <path id="path599" d="m80.922 156.72c0.000323 0.94218-0.7634 1.7061-1.7056 1.7061-0.94222 0-1.7059-0.76396-1.7056-1.7061-0.000323-0.94218 0.7634-1.7061 1.7056-1.7061 0.94222 0 1.7059 0.76396 1.7056 1.7061z" fill-rule="evenodd" transform="translate(-.074186 .44507)" stroke="#000" stroke-width=".60887" fill="#f7c600"/>
   </g>
   <g id="g600" transform="matrix(1.2884 0 0 1.2884 729.25 40.779)">
    <path id="path601" d="m69.786 170.53 9.3354-13.711 9.3809 13.74" stroke="#f7c600" stroke-width=".97419pt" fill="none"/>
    <path id="path602" d="m80.922 156.72c0.000323 0.94218-0.7634 1.7061-1.7056 1.7061-0.94222 0-1.7059-0.76396-1.7056-1.7061-0.000323-0.94218 0.7634-1.7061 1.7056-1.7061 0.94222 0 1.7059 0.76396 1.7056 1.7061z" fill-rule="evenodd" transform="matrix(1.087 0 0 1.087 -6.9653 -4.9563)" stroke="#000" stroke-width=".56016" fill="#f7c600"/>
    <path id="path603" d="m71.541 180.66 14.473 0.0412s0.22693-1.8783-1.5117-3.0199c7.5805-1.0424 5.6112-7.7289 11.96-8.1079 1.2318 0.1895-3.3165 2.8427-3.3165 2.8427s-3.8277 2.7012-2.0846 4.0745c1.3839 1.0903 1.9899-0.6632 2.1794-1.9898 0.18951-1.3266 6.1592-2.1794 5.3064-5.9696-1.4214-3.127-9.7599 2.0845-9.7599 2.0845l-5.9491-0.033c-0.37093-0.6677-2.0105-3.3452-3.7036-3.3576-2.0088 0.0733-3.4237 3.3906-3.4237 3.3906h-8.6228-4.8326s-0.46132 3.4524 6.3612 4.1157c1.536 2.0061 2.7268 2.5666 4.0621 3.0859-0.89021 0.7419-1.1408 1.6394-1.1371 2.8427z" fill-rule="evenodd" stroke="#000" stroke-width=".60887" fill="#f7c600"/>
    <path id="path604" d="m72.583 177.72 12.055-0.0411" stroke="#000" stroke-width=".60887" fill="none"/>
    <path id="path605" d="m67.062 170.61s0.96439 5.6381 5.4154 6.9734" stroke="#000" stroke-width=".60887" fill="none"/>
    <path id="path606" d="m66.32 170.54c0.4451-2.1513 1.2611-2.5223 2.1513-5.2671 0.14837-2.6706-2.1513-2.3739-1.4837-4.0801 1.1869-1.8546 0.59347-3.635-1.632-5.0445 0.44511 2.4481-2.8932 4.7478-2.8932 6.7507 0 2.003 1.7062 1.5579 1.4837 4.5995 0.14837 1.7803-0.4451 1.3353-0.59347 3.0415h2.9674z" fill-rule="evenodd" stroke="#000" stroke-width=".60887" fill="url(#linearGradient3335)"/>
    <path id="path607" d="m80.922 156.72c0.000323 0.94218-0.7634 1.7061-1.7056 1.7061-0.94222 0-1.7059-0.76396-1.7056-1.7061-0.000323-0.94218 0.7634-1.7061 1.7056-1.7061 0.94222 0 1.7059 0.76396 1.7056 1.7061z" fill-rule="evenodd" transform="translate(-.074186 .44507)" stroke="#000" stroke-width=".60887" fill="#f7c600"/>
   </g>
   <g id="g608" transform="matrix(1.2884 0 0 1.2884 604.45 5.4353)">
    <path id="path609" d="m69.786 170.53 9.3354-13.711 9.3809 13.74" stroke="#f7c600" stroke-width=".97419pt" fill="none"/>
    <path id="path610" d="m80.922 156.72c0.000323 0.94218-0.7634 1.7061-1.7056 1.7061-0.94222 0-1.7059-0.76396-1.7056-1.7061-0.000323-0.94218 0.7634-1.7061 1.7056-1.7061 0.94222 0 1.7059 0.76396 1.7056 1.7061z" fill-rule="evenodd" transform="matrix(1.087 0 0 1.087 -6.9653 -4.9563)" stroke="#000" stroke-width=".56016" fill="#f7c600"/>
    <path id="path611" d="m71.541 180.66 14.473 0.0412s0.22693-1.8783-1.5117-3.0199c7.5805-1.0424 5.6112-7.7289 11.96-8.1079 1.2318 0.1895-3.3165 2.8427-3.3165 2.8427s-3.8277 2.7012-2.0846 4.0745c1.3839 1.0903 1.9899-0.6632 2.1794-1.9898 0.18951-1.3266 6.1592-2.1794 5.3064-5.9696-1.4214-3.127-9.7599 2.0845-9.7599 2.0845l-5.9491-0.033c-0.37093-0.6677-2.0105-3.3452-3.7036-3.3576-2.0088 0.0733-3.4237 3.3906-3.4237 3.3906h-8.6228-4.8326s-0.46132 3.4524 6.3612 4.1157c1.536 2.0061 2.7268 2.5666 4.0621 3.0859-0.89021 0.7419-1.1408 1.6394-1.1371 2.8427z" fill-rule="evenodd" stroke="#000" stroke-width=".60887" fill="#f7c600"/>
    <path id="path612" d="m72.583 177.72 12.055-0.0411" stroke="#000" stroke-width=".60887" fill="none"/>
    <path id="path613" d="m67.062 170.61s0.96439 5.6381 5.4154 6.9734" stroke="#000" stroke-width=".60887" fill="none"/>
    <path id="path614" d="m66.32 170.54c0.4451-2.1513 1.2611-2.5223 2.1513-5.2671 0.14837-2.6706-2.1513-2.3739-1.4837-4.0801 1.1869-1.8546 0.59347-3.635-1.632-5.0445 0.44511 2.4481-2.8932 4.7478-2.8932 6.7507 0 2.003 1.7062 1.5579 1.4837 4.5995 0.14837 1.7803-0.4451 1.3353-0.59347 3.0415h2.9674z" fill-rule="evenodd" stroke="#000" stroke-width=".60887" fill="url(#linearGradient3337)"/>
    <path id="path615" d="m80.922 156.72c0.000323 0.94218-0.7634 1.7061-1.7056 1.7061-0.94222 0-1.7059-0.76396-1.7056-1.7061-0.000323-0.94218 0.7634-1.7061 1.7056-1.7061 0.94222 0 1.7059 0.76396 1.7056 1.7061z" fill-rule="evenodd" transform="translate(-.074186 .44507)" stroke="#000" stroke-width=".60887" fill="#f7c600"/>
   </g>
   <g id="g616" transform="matrix(1.2884 0 0 1.2884 604.72 -29.303)">
    <path id="path617" d="m69.786 170.53 9.3354-13.711 9.3809 13.74" stroke="#f7c600" stroke-width=".97419pt" fill="none"/>
    <path id="path618" d="m80.922 156.72c0.000323 0.94218-0.7634 1.7061-1.7056 1.7061-0.94222 0-1.7059-0.76396-1.7056-1.7061-0.000323-0.94218 0.7634-1.7061 1.7056-1.7061 0.94222 0 1.7059 0.76396 1.7056 1.7061z" fill-rule="evenodd" transform="matrix(1.087 0 0 1.087 -6.9653 -4.9563)" stroke="#000" stroke-width=".56016" fill="#f7c600"/>
    <path id="path619" d="m71.541 180.66 14.473 0.0412s0.22693-1.8783-1.5117-3.0199c7.5805-1.0424 5.6112-7.7289 11.96-8.1079 1.2318 0.1895-3.3165 2.8427-3.3165 2.8427s-3.8277 2.7012-2.0846 4.0745c1.3839 1.0903 1.9899-0.6632 2.1794-1.9898 0.18951-1.3266 6.1592-2.1794 5.3064-5.9696-1.4214-3.127-9.7599 2.0845-9.7599 2.0845l-5.9491-0.033c-0.37093-0.6677-2.0105-3.3452-3.7036-3.3576-2.0088 0.0733-3.4237 3.3906-3.4237 3.3906h-8.6228-4.8326s-0.46132 3.4524 6.3612 4.1157c1.536 2.0061 2.7268 2.5666 4.0621 3.0859-0.89021 0.7419-1.1408 1.6394-1.1371 2.8427z" fill-rule="evenodd" stroke="#000" stroke-width=".60887" fill="#f7c600"/>
    <path id="path620" d="m72.583 177.72 12.055-0.0411" stroke="#000" stroke-width=".60887" fill="none"/>
    <path id="path621" d="m67.062 170.61s0.96439 5.6381 5.4154 6.9734" stroke="#000" stroke-width=".60887" fill="none"/>
    <path id="path622" d="m66.32 170.54c0.4451-2.1513 1.2611-2.5223 2.1513-5.2671 0.14837-2.6706-2.1513-2.3739-1.4837-4.0801 1.1869-1.8546 0.59347-3.635-1.632-5.0445 0.44511 2.4481-2.8932 4.7478-2.8932 6.7507 0 2.003 1.7062 1.5579 1.4837 4.5995 0.14837 1.7803-0.4451 1.3353-0.59347 3.0415h2.9674z" fill-rule="evenodd" stroke="#000" stroke-width=".60887" fill="url(#linearGradient3339)"/>
    <path id="path623" d="m80.922 156.72c0.000323 0.94218-0.7634 1.7061-1.7056 1.7061-0.94222 0-1.7059-0.76396-1.7056-1.7061-0.000323-0.94218 0.7634-1.7061 1.7056-1.7061 0.94222 0 1.7059 0.76396 1.7056 1.7061z" fill-rule="evenodd" transform="translate(-.074186 .44507)" stroke="#000" stroke-width=".60887" fill="#f7c600"/>
   </g>
   <g id="g624" transform="matrix(1.2884 0 0 1.2884 605.38 -64.549)">
    <path id="path625" d="m69.786 170.53 9.3354-13.711 9.3809 13.74" stroke="#f7c600" stroke-width=".97419pt" fill="none"/>
    <path id="path626" d="m80.922 156.72c0.000323 0.94218-0.7634 1.7061-1.7056 1.7061-0.94222 0-1.7059-0.76396-1.7056-1.7061-0.000323-0.94218 0.7634-1.7061 1.7056-1.7061 0.94222 0 1.7059 0.76396 1.7056 1.7061z" fill-rule="evenodd" transform="matrix(1.087 0 0 1.087 -6.9653 -4.9563)" stroke="#000" stroke-width=".56016" fill="#f7c600"/>
    <path id="path627" d="m71.541 180.66 14.473 0.0412s0.22693-1.8783-1.5117-3.0199c7.5805-1.0424 5.6112-7.7289 11.96-8.1079 1.2318 0.1895-3.3165 2.8427-3.3165 2.8427s-3.8277 2.7012-2.0846 4.0745c1.3839 1.0903 1.9899-0.6632 2.1794-1.9898 0.18951-1.3266 6.1592-2.1794 5.3064-5.9696-1.4214-3.127-9.7599 2.0845-9.7599 2.0845l-5.9491-0.033c-0.37093-0.6677-2.0105-3.3452-3.7036-3.3576-2.0088 0.0733-3.4237 3.3906-3.4237 3.3906h-8.6228-4.8326s-0.46132 3.4524 6.3612 4.1157c1.536 2.0061 2.7268 2.5666 4.0621 3.0859-0.89021 0.7419-1.1408 1.6394-1.1371 2.8427z" fill-rule="evenodd" stroke="#000" stroke-width=".60887" fill="#f7c600"/>
    <path id="path628" d="m72.583 177.72 12.055-0.0411" stroke="#000" stroke-width=".60887" fill="none"/>
    <path id="path629" d="m67.062 170.61s0.96439 5.6381 5.4154 6.9734" stroke="#000" stroke-width=".60887" fill="none"/>
    <path id="path630" d="m66.32 170.54c0.4451-2.1513 1.2611-2.5223 2.1513-5.2671 0.14837-2.6706-2.1513-2.3739-1.4837-4.0801 1.1869-1.8546 0.59347-3.635-1.632-5.0445 0.44511 2.4481-2.8932 4.7478-2.8932 6.7507 0 2.003 1.7062 1.5579 1.4837 4.5995 0.14837 1.7803-0.4451 1.3353-0.59347 3.0415h2.9674z" fill-rule="evenodd" stroke="#000" stroke-width=".60887" fill="url(#linearGradient3341)"/>
    <path id="path631" d="m80.922 156.72c0.000323 0.94218-0.7634 1.7061-1.7056 1.7061-0.94222 0-1.7059-0.76396-1.7056-1.7061-0.000323-0.94218 0.7634-1.7061 1.7056-1.7061 0.94222 0 1.7059 0.76396 1.7056 1.7061z" fill-rule="evenodd" transform="translate(-.074186 .44507)" stroke="#000" stroke-width=".60887" fill="#f7c600"/>
   </g>
   <g id="g632" transform="matrix(1.2884 0 0 1.2884 730.2 -63.975)">
    <path id="path633" d="m69.786 170.53 9.3354-13.711 9.3809 13.74" stroke="#f7c600" stroke-width=".97419pt" fill="none"/>
    <path id="path634" d="m80.922 156.72c0.000323 0.94218-0.7634 1.7061-1.7056 1.7061-0.94222 0-1.7059-0.76396-1.7056-1.7061-0.000323-0.94218 0.7634-1.7061 1.7056-1.7061 0.94222 0 1.7059 0.76396 1.7056 1.7061z" fill-rule="evenodd" transform="matrix(1.087 0 0 1.087 -6.9653 -4.9563)" stroke="#000" stroke-width=".56016" fill="#f7c600"/>
    <path id="path635" d="m71.541 180.66 14.473 0.0412s0.22693-1.8783-1.5117-3.0199c7.5805-1.0424 5.6112-7.7289 11.96-8.1079 1.2318 0.1895-3.3165 2.8427-3.3165 2.8427s-3.8277 2.7012-2.0846 4.0745c1.3839 1.0903 1.9899-0.6632 2.1794-1.9898 0.18951-1.3266 6.1592-2.1794 5.3064-5.9696-1.4214-3.127-9.7599 2.0845-9.7599 2.0845l-5.9491-0.033c-0.37093-0.6677-2.0105-3.3452-3.7036-3.3576-2.0088 0.0733-3.4237 3.3906-3.4237 3.3906h-8.6228-4.8326s-0.46132 3.4524 6.3612 4.1157c1.536 2.0061 2.7268 2.5666 4.0621 3.0859-0.89021 0.7419-1.1408 1.6394-1.1371 2.8427z" fill-rule="evenodd" stroke="#000" stroke-width=".60887" fill="#f7c600"/>
    <path id="path636" d="m72.583 177.72 12.055-0.0411" stroke="#000" stroke-width=".60887" fill="none"/>
    <path id="path637" d="m67.062 170.61s0.96439 5.6381 5.4154 6.9734" stroke="#000" stroke-width=".60887" fill="none"/>
    <path id="path638" d="m66.32 170.54c0.4451-2.1513 1.2611-2.5223 2.1513-5.2671 0.14837-2.6706-2.1513-2.3739-1.4837-4.0801 1.1869-1.8546 0.59347-3.635-1.632-5.0445 0.44511 2.4481-2.8932 4.7478-2.8932 6.7507 0 2.003 1.7062 1.5579 1.4837 4.5995 0.14837 1.7803-0.4451 1.3353-0.59347 3.0415h2.9674z" fill-rule="evenodd" stroke="#000" stroke-width=".60887" fill="url(#linearGradient3343)"/>
    <path id="path639" d="m80.922 156.72c0.000323 0.94218-0.7634 1.7061-1.7056 1.7061-0.94222 0-1.7059-0.76396-1.7056-1.7061-0.000323-0.94218 0.7634-1.7061 1.7056-1.7061 0.94222 0 1.7059 0.76396 1.7056 1.7061z" fill-rule="evenodd" transform="translate(-.074186 .44507)" stroke="#000" stroke-width=".60887" fill="#f7c600"/>
   </g>
   <g id="g640" transform="matrix(1.2884 0 0 1.2884 729.06 -29.376)">
    <path id="path641" d="m69.786 170.53 9.3354-13.711 9.3809 13.74" stroke="#f7c600" stroke-width=".97419pt" fill="none"/>
    <path id="path642" d="m80.922 156.72c0.000323 0.94218-0.7634 1.7061-1.7056 1.7061-0.94222 0-1.7059-0.76396-1.7056-1.7061-0.000323-0.94218 0.7634-1.7061 1.7056-1.7061 0.94222 0 1.7059 0.76396 1.7056 1.7061z" fill-rule="evenodd" transform="matrix(1.087 0 0 1.087 -6.9653 -4.9563)" stroke="#000" stroke-width=".56016" fill="#f7c600"/>
    <path id="path643" d="m71.541 180.66 14.473 0.0412s0.22693-1.8783-1.5117-3.0199c7.5805-1.0424 5.6112-7.7289 11.96-8.1079 1.2318 0.1895-3.3165 2.8427-3.3165 2.8427s-3.8277 2.7012-2.0846 4.0745c1.3839 1.0903 1.9899-0.6632 2.1794-1.9898 0.18951-1.3266 6.1592-2.1794 5.3064-5.9696-1.4214-3.127-9.7599 2.0845-9.7599 2.0845l-5.9491-0.033c-0.37093-0.6677-2.0105-3.3452-3.7036-3.3576-2.0088 0.0733-3.4237 3.3906-3.4237 3.3906h-8.6228-4.8326s-0.46132 3.4524 6.3612 4.1157c1.536 2.0061 2.7268 2.5666 4.0621 3.0859-0.89021 0.7419-1.1408 1.6394-1.1371 2.8427z" fill-rule="evenodd" stroke="#000" stroke-width=".60887" fill="#f7c600"/>
    <path id="path644" d="m72.583 177.72 12.055-0.0411" stroke="#000" stroke-width=".60887" fill="none"/>
    <path id="path645" d="m67.062 170.61s0.96439 5.6381 5.4154 6.9734" stroke="#000" stroke-width=".60887" fill="none"/>
    <path id="path646" d="m66.32 170.54c0.4451-2.1513 1.2611-2.5223 2.1513-5.2671 0.14837-2.6706-2.1513-2.3739-1.4837-4.0801 1.1869-1.8546 0.59347-3.635-1.632-5.0445 0.44511 2.4481-2.8932 4.7478-2.8932 6.7507 0 2.003 1.7062 1.5579 1.4837 4.5995 0.14837 1.7803-0.4451 1.3353-0.59347 3.0415h2.9674z" fill-rule="evenodd" stroke="#000" stroke-width=".60887" fill="url(#linearGradient3345)"/>
    <path id="path647" d="m80.922 156.72c0.000323 0.94218-0.7634 1.7061-1.7056 1.7061-0.94222 0-1.7059-0.76396-1.7056-1.7061-0.000323-0.94218 0.7634-1.7061 1.7056-1.7061 0.94222 0 1.7059 0.76396 1.7056 1.7061z" fill-rule="evenodd" transform="translate(-.074186 .44507)" stroke="#000" stroke-width=".60887" fill="#f7c600"/>
   </g>
   <g id="g648" transform="matrix(1.2884 0 0 1.2884 727.53 5.9883)">
    <path id="path649" d="m69.786 170.53 9.3354-13.711 9.3809 13.74" stroke="#f7c600" stroke-width=".97419pt" fill="none"/>
    <path id="path650" d="m80.922 156.72c0.000323 0.94218-0.7634 1.7061-1.7056 1.7061-0.94222 0-1.7059-0.76396-1.7056-1.7061-0.000323-0.94218 0.7634-1.7061 1.7056-1.7061 0.94222 0 1.7059 0.76396 1.7056 1.7061z" fill-rule="evenodd" transform="matrix(1.087 0 0 1.087 -6.9653 -4.9563)" stroke="#000" stroke-width=".56016" fill="#f7c600"/>
    <path id="path651" d="m71.541 180.66 14.473 0.0412s0.22693-1.8783-1.5117-3.0199c7.5805-1.0424 5.6112-7.7289 11.96-8.1079 1.2318 0.1895-3.3165 2.8427-3.3165 2.8427s-3.8277 2.7012-2.0846 4.0745c1.3839 1.0903 1.9899-0.6632 2.1794-1.9898 0.18951-1.3266 6.1592-2.1794 5.3064-5.9696-1.4214-3.127-9.7599 2.0845-9.7599 2.0845l-5.9491-0.033c-0.37093-0.6677-2.0105-3.3452-3.7036-3.3576-2.0088 0.0733-3.4237 3.3906-3.4237 3.3906h-8.6228-4.8326s-0.46132 3.4524 6.3612 4.1157c1.536 2.0061 2.7268 2.5666 4.0621 3.0859-0.89021 0.7419-1.1408 1.6394-1.1371 2.8427z" fill-rule="evenodd" stroke="#000" stroke-width=".60887" fill="#f7c600"/>
    <path id="path652" d="m72.583 177.72 12.055-0.0411" stroke="#000" stroke-width=".60887" fill="none"/>
    <path id="path653" d="m67.062 170.61s0.96439 5.6381 5.4154 6.9734" stroke="#000" stroke-width=".60887" fill="none"/>
    <path id="path654" d="m66.32 170.54c0.4451-2.1513 1.2611-2.5223 2.1513-5.2671 0.14837-2.6706-2.1513-2.3739-1.4837-4.0801 1.1869-1.8546 0.59347-3.635-1.632-5.0445 0.44511 2.4481-2.8932 4.7478-2.8932 6.7507 0 2.003 1.7062 1.5579 1.4837 4.5995 0.14837 1.7803-0.4451 1.3353-0.59347 3.0415h2.9674z" fill-rule="evenodd" stroke="#000" stroke-width=".60887" fill="url(#linearGradient3347)"/>
    <path id="path655" d="m80.922 156.72c0.000323 0.94218-0.7634 1.7061-1.7056 1.7061-0.94222 0-1.7059-0.76396-1.7056-1.7061-0.000323-0.94218 0.7634-1.7061 1.7056-1.7061 0.94222 0 1.7059 0.76396 1.7056 1.7061z" fill-rule="evenodd" transform="translate(-.074186 .44507)" stroke="#000" stroke-width=".60887" fill="#f7c600"/>
   </g>
   <path id="path657" d="m818.97 330.26 12.028-17.665 12.086 17.702" stroke="#f7c600" stroke-width="1.2551" fill="none"/>
   <path id="path658" d="m833.41 323.66c0.00046 1.3195-1.0691 2.3894-2.3887 2.3894s-2.3892-1.0699-2.3887-2.3894c-0.00046-1.3195 1.0691-2.3894 2.3887-2.3894 1.3195 0 2.3891 1.0699 2.3887 2.3894z" fill-rule="evenodd" stroke="#000" stroke-width=".78449" fill="#f7c600"/>
   <path id="path659" d="m821.23 343.31 18.647 0.053s0.29238-2.42-1.9477-3.8908c9.7667-1.343 7.2295-9.9579 15.409-10.446 1.5871 0.24417-4.2729 3.6625-4.2729 3.6625s-4.9317 3.4802-2.6859 5.2496c1.783 1.4047 2.5638-0.85447 2.808-2.5637 0.24415-1.7092 7.9354-2.8079 6.8367-7.6912-1.8313-4.0288-12.575 2.6857-12.575 2.6857l-7.6648-0.0425c-0.47791-0.86027-2.5903-4.31-4.7717-4.3259-2.5881 0.0944-4.4111 4.3684-4.4111 4.3684h-11.11-6.2263s-0.59436 4.4481 8.1957 5.3026c1.979 2.5846 3.5131 3.3068 5.2336 3.9759-1.147 0.95586-1.4698 2.1122-1.465 3.6625z" fill-rule="evenodd" stroke="#000" stroke-width=".78446" fill="#f7c600"/>
   <path id="path660" d="m822.57 339.52 15.531-0.0529" stroke="#000" stroke-width=".78446" fill="none"/>
   <path id="path661" d="m815.46 330.37s1.2425 7.2641 6.9772 8.9845" stroke="#000" stroke-width=".78446" fill="none"/>
   <path id="path662" d="m814.5 330.27c0.57346-2.7717 1.6248-3.2497 2.7718-6.7861 0.19116-3.4408-2.7718-3.0585-1.9116-5.2568 1.5292-2.3895 0.76463-4.6833-2.1027-6.4993 0.57347 3.1541-3.7276 6.117-3.7276 8.6976 0 2.5807 2.1983 2.0072 1.9116 5.926 0.19116 2.2937-0.57346 1.7204-0.76462 3.9187h3.8231z" fill-rule="evenodd" stroke="#000" stroke-width=".78446" fill="url(#linearGradient3349)"/>
   <path id="path663" d="m833.22 313.05c0.00042 1.2139-0.98356 2.1982-2.1975 2.1982-1.214 0-2.1979-0.98428-2.1975-2.1982-0.00041-1.2139 0.98357-2.1982 2.1975-2.1982s2.1979 0.98428 2.1975 2.1982z" fill-rule="evenodd" stroke="#000" stroke-width=".78446" fill="#f7c600"/>
   <g id="g664" transform="matrix(1.2884 0 0 1.2884 728.87 75.569)">
    <path id="path665" d="m69.786 170.53 9.3354-13.711 9.3809 13.74" stroke="#f7c600" stroke-width=".97419pt" fill="none"/>
    <path id="path666" d="m80.922 156.72c0.000323 0.94218-0.7634 1.7061-1.7056 1.7061-0.94222 0-1.7059-0.76396-1.7056-1.7061-0.000323-0.94218 0.7634-1.7061 1.7056-1.7061 0.94222 0 1.7059 0.76396 1.7056 1.7061z" fill-rule="evenodd" transform="matrix(1.087 0 0 1.087 -6.9653 -4.9563)" stroke="#000" stroke-width=".56016" fill="#f7c600"/>
    <path id="path667" d="m71.541 180.66 14.473 0.0412s0.22693-1.8783-1.5117-3.0199c7.5805-1.0424 5.6112-7.7289 11.96-8.1079 1.2318 0.1895-3.3165 2.8427-3.3165 2.8427s-3.8277 2.7012-2.0846 4.0745c1.3839 1.0903 1.9899-0.6632 2.1794-1.9898 0.18951-1.3266 6.1592-2.1794 5.3064-5.9696-1.4214-3.127-9.7599 2.0845-9.7599 2.0845l-5.9491-0.033c-0.37093-0.6677-2.0105-3.3452-3.7036-3.3576-2.0088 0.0733-3.4237 3.3906-3.4237 3.3906h-8.6228-4.8326s-0.46132 3.4524 6.3612 4.1157c1.536 2.0061 2.7268 2.5666 4.0621 3.0859-0.89021 0.7419-1.1408 1.6394-1.1371 2.8427z" fill-rule="evenodd" stroke="#000" stroke-width=".60887" fill="#f7c600"/>
    <path id="path668" d="m72.583 177.72 12.055-0.0411" stroke="#000" stroke-width=".60887" fill="none"/>
    <path id="path669" d="m67.062 170.61s0.96439 5.6381 5.4154 6.9734" stroke="#000" stroke-width=".60887" fill="none"/>
    <path id="path670" d="m66.32 170.54c0.4451-2.1513 1.2611-2.5223 2.1513-5.2671 0.14837-2.6706-2.1513-2.3739-1.4837-4.0801 1.1869-1.8546 0.59347-3.635-1.632-5.0445 0.44511 2.4481-2.8932 4.7478-2.8932 6.7507 0 2.003 1.7062 1.5579 1.4837 4.5995 0.14837 1.7803-0.4451 1.3353-0.59347 3.0415h2.9674z" fill-rule="evenodd" stroke="#000" stroke-width=".60887" fill="url(#linearGradient3351)"/>
    <path id="path671" d="m80.922 156.72c0.000323 0.94218-0.7634 1.7061-1.7056 1.7061-0.94222 0-1.7059-0.76396-1.7056-1.7061-0.000323-0.94218 0.7634-1.7061 1.7056-1.7061 0.94222 0 1.7059 0.76396 1.7056 1.7061z" fill-rule="evenodd" transform="translate(-.074186 .44507)" stroke="#000" stroke-width=".60887" fill="#f7c600"/>
   </g>
   <g id="g576" transform="matrix(1.2884 0 0 1.2884 627.25 43.056)">
    <path id="path563" d="m69.786 170.53 9.3354-13.711 9.3809 13.74" stroke="#f7c600" stroke-width=".97419pt" fill="none"/>
    <path id="path564" d="m80.922 156.72c0.000323 0.94218-0.7634 1.7061-1.7056 1.7061-0.94222 0-1.7059-0.76396-1.7056-1.7061-0.000323-0.94218 0.7634-1.7061 1.7056-1.7061 0.94222 0 1.7059 0.76396 1.7056 1.7061z" fill-rule="evenodd" transform="matrix(1.087 0 0 1.087 -6.9653 -4.9563)" stroke="#000" stroke-width=".56016" fill="#f7c600"/>
    <path id="path565" d="m71.541 180.66 14.473 0.0412s0.22693-1.8783-1.5117-3.0199c7.5805-1.0424 5.6112-7.7289 11.96-8.1079 1.2318 0.1895-3.3165 2.8427-3.3165 2.8427s-3.8277 2.7012-2.0846 4.0745c1.3839 1.0903 1.9899-0.6632 2.1794-1.9898 0.18951-1.3266 6.1592-2.1794 5.3064-5.9696-1.4214-3.127-9.7599 2.0845-9.7599 2.0845l-5.9491-0.033c-0.37093-0.6677-2.0105-3.3452-3.7036-3.3576-2.0088 0.0733-3.4237 3.3906-3.4237 3.3906h-8.6228-4.8326s-0.46132 3.4524 6.3612 4.1157c1.536 2.0061 2.7268 2.5666 4.0621 3.0859-0.89021 0.7419-1.1408 1.6394-1.1371 2.8427z" fill-rule="evenodd" stroke="#000" stroke-width=".60887" fill="#f7c600"/>
    <path id="path566" d="m72.583 177.72 12.055-0.0411" stroke="#000" stroke-width=".60887" fill="none"/>
    <path id="path568" d="m67.062 170.61s0.96439 5.6381 5.4154 6.9734" stroke="#000" stroke-width=".60887" fill="none"/>
    <path id="path569" d="m66.32 170.54c0.4451-2.1513 1.2611-2.5223 2.1513-5.2671 0.14837-2.6706-2.1513-2.3739-1.4837-4.0801 1.1869-1.8546 0.59347-3.635-1.632-5.0445 0.44511 2.4481-2.8932 4.7478-2.8932 6.7507 0 2.003 1.7062 1.5579 1.4837 4.5995 0.14837 1.7803-0.4451 1.3353-0.59347 3.0415h2.9674z" fill-rule="evenodd" stroke="#000" stroke-width=".60887" fill="url(#linearGradient3353)"/>
    <path id="path575" d="m80.922 156.72c0.000323 0.94218-0.7634 1.7061-1.7056 1.7061-0.94222 0-1.7059-0.76396-1.7056-1.7061-0.000323-0.94218 0.7634-1.7061 1.7056-1.7061 0.94222 0 1.7059 0.76396 1.7056 1.7061z" fill-rule="evenodd" transform="translate(-.074186 .44507)" stroke="#000" stroke-width=".60887" fill="#f7c600"/>
   </g>
   <g id="g729" transform="matrix(1.2884 0 0 1.2884 602.15 109.79)" stroke="#000">
    <path id="path718" d="m139.22 183.9s3.7768 8.7077 8.0782 3.3572 2.7278-7.6586 2.7278-7.6586l-9.652-5.2456-2.8326 5.98 1.6786 3.567z" fill-rule="evenodd" stroke-width=".60887" fill="#f7c600"/>
    <path id="path678" d="m147.51 182.75s0.6294 0.105 1.154-0.8392-1.154-1.364-1.8884-2.4131l-0.8393 1.6787 1.5737 1.5736z" fill-rule="evenodd" stroke-width=".60887" fill="#ffc6b5"/>
    <path id="path675" d="m125.68 180.44-8.4979 4.6161s-4.1965 0.8392-4.5112 0c-0.3148-0.8393 0.1049-1.5737 2.308-1.6786 2.2032-0.1049 8.1832-5.5604 8.1832-5.5604l2.5179 2.6229z" fill-rule="evenodd" stroke-width=".60887" fill="#ffc6b5"/>
    <path id="path674" d="m125.79 29.47s0.2098 1.9933 0.3147 3.0424-1.6786 3.2523-1.7835 3.1474-0.9442 0.10491-0.8393 0.73441 1.3639 0.83931 1.3639 0.83931-0.5246 2.2031 0 2.308c0.5245 0.10491-1.3639 2.8327 0 3.567 1.3638 0.73433 3.6719 1.6785 4.721 1.4687 1.0491-0.20981 0 4.0916 0 4.0916l-2.9375 6.2947 16.156-1.6785-3.3572-5.3506s-1.5736-1.0491-1.154-4.0916c0.4197-3.0424-0.2098-16.786-0.2098-16.786l-11.54-1.5737-0.7344 3.9867z" fill-rule="evenodd" stroke-width=".60887" fill="#ffc6b5"/>
    <path id="path672" d="m122.85 53.39s-5.2456 2.413-5.0358 8.9175c-1.3638 6.2947-2.0982 12.589-2.0982 12.589s-6.1898 7.029-8.0782 9.547c-1.8884 2.5179-4.7211 7.6585-5.7702 9.0224s-5.1407 5.8752-5.0358 7.5537c0.10491 1.6785-0.94421 9.1274 3.1474 9.9666 1.0491 0.4196 4.4063-8.6028 4.4063-8.6028s0.2098-3.8817-0.9442-4.6161 2.5179-3.2523 2.5179-3.2523 7.0291-5.1407 8.6028-6.3996 5.8751-6.0849 5.8751-6.0849l2.4129-28.641z" fill-rule="evenodd" stroke-width=".60887" fill="#ffc6b5"/>
    <path id="path679" d="m128.83 48.459s1.3639 3.672 4.4063 3.0424c3.0425-0.6295 6.6095-3.4621 6.6095-3.4621s2.8326-0.10491 3.2523 0.31471c0.4196 0.41962 7.6585 7.4486 7.4487 9.6519-0.2098 2.2032-3.3572 1.5736-4.5112 3.0424s-3.0425 5.1407-2.5179 7.8684 2.0982 6.2948 1.8884 7.6586-1.3638 1.7834-1.3638 2.5178c0 0.73441 0.9442 1.9934 0.9442 3.3572s-1.259 3.3571-1.0491 4.721c0.2098 1.3639 0.3147 5.3505 0.3147 5.3505l-0.3147 18.465s1.0491 0.6294 1.154 1.6786c0.1049 1.0491 7.134 31.578 7.134 31.578s-0.3147 0.9442-1.0491 0.8393 2.8326 4.721 2.9375 6.0849 3.672 12.065 3.567 13.534c-0.1049 1.4687-0.6294 4.721-0.9442 4.8259-0.3147 0.1049 2.3081 6.7144 1.8884 7.7635-0.4196 1.0491-4.721 0.9442-4.721 0.9442l-1.154-0.2098s0.1049 1.3639-0.7344 1.4688-7.0291-0.3148-7.0291-0.3148-1.7835 2.7277-2.8326 2.6228c-1.0492-0.1049-2.413-1.9933-2.7278-1.6785-0.3147 0.3147 0.9443 2.0981 0.6295 2.6227-0.3147 0.5246-5.6652 1.6787-6.7144-0.8392-1.0491-2.5179 0.6295-1.8885 0.3148-2.413-0.3148-0.5246-2.7277-1.8884-3.4621-1.4688s1.8884 1.0491 1.7835 2.0983c-0.1049 1.0491-2.3081 2.6227-3.1474 2.6227s-2.8326-3.8817-5.7701-3.462c-2.9376 0.4196-4.826 1.154-4.826 1.154s-3.4621 1.4687-4.9309 1.154c-1.4687-0.3147-2.0982-1.4688-2.0982-2.0982 0-0.6295 1.0491-3.3572 0.9442-4.1965s-0.9442-1.6786-0.9442-2.9376c0-1.2589 2.413-5.5603 2.413-5.5603l-0.1049-19.304s-2.2032-0.0001-2.3081-1.3639 3.3572-30.529 3.8817-32.418c0.5246-1.8884 1.8885-8.6028 1.8885-8.6028s-1.5737 0.7344-1.6786 0 4.721-17.415 4.721-17.415 0.8393-8.2881 0.8393-10.491c0-2.2031-0.4196-5.2456-0.4196-5.2456s-4.3072-1.8234-4.4064-4.6161c-0.3939-4.4434 4.0916-6.9243 4.6162-8.393 0.5245-1.4687 2.0982-5.875 2.0982-5.875s2.3081-3.9867 6.0849-4.6162z" fill-rule="evenodd" stroke-width=".60887" fill="#fff"/>
    <path id="path717" d="m127.26 181.7s-10.176 5.3506-11.645 5.7702c-1.4688 0.4196-2.413-1.7835-0.9442-2.2032 1.4688-0.4196 3.7768-0.6295 3.7768-0.6295s-3.4621-2.7277-3.3572-2.8326c0.105-0.1049 4.7211-1.7834 4.826-1.7834s1.4688 2.7276 2.413 2.5178 3.6719-2.308 3.6719-2.308 1.4688 1.6786 1.2589 1.4687z" fill-rule="evenodd" stroke-width=".60887" fill="#f7c600"/>
    <path id="path676" d="m141.6 184.63c0.9622 1.2409 1.3384 3.3932 3.5416 2.1343 2.2031-1.2589-1.1286-3.5956-1.1286-3.5956l-2.413 1.4613z" fill-rule="evenodd" stroke-width=".60887" fill="#ffc6b5"/>
    <path id="path677" d="m145.62 184.42s1.0491 0.8393 1.9933-0.1049-1.8885-2.9375-1.8885-2.9375l-1.3638 1.5737 1.259 1.4687z" fill-rule="evenodd" stroke-width=".60887" fill="#ffc6b5"/>
    <path id="path680" d="m142.47 52.55s-9.3372 5.98-9.1274 8.0782" stroke-width=".60887" fill="none"/>
    <path id="path681" d="m144.57 53.599s-2.0982 2.308-2.2031 2.308" stroke-width=".60887" fill="none"/>
    <path id="path682" d="m147.4 56.117s-4.6162 3.7768-3.8818 6.1898" stroke-width=".60887" fill="none"/>
    <path id="path683" d="m125.58 52.026s-1.3638 2.8326-1.0491 3.7768c0.3148 0.94421 2.6228 4.5113 2.9376 6.7144 0.3147 2.2031 0 3.7769 0 3.7769" stroke-width=".60887" fill="none"/>
    <path id="path684" d="m123.17 57.271s0.4196 3.3572 1.0491 3.9867c0.6295 0.62943 2.3081 3.4621 2.5179 4.6161" stroke-width=".60887" fill="none"/>
    <path id="path685" d="m122.33 71.224s2.7277 1.364 5.2456-3.8817" stroke-width=".60887" fill="none"/>
    <path id="path686" d="m131.66 63.671c-0.1049 0-1.9933 5.1407 1.3639 7.0291s5.8751 1.6785 7.3438 1.154c1.4688-0.52452 3.0425-1.4687 3.0425-1.4687" stroke-width=".60887" fill="none"/>
    <path id="path687" d="m130.2 69.966s0.2098 6.9243 10.386 13.744" stroke-width=".60887" fill="none"/>
    <path id="path688" d="m130.62 76.47s-0.1049 6.0848 3.8818 8.8126" stroke-width=".60887" fill="none"/>
    <path id="path689" d="m128.52 69.336s-3.0425 9.0224-5.4554 9.9666" stroke-width=".60887" fill="none"/>
    <path id="path690" d="m127.57 75.946s-0.1049 6.5046-0.9442 8.8126" stroke-width=".60887" fill="none"/>
    <path id="path691" d="m125.79 86.332s2.0982 2.6228 4.4063 2.413c2.308-0.20981 3.2522-2.9376 4.8259-2.5179 1.5737 0.41969 3.0425 1.6787 6.7144 1.3639" stroke-width=".60887" fill="none"/>
    <path id="path692" d="m136.49 90.318s0 5.3505 0.9442 5.8751 0.5246 5.4554 0.5246 5.4554" stroke-width=".60887" fill="none"/>
    <path id="path693" d="m123.69 87.801s-0.1049 5.0359-0.7344 6.8193c-0.6294 1.7834-1.8884 4.826-1.6785 7.4488" stroke-width=".60887" fill="none"/>
    <path id="path694" d="m117.29 105.01c0.5245-0.2098 2.3081-1.7834 2.3081-1.7834" stroke-width=".60887" fill="none"/>
    <path id="path695" d="m120.54 104.38s-4.5113 19.304-3.2523 30.844" stroke-width=".60887" fill="none"/>
    <path id="path696" d="m121.59 105.32s-2.3081 14.478-1.259 17.206" stroke-width=".60887" fill="none"/>
    <path id="path697" d="m120.44 104.9c0.1049 0 8.8126 0.6294 8.8126 0.6294" stroke-width=".60887" fill="none"/>
    <path id="path698" d="m130.51 104.38s2.413 1.259 5.7702 1.0491" stroke-width=".60887" fill="none"/>
    <path id="path699" d="m129.46 111.41s-0.4197 24.759-1.0491 30.215" stroke-width=".60887" fill="none"/>
    <path id="path700" d="m142.37 117.07s2.7277 21.717 4.3014 23.71" stroke-width=".60887" fill="none"/>
    <path id="path701" d="m137.12 119.8s1.6786 19.199 2.6228 20.878" stroke-width=".60887" fill="none"/>
    <path id="path702" d="m113.31 147.39s3.2522-1.0492 6.1897-4.1965c3.3573 4.5112 8.4979 0.2099 8.4979 0.2099s7.9733 5.4554 11.54-0.6295c5.4554 3.567 8.1831-0.5246 8.1831-0.5246s1.9934 3.0424 3.4621 2.7277" stroke-width=".60887" fill="none"/>
    <path id="path703" d="m142.47 147.08s4.0916 19.199 10.176 24.654" stroke-width=".60887" fill="none"/>
    <path id="path704" d="m121.38 145.08s0.5245 16.052 1.4687 27.382" stroke-width=".60887" fill="none"/>
    <path id="path705" d="m120.65 163.23s-0.5246 10.491-1.1541 11.226" stroke-width=".60887" fill="none"/>
    <path id="path707" d="m114.46 175.51s1.154 4.5113 6.9242 0.3148c5.7701-4.1966 5.875 1.5737 6.0849 2.2031 0.2098 0.6294 1.154 5.1407 3.3571 1.3639" stroke-width=".60887" fill="none"/>
    <path id="path708" d="m135.44 173.2s-0.9442 9.337 7.3438 2.5178c8.2881-6.8192 9.6519-0.1048 9.8617 1.9934" stroke-width=".60887" fill="none"/>
    <path id="path709" d="m125.47 28.84s2.3081 0.31464 3.567-0.41969c1.259-0.73433 2.7278-1.049 3.7769 0.41969s1.7835 1.3638 1.7835 1.3638-1.5737 3.8817 0 4.3014c1.5737 0.41969 2.308 0.41962 2.413 0.94421 0.1049 0.5246-1.3639 1.6786-0.9443 2.2031 0.4197 0.5246 1.1541 1.1541 1.259 1.5737 0.1049 0.41962-0.9442 2.2031-0.6295 2.6228 0.3148 0.41969 1.259 2.0983 1.8884 2.0983 0.6295 0 0.2099 2.6228 2.0983 1.9933s1.7835-2.3081 1.7835-2.3081 1.9933-0.31471 2.5179-2.0982c0.5245-1.7835 1.7835-2.2031 1.7835-2.2031s2.5179-1.3638-0.8393-3.4621c0-14.688-9.6519-13.114-9.6519-13.114s-1.1541-2.6229-3.0425-2.3081c-1.8884 0.31479-1.9933 2.518-3.3572 2.3081-1.3638-0.20988-1.6785-1.154-1.7835-1.0491-0.1049 0.1049-1.2589 2.2031-1.2589 2.7277 0 0.52459-3.6719-0.73441-3.3572 1.9933s2.0982 2.6228 1.9933 2.413z" fill-rule="evenodd" stroke-width=".60887" fill="#9c5100"/>
    <path id="path710" d="m135.55 25.273s-0.7344 4.6161 4.1965 4.1965c-0.6295 2.5179 1.2589 3.3572 1.2589 3.3572" stroke-width=".60887" fill="none"/>
    <path id="path711" d="m144.67 35.659c0.105 0 2.2032 1.3638-0.1049 3.0424" stroke-width=".60887" fill="none"/>
    <path id="path712" d="m137.54 39.331s1.049 1.259 2.2031 0.94429c1.154-0.31472 3.0424 1.154 3.0424 1.154s1.5737 0.52452 1.7835 0.20981" stroke-width=".60887" fill="none"/>
    <path id="path713" d="m131.14 43.318s3.567 1.3639 5.8751-4.3014" stroke-width=".60887" fill="none"/>
    <path id="path714" d="m124.53 37.338 2.0983 0.10491" stroke-width=".60887" fill="none"/>
    <path id="path715" stroke-linejoin="round" d="m124.85 39.436h1.8884l-1.6786 0.7344" stroke-width=".60887" fill="none"/>
    <path id="path716" stroke-linejoin="round" d="m127.47 33.561c0.3147 0 1.4687-0.4197 1.6786-0.10491 0.2098 0.31479-1.259 0.5246-1.6786 0.10491z" stroke-width="1.096" fill="none"/>
    <path id="path673" d="m150.13 58.487c0.1049 0 3.4621 10.386 3.8817 13.009 0.4197 2.6228 1.7835 13.114 1.259 14.583-0.5246 1.4688-5.8751 8.4978-6.5046 10.281-0.6295 1.7835-4.4063 8.6029-4.4063 8.6029s-0.9442 6.7144-1.3639 7.0291c-0.4196 0.3148 1.0831 1.9628 0.9443 2.5179-0.2082 0.6245-3.0425 3.567-4.3014 3.2523-1.259-0.3148-3.2523-1.7836-3.3572-3.1474s0.1049-5.8751 1.0491-7.0291 5.8751-12.799 6.1898-13.534c0.3147-0.73441 4.5112-9.8617 4.6161-11.435 0.105-1.5737-1.3054-5.2127-2.7891-6.548-3.302-9.7182-2.0046-15.579 4.7825-17.582z" fill-rule="evenodd" stroke-width=".60887" fill="#ffc6b5"/>
    <path id="path726" d="m101.25 103.5 0.1642 4.5977" stroke-width=".60887" fill="none"/>
    <path id="path727" d="m96.942 103.16s2.9477 4.9298 2.7014 7.557" stroke-width=".60887" fill="none"/>
    <path id="path728" stroke-linejoin="round" d="m136.45 113.46s2.204-0.2316 2.1346 3.4481c1.4074-4.5711 4.2692-4.6797 4.2692-4.6797" stroke-width=".60887" fill="none"/>
   </g>
   <path id="path780" d="m768.25 391.32c57.086-1.5858 93.954-42.814 93.557-43.211-0.3963-0.39644 7.5322-11.496 13.875-9.9107 6.3429 1.5858 15.461 20.218 26.561 24.182 5.5499 8.7214-1.5858 16.65-3.9644 18.236-2.3785 1.5858-13.082 5.9465-14.668-0.39644-1.5856-6.3429-4.7572-5.1536-4.7572-5.1536s-50.743 49.554-109.41 47.572c-60.65 0.4-110.6-47.57-110.6-47.57l-4.3608 4.7571s-4.7572 5.1536-7.1357 4.7572c-2.3786-0.39645-12.686-7.1357-13.479-13.875-0.79286-6.7393 6.3429-11.1 6.3429-11.1s17.443-13.479 19.425-20.614c3.9643-3.9643 11.496 2.7749 11.496 2.7749s45.986 52.725 97.125 49.554z" fill-rule="evenodd" stroke="#000" stroke-width="1.2551pt" fill="#f7c600"/>
   <path id="path782" d="m639.02 360.66s4.7171-1.258 6.4468 0.7076c1.7296 1.9654 13.601 13.601 13.601 13.601" stroke="#000" stroke-width="1.2551pt" fill="none"/>
   <path id="path783" d="m649.79 366.16-4.7171 3.5378s11.871 2.3583 9.1984 10.142" stroke="#000" stroke-width="1.2551pt" fill="none"/>
   <path id="path784" d="m897.99 360.26s-2.3587-1.258-6.0537 1.4938c-3.6951 2.7516-13.051 13.208-13.051 13.208" stroke="#000" stroke-width="1.2551pt" fill="none"/>
   <path id="path785" d="m887.38 365.85 5.1102 3.9309s-10.692 0.70758-8.3336 10.849" stroke="#000" stroke-width="1.2551pt" fill="none"/>
   <path id="text2325" d="m699.45 373.24-0.34373 0.48199c-0.71701-0.35409-1.5348-0.41981-2.4534-0.19717-0.67444 0.1741-1.9449 0.80744-3.8115 1.9l-15.708 9.1572-0.42989-0.30657 3.9573-18.363c0.4782-2.2137 0.69667-3.558 0.65541-4.0329-0.0326-0.46868-0.36407-0.98674-0.99438-1.5542l0.34372-0.48198 8.4674 6.0385-0.34373 0.48199-0.28659-0.20438c-0.76425-0.54501-1.3534-0.82108-1.7676-0.82822-0.29266-0.0122-0.52878 0.10767-0.70837 0.3595-0.1115 0.15634-0.20992 0.36782-0.29526 0.63447-0.0792 0.25799-0.25037 0.99404-0.51356 2.2082l-2.5061 11.478 9.0745-5.3393c1.0919-0.64932 1.8002-1.1006 2.1249-1.3538 0.32466-0.2532 0.56752-0.49269 0.72856-0.71849 0.18578-0.26053 0.28043-0.54021 0.28396-0.83906 0.003-0.29883-0.0923-0.59636-0.28711-0.89257-0.26817-0.41394-0.71054-0.84078-1.3271-1.2805l0.34373-0.48199 5.7969 4.1341m5.6407 27.295-0.28405 0.5194-9.9529-5.4431 0.28406-0.5194 0.63171 0.34546c0.55215 0.30197 1.0504 0.44681 1.4948 0.43454 0.31497 0.002 0.62498-0.1202 0.93002-0.36674 0.22577-0.1683 0.59968-0.72975 1.1217-1.6843l6.848-12.522c0.53227-0.97328 0.81347-1.6097 0.84361-1.9094 0.0301-0.2996-0.0653-0.62532-0.28623-0.97717-0.20649-0.35605-0.57644-0.67995-1.1099-0.97169l-0.6317-0.34548 0.28406-0.51939 9.9528 5.443-0.28405 0.5194-0.6317-0.34547c-0.55218-0.30195-1.0504-0.4468-1.4948-0.43453-0.31499-0.002-0.62967 0.11766-0.94404 0.35906-0.2258 0.16832-0.59971 0.72976-1.1217 1.6843l-6.848 12.522c-0.53228 0.97329-0.81348 1.6098-0.8436 1.9094-0.0208 0.30474 0.0721 0.63515 0.27856 0.99122 0.22094 0.35182 0.59813 0.6736 1.1316 0.96533l0.63171 0.34548m36.36-8.5281-2.5662 7.2046-0.55768-0.19864c0.0283-2.2093-0.44834-4.0662-1.4297-5.5707-0.98143-1.5045-2.271-2.5413-3.8686-3.1104-1.5274-0.544-2.9524-0.56467-4.275-0.062-1.3191 0.49263-2.4635 1.4325-3.4331 2.8195-0.96964 1.3871-1.7426 2.8895-2.3188 4.5073-0.69793 1.9594-1.0788 3.76-1.1427 5.4017s0.29312 2.9918 1.0711 4.0502c0.78801 1.062 1.8904 1.8453 3.3072 2.3499 0.49235 0.17538 1.0127 0.30408 1.5609 0.38614 0.56187 0.0756 1.1499 0.10951 1.7641 0.10178l1.514-4.2504c0.2863-0.80386 0.41536-1.341 0.38717-1.6115-0.0247-0.28053-0.17881-0.57888-0.46248-0.89507-0.27365-0.3126-0.65666-0.5566-1.149-0.73197l-0.52753-0.1879 0.19864-0.55768 9.9327 3.5379-0.19864 0.55768c-0.77154-0.2182-1.3367-0.30059-1.6953-0.24719-0.34511 0.0469-0.66247 0.22263-0.95206 0.52711-0.15846 0.1587-0.37011 0.60984-0.63494 1.3534l-1.5139 4.2504c-1.5139 0.11751-3.0311 0.0696-4.5517-0.1436-1.5142-0.19963-3.0298-0.56966-4.5471-1.1101-1.9393-0.69076-3.459-1.5264-4.5591-2.5071-1.0864-0.98709-1.9699-2.0831-2.6504-3.2879-0.66689-1.2113-1.0852-2.453-1.2549-3.725-0.20947-1.6372-0.008-3.3149 0.60383-5.0332 1.0952-3.0748 3.1006-5.2875 6.0161-6.6382 2.9156-1.3507 6.0112-1.4426 9.287-0.27586 1.0149 0.36151 1.9006 0.76758 2.6573 1.2182 0.41347 0.23788 1.0446 0.7231 1.8933 1.4557 0.86232 0.72613 1.3839 1.1214 1.5648 1.1858 0.28132 0.10024 0.57836 0.0928 0.89113-0.0223 0.3163-0.1251 0.67694-0.43825 1.0819-0.93943l0.55768 0.19864m15.318 24.587-0.0887 0.58532-11.216-1.699 0.0887-0.58533 0.71187 0.10784c0.62224 0.0943 1.14 0.0594 1.5532-0.10455 0.29657-0.10612 0.54583-0.32727 0.7478-0.66349 0.15435-0.23553 0.313-0.89117 0.47596-1.9669l2.1376-14.111c0.16614-1.0968 0.21197-1.7911 0.13751-2.0829-0.0745-0.29175-0.27583-0.56499-0.60405-0.81971-0.31608-0.26363-0.77468-0.44098-1.3758-0.53206l-0.71188-0.10783 0.0887-0.58533 11.216 1.699-0.0887 0.58532-0.71187-0.10783c-0.62224-0.0942-1.14-0.0594-1.5532 0.10455-0.29658 0.10613-0.55112 0.32649-0.76362 0.66108-0.15437 0.23556-0.31302 0.89119-0.47596 1.9669l-2.1376 14.111c-0.16617 1.0968-0.212 1.7911-0.13752 2.0829 0.085 0.29337 0.28556 0.57189 0.60164 0.83553 0.32822 0.2547 0.7929 0.42758 1.394 0.51865l0.71188 0.10783m29.114-7.0721-0.42685 7.6477-19.239 0.98164-0.0302-0.59123 0.71906-0.0367c0.62851-0.0321 1.1288-0.16974 1.5009-0.41302 0.26935-0.16327 0.46937-0.42981 0.60003-0.79962 0.10413-0.26164 0.12847-0.93575 0.073-2.0223l-0.72726-14.253c-0.0565-1.1079-0.15045-1.7973-0.28175-2.0683-0.13132-0.27097-0.38324-0.49843-0.75576-0.68237-0.36241-0.1951-0.84722-0.27718-1.4544-0.24621l-0.71907 0.0367-0.0302-0.59124 11.553-0.58946 0.0302 0.59123-0.94278 0.0481c-0.62853 0.032-1.1288 0.16977-1.5009 0.41302-0.26938 0.16329-0.47471 0.4301-0.61601 0.80043-0.10415 0.26166-0.12849 0.93578-0.073 2.0224l0.70442 13.806c0.0565 1.1079 0.15659 1.813 0.30019 2.1154 0.14305 0.29176 0.4048 0.50269 0.78527 0.63281 0.2712 0.0823 0.91814 0.0974 1.9408 0.0452l1.8056-0.0922c1.1505-0.0587 2.0989-0.31003 2.8453-0.75397 0.74633-0.44394 1.3742-1.1168 1.8836-2.0186 0.52-0.90233 0.98687-2.2185 1.4006-3.9485l0.65515-0.0334m21.045-3.6512-7.3433 2.1937-0.26931 2.2847c-0.0847 0.76003-0.0613 1.3598 0.0699 1.7993 0.17402 0.58256 0.53733 0.9416 1.0899 1.0771 0.3248 0.0811 1.0411 0.0007 2.1489-0.24118l0.16945 0.56723-6.9141 2.0655-0.16945-0.56723c0.7125-0.33531 1.2341-0.82511 1.5649-1.4694 0.3277-0.65451 0.60753-1.8792 0.83949-3.674l2.48-18.809 0.29128-0.087 12.589 14.808c1.1978 1.4011 2.0893 2.2425 2.6744 2.5241 0.44212 0.21303 0.98765 0.25044 1.6366 0.11224l0.16945 0.56723-10.057 3.0043-0.16945-0.56722 0.41392-0.12366c0.80739-0.24119 1.341-0.52307 1.6009-0.84563 0.17598-0.23068 0.21819-0.49934 0.1266-0.80596-0.055-0.18395-0.14211-0.36387-0.26144-0.53975-0.0479-0.0858-0.31573-0.42333-0.8034-1.0124l-1.8778-2.2611m-0.86014-0.97875-5.2355-6.2342-1.05 8.112 6.2855-1.8777m27.726-28.253 2.7806 5.1719-0.50733 0.27276c-0.94213-1.0315-1.7353-1.7071-2.3795-2.0269-0.64926-0.3291-1.3767-0.47693-2.1822-0.44352-0.44793 0.0228-1.1182 0.27421-2.0106 0.75404l-1.4233 0.76524 7.9252 14.741c0.5253 0.97708 0.9053 1.56 1.14 1.7487 0.24406 0.18365 0.57161 0.28609 0.98268 0.30729 0.41538 0.007 0.89554-0.13632 1.4404-0.42929l0.63416-0.34095 0.28033 0.52141-10.006 5.3794-0.28034-0.52142 0.63415-0.34095c0.55429-0.29802 0.94752-0.63659 1.1797-1.0157 0.17354-0.26285 0.24491-0.59187 0.2141-0.98707-0.0179-0.28103-0.28444-0.90069-0.79964-1.859l-7.9252-14.741-1.381 0.74251c-1.2871 0.69202-2.0754 1.4671-2.3649 2.3251-0.40821 1.2004-0.34152 2.5634 0.20005 4.0888l-0.5355 0.28791-2.7806-5.1719 17.164-9.2284m13.014-7.7159 5.3186 7.051 0.34489-0.26016c1.0985-0.82861 1.6346-1.7741 1.6082-2.8364s-0.47893-2.3176-1.3576-3.7659l0.4854-0.36615 6.841 9.0692-0.4854 0.36614c-0.84731-0.91072-1.6747-1.5559-2.4821-1.9356-0.79893-0.38605-1.4958-0.52173-2.0907-0.40704-0.60131 0.10621-1.315 0.47084-2.141 1.0939l3.6807 4.8795c0.71943 0.95376 1.1978 1.5082 1.435 1.6632 0.24574 0.14866 0.53069 0.20761 0.85489 0.17684 0.32417-0.0307 0.73322-0.23242 1.2271-0.60498l1.0347-0.78045c1.618-1.2204 2.6297-2.5715 3.0352-4.0532 0.41402-1.4881 0.25581-3.1591-0.47461-5.0131l0.47261-0.3565 3.3736 6.0931-14.971 11.292-0.3565-0.47262 0.5748-0.43358c0.50243-0.37899 0.83948-0.77352 1.0112-1.1836 0.13147-0.28623 0.14762-0.61908 0.0484-0.99855-0.0605-0.27502-0.41833-0.84683-1.0735-1.7154l-8.5946-11.394c-0.59095-0.78343-0.97516-1.2485-1.1526-1.3952-0.30998-0.2338-0.64095-0.34488-0.99292-0.33327-0.50345 0.006-1.0362 0.22048-1.5982 0.64441l-0.5748 0.43358-0.35651-0.47261 14.498-10.936 3.8637 5.1222-0.48539 0.36614c-1.1912-1.0655-2.218-1.7005-3.0805-1.9051-0.85392-0.21096-1.786-0.13586-2.7962 0.22531-0.59251 0.20645-1.5445 0.80428-2.8559 1.7935l-1.7883 1.3489"/>
   <path id="path2329" d="m664.42 374.87c70.909 57.515 140.41 58.57 208.41 0" fill="none"/>
  </g>
 </g>
</svg>
